<svg width="620" height="620" fill="none" xmlns="http://www.w3.org/2000/svg"><defs><clipPath id="b"><path transform="translate(65.968 568.168)" fill="#fff" fill-opacity="0" d="M0 0h43.152v10.416H0z"/></clipPath><clipPath id="c"><path transform="translate(298.592 162.936)" fill="#fff" fill-opacity="0" d="M0 0h22.072v22.072H0z"/></clipPath><clipPath id="d"><path transform="translate(32.736 56.296)" fill="#fff" fill-opacity="0" d="M0 0h277.016v519.312H0z"/></clipPath><clipPath id="j"><path transform="translate(352.16 40.424)" fill="#fff" fill-opacity="0" d="M0 0h230.64v533.448H0z"/></clipPath><clipPath id="k"><path transform="translate(272.304 470.208)" fill="#fff" fill-opacity="0" d="M0 0h143.84v105.4H0z"/></clipPath><clipPath id="l"><path transform="translate(240.808 305.784)" fill="#fff" fill-opacity="0" d="M0 0h106.64v103.664H0z"/></clipPath><clipPath id="m"><path transform="translate(266.848 319.672)" fill="#fff" fill-opacity="0" d="M0 0h27.28v18.104H0z"/></clipPath><clipPath id="a"><path fill="#fff" fill-opacity="0" d="M0 0h620v620H0z"/></clipPath></defs><path d="M0 0h620v620H0z"/><g clip-path="url(#a)"><path d="M65.968 568.168h43.152v10.416H65.968z"/><g clip-path="url(#b)"><path d="M109.11 573.37c0 2.88-9.65 5.21-21.57 5.21s-21.58-2.33-21.58-5.21c0-2.87 9.66-5.21 21.58-5.21 11.92 0 21.57 2.34 21.57 5.21z" fill="#232323" fill-rule="evenodd"/></g><path d="M298.592 162.936h22.072v22.072h-22.072z"/><g clip-path="url(#c)"><path d="M319.93 173.97c0 5.69-4.61 10.31-10.31 10.31-5.69 0-10.31-4.62-10.31-10.31 0-5.7 4.62-10.31 10.31-10.31 5.7 0 10.31 4.61 10.31 10.31z" fill="#FFF" fill-rule="evenodd"/><path d="M309.62 185c-6.08 0-11.03-4.95-11.03-11.03 0-6.09 4.95-11.04 11.03-11.04 6.09 0 11.04 4.95 11.04 11.04 0 6.08-4.95 11.03-11.04 11.03zm0-20.61c-5.28 0-9.58 4.29-9.58 9.58 0 5.28 4.3 9.58 9.58 9.58 5.29 0 9.59-4.3 9.59-9.58 0-5.29-4.3-9.58-9.59-9.58z" fill="#232323"/><path d="M315.12 173.97c0 3.03-2.46 5.49-5.5 5.49-3.03 0-5.49-2.46-5.49-5.49 0-3.04 2.46-5.49 5.49-5.49 3.04 0 5.5 2.45 5.5 5.49z" fill="#232323" fill-rule="evenodd"/></g><path d="M32.736 56.296h277.016v519.312H32.736z"/><g clip-path="url(#d)"><path d="M302.75 347.68c-7.84-3.39-11.44-4.88-11.44-4.88s24.73 16.73 12.85 14.24c-3.38-.71-9.59-3.26-10.79-4.05 20.66 13.06-.4 8.29-9.46 1.52 22.6 17.31-11.05 4.85-39.58-16.56-24.07-18.07-56.18-58.28-62.93-82.05-18.3-64.49-1.97-118.97 25.32-117.68 26.58 1.25 22.82 104.13 22.82 104.13s21.31 29.61 35.72 54.21c5.5 9.38 11.83 18.6 20.69 28.84 3.7 4.27 5.77 6.53 14.54 13.55 11.81 9.45 10.11 12.13 2.26 8.73z" fill="#FFF"/><path d="M290.13 363.41c-1 0-2.4-.3-4.28-.92-2.93-.97-6.8-2.64-11.18-4.83-10.09-5.03-21.31-12-30.79-19.11-11.67-8.76-25.92-23.35-38.1-39.02-12.79-16.45-21.94-32.28-25.1-43.43-6.37-22.44-8.91-44.94-7.35-65.06 1.45-18.55 6.37-33.98 13.88-43.44 5.52-6.97 12.28-10.48 19.55-10.13 11.46.54 18.89 18.44 22.09 53.21 2.23 24.26 1.54 48.67 1.45 51.44 1.94 2.7 21.98 30.79 35.61 54.06 6.08 10.37 12.63 19.5 20.61 28.73 3.7 4.27 5.7 6.45 14.44 13.45 10.11 8.1 8.95 10.03 8.57 10.66-.77 1.28-3.15 1.06-7.08-.65-1.68-.73-3.37-1.45-5.05-2.17.93.68 1.86 1.38 2.78 2.09 7.67 5.93 8.31 7.75 7.85 8.83-.51 1.22-2.42.99-4.02.65-1.19-.24-2.7-.71-4.22-1.24 2.75 2.2 3.17 3.3 3.12 4.02-.04.53-.34.95-.86 1.19-1.74.8-6.87-.54-11.74-2.73 2.04 2.15 2 3.12 1.5 3.78-.31.41-.86.62-1.68.62zM205.8 138.95c-6.43 0-12.43 3.3-17.41 9.58-7.32 9.24-12.14 24.38-13.56 42.63-1.55 19.94.97 42.25 7.3 64.53 3.11 10.97 12.16 26.61 24.84 42.91 12.1 15.57 26.24 30.06 37.81 38.74 9.18 6.89 20.09 13.69 29.94 18.66 9.86 4.98 14.85 6.23 15.84 5.89-.09-.4-.88-2.02-7.11-6.79a.79.79 0 01-.28-.49c-.03-.2.03-.4.15-.56.12-.15.29-.26.49-.29.19-.02.39.03.55.14 6.14 4.59 15.73 7.18 17.03 6.49-.09-.34-.92-2.02-8.33-6.71-.04-.02-.07-.04-.1-.06a.745.745 0 01-.33-.48.745.745 0 01.58-.89c.19-.04.39-.01.56.1l.1.07c1.26.76 7.09 3.18 10.44 3.88 1.53.32 2.12.24 2.31.19-.1-.41-.97-2.11-7.69-7.27-3.97-3.04-8-5.77-8.04-5.8a.697.697 0 01-.31-.44.78.78 0 01.06-.54.773.773 0 01.96-.34c.03.02 3.69 1.53 11.45 4.89 3.65 1.59 5.01 1.43 5.2 1.25-.01 0 .36-1.83-8.23-8.7-8.82-7.07-10.98-9.42-14.64-13.65-8.04-9.29-14.64-18.49-20.77-28.95-14.22-24.29-35.47-53.86-35.68-54.15-.1-.14-.15-.3-.14-.47.01-.26.91-25.98-1.44-51.51-2.15-23.3-7.47-51.22-20.66-51.84-.3-.01-.59-.02-.89-.02z" fill="#232323"/><path d="M284.41 347.31s6.51 4.52 10.53 6.53l-10.53-6.53z" fill="#FFF"/><path d="M294.94 354.59c-.12 0-.23-.03-.34-.08-4.01-2.01-10.35-6.39-10.62-6.58a.782.782 0 01-.31-.48c-.03-.2.01-.4.12-.56a.767.767 0 011.04-.2c.07.05 6.52 4.51 10.44 6.47a.753.753 0 01-.33 1.43z" fill="#232323"/><path d="M280.14 351.83s3.76 2.76 5.77 4.01l-5.77-4.01z" fill="#FFF"/><path d="M285.91 356.6c-.14 0-.28-.04-.4-.12-2-1.25-5.66-3.93-5.81-4.04a.703.703 0 01-.2-.22.686.686 0 01-.09-.57c.02-.1.06-.19.12-.27.06-.08.13-.15.22-.2.08-.05.18-.09.28-.1a.71.71 0 01.56.14c.04.03 3.76 2.76 5.72 3.99.14.08.24.21.3.36.06.16.07.32.02.48-.04.16-.14.3-.27.4-.13.09-.29.15-.45.15z" fill="#232323"/><path d="M269.15 325.85s22.31 13.92 24.09 10.81c1.28-2.25-10.74-15.3-10.74-15.3l-13.35 4.49z" fill="#FFF"/><path d="M292.12 337.88c-1.29 0-4.44-.7-13.06-5.39-5.34-2.9-10.25-5.97-10.3-6a.703.703 0 01-.22-.2.66.66 0 01-.12-.27.71.71 0 01-.01-.29c.02-.1.05-.19.1-.28a.7.7 0 01.21-.21c.08-.06.17-.1.26-.12.1-.03.2-.03.3-.01.1.01.19.05.27.1.06.04 5.39 3.36 10.97 6.36 10.37 5.56 11.92 4.81 12.06 4.71.04-.2.03-1.63-4.98-7.84-2.74-3.4-5.63-6.53-5.66-6.57a.696.696 0 01-.15-.25.71.71 0 01-.05-.29c0-.1.03-.19.07-.29.04-.09.1-.17.17-.23.08-.07.16-.12.25-.16.1-.03.2-.05.3-.04a.807.807 0 01.52.24c.03.04 3.06 3.32 5.88 6.84 5.3 6.6 5.48 8.42 4.96 9.34-.15.26-.45.6-1.05.75-.15.04-.36.1-.72.1zm-76.87 160.15c-46.19 32.56-84.44 24.07-75.16 8.76 4.76-13.3 43.19-29.11 68.33-16.09l6.83 7.33z" fill="#232323"/><path d="M156.83 521.09c-7.35 0-13.25-1.56-16.42-4.52-2.92-2.73-3.27-6.31-1-10.1 2.11-5.76 10.17-11.99 21.07-16.27 7.75-3.05 16.06-4.81 24.02-5.07 9.21-.32 17.37 1.34 24.27 4.91.07.04.14.09.2.15l6.83 7.33c.07.08.13.17.16.27.04.1.05.21.04.32-.01.11-.05.21-.1.3-.05.1-.13.18-.22.24-20.18 14.22-37.01 19.47-47.57 21.38-4 .71-7.8 1.06-11.28 1.06zm29.85-34.5c-.71 0-1.41.02-2.12.04-7.8.26-15.94 1.98-23.53 4.97-10.56 4.15-18.31 10.07-20.23 15.44-.02.05-.04.1-.07.14-1.93 3.19-1.69 6.06.71 8.29 4.33 4.05 14.44 5.22 26.4 3.07 10.29-1.85 26.63-6.94 46.27-20.63l-6.15-6.6c-6.11-3.13-13.26-4.72-21.28-4.72z" fill="#232323"/><path d="M210.59 513.83l-.09.26c-3.31 11.91-7.07 22.65-7.18 22.98-.12.32-.03 0-.06 0h-.15c-2.84.08-34.02.68-31.62-10.04 0-.06-.74-1.66-.74-1.72.86-3.78 1.63-7.99 2.28-12.19.18-1.07.32-2.13.47-3.17.15-.95.27-1.89.39-2.81.03-.27.05-.53.11-.8.42-3.03.77-6.07 1.07-9.12.32-3.4.53-6.27.59-8.23v-.17c.03-.65 0-1.31-.03-1.96-.86-10.15 39.43 10.19 39.93 10.54 0 0-3.96 12.79-4.97 16.43z" fill="#FFF"/><path d="M200.41 537.85c-2.69 0-7.04-.09-11.6-.56-8.87-.91-14.56-2.82-16.92-5.68-1.1-1.33-1.49-2.84-1.18-4.51-.07-.16-.19-.42-.28-.62-.43-.98-.43-.98-.43-1.17 0-.05 0-.11.02-.16.81-3.59 1.57-7.68 2.26-12.15.16-.93.29-1.86.42-2.76l.06-.39c.13-.84.23-1.68.34-2.49l.04-.32c.03-.26.06-.54.12-.83.41-3.01.77-6.03 1.06-9.06.33-3.41.53-6.24.59-8.18v-.19c.03-.61 0-1.22-.03-1.87-.14-1.71.72-2.57 1.46-3 2.91-1.67 10.2-.07 22.3 4.89 8.55 3.5 16.98 7.72 17.35 7.99.14.09.23.22.28.37.05.15.06.32.01.47-.16.52-3.98 12.86-4.96 16.4-.01.01-.01.03-.01.04l-.09.25c-3.34 11.99-7.16 22.91-7.2 23a.75.75 0 01-.7.5h-.21c-.25.01-1.23.03-2.7.03zm-28.88-12.6c.08.17.19.43.28.62.43.97.43.97.43 1.16 0 .06 0 .11-.02.17-.29 1.3-.02 2.43.82 3.45 4.16 5.03 21.09 5.91 29.74 5.67.77-2.24 4.07-11.92 7-22.43 0-.01.01-.02.01-.03l.08-.25c.88-3.19 3.99-13.26 4.79-15.84-1.99-1.03-9.32-4.62-16.93-7.72-14.96-6.09-19.39-5.62-20.71-4.8-.34.22-.72.59-.64 1.55v.03c.03.65.06 1.32.03 2v.16c-.06 2-.26 4.86-.59 8.3-.3 3.06-.66 6.11-1.07 9.15 0 .02-.01.04-.01.06-.05.23-.08.47-.11.72l-.04.33c-.1.82-.21 1.67-.35 2.52l-.05.38c-.13.91-.26 1.85-.42 2.79-.68 4.4-1.43 8.44-2.24 12.01z" fill="#232323"/><path d="M210.5 514.13c-3.31 11.9-7.07 22.64-7.18 22.97-.12.32-.03 0-.06 0h-.15c-2.84.08-34.02.68-31.62-10.04 0-.06-.74-1.66-.74-1.72.86-3.78 1.63-7.99 2.28-12.19l37.47.98z" fill="#D9C6F4"/><mask id="e" maskUnits="userSpaceOnUse" x="170.755" y="513.153" width="39.753" height="24.092"><path d="M210.5 514.13c-3.31 11.9-7.07 22.64-7.18 22.97-.12.32-.03 0-.06 0h-.15c-2.84.08-34.02.68-31.62-10.04 0-.06-.74-1.66-.74-1.72.86-3.78 1.63-7.99 2.28-12.19l37.47.98z" fill="#000"/></mask><g mask="url(#e)"><path d="M224.11 522.15l-59.07-1.22c-.68 0-1.21-.56-1.21-1.24 0-.68.56-1.21 1.24-1.21h.03l59.04 1.21c.68 0 1.21.56 1.21 1.24 0 .68-.56 1.22-1.24 1.22z" fill="#FFF"/></g><path d="M200.41 537.85c-2.69 0-7.04-.09-11.6-.56-8.87-.91-14.56-2.82-16.92-5.68-1.1-1.33-1.49-2.84-1.18-4.51-.07-.16-.19-.42-.28-.62-.43-.98-.43-.98-.43-1.17 0-.05 0-.11.02-.16.81-3.59 1.57-7.68 2.26-12.15.16-.93.29-1.86.42-2.76l.06-.39c.13-.84.23-1.68.34-2.49l.04-.32c.03-.26.06-.54.12-.83.41-3.01.77-6.03 1.06-9.06.33-3.41.53-6.24.59-8.18v-.19c.03-.61 0-1.22-.03-1.87-.14-1.71.72-2.57 1.46-3 2.91-1.67 10.2-.07 22.3 4.89 8.55 3.5 16.98 7.72 17.35 7.99.14.09.23.22.28.37.05.15.06.32.01.47-.16.52-3.98 12.86-4.96 16.4-.01.01-.01.03-.01.04l-.09.25c-3.34 11.99-7.16 22.91-7.2 23a.75.75 0 01-.7.5h-.21c-.25.01-1.23.03-2.7.03zm-28.88-12.6c.08.17.19.43.28.62.43.97.43.97.43 1.16 0 .06 0 .11-.02.17-.29 1.3-.02 2.43.82 3.45 4.16 5.03 21.09 5.91 29.74 5.67.77-2.24 4.07-11.92 7-22.43 0-.01.01-.02.01-.03l.08-.25c.88-3.19 3.99-13.26 4.79-15.84-1.99-1.03-9.32-4.62-16.93-7.72-14.96-6.09-19.39-5.62-20.71-4.8-.34.22-.72.59-.64 1.55v.03c.03.65.06 1.32.03 2v.16c-.06 2-.26 4.86-.59 8.3-.3 3.06-.66 6.11-1.07 9.15 0 .02-.01.04-.01.06-.05.23-.08.47-.11.72l-.04.33c-.1.82-.21 1.67-.35 2.52l-.05.38c-.13.91-.26 1.85-.42 2.79-.68 4.4-1.43 8.44-2.24 12.01z" fill="#232323"/><path d="M144.49 490.19s-1.25 3.76-6.27 19.07c3.01-8.78 18.88-17.08 44.94-12.73 13.54 2.25 24.26 3.24 32.9 1.98 0 0 10.14-29.41 16.32-80.27 10.12-73.59-9.13-125.63-12.11-153.31-1.05-9.78-38.67-14.62-59.48-20.39-21.47 47.74 2.25 88.32 10.02 118.43 9.17 35.53-5.51 98.71-26.32 127.22z" fill="#00676C"/><path d="M170.68 524.86s-12.99 31.58-16.3 49.36c0 0 59.03 1.47 78.63-.08 10.63-.83 15.75-4.8 18.2-7.67 0 0-.01-.01-.02-.04-.01-.01-.01-.04-.03-.07-.56-1.36-6.46-14.7-25.71-24.51-3-1.53-12.64-5.8-23.77-7.17-7.61-.94-14.09-.63-18.96-2.28-6.19-2.1-8.56-7.66-12.04-7.54z" fill="#FFF"/><path d="M202.7 575.6c-22.81 0-47.95-.61-48.34-.62a.79.79 0 01-.31-.08.86.86 0 01-.26-.2c-.06-.09-.11-.19-.14-.29a.697.697 0 01-.01-.32c3.28-17.66 16.21-49.2 16.34-49.52a.79.79 0 01.67-.47c2.02-.06 3.6 1.38 5.44 3.05 1.81 1.65 3.87 3.52 6.87 4.53 3.02 1.03 6.71 1.28 10.99 1.57 2.48.17 5.05.34 7.82.68 12.55 1.55 22.89 6.67 24.02 7.25 19.24 9.8 25.34 23.16 26.05 24.85.02.04.04.09.05.13l.02.04c.04.12.06.26.03.39-.02.14-.08.26-.16.37-4.89 5.72-12.88 7.47-18.71 7.93-6.74.54-18.23.71-30.37.71zm-47.42-2.11c7.46.18 59.64 1.32 77.67-.1 9.67-.76 14.77-4.18 17.38-7.06-1.11-2.49-7.29-14.67-25.22-23.81-1.11-.57-11.23-5.58-23.52-7.09-2.73-.34-5.28-.51-7.74-.68-4.39-.3-8.17-.56-11.38-1.64-3.29-1.12-5.57-3.18-7.39-4.84-1.48-1.35-2.68-2.44-3.91-2.63-1.63 4.02-12.62 31.44-15.89 47.85z" fill="#232323"/><path d="M170.17 524.35c2.5.61 4.22 1.18 5.78 2.73 7.74 9.38 19.34 4.63 32.65 8.38 14.02 3.78 27.56 10.76 36.92 22.06 1.3 1.57 2.67 3.47 3.58 4.97-16.98 11.87-36.76 5.36-46.5 1.21-8.4-3.59-10.97.94-17.82-1.31-5.73-1.87-6.84-6.46-14.14-7.38-6.83-.86-12.58 3.6-12.58 3.6s7.14-20.07 12.11-34.26z" fill="#232323"/><path d="M169.61 570.79h-.2c-2.21-.03-4.28-.56-5.85-1.51-1.69-1.02-2.61-2.41-2.59-3.9.02-1.5.98-2.86 2.69-3.83 1.6-.91 3.69-1.39 5.89-1.36 2.21.03 4.28.57 5.85 1.52 1.69 1.02 2.61 2.4 2.59 3.9-.04 2.93-3.7 5.18-8.38 5.18zm-.25-9.1c-1.88 0-3.63.41-4.95 1.17-1.24.7-1.93 1.6-1.94 2.54-.01.93.65 1.85 1.87 2.59 1.34.81 3.15 1.27 5.09 1.3 3.8.05 7.03-1.65 7.06-3.7.01-.94-.65-1.86-1.87-2.6-1.34-.81-3.15-1.27-5.09-1.29-.06-.01-.11-.01-.17-.01z" fill="#232323"/><path d="M164.46 549.16c-.89 0-1.44-.07-1.51-.09a.631.631 0 01-.52-.46.702.702 0 01-.01-.25c.01-.08.04-.16.08-.23.05-.07.1-.13.17-.18.06-.05.14-.08.22-.11.08-.01.16-.02.24-.01.1.02 5.71.76 11.44-3.16 1.27-.87 2.3-1.64 3.22-2.33 3.52-2.64 5.46-4.09 12.47-4.89.16-.02.32.03.45.13.13.11.21.26.23.42a.64.64 0 01-.13.46c-.1.13-.25.21-.41.23-6.67.77-8.4 2.07-11.86 4.66-.93.69-1.97 1.47-3.26 2.35-4.38 3-8.63 3.46-10.82 3.46z" fill="#FFF"/><path d="M199.53 551.95c-.31 0-.61-.08-.88-.22-.44-.23-.77-.63-.91-1.11-.15-.47-.1-.99.13-1.43.23-.44 5.78-10.76 17.47-13.58.49-.11 1-.03 1.42.23.43.26.73.68.85 1.16.12.49.03 1-.22 1.42-.27.43-.68.73-1.17.85-10 2.41-14.98 11.59-15.03 11.68-.16.3-.4.56-.69.73-.29.18-.63.27-.97.27zm8.6 3.45a1.885 1.885 0 01-1.66-2.76c.22-.43 5.6-10.44 18.06-13.16.24-.06.49-.06.73-.02.25.05.48.14.69.27.2.13.38.31.52.51.15.2.25.43.3.67.11.49.01 1-.26 1.42-.27.42-.69.72-1.18.82-10.69 2.34-15.49 11.16-15.53 11.24-.16.31-.4.56-.7.74-.29.17-.63.27-.97.27zm9.94 2.79c-.32 0-.63-.08-.91-.24-.9-.5-1.23-1.64-.73-2.55.21-.37 5.13-9.04 16.49-11.38.48-.09.98.02 1.39.29.41.28.69.7.79 1.19.1.48.01.98-.26 1.39-.27.42-.68.71-1.16.82-9.62 1.98-13.92 9.45-13.96 9.52-.17.29-.41.54-.7.71-.28.16-.61.25-.95.25z" fill="#D9C6F4"/><path d="M73.9 439.55c26.85-9.06 79.87 47.93 61.91 53.53-42.29 1.48-77-41.72-61.91-53.53z" fill="#232323"/><path d="M133.75 493.86c-13.48 0-27.52-4.51-39.77-12.82-11.13-7.55-19.74-17.49-23.05-26.58-2.48-6.8-1.59-12.3 2.5-15.51.07-.05.15-.09.23-.12 6.02-2.03 13.54-1.03 22.35 2.97 7.5 3.41 15.5 8.82 23.14 15.66 6.35 5.69 11.95 11.97 15.77 17.68 2.85 4.26 6.04 10.23 5.12 14.49-.45 2.05-1.83 3.49-4 4.16-.07.02-.13.04-.2.04-.7.02-1.39.03-2.09.03zm-59.49-53.64c-3.45 2.78-4.13 7.65-1.92 13.73 3.16 8.67 11.77 18.57 22.48 25.84 12.59 8.54 27.1 12.99 40.86 12.54 1.62-.53 2.56-1.52 2.89-3.02 1.31-6.04-7.28-18.96-20.43-30.73-12.96-11.61-31.27-22.5-43.88-18.36z" fill="#232323"/><path d="M113.78 509.65c-.09.06-.15.09-.24.15-10.17 6.19-19.85 11.28-20.17 11.43-.33.14 0 0-.03-.03-.03 0-.03-.03-.06-.06-.03 0-.03-.03-.03-.03-2.07-1.84-24.37-21.91-15.65-27.89.03-.03.6-1.65.62-1.68 3.08-2.1 6.39-4.56 9.62-7.08.83-.62 1.62-1.27 2.42-1.92.71-.56 1.42-1.16 2.13-1.72.21-.18.42-.32.59-.5 2.43-2.01 4.74-3.94 6.75-5.71 2.45-2.17 4.49-4.06 5.83-5.42l.11-.12c.45-.44 3.7-3.94 4.09-4.44 6.06-7.7 19.1 34.96 19.22 35.52-.03 0-12.1 7.61-15.2 9.5z" fill="#FFF"/><path d="M93.37 521.98c-.17 0-.33-.06-.47-.16-.05-.04-.1-.08-.15-.14-.03-.02-.05-.05-.07-.08-1.04-.92-5.5-4.96-9.67-9.74-5.64-6.48-8.38-11.58-8.16-15.16.1-1.65.82-2.98 2.14-3.96.06-.16.14-.41.22-.61.35-.99.35-.99.48-1.13.04-.03.07-.06.11-.08 2.91-1.99 6.13-4.36 9.57-7.05.83-.62 1.63-1.27 2.4-1.9l.02-.02c.36-.28.71-.57 1.07-.86.35-.28.7-.57 1.05-.85.08-.06.16-.13.23-.19a3.013 3.013 0 00.36-.31c2.4-1.99 4.72-3.92 6.73-5.7 2.48-2.18 4.48-4.04 5.79-5.38l.12-.12c.47-.47 3.67-3.91 4.02-4.37 1-1.27 2.1-1.32 2.84-1.15 3.02.71 6.79 6.94 11.52 19.04 3.5 8.96 6.15 17.69 6.2 17.94.03.15.01.32-.06.47a.75.75 0 01-.32.34c-.18.11-1.89 1.19-3.87 2.43-3.71 2.33-9.32 5.84-11.29 7.05-.05.03-.09.06-.13.08l-.09.06-.03.01c-10.22 6.22-19.9 11.32-20.25 11.47-.1.05-.21.07-.31.07zm-14.53-29.95c-.06.16-.15.41-.22.6-.35.99-.35.99-.48 1.13-.04.03-.07.06-.11.08-1.05.72-1.6 1.69-1.68 2.95-.19 3.13 2.5 8 7.79 14.08 3.9 4.48 8.07 8.29 9.35 9.45 2.04-1.07 10.69-5.71 19.65-11.16.05-.03.09-.05.13-.08.03-.02.06-.03.09-.05l.03-.02c1.95-1.19 7.57-4.72 11.28-7.05 1.12-.7 2.1-1.32 2.79-1.75.26-.16.47-.29.64-.4-.61-2.01-3.02-9.66-6.07-17.42-5.84-14.9-9.02-17.62-10.4-17.91-.32-.07-.75-.06-1.28.62-.41.53-3.69 4.05-4.14 4.5l-.12.12c-1.33 1.36-3.36 3.24-5.87 5.45-2.02 1.78-4.33 3.72-6.73 5.71-.14.13-.27.24-.41.35-.06.05-.13.1-.2.16l-.02.02c-.35.28-.7.57-1.06.85-.35.29-.71.58-1.07.87l-.01.01c-.79.64-1.6 1.3-2.43 1.92-3.39 2.65-6.57 4.99-9.45 6.97z" fill="#232323"/><path d="M113.54 509.8c-10.17 6.19-19.85 11.28-20.17 11.43-.33.14 0 0-.03-.03-.03 0-.03-.03-.06-.06-.03 0-.03-.03-.03-.03-2.07-1.84-24.37-21.91-15.65-27.89.03-.03.6-1.65.62-1.68 3.08-2.1 10.89-8.08 14.11-10.6l21.21 28.86z" fill="#D9C6F4"/><mask id="f" maskUnits="userSpaceOnUse" x="75.593" y="484.467" width="37.953" height="36.829"><path d="M113.54 509.8c-10.17 6.19-19.85 11.28-20.17 11.43-.33.14 0 0-.03-.03-.03 0-.03-.03-.06-.06-.03 0-.03-.03-.03-.03-2.07-1.84-24.37-21.91-15.65-27.89.03-.03.6-1.65.62-1.68 3.08-2.1 6.39-4.56 9.62-7.08l25.7 25.34z" fill="#000"/></mask><g mask="url(#f)"><path d="M113.96 527.5l-33.28-46.2c-.39-.54-.27-1.28.24-1.66.53-.39 1.27-.27 1.65.23l.03.03 33.28 46.18c.38.53.26 1.27-.24 1.66-.56.38-1.3.29-1.68-.24z" fill="#FFF"/></g><path d="M93.37 521.98c-.17 0-.33-.06-.47-.16-.05-.04-.1-.08-.15-.14-.03-.02-.05-.05-.07-.08-1.04-.92-5.5-4.96-9.67-9.74-5.64-6.48-8.38-11.58-8.16-15.16.1-1.65.82-2.98 2.14-3.96.06-.16.14-.41.22-.61.35-.99.35-.99.48-1.13.04-.03.07-.06.11-.08 2.91-1.99 6.13-4.36 9.57-7.05.83-.62 1.63-1.27 2.4-1.9l.02-.02c.36-.28.71-.57 1.07-.86.35-.28.7-.57 1.05-.85.08-.06.16-.13.23-.19a3.013 3.013 0 00.36-.31c2.4-1.99 4.72-3.92 6.73-5.7 2.48-2.18 4.48-4.04 5.79-5.38l.12-.12c.47-.47 3.67-3.91 4.02-4.37 1-1.27 2.1-1.32 2.84-1.15 3.02.71 6.79 6.94 11.52 19.04 3.5 8.96 6.15 17.69 6.2 17.94.03.15.01.32-.06.47a.75.75 0 01-.32.34c-.18.11-1.89 1.19-3.87 2.43-3.71 2.33-9.32 5.84-11.29 7.05-.05.03-.09.06-.13.08l-.09.06-.03.01c-10.22 6.22-19.9 11.32-20.25 11.47-.1.05-.21.07-.31.07zm-14.53-29.95c-.06.16-.15.41-.22.6-.35.99-.35.99-.48 1.13-.04.03-.07.06-.11.08-1.05.72-1.6 1.69-1.68 2.95-.19 3.13 2.5 8 7.79 14.08 3.9 4.48 8.07 8.29 9.35 9.45 2.04-1.07 10.69-5.71 19.65-11.16.05-.03.09-.05.13-.08.03-.02.06-.03.09-.05l.03-.02c1.95-1.19 7.57-4.72 11.28-7.05 1.12-.7 2.1-1.32 2.79-1.75.26-.16.47-.29.64-.4-.61-2.01-3.02-9.66-6.07-17.42-5.84-14.9-9.02-17.62-10.4-17.91-.32-.07-.75-.06-1.28.62-.41.53-3.69 4.05-4.14 4.5l-.12.12c-1.33 1.36-3.36 3.24-5.87 5.45-2.02 1.78-4.33 3.72-6.73 5.71-.14.13-.27.24-.41.35-.06.05-.13.1-.2.16l-.02.02c-.35.28-.7.57-1.06.85-.35.29-.71.58-1.07.87l-.01.01c-.79.64-1.6 1.3-2.43 1.92-3.39 2.65-6.57 4.99-9.45 6.97z" fill="#232323"/><path d="M139.53 249.37c-32.59 60.47 20.18 110.47-6.53 153.21-9.19 14.72-32.12 28.42-59.27 36.24 2.04-.77 14.17-4.92 27.48 15.21 9.11 13.77 6.8 23.94 26.59 47.74 22.71-14.24 22.2-14.84 22.2-14.84 99.04-69.76 54.66-168.87 47.64-238.88-22.68-2.84-33.34-9.03-52.34-12.77-1.46 4.83-3.34 9.58-5.77 14.09z" fill="#00676C"/><mask id="g" maskUnits="userSpaceOnUse" x="138.226" y="244.547" width="97.071" height="264.716"><path d="M144.49 490.19s-1.25 3.76-6.27 19.07c3.01-8.78 18.88-17.08 44.94-12.73 13.54 2.25 23.57 2.76 32.2 1.5 0 0 10.84-28.93 17.02-79.79 10.12-73.59-9.13-125.63-12.12-153.31-1.04-9.78-38.66-14.62-59.48-20.39-21.46 47.74 2.26 88.32 10.03 118.43 9.17 35.53-5.51 98.71-26.32 127.22z" fill="#000"/></mask><g mask="url(#g)"><path d="M137.83 497.26c-.16 0-.32-.06-.45-.15a.814.814 0 01-.27-.39.72.72 0 01.02-.48c.05-.15.15-.28.29-.37 56.99-37.17 81.96-88.53 74.22-152.63a5530.41 5530.41 0 01-4.74-40.78c-.02-.2.04-.39.16-.55a.78.78 0 01.5-.27c.2-.02.4.04.55.16.16.12.26.29.28.49.03.23 2.6 23.09 4.74 40.77 7.82 64.72-17.37 116.56-74.89 154.07-.12.08-.26.13-.41.13z" fill="#FFF"/></g><mask id="h" maskUnits="userSpaceOnUse" x="73.733" y="243.22" width="161.342" height="266.793"><path d="M133.48 252.55c-37.26 63.35 26.23 107.29-.48 150.04-9.19 14.71-32.12 28.41-59.27 36.23 2.04-.77 14.17-4.92 27.48 15.21 9.11 13.77 6.8 23.09 26.59 46.89 36.38-22.5 22.59-14.76 22.59-14.76s-3.84 7.39-8.04 23.85c3.11-8.11 15.26-16.9 41.39-11.62 15.84 3.33 22.44 3.99 31.31 1.62 0 0 11.15-30.91 17.33-81.77 10.12-73.59-11.32-125.68-14.31-153.35-1.83-17.16-46.91-26.96-72.77-18.69-4.7 1.5-8.76 3.6-11.82 6.35z" fill="#000"/></mask><g mask="url(#h)"><path d="M126.22 409.66c-.15 0-.3-.04-.43-.13a.774.774 0 01-.27-.35.698.698 0 01-.03-.45c.04-.15.12-.28.23-.39 16.36-14.41 22.26-36.54 22.32-36.76a.75.75 0 01.35-.45c.17-.1.37-.13.57-.08a.78.78 0 01.54.91c-.06.23-6.07 22.78-22.78 37.51-.14.13-.32.19-.5.19z" fill="#FFF"/></g><path d="M79.77 490.13s-31.6 12.32-46.29 22.86c0 0 41.6 41.95 56.81 54.41 8.25 6.77 14.68 7.44 18.44 7.07l.01-.03c.01-.02.02-.05.03-.08.54-1.37 5.51-15.09-1.6-35.5-1.11-3.18-5.12-12.94-12.2-21.64-4.84-5.95-9.73-10.22-12.11-14.79-3.01-5.79-1.19-8.44-3.09-12.3z" fill="#FFF"/><path d="M107.06 575.31c-6.82 0-13.07-3.9-17.25-7.32-15.07-12.35-56.44-54.05-56.86-54.47a.65.65 0 01-.17-.27.696.696 0 01.05-.63c.05-.09.13-.18.21-.24 7.64-5.48 19.87-11.43 28.79-15.46 9.64-4.36 17.59-7.46 17.67-7.49.18-.07.37-.07.55 0 .17.06.32.2.4.37.9 1.83 1.02 3.39 1.15 5.04.15 2.04.32 4.14 1.93 7.25 1.47 2.83 3.97 5.57 6.85 8.74 1.68 1.84 3.41 3.75 5.18 5.92 7.98 9.81 11.9 20.66 12.32 21.86 7.11 20.41 2.27 34.27 1.61 35.98-.02.05-.03.09-.05.13l-.02.04c-.05.12-.14.23-.24.31-.11.08-.24.13-.38.15-.58.06-1.16.09-1.74.09zm-72.42-62.22c5.27 5.3 42.13 42.27 56.12 53.73 4.22 3.46 10.63 7.42 17.43 6.94.92-2.56 4.89-15.63-1.73-34.65-.41-1.18-4.25-11.8-12.07-21.41-1.74-2.14-3.46-4.03-5.12-5.86-2.96-3.25-5.51-6.05-7.07-9.06-1.76-3.38-1.94-5.74-2.1-7.82-.11-1.36-.2-2.55-.72-3.87-2.11.84-8.94 3.59-16.94 7.21-12.19 5.5-21.77 10.6-27.8 14.79z" fill="#232323"/><path d="M79.91 489.98c.51 1.5 1.06 2.31 1.01 4.52-.25 11.04 11.49 16.15 18.51 28.08 7.5 12.44 12.44 26.85 11.38 41.5-.14 2.02-.47 4.35-.85 6.06-20.47-3.19-30.24-21.59-34.39-31.34-3.58-8.41-8.57-6.91-11.97-13.29-2.83-5.32-.46-9.39-5.1-15.12-4.33-5.35-11.57-6.12-11.57-6.12s19.58-7.49 32.98-14.29z" fill="#232323"/><path d="M53.54 524.25c-2.1 0-4.65-1.17-6.84-3.32-3.4-3.36-4.43-7.64-2.34-9.76 1.05-1.06 2.68-1.38 4.59-.89 1.78.45 3.62 1.55 5.19 3.1 3.4 3.35 4.43 7.63 2.35 9.75-.75.76-1.78 1.12-2.95 1.12zm-6.25-12.69c-.79 0-1.42.23-1.86.67-1.44 1.46-.38 4.96 2.33 7.63 2.7 2.66 6.21 3.68 7.65 2.22 1.45-1.47.38-4.96-2.33-7.63-1.38-1.37-2.98-2.33-4.5-2.71-.46-.12-.89-.18-1.29-.18z" fill="#232323"/><path d="M84.43 512.43c-.13 0-.27-.04-.38-.13-5.34-4.07-7.49-4.33-11.78-4.86-1.14-.14-2.44-.29-3.98-.55-7.38-1.23-11.07-5.91-11.23-6.11a.65.65 0 01-.13-.47c.01-.08.03-.16.08-.23a.58.58 0 01.16-.19.57.57 0 01.22-.11c.08-.02.16-.03.25-.02.08.02.16.04.23.09.07.04.13.09.18.16.06.07 3.6 4.5 10.45 5.64 1.51.25 2.79.41 3.93.55 4.36.54 6.77.83 12.38 5.1.07.05.12.12.16.19a.631.631 0 01.07.47.57.57 0 01-.11.22c-.06.08-.13.14-.22.18-.09.05-.18.07-.28.07z" fill="#FFF"/><path d="M103.24 530.86c-.34 0-.66-.08-.95-.25-8.88-5.19-18.82-2.02-18.92-1.98a1.89 1.89 0 01-2.38-1.2c-.32-.99.21-2.05 1.19-2.38.47-.15 11.63-3.76 22.01 2.31.35.21.63.53.79.91.16.38.18.81.07 1.2-.1.4-.34.76-.67 1.01s-.73.38-1.14.38zm3.92 9.14c-.34 0-.68-.1-.98-.28-9.33-5.72-18.89-2.68-18.99-2.65-.98.33-2.04-.21-2.37-1.19-.33-.99.2-2.05 1.18-2.38.46-.15 11.27-3.65 22.15 3.01.35.22.62.54.77.92.14.38.17.8.05 1.2-.11.39-.34.74-.67.99-.33.24-.73.38-1.14.38zm2.89 9.08c-.35 0-.7-.1-1-.29-8.31-5.23-16.58-2.82-16.66-2.8-.99.3-2.04-.26-2.34-1.25a1.88 1.88 0 011.24-2.35c.4-.12 9.95-2.97 19.76 3.21.35.22.62.54.76.93.15.38.16.8.05 1.19-.11.39-.35.74-.68.98-.32.25-.72.38-1.13.38z" fill="#D9C6F4"/><path d="M253.86 64.87a9.7 9.7 0 00-4.35-1.3c-1.54-.09-3.07.2-4.48.82-2.41-9.96-15.44-9.05-17.66-1.73-8.53-7.39-20.13 1.95-16.97 10.36 1.16 3.09 3 9.51 1.33 14.52 4.25 2.26 11.74 13.47 11.74 13.47s20.07-14.57 27.67-16.35c11.22-3.2 8.94-16.81 2.72-19.79z" fill="#232323"/><path d="M223.47 101.76a.74.74 0 01-.63-.34c-.07-.11-7.43-11.07-11.46-13.21a.783.783 0 01-.35-.39.773.773 0 01-.01-.52c.44-1.3 1.63-6.17-1.32-14.01-1.57-4.18.21-9.1 4.33-11.96 4.07-2.84 9.07-2.77 13 .1 1.48-3.18 5.09-5.25 9.14-5.13 3.55.1 7.77 2.03 9.36 7.08 2.86-.99 6.05-.7 8.69.82 3.55 1.73 5.93 6.61 5.53 11.38-.41 4.82-3.47 8.39-8.41 9.8-.01 0-.02.01-.03.01-7.37 1.73-27.2 16.08-27.4 16.23-.13.09-.29.14-.44.14zM212.63 87.2c3.81 2.48 9.41 10.4 11.02 12.74 3.53-2.52 20.3-14.36 27.3-16.01 5.87-1.68 7.09-6.04 7.3-8.48.35-4.12-1.72-8.47-4.71-9.9l-.06-.03a8.963 8.963 0 00-8.14-.44c-.1.04-.21.06-.32.06-.11 0-.22-.03-.32-.07a.721.721 0 01-.25-.21.893.893 0 01-.15-.29c-1.17-4.85-4.99-6.68-8.17-6.77-3.79-.11-7.1 1.98-8.04 5.08a.803.803 0 01-.52.51c-.12.03-.24.03-.37.01a.867.867 0 01-.33-.17c-4.25-3.69-8.97-2.76-11.98-.67-3.55 2.48-5.11 6.67-3.78 10.2.97 2.59 3.01 9.06 1.52 14.44z" fill="#232323"/><path d="M253.3 118.6c-.41 2.73-2.48 5.19-5.66 6.12-8.29 2.42-17.4-2.05-17.4-2.05s-5.21 5.26-4.21 20.57c0 0-8.77-.51-34.6-15.81 0 0 7.77-5.92 16.62-22.93-5.01-1.89-9.58-8.47-6.69-15.19 1.65-3.83 6.55-5.57 10.53-3.96 4.08 1.65 6.06 5.77 8.5 10.06 2.75 4.85 4.63 1.77 7.07-2.09 1.56-2.48 3.36-5.28 5.77-6.51 5.46-2.79 16.33-1.59 16.33-1.59s-.55 3.1-.77 4.89c-.29 2.37-.48 5.41.18 6.77 1.16 2.39 2.84 2.4 2.6 3.74-.21 1.16-1.79 2.26-2.66 2.7-1.23 7.92 5.34 8.9 4.39 15.28z" fill="#FFF"/><path d="M226.03 143.99h-.04c-.37-.02-9.26-.69-34.94-15.91a.72.72 0 01-.26-.26.69.69 0 01-.11-.35c-.01-.12.02-.24.07-.36.05-.11.13-.21.23-.28.07-.06 7.53-5.88 16.02-21.96-2.72-1.28-5.11-3.78-6.34-6.69-.89-2.1-1.61-5.39.01-9.17 1.79-4.16 7.06-6.16 11.5-4.36 3.94 1.6 6.01 5.29 8.21 9.2.22.4.44.79.66 1.19.78 1.36 1.49 2.09 2.07 2.1 1.03.03 2.35-2.06 3.62-4.09l.09-.13c1.53-2.42 3.44-5.44 6.07-6.78 5.6-2.86 16.3-1.72 16.75-1.67.1.02.2.05.29.1a.74.74 0 01.37.78c-.01.04-.55 3.1-.77 4.85-.37 3.11-.33 5.43.12 6.35.49 1.03 1.08 1.54 1.59 1.99.6.51 1.27 1.1 1.07 2.22-.26 1.47-1.95 2.6-2.71 3.04-.46 3.65.86 5.59 2.25 7.65 1.32 1.94 2.68 3.95 2.19 7.26-.47 3.17-2.84 5.75-6.19 6.73-7.4 2.16-15.27-.91-17.4-1.85-1.08 1.47-4.49 7.13-3.67 19.6.01.1-.01.2-.04.3-.04.1-.09.18-.16.26a.725.725 0 01-.55.24zm-33.3-16.67c20.4 12 29.8 14.52 32.5 15.04-.75-14.76 4.25-20 4.47-20.22.11-.11.26-.19.41-.22.16-.02.32 0 .46.07.07.04 5.58 2.69 11.78 2.69 1.68 0 3.4-.19 5.08-.68 2.78-.81 4.74-2.93 5.13-5.52.4-2.72-.69-4.32-1.95-6.18-1.47-2.17-3.14-4.62-2.45-9.1.02-.11.07-.23.14-.32.07-.1.16-.18.27-.23 1.01-.51 2.14-1.46 2.26-2.16.04-.23.01-.31-.58-.82-.56-.49-1.33-1.16-1.95-2.46-.6-1.23-.69-3.65-.26-7.19.15-1.24.46-3.07.64-4.12-2.58-.21-10.75-.65-15.1 1.58-2.27 1.16-4.06 3.98-5.49 6.24l-.08.14c-1.64 2.59-3.05 4.83-4.93 4.79-1.19-.03-2.25-.94-3.35-2.87-.22-.39-.44-.79-.67-1.19-2.14-3.83-4-7.14-7.46-8.54-3.63-1.48-8.1.19-9.55 3.56-1.41 3.28-.78 6.16 0 7.99 1.19 2.81 3.59 5.19 6.26 6.2.1.04.19.09.27.17.08.07.13.16.17.26.04.1.06.21.05.32-.01.1-.03.2-.08.3-7.25 13.94-13.73 20.45-15.99 22.47z" fill="#232323"/><path d="M230.24 122.67s-5.42-2.91-8.09-7.74c-1.45.46-4.06 7.34 2.14 12.29.92.73 1.69 1.16 2.35 1.37 2.36-5.85 3.6-5.92 3.6-5.92z" fill="#232323"/><path d="M226.64 129.34c-.08 0-.15-.01-.23-.03-.79-.25-1.63-.74-2.59-1.5-4.64-3.71-4.39-8.18-4.06-9.94.35-1.89 1.22-3.36 2.16-3.66.17-.05.35-.04.51.02.16.07.29.18.38.34 2.53 4.58 7.73 7.41 7.78 7.43.13.07.24.18.31.32.07.13.1.29.08.44a.67.67 0 01-.18.4c-.1.12-.23.2-.38.24-.15.08-1.22.84-3.08 5.47-.06.14-.16.26-.28.34-.13.09-.27.13-.42.13zm-4.66-13.23c-.31.48-.67 1.33-.82 2.49-.21 1.75-.04 5.13 3.6 8.03a8.5 8.5 0 001.47.98c1.11-2.64 2-4.08 2.69-4.85-1.6-1.01-4.83-3.32-6.94-6.65zm-7.59-9.42c-6 0-10.18-3.65-10.37-3.81a.79.79 0 01-.24-.52.72.72 0 01.19-.54c.13-.15.31-.24.51-.25.2-.01.39.05.54.18.05.04 4.37 3.8 10.25 3.41.2-.01.39.05.54.19.15.13.25.31.26.51.01.2-.05.4-.19.55-.13.15-.31.24-.51.25-.33.02-.66.03-.98.03zm-.08-6.8c-.18 0-.36-.07-.5-.2a.7.7 0 01-.24-.49c-.3-3.2-1.51-5.58-3.61-7.07-1.55-1.1-2.99-1.28-3-1.28a.66.66 0 01-.28-.09.603.603 0 01-.23-.19.722.722 0 01-.14-.26.713.713 0 01-.02-.29c.01-.1.04-.2.09-.29.05-.08.11-.16.19-.22s.17-.11.27-.13c.09-.03.19-.04.29-.02.07 0 7.14.92 7.93 9.71.01.1 0 .21-.03.31a.76.76 0 01-.16.26.92.92 0 01-.25.19c-.1.04-.2.06-.31.06zm19.3-10.34l.11-.43c.04-.13.08-.26.13-.39.09-.25.2-.49.33-.72.25-.46.56-.89.92-1.28.74-.83 1.67-1.46 2.71-1.86a6.67 6.67 0 011.71-.41c.59-.05 1.18-.02 1.76.11.57.12 1.11.33 1.61.63.49.29.91.69 1.24 1.15.12.17.2.37.23.58.03.21 0 .42-.06.62-.07.2-.19.38-.33.52-.16.15-.34.26-.54.32l-.24.08c-.47.14-.85.21-1.2.31-.34.08-.65.17-.93.25l-1.61.46c-.54.16-1.13.38-1.78.62l-1.04.4c-.18.08-.37.15-.56.22-.1.03-.19.07-.29.1-.1.04-.19.06-.29.07 0 0-.49.08-.92-.05-.56-.16-1.02-.52-.99-1.1 0-.07.01-.14.03-.2zm4.46 5.06c1.25-.2 4.27-.62 7.11-1.89.19-.09.41-.1.6-.02.19.07.35.22.44.41v.01c.46 1.03.89 2.82-1.15 3.44-2.51.77-6.46-.21-7.27-1.32a.49.49 0 01-.07-.19.34.34 0 01.03-.2c.03-.07.07-.12.12-.16.06-.04.12-.07.19-.08zm7.21 15.51c-.41.26-.88.43-1.36.5-.48.07-.96.06-1.43-.02a5.16 5.16 0 01-2.58-1.22 4.912 4.912 0 01-1.45-2.48c-.23-.95-.11-1.95.35-2.82.05-.11.15-.19.27-.23.11-.05.24-.05.36-.01a.537.537 0 01.33.59v.03c-.2 1.02.01 2.08.58 2.95.18.29.4.55.65.78.52.45 1.13.78 1.79.95.67.2 1.37.22 2.04.05h.03c.12-.04.24-.03.36.03.11.05.2.14.25.25.05.11.06.24.03.36a.53.53 0 01-.22.29z" fill="#232323"/><mask id="i" maskUnits="userSpaceOnUse" x="209.877" y="56.434" width="49.168" height="44.577"><path d="M253.86 64.87c-2.69-1.57-4.96-2.45-8.22-1.45-4.01-10.28-16.05-8.08-18.27-.76-8.53-7.39-20.13 1.95-16.97 10.36 1.16 3.09 3 9.51 1.33 14.52 4.25 2.26 11.74 13.47 11.74 13.47s20.07-14.57 27.67-16.35c11.22-3.2 8.94-16.81 2.72-19.79z" fill="#000"/></mask><g mask="url(#i)"><path d="M239.89 69.28c-.12 0-.23-.03-.34-.08a.85.85 0 01-.27-.23.7.7 0 01-.13-.32.657.657 0 01.02-.34c.02-.07 2.24-7.13 10.71-7.4.1 0 .2.02.29.05.09.04.18.09.25.16.07.06.13.15.17.24.04.09.06.18.07.28 0 .2-.07.4-.21.54-.13.15-.32.23-.52.24-7.4.23-9.3 6.26-9.32 6.32a.77.77 0 01-.27.39c-.13.1-.29.15-.45.15z" fill="#FFF"/></g><path d="M177.39 134.96c6.02-3.01 14.04-7.53 14.04-7.53s16.55 9.03 34.6 15.81c19.81 48.17 16.8 97.35-17.05 109.14-6.09 2.69-55.62-22.97-55.62-22.97l1.1-65.07s13.08-23.69 22.93-29.38z" fill="#FFF"/><path d="M207.8 253.35c-2.54 0-9.26-1.53-29.23-10.76-13.01-6.02-25.43-12.45-25.55-12.51a.7.7 0 01-.3-.29.68.68 0 01-.11-.39l1.1-65.07c0-.13.03-.25.09-.36.54-.97 13.34-23.96 23.22-29.67.01 0 .02-.01.04-.02 5.93-2.96 13.92-7.46 14-7.51a.779.779 0 01.73 0c.17.09 16.71 9.08 34.51 15.76.19.08.35.23.43.42 13.72 33.38 16.18 66.05 6.58 87.41-5.07 11.28-13.16 18.92-24.05 22.73-.26.11-.64.26-1.46.26zm-53.68-24.4c2.27 1.17 13.44 6.89 25.09 12.27 7.61 3.52 13.93 6.21 18.77 8 7.73 2.85 10.02 2.77 10.7 2.48.02-.01.04-.02.05-.03 10.51-3.65 18.31-11.03 23.21-21.92 9.4-20.93 6.98-53.03-6.48-85.92-16.31-6.15-31.49-14.19-34.02-15.54-1.63.91-8.45 4.71-13.69 7.33-3.92 2.27-9.04 7.97-14.83 16.49-4.07 5.99-7.14 11.42-7.71 12.43l-1.09 64.41z" fill="#232323"/><path d="M182.21 131.42c7.29 11.16-6.17 80.7-25.84 120.39l55.93 20.11c14.73-22.8 38.1-50.42 21.06-109.89 0 0-10.59 2.53-17.61 2.53-3.26-9.78-11.98-29.88-28.03-35.9l-5.51 2.76z" fill="#00676C"/><path d="M122.73 231.56c1.76-10.29 26.08-18.57 88.76-7.78-14.06 16.4-92.39 33.29-88.76 7.78z" fill="#232323"/><path d="M145.08 245.4c-6.8 0-12.42-.89-16.35-2.67-5.13-2.33-7.46-6.23-6.74-11.28v-.02c.43-2.51 2.02-4.76 4.73-6.68 5.35-3.78 14.93-6.08 27.71-6.64 15.06-.67 34.3.99 57.19 4.93.13.02.25.08.35.16.1.09.18.2.23.33.04.12.05.26.03.39-.02.13-.08.25-.17.35-5.42 6.32-20.7 13.17-38.93 17.45-10.4 2.44-20.04 3.68-28.05 3.68zm-21.6-13.72c-.62 4.37 1.35 7.63 5.87 9.67 3.89 1.77 9.36 2.55 15.65 2.55 22.3 0 54.97-9.76 64.98-19.61-22.17-3.76-40.84-5.33-55.48-4.68-12.5.55-21.8 2.76-26.91 6.37-2.37 1.68-3.75 3.59-4.11 5.7z" fill="#232323"/><path d="M299.5 180.91c-.34.15-.69.29-1.04.42.12.1.23.22.34.34 1.4 1.6 1.75 4.93.45 7.31-.15.29-.33.56-.54.82.13.1.26.21.39.33 1.67 1.54 3.03 4.52 1.59 7.78-.13.3-.28.6-.46.9.13.15.26.3.38.46 4.47 6.04-3.63 17.02-14.26 16.21-2.12 3.41-4.32 6.87-6.63 10.35-3.25 4.91-6.62 9.75-10.09 14.51 0 .01-.01.02-.02.03-3.56 5.23-8.38 11.4-16.05 20.3-15.24 16.3-31.79 24.33-50.85 24.33-23.97 0-57.41-24.56-57.41-80.04 0-57.21 24.94-74.52 40.11-72.51 26.58 3.51 27.47 91.65 27.47 91.67 10.51-9.35 47.01-34.69 56.08-40.01 18.55-11.29 30.53-12.86 34.7-12.84 8.12.03 4.95 5.8-4.16 9.64z" fill="#FFF"/><path d="M202.71 285.76c-13.37 0-27.67-7.28-38.26-19.48-9.08-10.45-19.9-29.57-19.9-61.32 0-16.65 2.1-31.03 6.26-42.75 3.56-10.03 8.5-17.87 14.68-23.29 6.21-5.45 13.51-8.08 20.02-7.22 6.29.83 11.67 6.22 15.99 16.01 3.4 7.7 6.18 18.18 8.26 31.15 3.06 19.14 3.71 37.87 3.84 43.64 11.87-10.08 46.35-33.98 54.98-39.04 19.83-12.07 31.87-12.96 35.08-12.95 4.02.02 5.14 1.39 5.37 2.54.51 2.57-3.2 6-9.23 8.55l-.08.03c1.37 2.02 1.49 5.34.19 7.71-.06.12-.12.23-.19.34 1.78 1.72 3.25 4.94 1.66 8.54-.07.17-.16.34-.24.51.03.03.05.07.08.11 1.85 2.51 1.85 6.03-.01 9.41-2.36 4.25-7.71 8.32-14.46 8.01-2.08 3.36-4.22 6.69-6.4 9.99a412.65 412.65 0 01-10.09 14.51c-.02.02-.03.04-.05.06-3.78 5.56-8.74 11.84-16.08 20.34 0 .01-.01.02-.02.03-15.46 16.53-32.27 24.57-51.4 24.57zm-19.67-152.71c-5.48 0-11.4 2.48-16.56 7.01-5.98 5.24-10.78 12.86-14.25 22.65-4.1 11.56-6.18 25.77-6.18 42.25 0 31.28 10.62 50.08 19.53 60.33 10.31 11.87 24.19 18.96 37.13 18.96 18.68 0 35.13-7.88 50.3-24.08 7.3-8.48 12.23-14.71 15.98-20.23.01-.01.02-.02.02-.03l.01-.01c3.47-4.76 6.83-9.58 10.07-14.48a385.4 385.4 0 006.62-10.34c.07-.11.18-.21.3-.27.12-.06.26-.09.4-.08 6.26.47 11.38-3.41 13.48-7.21 1.59-2.9 1.64-5.74.11-7.8l-.01-.02c-.09-.12-.2-.24-.33-.39a.754.754 0 01-.18-.43c-.01-.16.02-.32.1-.46.16-.26.3-.53.42-.81 1.3-2.94.06-5.57-1.41-6.93-.11-.1-.22-.2-.33-.29a.703.703 0 01-.29-.5c-.01-.1-.01-.2.02-.3.03-.09.07-.18.14-.26.17-.22.33-.46.46-.71 1.2-2.19.77-5.16-.36-6.45-.08-.1-.17-.19-.26-.27-.1-.09-.18-.2-.22-.32a.81.81 0 01-.03-.38c.02-.13.08-.25.16-.35.08-.1.19-.18.31-.22.34-.13.68-.27 1.01-.41h.01c2.67-1.13 4.98-2.51 6.51-3.88 1.29-1.16 1.98-2.28 1.84-2.99-.17-.83-1.63-1.32-3.9-1.33-3.12-.01-14.81.87-34.31 12.74-8.93 5.22-45.51 30.62-55.97 39.92-.1.09-.23.15-.36.18-.13.02-.27.01-.39-.03a.762.762 0 01-.33-.23.694.694 0 01-.16-.36c-.01-.04-.01-.09-.02-.13-.02-2.34-.39-23.41-3.85-45.01-3.2-19.98-9.79-44.17-22.96-45.91-.75-.1-1.51-.14-2.27-.14z" fill="#232323"/><path d="M284.23 185.24c-.16 0-.32-.05-.45-.15a.73.73 0 01-.27-.39.692.692 0 01.02-.47c.05-.15.16-.28.29-.37.84-.54 3.13-1.8 5.83-2.69 3.54-1.17 6.53-1.35 8.89-.53.1.03.18.08.26.15.07.07.13.14.18.23.04.09.07.19.07.29.01.1 0 .2-.04.29-.03.1-.08.19-.15.26-.06.07-.14.13-.23.18-.09.04-.19.06-.29.07-.1 0-.2-.01-.3-.05-2.01-.7-4.75-.51-7.92.54-2.56.85-4.7 2.02-5.48 2.52a.73.73 0 01-.41.12zm1.81 7.83c-.17 0-.34-.06-.47-.17a.696.696 0 01-.26-.41.78.78 0 01.04-.5c.08-.15.2-.27.35-.35 4.03-2.02 10.02-3.8 13.65-2.19.18.08.33.23.4.42.07.18.06.39-.02.57a.75.75 0 01-.42.4c-.18.07-.39.06-.57-.02-2.12-.94-6.77-.64-12.37 2.17-.1.05-.22.08-.33.08zm1.91 8.72c-.16 0-.31-.05-.44-.14a.743.743 0 01-.27-.38.724.724 0 010-.46c.05-.15.14-.29.27-.38 4.41-3.2 11.26-4.11 13.57-1.79.07.07.13.15.16.24a.717.717 0 010 .58c-.03.09-.09.17-.16.24-.07.07-.15.13-.24.16a.717.717 0 01-.58 0 .633.633 0 01-.24-.16c-1.64-1.64-7.57-.99-11.63 1.95-.12.09-.28.14-.44.14zm-2.44 15.95c-.13 0-.26-.04-.37-.1a.676.676 0 01-.27-.26.77.77 0 01-.12-.36c0-.13.03-.26.08-.37 3.87-7.74 9.82-9.46 10.07-9.53a.743.743 0 01.93.53c.05.19.03.4-.07.57-.1.17-.26.3-.45.35-.07.02-5.59 1.65-9.13 8.75-.06.13-.16.23-.28.3-.12.08-.26.12-.39.12zm-81.99 15.55c-.15 0-.29-.04-.42-.12a.747.747 0 01-.27-.34.72.72 0 01.16-.82c.05-.05 4.88-4.87 12.84-11.35.08-.06.17-.11.26-.13.1-.03.2-.04.3-.03.09.01.19.04.28.08a.794.794 0 01.39.75c-.01.09-.04.19-.09.28-.05.08-.11.16-.19.22-7.9 6.43-12.68 11.2-12.73 11.24-.07.07-.15.13-.24.17a.93.93 0 01-.29.05z" fill="#232323"/><path d="M204.22 152.27c-10.49-29.31-31.45-24.92-48.64-5.02-24.07 27.85-31.32 77.7-32.85 84.56 2.06-10.96 45.13-20.07 90.01-12.8 0 0-1.25-46.42-8.52-66.74z" fill="#FFF"/><path d="M122.73 232.56c-.11 0-.21-.02-.32-.07a.693.693 0 01-.25-.2.542.542 0 01-.15-.29.74.74 0 01-.02-.33l.06-.27c.15-.69.35-1.74.59-3.03 1.26-6.75 3.9-20.78 8.94-36.34 6.26-19.29 14.14-34.53 23.43-45.27 10.37-12 21.25-17.65 30.63-15.9 4.01.75 7.65 2.85 10.83 6.25 3.35 3.56 6.19 8.58 8.46 14.91 7.19 20.09 8.51 64.88 8.56 66.96.01.11-.01.22-.05.32s-.1.19-.18.26a.81.81 0 01-.28.17c-.11.03-.22.04-.32.03h-.04c-45.36-7.36-86.65 2.07-89.1 11.97-.02.08-.03.17-.05.24-.04.17-.13.32-.27.43-.13.1-.29.16-.47.16zm59.5-100.5c-3.56 0-7.34 1.07-11.28 3.19-4.97 2.67-9.95 6.88-14.8 12.49-9.16 10.6-16.94 25.66-23.14 44.76-4.81 14.85-7.42 28.32-8.74 35.31 9.84-9.72 48.77-15.81 87.69-9.68-.22-6.75-1.79-47-8.45-65.61-4.21-11.77-10.49-18.74-18.15-20.18-1.03-.19-2.08-.28-3.13-.28z" fill="#232323"/><path d="M239.28 203.29c-10.85 7.7-20.31 15.55-27.33 20.82-1.01-20.32-1.51-96.1-32.6-91.83v-1.51l8.37-2.11c16.05 6.02 24.77 26.12 28.03 35.9 7.02 0 17.61-2.53 17.61-2.53 4.65 16.23 6.28 29.23 5.92 41.26z" fill="#00676C"/><path d="M224.02 175.23c0 2.01-1.62 3.64-3.63 3.64a3.64 3.64 0 010-7.28c2.01 0 3.63 1.63 3.63 3.64z" fill="#232323" fill-rule="evenodd"/><path d="M203.52 233.29c-.15 0-.29-.04-.42-.12a.7.7 0 01-.27-.34.698.698 0 01-.05-.43c.03-.15.1-.28.2-.39.11-.11 11.28-11.44 36.37-28.84a.708.708 0 01.56-.12c.1.02.19.05.27.11.09.05.16.12.22.2.05.08.09.17.11.27.02.1.02.2.01.29-.02.1-.06.19-.11.28-.05.08-.12.15-.2.21-24.96 17.31-36.04 28.55-36.15 28.66-.07.07-.16.13-.25.16-.09.04-.19.06-.29.06z" fill="#232323"/></g><path d="M352.16 40.424H582.8v533.448H352.16z"/><g clip-path="url(#j)"><path d="M352.92 41.18h229.11v531.93H352.92V41.18z" fill="#FFF"/><path d="M582.03 573.87H352.92c-.2 0-.4-.08-.54-.23a.75.75 0 01-.22-.53V41.18c0-.2.08-.4.22-.54s.34-.22.54-.22h229.11c.21 0 .4.08.54.22s.23.34.23.54v531.93c0 .2-.09.39-.23.53-.14.15-.33.23-.54.23zm-228.35-1.52h227.59V41.94H353.68v530.41z" fill="#232323"/><path d="M547.88 282.23H387.07a.79.79 0 01-.54-.22.773.773 0 01-.22-.54V71.33c0-.2.08-.39.22-.54a.79.79 0 01.54-.22h160.81c.2 0 .39.08.54.22.14.15.22.34.22.54v210.14c0 .2-.08.4-.22.54a.79.79 0 01-.54.22zm-160.05-1.52h159.29V72.09H387.83v208.62zm160.02 70.98h-160.8c-.2 0-.4-.08-.54-.23a.75.75 0 01-.22-.53v-33.72c0-.2.08-.39.22-.53.14-.15.34-.23.54-.23h160.8c.2 0 .4.08.54.23.14.14.22.33.22.53v33.72c0 .2-.08.39-.22.53-.14.15-.34.23-.54.23zm-160.04-1.52h159.28v-32.2H387.81v32.2zm160.07 197.97H387.07a.79.79 0 01-.54-.22.79.79 0 01-.22-.54V386.67c0-.2.08-.4.22-.54a.79.79 0 01.54-.22h160.81c.2 0 .39.08.54.22.14.14.22.34.22.54v160.71c0 .2-.08.39-.22.54a.79.79 0 01-.54.22zm-160.05-1.52h159.29V387.43H387.83v159.19z" fill="#232323"/><path d="M379.56 304.2c0 4.77-3.87 8.64-8.64 8.64-4.78 0-8.65-3.87-8.65-8.64 0-4.78 3.87-8.64 8.65-8.64 4.77 0 8.64 3.86 8.64 8.64z" fill="#FFF" fill-rule="evenodd"/><path d="M370.92 313.6c-5.19 0-9.41-4.22-9.41-9.4 0-5.19 4.22-9.41 9.41-9.41 5.18 0 9.4 4.22 9.4 9.41 0 5.18-4.22 9.4-9.4 9.4zm0-17.28c-4.35 0-7.89 3.53-7.89 7.88 0 4.34 3.54 7.87 7.89 7.87s7.88-3.53 7.88-7.87c0-4.35-3.53-7.88-7.88-7.88z" fill="#232323"/><path d="M399.09 307.71h-28.66a3.55 3.55 0 010-7.1h28.66a1.537 1.537 0 011.53 1.53v4.04c0 .2-.04.4-.12.58-.08.19-.19.36-.33.5s-.31.25-.5.33c-.18.08-.38.12-.58.12z" fill="#FFF"/><path d="M399.09 308.47h-28.66c-2.37 0-4.31-1.93-4.31-4.31s1.94-4.31 4.31-4.31h28.66c1.26 0 2.29 1.03 2.29 2.29v4.04c0 1.26-1.03 2.29-2.29 2.29zm-28.66-7.1a2.791 2.791 0 000 5.58h28.66c.2 0 .4-.08.54-.23.14-.14.22-.34.22-.54v-4.04c0-.2-.08-.4-.22-.54a.741.741 0 00-.54-.23h-28.66z" fill="#232323"/></g><path d="M272.304 470.208h143.84v105.4h-143.84z"/><g clip-path="url(#k)"><path d="M272.3 470.2h143.84v105.4H272.3V470.2z" fill="#D9C6F4"/><path d="M306.56 471.29h25.41v103.12h-25.41V471.29z" fill="#FFF"/><path d="M400.57 546.45a.848.848 0 00.75-.47c.07-.14.1-.29.08-.45a.913.913 0 00-.17-.42l-4.86-6.27-5.25-6.77a.8.8 0 00-.29-.23.779.779 0 00-.73 0c-.12.05-.22.13-.29.23l-5.25 6.77-4.86 6.27a.83.83 0 00.65 1.34h3.44a.834.834 0 01.84.83v16.19c-.01.22.08.43.24.59.15.16.37.25.59.25h10.01a.834.834 0 00.83-.84v-16.19c0-.22.09-.43.24-.59.16-.15.37-.24.59-.24h3.44z" fill="#232323"/><path d="M414.64 575.27H273.8c-.1 0-.2-.02-.29-.06a.852.852 0 01-.25-.17.633.633 0 01-.16-.24c-.04-.1-.06-.2-.06-.3V471.3c0-.2.08-.39.22-.54.14-.14.34-.22.54-.22h140.84c.2 0 .4.08.54.22.14.15.22.34.22.54v103.2c0 .21-.08.4-.22.54-.14.15-.34.23-.54.23zm-140.08-1.53h139.32V472.06H274.56v101.68z" fill="#D9C6F4"/></g><path d="M240.808 305.784h106.64v103.664h-106.64z"/><g clip-path="url(#l)"><path d="M280.25 407.98l-38.23-45.95a1.9 1.9 0 01-.35-.64c-.07-.24-.1-.48-.07-.73.02-.24.09-.48.21-.7.11-.22.27-.41.46-.57L305.35 307c.19-.16.41-.28.65-.35.23-.08.48-.1.73-.08.24.02.48.09.7.21.22.11.41.27.57.46l38.22 45.95c.16.19.28.41.35.64.08.24.1.49.08.73-.02.25-.09.49-.21.71-.11.21-.27.41-.46.56l-63.08 52.4c-.19.15-.41.27-.65.35-.24.07-.48.09-.73.07-.25-.02-.48-.09-.7-.21-.22-.11-.42-.27-.57-.46z" fill="#FFF"/><path d="M281.7 409.44a2.65 2.65 0 01-2.06-.96l-38.22-45.94c-.94-1.13-.78-2.82.35-3.75l63.08-52.4c1.13-.93 2.81-.78 3.75.35l38.23 45.95c.94 1.13.78 2.81-.35 3.75l-63.08 52.39c-.48.4-1.08.61-1.7.61zm-.85-1.96c.19.22.45.36.74.39.29.03.58-.06.8-.25l63.09-52.39c.22-.18.36-.45.39-.74.03-.29-.06-.58-.25-.8l-38.22-45.95a1.15 1.15 0 00-.75-.39c-.29-.02-.57.07-.8.25l-63.08 52.39c-.22.19-.37.45-.39.74-.03.29.06.58.25.8l38.22 45.95z" fill="#232323"/><path d="M323.59 339.88l-6.46-7.77c-.17-.2-.26-.46-.25-.73.01-.26.11-.51.29-.71l7.48-7.89a1.195 1.195 0 01.9-.37c.16.01.33.05.48.12.15.08.28.18.39.31l7.99 9.6c.11.13.18.28.23.44.04.17.05.33.03.5-.03.17-.09.32-.18.46-.09.15-.21.27-.35.36l-9.13 5.9c-.22.14-.49.2-.75.16-.26-.04-.5-.18-.67-.38zm-2.14 21.1c-.14 0-.28-.04-.39-.1a.806.806 0 01-.4-.68c0-.14.04-.28.11-.4.48-.81.55-1.55.22-2.25-.51-1.07-1.77-1.7-2.3-1.79-2.83-.46-3.91-2.97-4.7-4.79-.21-.51-.42-.99-.62-1.32-.53-.86-1.46-1.18-2.55-1.56-2.11-.73-4.74-1.64-4.4-7.11.05-.8-.61-1.21-2.15-1.96-1.71-.84-4.05-1.98-3.65-5.03-.11-.12-.47-.32-.71-.46-.97-.54-2.43-1.36-2.65-3.43a.79.79 0 01.17-.57c.13-.17.32-.27.53-.29.21-.02.41.04.58.17.16.13.26.32.28.53.14 1.26 1.01 1.75 1.86 2.22.73.42 1.64.93 1.5 2-.25 1.82.88 2.52 2.78 3.45 1.48.72 3.15 1.54 3.03 3.47-.27 4.28 1.33 4.83 3.35 5.53 1.19.41 2.54.88 3.37 2.22.26.43.48.96.72 1.52.72 1.66 1.53 3.54 3.51 3.87 1 .16 2.73 1.1 3.47 2.66.38.82.64 2.12-.28 3.71-.07.12-.17.22-.29.29-.12.07-.25.1-.39.1zm-25.5-12.34a.756.756 0 01-.67-.38c-.27-.42-.49-.95-.73-1.51-.72-1.66-1.53-3.54-3.51-3.87-.61-.1-1.75-.44-2.57-1.58-.79-1.11-1.03-2.63-.71-4.53.02-.1.05-.2.11-.28.05-.09.12-.17.21-.23.08-.06.18-.1.28-.12.1-.03.2-.03.3-.01.11.02.2.05.29.11.09.05.16.12.22.21.06.08.1.18.13.28.02.1.02.2.01.3-.25 1.47-.1 2.6.44 3.36.48.68 1.17.89 1.54.95 2.83.46 3.91 2.96 4.7 4.79.22.51.42.99.63 1.32a.792.792 0 01.01.79.806.806 0 01-.68.4zm15.99 19.22c-.11 0-.22-.02-.32-.06a.7.7 0 01-.26-.19.744.744 0 01-.16-.27.725.725 0 01-.04-.32c.09-1.12-.4-1.42-1.52-2-1.1-.55-2.6-1.32-2.91-3.54-.31-2.13-1.3-2.41-2.44-2.73-1.03-.28-2.43-.67-2.3-2.73.03-.43.41-.76.83-.74.11.01.21.04.3.08.09.05.18.11.24.19.07.08.12.17.16.26.03.1.05.2.04.31-.05.76.14.84 1.15 1.12 1.24.35 3.12.88 3.57 4.02.2 1.41 1.03 1.84 2.07 2.37 1.14.58 2.55 1.3 2.37 3.51-.02.2-.1.38-.25.52-.15.13-.33.2-.53.2zm-9.13 7.46c-.06 0-.11-.01-.17-.02-2.61-.56-3.82-2.84-3.24-6.11.11-.62.07-.65-.93-.97-1.31-.41-3.29-1.03-3.85-4.52-.15-.9-.87-1.17-2.23-1.61-2.08-.67-4.94-1.58-4.61-6.77.05-.81-.62-1.22-2.15-1.97-1.72-.84-4.07-1.99-3.65-5.07.06-.48-.14-1.51-.82-2.29-.48-.56-1.07-.84-1.77-.85-.1 0-.2-.02-.3-.07a.696.696 0 01-.25-.17.852.852 0 01-.17-.25c-.04-.1-.06-.2-.05-.31 0-.43.36-.76.79-.77 1.15.01 2.16.5 2.94 1.39.99 1.15 1.31 2.64 1.18 3.53-.24 1.83.89 2.52 2.79 3.45 1.48.72 3.15 1.54 3.03 3.48-.25 3.97 1.5 4.53 3.52 5.18 1.4.45 2.99.96 3.3 2.85.4 2.53 1.61 2.91 2.78 3.28.93.29 2.35.74 2 2.73-.25 1.39-.31 3.81 2.02 4.31.19.04.36.14.47.3.12.16.17.35.15.54-.02.2-.11.38-.26.5-.14.13-.33.21-.52.21zm-15.09 12.79a.83.83 0 01-.58-.26.744.744 0 01-.16-.27.691.691 0 01-.04-.32c.09-1.12-.4-1.42-1.52-1.99-1.1-.56-2.6-1.33-2.91-3.55-.31-2.13-1.3-2.4-2.44-2.72-1.02-.29-2.43-.68-2.3-2.74.03-.43.41-.75.84-.73.1 0 .2.03.29.08.1.04.18.1.25.18.06.08.12.17.15.27.03.09.05.2.04.3-.05.77.14.84 1.15 1.13 1.24.34 3.12.87 3.57 4.01.2 1.42 1.03 1.84 2.07 2.37 1.14.58 2.55 1.3 2.37 3.52-.01.19-.1.38-.25.51-.14.13-.33.21-.53.21z" fill="#232323"/></g><path d="M266.848 319.672h27.28v18.104h-27.28z"/><g clip-path="url(#m)"><path d="M267.64 325.17s23.71 14.6 25.58 11.34c1.38-2.37-11.4-16.05-11.4-16.05l-14.18 4.71z" fill="#FFF"/><path d="M292.04 337.77c-1.35 0-4.71-.73-13.87-5.66-5.68-3.02-10.9-6.23-10.95-6.29a.785.785 0 01-.27-1.07c.21-.37.72-.48 1.09-.27.06.03 5.73 3.53 11.64 6.66 11.01 5.84 12.66 5.05 12.82 4.95.05-.21.02-1.71-5.28-8.24-2.9-3.55-5.96-6.81-5.99-6.87a.777.777 0 01.05-1.1.81.81 0 011.12.05c.03.03 3.25 3.47 6.26 7.18 5.62 6.93 5.81 8.85 5.28 9.79-.16.27-.48.63-1.12.79-.16.03-.4.08-.78.08z" fill="#232323"/></g></g></svg>