<svg width="595" height="536" fill="none" xmlns="http://www.w3.org/2000/svg"><defs><clipPath id="b"><path transform="translate(220.15 222.34)" fill="#fff" fill-opacity="0" d="M0 0h339.15v284.874H0z"/></clipPath><clipPath id="c"><path transform="translate(24.792 32.26)" fill="#fff" fill-opacity="0" d="M0 0h228.083v473.467H0z"/></clipPath><clipPath id="k"><path transform="translate(40.658 497.29)" fill="#fff" fill-opacity="0" d="M0 0h47.6v11.911H0z"/></clipPath><clipPath id="l"><path transform="translate(220.15 222.34)" fill="#fff" fill-opacity="0" d="M0 0h20.329v20.348H0z"/></clipPath><clipPath id="m"><path transform="translate(311 188)" fill="#fff" fill-opacity="0" d="M0 0h68v49H0z"/></clipPath><clipPath id="a"><path fill="#fff" fill-opacity="0" d="M0 0h595v536H0z"/></clipPath></defs><path d="M0 0h595v536H0z"/><g clip-path="url(#a)"><path d="M220.15 222.34H559.3v284.875H220.15z"/><g clip-path="url(#b)"><path d="M538.99 476.14H395.15V259.65h143.84v216.49z" fill="#D8C5F3"/><path d="M537.51 419.81H395.22v-23.1h142.29v23.1z" fill="#FFF"/><path d="M514.04 283.71c.08 0 .15.01.22.04.08.03.14.07.19.13.06.05.1.11.13.19.03.07.05.14.05.22v11.66a.583.583 0 00.58.58h7.23a.533.533 0 00.43-.16c.06-.05.1-.12.14-.19.03-.07.04-.15.05-.23v-11.69c0-.16.07-.31.19-.42a.59.59 0 01.42-.17h2.49c.14.01.27-.03.37-.12.06-.05.11-.11.15-.17.04-.07.06-.14.07-.22.01-.08.01-.16-.01-.23a.842.842 0 00-.11-.21l-3.51-4.49-3.78-4.9-.1-.09a.53.53 0 00-.21-.11.55.55 0 00-.22-.02.71.71 0 00-.22.07c-.07.04-.13.09-.18.15l-3.78 4.9-3.51 4.52c-.09.1-.13.24-.12.37 0 .08.01.15.04.22s.07.14.13.19c.05.06.11.1.19.13.07.03.14.05.22.04h2.46v.01z" fill="#232323"/><path d="M281.26 293.72h147.99v182.42H281.26V293.72z" fill="#D8C5F3"/><path d="M282.62 400.4H427.9v22.03H282.62V400.4z" fill="#FFF"/><path d="M307.31 317.53a.538.538 0 00.4-.16c.05-.05.09-.11.12-.18.02-.07.04-.14.04-.21a.48.48 0 00-.12-.36l-3.34-4.31-3.61-4.66a.561.561 0 00-.38-.21.515.515 0 00-.41.12l-.09.09-3.61 4.66-3.34 4.28c-.05.06-.08.13-.1.2-.02.07-.03.14-.02.22 0 .07.03.14.06.21.04.06.09.12.14.16l.01.01c.09.08.22.12.35.11h2.37c.15 0 .3.06.41.16.11.11.17.25.18.4v11.15c0 .07.02.15.05.21.03.07.07.13.12.19.05.05.12.09.19.12.06.02.14.04.21.04h6.91c.07 0 .15-.02.21-.05.07-.02.13-.07.19-.12.05-.05.09-.11.12-.18.02-.07.04-.14.04-.21v-11.12a.56.56 0 01.56-.56h2.34z" fill="#232323"/><path d="M333.7 362.53h133.45v113.23H333.7V362.53z" fill="#D8C5F3"/><path d="M388.84 362.53h24.29v112.9h-24.29v-112.9z" fill="#FFF"/><path d="M377.91 449.01v-7.38c0-.14-.06-.28-.16-.38a.57.57 0 00-.39-.16h-11.45c-.14 0-.28.06-.38.16-.1.1-.16.24-.17.38v7.38c0 3.22 2.42 5.92 5.63 6.27v8.93h-4.6c-.15 0-.29.07-.39.18-.1.11-.16.25-.16.4.01.14.07.28.17.38.1.11.24.17.38.17h10.45c.15-.01.29-.07.39-.18a.55.55 0 00.16-.4c0-.15-.06-.28-.17-.39-.1-.1-.24-.16-.38-.16h-4.78v-8.93c3.3-.22 5.86-2.96 5.85-6.27zm-11.45 0v-6.83h10.35v6.83a5.17 5.17 0 01-5.1 5.24 5.165 5.165 0 01-5.25-5.09v-.15zm-6.08 2.97c.08 0 .16-.01.24-.04.07-.03.14-.08.19-.14.06-.05.11-.12.14-.19.03-.08.05-.16.05-.24 0-.14-.04-.28-.13-.39l-3.69-4.75-3.98-5.11a.611.611 0 00-.41-.23.626.626 0 00-.46.13l-.1.1-3.98 5.11-3.68 4.75c-.06.06-.09.14-.12.21a.652.652 0 00.05.47.7.7 0 00.15.19h.01c.11.09.25.14.39.13h2.62c.08 0 .16.02.24.06.08.03.15.08.2.14.06.06.11.13.14.21.02.07.04.16.03.24v12.26c0 .17.07.33.18.45.12.12.27.19.44.2h7.6c.08-.01.16-.02.24-.06.08-.03.15-.08.2-.14.06-.06.11-.13.13-.21.03-.07.05-.16.04-.24v-12.26c0-.17.07-.33.18-.45.12-.12.27-.19.44-.2h2.65z" fill="#232323"/><path d="M467.83 476.45H333.01V361.84h134.82v114.61zm-133.45-1.38h132.08V363.21H334.38v111.86z" fill="#232323"/><path d="M429.94 362.53h-1.37v-68.12h-33.42v-1.37h34.79v69.49z" fill="#232323"/><path d="M257.75 456.89h-10.3l-21.4-222.58h10.31l21.39 222.58z" fill="#FFF"/><path d="M257.75 457.57h-10.3a.65.65 0 01-.46-.18.626.626 0 01-.22-.44l-21.4-222.57a.672.672 0 01.18-.53c.06-.07.14-.12.22-.16.09-.04.19-.06.28-.06h10.31c.17 0 .33.06.46.18.12.11.2.27.22.44l21.39 222.57c.01.1 0 .19-.03.28-.03.09-.08.18-.14.25a.6.6 0 01-.23.16c-.09.04-.18.06-.28.06zm-9.68-1.37H257L235.74 235h-8.93l21.26 221.2z" fill="#232323"/><path d="M558.61 483.09v1.69c0 1.46-1.18 2.65-2.64 2.65H273.56v-.02l.02-.01h-46.25c-1.45 0-2.64-1.18-2.64-2.64v-2.58c0-15.32 12.35-27.76 27.64-27.86l3.84-.02c.15 0 .3-.03.45-.1a1.07 1.07 0 00.59-.66c.05-.15.07-.31.05-.46l-4.83-51.01c-.04-.34-.21-.66-.46-.9-.26-.23-.6-.36-.95-.36H236.9a2.172 2.172 0 01-2.17-2.17v-6.51a2.172 2.172 0 012.17-2.17h24.06c1.6 0 3 1.09 3.4 2.64l21.23 82.65h265.19c4.32 0 7.83 3.51 7.83 7.84z" fill="#FFF"/><path d="M555.97 488.11H273.56c-.06 0-.12-.01-.18-.02h-46.05c-1.83 0-3.32-1.5-3.32-3.33v-2.58c0-7.59 2.94-14.73 8.28-20.12 5.34-5.38 12.46-8.38 20.03-8.42l3.85-.03c.16 0 .26-.08.31-.13.04-.06.12-.17.1-.33l-4.83-51.01a.735.735 0 00-.73-.64H236.9c-1.58 0-2.86-1.29-2.86-2.86v-6.51c0-1.57 1.28-2.86 2.86-2.86h24.06c.93 0 1.83.31 2.57.88a4.22 4.22 0 011.49 2.28l21.1 82.13h264.66c4.69 0 8.52 3.83 8.52 8.53v1.69c0 1.84-1.5 3.33-3.33 3.33zm-282.2-1.37h282.2c1.08 0 1.96-.88 1.96-1.96v-1.69c0-3.95-3.21-7.16-7.15-7.16H285.59c-.15 0-.3-.05-.41-.14a.723.723 0 01-.25-.37l-21.23-82.65c-.16-.61-.51-1.15-1.01-1.53-.49-.39-1.1-.6-1.73-.59H236.9c-.82 0-1.49.66-1.49 1.48v6.51c0 .82.67 1.49 1.49 1.49h14.12c.52 0 1.02.19 1.4.53.39.35.63.82.69 1.34l4.83 51.01c.06.5-.11 1-.44 1.38-.34.38-.82.59-1.33.59l-3.84.03c-7.21.04-13.98 2.89-19.07 8.02-5.08 5.12-7.88 11.93-7.88 19.15v2.58c0 1.08.88 1.96 1.95 1.96h46.26c.06 0 .12 0 .18.02z" fill="#232323"/><path d="M273.59 487.74c0 10.37-8.4 18.79-18.75 18.79-10.36 0-18.75-8.42-18.75-18.79s8.39-18.78 18.75-18.78c10.35 0 18.75 8.41 18.75 18.78z" fill="#FFF" fill-rule="evenodd"/><path d="M254.84 507.21c-10.72 0-19.44-8.73-19.44-19.47 0-10.74 8.72-19.47 19.44-19.47 10.71 0 19.43 8.73 19.43 19.47 0 10.74-8.72 19.47-19.43 19.47zm0-37.57c-9.96 0-18.07 8.12-18.07 18.1 0 9.98 8.11 18.1 18.07 18.1s18.06-8.12 18.06-18.1c0-9.98-8.1-18.1-18.06-18.1z" fill="#232323"/><path d="M263.43 487.74c0 4.75-3.85 8.61-8.59 8.61-4.75 0-8.59-3.86-8.59-8.61s3.84-8.61 8.59-8.61c4.74 0 8.59 3.86 8.59 8.61z" fill="#232323" fill-rule="evenodd"/><path d="M254.84 497.03c-5.12 0-9.28-4.17-9.28-9.29 0-5.12 4.16-9.29 9.28-9.29 5.11 0 9.27 4.17 9.27 9.29 0 5.12-4.16 9.29-9.27 9.29zm0-17.21c-4.36 0-7.91 3.55-7.91 7.92s3.55 7.92 7.91 7.92 7.9-3.55 7.9-7.92-3.54-7.92-7.9-7.92z" fill="#232323"/><path d="M549.97 495.36c0 6.08-4.91 11-10.98 11s-10.99-4.92-10.99-11 4.92-11.01 10.99-11.01 10.98 4.93 10.98 11.01z" fill="#FFF" fill-rule="evenodd"/><path d="M538.99 507.05c-6.44 0-11.67-5.24-11.67-11.69 0-6.45 5.23-11.69 11.67-11.69 6.43 0 11.67 5.24 11.67 11.69 0 6.45-5.24 11.69-11.67 11.69zm0-22.01c-5.68 0-10.3 4.63-10.3 10.32s4.62 10.32 10.3 10.32c5.68 0 10.3-4.63 10.3-10.32s-4.62-10.32-10.3-10.32z" fill="#232323"/><path d="M544.02 495.36c0 2.78-2.25 5.04-5.03 5.04-2.78 0-5.03-2.26-5.03-5.04a5.03 5.03 0 1110.06 0z" fill="#232323" fill-rule="evenodd"/><path d="M538.99 501.09c-3.15 0-5.72-2.57-5.72-5.73 0-3.16 2.57-5.73 5.72-5.73s5.71 2.57 5.71 5.73c0 3.16-2.56 5.73-5.71 5.73zm0-10.09c-2.4 0-4.35 1.96-4.35 4.36 0 2.4 1.95 4.36 4.35 4.36 2.4 0 4.35-1.96 4.35-4.36 0-2.4-1.95-4.36-4.35-4.36z" fill="#232323"/><path d="M239.56 232.41c0 5.18-4.19 9.38-9.36 9.38-5.18 0-9.37-4.2-9.37-9.38 0-5.19 4.19-9.39 9.37-9.39 5.17 0 9.36 4.2 9.36 9.39z" fill="#232323" fill-rule="evenodd"/><path d="M230.2 242.48c-5.55 0-10.05-4.52-10.05-10.07 0-5.56 4.5-10.07 10.05-10.07 5.54 0 10.05 4.51 10.05 10.07 0 5.55-4.51 10.07-10.05 10.07zm0-18.77c-4.79 0-8.69 3.9-8.69 8.7 0 4.79 3.9 8.7 8.69 8.7 4.79 0 8.68-3.91 8.68-8.7 0-4.8-3.89-8.7-8.68-8.7z" fill="#232323"/></g><path d="M24.792 32.26h228.083v473.466H24.792z"/><g clip-path="url(#c)"><path d="M188.85 436.89c-22.05 24.98-67.98 25.31-65.05 8.83 4.65-14.88 36.81-29.09 59.5-17.34l5.55 8.51z" fill="#232323"/><path d="M142.44 457.72c-5.37 0-10.1-.84-13.56-2.51-4.42-2.14-6.47-5.55-5.74-9.61 0-.03.01-.05.02-.08 2.09-6.71 9.76-13.53 20.01-17.81 13.98-5.83 29.1-5.81 40.44.07.1.05.19.13.26.23l5.54 8.51c.09.12.12.27.11.42-.01.15-.07.29-.17.4-7.66 8.69-18.95 15.23-31.78 18.43-5.24 1.3-10.43 1.95-15.13 1.95zm-17.97-11.84c-.75 4.34 2.3 6.8 5 8.11 12.17 5.87 41.95 1.22 58.52-17.16l-5.16-7.93c-10.98-5.61-25.59-5.59-39.13.06-9.88 4.12-17.24 10.6-19.23 16.92z" fill="#232323"/><path d="M185.26 449.25l-.08.24c-2.99 10.74-6.38 20.43-6.49 20.73-.11.29-.03 0-.05 0h-.14c-2.56.08-30.69.61-28.53-9.06 0-.05-.67-1.49-.67-1.55.78-3.42 1.47-7.21 2.06-11 .16-.96.29-1.93.42-2.86.14-.85.24-1.71.35-2.54.03-.24.05-.48.11-.72.37-2.73.69-5.48.96-8.23.29-3.07.48-5.66.53-7.42v-.16c.03-.59 0-1.18-.02-1.77-.78-9.16 35.58 9.19 36.03 9.51 0 0-3.57 11.54-4.48 14.83z" fill="#FFF"/><path d="M176.07 470.93c-2.43 0-6.36-.08-10.47-.51-8-.82-13.14-2.54-15.27-5.13-.99-1.19-1.35-2.56-1.07-4.06-.06-.16-.17-.39-.25-.56-.39-.88-.39-.88-.39-1.06 0-.05.01-.1.02-.15.73-3.24 1.42-6.93 2.04-10.96.15-.84.26-1.68.38-2.5l.05-.35c.12-.75.22-1.51.31-2.24l.04-.28c.02-.24.05-.49.11-.76.37-2.72.69-5.44.95-8.17.3-3.08.48-5.63.53-7.38v-.17c.03-.56 0-1.11-.02-1.69-.13-1.54.64-2.33 1.32-2.71 2.62-1.5 9.2-.06 20.12 4.41 7.72 3.16 15.33 6.97 15.66 7.21.12.08.21.2.26.34.04.13.04.28 0 .42-.04.11-3.58 11.56-4.48 14.8 0 .01 0 .02-.01.03l-.07.23a378.122 378.122 0 01-6.5 20.76c-.05.13-.14.24-.25.32-.11.08-.25.13-.39.13h-.19c-.22 0-1.1.03-2.43.03zm-26.06-11.37c.06.15.17.38.24.55.4.88.4.88.4 1.05 0 .05-.01.1-.02.15-.26 1.18-.02 2.19.74 3.11 3.76 4.55 19.03 5.34 26.84 5.13.69-2.03 3.67-10.76 6.31-20.24.01-.01.01-.02.01-.04l.08-.22c.79-2.87 3.6-11.98 4.32-14.29-1.8-.93-8.41-4.17-15.28-6.97-13.5-5.49-17.5-5.07-18.69-4.33-.31.2-.65.53-.58 1.4v.02c.03.59.06 1.2.03 1.81v.15c-.05 1.8-.24 4.38-.54 7.49-.26 2.76-.59 5.51-.96 8.25 0 .02-.01.04-.01.06-.05.2-.07.42-.09.65l-.04.29c-.1.74-.2 1.51-.32 2.27l-.04.34c-.12.83-.24 1.68-.38 2.53-.62 3.97-1.3 7.61-2.02 10.84z" fill="#232323"/><path d="M185.18 449.52c-2.99 10.73-6.38 20.43-6.49 20.72-.11.3-.03 0-.05 0h-.14c-2.56.08-30.69.62-28.53-9.05 0-.05-.67-1.5-.67-1.55.78-3.42 1.47-7.21 2.06-11.01l33.82.89z" fill="#D8C5F3"/><mask id="d" maskUnits="userSpaceOnUse" x="149.306" y="448.639" width="35.877" height="21.74"><path d="M185.18 449.52c-2.99 10.73-6.38 20.43-6.49 20.72-.11.3-.03 0-.05 0h-.14c-2.56.08-30.69.62-28.53-9.05 0-.05-.67-1.5-.67-1.55.78-3.42 1.47-7.21 2.06-11.01l33.82.89z" fill="#000"/></mask><g mask="url(#d)"><path d="M197.46 456.76l-53.31-1.1c-.62 0-1.1-.51-1.1-1.12 0-.62.51-1.1 1.12-1.1h.03l53.28 1.1c.62 0 1.1.51 1.1 1.12 0 .61-.51 1.1-1.12 1.1z" fill="#FFF"/></g><path d="M176.07 470.93c-2.43 0-6.36-.08-10.47-.51-8-.82-13.14-2.54-15.27-5.13-.99-1.19-1.35-2.56-1.07-4.06-.06-.16-.17-.39-.25-.56-.39-.88-.39-.88-.39-1.06 0-.05.01-.1.02-.15.73-3.24 1.42-6.93 2.04-10.96.15-.84.26-1.68.38-2.5l.05-.35c.12-.75.22-1.51.31-2.24l.04-.28c.02-.24.05-.49.11-.76.37-2.72.69-5.44.95-8.17.3-3.08.48-5.63.53-7.38v-.17c.03-.56 0-1.11-.02-1.69-.13-1.54.64-2.33 1.32-2.71 2.62-1.5 9.2-.06 20.12 4.41 7.72 3.16 15.33 6.97 15.66 7.21.12.08.21.2.26.34.04.13.04.28 0 .42-.04.11-3.58 11.56-4.48 14.8 0 .01 0 .02-.01.03l-.07.23a378.122 378.122 0 01-6.5 20.76c-.05.13-.14.24-.25.32-.11.08-.25.13-.39.13h-.19c-.22 0-1.1.03-2.43.03zm-26.06-11.37c.06.15.17.38.24.55.4.88.4.88.4 1.05 0 .05-.01.1-.02.15-.26 1.18-.02 2.19.74 3.11 3.76 4.55 19.03 5.34 26.84 5.13.69-2.03 3.67-10.76 6.31-20.24.01-.01.01-.02.01-.04l.08-.22c.79-2.87 3.6-11.98 4.32-14.29-1.8-.93-8.41-4.17-15.28-6.97-13.5-5.49-17.5-5.07-18.69-4.33-.31.2-.65.53-.58 1.4v.02c.03.59.06 1.2.03 1.81v.15c-.05 1.8-.24 4.38-.54 7.49-.26 2.76-.59 5.51-.96 8.25 0 .02-.01.04-.01.06-.05.2-.07.42-.09.65l-.04.29c-.1.74-.2 1.51-.32 2.27l-.04.34c-.12.83-.24 1.68-.38 2.53-.62 3.97-1.3 7.61-2.02 10.84z" fill="#232323"/><path d="M130.93 424.28s-4.01 6.51-7.8 21.36c2.8-7.32 14.31-15.09 37.89-10.32 14.3 3 20.71 3.58 28.72 1.45 0 0 9.6-27.89 15.18-73.78 9.13-66.41-10.22-113.41-12.91-138.38-1.28-11.97-25.87-19.97-47.75-19.54-6.37 10.28-15.13 36.04.82 112.69 9.65 46.43-14.15 106.52-14.15 106.52z" fill="#00676C"/><path d="M148.88 459.33s-11.32 29.1-14.31 45.15c0 0 53.28 1.32 70.97-.08 9.59-.75 14.21-4.33 16.42-6.92 0 0-.01-.01-.01-.03a.488.488 0 01-.03-.07c-.51-1.22-5.83-13.27-23.2-22.12-2.71-1.38-11.42-5.23-21.46-6.47-6.87-.85-12.72-.57-17.11-2.06-5.59-1.89-8.12-7.5-11.27-7.4z" fill="#FFF"/><path d="M178.19 505.72c-20.59 0-43.29-.56-43.63-.57-.1 0-.2-.02-.29-.07a.548.548 0 01-.22-.18.597.597 0 01-.14-.26.708.708 0 010-.29c2.96-15.92 14.22-44.97 14.34-45.26.05-.13.13-.23.24-.31.11-.08.23-.12.37-.12 1.81-.07 3.33 1.36 5.08 3.02 1.74 1.63 3.71 3.49 6.42 4.41 2.73.92 6.06 1.15 9.92 1.41 2.25.15 4.57.31 7.07.62 11.32 1.4 20.65 6.02 21.67 6.54 17.4 8.86 22.89 20.94 23.51 22.43l.02.02c.01.04.02.07.03.09v.03h.01c.09.23.05.5-.12.69-4.41 5.17-11.61 6.75-16.88 7.16-6.08.48-16.45.64-27.4.64zm-42.8-1.9c6.73.15 53.82 1.19 70.09-.09 8.73-.69 13.33-3.78 15.69-6.38-1-2.24-6.58-13.24-22.76-21.48-1.01-.51-10.14-5.03-21.23-6.4-2.46-.31-4.76-.46-6.99-.62-3.95-.26-7.37-.5-10.26-1.48-3-1.01-5.17-3.06-6.92-4.71-1.36-1.28-2.55-2.4-3.68-2.61-1.44 3.74-11.01 28.95-13.94 43.77zm86.73-6.42l-.16.07.18-.07h-.02z" fill="#232323"/><path d="M149 458.75c2.25.55 3.63 1.79 5.05 3.18 6.98 8.47 17.44 4.19 29.46 7.57 12.65 3.4 24.87 9.71 33.32 19.9v.01c1.17 1.41 2.41 3.13 3.23 4.48-15.33 10.71-33.17 4.84-41.96 1.09-7.59-3.24-9.9.85-16.09-1.18-5.17-1.69-6.17-5.83-12.76-6.66-6.16-.78-11.36 3.25-11.36 3.25s6.62-18.83 11.11-31.64z" fill="#232323"/><path d="M148.32 501.38h-.18c-1.99-.03-3.87-.51-5.28-1.37-1.53-.92-2.36-2.17-2.34-3.52.02-1.34.88-2.57 2.43-3.45 1.44-.82 3.33-1.25 5.32-1.23 4.3.06 7.65 2.21 7.61 4.89-.03 2.65-3.34 4.68-7.56 4.68zm-.23-8.21c-1.69 0-3.27.37-4.47 1.05-1.11.63-1.73 1.45-1.74 2.29-.01.85.58 1.68 1.68 2.34 1.21.73 2.84 1.15 4.6 1.17 3.43.04 6.34-1.48 6.37-3.34.02-1.85-2.85-3.46-6.28-3.51h-.16z" fill="#232323"/><path d="M143.67 481.86c-.8 0-1.3-.07-1.36-.08a.476.476 0 01-.21-.07.572.572 0 01-.16-.15.538.538 0 01-.11-.42c.01-.07.04-.14.07-.21.04-.06.09-.12.15-.16a.538.538 0 01.42-.11c.05.01 5.14.7 10.33-2.85a73.17 73.17 0 002.9-2.1c3.18-2.38 4.93-3.7 11.25-4.42.31-.04.59.19.63.5.03.31-.19.59-.5.62-6.02.69-7.58 1.87-10.7 4.2-.84.63-1.78 1.34-2.94 2.13-3.96 2.71-7.8 3.12-9.77 3.12z" fill="#FFF"/><path d="M175.32 484.38a1.717 1.717 0 01-1.62-1.2c-.13-.43-.09-.89.12-1.29s5.23-9.72 15.77-12.26c.44-.09.89-.02 1.27.22.38.23.65.61.76 1.04.1.44.03.89-.2 1.28-.23.38-.6.66-1.03.77-9.03 2.17-13.52 10.45-13.57 10.53-.14.28-.36.51-.62.66-.27.16-.57.25-.88.25zm7.77 3.11c-.28 0-.55-.07-.79-.2a1.691 1.691 0 01-.71-2.29c.2-.38 5.05-9.42 16.3-11.88.91-.2 1.82.38 2.01 1.3.1.44.02.9-.22 1.28-.25.38-.63.64-1.07.74-9.65 2.11-13.98 10.06-14.02 10.14-.15.28-.36.5-.63.66-.26.16-.57.25-.87.25zm8.97 2.52c-.29 0-.58-.07-.83-.22a1.688 1.688 0 01-.65-2.3c.18-.33 4.62-8.15 14.88-10.27.21-.04.44-.04.66 0 .22.04.42.13.61.25s.35.28.47.46c.13.19.21.4.26.62.04.21.05.44 0 .66-.04.22-.12.43-.25.61-.12.19-.28.35-.46.47-.19.13-.39.22-.61.26-8.68 1.79-12.56 8.53-12.6 8.59-.15.27-.36.49-.62.64-.26.15-.56.23-.86.23z" fill="#D8C5F3"/><path d="M61.71 381.67c24.24-8.18 72.26 43.8 56.06 48.85-38.17 1.34-69.67-38.2-56.06-48.85z" fill="#232323"/><path d="M115.93 431.23c-12.17 0-24.87-4.13-35.97-11.74-10.06-6.9-17.87-15.97-20.89-24.26-2.26-6.2-1.47-11.21 2.22-14.1.07-.05.13-.08.21-.11 5.39-1.82 12.13-.92 20.02 2.67 6.72 3.07 13.92 7.94 20.8 14.11 5.84 5.22 10.99 11.01 14.52 16.28 2.63 3.93 5.58 9.43 4.73 13.33-.4 1.85-1.64 3.15-3.6 3.76-.05.02-.11.03-.17.03-.62.02-1.24.03-1.87.03zm-53.89-48.96c-3.11 2.52-3.72 6.95-1.7 12.5 2.89 7.91 10.7 16.95 20.39 23.6 10.87 7.45 23.3 11.5 35.2 11.5.58 0 1.15-.01 1.72-.02 1.45-.48 2.3-1.37 2.6-2.73 1.18-5.46-6.91-17.64-18.83-28.31-11.66-10.44-28.11-20.24-39.38-16.54z" fill="#232323"/><path d="M97.88 445.48l-.21.13c-9.18 5.59-17.91 10.18-18.21 10.31-.29.14 0 0-.02-.02-.03 0-.03-.03-.06-.06-.02 0-.02-.02-.02-.02-1.87-1.66-22-19.77-14.12-25.17.02-.02.53-1.49.56-1.52 2.77-1.89 5.76-4.11 8.67-6.38.75-.56 1.47-1.15 2.19-1.74.64-.51 1.28-1.04 1.92-1.55.19-.16.38-.29.54-.45 2.19-1.82 4.27-3.55 6.08-5.16 2.22-1.95 4.06-3.66 5.26-4.89l.11-.1c.4-.4 3.34-3.55 3.68-4.01 5.47-6.94 17.25 31.55 17.35 32.06-.02 0-10.91 6.86-13.72 8.57z" fill="#FFF"/><path d="M79.46 456.6c-.15 0-.29-.05-.41-.14a1.741 1.741 0 01-.21-.19c-.94-.84-4.96-4.48-8.72-8.8-5.09-5.85-7.57-10.45-7.37-13.68.09-1.49.74-2.69 1.93-3.57.05-.15.13-.37.2-.55.32-.9.32-.9.44-1.02.03-.03.06-.05.09-.08 2.63-1.79 5.53-3.93 8.64-6.36.75-.56 1.47-1.15 2.17-1.72.34-.26.65-.52.97-.78.32-.26.64-.52.96-.77.07-.06.14-.12.21-.17.1-.09.2-.16.28-.24.01-.02.03-.03.04-.04 2.16-1.8 4.25-3.54 6.07-5.15 2.24-1.97 4.05-3.64 5.23-4.85l.11-.11c.42-.42 3.31-3.53 3.62-3.94.91-1.15 1.9-1.2 2.57-1.04 2.73.64 6.13 6.26 10.4 17.18 3.15 8.08 5.54 15.97 5.59 16.19a.676.676 0 01-.34.73c-.17.1-1.69 1.06-3.45 2.16-3.36 2.11-8.44 5.3-10.23 6.39-.05.03-.09.06-.12.08-.03.02-.06.03-.08.05-.01 0-.02.01-.03.01-9.21 5.6-17.96 10.21-18.27 10.35-.09.04-.19.06-.29.06zm-13.11-27.03c-.05.15-.13.38-.19.55-.32.89-.32.89-.44 1.01-.03.03-.07.06-.1.09-.95.65-1.44 1.52-1.52 2.65-.17 2.83 2.26 7.22 7.04 12.71 3.52 4.04 7.27 7.48 8.44 8.52 1.84-.96 9.65-5.15 17.73-10.06.04-.03.08-.05.12-.08.02-.01.05-.03.08-.05 0 0 .01-.01.02-.01 1.77-1.08 6.86-4.28 10.23-6.39 1-.63 1.87-1.17 2.49-1.56.19-.12.37-.24.56-.35-.55-1.82-2.73-8.72-5.48-15.72-5.27-13.45-8.14-15.9-9.38-16.16-.29-.06-.68-.06-1.16.55-.37.49-3.33 3.66-3.74 4.07l-.11.1c-1.2 1.23-3.03 2.93-5.29 4.92-1.83 1.62-3.92 3.36-6.08 5.15-.12.12-.24.22-.36.32-.06.05-.12.1-.19.15L79 420c-.32.25-.64.51-.95.77-.32.26-.65.52-.97.77-.71.58-1.45 1.18-2.2 1.75-3.06 2.39-5.93 4.5-8.53 6.28z" fill="#232323"/><path d="M97.67 445.61c-9.18 5.59-17.91 10.18-18.21 10.31-.29.14 0 0-.02-.02-.03 0-.03-.03-.06-.06-.02 0-.02-.02-.02-.02-1.87-1.66-22-19.77-14.12-25.17.02-.02.53-1.49.56-1.52 2.77-1.89 9.82-7.29 12.73-9.56l19.14 26.04z" fill="#D8C5F3"/><mask id="e" maskUnits="userSpaceOnUse" x="63.422" y="422.753" width="34.253" height="33.234"><path d="M97.67 445.61c-9.18 5.59-17.91 10.18-18.21 10.31-.29.14 0 0-.02-.02-.03 0-.03-.03-.06-.06-.02 0-.02-.02-.02-.02-1.87-1.66-22-19.77-14.12-25.17.02-.02.53-1.49.56-1.52 2.77-1.89 5.76-4.11 8.67-6.38l23.2 22.86z" fill="#000"/></mask><g mask="url(#e)"><path d="M98.04 461.59l-30.03-41.7c-.34-.48-.24-1.15.22-1.5.48-.34 1.14-.24 1.49.22l.03.02 30.03 41.68c.35.48.24 1.14-.21 1.49-.51.35-1.18.27-1.53-.21z" fill="#FFF"/></g><path d="M79.46 456.6c-.15 0-.29-.05-.41-.14a1.741 1.741 0 01-.21-.19c-.94-.84-4.96-4.48-8.72-8.8-5.09-5.85-7.57-10.45-7.37-13.68.09-1.49.74-2.69 1.93-3.57.05-.15.13-.37.2-.55.32-.9.32-.9.44-1.02.03-.03.06-.05.09-.08 2.63-1.79 5.53-3.93 8.64-6.36.75-.56 1.47-1.15 2.17-1.72.34-.26.65-.52.97-.78.32-.26.64-.52.96-.77.07-.06.14-.12.21-.17.1-.09.2-.16.28-.24.01-.02.03-.03.04-.04 2.16-1.8 4.25-3.54 6.07-5.15 2.24-1.97 4.05-3.64 5.23-4.85l.11-.11c.42-.42 3.31-3.53 3.62-3.94.91-1.15 1.9-1.2 2.57-1.04 2.73.64 6.13 6.26 10.4 17.18 3.15 8.08 5.54 15.97 5.59 16.19a.676.676 0 01-.34.73c-.17.1-1.69 1.06-3.45 2.16-3.36 2.11-8.44 5.3-10.23 6.39-.05.03-.09.06-.12.08-.03.02-.06.03-.08.05-.01 0-.02.01-.03.01-9.21 5.6-17.96 10.21-18.27 10.35-.09.04-.19.06-.29.06zm-13.11-27.03c-.05.15-.13.38-.19.55-.32.89-.32.89-.44 1.01-.03.03-.07.06-.1.09-.95.65-1.44 1.52-1.52 2.65-.17 2.83 2.26 7.22 7.04 12.71 3.52 4.04 7.27 7.48 8.44 8.52 1.84-.96 9.65-5.15 17.73-10.06.04-.03.08-.05.12-.08.02-.01.05-.03.08-.05 0 0 .01-.01.02-.01 1.77-1.08 6.86-4.28 10.23-6.39 1-.63 1.87-1.17 2.49-1.56.19-.12.37-.24.56-.35-.55-1.82-2.73-8.72-5.48-15.72-5.27-13.45-8.14-15.9-9.38-16.16-.29-.06-.68-.06-1.16.55-.37.49-3.33 3.66-3.74 4.07l-.11.1c-1.2 1.23-3.03 2.93-5.29 4.92-1.83 1.62-3.92 3.36-6.08 5.15-.12.12-.24.22-.36.32-.06.05-.12.1-.19.15L79 420c-.32.25-.64.51-.95.77-.32.26-.65.52-.97.77-.71.58-1.45 1.18-2.2 1.75-3.06 2.39-5.93 4.5-8.53 6.28z" fill="#232323"/><path d="M115.67 213.47c-33.64 57.17 23.67 96.82-.43 135.39-8.31 13.28-29.33 25.21-53.84 32.26 1.84-.69 13.13-4 25.14 14.17 8.22 12.42 6.55 21.36 24.41 42.84C130.02 425.6 130 426.01 130 426.01s46.79-28.64 52.66-81.68c5.57-56.05-14.36-131.14-17.08-137.16-17.84-3.91-39.89-2.74-49.91 6.3z" fill="#00676C"/><mask id="f" maskUnits="userSpaceOnUse" x="61.744" y="205.649" width="125.26" height="231.955"><path d="M115.67 213.47c-33.64 57.17 23.67 96.82-.44 135.39-8.3 13.28-28.99 25.65-53.49 32.7 1.84-.7 12.79-4.44 24.8 13.73 8.22 12.42 6.14 20.83 24 42.31 32.83-20.3 20.39-13.32 20.39-13.32s-1.11 1.81-2.72 5.69c-1.44 3.48 42.86-21.15 56.55-75.61 7.46-56.89-5.89-107.01-8.66-127.65-1.95-18.29-42.49-29.42-60.43-13.24z" fill="#000"/></mask><g mask="url(#f)"><path d="M121.6 433.34c-.15 0-.29-.05-.41-.13a.714.714 0 01-.24-.35.702.702 0 01.01-.43.7.7 0 01.27-.34c14.97-9.76 27.35-20.7 36.8-32.5 8.46-10.56 14.86-22.19 19.03-34.57 8.42-24.98 6.89-49.77 4.61-68.58a5609.44 5609.44 0 01-4.27-36.8c-.01-.09 0-.18.02-.26.03-.09.07-.17.12-.24.06-.07.13-.13.2-.17a.683.683 0 011.01.52c.02.21 2.34 20.84 4.27 36.79 2.29 18.95 3.83 43.94-4.67 69.18-4.23 12.53-10.71 24.3-19.26 34.98-9.54 11.91-22.03 22.95-37.12 32.79-.11.07-.24.11-.37.11zm-12.49-78.09a.69.69 0 01-.39-.12.636.636 0 01-.24-.32.687.687 0 01-.03-.4c.04-.14.11-.26.21-.35 14.77-13.01 20.09-32.97 20.15-33.17.04-.18.16-.32.31-.41a.673.673 0 01.92.24c.09.15.12.33.08.51-.05.2-5.48 20.56-20.56 33.85-.12.11-.28.17-.45.17z" fill="#FFF"/></g><path d="M67.02 426.55s-28.3 13.16-41.55 22.67c0 0 37.53 37.86 51.26 49.1 7.45 6.1 13.26 6.72 16.64 6.38 0 0 .01-.01.02-.03 0-.02.01-.04.02-.07.01 0 .01 0 0 0 .48-1.23 4.97-13.61-1.44-32.03-1.01-2.87-4.62-11.68-11.01-19.53-4.37-5.37-8.78-9.22-10.93-13.35-2.72-5.23-.67-11.03-3.01-13.14z" fill="#FFF"/><path d="M91.87 505.45c-6.15 0-11.8-3.51-15.57-6.6-13.6-11.14-50.94-48.77-51.32-49.15a.579.579 0 01-.15-.25.57.57 0 01-.04-.29c.01-.09.04-.19.08-.27.05-.09.12-.16.2-.22 13.16-9.44 41.38-22.6 41.66-22.73a.66.66 0 01.74.11c1.35 1.21 1.46 3.29 1.58 5.7.12 2.38.26 5.08 1.58 7.63 1.33 2.55 3.58 5.03 6.19 7.89 1.51 1.66 3.08 3.38 4.67 5.34 7.2 8.85 10.74 18.65 11.12 19.73 6.41 18.42 2.04 30.93 1.45 32.47 0 .02-.01.03-.02.05-.01.02-.02.05-.03.07l-.01.03c-.05.11-.12.21-.22.28-.1.08-.22.12-.34.14-.53.05-1.05.07-1.57.07zm-65.36-56.14c4.75 4.78 38.02 38.14 50.65 48.49 3.81 3.11 9.59 6.69 15.73 6.26.83-2.31 4.41-14.11-1.56-31.27-.38-1.06-3.84-10.65-10.9-19.32-1.56-1.93-3.12-3.64-4.62-5.29-2.67-2.93-4.97-5.46-6.38-8.17-1.46-2.81-1.61-5.8-1.73-8.19-.1-1.87-.18-3.51-.85-4.44-3.62 1.7-27.97 13.27-40.34 21.93z" fill="#232323"/><path d="M67.51 426.21c1.24 1.96 1.38 3.81 1.44 5.8-.82 10.94 9.69 15.1 16.03 25.86 6.77 11.23 11.23 24.24 10.28 37.45h-.01c-.13 1.83-.42 3.93-.76 5.47-18.47-2.88-27.29-19.48-31.04-28.28-3.24-7.59-7.74-6.24-10.8-11.99-2.56-4.8-.42-8.48-4.6-13.65-3.91-4.82-10.45-5.52-10.45-5.52s17.81-9 29.91-15.14z" fill="#232323"/><path d="M43.58 459.38c-.47 0-.97-.07-1.5-.2-1.6-.41-3.27-1.4-4.68-2.8-1.42-1.39-2.44-3.04-2.87-4.64-.46-1.72-.2-3.2.75-4.16.94-.96 2.42-1.25 4.15-.81 1.6.41 3.26 1.4 4.68 2.8 1.42 1.39 2.43 3.04 2.86 4.64.46 1.72.2 3.2-.75 4.16-.65.67-1.56 1.01-2.64 1.01zm-5.66-11.45c-.7 0-1.28.2-1.67.6-.6.6-.74 1.62-.41 2.86.37 1.36 1.26 2.79 2.51 4.03 1.25 1.23 2.69 2.1 4.06 2.44 1.24.32 2.25.16 2.85-.44.59-.6.73-1.62.4-2.86-.37-1.36-1.26-2.79-2.5-4.02-1.25-1.24-2.7-2.1-4.07-2.45a4.56 4.56 0 00-1.17-.16z" fill="#232323"/><path d="M71.45 448.71a.58.58 0 01-.35-.11c-4.81-3.67-6.76-3.91-10.62-4.38-1.04-.13-2.21-.27-3.6-.51-6.66-1.1-10-5.33-10.13-5.51a.538.538 0 01-.1-.2.534.534 0 01.2-.59.566.566 0 01.41-.12c.08.01.15.03.21.07.07.04.12.09.17.15.03.04 3.23 4.06 9.43 5.09 1.36.22 2.52.37 3.54.49 3.94.49 6.12.75 11.18 4.61.09.07.16.17.2.28a.595.595 0 01-.21.63c-.1.07-.22.1-.33.1z" fill="#FFF"/><path d="M88.42 465.35c-.3 0-.6-.08-.86-.23-8.01-4.68-16.98-1.82-17.07-1.79a1.71 1.71 0 01-2.15-1.08c-.29-.89.19-1.85 1.08-2.14.42-.15 10.49-3.4 19.86 2.07.32.19.57.48.71.83.14.34.16.72.07 1.09-.1.36-.31.67-.61.9-.3.23-.66.35-1.03.35zm3.54 8.24c-.31 0-.62-.08-.88-.25-8.43-5.16-17.05-2.42-17.14-2.39-.89.29-1.85-.19-2.14-1.08-.3-.89.18-1.84 1.07-2.14.41-.14 10.17-3.3 19.98 2.72.31.19.56.48.69.82.14.35.16.73.06 1.09-.1.35-.32.67-.61.89-.3.22-.66.34-1.03.34zm2.61 8.2c-.32 0-.63-.09-.91-.27-7.49-4.72-14.96-2.54-15.03-2.52-.9.27-1.84-.23-2.12-1.13-.27-.89.23-1.84 1.12-2.12.37-.11 8.98-2.68 17.84 2.9.31.2.55.49.69.83.13.35.14.72.04 1.08-.1.35-.32.66-.61.89-.3.22-.65.34-1.02.34z" fill="#D8C5F3"/><path d="M156.54 103.25c7.01-.08 11.04-2.31 11.04-2.31s14.13 7.4 29.53 10.01c24.44 47.97 15.75 73.06-13.87 118.85-5.5 2.42-49.63-37.21-49.63-37.21l.99-58.72s13.05-25.48 21.94-30.62z" fill="#FFF"/><path d="M182.68 230.58c-2.31 0-8.25-2.8-26.75-17.95-11.6-9.51-22.66-19.43-22.78-19.53a.633.633 0 01-.16-.24.671.671 0 01-.06-.28l.99-58.72c0-.1.03-.2.08-.3.53-1.04 13.24-25.71 22.2-30.9.1-.05.22-.09.33-.09 6.73-.08 10.68-2.2 10.72-2.23.1-.05.21-.08.32-.08.11 0 .22.03.32.08.14.07 14.22 7.38 29.33 9.94a.686.686 0 01.5.36c6.17 12.11 10.21 22.75 12.36 32.53 2.14 9.73 2.48 18.93 1.04 28.13-2.87 18.3-12.57 36.09-27.31 58.87-.07.11-.17.19-.29.25-.22.09-.49.16-.84.16zm-48.39-38.29c1.65 1.47 11.85 10.56 22.51 19.29 6.79 5.56 12.43 9.89 16.76 12.87 6.55 4.5 8.63 4.85 9.25 4.77 14.56-22.52 24.15-40.12 26.97-58.13 1.41-9.03 1.08-18.07-1.02-27.62-2.11-9.59-6.07-20.03-12.1-31.91-13.94-2.43-26.92-8.77-29.08-9.86-1.11.53-4.91 2.13-10.85 2.23-8.28 4.98-20.41 28.09-21.45 30.11l-.99 58.25z" fill="#232323"/><path d="M157.9 102.5c6.58 10.07-3.83 74.49-21.57 110.3l50.47 18.15c24.92-39.07 30.13-67.42 21.23-95.5 0 0-16.43 2.43-31.77-2.74 0 0-1.12-20.35-12.8-31.04l-5.56.83z" fill="#00676C"/><path d="M176.75 142.22c0 1.51-1.22 2.74-2.73 2.74s-2.73-1.23-2.73-2.74c0-1.51 1.22-2.73 2.73-2.73s2.73 1.22 2.73 2.73z" fill="#FFF" fill-rule="evenodd"/><path d="M219.24 51.86c-2.16-1.88-1.84-2.97-4.62-2.32-.46-9.39-6.19-11.82-9.45-5.6-6.42-8.14-18.47-1.76-18.37 5.8.51 2.98 1.17 7.37 0 13.09 3.44 2.77 8.25 15.01 8.25 15.01s18.3-16.52 25.38-15.36c1.26-8.45 3.35-6.5-1.19-10.62z" fill="#232323"/><path d="M195.05 78.52c-.14 0-.27-.04-.38-.12a.59.59 0 01-.25-.31c-.05-.12-4.79-12.1-8.05-14.73a.711.711 0 01-.21-.3.729.729 0 01-.03-.36c1.2-5.88.42-10.41 0-12.85-.01-.03-.01-.07-.01-.1-.05-4.04 3.08-7.99 7.63-9.6 4.23-1.5 8.39-.52 11.31 2.62 1.42-2.21 3.32-3.27 5.19-2.86 2.71.6 4.59 3.95 4.99 8.82 1.69-.24 2.28.32 3.16 1.32.34.37.72.8 1.28 1.29l.01.01.08.08c3.27 2.96 3.29 3.23 2.52 5.82-.32 1.08-.8 2.7-1.19 5.33-.02.09-.05.17-.09.25a.72.72 0 01-.43.31c-.09.02-.18.02-.27.01-5.53-.91-19.78 10.66-24.81 15.2-.12.11-.28.17-.45.17zm-7.51-15.94c2.97 2.77 6.62 11.3 7.78 14.11 3.41-3 17.65-15.12 24.53-14.94.39-2.36.83-3.86 1.14-4.89.34-1.14.44-1.56.27-1.95-.23-.51-1-1.21-2.4-2.48l-.07-.07c-.63-.54-1.06-1.02-1.4-1.41-.83-.93-1-1.12-2.62-.74a.708.708 0 01-.56-.12.603.603 0 01-.19-.23.566.566 0 01-.08-.28c-.19-3.75-1.49-7.79-3.98-8.34-1.49-.33-3.02.77-4.19 3.02-.06.1-.13.18-.23.25-.09.06-.2.1-.31.11a.61.61 0 01-.33-.06.6.6 0 01-.27-.2c-2.55-3.24-6.45-4.34-10.42-2.93-3.93 1.39-6.75 4.85-6.73 8.25.43 2.48 1.19 7.01.06 12.9z" fill="#232323"/><path d="M223.8 92.59c-.37 2.47-2.23 4.69-5.11 5.53-7.48 2.19-15.7-1.85-15.7-1.85s-5.59 7.62-3.94 18.59c0 0-17.55 2.3-31.41-14.02 0 0 7.34-5.62 15.32-20.97-4.52-1.7-8.64-7.64-6.03-13.7 1.49-3.46 5.91-5.03 9.5-3.58 3.68 1.49 5.47 5.21 7.67 9.08 2.48 4.37 4.18 1.6 6.38-1.88 1.41-2.24 3.03-4.77 5.21-5.88 4.93-2.52 14.74-1.43 14.74-1.43s-.5 2.79-.7 4.41c-.26 2.14-.43 4.88.17 6.11 1.04 2.16 2.56 2.16 2.34 3.38-.18 1.04-1.62 2.03-2.4 2.43-1.11 7.14 4.82 8.03 3.96 13.78z" fill="#FFF"/><path d="M196.71 115.65c-1.91 0-4.84-.18-8.33-1.02-5.68-1.36-13.98-4.78-21.26-13.35a.698.698 0 01-.13-.24.61.61 0 01-.03-.27c.01-.09.04-.18.08-.26a.91.91 0 01.18-.21c2.46-1.89 8.67-8.49 14.8-20.09-2.46-1.16-4.61-3.41-5.72-6.03-.81-1.9-1.46-4.88 0-8.28 1.62-3.76 6.37-5.56 10.38-3.94 3.56 1.44 5.43 4.78 7.41 8.31.2.35.4.71.6 1.07.7 1.23 1.35 1.88 1.87 1.9h.01c.92 0 2.11-1.88 3.26-3.69l.07-.13c1.39-2.18 3.11-4.9 5.49-6.11 5.04-2.58 14.7-1.55 15.11-1.51.09.01.18.04.26.09.08.05.15.11.21.18.06.08.09.16.12.25.02.09.02.19 0 .28 0 .03-.49 2.79-.69 4.37-.34 2.81-.3 4.9.11 5.74.44.92.97 1.38 1.43 1.78.54.47 1.15 1 .97 2.01-.24 1.33-1.76 2.34-2.45 2.74-.42 3.29.77 5.05 2.03 6.91 1.19 1.75 2.43 3.56 1.98 6.54-.42 2.87-2.56 5.2-5.59 6.08-6.61 1.93-13.65-.77-15.65-1.64-1.11 1.77-4.87 8.56-3.51 17.63.01.09.01.18-.02.27-.02.08-.06.17-.11.24a.86.86 0 01-.2.18c-.08.04-.17.07-.26.08-.08.01-.95.12-2.42.12zm-28.11-14.72c6.92 7.88 14.69 11.08 20.04 12.37 4.57 1.1 8.19 1.03 9.64.94-1.33-10.73 3.93-18.06 4.16-18.37a.674.674 0 01.85-.21c.08.04 8.08 3.89 15.21 1.81 2.51-.73 4.28-2.64 4.63-4.98.36-2.45-.62-3.9-1.76-5.58-1.33-1.96-2.83-4.17-2.2-8.2.01-.11.05-.21.12-.3.06-.09.14-.16.24-.21.92-.46 1.93-1.31 2.04-1.94.04-.22.01-.28-.52-.74-.5-.45-1.2-1.05-1.76-2.22-.54-1.12-.62-3.3-.23-6.49.13-1.12.41-2.78.57-3.72-2.32-.19-9.7-.58-13.63 1.43-2.05 1.04-3.66 3.59-4.95 5.63l-.08.12c-1.48 2.34-2.75 4.37-4.44 4.32-1.07-.02-2.03-.84-3.02-2.58a58.9 58.9 0 01-.61-1.08c-1.93-3.46-3.61-6.45-6.73-7.71-3.28-1.33-7.31.18-8.62 3.21-1.28 2.97-.71 5.56-.01 7.21 1.08 2.54 3.25 4.69 5.66 5.6.09.03.17.09.24.15.07.07.12.15.16.24.03.09.05.19.04.28 0 .1-.03.19-.07.28-6.81 13.08-13.09 19.11-14.97 20.74z" fill="#232323"/><mask id="g" maskUnits="userSpaceOnUse" x="165.479" y="62.057" width="58.411" height="52.956"><path d="M223.8 92.59c-.37 2.47-2.23 4.69-5.11 5.53-7.48 2.19-15.7-1.85-15.7-1.85s-5.4 7.12-4.01 18.59c0 0-14.56 2.4-33.51-12.07 0 0 9.51-7.57 17.49-22.92-4.52-1.7-8.64-7.64-6.03-13.7 1.49-3.46 5.91-5.03 9.5-3.58 3.68 1.49 5.47 5.21 7.67 9.08 2.48 4.37 4.17 1.6 6.38-1.88 1.41-2.24 3.03-4.77 5.21-5.88 4.93-2.52 14.48.1 14.48.1s-.24 1.26-.44 2.88c-.26 2.14-.43 4.88.16 6.11 1.05 2.16 2.57 2.16 2.35 3.38-.19 1.04-1.62 2.03-2.4 2.43-1.11 7.14 4.82 8.03 3.96 13.78z" fill="#000"/></mask><g mask="url(#g)" fill="#232323"><path d="M202.99 96.27s-4.89-2.62-7.3-6.98c-1.31.41-3.66 6.62 1.93 11.09 5.85 4.67 5.37-4.11 5.37-4.11z"/><path d="M200.54 102.42c-.96 0-2.08-.5-3.34-1.51-4.19-3.35-3.97-7.39-3.67-8.97.31-1.7 1.1-3.03 1.95-3.3.15-.05.32-.04.46.01.15.06.27.17.34.31 2.28 4.12 6.98 6.68 7.03 6.71.1.05.19.13.25.23s.1.21.1.33c.03.49.2 4.79-2 5.93-.34.18-.72.26-1.12.26zm-5.01-12.07c-.27.44-.6 1.2-.73 2.25-.2 1.58-.04 4.62 3.25 7.25.92.73 2.18 1.52 2.99 1.1.99-.51 1.3-2.76 1.28-4.28-1.11-.65-4.6-2.88-6.79-6.32z"/></g><path d="M206.03 66.38c1.75-7.07 11.92-4.54 9.19-1.2-1.23.53-2.68.72-3.91 1.15-1.21.24-5.4 2.71-5.28.05zm4.03 4.57c1.13-.19 3.85-.56 6.41-1.71.17-.08.37-.08.55-.02.17.07.31.2.39.37v.01c.41.93.81 2.55-1.04 3.11-2.27.69-5.83-.19-6.56-1.2a.492.492 0 01-.06-.17c-.01-.06 0-.12.03-.18a.36.36 0 01.28-.21zm6.51 14c-.38.23-.8.39-1.24.45-.43.06-.86.05-1.29-.02-.86-.14-1.67-.52-2.32-1.1-.33-.3-.6-.65-.83-1.03a4.37 4.37 0 01-.48-1.21c-.21-.86-.1-1.76.31-2.54.05-.1.14-.18.25-.22.1-.04.21-.04.32 0 .11.04.19.11.25.21.05.1.07.21.05.32v.03c-.18.92.01 1.88.53 2.66.16.26.36.49.58.7.47.41 1.02.7 1.62.87.6.18 1.23.19 1.84.04l.02-.01a.47.47 0 01.33.03c.1.05.18.13.22.23.05.1.06.22.03.32-.03.11-.1.2-.19.27zm-27.9-9.23c-.16 0-.32-.06-.44-.17-.12-.1-.2-.25-.23-.41-1.09-7.07-5.63-7.54-5.83-7.56a.682.682 0 01-.46-.23.75.75 0 01-.16-.5c.02-.18.1-.34.24-.46.13-.12.31-.17.49-.16.23.02 5.8.52 7.06 8.7.02.1.01.2-.01.29-.03.1-.08.19-.14.26-.07.07-.15.13-.23.18-.09.04-.19.06-.29.06zm-.03 5.86c-2.77 0-4.76-.59-5.94-1.08a.744.744 0 01-.22-.14.678.678 0 01-.14-.23.583.583 0 010-.52c.03-.08.08-.15.14-.22.07-.06.14-.11.22-.14.09-.04.17-.05.26-.05s.18.01.26.05c1.07.44 2.88.97 5.42.97h.03c.18 0 .35.07.48.2.13.12.2.3.2.48s-.07.35-.2.48c-.13.12-.3.2-.48.2h-.03zM75.32 197.41c3.18-8.54 16.73-13.87 77.25-7.15-12.69 14.79-80.54 30.17-77.25 7.15z" fill="#232323"/><path d="M94.47 209.85c-5.71 0-10.46-.76-13.82-2.28-4.59-2.08-6.66-5.63-6-10.26 0-.05.01-.09.03-.14 1.99-5.32 7.44-8.33 17.67-9.73 12.32-1.7 32.04-.99 60.29 2.14.13.01.24.06.34.14.1.07.17.17.22.29.05.11.06.24.04.36-.02.12-.08.23-.16.33-4.87 5.68-18.18 11.86-33.92 15.74-9.16 2.27-17.66 3.41-24.69 3.41zm-18.49-12.27c-.54 3.99 1.22 6.93 5.23 8.75 3.69 1.68 9.32 2.4 16.27 2.09 6.41-.29 13.8-1.43 21.36-3.3 14.57-3.6 26.98-9.13 32.3-14.34-27.41-2.99-46.59-3.65-58.6-2-9.63 1.33-14.75 4.04-16.56 8.8z" fill="#232323"/><path d="M241.91 249.21c-9.53 4.13-17.65-.17-15.82-2.87-2.4-1-4.89-5.15-.51-5.72 4.99-.64 11.05-.39 11.73-3.38.66-2.87-3-4.43-5.56-4.95-8.25-1.69-26.56 8.66-48.07 15.03-25.15 7.44-62.12 6.91-80.34-9.2-20.8-18.38-16.05-57.44 3.01-85.33.5-1.21 53.1 15.55 51.89 23.32-3.15 9.24-8.93 27.71-9.07 27.89 9.52-.8 40.26 1.81 53.92 3.06 32.43 2.96 40.69 8.83 44.72 13.78 8.12 9.97 4.25 23.97-5.9 28.37z" fill="#FFF"/><path d="M150.42 252.62c-18.24 0-36.36-4.12-47.53-13.99-9.87-8.72-14.72-22.8-13.67-39.65.97-15.6 7-32.56 16.55-46.53.32-.59 1.2-.4 2.14-.21.89.18 2.13.49 3.68.93 6.82 1.91 18.75 5.91 28.83 10.19 5.64 2.39 10.06 4.59 13.14 6.55 3.88 2.45 5.63 4.51 5.35 6.3l-.03.12c-1.87 5.48-4.63 14.13-6.65 20.44a807.31 807.31 0 01-2.09 6.48c10.74-.56 40.44 1.98 53.02 3.13 32.14 2.94 40.87 8.74 45.18 14.03 3.98 4.89 5.43 11.12 3.98 17.09-1.35 5.56-5.14 10.17-10.14 12.33-4.27 1.85-7.89 1.92-10.18 1.65-2.76-.32-5.07-1.31-6.18-2.66-.58-.7-.79-1.46-.61-2.16-1.54-.93-2.91-2.82-2.69-4.42.1-.73.62-1.99 2.97-2.29 1.07-.14 2.18-.24 3.26-.33 3.67-.32 7.47-.65 7.9-2.53.13-.6.04-1.13-.29-1.64-.83-1.3-3-2.14-4.74-2.5-4.82-.98-13.39 2.38-24.24 6.62-7.04 2.76-15.03 5.89-23.51 8.4-9.99 2.95-21.75 4.65-33.45 4.65zm-43.67-99.2c-9.33 13.73-15.22 30.35-16.18 45.64-1.02 16.43 3.67 30.12 13.22 38.55 10.5 9.29 26.01 12.34 37.18 13.26 14.04 1.17 29.54-.37 42.52-4.21 8.42-2.49 16.38-5.6 23.4-8.35 11.06-4.33 19.79-7.75 25-6.69.98.2 4.27 1.01 5.61 3.09.53.82.69 1.73.47 2.68-.65 2.85-4.75 3.2-9.1 3.58-1.06.1-2.17.19-3.21.33-1.11.14-1.71.52-1.79 1.12-.15 1.04 1.13 2.73 2.48 3.3.19.08.33.24.39.43.05.2.02.41-.09.58-.09.13-.36.53.22 1.23 1.75 2.11 8.02 3.55 14.77.62 4.61-1.99 8.11-6.26 9.36-11.4 1.35-5.56 0-11.35-3.71-15.91-7.36-9.04-26.5-11.91-44.26-13.54-12.97-1.18-44.19-3.85-53.81-3.06a.667.667 0 01-.62-.29c-.06-.1-.1-.22-.11-.34a.71.71 0 01.07-.35c.15-.38 1.18-3.61 2.37-7.33 2.02-6.3 4.77-14.91 6.65-20.41.05-.54-.31-1.25-1.07-2.05-1.83-1.95-7.76-6.26-26.85-13.33-11.73-4.34-21.19-7.01-22.91-7.15zm41.89 50.14z" fill="#232323"/><path d="M158.82 103.74c-3.64-2.74-24.72-6.22-46.92 18.18-24.27 26.67-32.24 57.24-36.58 75.49 3.53-9.24 25.3-14.64 77.67-4.84 0 0 26.37-73.35 5.83-88.83z" fill="#FFF"/><path d="M75.32 198.09c-.11 0-.21-.03-.3-.07a.603.603 0 01-.23-.19.673.673 0 01-.14-.28.61.61 0 01.01-.3c2.52-10.61 5.58-22.15 10.85-34.69 6.55-15.59 15.26-29.41 25.89-41.09 22.29-24.51 43.75-21.35 47.83-18.27 4.86 3.66 7.56 10.7 8.03 20.92.37 8.07-.64 18.15-2.98 29.97-4 20.09-10.59 38.53-10.65 38.71-.06.15-.16.28-.3.36a.68.68 0 01-.46.08c-24.19-4.53-43.36-6.12-56.96-4.71-14.17 1.46-18.67 5.76-19.96 9.12-.05.13-.13.24-.25.32-.11.08-.24.12-.38.12zm74.52-95.6c-2.14 0-4.62.23-7.37.83-7.23 1.56-18.31 6.13-30.07 19.06-23.22 25.52-31.5 54.95-35.53 71.45 4.17-4.24 12.24-5.97 18.9-6.66 13.63-1.4 32.73.16 56.77 4.63 1.12-3.2 6.82-19.92 10.41-37.99 3.63-18.29 5.79-41.74-4.54-49.53-1.01-.76-4.03-1.79-8.57-1.79z" fill="#232323"/><mask id="h" maskUnits="userSpaceOnUse" x="89.76" y="152.736" width="162.437" height="99.203"><path d="M241.91 249.21c-9.53 4.13-17.65-.17-15.82-2.87-2.4-1-4.89-5.15-.51-5.72 4.99-.64 11.05-.39 11.73-3.38.66-2.87-3-4.43-5.56-4.95-8.25-1.69-26.56 8.66-48.07 15.03-25.15 7.44-62.12 6.91-80.34-9.2-20.8-18.38-16.05-57.44 3.01-85.33.5-1.21 53.1 15.55 51.89 23.32-3.15 9.24-8.93 27.71-9.07 27.89 9.52-.8 40.26 1.81 53.92 3.06 32.43 2.96 40.69 8.83 44.72 13.78 8.12 9.97 4.25 23.97-5.9 28.37z" fill="#000"/></mask><g mask="url(#h)"><path d="M131.97 206.99c-.17 0-.33-.06-.45-.18a.624.624 0 01-.22-.43c-.02-.17.02-.34.12-.47.1-.14.25-.23.42-.27.16-.03 17.15-3.48 34.05-2.67.37.02.66.34.64.72-.01.37-.33.67-.71.64-16.72-.8-33.54 2.61-33.71 2.64-.05.01-.09.02-.14.02zm93.76 42.92c-.15 0-.3-.05-.42-.15a.699.699 0 01-.24-.39c-.25-1.15-.38-2.36.29-3.32.9-1.29 2.99-1.8 6.78-2.33 10.55-1.48 9.96-11.76 9.93-12.2a.67.67 0 01.17-.49c.12-.14.28-.22.46-.23.38-.03.7.25.73.63.01.12.2 3.02-1.06 6.16-1.17 2.93-3.87 6.61-10.04 7.47-3.17.45-5.25.9-5.86 1.77-.3.43-.32 1.09-.07 2.26.02.1.02.2-.01.3-.02.1-.06.19-.13.27-.06.08-.14.14-.23.18-.1.05-.2.07-.3.07z" fill="#232323"/></g><path d="M224.57 56.01c.52-4.24.35-11-5.77-17.48-5.63-5.95-16.87-6.88-19.23-4.1-2.25-.71-7.52 1.73-7.69 3.51-4.45 1.14-9.08 11.63-7.75 14.91-.83.48-.9 3.33-.47 3.79-.18-.02-.35 0-.52.05-.16.05-.31.14-.45.25a1.28 1.28 0 00-.44.9l-.02.26c-.02.32.08.63.28.88s.48.42.8.47c1.96.32 26.08 3.28 30.1 3.63 4.52.4 9.76.16 13.07-.07 5.41-.36 11.01-.7-1.91-7z" fill="#FFF"/><path d="M218.83 63.98c-2.02 0-3.85-.08-5.47-.22-4.17-.37-28.32-3.34-30.16-3.64-.48-.08-.92-.33-1.22-.71a1.94 1.94 0 01-.43-1.35l.02-.26c.01-.27.08-.52.2-.76.12-.24.28-.45.49-.62.15-.13.32-.24.51-.32-.12-.82.02-1.76.02-1.82.11-.71.3-1.25.57-1.62-.53-2.16.59-5.84 2.03-8.69 2.36-4.67 4.72-6.12 5.93-6.56.3-.79 1.12-1.47 1.81-1.93 1.76-1.17 4.46-2.09 6.23-1.8.97-.86 2.69-1.36 4.92-1.42 4.62-.13 11.05 1.62 15.01 5.81 4.69 4.96 6.71 10.86 6 17.54 6.82 3.36 8.07 4.87 7.83 6.1-.3 1.56-3.04 1.74-6.49 1.97l-.11.01c-2.8.19-5.37.29-7.69.29zm-35.3-6.67c-.15 0-.28.05-.39.14-.07.06-.12.12-.15.2-.04.07-.06.15-.07.23l-.01.26c-.01.15.03.3.13.42.09.12.23.2.38.22 1.83.3 25.9 3.26 30.05 3.63 3.43.3 7.79.28 12.96-.07l.1-.01c1.74-.12 4.96-.34 5.26-.9 0-.17-.37-1.32-7.52-4.81a.678.678 0 01-.3-.28.661.661 0 01-.08-.41c.81-6.46-1.08-12.16-5.59-16.93-3.65-3.86-9.81-5.5-13.99-5.38-2.02.05-3.6.52-4.22 1.25-.08.1-.2.18-.33.21-.13.04-.26.04-.39 0-1.14-.36-3.71.35-5.49 1.53-.94.62-1.3 1.14-1.32 1.4a.69.69 0 01-.51.59c-1.72.44-3.81 2.73-5.45 5.99-1.63 3.23-2.41 6.6-1.84 8.01.06.15.07.32.01.47-.05.16-.16.29-.3.37-.36.29-.52 2.28-.29 2.77.08.1.14.22.15.35.02.13-.01.26-.06.38a.78.78 0 01-.28.29c-.12.07-.26.1-.4.08h-.06z" fill="#232323"/><mask id="i" maskUnits="userSpaceOnUse" x="182.231" y="32.938" width="50.542" height="31.304"><path d="M224.57 56.01c.52-4.24.35-11-5.77-17.48-5.63-5.95-16.87-6.88-19.23-4.1-2.25-.71-7.52 1.73-7.69 3.51-4.45 1.14-9.08 11.63-7.75 14.91-.83.48-.9 3.33-.47 3.79-.18-.02-.35 0-.52.05-.16.05-.31.14-.45.25a1.28 1.28 0 00-.44.9l-.02.26c-.02.32.08.63.28.88s.48.42.8.47c1.96.32 26.08 3.28 30.1 3.63 4.52.4 9.97 1.12 13.75 1.16 5.42.05 10.33-1.93-2.59-8.23z" fill="#000"/></mask><g mask="url(#i)"><path d="M203.06 64.3a.68.68 0 01-.31-.08.66.66 0 01-.24-.2.79.79 0 01-.12-.3c-.02-.1-.01-.21.03-.32 1.53-4.57 5.52-7.06 12.55-7.82 14.54-1.57 17.86-.63 18-.59a.679.679 0 11-.4 1.3c-.02 0-3.38-.88-17.46.64-8.45.91-10.56 4.38-11.4 6.91-.05.13-.14.25-.25.33-.12.08-.26.13-.4.13zm3.24-9.61h-.05l-24.07-1.72a.771.771 0 01-.26-.07.834.834 0 01-.21-.16c-.05-.07-.1-.15-.13-.23a.83.83 0 01-.03-.27c.03-.37.35-.66.73-.63l23.23 1.66c-.22-1.22-.79-3.69-2.21-6.31-2.66-4.88-6.9-7.93-12.58-9.07a.771.771 0 01-.25-.1.813.813 0 01-.18-.19.55.55 0 01-.1-.25.57.57 0 010-.26.6.6 0 01.1-.25c.05-.07.11-.13.19-.18.07-.05.15-.09.24-.1.09-.02.18-.02.27 0 7.62 1.52 11.56 6.17 13.53 9.8 2.12 3.92 2.44 7.45 2.45 7.59a.655.655 0 01-.17.52.6.6 0 01-.23.16.66.66 0 01-.27.06z" fill="#232323"/></g><mask id="j" maskUnits="userSpaceOnUse" x="182.231" y="32.938" width="50.542" height="31.304"><path d="M224.57 56.01c.52-4.24.35-11-5.77-17.48-5.63-5.95-16.87-6.88-19.23-4.1-2.25-.71-7.52 1.73-7.69 3.51-4.45 1.14-9.08 11.63-7.75 14.91-.83.48-.9 3.33-.47 3.79-.18-.02-.35 0-.52.05-.16.05-.31.14-.45.25a1.28 1.28 0 00-.44.9l-.02.26c-.02.32.08.63.28.88s.48.42.8.47c1.96.32 26.08 3.28 30.1 3.63 4.52.4 9.97 1.12 13.75 1.16 5.42.05 10.33-1.93-2.59-8.23z" fill="#000"/></mask><g mask="url(#j)"><path d="M216.85 56.48c-.16 0-.32-.06-.44-.16a.657.657 0 01-.23-.42c-1.31-8.87-5.14-15.26-11.38-18.99-4.63-2.78-8.9-2.96-8.94-2.96-.09 0-.18-.02-.26-.06a.712.712 0 01-.22-.15.79.79 0 01-.14-.23.57.57 0 01-.04-.26c0-.09.02-.18.06-.26.04-.08.09-.16.15-.22a.79.79 0 01.23-.14c.08-.03.17-.04.26-.04.19.01 4.67.2 9.6 3.15 4.54 2.72 10.31 8.39 12.02 19.97.02.09.01.19-.02.28-.02.1-.07.18-.14.26a.671.671 0 01-.51.23z" fill="#232323"/></g></g><path d="M40.658 497.29h47.6v11.91h-47.6z"/><g clip-path="url(#k)"><path d="M88.25 503.24c0 3.29-10.65 5.96-23.8 5.96-13.14 0-23.8-2.67-23.8-5.96s10.66-5.96 23.8-5.96c13.15 0 23.8 2.67 23.8 5.96z" fill="#232323" fill-rule="evenodd"/></g><path d="M220.15 222.34h20.33v20.349h-20.33z"/><g clip-path="url(#l)"><path d="M240.47 232.51c0 5.62-4.55 10.17-10.16 10.17s-10.16-4.55-10.16-10.17 4.55-10.17 10.16-10.17 10.16 4.55 10.16 10.17z" fill="#232323" fill-rule="evenodd"/></g><circle cx="339" cy="256" r="6" fill="#85DBC7"/><path d="M311 188h68v49h-68z"/><g clip-path="url(#m)"><path d="M337.78 236.49l-26.61-36.65a.831.831 0 01-.17-.45c-.01-.17.02-.33.09-.47.08-.15.19-.27.33-.36.14-.08.3-.13.46-.13l15.72-.03c.48 0 .95.11 1.37.33.43.21.8.53 1.08.91l8.57 11.81c.11.15.26.28.42.37.17.08.35.13.54.14.18 0 .37-.03.54-.11.17-.07.32-.19.44-.33l18.58-22.27c.33-.39.75-.71 1.21-.93.47-.21.98-.33 1.49-.32l16.1.05c.2 0 .4.06.57.17.17.1.3.26.38.44.09.18.12.39.09.59-.02.2-.1.39-.23.54l-39.03 46.76c-.12.15-.27.26-.44.34-.17.07-.36.11-.55.1-.18 0-.37-.05-.53-.14-.17-.09-.31-.21-.42-.36z" fill="#85DBC7"/></g></g></svg>