<svg width="280" height="214" fill="none" xmlns="http://www.w3.org/2000/svg"><defs><clipPath id="a"><rect rx="-.5" width="279" height="213" transform="translate(.5 .5)" fill="#fff" fill-opacity="0"/></clipPath></defs><g clip-path="url(#a)"><rect x="65" y="96" rx="4" width="159" height="108" fill="#00676C"/><rect x="65.75" y="96.75" rx="4" width="157.5" height="106.5"/><path d="M212.92 192.09a2.1 2.1 0 11-4.2 0c0-1.16.94-2.09 2.1-2.09 1.16 0 2.1.93 2.1 2.09zm-12.35 0a2.1 2.1 0 11-4.2 0c0-1.16.94-2.09 2.1-2.09 1.16 0 2.1.93 2.1 2.09zm-12.38.33c0 1.16-.94 2.1-2.09 2.1-1.17 0-2.1-.94-2.1-2.1a2.095 2.095 0 014.19 0z" fill="#FFF" fill-rule="evenodd"/><path d="M178 120l-19.02 9.93c-.38.2-.34.76.06.91L178 138m-66-18l19.01 9.93c.38.2.35.76-.06.91L112 138" stroke="#FFF" stroke-width="2" stroke-linecap="round"/><path d="M76.95 179.14c-.14 0-.28-.04-.4-.11a.75.75 0 01-.35-.73c.01-.14.06-.27.15-.39l4.46-5.73 4.8-6.19c.07-.09.17-.17.27-.22.1-.05.22-.07.33-.07.12 0 .24.02.34.07.1.05.2.13.27.22l4.8 6.19 4.45 5.73c.09.12.14.25.16.39.01.15-.01.29-.07.42-.07.13-.16.23-.29.31-.12.07-.26.11-.4.11h-3.15c-.2 0-.39.08-.54.23-.14.14-.22.33-.22.54v14.81c0 .2-.08.4-.22.54a.79.79 0 01-.54.22h-9.17c-.2 0-.4-.08-.54-.22a.773.773 0 01-.22-.54v-14.81c0-.21-.08-.4-.23-.54a.725.725 0 00-.54-.23h-3.15z" fill="#FFF"/><path d="M176 96c-3.17-8.17-10-23 0-33 15.79-15.8 42.5 3 32 13.5-8.35 8.34-33-23-18-42.5s45.5-1.5 39.5 7-20-15.01-11-24.01c9-9 20-8.99 27-7.99m-123 86.5c0-16.5-8-35.89-28.86-38.32-22.18-2.59-35.54 27.58-20.79 29.3 11.72 1.37 12.14-44.84-11.73-50.83-23.86-5.99-37.13 33.38-27.15 36.33 9.98 2.94 1-26.84-11.64-28.31C9.69 42.2 6.43 51.68 1.56 56.81" stroke="#232323" stroke-width="1.5"/><path d="M130 160s4.5-7 15-7 15 7 15 7" stroke="#FFF" stroke-width="2"/></g><rect rx="-.5" width="279" height="213" transform="translate(.5 .5)"/></svg>