<svg width="560" height="400" fill="none" xmlns="http://www.w3.org/2000/svg"><defs><clipPath id="c"><path transform="matrix(-1 0 0 1 532.689 17.093)" fill="#fff" fill-opacity="0" d="M0 0h495.036v365.762H0z"/></clipPath><clipPath id="q"><path transform="translate(31 115)" fill="#fff" fill-opacity="0" d="M0 0h70v72H0z"/></clipPath><clipPath id="p"><path transform="matrix(-1 0 0 1 130.636 83.035)" fill="#fff" fill-opacity="0" d="M0 0h127.139v177.188H0z"/></clipPath><clipPath id="r"><path transform="matrix(-1 0 0 1 84.382 73.784)" fill="#fff" fill-opacity="0" d="M0 0h43.408v18.976H0z"/></clipPath><clipPath id="b"><path transform="matrix(-1 0 0 1 564 -97)" fill="#fff" fill-opacity="0" d="M0 0h593v593H0z"/></clipPath><clipPath id="a"><path fill="#fff" fill-opacity="0" d="M0 0h560v400H0z"/></clipPath></defs><path d="M0 0h560v400H0z"/><g clip-path="url(#a)"><path d="M564-97H-29v593h593z"/><g clip-path="url(#b)"><path d="M532.689 17.093H37.653v365.762h495.036z"/><g clip-path="url(#c)"><path d="M121.15 319.94c-7.62-3.07-9.35-65.05 13.74-94.33 8.9-11.29 19.98-23.45 33.04-36.61 46.68-45.69 78.96-53.97 96.16-47.42.91.35 1.82.4 2.64.83 14.74 7.64-5.6 78.9-22.92 113.63-22.15 45.29-67.38 79.94-122.66 63.9z" fill="#FFF"/><path d="M148.37 324.61c4.1 0 8.19-.28 12.25-.84 12.02-1.65 23.67-5.75 34.63-12.19 20.05-11.76 37.52-31.38 49.18-55.24 8.96-17.96 18.2-44.31 23.54-67.11 3.65-15.64 8.4-42.6-.92-47.43-.54-.29-1.1-.42-1.64-.55-.37-.09-.73-.18-1.07-.31-6.81-2.59-18.84-3.98-37.55 4.13-17.82 7.73-37.79 22.35-59.34 43.44-13.71 13.81-24.53 25.8-33.1 36.67-6.04 7.66-13.98 22.14-17.5 47.69-2.16 15.66-1.96 32.36.49 41.57.93 3.5 2.13 5.56 3.55 6.13.03.01.05.02.07.03 9.2 2.67 18.38 4.01 27.41 4.01zM252.45 140.3c4.82 0 8.58.85 11.39 1.93.43.16.85.26 1.25.36.48.11.93.22 1.33.43 6.2 3.22 6.27 19.94.2 45.89-5.23 22.37-14.64 49.22-23.42 66.82-11.56 23.62-28.83 43.03-48.64 54.66-10.81 6.35-22.29 10.39-34.13 12.02-12.73 1.75-25.86.69-39.05-3.13-.47-.2-1.62-1.12-2.7-5.2-2.01-7.53-2.93-23.13-.46-41.03 2.71-19.68 8.83-36.38 17.21-47.01 8.54-10.83 19.33-22.78 33-36.55 21.42-20.97 41.24-35.49 58.91-43.16 10.43-4.52 18.71-6.03 25.11-6.03z" fill="#232323"/><path d="M144.19 213.87c.74-.85 21.85-37.57 47.73-56.12 38.43-27.56 58.89-23.4 71.97-17.59l12.96-.04s7.61 1.46 12.34.15c15.79-4.36 29.53 1.09 34.75 3.51.41-.22 2.75-5.93 2.75-5.93l34.42-.93.02.02c12.29-6.99 30.72-8.99 49.68-1.84 37.33 14.07 83.69 50.53 110.01 92.27 5.57 8.83 9.32 19.88 10.63 29.61.6 4.45.71 8.81.31 13.05v.01s0 .01-.01.02l-115.32-23.28c.28-.06.56-.11.84-.17 0 0-1.21-.1-3.31-.38.3 54.6-2.8 119.62-1.63 123.89-109.98 27.2-211.36-.18-211.36-.18.08-11.05 1.44-37.98 3.76-65.12-1.2 1.05-2.4 2-3.61 2.83-21.27 14.59-47.34 21.19-76.28 13.9-1.25-.29 5.78-128.92 19.35-107.68z" fill="#FFF"/><path d="M309.08 382.85c8.02 0 15.98-.2 23.86-.59 27.66-1.4 54.42-5.25 79.55-11.47.09-.02.17-.06.25-.11a.91.91 0 00.18-.21c.05-.07.08-.16.09-.25.01-.09.01-.19-.02-.28-.52-1.89-.11-17.9.4-38.16.59-23.59 1.4-55.81 1.27-84.77.45.06.85.11 1.19.15.05.08.11.14.19.19.08.06.16.09.25.11l115.33 23.28c.09.02.19.01.29-.01.1-.02.19-.06.27-.12.07-.06.14-.14.18-.23.05-.09.08-.18.08-.28.41-4.25.3-8.7-.3-13.22-1.38-10.23-5.4-21.4-10.74-29.88-12.59-19.96-30.23-39.56-51.02-56.68-19.52-16.06-40.59-28.8-59.33-35.87-9.03-3.4-18.58-4.93-27.62-4.42-8.3.47-16.06 2.61-22.45 6.2l-34.31.93c-.13 0-.26.05-.37.12a.75.75 0 00-.25.31c-.86 2.09-1.87 4.4-2.35 5.32-6.88-3.09-20.07-7.34-34.69-3.3-4.52 1.25-11.95-.16-12.03-.17-.04-.01-.09-.01-.13-.01l-12.81.04c-13.8-6.1-34.52-9.53-72.53 17.72-10.57 7.58-27.31 23.25-46.96 54.84-.14.22-.27.42-.38.61-1.21-1.53-2.46-2.11-3.75-1.71-3.65 1.15-6.03 10.55-7.5 17.53-1.83 8.69-3.54 20.47-5.07 35-2.7 25.56-4.03 51.95-3.82 57.23.03.78.05 1.39.65 1.53 26.99 6.8 53.57 1.96 76.83-14 .82-.57 1.62-1.16 2.39-1.79-2.17 25.79-3.54 52.37-3.62 63.5 0 .16.05.31.15.43.09.12.22.21.36.24.26.07 25.86 6.9 64.56 10.32 14.63 1.28 29.26 1.93 43.73 1.93zm102.46-13.24c-24.85 6.1-51.31 9.89-78.65 11.27-22.05 1.11-44.72.66-67.38-1.34-35.59-3.13-60.04-9.16-63.84-10.13.12-11.66 1.54-38.65 3.75-64.52a.695.695 0 00-.09-.4.607.607 0 00-.29-.28.754.754 0 00-.39-.07c-.14.02-.27.08-.37.17a39.371 39.371 0 01-3.55 2.77c-22.81 15.65-48.84 20.45-75.31 13.9-.27-3.37.9-28.58 3.45-53.94 3.31-32.99 7.62-52.94 11.82-54.74.88-.37 1.86.28 2.92 1.94.06.09.14.17.23.22.09.06.19.09.3.1.11 0 .22-.01.31-.05a.7.7 0 00.26-.19c.11-.13.3-.43 1.01-1.56 19.53-31.4 36.12-46.94 46.6-54.45 37.56-26.93 57.83-23.51 71.29-17.52.09.04.18.06.28.06l12.9-.04c.81.15 7.94 1.41 12.59.13 14.59-4.03 27.73.44 34.27 3.46.1.05.21.07.31.07.11-.01.22-.03.31-.09.23-.12.61-.32 2.89-5.85l33.87-.92c.15.03.31 0 .44-.07 6.25-3.55 13.87-5.67 22.04-6.13 8.85-.5 18.21 1 27.06 4.33 18.6 7.01 39.53 19.67 58.94 35.65 20.67 17.02 38.22 36.51 50.72 56.35 5.24 8.32 9.18 19.28 10.54 29.33.56 4.15.68 8.24.36 12.16l-113.22-22.85a.682.682 0 00-.22-.31.7.7 0 00-.36-.14c-.02 0-1.22-.11-3.28-.38a.581.581 0 00-.29.02c-.09.03-.18.08-.25.14a.69.69 0 00-.24.52c.16 29.14-.66 61.72-1.26 85.51-.56 22.02-.84 34.44-.47 37.87zM349.08 61.94c-3.67 3.52-10.28 10.91-12.13 18.91-.15.64-.27 1.29-.36 1.95-8.01.32-27.37 11.76-27.37 11.76s-.16-.35-.47-.99c-.9-1.88-3.03-6.26-5.81-11.63-.94-1.81-1.96-3.74-3.03-5.73-.79-1.46-1.61-2.96-2.45-4.46-3.15-5.63-6.58-11.34-9.8-15.86-2.3-3.21-4.48-5.83-6.4-7.39-.02-.02-.04-.03-.06-.05a.274.274 0 01-.05-.04s-6.58-8.22-5.78-16.9c.56-5.99 8.31-16.45 19.53-14.08 3.92.83 5.69 3.45 8.32 6.52 10.81-13.2 29.76-2.43 27.82 10.18 18.16-4.95 28.86 17.47 18.04 27.81z" fill="#232323"/><path d="M256.76 100.76c6.43 13.32 23.94 15.05 25.74 15.2h.03c-.92 4.69-1.93 9.36-3.05 14.01-.59 2.47-3.19 9.85-3.34 10.15-.21 2 .06 6.78 4.08 10.75 2.89 2.86 7.39 4.34 11.46 4.19 30.39-1.14 34.17-15.67 34.45-16.56.01-.03.03-.07.04-.11-.04-.55-1.21-18.87-1.51-27.32-.01-.52-.03-1.04-.05-1.56l-.01-.26c30.74 3.68 32.48-29.85 12.3-28.19-4.15.34-9.23 2.17-15.17 6.12-10.72 6.07-4.55-11.51-15.13-25.28a29.184 29.184 0 00-4.38-4.56c-4.06-3.42-9.66-6.32-17.47-8.14-1.21-.28-2.42-.52-3.64-.74-.2.58-.4 1.16-.61 1.74-.17.46-.34.93-.51 1.39-.06.19-.14.37-.2.55l-.57 1.5c-.16.43-.33.87-.51 1.3-.05.14-.1.27-.15.41-1.66 4.18-3.5 8.29-5.51 12.32-6.04 12.11-17.45 13.64-18.46 23.1-.49 4.48 1.22 8.01 2.17 9.99z" fill="#FFF"/><path d="M291.09 155.76c.2 0 .41-.01.61-.01 12.64-.47 22.29-3.27 28.66-8.31 4.35-3.44 5.89-6.91 6.41-8.68l.02-.04c.01-.05.03-.09.04-.14.02-.08.03-.16.02-.24-.05-.71-1.21-19-1.5-27.29l-.03-1.03c10.34 1.04 18.69-2.11 22.97-8.7 3.16-4.87 3.49-10.9.83-15.35-2.4-4-6.87-6.04-12.28-5.6-4.61.38-9.82 2.47-15.47 6.22-1.86 1.05-3.2 1.37-4.08.96-1.51-.69-2.11-3.68-2.86-7.47-1.03-5.19-2.45-12.31-7.28-18.6a29.93 29.93 0 00-4.48-4.67c-4.52-3.8-10.49-6.59-17.77-8.28-1.17-.27-2.35-.51-3.53-.72l-.14-.02c-.16-.03-.33 0-.47.08-.14.08-.25.21-.3.37-.2.58-.4 1.15-.61 1.72-.17.47-.33.93-.51 1.39-.05.15-.1.28-.15.41l-.05.14c-.18.5-.37.99-.56 1.49-.17.43-.33.87-.51 1.3-.05.14-.1.27-.15.4a166.13 166.13 0 01-5.48 12.27c-2.82 5.64-6.85 8.95-10.41 11.88-4.06 3.34-7.57 6.22-8.13 11.46-.5 4.68 1.28 8.37 2.24 10.36 6.05 12.54 21.61 15.07 25.56 15.51-.87 4.43-1.83 8.85-2.89 13.24-.6 2.48-3.13 9.64-3.29 10.02-.04.07-.06.14-.07.22-.11 1.07-.42 6.66 4.28 11.31 2.78 2.74 7.08 4.4 11.36 4.4zm34.38-17.45l-.02.06c-.74 2.49-5.86 14.96-33.8 16-4.11.15-8.3-1.37-10.95-3.99-4.13-4.09-3.99-8.94-3.88-10.1.43-1.11 2.77-7.8 3.33-10.15 1.12-4.66 2.14-9.34 3.05-14.04a.66.66 0 000-.28.568.568 0 00-.12-.26.574.574 0 00-.22-.19.618.618 0 00-.27-.09h-.03c-1.92-.16-18.95-1.9-25.18-14.81-.96-1.99-2.57-5.32-2.11-9.61.5-4.68 3.65-7.27 7.64-10.55 3.66-3.01 7.82-6.43 10.76-12.32 2.02-4.05 3.86-8.18 5.53-12.38.05-.14.11-.27.16-.41.17-.44.34-.87.51-1.31.19-.5.38-1 .56-1.5l.05-.13c.06-.14.11-.28.16-.43.17-.46.34-.93.51-1.4l.42-1.17c1.04.19 2.05.4 3.02.62 7.06 1.65 12.84 4.34 17.19 7.99 1.58 1.33 3.01 2.83 4.27 4.46 4.64 6.04 6.02 12.97 7.03 18.03.86 4.34 1.48 7.47 3.64 8.46 1.33.61 3.03.28 5.35-1.03.01-.01.03-.02.04-.03 5.46-3.62 10.46-5.65 14.85-6 4.93-.41 8.83 1.34 10.97 4.93 2.4 4 2.08 9.45-.8 13.89-4.09 6.3-12.27 9.21-22.44 7.99-.1-.01-.2 0-.3.03-.09.03-.18.08-.25.15-.08.06-.13.15-.17.24-.04.09-.06.19-.06.29l.06 1.82c.29 8.03 1.38 25.4 1.5 27.22z" fill="#232323"/><path d="M307.29 70.1l.21-.69c.06-.2.1-.41.15-.62.08-.41.14-.84.15-1.25.05-.85-.01-1.7-.16-2.53-.31-1.75-1.04-3.4-2.11-4.82-.56-.76-1.23-1.42-1.96-1.99a9.173 9.173 0 00-2.49-1.37c-.86-.32-1.79-.48-2.71-.5-.91-.02-1.83.14-2.66.48-.52.23-.93.64-1.14 1.16-.21.52-.21 1.11.01 1.63.08.2.21.39.35.55l.27.31c.51.59.98 1.01 1.38 1.42.4.4.74.8 1.07 1.13.65.7 1.2 1.3 1.81 2 .61.69 1.23 1.49 1.89 2.39l1.08 1.43c.18.26.37.52.58.76.44.63 1.04 1.11 1.73 1.44.36.16.76.24 1.16.22.54-.05 1.01-.35 1.28-.82.02-.12.08-.23.11-.33zm-5.32 4.52c-1.74-1.06-6-3.46-9.49-7.04-.48-.49-1.28-.5-1.79-.03l-.01.02c-1.28 1.28-3.01 3.68-.31 5.82 3.29 2.62 9.76 3.5 11.64 2.32.31-.2.38-.6.17-.89a.506.506 0 00-.21-.2zm-24.49-12.6c1.83.91 3.29 1.23 6.92 2.02.69.15 1.14.8.99 1.49-.36 1.76-1.79 3.2-4.61 2.56-3.16-.71-4.28-3.61-4.24-5.48.01-.36.31-.65.65-.65.11 0 .19.03.29.06zm10.18-6.13c-.1.04-.21.08-.31.11-.2.04-.4.06-.61.05l-.36-.03c-.7-.05-1.24-.17-1.77-.22-.51-.09-.98-.12-1.4-.15-.86-.08-1.59-.16-2.42-.22-.68-.06-1.42-.07-2.23-.09.9-2.27 1.75-4.56 2.55-6.88l.15.04c-.02-.02-.04-.03-.06-.05-.02-.01-.04-.03-.05-.04.79.01 1.59.13 2.36.33.72.21 1.4.51 2.05.89.09.05.19.11.28.17.71.46 1.32 1.03 1.83 1.69.51.64.88 1.39 1.08 2.19.23.91-.26 1.84-1.09 2.21zm37.29 52.73c-1.96-.16-3.89-.64-5.7-1.4a.754.754 0 00-.98.39c-.15.37.03.82.4.97 2.11.9 4.35 1.43 6.63 1.57l-.35-1.53zm-44.84 19.11c.24-.99.47-1.98.7-2.98.65-2.91 1.22-5.84 1.72-8.79l-.08-.67s10.67-.34 17.64-2.4c1.58 1.86-2.68 15.53-19.98 14.84zm-5.72-42.71c.71.92 1.64 1.62 2.74 2.02 1.06.43 2.21.61 3.36.52 1.13-.13 2.21-.55 3.15-1.2.94-.68 1.69-1.59 2.14-2.65l.01-.02c.13-.35.53-.49.87-.35.29.12.45.41.41.72a6.38 6.38 0 01-2.24 3.81c-.57.5-1.22.9-1.92 1.19-2.11.91-4.53.8-6.55-.26-.67-.34-1.28-.77-1.83-1.28-.56-.51-.99-1.16-1.29-1.87a.66.66 0 01.39-.87c.28-.12.61-.01.79.23l-.03.01zm49.91 13.06c-.42-.06-.71-.42-.65-.83a.8.8 0 01.14-.36c7.72-10.53 17.74-6.31 17.84-6.28.37.17.55.6.38.98-.17.38-.59.53-.98.38-.36-.14-9.04-3.76-16.04 5.8-.08.11-.18.2-.31.25-.12.05-.25.07-.38.06z" fill="#232323"/><path d="M278.28 77.59a.678.678 0 01-.42-.23c-1.44-1.95-1.97-3.32-1.7-4.49.32-1.47 1.88-2.27 3.65-3.2 3.99-2.09 4.12-4.36 4.12-4.38 0-.33.29-.58.61-.58.33.01.58.27.58.59 0 .13-.07 2.99-4.76 5.43-1.77.91-2.85 1.54-3.06 2.4-.17.77.31 1.91 1.5 3.51.19.26.13.63-.13.82-.09.12-.25.15-.39.13z" fill="#232323"/><mask id="d" maskUnits="userSpaceOnUse" x="301.76" y="17.919" width="33.466" height="25.52"><path d="M302.3 43.43s-1.71-22.55.92-19.48c10.81-13.2 29.76-2.43 27.82 10.18 18.16-4.95-28.74 9.3-28.74 9.3z" fill="#000"/></mask><g mask="url(#d)"><path d="M306.69 34.94c.17 0 .34-.06.47-.18.12-.12.2-.28.22-.45.81-9.87-7.02-15.38-7.35-15.61a.771.771 0 00-.52-.11c-.09.02-.17.06-.25.1-.07.05-.14.12-.19.19-.05.08-.09.16-.11.25-.02.09-.02.18 0 .27.02.09.05.17.1.25.05.07.11.14.19.19.07.05 7.5 5.3 6.75 14.36-.01.09 0 .19.04.28.03.09.08.17.14.24a.6.6 0 00.23.16c.09.04.18.06.28.06z" fill="#FFF"/></g><mask id="e" maskUnits="userSpaceOnUse" x="326.131" y="130.32" width="194.814" height="150.545"><path d="M326.13 137.85l34.99-.93s19.28-13.56 49.69-1.82c37.22 14.36 83.69 50.53 110.01 92.27 5.57 8.84-177.06 53.49-177.06 53.49l-17.63-143.01z" fill="#000"/></mask><g mask="url(#e)"><path d="M428.75 245.72c.17-.01.34-.07.47-.19.12-.12.2-.28.21-.45a.669.669 0 00-.14-.48.719.719 0 00-.44-.26c-.11-.01-10.8-1.62-24.21-6.32-12.34-4.33-29.58-12.24-41.61-25.37-5.61-6.12-12.85-18.83-14.82-34.49-1.45-11.57-.3-28.03 13.39-40.72.13-.12.21-.29.22-.48a.678.678 0 00-.18-.49.655.655 0 00-.48-.22.702.702 0 00-.5.18c-14.12 13.09-15.31 30.01-13.82 41.9 1.65 13.16 7.61 26.99 15.18 35.25 12.22 13.35 29.69 21.37 42.2 25.75 13.52 4.74 24.32 6.36 24.43 6.38.03 0 .07.01.1.01z" fill="#232323"/></g><path d="M339.23 370.99l106.25-36.85c.17-.06.33-.15.46-.27.14-.12.25-.26.33-.43.07-.16.12-.34.13-.52.01-.18-.01-.36-.07-.53l-48.69-140.27a1.33 1.33 0 00-.27-.46c-.12-.14-.27-.25-.43-.33a1.59 1.59 0 00-.52-.13c-.19-.01-.37.01-.54.07l-106.25 36.85c-.17.06-.32.15-.46.27a1.33 1.33 0 00-.46.95c-.01.18.01.36.07.53l48.69 140.27c.12.35.37.63.7.79.33.16.71.18 1.06.06z" fill="#00676C"/><path d="M330.77 230.94l35.02-12.14a1.382 1.382 0 00.79-.71c.08-.16.13-.34.14-.52.01-.18-.02-.36-.08-.53l-8.91-25.67a1.33 1.33 0 00-.27-.46 1.33 1.33 0 00-.95-.46c-.18-.01-.36.01-.53.07l-35.02 12.15c-.17.05-.33.15-.47.27-.13.12-.24.26-.32.43-.08.16-.13.34-.14.52-.01.18.02.36.07.53l8.92 25.67c.06.17.15.33.27.46a1.375 1.375 0 00.95.47c.18.01.36-.02.53-.08z" fill="#232323"/><path d="M299.55 271.41s-7.69-7.84-2.28-15.51c5.18 4.98 20.34 6.08 21.17 3.02.67-2.49-3.36-11.48-4.54-15.76-1.89-6.89-1.54-12.54 8.57-4.81 33.33 30.2 82.23 11.46 95.84 8.86 8.68-1.65 15.22-2.85 16.7-3.01 34.79-3.75 94.3 23.63 94.3 23.63-.3 1.51-2.3 34.36-35.87 51.22-29.5 14.82-102.5 5.47-130.91 1.09-4.92-.76-23.15-4.19-28.35-5.38-17.08-3.92-25.29-9.94-24.78-18 0 0-8.46-5.85-6.09-12.47 0 0-6.4-6.41-3.76-12.88z" fill="#FFF"/><path d="M441.86 327.77c20.58 0 39.83-2.05 51.89-8.11 28.8-14.46 34.89-40.59 36.17-51.16.03-.24.05-.47.07-.53a.82.82 0 00-.02-.35.691.691 0 00-.2-.3c-.16-.15-15.15-7-34.35-13.37-17.6-5.83-42.39-12.38-60.49-10.44-1.35.15-6.83 1.14-16.75 3.03-1.85.35-4.38 1.01-7.32 1.77-19.26 5.01-59.35 15.42-87.92-10.47a.176.176 0 00-.05-.04c-4.57-3.5-7.51-4.58-9.23-3.42-1.64 1.1-1.78 4.03-.42 8.96.39 1.43 1.09 3.35 1.83 5.39 1.31 3.61 3.1 8.55 2.7 10.01-.06.22-.45.55-1.38.81-4.19 1.16-14.64-.3-18.64-4.15a.681.681 0 00-.26-.15.57.57 0 00-.29-.04.72.72 0 00-.5.29c-2.35 3.34-2.68 7.25-.96 11.3 1 2.33 2.4 4.06 3.01 4.76-.97 2.74-.6 5.86 1.08 9.04a19.62 19.62 0 002.7 3.87c-.85 2.83-.02 5.92 2.4 8.97 1.46 1.84 3.09 3.15 3.76 3.66-.12 4.11 1.92 7.73 6.1 10.77 4.18 3.05 10.66 5.59 19.23 7.56 5.14 1.18 23.51 4.64 28.4 5.39 17.52 2.7 49.84 6.95 79.44 6.95zm86.7-59.52l-.01.09c-1.25 10.34-7.21 35.93-35.42 50.09-11.85 5.95-30.85 7.98-51.19 7.98-29.49 0-61.81-4.26-79.31-6.95-4.87-.75-23.18-4.2-28.3-5.37-16.57-3.81-24.73-9.62-24.24-17.28a.71.71 0 00-.07-.35.582.582 0 00-.23-.26c-.08-.06-8-5.63-5.83-11.68.05-.12.06-.25.03-.38a.767.767 0 00-.19-.34c-.06-.06-6.05-6.17-3.62-12.13.06-.13.07-.27.04-.4a.694.694 0 00-.18-.35c-.02-.02-1.87-1.92-3.04-4.7-1.43-3.36-1.29-6.48.41-9.28 4.72 3.8 14.97 5.15 19.35 3.94 1.34-.37 2.13-.97 2.35-1.78.47-1.75-.84-5.6-2.75-10.84-.72-2.01-1.41-3.91-1.79-5.29-1.58-5.74-.63-7.12-.14-7.45.63-.43 2.47-.56 7.6 3.36 14.62 13.23 32.11 17.17 48.38 17.17 16.15 0 31.09-3.88 40.8-6.4 2.91-.76 5.42-1.41 7.23-1.76 9.75-1.86 15.34-2.87 16.64-3.01 32.79-3.52 87.88 20.84 93.48 23.37z" fill="#232323"/><mask id="f" maskUnits="userSpaceOnUse" x="295.345" y="237.91" width="69.889" height="81.14"><path d="M299.55 271.41c-2.65 6.47 3.76 12.88 3.76 12.88-2.37 6.62 6.09 12.47 6.09 12.47-.75 11.89 17.46 21.65 55.14 22.28 1.47.03.47-61.08-1.84-61.36-11.82-1.4-25.9-7.1-37.73-16.14-10.12-7.73-11.59-1.75-9.7 5.14 1.18 4.28 3.84 9.75 3.17 12.24-.83 3.06-15.99 1.96-21.17-3.02-5.41 7.67 2.28 15.51 2.28 15.51z" fill="#000"/></mask><g mask="url(#f)"><path d="M309.41 275.47c2.17 0 3.54-.5 3.66-.55.09-.03.17-.08.23-.14.07-.06.12-.13.16-.22.04-.08.06-.17.06-.26a.635.635 0 00-.19-.5.574.574 0 00-.22-.15.583.583 0 00-.26-.06c-.09 0-.18.01-.27.05-.01 0-1.48.54-3.78.43-2.13-.1-5.43-.79-9.09-3.49a.717.717 0 00-.51-.13c-.19.03-.35.13-.46.28a.7.7 0 00-.12.51c.02.18.12.34.27.45 4.15 3.06 7.91 3.78 10.52 3.78zm3 12.41c1.47 0 2.81-.27 3.97-.82a.69.69 0 00.35-.4c.06-.17.05-.36-.02-.52a.707.707 0 00-.4-.36.67.67 0 00-.52.03c-2.99 1.43-7.52.64-12.12-2.11a.581.581 0 00-.25-.09.796.796 0 00-.27.01.697.697 0 00-.51.84c.03.09.07.17.12.24.05.08.12.14.2.18 3.3 1.98 6.6 3 9.45 3zm4.8 11.47c1.29 0 2.38-.18 3.1-.55.16-.08.29-.22.34-.39.06-.18.05-.37-.03-.53a.742.742 0 00-.4-.34.67.67 0 00-.52.03c-1.58.79-6.62.5-10.63-1.72a.667.667 0 00-.52-.06c-.17.05-.32.17-.41.33-.08.16-.1.35-.06.52.05.18.17.32.33.41 2.79 1.55 6.19 2.3 8.8 2.3z" fill="#232323"/></g><path d="M362.51 320.15c29.79 5.31 98.29 13.59 128.11 1.86 41.36-16.26 40.8-53.98 40.66-58.29.08.02-55.7-23.21-90.54-26.52-3.15-.3-16.96 3.64-25.63 5.29-6.52 1.25-47.89 12.68-47.89 12.68s4.05 16.48 3.29 30.58c-.96 17.65-8.01 34.39-8 34.4z" fill="#FFF"/><mask id="g" maskUnits="userSpaceOnUse" x="362.529" y="218.12" width="136.22" height="108.269"><path d="M367.24 255.17c21.82-5.74 39.84-11.15 47.88-12.68l-2.03-5.86s78.66-41.29 85.49-.55c4.52 26.91-87.68 90.3-87.68 90.3s-12.57-1.18-16.93-1.7c-7.91-.93-31.44-4.54-31.44-4.54s-.09.28.71-1.82c3.26-8.57 7.01-32.88 6.95-41.76-.04-6.2-2.95-21.39-2.95-21.39z" fill="#000"/></mask><g mask="url(#g)"><path d="M414.87 242.45c.06 0 .11 0 .17-.02 15.45-3.97 31.19-7.15 53.96-2.55.17.03.36-.01.51-.11.15-.1.25-.26.29-.43.03-.18 0-.37-.1-.52a.649.649 0 00-.43-.29c-23.05-4.66-38.97-1.44-54.57 2.56-.17.05-.31.15-.4.28a.683.683 0 00.11.91c.13.11.29.17.46.17z" fill="#232323"/></g><mask id="h" maskUnits="userSpaceOnUse" x="362.529" y="218.12" width="136.22" height="108.269"><path d="M367.24 255.17c21.82-5.74 39.84-11.15 47.88-12.68l-2.03-5.86s78.66-41.29 85.49-.55c4.52 26.91-87.68 90.3-87.68 90.3s-12.57-1.18-16.93-1.7c-7.91-.93-31.44-4.54-31.44-4.54s-.09.28.71-1.82c3.26-8.57 7.01-32.88 6.95-41.76-.04-6.2-2.95-21.39-2.95-21.39z" fill="#000"/></mask><g mask="url(#h)"><path d="M379.01 310.37a3.72 3.72 0 107.44 0c0-2.06-1.66-3.72-3.72-3.72a3.72 3.72 0 00-3.72 3.72z" fill="#232323" fill-rule="evenodd"/></g><mask id="i" maskUnits="userSpaceOnUse" x="362.529" y="218.12" width="136.22" height="108.269"><path d="M367.24 255.17c21.82-5.74 39.84-11.15 47.88-12.68l-2.03-5.86s78.66-41.29 85.49-.55c4.52 26.91-87.68 90.3-87.68 90.3s-12.57-1.18-16.93-1.7c-7.91-.93-31.44-4.54-31.44-4.54s-.09.28.71-1.82c3.26-8.57 7.01-32.88 6.95-41.76-.04-6.2-2.95-21.39-2.95-21.39z" fill="#000"/></mask><g mask="url(#i)"><path d="M393.4 327.78a.69.69 0 00.64-.43c.04-.1 3.97-10.1 6.05-24.85 1.92-13.62 2.61-34.21-4.96-54.94a.688.688 0 00-.36-.39.717.717 0 00-.52-.02c-.18.06-.32.19-.39.36a.67.67 0 00-.03.52c7.47 20.46 6.79 40.78 4.89 54.23-2.05 14.6-5.92 24.48-5.96 24.58-.04.1-.06.22-.05.33.01.11.05.22.12.31.06.09.14.17.24.22.1.06.22.08.33.08z" fill="#232323"/></g><path d="M432.78 238.6c.11 0 .21-.03.31-.07.09-.05.17-.12.24-.2 6.01-7.73 21.44-11.33 21.6-11.36.17-.05.33-.15.43-.31.09-.15.13-.34.08-.52a.683.683 0 00-.82-.52c-.16.04-4.05.93-8.76 2.83-6.38 2.57-10.96 5.61-13.62 9.03-.08.1-.13.23-.14.35-.02.13.01.26.06.38.06.11.15.21.26.28.11.07.23.11.36.11z" fill="#232323"/><path d="M445.37 328.67c20.07 0 35.33-2.02 45.52-6.02 16.42-6.46 28.29-16.67 35.29-30.36 3.64-7.13 5.77-14.86 6.32-22.99.02-.29.04-.58.06-.65.06-.37-.18-.74-.55-.81a.692.692 0 00-.81.53c-.03.14-.04.35-.07.83-.55 7.94-2.63 15.5-6.18 22.46-6.84 13.38-18.47 23.38-34.57 29.71-12.79 5.03-34.85 6.9-63.77 5.4-28.94-1.49-54.71-5.68-63.13-7.16 1.91-4.87 6.93-18.95 7.73-33.82.68-12.47-2.42-26.94-3.15-30.14 5.22-1.5 41.05-11.77 46.97-13.22l1.62-.39c7.03-1.72 14.3-3.5 24.15-4.16.09-.01.18-.03.26-.07.08-.04.15-.1.21-.17.06-.06.11-.14.14-.23.02-.08.04-.18.03-.27a.84.84 0 00-.07-.26.834.834 0 00-.16-.21.698.698 0 00-.24-.13.746.746 0 00-.26-.04c-9.98.67-17.3 2.46-24.39 4.2l-1.61.39c-6.39 1.56-47.25 13.3-47.66 13.41-.17.05-.32.17-.41.32-.09.16-.11.34-.07.51.04.17 4.01 16.55 3.27 30.38-.86 15.78-6.73 31.12-7.9 34.03-.08.22-.17.44-.02.73.05.09.12.17.2.23.09.06.19.1.29.12 7.45 1.33 34.08 5.78 64.12 7.33 6.69.35 12.97.52 18.84.52z" fill="#232323"/><path d="M105.45 89.83c-9.58 23.58-6.75 35.66-.62 53.84 9.91 29.41 47.17 77.12 53.04 93.11 17.57 47.84 11.55 78.93-6.69 83.53-72.66 18.3-96.98-100.69-100.32-115.57-6.8-30.22-10.6-69.97-10.68-93.52-.09-26.5 1.2-25.81 1.2-25.81s37.21-12.19 40.57-4.37c2.76 6.41 4.03 22.89 4.03 22.89s1.52-3.85 5.11-9.06c6.5-9.46 15.32-7.39 14.36-5.04z" fill="#FFF"/><path d="M136.44 322.9c4.85 0 9.82-.64 14.91-1.92 5.47-1.38 9.96-5.14 12.99-10.87 7.95-15.04 5.83-41.85-5.82-73.57-2.44-6.66-10.21-18.66-19.2-32.55-12.49-19.3-28.04-43.33-33.84-60.54-5.92-17.58-9.06-29.56.61-53.36.28-.69.14-1.66-1.1-2.33-2.25-1.21-9.02-1.21-14.47 6.71-1.92 2.79-3.25 5.18-4.08 6.83-.48-4.93-1.71-15.57-3.85-20.53-1.57-3.64-8.87-4.02-22.33-1.15-9.18 1.95-18.1 4.81-19.02 5.11-.09.02-.17.05-.25.1-.48.28-1.58.95-1.5 26.39.08 23.25 3.78 62.89 10.69 93.67.09.38.19.83.3 1.34 1.73 7.81 6.32 28.57 15.42 50.78 11.51 28.12 25.7 47.53 42.17 57.69 8.84 5.46 18.34 8.2 28.37 8.2zM102.18 88.56c.97 0 1.72.18 2.16.41.18.1.58.35.47.6-4.62 11.37-6.55 20.39-6.25 29.23.29 8.65 2.72 16.48 5.62 25.09 5.85 17.38 21.45 41.48 33.98 60.85 8.95 13.82 16.67 25.76 19.07 32.28 5.95 16.22 9.4 31 10.25 43.92.77 11.8-.73 21.66-4.36 28.52-2.88 5.46-6.96 8.88-12.11 10.18-4.96 1.25-9.82 1.87-14.55 1.87-9.79 0-19.05-2.66-27.66-7.98-16.22-10.01-30.22-29.2-41.62-57.04-9.05-22.1-13.63-42.78-15.35-50.56-.11-.51-.21-.96-.3-1.34-6.9-30.68-10.58-70.2-10.66-93.37-.07-20.36.67-24.43.94-25.22 1.45-.47 9.98-3.17 18.75-5.03 16.43-3.5 20.06-1.29 20.76.34 2.68 6.23 3.96 22.5 3.97 22.67.02.15.08.3.19.41.1.12.25.19.4.22.15.02.31-.01.45-.09.13-.08.24-.2.29-.34.02-.04 1.54-3.85 5.04-8.92 3.67-5.35 7.89-6.7 10.52-6.7z" fill="#232323"/><path d="M75.73 132.21c.18 0 .36-.07.48-.2.13-.13.21-.31.21-.49s.12-18.29 10.02-27.08c.13-.12.21-.29.22-.47a.71.71 0 00-.17-.5.753.753 0 00-.47-.23.71.71 0 00-.5.17c-5.43 4.82-7.99 12.22-9.18 17.58-1.29 5.77-1.3 10.34-1.3 10.53a.68.68 0 00.69.69z" fill="#232323"/><path d="M82.88 80.62c-.99-5.94-10.09-8.6-11.75-.36-.1-5.19-9.16-6.6-10.78-.78-1.5-3.22-8.54-4.8-10.36 1.39-.72-2.31-7.82-3.18-8.59 2.86-.68 5.36 4.32 8.21 7.02 6.05 1.09-.95 2.11-4.17 2.16-4.44 2.64 4.13 7.06 7.8 10.65-.32 1.87 3.63 4.67 9.85 10.45 1.68 1.28 3.26 2.98 5.15 4.95 5.38 3.34.38 5.76-5.67 6.07-8.06 0 0 .45-1.78.18-3.4z" fill="#FFF"/><path d="M76.95 92.78c1.59 0 3.13-1.14 4.44-3.33 1.13-1.87 1.82-4.05 1.99-5.3.07-.29.45-2.02.18-3.64-.56-3.38-3.65-6.08-7.02-6.13-2.4-.05-4.31 1.25-5.38 3.55-.8-1.38-2.32-2.56-4.65-2.86-2.35-.3-5.02.54-6.32 2.96-1.26-1.37-3.38-2.21-5.46-2.06-2.21.17-3.97 1.42-4.95 3.5-.91-.73-2.37-1.15-3.9-1.01-2.85.24-4.78 2.18-5.16 5.18-.45 3.53 1.32 5.87 3.13 6.89 1.72.96 3.64.88 5-.21.01-.01.02-.01.03-.02.8-.7 1.49-2.26 1.92-3.42 1.46 1.97 3.48 3.83 5.77 3.66 1.77-.14 3.34-1.47 4.68-3.98 1.14 2.18 2.67 4.67 5 4.84 1.67.12 3.4-.97 5.27-3.33 1.34 2.85 3.06 4.46 5.03 4.69.13.02.27.02.4.02zm-.51-17.03h.08c2.39.04 5.17 1.92 5.68 4.99.25 1.45-.16 3.09-.16 3.11-.01.03-.02.05-.02.08-.31 2.36-2.53 7.47-5.09 7.47-.07 0-.14 0-.22-.01-1.67-.19-3.19-1.9-4.39-4.94a.58.58 0 00-.22-.29.606.606 0 00-.34-.14c-.12-.02-.25 0-.36.05-.11.05-.21.13-.28.23-1.82 2.57-3.42 3.83-4.77 3.73-1.86-.14-3.27-2.91-4.3-4.93l-.21-.4a.697.697 0 00-.26-.28.678.678 0 00-.37-.09c-.13 0-.26.04-.36.11-.11.08-.2.18-.25.3-1.25 2.82-2.64 4.31-4.13 4.42-1.59.12-3.53-1.41-5.31-4.19a.8.8 0 00-.31-.27.725.725 0 00-.41-.04c-.14.03-.26.1-.36.2-.1.1-.16.23-.18.37-.1.45-1.06 3.26-1.92 4.02-.92.73-2.24.76-3.46.07-1.41-.79-2.79-2.65-2.43-5.5.42-3.33 2.88-3.9 3.91-3.99 1.64-.14 3.11.54 3.33 1.25a.7.7 0 00.66.48c.15 0 .3-.05.41-.14.12-.09.21-.21.25-.35.89-3.03 3-3.63 4.18-3.72 2.01-.15 4.2.94 4.89 2.43.06.12.16.23.28.3.13.07.27.1.41.09.14-.01.27-.06.38-.15.11-.09.19-.22.23-.35.77-2.78 3.34-3.48 5.31-3.23 1.95.25 4.07 1.55 4.11 3.84 0 .17.07.33.18.45.12.13.28.2.45.22a.673.673 0 00.73-.55c.6-2.96 2.29-4.65 4.64-4.65z" fill="#232323"/><mask id="j" maskUnits="userSpaceOnUse" x="41.297" y="73.946" width="41.662" height="22.941"><path d="M82.87 83.13c1.11-9.45-8.89-13.52-11.74-2.87-.1-5.19-9.16-6.6-10.78-.78-1.5-3.22-8.44-4.69-10.53 1.42-.72-2.32-7.69-3.5-8.46 2.54-.68 5.36 4.03 8.65 7.09 6.69 9.8 8.45 22.35 7.96 29.05 4 4.7-2.77 5.28-7.5 5.37-11z" fill="#000"/></mask><g mask="url(#j)" fill="#232323"><path d="M46.35 90.66c.36 0 .71-.07 1.05-.19 3.69-1.31 3.88-9.32 3.87-9.4a.662.662 0 00-.25-.45.663.663 0 00-.5-.15c-.18.01-.35.1-.47.24a.75.75 0 00-.16.5c.04 1.04-.62 7.22-3.01 7.98-1.03.33-3.44-.16-7.96-7.12a.649.649 0 00-.44-.3.817.817 0 00-.27-.01c-.09.02-.17.05-.25.1-.07.05-.14.12-.19.19-.05.07-.09.16-.11.25-.02.09-.02.18 0 .27.02.09.05.17.1.25 3.41 5.25 6.24 7.83 8.59 7.84z"/><path d="M55.66 91.07c2.41 0 4.58-2.31 5.37-4.73 1.25-3.82.63-9.33.61-9.57a.581.581 0 00-.09-.25.684.684 0 00-.17-.21.545.545 0 00-.24-.12.5.5 0 00-.27-.02c-.09.01-.18.03-.26.08-.07.04-.14.1-.2.17s-.1.16-.12.24a.5.5 0 00-.02.27c0 .06.6 5.45-.55 8.98-.75 2.31-2.72 3.99-4.39 3.75-2.41-.34-3.95-4.48-4.13-11.07a.698.698 0 00-.71-.67.65.65 0 00-.48.21.67.67 0 00-.19.5c.28 10.16 3.45 12.13 5.31 12.4.18.03.36.04.53.04z"/><path d="M66.64 91.87c1.45 0 2.9-1 4.01-2.8 2.49-4.06 1.92-11.98 1.89-12.32a.676.676 0 00-.24-.47.634.634 0 00-.5-.16c-.18.01-.35.1-.47.23-.12.14-.18.32-.16.51 0 .07.56 7.81-1.7 11.49-.99 1.62-2.2 2.38-3.31 2.07-2.11-.57-4.43-4.96-4.63-15.57 0-.18-.08-.35-.21-.48-.12-.13-.3-.2-.48-.2h-.01c-.18.01-.36.08-.49.21-.12.14-.19.31-.19.5.18 9.79 2.24 15.95 5.64 16.87.28.08.56.12.85.12z"/><path d="M76.86 93.06h.16c1.96-.06 3.64-1.69 5.01-4.83.96-2.21 1.41-4.37 1.43-4.46a.68.68 0 00-.1-.52.72.72 0 00-.44-.3.71.71 0 00-.51.1c-.16.1-.26.26-.3.44-.46 2.25-2.29 8.1-5.13 8.19-.89.03-1.61-.25-2.21-.85-2.54-2.55-2.31-9.96-2.17-14.38.04-1.05.07-1.96.05-2.63 0-.39-.32-.7-.7-.68-.18 0-.36.08-.48.21-.13.13-.2.31-.2.49.02.64-.01 1.53-.05 2.56-.15 4.95-.39 12.43 2.58 15.4.83.84 1.86 1.26 3.06 1.26z"/></g><path d="M72.08 99.96h.02c.09 0 .18-.03.26-.06a.691.691 0 00.36-.39c.03-.08.05-.17.05-.26l-.4-12.57c0-.09-.02-.18-.06-.26a.596.596 0 00-.16-.22.594.594 0 00-.23-.14.575.575 0 00-.26-.05c-.09.01-.18.03-.26.06-.09.04-.16.09-.22.16s-.11.14-.14.23c-.04.08-.05.17-.05.26l.4 12.57c0 .18.08.35.21.47.13.13.3.2.48.2zm-11.15.16a.68.68 0 00.69-.68l.3-14.41c0-.18-.07-.35-.2-.48s-.3-.2-.48-.21c-.18 0-.35.07-.48.19s-.21.29-.22.47l-.29 14.41c-.01.18.06.36.19.49.12.14.3.21.48.22h.01zM49.9 98.9c.18 0 .35-.07.47-.19.13-.12.21-.29.22-.46l.68-12.88a.722.722 0 00-.18-.5.735.735 0 00-.22-.16.583.583 0 00-.26-.06c-.09-.01-.18 0-.26.03a.744.744 0 00-.4.36c-.04.08-.06.17-.06.26l-.68 12.87c0 .1.01.19.04.28.03.09.08.17.15.23.06.07.14.13.23.16.08.04.18.06.27.06z" fill="#232323"/><path d="M143.49 323.79c-5.86-.35-12.51-.69-18.65-2.24-1.25-.29-3.84-1.07-3.84-1.07-49.57-15.27-67.31-102.96-70.14-115.57-3-13.34-5.83-31.93-7.78-49.87 0 0 17.83 4.19 30.6 1.94 18.35-3.23 30.57-15.05 30.57-15.05 6.78 20.12 27.07 50.75 40.64 71.98 0 0 46.84 21.79 43.02 64.57-3.37 37.79-44.42 45.31-44.42 45.31z" fill="#FFF"/><path d="M144.27 324.44c-73.89 0-90.58-106.92-93.41-119.53-3-13.34-5.83-31.93-7.78-49.87 0 0 17.83 4.19 30.6 1.94 18.35-3.23 30.57-15.05 30.57-15.05 6.78 20.12 27.07 50.75 40.64 71.98l-.62 110.53z" fill="#FFF"/><path d="M144.27 325.13a.68.68 0 00.69-.69.68.68 0 00-.69-.69c-15.83 0-30.21-5.02-42.73-14.94-10.37-8.2-19.59-19.85-27.42-34.61-13.91-26.24-19.72-55.23-21.91-66.15-.28-1.41-.51-2.52-.68-3.29-2.85-12.67-5.63-30.42-7.66-48.84 3.89.84 18.7 3.72 29.93 1.74 15.72-2.77 27.12-11.89 30.13-14.52 6.45 18.3 23.07 44.18 36.47 65.04 1.35 2.11 2.66 4.15 3.91 6.1a.707.707 0 00.44.31c.08.02.18.02.27 0 .08-.01.17-.05.25-.1a.65.65 0 00.19-.18c.05-.08.09-.16.11-.25.02-.09.02-.18 0-.27a.75.75 0 00-.09-.25l-3.92-6.1c-13.6-21.18-30.53-47.55-36.66-65.73a.699.699 0 00-.19-.29.587.587 0 00-.3-.16.653.653 0 00-.34 0c-.12.03-.22.09-.3.17-.12.12-12.3 11.71-30.21 14.87-12.48 2.2-30.15-1.89-30.33-1.93a.86.86 0 00-.32 0c-.11.03-.21.08-.29.16a.7.7 0 00-.19.26c-.04.11-.05.22-.04.33 2.05 18.8 4.89 37.01 7.79 49.94.17.76.4 1.86.68 3.26 2.2 10.97 8.04 40.1 22.04 66.52 7.92 14.93 17.27 26.73 27.78 35.05 12.77 10.12 27.44 15.24 43.59 15.24z" fill="#232323"/><path d="M292.52 179.47c-1.8 3.77-3.6 7.53-5.41 11.29-2.94.24-6.28.05-9.81-1.04-1.43-.44-2.82-1.01-4.16-1.7l-1.11-12.85c1.28-1.19 2.51-2.42 3.69-3.7 5.19-6.37 9.17-11.99 11.57-17.12.69 3.94 1.1 8.46 2.06 12.72.95 4.16 2.01 8.3 3.17 12.4zm-4.78 125.64c-9.22 7.13-18.44 14.27-27.66 21.4l-19.53-25.97c1.93-20.74 5.78-41.27 11.5-61.3 5.43-19.05 14.45-35.7 20.89-49.56 1.26.61 2.56 1.12 3.9 1.54 1.37.42 2.76.73 4.17.93 1.82.25 3.67.33 5.5.22-2.32 13.2-3.48 27.92-3.29 42.84.29 23.36 1.8 46.69 4.52 69.9z" fill="#D9C6F4"/><mask id="k" maskUnits="userSpaceOnUse" x="43.48" y="130.32" width="477.41" height="235.486"><path d="M73.68 156.98c18.35-3.23 30.57-15.05 30.57-15.05 6.72 19.95 26.72 50.22 40.29 71.44 2.97-4.39 24.52-41.63 49.96-57.45 51.27-31.88 69.39-15.76 69.39-15.76l12.96-.04 49.28-2.27 34.98-.93s19.29-13.56 49.7-1.82c37.22 14.36 83.69 50.53 110.01 92.27 5.56 8.84-319.85 138.43-319.85 138.43-.63-10.55 1.02-33.11 3.35-60.61-.99.83-2.2 1.78-3.2 2.46-21.27 14.59-76.36 13.72-76.38 13.43-1.21-.28-2.4-.61-3.59-.97-49.57-15.27-67.46-102.59-70.29-115.2-3-13.34-5.43-31.88-7.38-49.82 0 0 17.43 4.14 30.2 1.89z" fill="#000"/></mask><g mask="url(#k)"><path d="M148.95 244.54c.17 0 .33-.06.45-.17a.72.72 0 00.24-.42c2.22-14.43-4.39-30.68-4.46-30.85a.541.541 0 00-.15-.22.541.541 0 00-.22-.15.583.583 0 00-.26-.06c-.1 0-.19.02-.27.06-.08.03-.16.08-.22.15-.07.06-.12.14-.15.22-.04.08-.06.17-.06.27 0 .09.02.18.06.26.06.16 6.53 16.07 4.36 30.11-.01.1-.01.2.02.3.03.09.08.18.14.26.07.07.15.13.24.17.09.05.18.07.28.07z" fill="#232323"/></g><mask id="l" maskUnits="userSpaceOnUse" x="43.48" y="130.32" width="477.41" height="235.486"><path d="M73.68 156.98c18.35-3.23 30.57-15.05 30.57-15.05 6.72 19.95 26.72 50.22 40.29 71.44 2.97-4.39 24.52-41.63 49.96-57.45 51.27-31.88 69.39-15.76 69.39-15.76l12.96-.04 49.28-2.27 34.98-.93s19.29-13.56 49.7-1.82c37.22 14.36 83.69 50.53 110.01 92.27 5.56 8.84-319.85 138.43-319.85 138.43-.63-10.55 1.02-33.11 3.35-60.61-.99.83-2.2 1.78-3.2 2.46-21.27 14.59-76.36 13.72-76.38 13.43-1.21-.28-2.4-.61-3.59-.97-49.57-15.27-67.46-102.59-70.29-115.2-3-13.34-5.43-31.88-7.38-49.82 0 0 17.43 4.14 30.2 1.89z" fill="#000"/></mask><g mask="url(#l)"><path d="M153.61 236.7c.1 0 .19-.02.28-.05.09-.04.17-.1.23-.17.07-.07.12-.15.15-.24s.04-.19.03-.28c-.93-11.19-6.21-18.72-8.47-21.94-.31-.43-.55-.78-.7-1.02a.7.7 0 00-.43-.3.683.683 0 00-.82.51c-.05.18-.02.37.08.52.17.27.42.63.74 1.09 2.19 3.12 7.33 10.43 8.23 21.25.01.17.09.33.22.45.12.12.29.18.46.18z" fill="#232323"/></g><mask id="m" maskUnits="userSpaceOnUse" x="43.48" y="130.32" width="477.41" height="235.486"><path d="M73.68 156.98c18.35-3.23 30.57-15.05 30.57-15.05 6.72 19.95 26.72 50.22 40.29 71.44 2.97-4.39 24.52-41.63 49.96-57.45 51.27-31.88 69.39-15.76 69.39-15.76l12.96-.04 49.28-2.27 34.98-.93s19.29-13.56 49.7-1.82c37.22 14.36 83.69 50.53 110.01 92.27 5.56 8.84-319.85 138.43-319.85 138.43-.63-10.55 1.02-33.11 3.35-60.61-.99.83-2.2 1.78-3.2 2.46-21.27 14.59-76.36 13.72-76.38 13.43-1.21-.28-2.4-.61-3.59-.97-49.57-15.27-67.46-102.59-70.29-115.2-3-13.34-5.43-31.88-7.38-49.82 0 0 17.43 4.14 30.2 1.89z" fill="#000"/></mask><g mask="url(#m)" fill="#232323"><path d="M52.81 172.17c0 2.06 1.67 3.73 3.72 3.73 2.06 0 3.72-1.67 3.72-3.73a3.72 3.72 0 10-7.44 0z" fill-rule="evenodd"/><path d="M64.04 187.19c7.38 0 15.11-1.42 22.73-4.25 12.09-4.48 22.58-11.96 28.06-20.02.1-.15.14-.34.11-.52a.707.707 0 00-.29-.44.73.73 0 00-.52-.11c-.18.04-.34.14-.44.29-5.25 7.72-15.74 15.19-27.4 19.51-13.53 5.02-27.36 5.52-38.93 1.4a.842.842 0 00-.27-.04c-.09.01-.18.03-.26.07-.09.04-.16.09-.22.16a.79.79 0 00-.14.23c-.03.09-.04.18-.04.27.01.09.03.18.07.26.04.08.09.16.16.22s.15.1.23.13c5.34 1.9 11.13 2.84 17.15 2.84z"/></g><mask id="n" maskUnits="userSpaceOnUse" x="43.48" y="130.32" width="477.41" height="235.486"><path d="M73.68 156.98c18.35-3.23 30.57-15.05 30.57-15.05 6.72 19.95 26.72 50.22 40.29 71.44 2.97-4.39 24.52-41.63 49.96-57.45 51.27-31.88 69.39-15.76 69.39-15.76l12.96-.04 49.28-2.27 34.98-.93s19.29-13.56 49.7-1.82c37.22 14.36 83.69 50.53 110.01 92.27 5.56 8.84-319.85 138.43-319.85 138.43-.63-10.55 1.02-33.11 3.35-60.61-.99.83-2.2 1.78-3.2 2.46-21.27 14.59-76.36 13.72-76.38 13.43-1.21-.28-2.4-.61-3.59-.97-49.57-15.27-67.46-102.59-70.29-115.2-3-13.34-5.43-31.88-7.38-49.82 0 0 17.43 4.14 30.2 1.89z" fill="#000"/></mask><g mask="url(#n)" fill="#232323"><path d="M271.33 174.9c1.52 0 4.24-1.5 9.93-9.34 3.56-4.9 6.63-10.04 6.66-10.09.05-.08.08-.16.09-.25a.62.62 0 00-.02-.27.659.659 0 00-.31-.42.631.631 0 00-.25-.09.61.61 0 00-.27.01.697.697 0 00-.43.32c-.03.05-3.07 5.14-6.59 9.99-6.36 8.76-8.56 8.89-9.08 8.72-.23-.07-.42-.26-.58-.58-2.26-4.47 3.93-25.45 6.51-33.15.03-.09.04-.18.04-.27a.771.771 0 00-.07-.26.62.62 0 00-.17-.22.592.592 0 00-.23-.13.635.635 0 00-.27-.04c-.09.01-.18.03-.26.07a.76.76 0 00-.22.17c-.06.07-.1.15-.13.24-.39 1.15-9.41 28.31-6.43 34.21.33.65.79 1.08 1.39 1.27.22.08.45.11.69.11z"/><path d="M297.37 183.47h.1c6.68-.18 16.58-15.35 31.14-47.73.08-.17.09-.36.02-.53a.673.673 0 00-.36-.38.696.696 0 00-.53-.02c-.17.07-.31.2-.39.36-13.93 30.98-24 46.76-29.92 46.92-4.74.13-8.29-16.52-9.42-27.05a.652.652 0 00-.08-.26.684.684 0 00-.17-.21.677.677 0 00-.24-.12.626.626 0 00-.27-.03c-.09.01-.18.04-.26.08a.91.91 0 00-.21.18c-.05.07-.09.15-.12.24-.02.09-.03.18-.02.27.01.07.77 7.09 2.4 13.99 2.27 9.62 5 14.29 8.33 14.29z"/></g><mask id="o" maskUnits="userSpaceOnUse" x="43.48" y="130.32" width="477.41" height="235.486"><path d="M73.68 156.98c18.35-3.23 30.57-15.05 30.57-15.05 6.72 19.95 26.72 50.22 40.29 71.44 2.97-4.39 24.52-41.63 49.96-57.45 51.27-31.88 69.39-15.76 69.39-15.76l12.96-.04 49.28-2.27 34.98-.93s19.29-13.56 49.7-1.82c37.22 14.36 83.69 50.53 110.01 92.27 5.56 8.84-319.85 138.43-319.85 138.43-.63-10.55 1.02-33.11 3.35-60.61-.99.83-2.2 1.78-3.2 2.46-21.27 14.59-76.36 13.72-76.38 13.43-1.21-.28-2.4-.61-3.59-.97-49.57-15.27-67.46-102.59-70.29-115.2-3-13.34-5.43-31.88-7.38-49.82 0 0 17.43 4.14 30.2 1.89z" fill="#000"/></mask><g mask="url(#o)"><path d="M266 139.05c-50.04 42.79-61.27 165.78-61.27 165.78L266 139.05z" fill="#FFF"/><path d="M204.73 305.52c.17-.01.34-.07.47-.18.12-.12.2-.28.22-.45.03-.31 2.91-31.12 11.85-66.76 5.25-20.91 11.54-39.36 18.68-54.85 8.9-19.31 19.16-34.01 30.49-43.71.07-.06.13-.13.17-.21.04-.08.07-.17.07-.26a.659.659 0 00-.16-.5.676.676 0 00-.47-.24.701.701 0 00-.5.16c-11.49 9.83-21.87 24.7-30.86 44.2-7.18 15.56-13.49 34.1-18.76 55.1-8.97 35.73-11.86 66.64-11.88 66.94-.01.1 0 .2.03.29.03.09.08.17.14.24.07.07.15.13.23.17.09.04.19.06.28.06z" fill="#232323"/></g></g><path d="M130.636 83.035H3.497v177.188h127.139z"/><g clip-path="url(#p)"><path d="M6.9 259.53h120.25c1.56 0 2.79-1.96 2.79-3.51V86.53c0-1.55-1.26-2.81-2.81-2.81H7c-1.56 0-2.82 1.26-2.82 2.81v169.43c0 1.56 1.17 3.57 2.72 3.57z" fill="#FFF"/><path d="M6.91 260.22h120.24c1.96 0 3.48-2.26 3.48-4.2V86.53c0-1.93-1.57-3.5-3.5-3.5H7c-1.94 0-3.51 1.57-3.51 3.5v169.43c0 1.97 1.49 4.26 3.42 4.26zM127.13 84.41c1.17 0 2.12.95 2.12 2.12v169.49c0 1.24-.99 2.82-2.1 2.82H6.91c-1.08 0-2.04-1.61-2.04-2.88V86.53c0-1.17.95-2.12 2.13-2.12h120.13z" fill="#232323"/><path d="M23.15 220.49h40.72c.18 0 .35-.07.48-.2a.697.697 0 000-.98c-.13-.13-.3-.2-.48-.2H23.15c-.18 0-.36.07-.49.2-.12.13-.2.31-.2.49s.08.36.2.49c.13.13.31.2.49.2zm46.49 0h44.63c.18 0 .36-.07.49-.2a.697.697 0 000-.98.697.697 0 00-.49-.2H69.64c-.18 0-.36.07-.49.2a.697.697 0 000 .98c.13.13.31.2.49.2zm-46.49-13.11h26.47c.19 0 .36-.08.49-.21s.2-.3.2-.48a.68.68 0 00-.69-.69H23.15c-.18 0-.36.07-.49.2-.12.13-.2.3-.2.49 0 .18.08.35.2.48.13.13.31.21.49.21zm32.11 0h29.22c.18 0 .35-.08.48-.21s.21-.3.21-.48c0-.19-.08-.36-.21-.49s-.3-.2-.48-.2H55.26a.68.68 0 00-.69.69c0 .18.07.35.2.48s.3.21.49.21zm35.04 0h23.97c.18 0 .36-.08.49-.21s.2-.3.2-.48a.68.68 0 00-.69-.69H90.3c-.18 0-.35.07-.48.2s-.21.3-.21.49c0 .18.08.35.21.48s.3.21.48.21zm-27.45 30.37H36.58c-.18 0-.35-.07-.48-.2a.707.707 0 01-.21-.49c0-.18.08-.36.21-.49s.3-.2.48-.2h26.27c.18 0 .36.07.49.2a.697.697 0 010 .98c-.13.13-.31.2-.49.2zm27.46 0H68.33c-.18 0-.36-.07-.49-.2a.697.697 0 010-.98c.13-.13.31-.2.49-.2h21.98c.18 0 .35.07.48.2s.21.31.21.49-.08.36-.21.49-.3.2-.48.2zm-59.2 0h-7.43c-.18 0-.35-.07-.48-.2a.697.697 0 010-.98c.13-.13.3-.2.48-.2h7.43c.18 0 .35.07.48.2s.21.31.21.49-.08.36-.21.49-.3.2-.48.2z" fill="#232323"/><path d="M31 115h70v72H31z"/><g clip-path="url(#q)"><path d="M30.49 187H101v-72.36H30.49V187z" fill="#D9C6F4"/><path d="M31 169h70v-11H31v11z" fill="#FFF"/><path d="M95.89 122.17c0 .61-.49 1.11-1.09 1.11-.61 0-1.1-.5-1.1-1.11a1.095 1.095 0 112.19 0zm-6.44 0c0 .61-.49 1.11-1.1 1.11-.6 0-1.09-.5-1.09-1.11a1.095 1.095 0 112.19 0zm-6.46.18a1.095 1.095 0 11-2.19 0c0-.61.49-1.11 1.1-1.11.6 0 1.09.5 1.09 1.11z" fill="#232323" fill-rule="evenodd"/><path d="M44.95 126.08c-.14 0-.27.12-.27.28v5.5c0 .15-.12.28-.28.28h-3.38c-.16 0-.29-.12-.29-.28v-5.52c0-.14-.13-.27-.29-.27h-1.17c-.06 0-.13-.02-.17-.06a.273.273 0 01-.04-.39l1.64-2.12 1.77-2.31.05-.05c.11-.1.28-.07.39.05l1.77 2.31 1.64 2.13c.04.04.06.12.06.18 0 .14-.12.27-.28.27h-1.15z" fill="#232323"/></g><rect rx="25.25" width="50.5" height="50.5" transform="matrix(-1 0 0 1 120.75 94.75)" fill="#FFF"/><circle cx="94" cy="120" r="14" stroke="#FAAAAA" stroke-width="5"/><path d="M81.5 126.85L107.01 113" stroke="#FAAAAA" stroke-width="5"/><rect rx="25.25" width="50.5" height="50.5" transform="matrix(-1 0 0 1 120.75 94.75)" stroke="#232323" stroke-width="1.5"/></g><path d="M84.382 73.784H40.974V92.76h43.408z"/><g clip-path="url(#r)"><path d="M83.54 80.5c-.6-6.73-10.71-8.74-11.85-.36-.1-5.23-9.23-6.65-10.86-.78-1.56-4.46-8.98-5.22-10.81 1.02-.72-2.33-7.52-2.83-8.29 3.25-.52 4.08 2.23 6.81 4.78 6.82 3.33.03 4.41-2.93 4.44-4.41 1.37 5.02 8.55 7.92 10.52-.35.49 4.62 7.48 8.6 10.78.94 1.29 3.28 3 5.18 4.99 5.41 3.37.39 6.05-4.31 6.37-6.71 0 0 .2-3.2-.07-4.83z" fill="#FFF"/><path d="M77.63 92.75c1.57 0 3.14-.9 4.48-2.59 1.12-1.41 2-3.31 2.19-4.74v-.05c.01-.13.2-3.26-.07-4.95-.38-4.12-3.84-6.42-6.9-6.49-2.12-.05-4.51.95-5.69 3.72-.82-1.33-2.34-2.45-4.61-2.74-2.31-.29-4.94.51-6.28 2.82-1.16-1.61-3.16-2.62-5.3-2.56-2.51.06-4.54 1.46-5.64 3.8-.82-.65-2.09-1-3.48-.88-2.25.2-4.82 1.73-5.29 5.45-.28 2.19.28 4.22 1.59 5.7 1.05 1.2 2.46 1.9 3.88 1.91h.04c2.09 0 3.32-1.05 3.98-1.93.24-.32.44-.66.6-1.03 1.26 2.04 3.42 3.44 5.55 3.4 2.54-.04 3.98-1.92 4.76-3.65.95 1.88 2.8 3.33 4.83 3.64 3.01.45 4.9-1.63 5.93-3.34 1.33 2.72 3.03 4.26 4.96 4.49.16.02.31.02.47.02zm5.29-7.49c-.29 2.04-2.68 6.43-5.6 6.09-1.69-.2-3.22-1.92-4.43-4.98a.59.59 0 00-.25-.31.646.646 0 00-.38-.13c-.14 0-.28.04-.39.11-.12.08-.21.19-.26.31-1.21 2.8-3.03 4.17-5.13 3.85-2.15-.32-4.09-2.38-4.32-4.58a.73.73 0 00-.21-.43.698.698 0 00-.9-.05c-.13.09-.22.23-.26.39-.71 2.98-2.18 4.64-4.13 4.67-2.12.03-4.38-1.91-5.04-4.34a.652.652 0 00-.28-.39.63.63 0 00-.48-.11c-.16.02-.32.1-.43.22-.11.12-.17.28-.18.45-.01.97-.73 3.73-3.7 3.73h-.03c-1-.01-2.07-.54-2.85-1.43-1.03-1.19-1.48-2.82-1.25-4.61.12-.93.75-3.96 4.03-4.24 1.49-.13 2.71.47 2.9 1.11.1.29.36.48.67.49.15 0 .3-.05.42-.14.12-.09.2-.22.25-.36.72-2.46 2.51-3.97 4.79-4.02 2.11-.05 4.05 1.19 4.69 3.02.05.14.14.27.26.35.12.08.27.13.42.12.15 0 .29-.06.4-.15.12-.09.21-.22.25-.36.78-2.8 3.37-3.5 5.36-3.25 1.96.25 4.09 1.56 4.13 3.86.01.18.08.35.2.47.12.13.28.2.46.21.17.01.35-.04.48-.15.14-.11.22-.27.25-.45.43-3.14 2.26-4.97 4.92-4.91 2.46.06 5.25 1.91 5.54 5.25.01.01.01.03.01.05.25 1.45.09 4.34.07 4.64z" fill="#232323"/><mask id="s" maskUnits="userSpaceOnUse" x="41.619" y="73.784" width="41.989" height="18.279"><path d="M83.52 83.03c1.13-9.52-9.99-13.6-11.83-2.89-.1-5.23-9.23-6.65-10.86-.78-1.73-4.46-9.03-5.2-10.81 1.02-.72-2.33-7.56-3.12-8.34 2.96-.69 5.4 4.04 8.36 7.12 6.38 1.83-.42 2.15-3.68 2.15-3.68s1.57 4.69 5.11 4.64c3.72-.06 5.61-5.07 5.61-5.07s.59 4.96 5.2 5.29c3.96.28 5.38-4.27 5.38-4.27s1.96 5.55 5.51 5.43c5.5-.2 5.68-5.51 5.76-9.03z" fill="#000"/></mask><g mask="url(#s)"><path d="M72.27 89.2c.1 0 .19-.02.28-.06.09-.04.17-.09.23-.16.07-.07.12-.15.15-.24s.04-.19.04-.28l-.86-12.13a.786.786 0 00-.08-.26.652.652 0 00-.16-.21.722.722 0 00-.24-.14.626.626 0 00-.27-.03c-.09 0-.18.03-.26.07-.08.04-.15.1-.21.17a.626.626 0 00-.17.5l.86 12.13c.01.17.09.33.22.45s.3.19.47.19zm-10.66-.86c.1 0 .19-.02.28-.06.09-.04.17-.09.23-.16a.655.655 0 00.18-.53l-.82-10.95a.678.678 0 00-.24-.48.659.659 0 00-.5-.16c-.19.01-.36.1-.48.24-.12.13-.18.32-.16.5l.82 10.96c.01.17.09.33.22.45s.3.19.47.19zm-10.23.92a.654.654 0 00.53-.25.51.51 0 00.14-.26c.03-.1.03-.2.02-.3l-1.85-10.47a.734.734 0 00-.29-.44.73.73 0 00-.52-.11c-.18.03-.34.13-.44.28-.11.15-.15.33-.12.51l1.85 10.47c.02.16.11.3.23.41.13.1.29.16.45.16z" fill="#232323"/></g></g></g></g></svg>