<svg xmlns="http://www.w3.org/2000/svg" viewBox="0 0 2500 2500" width="2500" height="2500"><g transform="translate(142.0 477.0) rotate(0.0 948.5 775.5) translate(550.0 682.0) scale(0.9979021435169501 0.9977683697777183)"><svg width="403.847" height="501.118" viewBox="551.156 683.525 403.847 501.118"><path d="M970.747 1099.74c81.872-38.81 130.955-110.979 162.837-155.714 62.782-88.094 116.323-122.899 159.841-111.114 62.075 16.812-75.321 263.753-322.678 266.828z" fill="#232323"/><path d="M1696.477 834.117c-118.789 131.392-153.262 286.382-310.481 389.539-173.566 113.884-349.356 17.393-415.249-123.915l202.145-243.03c10.012 10.795 38.38 45.699 48.982 58.678a1151.07 1151.07 0 0 1 6.304 7.767c11.875 14.699 20.747 26.158 20.747 26.158s162.987-194.598 352.923-306.644c206.703-121.933 142.943-39.138 142.943-39.138 227.661-83.664 90.964 9.065 90.964 9.065 130.426-34.405 15.346 37.527 15.346 37.527 100.601-12.913-19.785 46.658-22.378 47.941 85.378-16.581-40.114 34.145-132.246 136.052z" fill="#fff"/><path d="M1228.353 1276.9c-23.754 0-47.483-3.312-70.947-9.98-80.853-22.978-151.647-85-189.377-165.911a3 3 0 0 1 .412-3.186l202.146-243.029a3.002 3.002 0 0 1 2.226-1.081 2.957 2.957 0 0 1 2.28.959c9.213 9.932 34.049 40.368 45.984 54.995l3.122 3.825c2.177 2.654 4.291 5.269 6.317 7.781a1928.112 1928.112 0 0 1 18.514 23.291c9.674-11.288 47.901-55.133 103.043-108.707 58.956-57.28 149.883-137.741 248.253-195.771 123.993-73.143 147.533-71.191 154.451-63.361 4.724 5.345 1.287 14.28-2.449 20.863 40.488-14.678 71.471-24.413 92.169-28.957 20.73-4.551 31.28-4.027 34.218 1.697 2.989 5.826-2.855 14.429-18.951 27.895a268.46 268.46 0 0 1-9.686 7.701c39.948-9.356 48.052-5.459 50.351-.148 1.823 4.216.924 11.356-22.418 29.295-5.176 3.978-10.488 7.73-14.901 10.739 19.557-1.627 28.926.413 30.745 6.43 1.399 4.627-.783 12.238-30.324 30.167-5.902 3.582-11.917 6.975-17.196 9.849 9.433-.888 12.275.498 13.441 3.187 2.466 5.695-5.824 12.017-34.963 33.066-33.073 23.892-83.055 59.997-126.109 107.62l-2.226-2.012 2.226 2.012c-46.142 51.037-79.857 106.218-112.463 159.582-52.523 85.963-102.134 167.16-198.598 230.452-51.291 33.654-105.349 50.737-159.29 50.737zm-254.078-176.709c37.198 78.517 106.142 138.611 184.771 160.957 22.895 6.506 46.071 9.739 69.264 9.74 52.806.003 105.753-16.745 156.041-49.741 95.337-62.554 144.606-143.192 196.769-228.564 32.75-53.6 66.614-109.024 113.132-160.478 43.479-48.092 93.77-84.42 127.047-108.459 14.513-10.483 29.48-21.296 32.392-25.571-2.161-.344-8.098-.229-24.393 2.936-1.48.286-2.935-.562-3.415-1.985s.166-2.982 1.512-3.649c1.777-.88 17.785-8.851 33.022-18.099 29.02-17.612 27.762-23.078 27.694-23.302-.065-.219-2.025-5.318-36.626-.877a2.998 2.998 0 0 1-1.972-5.519c.127-.08 12.885-8.075 24.871-17.29 22.34-17.174 20.621-21.938 20.537-22.132-.319-.741-4.683-6.831-58.398 7.339a3 3 0 0 1-2.45-5.383c.113-.077 11.391-7.748 21.87-16.518 19.342-16.188 17.454-20.487 17.434-20.529-.088-.17-2.427-4.102-27.593 1.424-21.872 4.802-55.502 15.52-99.956 31.857a3.002 3.002 0 0 1-3.413-4.645c4.959-6.451 10.888-17.588 7.865-21.005-3.014-3.407-22.518-8.819-146.905 64.556-97.859 57.729-188.399 137.855-247.121 194.907-63.643 61.833-104.62 110.594-105.026 111.079a2.997 2.997 0 0 1-4.671-.09c-.089-.114-8.992-11.606-20.709-26.11a1190.152 1190.152 0 0 0-6.29-7.749l-3.128-3.832c-11.005-13.485-33.011-40.453-43.438-52.173z" fill="#232323"/><path d="M1256.986 940.411c-30.799 37.071-49.41 72.253-49.41 72.253" fill="#fff"/><path d="M1207.573 1015.665a3 3 0 0 1-2.648-4.404c.188-.355 19.109-35.884 49.754-72.768a3 3 0 0 1 4.616 3.835c-30.251 36.411-48.881 71.39-49.066 71.739a3.003 3.003 0 0 1-2.656 1.598zM1652.1 730.348a2.999 2.999 0 0 1-2.296-4.93c19.643-23.396 34.908-44.957 51.07-67.785 13.666-19.301 27.797-39.26 45.551-61.694a3 3 0 0 1 4.705 3.723c-17.655 22.309-31.738 42.201-45.358 61.438-16.235 22.931-31.57 44.591-51.372 68.176a2.993 2.993 0 0 1-2.3 1.072zm103.944-74.327a3 3 0 0 1-1.253-5.727c.62-.285 62.352-28.691 91.972-48.693a3 3 0 1 1 3.357 4.972c-30.027 20.277-92.202 48.887-92.827 49.174-.405.186-.83.274-1.249.274zm17.229 31.696a3 3 0 0 1-1.074-5.802c.533-.204 53.752-20.692 90.289-42.659a3 3 0 0 1 3.092 5.142c-36.994 22.242-90.696 42.913-91.234 43.12a3.029 3.029 0 0 1-1.073.199zm5.23 32.285a3.001 3.001 0 0 1-.954-5.845c.384-.129 38.677-13.028 68.2-27.964a3 3 0 1 1 2.709 5.354c-29.919 15.135-68.614 28.169-69.001 28.299a3.001 3.001 0 0 1-.954.156z" fill="#232323"/><path d="M912.085 1282.923a2.495 2.495 0 0 1-1.92-.898c-28.834-34.539-56.824-55.187-57.104-55.391a2.5 2.5 0 0 1 2.953-4.035c.283.208 28.74 21.186 57.988 56.222a2.5 2.5 0 0 1-1.917 4.102z" fill="#9b3c82"/><path d="M647.374 168.042c10.342 136.165-105.452 225.039-210.158 200.787s-236.39 19.742-284.455 137.95c-69.719 171.461 57.73 237.783-80.754 373.06-115.36 112.689-96.421 272.474 88.152 348.096 0 0 363.606 60.067 445.773-10.7 66.511-57.284 107.24-130.202 134.17-219.392 60.201-199.373-12.367-339.439-12.367-339.439l44.472-329.114z" fill="#232323"/><path d="M982.388 410.49c-17.083 10.957-36.007 13.252-68.57 5.218-7.487 18.381-13.145 113.675 9.206 181.297-26.869 43.443-184.348 67.567-240.209-25.222 59.674-95.273 75.57-195.144 70.248-218.998l-66.323-91.84a136.16 136.16 0 0 1-5.052-6.441c-8.559-11.543-3.434-26.748-8.056-39.949-27.299-77.795 4.136-165.25 103.77-194.079 1.321-.362 10.17-2.99 10.256-3.017 20.768-5.566 34.533-5.919 55.996-4.223 48.276 3.811 87.609 25.389 115.498 64.554 11.578 16.26 22.429 29.499 30.388 47.768 2.075 4.819 3.936 9.675 5.652 14.584.133.332.238.662.357.994.012.072.039.129.066.187v.014c0 .014.014.015.013.029.053.13.092.273.146.403a.19.19 0 0 0 .026.086c.013.043.04.087.053.13.052.173.105.345.171.504.013.057.038.144.052.201.924 2.634 3.823 10.655 7.558 21.907a604.644 604.644 0 0 1 1.695 5.179c.473 1.439.945 2.92 1.43 4.43.052.187.118.374.17.561 6.658 20.955 14.534 48.872 18.441 74.412 7.237 47.243-1.065 134.424-42.982 161.311z" fill="#fff"/><g fill="#232323"><path d="M814.355 638.481c-.429 0-.856-.001-1.286-.004-59.702-.358-108.115-24.103-132.825-65.147a3 3 0 0 1 .028-3.14c59.832-95.526 74.373-193.635 69.984-216.167l-65.889-91.238a138.872 138.872 0 0 1-5.097-6.504c-5.548-7.481-5.902-16.145-6.244-24.523-.234-5.734-.456-11.151-2.228-16.212-14.707-41.911-12.527-84.94 6.138-121.159 19.004-36.878 53.455-63.433 99.629-76.793 1.305-.358 9.892-2.907 10.226-3.007 21.702-5.817 35.69-6.032 57.098-4.341 49.81 3.932 89.412 26.072 117.706 65.805 2.118 2.974 4.212 5.847 6.268 8.668 9.152 12.56 17.797 24.423 24.427 39.641 2.003 4.65 3.87 9.465 5.713 14.73.097.245.182.49.267.736l.104.294.042.126.032.088c.034.091.067.184.099.278.035.087.067.175.095.265.036.092.069.186.091.261.02.061.038.129.062.193.067.159.115.309.154.474l.597 1.688a993.65 993.65 0 0 1 6.938 20.157 578.33 578.33 0 0 1 1.701 5.201c.367 1.115.738 2.271 1.115 3.447l.317.989.034.117.055.178c.034.107.067.214.098.32 6.24 19.646 14.515 48.559 18.533 74.822 4.035 26.34 2.853 60.577-3.086 89.35-5.261 25.494-16.688 59.191-41.241 74.941h-.001c-17.956 11.517-37.867 13.374-68.246 6.246-6.687 22.398-11.381 111.777 10.111 176.802.278.842.17 1.765-.297 2.52-14.132 22.844-61.793 39.898-111.222 39.898zm-128.014-66.684c12.648 20.282 31.036 35.853 54.68 46.293 20.958 9.255 45.885 14.23 72.084 14.387.425.003.855.004 1.279.004 46.648 0 91.315-15.265 105.343-35.906-12.763-39.485-15.19-84.916-15.495-108.646-.463-36.05 3.074-64.189 6.808-73.353a3 3 0 0 1 3.497-1.781c30.505 7.527 49.075 6.173 66.232-4.83 12.582-8.071 29.494-26.958 38.604-71.103 5.804-28.122 6.965-61.546 3.03-87.229-3.962-25.901-12.157-54.515-18.334-73.958a4.307 4.307 0 0 1-.031-.107l-.055-.178c-.033-.106-.066-.211-.097-.317l-.303-.942a473.406 473.406 0 0 0-1.105-3.418 617.749 617.749 0 0 0-1.69-5.167c-3.09-9.309-5.568-16.294-6.899-20.047l-.644-1.818a3.312 3.312 0 0 1-.082-.274 9.564 9.564 0 0 1-.136-.404 4.245 4.245 0 0 1-.093-.258c-.026-.074-.053-.149-.078-.224-.02-.048-.038-.097-.056-.146l-.011-.03a3.602 3.602 0 0 1-.12-.356l-.073-.208c-.06-.172-.117-.345-.188-.518a3.551 3.551 0 0 1-.05-.132c-1.803-5.155-3.627-9.861-5.576-14.387-6.361-14.603-14.817-26.207-23.77-38.492-2.068-2.839-4.175-5.729-6.306-8.722-27.217-38.22-65.334-59.518-113.292-63.304-20.697-1.635-34.202-1.435-54.947 4.121-.785.234-8.938 2.655-10.276 3.022C733.684 36.248 700.5 61.76 682.27 97.135c-17.901 34.738-19.964 76.085-5.809 116.426 2.068 5.907 2.318 12.03 2.561 17.952.319 7.815.621 15.197 5.075 21.203 1.56 2.12 3.222 4.239 4.946 6.307.044.053.087.108.127.165l66.324 91.84c.238.33.406.706.495 1.103 2.691 12.061.4 42.759-10.782 84.153-8.912 32.988-26.341 83.142-58.866 135.513zM982.388 410.49h.01zm16.287-269.494.003.012a.104.104 0 0 1-.003-.012zm-.004-.012.002.007a.019.019 0 0 1-.002-.007zm-.002-.007v.001-.001zm-.347-.947.003.005-.003-.005z"/><path d="M864.642 199.395c-18.243 10.972-25.032 30.477-18.638 38.55 6.395 8.074 25.883 4.829 41.794-9.313 16.358-14.539 24.747-31.531 18.638-38.55-6.332-7.276-23.694-1.573-41.794 9.313zm142.286-24.629a55.737 55.737 0 0 1-8.372 2.718c-19.705 4.754-37.052 2.161-39.172-6.194-2.182-8.671 11.195-20.615 29.037-28.628 2.281-1.02 4.53-1.912 6.77-2.52.133.332.238.662.357.994a.79.79 0 0 0 .066.201l.159.432a.19.19 0 0 0 .026.086c.013.043.04.087.053.13.052.173.105.345.171.504.013.057.038.144.052.201.924 2.634 3.823 10.655 7.558 21.907.986 2.993 2.036 6.215 3.125 9.609.053.186.119.374.17.56zm-35.021 143.282c-1.713 2.104-3.944 3.726-6.317 4.937a26.43 26.43 0 0 1-7.544 2.424c-5.199.857-10.622.445-15.71-1.619a28.82 28.82 0 0 1-6.863-4.141c-2.051-1.72-3.899-3.701-5.354-5.95-2.948-4.447-4.495-9.906-3.894-15.182a1.914 1.914 0 0 1 3.811.059l.003.044c.36 4.374 2.029 8.493 4.612 11.9a24.73 24.73 0 0 0 10.003 7.744c3.826 1.607 8.319 2.103 12.639 1.698 4.325-.434 8.583-1.849 11.872-4.568l.036-.03a1.915 1.915 0 0 1 2.706 2.684zm-93.265-68.007c8.078-4.16 27.689-13.692 44.169-28.675a5.62 5.62 0 0 1 7.981.412c5.382 6.001 12.358 17.228-.18 25.995-15.405 10.771-44.41 12.941-52.409 7.144-1.72-1.246-1.449-3.904.439-4.876zm127.133-56.333c-7.939 2.712-19.279 4.553-36.332 6.801-3.108.41-4.924 3.756-4.191 6.804 1.886 7.837 6.804 18.849 21.503 14.608 14.709-4.244 22.837-15.948 23.284-25.807.096-2.121-2.255-3.092-4.264-2.406zm-91.267-80.19s-45.206 55.549-60.976 70.171c-35.879 33.266-94.744 61.728-167.298 75.901-1.435-1.722-2.97-3.404-4.548-5.087-8.559-11.543-23.304-37.528-28.106-50.664-14.318-39.167-7.856-158.209 106.512-194.047C880.007-27.785 946.759 53.525 960.776 73.21c11.578 16.26 20.804 34.079 28.763 52.348 2.075 4.819 1.413 3.451 3.344 8.259.064.159-18.565-.85-37.343-5.745-20.375-5.313-41.032-14.554-41.032-14.554z"/></g><path d="M765.437 254.615s-40.393-30.438-80.533-10.862c-37.863 18.466-25.389 78.46 48.507 104.282 11.352 3.967 31.303 7.629 46.64 7.032" fill="#fff"/><path d="M776.568 358.133c-15.351 0-33.41-3.514-44.146-7.265-21.668-7.572-39.785-18.715-52.392-32.226-11.376-12.192-18.071-26.216-18.853-39.489-.987-16.782 7.181-30.668 22.411-38.096 41.317-20.15 81.945 9.874 83.654 11.162a3 3 0 0 1-3.609 4.793c-.39-.293-39.44-29.083-77.414-10.563-12.946 6.314-19.891 18.105-19.052 32.35 1.189 20.21 19.511 49.728 67.232 66.404 10.784 3.768 30.405 7.455 45.533 6.866a2.979 2.979 0 0 1 3.115 2.881 3.001 3.001 0 0 1-2.881 3.115c-1.178.046-2.38.068-3.598.068zm138.245 54.574c-2.55 7.53-5.44 27.29-6.41 52.65-.01-.01-.02-.01-.02-.01-53.38-21.96-60.45-63.31-52.01-72 7.31-7.53 18.24 1.23 27.46 5.67 18.19 8.76 15.09 7.15 30.98 13.69z" fill="#232323"/><path d="M695.834 275.963s36.933-8.648 64.257 30.374" fill="#fff"/><path d="M760.095 309.337a2.996 2.996 0 0 1-2.46-1.279c-25.762-36.79-59.693-29.5-61.123-29.172-1.624.371-3.223-.635-3.597-2.246s.624-3.22 2.235-3.597c.402-.095 10.041-2.283 23.195.542 12.066 2.591 29.53 10.077 44.203 31.032a3 3 0 0 1-2.453 4.72zm213.243-32.522a3 3 0 0 1-1.105-5.79c6.789-2.688 14.77-11.949 14.724-17.084-.01-1.037-.295-2.101-2.304-2.855-16.8-6.306-22.593-19.985-22.831-20.565a3 3 0 0 1 5.545-2.292c.081.19 5.174 11.901 19.396 17.239 3.959 1.486 6.158 4.476 6.194 8.418.074 8.256-10.118 19.392-18.515 22.716a2.97 2.97 0 0 1-1.104.213z" fill="#232323"/><path d="M635.287 1066.939c0 60.788-159.346 156.717-220.134 156.717s0-95.928 0-156.717c0-60.788 49.279-110.067 110.067-110.067s110.067 49.278 110.067 110.067z" fill="#00676c"/><path d="M1292.73 832.679c-.297-.122-.963-.367-2.048-.612-1.978-.49-5.32-.98-10.081-.683-23.591.14-77.88 13.318-147.009 112.637a890.215 890.215 0 0 1-17.431 24.204c-16.678 19.863-32.604 39.412-45.608 55.601-19.041 23.644-31.904 40.147-31.904 40.147l59.801 241.164s-14.106 31.607-52.188 40.673c-45.748 10.885-120.705 25.044-223.086 2.695-224.836-49.073-478.496-6.931-478.496-6.931l214.65-298.743 185.25-465.685c33.304 22.646 99.243 83.935 172.52 11.988-5.212-17.59-7.849-37.634-7.849-37.634s54.617-40.911 118.461 74.701c79.542 144.051 157.701 153.537 265.018 206.478z" fill="#00676c"/><path d="M520.508 1043.83c-.242 0-.489-.03-.735-.092-99.27-25.011-180.363-53.085-241.029-83.442-51.79-25.915-87.634-53.273-103.656-79.116-12.416-20.025-13.803-43.531-3.451-58.491 9.742-14.081 28.453-19.202 52.684-14.422a3 3 0 0 1-1.162 5.887c-21.741-4.29-38.286-.046-46.588 11.949-9.013 13.026-7.56 33.889 3.617 51.915 34.543 55.714 158.852 113.996 341.053 159.902a3 3 0 0 1-.733 5.91z" fill="#00676c"/><path d="M1187.549 1413.171c-20.529-19.654-51.978-40.218-101.944-63.791l.017-.018c52.731-40.252 48.565-51.348-4.165-41.635-22.611 4.165-44.155 8.278-67.904 9.258h-.018c-.14.018-.263.035-.403.035-184.303-76.269-452.087-148.338-579.652-150.806 0 0-.228 0-.543-.018l107.22-123.367L710 722.163 508.578 604.657s-196.126 149.03-339.876 389.324c-28.321 47.342-98.472 166.351-80.331 271.525 25.116 145.617 178.99 182.403 231.773 194.059.507.122 1.033.228 1.54.333 184.303 40.2 380.823-10.991 503.453 11.201 1.033.158 2.048.35 3.063.543h.036c14.036 2.713 28.229 6.09 42.387 9.958 144.891 39.29 285.11 126.218 178.913 16.241 0 0 150.981 96.448 90.218 15.278 1.645.77 98.531 46.483 24.957-34.704-40.235-44.4-65.209-62.444-79.087-74.939 52.729 24.991 184.565 88.817 101.925 9.695z" fill="#fff"/><path d="M1079.73 1554.434c-12.476.001-37.117-9.147-78.797-25.065-37.512-14.326-84.196-32.156-131.096-44.874-14.544-3.973-28.679-7.296-42.023-9.879a2.19 2.19 0 0 1-.174-.027c-.979-.186-1.958-.372-2.956-.524-52.66-9.528-120.61-5.357-192.551-.941-96.527 5.926-205.935 12.642-311.088-10.294l-.189-.039c-.47-.097-.95-.196-1.415-.309-35.641-7.87-82.354-20.353-127.099-47.136-60.062-35.953-96.037-86.194-106.927-149.329-18.563-107.626 53.561-228.188 80.713-273.575C240.54 868.052 329.172 768.61 390.42 707.093c66.379-66.67 115.852-104.45 116.343-104.824a3.001 3.001 0 0 1 3.327-.203l201.422 117.506a3 3 0 0 1 1.14 3.995L542.81 1044.234a3.017 3.017 0 0 1-.387.564l-103.056 118.575c61.078 2.105 154.201 18.941 263.426 47.667 107.995 28.403 221.245 65.91 310.837 102.939 22.523-.947 42.976-4.719 64.623-8.712l2.661-.491c28.119-5.18 41.458-4.369 44.595 2.712 4.166 9.403-13.431 25.199-34.195 41.282 44.828 21.468 77.019 41.849 98.31 62.233h.001c28.65 27.432 29.381 35.675 26.317 40.122-6.396 9.277-34.968.363-111.232-35.32 14.557 12.371 34.925 30.47 62.224 60.595 30.777 33.962 30.412 44.151 26.656 49.233-6.407 8.665-29.201 1.258-45.097-5.362 8.7 13.171 10.734 21.223 6.655 25.617-4.134 4.453-14.656 6.469-59.706-17.679-10.289-5.515-20.372-11.343-28.585-16.234 22.294 24.844 25.099 33.869 21.764 38.917-1.585 2.396-4.477 3.542-8.891 3.542zm-251.115-85.767c.065.008.129.018.188.029 13.536 2.616 27.872 5.984 42.609 10.01 47.184 12.795 94.023 30.684 131.66 45.058 22.924 8.755 42.723 16.317 57.263 20.697 20.113 6.059 22.92 3.665 23.277 3.124.064-.096 1.473-2.473-5.798-12.795-5.856-8.314-15.813-19.719-30.438-34.865a3 3 0 0 1 3.774-4.612c.229.146 23.138 14.751 47.151 27.622 45.409 24.338 51.861 19.502 52.448 18.871.382-.411 3.245-4.655-13.398-26.889a3 3 0 0 1 3.673-4.515c20.593 9.659 44.057 16.65 47.739 11.664.859-1.162 3.632-8.634-26.276-41.637-31.31-34.55-53.43-53.149-68.067-65.457-4.151-3.49-7.735-6.504-10.805-9.267a3 3 0 0 1 3.292-4.94l5.005 2.375c20.611 9.783 48.838 23.182 73.475 33.041 40.81 16.331 45.244 12.079 45.614 11.541.135-.195 2.97-5.099-25.527-32.383h.001c-21.513-20.595-54.599-41.283-101.15-63.245a3.001 3.001 0 0 1-.522-5.116c36.499-27.862 36.952-35.408 36.221-37.057-.6-1.355-5.121-5.303-38.021.758l-2.66.49c-21.896 4.039-42.579 7.854-65.568 8.811-.629.073-1.221.048-1.787-.187-191.531-79.26-456.48-148.217-578.562-150.579h.002c-.038 0-.305-.002-.653-.022a3 3 0 0 1-2.099-4.963l106.994-123.107 168.333-317.818-197.189-115.036c-8.931 6.964-54.739 43.386-114.228 103.145-60.986 61.264-149.234 160.285-223.31 284.109-12.391 20.712-38.174 63.811-57.363 113.614-22.675 58.847-30.274 111.286-22.586 155.861 10.579 61.334 45.603 110.187 104.097 145.201 44.002 26.34 90.112 38.653 125.367 46.439.458.11.871.194 1.275.278l.227.047c104.368 22.764 213.332 16.076 309.473 10.174 72.311-4.439 140.611-8.632 193.905 1.012.942.142 1.942.329 2.944.519z" fill="#232323"/><path d="M1141.307 1517.571a2.99 2.99 0 0 1-2.075-.833c-31.581-30.239-62.517-58.934-93.764-77.682a3 3 0 0 1 3.088-5.145c31.778 19.067 62.988 48.009 94.826 78.493a3.002 3.002 0 0 1-2.075 5.167zm-92.456-17.096a2.99 2.99 0 0 1-1.964-.733c-14.678-12.721-29.125-22.183-29.269-22.277a3 3 0 0 1 3.277-5.026c.147.096 14.921 9.768 29.921 22.768a3 3 0 0 1-1.965 5.268zm47.178-143.418c-.415 0-.837-.087-1.239-.27-.458-.208-46.285-21.03-90.164-40.227a3 3 0 1 1 2.404-5.497c43.92 19.215 89.784 40.054 90.242 40.262a3 3 0 0 1-1.243 5.732zm-742.018-164.441a3 3 0 0 1-1.294-5.708c28.543-13.614 62.953-23.325 92.048-25.978a3.007 3.007 0 0 1 3.26 2.715 3 3 0 0 1-2.715 3.26c-28.426 2.591-62.074 12.093-90.009 25.418a3.003 3.003 0 0 1-1.29.293z" fill="#232323"/><path d="M548.737 1051.422c78.602-86.595 207.49-324.089 195.838-474.274-11.99-154.539-169.193-77.269-355.705 94.588-79.672 73.412-182.516 123.897-209.16 143.881 62.615-13.322 151.874 50.625 223.815 130.559 29.784 33.095 77.268 89.259 145.212 105.246z" fill="#00676c"/><path d="M1046.655 1086.484a2.5 2.5 0 0 1-2.413-1.854L910.428 584.814a2.501 2.501 0 0 1 4.831-1.294l133.814 499.817a2.5 2.5 0 0 1-2.418 3.147zm-510.268-36.885a2.5 2.5 0 0 1-1.971-4.034c85.486-109.98 145.506-210.711 178.391-299.394 25.861-69.744 35.709-132.797 30.104-192.763a2.5 2.5 0 0 1 4.979-.465c5.676 60.729-4.267 124.503-30.396 194.967-33.062 89.162-93.33 190.34-179.131 300.724a2.5 2.5 0 0 1-1.976.965z" fill="#fff"/></svg></g><g transform="translate(140.0 477.0) rotate(0.0 948.5 775.5) scale(0.9979021435169501 0.9977683697777183)"><svg width="1900.988" height="1554.469" viewBox="0 0 1900.988 1554.469"><g><g><path style="fill:#232323" d="M970.747 1099.74c81.872-38.81 130.955-110.979 162.837-155.714 62.782-88.094 116.323-122.899 159.841-111.114 62.075 16.812-75.321 263.753-322.678 266.828z"/><g><path style="fill:#fff" d="M1696.477 834.117c-118.789 131.392-153.262 286.382-310.481 389.539-173.566 113.884-349.356 17.393-415.249-123.915l202.145-243.03c10.012 10.795 38.38 45.699 48.982 58.678a1151.07 1151.07 0 0 1 6.304 7.767c11.875 14.699 20.747 26.158 20.747 26.158s162.987-194.598 352.923-306.644c206.703-121.933 142.943-39.138 142.943-39.138 227.661-83.664 90.964 9.065 90.964 9.065 130.426-34.405 15.346 37.527 15.346 37.527 100.601-12.913-19.785 46.658-22.378 47.941 85.378-16.581-40.114 34.145-132.246 136.052z"/><path style="fill:#232323" d="M1228.353 1276.9c-23.754 0-47.483-3.312-70.947-9.98-80.853-22.978-151.647-85-189.377-165.911a3 3 0 0 1 .412-3.186l202.146-243.029a3.002 3.002 0 0 1 2.226-1.081 2.957 2.957 0 0 1 2.28.959c9.213 9.932 34.049 40.368 45.984 54.995l3.122 3.825c2.177 2.654 4.291 5.269 6.317 7.781a1928.112 1928.112 0 0 1 18.514 23.291c9.674-11.288 47.901-55.133 103.043-108.707 58.956-57.28 149.883-137.741 248.253-195.771 123.993-73.143 147.533-71.191 154.451-63.361 4.724 5.345 1.287 14.28-2.449 20.863 40.488-14.678 71.471-24.413 92.169-28.957 20.73-4.551 31.28-4.027 34.218 1.697 2.989 5.826-2.855 14.429-18.951 27.895a268.46 268.46 0 0 1-9.686 7.701c39.948-9.356 48.052-5.459 50.351-.148 1.823 4.216.924 11.356-22.418 29.295-5.176 3.978-10.488 7.73-14.901 10.739 19.557-1.627 28.926.413 30.745 6.43 1.399 4.627-.783 12.238-30.324 30.167-5.902 3.582-11.917 6.975-17.196 9.849 9.433-.888 12.275.498 13.441 3.187 2.466 5.695-5.824 12.017-34.963 33.066-33.073 23.892-83.055 59.997-126.109 107.62l-2.226-2.012 2.226 2.012c-46.142 51.037-79.857 106.218-112.463 159.582-52.523 85.963-102.134 167.16-198.598 230.452-51.291 33.654-105.349 50.737-159.29 50.737zm-254.078-176.709c37.198 78.517 106.142 138.611 184.771 160.957 22.895 6.506 46.071 9.739 69.264 9.74 52.806.003 105.753-16.745 156.041-49.741 95.337-62.554 144.606-143.192 196.769-228.564 32.75-53.6 66.614-109.024 113.132-160.478 43.479-48.092 93.77-84.42 127.047-108.459 14.513-10.483 29.48-21.296 32.392-25.571-2.161-.344-8.098-.229-24.393 2.936-1.48.286-2.935-.562-3.415-1.985s.166-2.982 1.512-3.649c1.777-.88 17.785-8.851 33.022-18.099 29.02-17.612 27.762-23.078 27.694-23.302-.065-.219-2.025-5.318-36.626-.877a2.998 2.998 0 0 1-1.972-5.519c.127-.08 12.885-8.075 24.871-17.29 22.34-17.174 20.621-21.938 20.537-22.132-.319-.741-4.683-6.831-58.398 7.339a3 3 0 0 1-2.45-5.383c.113-.077 11.391-7.748 21.87-16.518 19.342-16.188 17.454-20.487 17.434-20.529-.088-.17-2.427-4.102-27.593 1.424-21.872 4.802-55.502 15.52-99.956 31.857a3.002 3.002 0 0 1-3.413-4.645c4.959-6.451 10.888-17.588 7.865-21.005-3.014-3.407-22.518-8.819-146.905 64.556-97.859 57.729-188.399 137.855-247.121 194.907-63.643 61.833-104.62 110.594-105.026 111.079a2.997 2.997 0 0 1-4.671-.09c-.089-.114-8.992-11.606-20.709-26.11a1190.152 1190.152 0 0 0-6.29-7.749l-3.128-3.832c-11.005-13.485-33.011-40.453-43.438-52.173l-198.717 238.905z"/></g><g><path style="fill:#fff" d="M1256.986 940.411c-30.799 37.071-49.41 72.253-49.41 72.253"/><path style="fill:#232323" d="M1207.573 1015.665a3 3 0 0 1-2.648-4.404c.188-.355 19.109-35.884 49.754-72.768a3 3 0 0 1 4.616 3.835c-30.251 36.411-48.881 71.39-49.066 71.739a3.003 3.003 0 0 1-2.656 1.598z"/></g><path style="fill:#232323" d="M1652.1 730.348a2.999 2.999 0 0 1-2.296-4.93c19.643-23.396 34.908-44.957 51.07-67.785 13.666-19.301 27.797-39.26 45.551-61.694a3 3 0 0 1 4.705 3.723c-17.655 22.309-31.738 42.201-45.358 61.438-16.235 22.931-31.57 44.591-51.372 68.176a2.993 2.993 0 0 1-2.3 1.072zm103.944-74.327a3 3 0 0 1-1.253-5.727c.62-.285 62.352-28.691 91.972-48.693a3 3 0 1 1 3.357 4.972c-30.027 20.277-92.202 48.887-92.827 49.174-.405.186-.83.274-1.249.274zm17.229 31.696a3 3 0 0 1-1.074-5.802c.533-.204 53.752-20.692 90.289-42.659a3 3 0 0 1 3.092 5.142c-36.994 22.242-90.696 42.913-91.234 43.12a3.029 3.029 0 0 1-1.073.199zm5.23 32.285a3.001 3.001 0 0 1-.954-5.845c.384-.129 38.677-13.028 68.2-27.964a3 3 0 1 1 2.709 5.354c-29.919 15.135-68.614 28.169-69.001 28.299a3.001 3.001 0 0 1-.954.156z"/><path style="fill:#9b3c82" d="M912.085 1282.923a2.495 2.495 0 0 1-1.92-.898c-28.834-34.539-56.824-55.187-57.104-55.391a2.5 2.5 0 0 1 2.953-4.035c.283.208 28.74 21.186 57.988 56.222a2.5 2.5 0 0 1-1.917 4.102z"/></g><g><path style="fill:#232323" d="M647.374 168.042c10.342 136.165-105.452 225.039-210.158 200.787s-236.39 19.742-284.455 137.95c-69.719 171.461 57.73 237.783-80.754 373.06-115.36 112.689-96.421 272.474 88.152 348.096 0 0 363.606 60.067 445.773-10.7 66.511-57.284 107.24-130.202 134.17-219.392 60.201-199.373-12.367-339.439-12.367-339.439l44.472-329.114-124.833-161.248z"/><g><path style="fill:#fff" d="M982.388 410.49c-17.083 10.957-36.007 13.252-68.57 5.218-7.487 18.381-13.145 113.675 9.206 181.297-26.869 43.443-184.348 67.567-240.209-25.222 59.674-95.273 75.57-195.144 70.248-218.998l-66.323-91.84a136.16 136.16 0 0 1-5.052-6.441c-8.559-11.543-3.434-26.748-8.056-39.949-27.299-77.795 4.136-165.25 103.77-194.079 1.321-.362 10.17-2.99 10.256-3.017 20.768-5.566 34.533-5.919 55.996-4.223 48.276 3.811 87.609 25.389 115.498 64.554 11.578 16.26 22.429 29.499 30.388 47.768 2.075 4.819 3.936 9.675 5.652 14.584.133.332.238.662.357.994.012.072.039.129.066.187v.014c0 .014.014.015.013.029.053.13.092.273.146.403a.19.19 0 0 0 .026.086c.013.043.04.087.053.13.052.173.105.345.171.504.013.057.038.144.052.201.924 2.634 3.823 10.655 7.558 21.907a604.644 604.644 0 0 1 1.695 5.179c.473 1.439.945 2.92 1.43 4.43.052.187.118.374.17.561 6.658 20.955 14.534 48.872 18.441 74.412 7.237 47.243-1.065 134.424-42.982 161.311z"/><path style="fill:#232323" d="M814.355 638.481c-.429 0-.856-.001-1.286-.004-59.702-.358-108.115-24.103-132.825-65.147a3 3 0 0 1 .028-3.14c59.832-95.526 74.373-193.635 69.984-216.167l-65.889-91.238a138.872 138.872 0 0 1-5.097-6.504c-5.548-7.481-5.902-16.145-6.244-24.523-.234-5.734-.456-11.151-2.228-16.212-14.707-41.911-12.527-84.94 6.138-121.159 19.004-36.878 53.455-63.433 99.629-76.793 1.305-.358 9.892-2.907 10.226-3.007 21.702-5.817 35.69-6.032 57.098-4.341 49.81 3.932 89.412 26.072 117.706 65.805 2.118 2.974 4.212 5.847 6.268 8.668 9.152 12.56 17.797 24.423 24.427 39.641 2.003 4.65 3.87 9.465 5.713 14.73.097.245.182.49.267.736l.104.294.042.126.032.088c.034.091.067.184.099.278.035.087.067.175.095.265.036.092.069.186.091.261.02.061.038.129.062.193.067.159.115.309.154.474l.597 1.688a993.65 993.65 0 0 1 6.938 20.157 578.33 578.33 0 0 1 1.701 5.201c.367 1.115.738 2.271 1.115 3.447l.317.989.034.117.055.178c.034.107.067.214.098.32 6.24 19.646 14.515 48.559 18.533 74.822 4.035 26.34 2.853 60.577-3.086 89.35-5.261 25.494-16.688 59.191-41.241 74.941h-.001c-17.956 11.517-37.867 13.374-68.246 6.246-6.687 22.398-11.381 111.777 10.111 176.802.278.842.17 1.765-.297 2.52-14.132 22.844-61.793 39.898-111.222 39.898zm-128.014-66.684c12.648 20.282 31.036 35.853 54.68 46.293 20.958 9.255 45.885 14.23 72.084 14.387.425.003.855.004 1.279.004 46.648 0 91.315-15.265 105.343-35.906-12.763-39.485-15.19-84.916-15.495-108.646-.463-36.05 3.074-64.189 6.808-73.353a3 3 0 0 1 3.497-1.781c30.505 7.527 49.075 6.173 66.232-4.83 12.582-8.071 29.494-26.958 38.604-71.103 5.804-28.122 6.965-61.546 3.03-87.229-3.962-25.901-12.157-54.515-18.334-73.958a4.307 4.307 0 0 1-.031-.107l-.055-.178c-.033-.106-.066-.211-.097-.317l-.303-.942a473.406 473.406 0 0 0-1.105-3.418 617.749 617.749 0 0 0-1.69-5.167c-3.09-9.309-5.568-16.294-6.899-20.047l-.644-1.818a3.312 3.312 0 0 1-.082-.274 9.564 9.564 0 0 1-.136-.404 4.245 4.245 0 0 1-.093-.258c-.026-.074-.053-.149-.078-.224-.02-.048-.038-.097-.056-.146l-.011-.03a3.602 3.602 0 0 1-.12-.356l-.073-.208c-.06-.172-.117-.345-.188-.518a3.551 3.551 0 0 1-.05-.132c-1.803-5.155-3.627-9.861-5.576-14.387-6.361-14.603-14.817-26.207-23.77-38.492-2.068-2.839-4.175-5.729-6.306-8.722-27.217-38.22-65.334-59.518-113.292-63.304-20.697-1.635-34.202-1.435-54.947 4.121-.785.234-8.938 2.655-10.276 3.022C733.684 36.248 700.5 61.76 682.27 97.135c-17.901 34.738-19.964 76.085-5.809 116.426 2.068 5.907 2.318 12.03 2.561 17.952.319 7.815.621 15.197 5.075 21.203 1.56 2.12 3.222 4.239 4.946 6.307.044.053.087.108.127.165l66.324 91.84c.238.33.406.706.495 1.103 2.691 12.061.4 42.759-10.782 84.153-8.912 32.988-26.341 83.142-58.866 135.513zM982.388 410.49h.01-.01zm16.287-269.494.003.012a.104.104 0 0 1-.003-.012zm-.004-.012.002.007a.019.019 0 0 1-.002-.007zm-.002-.007v.001-.001zm-.347-.947.003.005-.003-.005z"/></g><path style="fill:#232323" d="M864.642 199.395c-18.243 10.972-25.032 30.477-18.638 38.55 6.395 8.074 25.883 4.829 41.794-9.313 16.358-14.539 24.747-31.531 18.638-38.55-6.332-7.276-23.694-1.573-41.794 9.313zm142.286-24.629a55.737 55.737 0 0 1-8.372 2.718c-19.705 4.754-37.052 2.161-39.172-6.194-2.182-8.671 11.195-20.615 29.037-28.628 2.281-1.02 4.53-1.912 6.77-2.52.133.332.238.662.357.994a.79.79 0 0 0 .066.201l.159.432a.19.19 0 0 0 .026.086c.013.043.04.087.053.13.052.173.105.345.171.504.013.057.038.144.052.201.924 2.634 3.823 10.655 7.558 21.907.986 2.993 2.036 6.215 3.125 9.609.053.186.119.374.17.56zm-35.021 143.282c-1.713 2.104-3.944 3.726-6.317 4.937a26.43 26.43 0 0 1-7.544 2.424c-5.199.857-10.622.445-15.71-1.619a28.82 28.82 0 0 1-6.863-4.141c-2.051-1.72-3.899-3.701-5.354-5.95-2.948-4.447-4.495-9.906-3.894-15.182a1.914 1.914 0 0 1 3.811.059l.003.044c.36 4.374 2.029 8.493 4.612 11.9a24.73 24.73 0 0 0 10.003 7.744c3.826 1.607 8.319 2.103 12.639 1.698 4.325-.434 8.583-1.849 11.872-4.568l.036-.03a1.915 1.915 0 0 1 2.706 2.684zm-93.265-68.007c8.078-4.16 27.689-13.692 44.169-28.675a5.62 5.62 0 0 1 7.981.412c5.382 6.001 12.358 17.228-.18 25.995-15.405 10.771-44.41 12.941-52.409 7.144-1.72-1.246-1.449-3.904.439-4.876zm127.133-56.333c-7.939 2.712-19.279 4.553-36.332 6.801-3.108.41-4.924 3.756-4.191 6.804 1.886 7.837 6.804 18.849 21.503 14.608 14.709-4.244 22.837-15.948 23.284-25.807.096-2.121-2.255-3.092-4.264-2.406zm-91.267-80.19s-45.206 55.549-60.976 70.171c-35.879 33.266-94.744 61.728-167.298 75.901-1.435-1.722-2.97-3.404-4.548-5.087-8.559-11.543-23.304-37.528-28.106-50.664-14.318-39.167-7.856-158.209 106.512-194.047C880.007-27.785 946.759 53.525 960.776 73.21c11.578 16.26 20.804 34.079 28.763 52.348 2.075 4.819 1.413 3.451 3.344 8.259.064.159-18.565-.85-37.343-5.745-20.375-5.313-41.032-14.554-41.032-14.554z"/><g><path style="fill:#fff" d="M765.437 254.615s-40.393-30.438-80.533-10.862c-37.863 18.466-25.389 78.46 48.507 104.282 11.352 3.967 31.303 7.629 46.64 7.032"/><path style="fill:#232323" d="M776.568 358.133c-15.351 0-33.41-3.514-44.146-7.265-21.668-7.572-39.785-18.715-52.392-32.226-11.376-12.192-18.071-26.216-18.853-39.489-.987-16.782 7.181-30.668 22.411-38.096 41.317-20.15 81.945 9.874 83.654 11.162a3 3 0 0 1-3.609 4.793c-.39-.293-39.44-29.083-77.414-10.563-12.946 6.314-19.891 18.105-19.052 32.35 1.189 20.21 19.511 49.728 67.232 66.404 10.784 3.768 30.405 7.455 45.533 6.866a2.979 2.979 0 0 1 3.115 2.881 3.001 3.001 0 0 1-2.881 3.115c-1.178.046-2.38.068-3.598.068z"/></g><path style="fill:#232323" d="M914.813 412.707c-2.55 7.53-5.44 27.29-6.41 52.65-.01-.01-.02-.01-.02-.01-53.38-21.96-60.45-63.31-52.01-72 7.31-7.53 18.24 1.23 27.46 5.67 18.19 8.76 15.09 7.15 30.98 13.69z"/><g><path style="fill:#fff" d="M695.834 275.963s36.933-8.648 64.257 30.374"/><path style="fill:#232323" d="M760.095 309.337a2.996 2.996 0 0 1-2.46-1.279c-25.762-36.79-59.693-29.5-61.123-29.172a2.997 2.997 0 0 1-3.597-2.246 2.996 2.996 0 0 1 2.235-3.597c.402-.095 10.041-2.283 23.195.542 12.066 2.591 29.53 10.077 44.203 31.032a3 3 0 0 1-2.453 4.72z"/></g><path style="fill:#232323" d="M973.338 276.815a3 3 0 0 1-1.105-5.79c6.789-2.688 14.77-11.949 14.724-17.084-.01-1.037-.295-2.101-2.304-2.855-16.8-6.306-22.593-19.985-22.831-20.565a3 3 0 0 1 5.545-2.292c.081.19 5.174 11.901 19.396 17.239 3.959 1.486 6.158 4.476 6.194 8.418.074 8.256-10.118 19.392-18.515 22.716a2.97 2.97 0 0 1-1.104.213z"/></g><path style="fill:#00676c" d="M635.287 1066.939c0 60.788-159.346 156.717-220.134 156.717s0-95.928 0-156.717c0-60.788 49.279-110.067 110.067-110.067s110.067 49.278 110.067 110.067z"/><path style="fill:#00676c" d="M1292.73 832.679c-.297-.122-.963-.367-2.048-.612-1.978-.49-5.32-.98-10.081-.683-23.591.14-77.88 13.318-147.009 112.637a890.215 890.215 0 0 1-17.431 24.204c-16.678 19.863-32.604 39.412-45.608 55.601-19.041 23.644-31.904 40.147-31.904 40.147l59.801 241.164s-14.106 31.607-52.188 40.673c-45.748 10.885-120.705 25.044-223.086 2.695-224.836-49.073-478.496-6.931-478.496-6.931l214.65-298.743 185.25-465.685c33.304 22.646 99.243 83.935 172.52 11.988-5.212-17.59-7.849-37.634-7.849-37.634s54.617-40.911 118.461 74.701c79.542 144.051 157.701 153.537 265.018 206.478z"/><g><path style="fill:#00676c" d="M520.508 1043.83c-.242 0-.489-.03-.735-.092-99.27-25.011-180.363-53.085-241.029-83.442-51.79-25.915-87.634-53.273-103.656-79.116-12.416-20.025-13.803-43.531-3.451-58.491 9.742-14.081 28.453-19.202 52.684-14.422a3 3 0 0 1-1.162 5.887c-21.741-4.29-38.286-.046-46.588 11.949-9.013 13.026-7.56 33.889 3.617 51.915 34.543 55.714 158.852 113.996 341.053 159.902a3 3 0 0 1-.733 5.91z"/><g><g><path style="fill:#fff" d="M1187.549 1413.171c-20.529-19.654-51.978-40.218-101.944-63.791l.017-.018c52.731-40.252 48.565-51.348-4.165-41.635-22.611 4.165-44.155 8.278-67.904 9.258h-.018c-.14.018-.263.035-.403.035-184.303-76.269-452.087-148.338-579.652-150.806 0 0-.228 0-.543-.018l107.22-123.367L710 722.163 508.578 604.657s-196.126 149.03-339.876 389.324c-28.321 47.342-98.472 166.351-80.331 271.525 25.116 145.617 178.99 182.403 231.773 194.059.507.122 1.033.228 1.54.333 184.303 40.2 380.823-10.991 503.453 11.201 1.033.158 2.048.35 3.063.543h.036c14.036 2.713 28.229 6.09 42.387 9.958 144.891 39.29 285.11 126.218 178.913 16.241 0 0 150.981 96.448 90.218 15.278 1.645.77 98.531 46.483 24.957-34.704-40.235-44.4-65.209-62.444-79.087-74.939 52.729 24.991 184.565 88.817 101.925 9.695z"/><path style="fill:#232323" d="M1079.73 1554.434c-12.476.001-37.117-9.147-78.797-25.065-37.512-14.326-84.196-32.156-131.096-44.874-14.544-3.973-28.679-7.296-42.023-9.879a2.19 2.19 0 0 1-.174-.027c-.979-.186-1.958-.372-2.956-.524-52.66-9.528-120.61-5.357-192.551-.941-96.527 5.926-205.935 12.642-311.088-10.294l-.189-.039c-.47-.097-.95-.196-1.415-.309-35.641-7.87-82.354-20.353-127.099-47.136-60.062-35.953-96.037-86.194-106.927-149.329-18.563-107.626 53.561-228.188 80.713-273.575C240.54 868.052 329.172 768.61 390.42 707.093c66.379-66.67 115.852-104.45 116.343-104.824a3.001 3.001 0 0 1 3.327-.203l201.422 117.506a3 3 0 0 1 1.14 3.995L542.81 1044.234a3.017 3.017 0 0 1-.387.564l-103.056 118.575c61.078 2.105 154.201 18.941 263.426 47.667 107.995 28.403 221.245 65.91 310.837 102.939 22.523-.947 42.976-4.719 64.623-8.712l2.661-.491c28.119-5.18 41.458-4.369 44.595 2.712 4.166 9.403-13.431 25.199-34.195 41.282 44.828 21.468 77.019 41.849 98.31 62.233h.001c28.65 27.432 29.381 35.675 26.317 40.122-6.396 9.277-34.968.363-111.232-35.32 14.557 12.371 34.925 30.47 62.224 60.595 30.777 33.962 30.412 44.151 26.656 49.233-6.407 8.665-29.201 1.258-45.097-5.362 8.7 13.171 10.734 21.223 6.655 25.617-4.134 4.453-14.656 6.469-59.706-17.679-10.289-5.515-20.372-11.343-28.585-16.234 22.294 24.844 25.099 33.869 21.764 38.917-1.585 2.396-4.477 3.542-8.891 3.542zm-251.115-85.767c.065.008.129.018.188.029 13.536 2.616 27.872 5.984 42.609 10.01 47.184 12.795 94.023 30.684 131.66 45.058 22.924 8.755 42.723 16.317 57.263 20.697 20.113 6.059 22.92 3.665 23.277 3.124.064-.096 1.473-2.473-5.798-12.795-5.856-8.314-15.813-19.719-30.438-34.865a3 3 0 0 1 3.774-4.612c.229.146 23.138 14.751 47.151 27.622 45.409 24.338 51.861 19.502 52.448 18.871.382-.411 3.245-4.655-13.398-26.889a3 3 0 0 1 3.673-4.515c20.593 9.659 44.057 16.65 47.739 11.664.859-1.162 3.632-8.634-26.276-41.637-31.31-34.55-53.43-53.149-68.067-65.457-4.151-3.49-7.735-6.504-10.805-9.267a3 3 0 0 1 3.292-4.94l5.005 2.375c20.611 9.783 48.838 23.182 73.475 33.041 40.81 16.331 45.244 12.079 45.614 11.541.135-.195 2.97-5.099-25.527-32.383h.001c-21.513-20.595-54.599-41.283-101.15-63.245a3.001 3.001 0 0 1-.522-5.116c36.499-27.862 36.952-35.408 36.221-37.057-.6-1.355-5.121-5.303-38.021.758l-2.66.49c-21.896 4.039-42.579 7.854-65.568 8.811-.629.073-1.221.048-1.787-.187-191.531-79.26-456.48-148.217-578.562-150.579h.002c-.038 0-.305-.002-.653-.022a3 3 0 0 1-2.099-4.963l106.994-123.107 168.333-317.818-197.189-115.036c-8.931 6.964-54.739 43.386-114.228 103.145-60.986 61.264-149.234 160.285-223.31 284.109-12.391 20.712-38.174 63.811-57.363 113.614-22.675 58.847-30.274 111.286-22.586 155.861 10.579 61.334 45.603 110.187 104.097 145.201 44.002 26.34 90.112 38.653 125.367 46.439.458.11.871.194 1.275.278l.227.047c104.368 22.764 213.332 16.076 309.473 10.174 72.311-4.439 140.611-8.632 193.905 1.012.942.142 1.942.329 2.944.519z"/></g><path style="fill:#232323" d="M1141.307 1517.571a2.99 2.99 0 0 1-2.075-.833c-31.581-30.239-62.517-58.934-93.764-77.682a3 3 0 0 1 3.088-5.145c31.778 19.067 62.988 48.009 94.826 78.493a3.002 3.002 0 0 1-2.075 5.167zm-92.456-17.096a2.99 2.99 0 0 1-1.964-.733c-14.678-12.721-29.125-22.183-29.269-22.277a3 3 0 0 1 3.277-5.026c.147.096 14.921 9.768 29.921 22.768a3 3 0 0 1-1.965 5.268zm47.178-143.418c-.415 0-.837-.087-1.239-.27-.458-.208-46.285-21.03-90.164-40.227a3 3 0 1 1 2.404-5.497c43.92 19.215 89.784 40.054 90.242 40.262a3 3 0 0 1-1.243 5.732zm-742.018-164.441a3 3 0 0 1-1.294-5.708c28.543-13.614 62.953-23.325 92.048-25.978a3.007 3.007 0 0 1 3.26 2.715 3 3 0 0 1-2.715 3.26c-28.426 2.591-62.074 12.093-90.009 25.418a3.003 3.003 0 0 1-1.29.293z"/></g><path style="fill:#00676c" d="M548.737 1051.422c78.602-86.595 207.49-324.089 195.838-474.274-11.99-154.539-169.193-77.269-355.705 94.588-79.672 73.412-182.516 123.897-209.16 143.881 62.615-13.322 151.874 50.625 223.815 130.559 29.784 33.095 77.268 89.259 145.212 105.246z"/><path style="fill:#fff" d="M1046.655 1086.484a2.5 2.5 0 0 1-2.413-1.854L910.428 584.814a2.501 2.501 0 0 1 4.831-1.294l133.814 499.817a2.5 2.5 0 0 1-2.418 3.147zm-510.268-36.885a2.5 2.5 0 0 1-1.971-4.034c85.486-109.98 145.506-210.711 178.391-299.394 25.861-69.744 35.709-132.797 30.104-192.763a2.5 2.5 0 0 1 4.979-.465c5.676 60.729-4.267 124.503-30.396 194.967-33.062 89.162-93.33 190.34-179.131 300.724a2.5 2.5 0 0 1-1.976.965z"/></g></g></svg></g><g transform="translate(1815.0 1402.0) rotate(0.0 269.5 284.0) scale(1.00019855518628 1.0009569006990837)"><svg width="538.893" height="567.457" viewBox="0 0 538.893 567.457"><path d="M283.823 143.312c-67.688 1.383-231.424 50.619-276.027 223.626-6.841 26.534-37.634 201.072 98.661 196.279 47.855-1.683 266.136 20.745 368.998-23.272 62.609-26.792 72.651-85.369 56.768-159.491-20.275-94.613-114.398-239.881-248.4-237.142z" fill="#d9c6f4"/><path d="M297.752 150.862s-4.712-17.958-7.373-39.135c-2.009-15.991-4.479-36.627-1.701-62.389 2.369-21.966 8.188-41.746 21.552-47.642 19.284-8.508 31.799 17.44 43.672 23.821 14.22 7.642 58.986-12.478 80.538 10.776 6.934 7.481-3.97 29.493 13.612 47.642 7.26 7.495 12.364 4.668 22.12 11.344 3.24 2.217 27.224 18.717 10.209 35.165-6.477 6.261-36.92 15.364-55.016 25.523-32.329 18.149-40.836 40.836-40.836 40.836z" fill="#d9c6f4"/><path d="M408.848 185.011a7.465 7.465 0 0 1-4.779-1.724c-26.449-21.901-70.96-37.786-113.395-40.469a7.5 7.5 0 0 1-7.012-7.958 7.496 7.496 0 0 1 7.959-7.012c45.39 2.87 93.283 20.096 122.014 43.886a7.5 7.5 0 0 1-4.787 13.277z" fill="#fff"/></svg></g><g transform="translate(1837.0 926.0) rotate(0.0 156.0 163.5) scale(1.0014347478599146 1.0002355294671834)"><svg width="311.553" height="326.923" viewBox="0 0 311.553 326.923"><path d="M0 298.916V28.007C0 12.539 13.32 0 29.752 0h252.05c16.431 0 29.752 12.539 29.752 28.007v270.909c0 15.468-13.32 28.007-29.752 28.007H29.752C13.32 326.923 0 314.384 0 298.916z" fill="#232323"/><path d="M35.177 18.182h238.376c6.942 0 12.369 4.598 11.888 15.511l.682 65.642c0 13.313-5.628 13.166-12.57 13.166H35.177c-8.974 0-12.621-4.718-12.595-16.417l.026-61.555c-.472-10.995 5.627-16.347 12.569-16.347z" fill="#fff"/><path d="M273.991 115.501H35.177c-4.852 0-8.461-1.253-11.034-3.832-3.128-3.135-4.578-8.09-4.562-15.592l.026-61.488c-.321-7.869 2.412-12.448 4.766-14.905 2.782-2.905 6.619-4.504 10.804-4.504h238.376c4.268 0 7.91 1.449 10.533 4.19 3.15 3.292 4.616 8.127 4.356 14.369l.681 65.563c0 7.11-1.534 11.539-4.828 13.968-2.966 2.19-6.687 2.231-10.304 2.231zM35.177 21.182c-2.569 0-4.808.918-6.471 2.655-2.226 2.323-3.298 5.976-3.102 10.564.002.043.003.087.003.13l-.026 61.555c-.013 5.73.906 9.439 2.809 11.346 1.409 1.412 3.566 2.07 6.787 2.07h238.602c2.963 0 5.519.001 6.956-1.059 1.585-1.169 2.389-4.233 2.389-9.108l-.682-65.611c0-.054.001-.109.003-.163.199-4.52-.732-7.992-2.693-10.041-1.484-1.552-3.57-2.339-6.198-2.339H35.177z" fill="#232323"/><g fill="#d9c6f4"><path d="M86.272 187.283H31.433c-3.85 0-7-3.15-7-7v-19.236c0-3.85 3.15-7 7-7h54.839c3.85 0 7 3.15 7 7v19.236c0 3.85-3.15 7-7 7zm95.513 0h-54.839c-3.85 0-7-3.15-7-7v-19.236c0-3.85 3.15-7 7-7h54.839c3.85 0 7 3.15 7 7v19.236c0 3.85-3.15 7-7 7zm98.806 0h-54.839c-3.85 0-7-3.15-7-7v-19.236c0-3.85 3.15-7 7-7h54.839c3.85 0 7 3.15 7 7v19.236c0 3.85-3.15 7-7 7zM86.272 239.106H31.433c-3.85 0-7-3.15-7-7V212.87c0-3.85 3.15-7 7-7h54.839c3.85 0 7 3.15 7 7v19.236c0 3.85-3.15 7-7 7zm95.513 0h-54.839c-3.85 0-7-3.15-7-7V212.87c0-3.85 3.15-7 7-7h54.839c3.85 0 7 3.15 7 7v19.236c0 3.85-3.15 7-7 7zm98.806 0h-54.839c-3.85 0-7-3.15-7-7V212.87c0-3.85 3.15-7 7-7h54.839c3.85 0 7 3.15 7 7v19.236c0 3.85-3.15 7-7 7zM86.272 292.78H31.433c-3.85 0-7-3.15-7-7v-19.236c0-3.85 3.15-7 7-7h54.839c3.85 0 7 3.15 7 7v19.236c0 3.85-3.15 7-7 7zm95.513 0h-54.839c-3.85 0-7-3.15-7-7v-19.236c0-3.85 3.15-7 7-7h54.839c3.85 0 7 3.15 7 7v19.236c0 3.85-3.15 7-7 7zm98.806 0h-54.839c-3.85 0-7-3.15-7-7v-19.236c0-3.85 3.15-7 7-7h54.839c3.85 0 7 3.15 7 7v19.236c0 3.85-3.15 7-7 7z"/></g></svg></g><g transform="translate(1453.0 1812.0) rotate(0.0 247.0 79.0) scale(1.0071437891440502 1.0068889044666356)"><svg width="490.496" height="156.919" viewBox="0 0 490.496 156.919"><path d="M459.564 153.173H3V78.501h456.564z" fill="#fff"/><g fill="#232323"><path d="M459.564 156.174H3a3 3 0 0 1-3-3V78.502a3 3 0 0 1 3-3h456.564a3 3 0 0 1 3 3v74.672a3 3 0 0 1-3 3zM6 150.174h450.564V81.502H6z"/><path d="M459.564 105.649h-79.868a3 3 0 1 1 0-6h79.868a3 3 0 1 1 0 6zm-333.442 20.34h-.041L2.96 124.364A3.001 3.001 0 0 1 0 121.325c.021-1.657 1.355-3.007 3.04-2.96l123.121 1.624a3.001 3.001 0 0 1-.039 6z"/></g><path d="M297.94 156.919H168.904V74.084H297.94z" fill="#00676c"/><path d="M487.496 79.09H30.932V4.416h456.564z" fill="#fff"/><path d="M487.496 82.089H30.932a3 3 0 0 1-3-3V4.418a3 3 0 0 1 3-3h456.563a3 3 0 0 1 3 3V79.09a2.998 2.998 0 0 1-2.999 2.999zm-453.564-6h450.563V7.418H33.932z" fill="#232323"/><path d="M487.496 31.565h-79.868a3 3 0 1 1 0-6h79.868a3 3 0 1 1 0 6zm-333.442 20.34h-.041L30.892 50.28a3.001 3.001 0 0 1-2.96-3.039c.021-1.657 1.378-2.998 3.04-2.96l123.121 1.624a3.001 3.001 0 0 1-.039 6z" fill="#232323"/><path d="M325.871 81.724H196.835V0h129.036z" fill="#00676c"/><path d="M327.895 82.089h-131.06a3 3 0 1 1 0-6h131.06a3 3 0 1 1 0 6z" fill="#232323"/></svg></g><g transform="translate(1661.0 1048.0) rotate(0.0 117.0 109.5) scale(1.0832430630780767 1.0715281753196237)"><svg width="216.018" height="204.381" viewBox="0 0 216.018 204.381"><g><g><path style="fill:#fff" d="M3 110.417C280.447-80.062 203.109 40.813 203.109 40.813s-23.566 34.691-32.008 45.827c-24.315 32.075-64.234 87.492-85.031 114.741"/><path style="fill:#232323" d="M86.068 204.381a3.001 3.001 0 0 1-2.382-4.82c10.465-13.712 25.559-34.266 41.538-56.028 15.443-21.031 31.413-42.779 43.487-58.705 8.299-10.947 31.682-45.354 31.917-45.701-.002.001 3.961-6.237 6.736-13.414 1.899-4.913 4.513-13.709.674-17.422-3.128-3.026-13.55-5.73-48.194 10.175C124.571 34.66 72.373 66.429 4.699 112.89a3.001 3.001 0 0 1-3.397-4.946c67.96-46.657 120.461-78.597 156.044-94.933 29.302-13.452 47.247-16.405 54.866-9.029 10.817 10.472-4.764 35.616-6.576 38.448-1.01 1.488-23.752 34.951-32.145 46.022-12.047 15.891-28.002 37.619-43.432 58.632-15.997 21.784-31.106 42.361-41.605 56.117a2.992 2.992 0 0 1-2.386 1.18z"/></g></g></svg></g></svg>