<svg width="254" height="214" fill="none" xmlns="http://www.w3.org/2000/svg"><defs><clipPath id="a"><path fill="#fff" fill-opacity="0" d="M0 0h254v214H0z"/></clipPath></defs><path d="M0 0h254v214H0z"/><g clip-path="url(#a)"><path d="M139.4 197.89c-48.41-11-55.07-115.11-29.22-121.11 12.69-2.95 22.81 15.88 40.56 66.44 23.57-21.74 79.07-53.06 87.45-54.85 4.36-.93 4.1 1.03 2.81 2.4-1.1 1.17-2.45 2.35-2.45 2.35s7.34-2.32 11.66-.6c2.41.97.96 2.58-1.57 3.79-2.06.99-5.68 2.59-7.41 3.39 4.12 1.2 9.92 4.43 12.12 9.44.95 2.17-1.29 2.36-3.64 1.25-2.94-1.4-7.19-2.81-10.04-3.37 3.49 2.82 6.21 7.8 5.77 12.95-.26 3.01-1.86 3.23-3.71.07-1.14-1.94-2.67-4.34-4.69-5.82-4.14-3.06-9.56-.92-9.57 2.26-.02 3.17 2.69 4.45 9.24 5 6.6.55 6.08 2.86.33 5.47-3.49 1.58-7.53 3.4-12.4 6.63-13.29 8.8-20.88 20.89-26.54 28.91-9.31 13.2-28.65 42.23-58.7 35.4z" fill="#FFF"/><path d="M148.32 199.34c-2.98 0-5.99-.35-9.01-1.03-9.63-2.19-23.28-9.46-33.59-31.69-6.85-14.76-10.8-33.4-10.85-51.14-.02-10.25 1.29-19.3 3.78-26.16 2.67-7.36 6.63-11.84 11.44-12.96 6.62-1.53 12.44 2.58 18.84 13.36 5.91 9.94 12.5 25.74 22 52.75 23.62-21.53 78.57-52.68 87.17-54.51 2.18-.47 3.53-.28 3.99.55.38.68.09 1.63-.78 2.55-.39.42-.81.83-1.19 1.2 2.46-.59 7.08-1.39 10.24-.13.98.39 1.48.92 1.51 1.59.04 1.3-1.89 2.42-3.05 2.98-1.32.63-3.26 1.51-4.97 2.28-.51.23-1 .45-1.44.65 2.03.71 4.08 1.76 5.85 3.01 2.56 1.82 4.46 4.01 5.48 6.33.48 1.11.19 1.73-.14 2.05-.7.69-2.3.59-4.07-.25-2.38-1.13-5.66-2.29-8.36-2.97 3.25 3.25 5.07 7.88 4.7 12.2-.18 2.01-.89 2.59-1.46 2.71-.65.15-1.7-.16-3.05-2.45-1.18-2.03-2.65-4.29-4.57-5.7-2.53-1.86-5.3-1.58-6.91-.77-1.24.63-1.98 1.63-1.99 2.69 0 1.44.59 2.4 1.94 3.11 1.37.72 3.57 1.18 6.91 1.46 3.28.28 4.97.98 5.17 2.15.21 1.24-1.37 2.63-4.7 4.13l-.03.02c-3.5 1.58-7.48 3.38-12.3 6.58-11.9 7.88-19.28 18.52-24.67 26.28-.61.89-1.19 1.72-1.76 2.53-.27.38-.56.78-.85 1.2-4.78 6.81-12.01 17.09-21.67 24.8-5.33 4.24-10.85 7.25-16.41 8.93a38.524 38.524 0 01-11.2 1.67zm-8.83-1.86c6.73 1.52 13.38 1.31 19.78-.62 5.46-1.65 10.89-4.61 16.13-8.79 9.57-7.63 16.75-17.86 21.51-24.62.29-.42.57-.82.84-1.21.57-.8 1.15-1.63 1.76-2.52 5.43-7.82 12.86-18.53 24.9-26.5 4.88-3.24 8.89-5.05 12.42-6.65l.03-.01c3.26-1.48 4.31-2.63 4.21-3.22-.04-.25-.49-1.11-4.4-1.44-5.95-.5-9.64-1.58-9.63-5.43.01-1.38.93-2.67 2.46-3.44 1.82-.92 4.96-1.25 7.8.84 2.03 1.51 3.56 3.86 4.8 5.96.96 1.65 1.75 2.14 2.12 2.05.31-.07.68-.62.8-1.95.39-4.57-1.81-9.51-5.62-12.58a.413.413 0 01-.11-.51c.08-.18.27-.28.46-.24 2.95.58 7.21 2.01 10.14 3.4 1.55.74 2.76.76 3.12.41.26-.25.08-.8-.05-1.1-2-4.55-7.39-7.9-11.84-9.2a.439.439 0 01-.31-.38c-.01-.18.09-.35.25-.42.62-.29 1.5-.69 2.44-1.11 1.71-.77 3.64-1.64 4.96-2.27 1.91-.92 2.57-1.75 2.56-2.18-.02-.39-.61-.69-.97-.83-4.12-1.65-11.3.59-11.37.61a.428.428 0 01-.41-.73c.01-.01 1.35-1.18 2.42-2.32.57-.6.84-1.24.66-1.55-.19-.34-1.1-.56-3.07-.14-4.33.92-20.62 9.47-37.9 19.89-21.21 12.78-39.2 25.49-49.35 34.85-.1.1-.25.13-.39.1a.451.451 0 01-.3-.27c-9.59-27.32-16.22-43.24-22.14-53.21-6.18-10.4-11.71-14.4-17.92-12.96-4.52 1.05-8.26 5.35-10.83 12.42-2.46 6.77-3.75 15.71-3.73 25.87.05 17.62 3.97 36.13 10.77 50.78 5.61 12.1 15.89 27.33 33 31.22z" fill="#232323"/><path d="M182.55 119.42c19.66-13.46 50.91-30.04 55.64-31.05 4.36-.93 4.1 1.03 2.81 2.4-1.1 1.17-2.45 2.35-2.45 2.35s7.34-2.32 11.66-.6c2.41.97.96 2.58-1.57 3.79-2.06.99-5.68 2.59-7.41 3.39 4.12 1.2 9.92 4.43 12.12 9.44.95 2.17-1.29 2.36-3.64 1.25-2.94-1.4-7.19-2.81-10.04-3.37 3.49 2.82 6.21 7.8 5.77 12.95-.26 3.01-1.86 3.23-3.71.07-1.14-1.94-2.67-4.34-4.69-5.82-4.14-3.06-9.56-.92-9.57 2.26-.02 3.17 2.69 4.45 9.24 5 6.6.55 6.08 2.86.33 5.47-3.49 1.58-7.53 3.4-12.4 6.63-5.21 3.45-11.5 9.29-16.48 15.12-5.68-3.61-19.11-15.54-25.61-29.28z" fill="#232323"/><path d="M208.16 149.13c-.08 0-.16-.03-.23-.07-2.6-1.65-7.45-5.5-12.57-10.91-4.02-4.24-9.58-10.91-13.2-18.55a.426.426 0 01.15-.53c8.74-5.99 20.93-13.35 33.45-20.22 10.96-6 19.94-10.38 22.34-10.89 2.18-.47 3.53-.28 3.99.55.38.68.09 1.63-.78 2.55-.39.42-.82.84-1.2 1.2.71-.17 1.6-.35 2.59-.5 3.22-.5 5.8-.37 7.66.37.98.39 1.48.92 1.51 1.59.04 1.3-1.89 2.42-3.05 2.98-1.32.63-3.26 1.51-4.97 2.28-.5.22-1 .45-1.44.65 2.03.71 4.08 1.76 5.85 3.01 2.56 1.82 4.46 4.01 5.48 6.33.48 1.11.19 1.73-.14 2.05-.86.84-2.73.39-4.07-.25-2.38-1.13-5.66-2.29-8.36-2.97 3.25 3.25 5.07 7.88 4.7 12.2-.18 2.01-.89 2.58-1.46 2.71-.65.15-1.7-.16-3.05-2.45-1.18-2.03-2.65-4.29-4.57-5.7-2.53-1.86-5.3-1.58-6.91-.77-1.24.63-1.98 1.63-1.99 2.69 0 1.44.59 2.4 1.94 3.11 1.37.72 3.57 1.18 6.91 1.46 3.28.27 4.97.98 5.17 2.15.21 1.24-1.37 2.63-4.7 4.13l-.03.02c-3.5 1.58-7.48 3.38-12.3 6.58-5.02 3.32-11.3 9.09-16.4 15.05-.08.09-.2.15-.32.15zm-25.07-29.56c3.57 7.4 8.96 13.85 12.88 18 4.87 5.14 9.49 8.85 12.11 10.57 5.1-5.91 11.33-11.61 16.33-14.92 4.88-3.24 8.89-5.05 12.42-6.65l.03-.01c3.26-1.48 4.31-2.63 4.21-3.22-.04-.25-.49-1.11-4.4-1.44-5.95-.5-9.64-1.58-9.63-5.43.01-1.38.93-2.67 2.46-3.44 1.82-.92 4.96-1.25 7.8.84 2.03 1.51 3.57 3.86 4.8 5.96.96 1.65 1.75 2.14 2.12 2.05.31-.07.68-.62.8-1.95.39-4.57-1.81-9.51-5.62-12.58a.416.416 0 01-.11-.51c.08-.18.27-.28.46-.24 2.95.58 7.22 2.01 10.14 3.4 1.55.74 2.76.76 3.12.41.26-.25.08-.8-.05-1.1-2-4.55-7.39-7.9-11.84-9.21-.17-.04-.3-.2-.31-.37-.01-.18.09-.35.25-.42.62-.29 1.5-.69 2.44-1.11 1.71-.77 3.64-1.64 4.96-2.27 1.91-.92 2.57-1.75 2.56-2.18-.02-.39-.61-.69-.97-.83-4.12-1.65-11.3.59-11.37.61a.428.428 0 01-.41-.73c.01-.01 1.35-1.18 2.42-2.32.57-.6.84-1.24.66-1.55-.19-.34-1.1-.56-3.07-.14-4.53.97-35.38 17.26-55.19 30.78z" fill="#232323"/><mask id="b" maskUnits="userSpaceOnUse" x="193.183" y="88.139" width="60.398" height="56.875"><path d="M193.18 112.59c20.54-12.79 40.28-23.21 45.01-24.22 4.36-.93 4.65 1.08 3.36 2.45-1.11 1.17-1.4 1.44-1.4 1.44s5.74-1.46 10.06.26c2.41.97 1.26 2.91-1.28 4.12-2.06.99-4.79 2.2-6.51 2.99 4.11 1.2 8.73 4.5 10.93 9.51.95 2.17-1.21 2.87-3.56 1.76-2.94-1.4-6-2.38-8.58-3.08 2.83 2.99 4.68 7 4.23 12.15-.26 3.01-1.86 3.23-3.71.07-1.14-1.94-2.67-4.34-4.69-5.82-4.13-3.06-9.56-.92-9.57 2.26-.02 3.17 2.69 4.45 9.24 5 6.6.55 6.08 2.86.33 5.47-3.49 1.58-7.53 3.4-12.4 6.63-5.21 3.45-9.55 7.41-13.24 11.43-8.82-8.03-17.64-23.7-18.22-32.42z" fill="#000"/></mask><g mask="url(#b)"><path d="M229.36 97.17c-.13 0-.26-.05-.34-.17a.418.418 0 01.08-.59c.22-.17 5.38-4.03 14.06-5.79.23-.04.45.11.5.34.04.23-.11.45-.34.5-8.48 1.72-13.65 5.59-13.71 5.63-.07.06-.16.08-.25.08z" fill="#FFF"/></g><mask id="c" maskUnits="userSpaceOnUse" x="193.183" y="88.139" width="60.398" height="56.875"><path d="M193.18 112.59c20.54-12.79 40.28-23.21 45.01-24.22 4.36-.93 4.65 1.08 3.36 2.45-1.11 1.17-1.4 1.44-1.4 1.44s5.74-1.46 10.06.26c2.41.97 1.26 2.91-1.28 4.12-2.06.99-4.79 2.2-6.51 2.99 4.11 1.2 8.73 4.5 10.93 9.51.95 2.17-1.21 2.87-3.56 1.76-2.94-1.4-6-2.38-8.58-3.08 2.83 2.99 4.68 7 4.23 12.15-.26 3.01-1.86 3.23-3.71.07-1.14-1.94-2.67-4.34-4.69-5.82-4.13-3.06-9.56-.92-9.57 2.26-.02 3.17 2.69 4.45 9.24 5 6.6.55 6.08 2.86.33 5.47-3.49 1.58-7.53 3.4-12.4 6.63-5.21 3.45-9.55 7.41-13.24 11.43-8.82-8.03-17.64-23.7-18.22-32.42z" fill="#000"/></mask><g mask="url(#c)"><path d="M247.39 101.19c-.07 0-.14-.02-.2-.05-6.1-3.25-13.75-.8-13.83-.77a.42.42 0 01-.53-.28c-.08-.22.05-.46.27-.53.32-.11 8.06-2.6 14.49.83.21.11.28.37.17.57-.07.15-.22.23-.37.23z" fill="#FFF"/></g><mask id="d" maskUnits="userSpaceOnUse" x="193.183" y="88.139" width="60.398" height="56.875"><path d="M193.18 112.59c20.54-12.79 40.28-23.21 45.01-24.22 4.36-.93 4.65 1.08 3.36 2.45-1.11 1.17-1.4 1.44-1.4 1.44s5.74-1.46 10.06.26c2.41.97 1.26 2.91-1.28 4.12-2.06.99-4.79 2.2-6.51 2.99 4.11 1.2 8.73 4.5 10.93 9.51.95 2.17-1.21 2.87-3.56 1.76-2.94-1.4-6-2.38-8.58-3.08 2.83 2.99 4.68 7 4.23 12.15-.26 3.01-1.86 3.23-3.71.07-1.14-1.94-2.67-4.34-4.69-5.82-4.13-3.06-9.56-.92-9.57 2.26-.02 3.17 2.69 4.45 9.24 5 6.6.55 6.08 2.86.33 5.47-3.49 1.58-7.53 3.4-12.4 6.63-5.21 3.45-9.55 7.41-13.24 11.43-8.82-8.03-17.64-23.7-18.22-32.42z" fill="#000"/></mask><g mask="url(#d)"><path d="M242.86 109.28c-.13 0-.26-.06-.34-.17-2.59-3.5-9.17-3.49-9.23-3.49a.413.413 0 01-.43-.42c0-.23.19-.43.42-.43.07 0 1.78-.01 3.85.44 2.79.61 4.89 1.79 6.07 3.39.14.19.1.46-.09.6-.07.05-.16.08-.25.08z" fill="#FFF"/></g><path d="M119.69 78.46c11.72 7.22 26.37 49.56 28.91 57.46-4.88 3.3-15.24 12.5-19.75 18.61-11.82 16-19.13-69.44-19.13-69.44l9.97-6.63z" fill="#00676C"/><mask id="e" maskUnits="userSpaceOnUse" x="95.643" y="76.178" width="157.933" height="122.742"><path d="M139.4 197.89c-48.41-11-54.57-115.42-28.72-121.42 12.69-2.95 22.31 16.19 40.06 66.75 23.57-21.74 79.07-53.06 87.45-54.85 4.36-.93 4.11 1.03 2.81 2.4-1.1 1.17-2.45 2.35-2.45 2.35s7.34-2.32 11.66-.6c2.41.97.96 2.58-1.57 3.79-2.06.99-5.68 2.59-7.4 3.39 4.11 1.2 9.91 4.43 12.11 9.44.95 2.17-1.29 2.36-3.64 1.25-2.94-1.4-7.19-2.81-10.04-3.37 3.49 2.82 6.22 7.8 5.77 12.95-.26 3.01-1.86 3.23-3.71.07-1.14-1.94-2.67-4.34-4.69-5.82-4.13-3.06-9.56-.92-9.57 2.25-.02 3.18 2.69 4.46 9.24 5.01 6.6.55 6.08 2.86.33 5.47-3.49 1.58-7.53 3.4-12.4 6.63-13.29 8.8-20.88 20.89-26.54 28.91-9.31 13.2-28.65 42.23-58.7 35.4z" fill="#000"/></mask><g mask="url(#e)"><path d="M145.55 149.41c-.09 0-.19-.04-.27-.1a.427.427 0 01-.06-.6c.03-.04 3.6-4.48 7.4-7.85.18-.15.44-.14.6.04.16.18.14.45-.04.6-3.74 3.32-7.26 7.7-7.3 7.75-.08.1-.21.16-.33.16z" fill="#232323"/></g><path d="M148.09 10.49a9.753 9.753 0 00-8.79-1.53c-1.23-10.28-14.4-10.92-17.49-3.84-7.66-8.43-20.39-.44-18.22 8.38.8 3.23 1.88 9.89-.39 14.72 3.98 2.77 10.15 14.9 10.15 14.9s21.83-12.22 29.66-13.11c11.62-1.87 10.95-15.8 5.08-19.52z" fill="#232323"/><path d="M113.35 43.55c-.04 0-.08-.01-.12-.02a.467.467 0 01-.26-.22c-.06-.12-6.16-12.06-10.01-14.74a.422.422 0 01-.14-.53c.77-1.65 2.35-6.34.36-14.44-.54-2.19-.23-4.43.88-6.5 1.02-1.9 2.7-3.53 4.71-4.61 2.12-1.13 4.43-1.58 6.68-1.28 2.32.3 4.46 1.4 6.24 3.18 1.7-3.14 5.57-4.88 9.64-4.28 3.51.52 7.47 2.98 8.32 8.3 2.99-.76 6.2-.14 8.68 1.73 3.25 2.07 5 7.11 4.05 11.72-.95 4.65-4.34 7.77-9.31 8.57h-.02c-7.65.87-29.27 12.94-29.49 13.06a.37.37 0 01-.21.06zm-9.62-15.47c3.65 2.85 8.71 12.36 9.8 14.46 3.04-1.69 22.07-12.11 29.42-12.95 4.59-.75 7.72-3.62 8.6-7.9.88-4.29-.71-8.95-3.69-10.84-.01-.01-.02-.01-.03-.02a9.38 9.38 0 00-8.41-1.47c-.12.04-.25.02-.35-.05a.399.399 0 01-.19-.3c-.63-5.19-4.37-7.57-7.67-8.05-3.94-.59-7.64 1.2-9.01 4.33a.43.43 0 01-.32.25.459.459 0 01-.39-.13c-3.94-4.35-8.95-3.97-12.32-2.17-1.87 1-3.42 2.51-4.36 4.27-1.01 1.87-1.29 3.91-.81 5.88.32 1.31.87 3.93.97 6.86.1 3.07-.32 5.71-1.24 7.83z" fill="#232323"/><mask id="f" maskUnits="userSpaceOnUse" x="103.205" y=".272" width="48.212" height="42.854"><path d="M148.09 10.49c-2.52-1.9-4.68-3-8.44-2.08-1.69-10.06-14.75-10.37-17.84-3.29-7.66-8.43-20.39-.44-18.22 8.38.8 3.23 1.88 9.89-.39 14.72 3.98 2.77 10.15 14.9 10.15 14.9s21.87-12.26 29.69-13.14c9.77-1.11 10.34-15.32 5.05-19.49z" fill="#000"/></mask><g mask="url(#f)"><path d="M134.89 13.03c-.07 0-.13-.02-.19-.05a.42.42 0 01-.19-.57c1.57-3.15 3.68-4.42 5.18-4.93 1.63-.56 2.89-.36 2.95-.35.23.04.38.26.35.49-.04.23-.26.39-.49.35-.19-.03-4.5-.65-7.23 4.82a.44.44 0 01-.38.24z" fill="#FFF"/></g><path d="M145.78 57.72c-.21 2.73-2.09 5.32-5.17 6.46-8.03 2.98-17.35-.81-17.35-.81s-1.8 5.91-3.25 15.29c-.87 11.13-25.41-.03-34.1-11.74 0 0 10.17-9.86 16.34-19.44-5.09-1.52-12.28-8.26-9.89-15.12 1.36-3.91 6.15-6.53 10.13-4.66 3.87 1.81 5.02 4.48 7.73 8.55 2.51 3.79 3.68 2.07 6.33-1.6 2.15-2.91 3.22-4.1 5.49-5.71 5.34-3.75 15.48-.4 20.97 1.07-.94 4.69-.5 5.42-.61 9.72-.22 7.55 3.87 11.6 3.38 17.99z" fill="#FFF"/><path d="M114.19 83.68c-3.46 0-8.12-1.44-13.25-4.13-6.35-3.34-12.1-7.97-15.37-12.38a.428.428 0 01.05-.56c.1-.09 9.88-9.61 15.97-18.9-3.07-1.11-6.98-4.05-8.92-7.86-1.31-2.56-1.56-5.2-.71-7.63.75-2.16 2.52-4 4.72-4.93 2.02-.85 4.14-.84 5.99.02 3.33 1.56 4.73 3.76 6.66 6.79.39.61.79 1.24 1.24 1.92.86 1.29 1.56 1.92 2.15 1.94h.01c.91 0 1.95-1.44 3.39-3.43l.09-.13c2.15-2.91 3.25-4.16 5.58-5.81 5.01-3.51 13.84-1.06 19.68.56.58.16 1.13.31 1.65.45.21.06.35.27.3.49-.65 3.25-.62 4.57-.59 6.55.01.85.03 1.82 0 3.1-.11 3.75.86 6.61 1.8 9.38.94 2.77 1.82 5.39 1.57 8.63-.23 3.05-2.32 5.67-5.44 6.83-7.19 2.67-15.25.07-17.22-.65-.44 1.53-1.9 6.97-3.11 14.78-.19 2.4-1.46 4-3.68 4.64-.75.22-1.61.33-2.56.33zM86.48 66.96c3.23 4.22 8.75 8.63 14.86 11.83 6.25 3.28 11.92 4.68 15.18 3.74 1.87-.54 2.91-1.85 3.07-3.9v-.04c1.44-9.3 3.24-15.29 3.26-15.34a.41.41 0 01.22-.26c.11-.06.24-.06.35-.02.06.03 4.81 1.92 10.35 1.92 2.19 0 4.5-.29 6.69-1.11 2.81-1.04 4.69-3.38 4.9-6.1.23-3.06-.63-5.6-1.54-8.29-.96-2.84-1.96-5.78-1.84-9.67.03-1.27.01-2.22 0-3.06-.03-1.96-.06-3.28.53-6.34-.4-.11-.83-.23-1.27-.35-5.68-1.58-14.28-3.96-18.96-.68-2.25 1.59-3.27 2.74-5.38 5.61l-.1.13c-1.64 2.27-2.72 3.78-4.07 3.78h-.03c-.91-.02-1.79-.74-2.84-2.32-.45-.68-.86-1.32-1.25-1.93-1.92-3.02-3.19-5.02-6.3-6.48-1.63-.76-3.51-.76-5.3-.01-1.99.84-3.57 2.5-4.25 4.43-.78 2.23-.55 4.58.67 6.97 1.94 3.82 5.97 6.71 8.94 7.6.13.04.23.14.28.26.05.13.03.27-.04.38-5.57 8.65-14.48 17.61-16.13 19.25z" fill="#232323"/><mask id="g" maskUnits="userSpaceOnUse" x="85.958" y="26.211" width="59.868" height="59.477"><path d="M145.78 57.72c-.21 2.73-2.08 5.32-5.17 6.46-8.02 2.98-17.35-.81-17.35-.81s-1.99 5.28-3.45 14.67c-6.38 18.95-30.36-2.12-33.86-11.85 0 0 10.13-9.13 16.3-18.71-5.09-1.52-12.28-8.26-9.89-15.12 1.36-3.91 6.15-6.53 10.13-4.66 3.87 1.81 5.02 4.48 7.73 8.55 2.51 3.79 3.68 2.07 6.33-1.6 2.15-2.91 4.82-5.4 7.88-7.32 5.21-3.15 13.12 1.18 18.61 2.65-.97 4.18-.53 5.45-.64 9.75-.22 7.55 3.87 11.6 3.38 17.99z" fill="#000"/></mask><g mask="url(#g)"><path d="M105.45 48.5c-4.71 0-6.69-1.27-6.77-1.33a.433.433 0 01-.13-.59c.13-.2.4-.25.59-.12.03.02 2.05 1.28 6.82 1.18h.01c.23 0 .42.19.42.42a.41.41 0 01-.41.43c-.18.01-.36.01-.53.01z" fill="#232323"/></g><mask id="h" maskUnits="userSpaceOnUse" x="85.958" y="26.211" width="59.868" height="59.477"><path d="M145.78 57.72c-.21 2.73-2.08 5.32-5.17 6.46-8.02 2.98-17.35-.81-17.35-.81s-1.99 5.28-3.45 14.67c-6.38 18.95-30.36-2.12-33.86-11.85 0 0 10.13-9.13 16.3-18.71-5.09-1.52-12.28-8.26-9.89-15.12 1.36-3.91 6.15-6.53 10.13-4.66 3.87 1.81 5.02 4.48 7.73 8.55 2.51 3.79 3.68 2.07 6.33-1.6 2.15-2.91 4.82-5.4 7.88-7.32 5.21-3.15 13.12 1.18 18.61 2.65-.97 4.18-.53 5.45-.64 9.75-.22 7.55 3.87 11.6 3.38 17.99z" fill="#000"/></mask><g mask="url(#h)" fill="#232323"><path d="M123.26 63.37s-5.97-2.92-8.69-6.78c-1.41.56-3.05 9.28 6.61 13.92 7.42 3.56 2.08-7.14 2.08-7.14z"/><path d="M123.64 71.66c-.7 0-1.57-.25-2.64-.77-2.91-1.39-5.07-3.27-6.42-5.57-1.04-1.76-1.57-3.79-1.5-5.7.06-1.73.6-3.14 1.33-3.42a.41.41 0 01.5.15c2.63 3.72 8.47 6.61 8.53 6.64.09.04.15.11.2.19.31.63 3.04 6.24 1.34 7.98-.33.33-.78.5-1.34.5zm-9.14-14.44c-.23.38-.53 1.18-.57 2.43-.22 6.3 5.64 9.61 7.44 10.48 1.5.72 2.57.87 3 .43.5-.51.41-1.92-.23-3.89-.44-1.36-1.02-2.59-1.2-2.98-.89-.45-5.79-3.03-8.44-6.47z"/></g><path d="M137.07 49.97c-.37.34-.81.58-1.29.72-.46.14-.94.21-1.43.2-.98 0-1.93-.29-2.75-.83-.41-.28-.77-.62-1.08-1-.31-.38-.56-.81-.73-1.28-.37-.91-.39-1.93-.05-2.86.12-.3.45-.45.75-.33.23.08.38.3.37.55v.04c-.01.67.15 1.34.46 1.93.15.29.34.56.56.8.22.25.46.46.73.65.56.36 1.19.58 1.85.67.66.1 1.33.03 1.96-.21l.04-.02c.29-.12.63.03.76.32.09.23.03.49-.15.65zm-31.24-8.52a.42.42 0 01-.42-.36c-.44-3.06-1.77-5.31-3.93-6.69-1.63-1.03-3.15-1.17-3.17-1.17a.423.423 0 01-.39-.45c.02-.24.22-.41.46-.4.07.01 1.72.15 3.52 1.28 1.65 1.04 3.75 3.15 4.35 7.31.04.23-.12.44-.36.48h-.06zm29.65 2.27a.41.41 0 01-.38-.25.42.42 0 01.2-.56c1.09-.52 1.68-1 1.8-1.45.13-.5-.27-1.15-.96-2.15-1.86-2.72-1.06-4.34-1.02-4.41.1-.2.36-.28.57-.18.2.11.29.37.18.57-.01.02-.14.33-.1.89.04.55.26 1.46 1.07 2.65.71 1.04 1.33 1.93 1.08 2.85-.19.73-.89 1.34-2.25 2-.06.02-.13.04-.19.04z" fill="#232323"/><path d="M104.03 23.26c11.04 4.15 34.55 1.7 39.36 7.13 0 0-.61 5.87-.52 10.78 0 0-5.34-.85-6.41-2.59 0 0-.4-.4-.67 0 0 0-3.47 5.35-14.42.13-4.78-2.28-16.86-10.18-18.33-11.22l.99-4.23z" fill="#D9C6F4"/><path d="M141.71 34.23c-1.22.31-2.15.32-4.45.32a.775.775 0 00-.79.77c-.01 1.12.66 2.17 2.45 2.15 2-.02 3.06-1.63 3.28-2.77.05-.22-.1-.43-.31-.47-.06-.02-.12-.01-.18 0zm-16.3-1.06c1.22.33 4.12 1.19 7.2 1.19.43 0 .78.35.78.78v.01c-.01 1.12-.34 2.93-2.45 2.65-2.58-.34-5.75-2.83-6.03-4.17-.04-.22.11-.43.33-.47.05-.01.12-.01.17.01z" fill="#232323"/><path d="M85.92 66.25c-1.87.86-4.1 1.8-6.41 2.72-13.28 5.33-24.54 14.75-32.07 26.95-10.69 17.31-22.8 45.38-23.89 84.62l46.6 2.42 61.93 2.4s9.74-52.17-12.47-106.95c0 0-.91 4.89-7.47 3.77-15.44-2.65-26.22-15.93-26.22-15.93z" fill="#00676C"/><mask id="i" maskUnits="userSpaceOnUse" x="64.004" y="66.256" width="72.941" height="86.189"><path d="M85.92 66.25C78.08 69.87 64 74.75 64 74.75l16.26 77.17 1.77.52 50.82-2.63 3.18-3.33s6.58-12.77-15.63-67.55c-1.39-1.11-4.77-2.23-6.24-2.31 7.47 17.27-28.24-10.37-28.24-10.37z" fill="#000"/></mask><g mask="url(#i)"><path d="M78.14 160.79c-.04 0-.09-.01-.13-.03a.43.43 0 01-.27-.54c.06-.18 6.35-18.95 9.62-39.61 1.92-12.12 2.44-22.51 1.55-30.88-1.1-10.38-4.38-17.64-9.76-21.59-2.11-1.55-4.4-1.51-8.44-.86a.435.435 0 01-.49-.36.42.42 0 01.36-.48c3.57-.58 6.51-.87 9.07 1.02 5.58 4.09 8.98 11.55 10.11 22.19.9 8.44.37 18.91-1.56 31.1-3.29 20.74-9.59 39.56-9.65 39.75-.06.17-.23.29-.41.29z" fill="#FFF"/></g><mask id="j" maskUnits="userSpaceOnUse" x="64.004" y="66.256" width="72.941" height="86.189"><path d="M85.92 66.25C78.08 69.87 64 74.75 64 74.75l16.26 77.17 1.77.52 50.82-2.63 3.18-3.33s6.58-12.77-15.63-67.55c-1.39-1.11-4.77-2.23-6.24-2.31 7.47 17.27-28.24-10.37-28.24-10.37z" fill="#000"/></mask><g mask="url(#j)"><path d="M134.7 161.51h-.01a.422.422 0 01-.41-.43c.25-11-.6-22.76-2.51-34.97-1.53-9.77-3.74-19.85-6.58-29.95-4.83-17.19-9.85-28.63-9.9-28.74-.1-.22 0-.47.21-.56.22-.1.47 0 .56.21.06.12 5.1 11.61 9.95 28.86 2.84 10.13 5.07 20.24 6.6 30.05 1.92 12.25 2.77 24.07 2.52 35.11-.01.24-.2.42-.43.42z" fill="#FFF"/></g><mask id="k" maskUnits="userSpaceOnUse" x="64.004" y="66.256" width="72.941" height="86.189"><path d="M85.92 66.25C78.08 69.87 64 74.75 64 74.75l16.26 77.17 1.77.52 50.82-2.63 3.18-3.33s6.58-12.77-15.63-67.55c-1.39-1.11-4.77-2.23-6.24-2.31 7.47 17.27-28.24-10.37-28.24-10.37z" fill="#000"/></mask><g mask="url(#k)"><path d="M103.36 96.62c-1.15 0-2.48-.34-3.98-1.27-2.98-1.86-5.63-6.16-9.64-12.67-1.46-2.37-3.12-5.07-5.05-8.06a.424.424 0 11.71-.46c1.93 3 3.6 5.7 5.06 8.07 3.95 6.41 6.56 10.64 9.37 12.39 2.37 1.48 4.56 1.54 6.49.17 1.87-1.32 3.37-3.9 4.24-7.25.81-3.16.94-6.61.35-9.5-.03-.15-.05-.22-.05-.23-.05-.23.1-.45.33-.5.23-.05.45.1.5.33.02.07.03.15.05.23.25 1.14 1.49 6.49 3.94 11.28 2.03 3.96 4.05 5.29 5.07 4.84 1.25-.54 2.56-4.59-1.46-16.06a.424.424 0 11.8-.28c1.69 4.81 2.63 8.96 2.74 12.01.13 3.55-.88 4.74-1.74 5.12-1.76.75-4.12-1.25-6.17-5.24-1.22-2.39-2.15-4.92-2.81-7.02-.05 1.75-.29 3.53-.73 5.23-.91 3.55-2.54 6.3-4.57 7.74-.85.6-2.01 1.13-3.45 1.13z" fill="#FFF"/></g><mask id="l" maskUnits="userSpaceOnUse" x="64.004" y="66.256" width="72.941" height="86.189"><path d="M85.92 66.25C78.08 69.87 64 74.75 64 74.75l16.26 77.17 1.77.52 50.82-2.63 3.18-3.33s6.58-12.77-15.63-67.55c-1.39-1.11-4.77-2.23-6.24-2.31 7.47 17.27-28.24-10.37-28.24-10.37z" fill="#000"/></mask><g mask="url(#l)"><path d="M109.11 114.4c-.22 0-.41-.17-.43-.39-.02-.23.16-.44.39-.46.03 0 2.91-.26 4.11-2.15 2.4-3.76.69-18.69-2.08-31.82-.05-.23.1-.45.33-.5.23-.05.45.1.5.33 2.6 12.32 4.67 28.21 1.97 32.44-1.44 2.25-4.62 2.54-4.76 2.55h-.03z" fill="#FFF"/></g><mask id="m" maskUnits="userSpaceOnUse" x="60.326" y="73.48" width="99.773" height="90.037"><path d="M65.07 123.37c1.83 8.45 3.55 23.28 3.55 23.28l78.71.85.89-1.62 8.41-50.26-2.56-3.84s-11.02-9.2-69.2.63c-1.38 1.11-3.21 4.17-3.6 5.59 18.44-3.56-16.2 25.37-16.2 25.37z" fill="#000"/></mask><g mask="url(#m)"><path d="M111.22 106.96c.48.11.79.59.68 1.08-.11.48-.58.79-1.07.68a.9.9 0 01-.68-1.07c.11-.49.59-.79 1.07-.69z" fill="#FFF" fill-rule="evenodd"/></g><mask id="n" maskUnits="userSpaceOnUse" x="67.041" y="67.506" width="99.773" height="90.037"><path d="M71.78 117.39c1.84 8.45 3.55 23.28 3.55 23.28l78.72.85.89-1.62 8.41-50.26-2.56-3.83s-11.02-9.21-69.2.62c-1.38 1.11-3.21 4.18-3.61 5.6 18.45-3.56-16.2 25.36-16.2 25.36z" fill="#000"/></mask><g mask="url(#n)"><path d="M110.86 99.78c.49.11.79.59.69 1.08a.9.9 0 01-1.07.68.892.892 0 01-.68-1.07c.1-.49.58-.79 1.06-.69z" fill="#FFF" fill-rule="evenodd"/></g><path d="M80.59 152.17C58.64 144.14-.35 153.63.47 169.61c.9 17.6 80.12-17.44 80.12-17.44z" fill="#232323"/><path d="M9.24 174.98c-3.05 0-5.34-.47-6.87-1.42-1.46-.89-2.24-2.22-2.33-3.93-.15-2.95 1.59-5.79 5.17-8.44 6.88-5.09 20.53-9.3 36.52-11.27 15.91-1.96 30.49-1.27 39.01 1.85.16.06.27.21.28.38 0 .18-.1.34-.26.41-.16.07-16.54 7.3-34.26 13.47-17.11 5.96-29.58 8.95-37.26 8.95zm49.62-25.31c-5.32 0-11.08.36-17.03 1.1-15.85 1.94-29.35 6.1-36.12 11.11-3.33 2.46-4.95 5.06-4.82 7.7.08 1.44.7 2.51 1.92 3.26 5.09 3.14 20.1.51 43.4-7.61 15.19-5.29 29.39-11.36 33.21-13.01-5.17-1.69-12.34-2.55-20.56-2.55z" fill="#232323"/><path d="M39.76 207.05c22.07 11.88 55.54 5.74 89.28-4.23 22.87-6.76 35.37-3.65 46.26 1.87 5.06 2.56 8.75 1.67 5.95-3.19-2.07-3.61-6.84-7.33-6.84-7.33a98.16 98.16 0 0114.66 9.14c6.3 4.76 4.52-5.29-.87-9.54.14.09 2.33 1.57 4.86 3.43 6.84 5.04 3.85-3.13 2.02-5.01 6.93 5.3 3.11-12.49-20.77-22.67.63-.47 4.83-3.57 6.77-6.55 4.54-6.96-11.83.06-21.42.51-20.96.97-49.98-4.3-82.24-1.53 14.17-39.92 16.89-82.7 3.19-91.3-10.94-6.17-31.68 1.89-52.06 42.46-20.21 40.24-15.09 79.79 11.21 93.94z" fill="#FFF"/><path d="M69.99 214c-12.23 0-22.25-2.17-30.43-6.58-12.89-6.93-21.16-20.26-23.27-37.51-1.04-8.49-.58-17.65 1.37-27.22 2.01-9.87 5.54-19.89 10.51-29.77 6.48-12.9 13.37-23.26 20.48-30.82 6.23-6.62 12.45-10.92 18.48-12.76 5.1-1.56 9.83-1.24 13.68.94.01 0 .02 0 .02.01 6.63 4.16 9.85 16.34 9.06 34.28-.74 16.88-5.06 37.58-11.85 56.9 18.85-1.56 36.56-.4 52.2.62 10.72.7 20.85 1.36 29.4.96 3.35-.15 7.64-1.14 11.43-2.02 6.34-1.46 9.97-2.22 10.98-.77.45.65.26 1.61-.61 2.94-1.62 2.48-4.74 5.04-6.29 6.22 16.22 7.13 23.28 17.93 23.44 22.2.05 1.14-.4 1.61-.78 1.81-.37.2-.83.21-1.36.03.97 1.78 1.81 4.33.92 5.36-.74.86-2.24.44-4.56-1.27-.59-.43-1.15-.84-1.67-1.21 2.09 3.03 2.97 6.65 1.9 8.04-.55.71-1.72 1.16-4.23-.73a98.38 98.38 0 00-11.37-7.39c1.45 1.39 3.14 3.21 4.18 5.03 1.48 2.57 1.08 3.86.48 4.49-1.11 1.19-3.79.91-6.99-.71-6.44-3.26-12.14-4.96-18.48-5.49-7.9-.67-16.89.52-27.47 3.65-19.97 5.9-35.57 9.18-49.1 10.32-3.51.3-6.86.45-10.07.45zm-30.02-7.33c10.16 5.48 23.26 7.45 40.02 6.03 13.47-1.13 29.02-4.4 48.93-10.29 10.68-3.16 19.77-4.36 27.78-3.68 6.46.54 12.25 2.27 18.79 5.58 3.19 1.62 5.31 1.61 6 .89.56-.6.35-1.84-.6-3.49-2.02-3.49-6.69-7.17-6.74-7.2a.446.446 0 01-.1-.57.43.43 0 01.55-.15c5.16 2.61 10.11 5.7 14.72 9.18 1.5 1.13 2.61 1.46 3.05.89 1.04-1.36-.82-6.91-4.43-9.76a.415.415 0 01-.08-.58c.13-.19.39-.23.58-.1.02.01 2.26 1.52 4.87 3.44 2.08 1.54 3.13 1.73 3.42 1.4.68-.79-.72-4.5-1.96-5.77a.43.43 0 01-.01-.58c.15-.17.4-.19.57-.06 1.38 1.06 1.95.9 2.09.82.31-.16.34-.7.32-1.01-.07-1.87-1.82-5.57-5.56-9.59-3.13-3.37-8.8-8.22-18.04-12.15a.42.42 0 01-.25-.35c-.02-.15.04-.3.17-.39 1.11-.82 4.88-3.71 6.67-6.45.63-.96.85-1.66.62-1.99-.73-1.04-5.7.11-10.09 1.12-3.82.88-8.15 1.88-11.59 2.04-8.59.4-18.74-.26-29.48-.96-15.8-1.03-33.7-2.2-52.73-.56a.43.43 0 01-.38-.17.435.435 0 01-.06-.4c6.89-19.42 11.27-40.29 12.02-57.27.78-17.62-2.3-29.53-8.65-33.53-3.64-2.05-8.14-2.34-13.02-.85-5.88 1.79-11.97 6.01-18.11 12.53-7.05 7.49-13.89 17.79-20.33 30.61-4.93 9.82-8.44 19.76-10.44 29.56-1.93 9.48-2.38 18.55-1.35 26.95 1.02 8.36 3.48 15.77 7.3 22.03 3.91 6.4 9.13 11.39 15.53 14.83z" fill="#232323"/><path d="M129.04 202.82c24.25-6.04 35.37-3.65 46.26 1.87 5.05 2.56 8.75 1.67 5.95-3.19-2.07-3.61-6.84-7.33-6.84-7.33a98.16 98.16 0 0114.66 9.14c6.3 4.76 4.52-5.29-.87-9.54.14.09 2.33 1.57 4.86 3.43 6.84 5.04 3.85-3.13 2.02-5.01 6.93 5.3 3.11-12.49-20.77-22.67.63-.47 4.83-3.57 6.77-6.55 4.54-6.96-11.83.06-21.42.51-8.65.4-18.67-.26-29.72-.98-4.06 5.7-5.31 31.09-.9 40.32z" fill="#232323"/><path d="M180 206.51c-1.31 0-3.01-.49-4.89-1.44-11.14-5.64-22.23-7.75-45.97-1.84-.2.05-.4-.04-.49-.22-2.03-4.27-3.07-12.38-2.76-21.69.29-8.83 1.74-16.32 3.7-19.07.09-.12.23-.19.38-.18l.27.02c10.72.7 20.85 1.36 29.4.96 3.35-.15 7.64-1.14 11.43-2.02 5.76-1.33 9.92-2.29 10.98-.77.45.65.26 1.61-.61 2.94-1.62 2.48-4.74 5.04-6.29 6.22 16.22 7.13 23.28 17.93 23.44 22.2.05 1.14-.4 1.61-.78 1.81-.37.19-.82.21-1.34.04.3.55.58 1.18.81 1.8.42 1.18.78 2.75.09 3.55-.74.86-2.24.44-4.56-1.27-.59-.43-1.15-.84-1.67-1.21 2.09 3.03 2.97 6.65 1.9 8.04-.55.71-1.72 1.16-4.23-.73-3.6-2.72-7.41-5.19-11.37-7.39 1.45 1.39 3.14 3.21 4.18 5.03 1.48 2.57 1.08 3.86.48 4.49-.46.49-1.18.73-2.1.73zm-26.8-7.67c9.11 0 15.69 2.12 22.29 5.47 3.19 1.62 5.31 1.61 6 .89.56-.6.35-1.84-.61-3.49-2.01-3.49-6.68-7.17-6.73-7.2a.446.446 0 01-.1-.57.43.43 0 01.55-.15c5.16 2.61 10.11 5.7 14.72 9.18 1.5 1.13 2.61 1.46 3.05.89 1.04-1.36-.82-6.91-4.43-9.76a.415.415 0 01-.08-.58c.13-.19.39-.23.58-.1.02.01 2.26 1.52 4.87 3.44 2.08 1.54 3.13 1.73 3.42 1.4.68-.79-.72-4.5-1.96-5.77a.43.43 0 01-.01-.58c.14-.17.4-.19.57-.06 1.38 1.06 1.95.9 2.09.82.31-.16.34-.7.32-1.01-.1-2.6-2.86-6.69-5.56-9.59-3.13-3.37-8.8-8.22-18.04-12.15a.42.42 0 01-.25-.35c-.02-.15.04-.3.17-.39 1.11-.82 4.88-3.71 6.67-6.45.62-.96.85-1.66.62-1.99-.73-1.04-5.7.11-10.09 1.12-3.82.88-8.15 1.88-11.59 2.04-8.59.4-18.74-.26-29.48-.96h-.04c-1.8 2.77-3.14 9.94-3.41 18.41-.3 8.95.65 16.74 2.54 20.97 9.82-2.42 17.5-3.48 23.92-3.48z" fill="#232323"/><mask id="o" maskUnits="userSpaceOnUse" x="16.184" y="68.802" width="181.992" height="144.77"><path d="M39.76 207.05c22.07 11.88 55.54 5.74 89.28-4.23 22.87-6.76 35.37-3.65 46.26 1.87 5.06 2.56 8.75 1.67 5.95-3.19-2.07-3.61-6.84-7.33-6.84-7.33a98.16 98.16 0 0114.66 9.14c6.3 4.76 4.52-5.29-.87-9.54.14.09 2.33 1.57 4.86 3.43 6.84 5.04 3.85-3.13 2.02-5.01 6.93 5.3 3.11-12.49-20.77-22.67.63-.47 4.83-3.57 6.77-6.55 4.54-6.96-11.83.06-21.42.51-20.96.97-49.98-4.3-82.24-1.53 14.17-39.92 16.89-82.7 3.19-91.3-10.94-6.17-31.68 1.89-52.06 42.46-20.21 40.24-15.09 79.79 11.21 93.94z" fill="#000"/></mask><g mask="url(#o)"><path d="M62.31 164.99c-.19 0-.36-.12-.41-.31-.07-.23.07-.47.3-.53.1-.03 10.8-2.88 23.17-3.16.23 0 .43.18.43.42.01.23-.18.43-.41.44-12.26.27-22.87 3.1-22.97 3.13-.04.01-.08.01-.11.01z" fill="#232323"/></g><mask id="p" maskUnits="userSpaceOnUse" x="126.266" y="159.914" width="72.394" height="46.182"><path d="M129.04 202.82c24.25-6.04 35.37-3.65 46.26 1.87 5.05 2.56 8.75 1.67 5.95-3.19-2.07-3.61-6.84-7.33-6.84-7.33a98.16 98.16 0 0114.66 9.14c6.3 4.76 5.5-1.85 2.07-6.97.13.09.52.42 2.23 1.62 6.96 4.88 4.28-2.44 3.1-4.49 5.42 1.61 1.72-13.77-22.16-23.95.63-.47 4.83-3.57 6.77-6.55 4.54-6.96-11.83.06-21.42.51-8.65.4-18.67-.26-29.72-.98-4.06 5.7-5.31 31.09-.9 40.32z" fill="#000"/></mask><g mask="url(#p)"><path d="M198.77 197.28c-.17 0-.33-.1-.4-.27-4.28-10.59-18.6-16.91-18.74-16.98a.414.414 0 01-.22-.56.43.43 0 01.56-.22c.03.02 3.73 1.64 7.91 4.57 3.87 2.72 8.97 7.16 11.28 12.87a.431.431 0 01-.39.59z" fill="#FFF"/></g><mask id="q" maskUnits="userSpaceOnUse" x="126.266" y="159.914" width="72.394" height="46.182"><path d="M129.04 202.82c24.25-6.04 35.37-3.65 46.26 1.87 5.05 2.56 8.75 1.67 5.95-3.19-2.07-3.61-6.84-7.33-6.84-7.33a98.16 98.16 0 0114.66 9.14c6.3 4.76 5.5-1.85 2.07-6.97.13.09.52.42 2.23 1.62 6.96 4.88 4.28-2.44 3.1-4.49 5.42 1.61 1.72-13.77-22.16-23.95.63-.47 4.83-3.57 6.77-6.55 4.54-6.96-11.83.06-21.42.51-8.65.4-18.67-.26-29.72-.98-4.06 5.7-5.31 31.09-.9 40.32z" fill="#000"/></mask><g mask="url(#q)"><path d="M195.17 201.3c-.15 0-.29-.07-.37-.21-5.57-9.48-17.79-14.06-17.92-14.11a.419.419 0 01-.25-.54c.08-.23.33-.34.55-.26.12.05 3.19 1.18 7 3.54 3.52 2.17 8.36 5.84 11.35 10.94a.425.425 0 01-.36.64z" fill="#FFF"/></g><mask id="r" maskUnits="userSpaceOnUse" x="126.266" y="159.914" width="72.394" height="46.182"><path d="M129.04 202.82c24.25-6.04 35.37-3.65 46.26 1.87 5.05 2.56 8.75 1.67 5.95-3.19-2.07-3.61-6.84-7.33-6.84-7.33a98.16 98.16 0 0114.66 9.14c6.3 4.76 5.5-1.85 2.07-6.97.13.09.52.42 2.23 1.62 6.96 4.88 4.28-2.44 3.1-4.49 5.42 1.61 1.72-13.77-22.16-23.95.63-.47 4.83-3.57 6.77-6.55 4.54-6.96-11.83.06-21.42.51-8.65.4-18.67-.26-29.72-.98-4.06 5.7-5.31 31.09-.9 40.32z" fill="#000"/></mask><g mask="url(#r)"><path d="M179.8 172.16a.32.32 0 01-.19-.05c-5.85-2.99-11.39-5.1-16.94-6.45-4.99-1.21-10.24-1.88-16.53-2.1a.431.431 0 01-.41-.44c.01-.24.2-.43.44-.41 6.35.22 11.65.9 16.7 2.12 5.62 1.37 11.22 3.5 17.12 6.53.21.1.29.36.19.57a.43.43 0 01-.38.23z" fill="#232323"/></g><path d="M81.11 69.47c-9.13-6.48-38 5.31-61.2 46.28C-2.35 155.08.07 169.46.07 169.46s.91-8.52 21.26-14.95c18.3-5.78 46.76-6.53 59.76-2.34.21 0 23.05-65.76.02-82.7z" fill="#00676C"/><mask id="s" maskUnits="userSpaceOnUse" x="23.559" y="66.256" width="101.165" height="114.292"><path d="M85.92 66.25c-1.87.86-4.1 1.8-6.41 2.72-13.28 5.33-24.54 14.75-32.07 26.95-10.69 17.31-22.8 45.38-23.89 84.62l53.3-29.67 7.56 2.3s57.41-19.98 35.2-74.76c0 0-.91 4.89-7.47 3.77-15.44-2.65-26.22-15.93-26.22-15.93z" fill="#000"/></mask><g mask="url(#s)"><path d="M78.14 160.79c-.04 0-.09-.01-.13-.03a.43.43 0 01-.27-.54c.06-.18 6.35-18.95 9.62-39.61 1.92-12.12 2.44-22.51 1.55-30.88-1.1-10.38-4.38-17.64-9.76-21.59-2.11-1.55-4.4-1.51-8.44-.86a.435.435 0 01-.49-.36.42.42 0 01.36-.48c3.57-.58 6.51-.87 9.07 1.02 5.58 4.09 8.98 11.55 10.11 22.19.9 8.44.37 18.91-1.56 31.1-3.29 20.74-9.59 39.56-9.65 39.75-.06.17-.23.29-.41.29z" fill="#FFF"/></g></g></svg>