<svg xmlns="http://www.w3.org/2000/svg" viewBox="0 0 3000 3000" width="3000" height="3000"><g transform="translate(97.2 621.6) rotate(0.0 1283.4 978.0) scale(1.4523932122062595 1.451103164829295)"><svg width="1767.29" height="1347.94" viewBox="0 0 1767.29 1347.94"><path d="M371.31 1040.5C262.56 988.05 55.41 870.42 6.69 927.91c-39 56.9 93.74 139.2 364.62 112.59zm856.78 87.23C1293.57 978.18 1520 853.32 1578.35 901c48.71 48.82-80.35 199.3-350.26 226.73z" fill="#232323"/><path d="M1542.87 969.66C1385 675.5 1255.52 475.55 1092.7 526c-92.67 28.7 137.16 614.13 137.16 614.13 41.15 99.29 107.12 223 303.1 202.58 159.76-16.71 51.39-295.71 9.91-373.05z" fill="#fff"/><path d="M1491.74 1347.92c-30.38 0-58.47-3.81-83.89-11.41a228.19 228.19 0 0 1-86.49-48c-46.22-40.87-73.59-97.39-94.27-147.29-.52-1.32-50.09-127.87-93.41-264.44-58.37-184-78.17-297.63-58.84-337.83 4-8.28 9.69-13.63 17-15.88 40.51-12.55 79.4-10.33 118.91 6.79 36.51 15.82 72.87 44.17 111.15 86.68 76 84.33 152.37 218.85 223.65 351.66 18.3 34.11 43.78 95.48 59.44 155.67 9.25 35.53 14.4 67.7 15.31 95.59 1.08 33.07-3.83 60.15-14.61 80.5-14.19 26.78-38.54 42.15-72.38 45.68a400.26 400.26 0 0 1-41.57 2.28zm-349.13-826.77a164.91 164.91 0 0 0-49 7.7c-5.69 1.77-10 5.94-13.33 12.75-44.7 93 150.43 592.39 152.4 597.42 36.37 87.75 67.26 122.57 92.69 145a222.32 222.32 0 0 0 84.23 46.69c35.87 10.72 77.28 13.74 123.08 9 31.73-3.31 54.51-17.62 67.71-42.52 13.3-25.12 23.89-75.3-1.2-171.77-15.54-59.71-40.79-120.55-58.93-154.35C1419.93 746.92 1362 670.16 1317.41 620.6c-37.69-41.85-73.37-69.71-109.07-85.18-21.97-9.52-43.75-14.27-65.73-14.27zM1092.74 41c-20.72-8.58-44.18-7.38-63.45 4.09-25.68-69-118-51.39-127.61 2.72-67.13-45.5-142 31-112.28 88.34 10.92 21.05 29.51 65.28 21.84 102.45 32.23 12.49 95.22 86.06 95.22 86.06s125.73-129.83 178.47-149c65.84-24.02 54.53-115.3 7.81-134.66z" fill="#232323"/><path d="M1134.48 385.45c1.58 19-8.49 38.89-28.47 50.19C1054 465 985.5 449.3 985.5 449.3s-2.62 39.83 6.08 102.13c-8.88 12.39-54.9 40.71-121.27 38.05-57.53-2.3-103.53-31-124.1-53.71 15.37-37.54 41.61-99 77-172.44-36.77-4.83-93.77-43.18-84.89-93 5.07-28.42 35.18-51.7 64.67-43.28 28.63 8.17 39.55 25.24 62.69 50.27 21.48 23.23 27.68 10.13 41.9-18.06 12.62-25 31.87-47 46.2-59.09 32.37-27.4 92-28.19 131.47-24.18a679.34 679.34 0 0 0 6.11 89.57c6.81 52.14 39.48 75.47 43.16 119.92z" fill="#fff"/><g fill="#232323"><path d="M878.8 592.65c-2.84 0-5.7 0-8.61-.17-55-2.2-103-29.06-126.2-54.7a3 3 0 0 1-.55-3.15c15.49-37.85 41-97.66 75.29-169-22.43-4.26-52.52-20.15-70.07-44.12-11.87-16.22-16.48-34.11-13.34-51.74 2.8-15.68 12.93-30.32 27.1-39.17 13-8.09 27.64-10.39 41.35-6.48 24.69 7.05 36.73 20.57 53.39 39.29 3.36 3.77 6.83 7.67 10.68 11.83 7.33 7.93 12.86 11.51 16.9 10.93 6.3-.88 11.88-12 19.62-27.31l.5-1c13.18-26.13 32.89-48.14 46.94-60 14.94-12.64 36.68-20.9 64.62-24.55 26.12-3.41 52-2.06 69.09-.32a3 3 0 0 1 2.7 3 676.69 676.69 0 0 0 6.08 89.17c3.38 25.85 13.24 44.47 22.77 62.47s18.54 35 20.41 57.6c1.77 21.26-9.72 41.59-30 53-46.31 26.16-104.27 17.53-119.14 14.7-.39 10.93-.9 47.12 6.21 98.06a3 3 0 0 1-.53 2.16c-9.94 13.91-54.66 39.5-115.21 39.5zm-129.09-57.51c22.8 24.28 68.45 49.25 120.72 51.35 65.77 2.63 108.83-24.85 118-35.9-8.44-61.17-6-101.09-5.94-101.48a3 3 0 0 1 3.67-2.73c.67.15 68 15.11 118.36-13.36 18.2-10.28 28.53-28.41 27-47.32-1.77-21.35-10.49-37.83-19.73-55.28-9.79-18.47-19.9-37.58-23.41-64.49a682 682 0 0 1-6.13-87.23c-28.75-2.68-92.78-4.83-126.54 23.74-13.6 11.5-32.69 32.82-45.46 58.15l-.5 1c-8.88 17.61-14.74 29.23-24.15 30.55-6.3.89-13.13-3.06-22.13-12.8-3.89-4.2-7.38-8.12-10.76-11.91-16.58-18.63-27.54-30.94-50.55-37.51-12.06-3.44-25-1.38-36.54 5.8-12.75 8-21.86 21.1-24.36 35.13-2.89 16.21 1.24 32.07 12.28 47.14 17.63 24.1 48.59 39.56 70 42.38a3 3 0 0 1 2.31 4.28c-34.49 71.66-60.34 131.98-76.14 170.49z"/><path d="M980.16 184.26c12.38-3.66 49 5.9 34.7 18.22-8.06 6.93-18.56 9.7-27.39 15.32-9 3.83-39 29.62-39.06 9.86-.1-18.37 11.22-37.33 31.75-43.4zm-16.39 69.3c8.6-1.82 29.32-5.71 48.52-15.48a5.43 5.43 0 0 1 7.31 2.36v.06c3.49 7 7.13 19.22-6.8 24.2-17.12 6.12-44.73.74-50.71-6.71a2.79 2.79 0 0 1 .51-3.91 2.75 2.75 0 0 1 1.14-.52zm117.42-17.24c-8.72 1.11-15.16.47-31.1-1.45a5.45 5.45 0 0 0-6.13 4.69c-1 7.73 2.82 15.54 15.25 16.89 13.85 1.5 22.51-8.75 25-16.49a2.8 2.8 0 0 0-1.81-3.53 2.76 2.76 0 0 0-1.21-.11zM851.3 360.2a3.19 3.19 0 0 0-3.89-2.3 79.71 79.71 0 0 1-25.24 2.4c-.06.16-.13.32-.2.49q-1.11 2.64-2.23 5.27l-.21.49A85.49 85.49 0 0 0 849 364.1a3.2 3.2 0 0 0 2.3-3.9zm216.01-185.58c-13.4 3.64-31.64 17.07-17.92 23.5 8.82 4.13 18.5 3.95 27.56 6.7 2.75.69 5.87 1.67 9.07 2.73q-.76-15.78-.82-31.58c-5.6-.57-11.61-1.03-17.89-1.35zm-149 234.79c-9 5.38-9.71 73.75 66.32 88.36 1 .19 1.08-51.4 1.08-51.4s-44.36-13.45-67.4-36.96zm143.4-75.01a26.18 26.18 0 0 1-13.94 4.43 31.24 31.24 0 0 1-14.4-2.59 29.19 29.19 0 0 1-11.15-9.25 27.25 27.25 0 0 1-5-13.8v-.1a2.86 2.86 0 0 0-5.68-.28 27.62 27.62 0 0 0 3.77 18.65 32.33 32.33 0 0 0 6.18 7.51 32.86 32.86 0 0 0 27.12 8 31.54 31.54 0 0 0 9.23-2.66 23.32 23.32 0 0 0 7.84-5.82 2.87 2.87 0 0 0-3.85-4.19zm-217.48-20.53c-17-54.31-64.05-50.83-64.52-50.79a3.7 3.7 0 0 0 .6 7.38c1.7-.12 41.74-2.65 56.86 45.63a3.7 3.7 0 0 0 7.06-2.22z"/><path d="M1056.2 298.7a2.56 2.56 0 0 0 2-.39c8.58-5.93 12.63-10.83 13.16-15.89.66-6.43-4.49-11.85-10.46-18.12-13.39-14.06-10.73-23.55-10.7-23.64a2.58 2.58 0 0 0-1.67-3.2 2.54 2.54 0 0 0-3.2 1.61c-.16.48-3.86 12.25 11.86 28.76 5.92 6.21 9.48 10.25 9.08 14.06-.34 3.35-3.93 7.35-11 12.21a2.56 2.56 0 0 0 .9 4.6z"/></g><path d="M999.49 87.21a4.09 4.09 0 0 0 .91.1 4 4 0 0 0 3.89-3.1c.08-.33 5.94-24.66 25.14-39.18l-.14.08a81.62 81.62 0 0 0-3.29-7.62c-22.52 15.89-29.15 43.41-29.5 44.92a4 4 0 0 0 2.99 4.8z" fill="#fff"/><path d="M1580.29 903c-87.61-39.82-309.38 151.28-351 243.31-4.73 35.18 5.12 148.71 5.12 148.71-266 35-536.71 32.47-825.17.44l42.47-77.88 51.34-99s-206.21-117.4-314.68-162.15h-.08C104.77 922 31 902.57 7 927.56c0 .07-.12.12-.17.19 4.69-6 127.49-162.32 282.19-286.55 75.7-60.79 159.06-113.9 239.98-137.94 74-22 158.23-17.38 220.67 31.94 80.88 69.71 177 62.13 238.81 15.34 96.74-63.47 218.69-53.9 310.84 12.61 138.5 100 281.37 339.45 280.97 339.85z" fill="#00676c"/><path d="M420.77 1075.53a4.08 4.08 0 0 1-1.48-.28 4 4 0 0 1-2.23-5.2c.59-1.49 60-149.92 110.08-227.23a4 4 0 0 1 6.72 4.35c-49.65 76.65-108.78 224.36-109.37 225.83a4 4 0 0 1-3.72 2.53zm326.01-464.09c12.59 59 33.45 94.16 62 104.57a39.56 39.56 0 0 0 13.65 2.56c7.75 0 15.11-2.6 22-7.79 21.68-16.37 34.71-56.78 40.57-93.95l-3.4-30.2h-1.23a309.88 309.88 0 0 1-7.86 52.47c-7.71 31.89-19.42 55.07-32.95 65.28-8.64 6.51-17.82 7.86-28.09 4.11-56.14-20.48-65.61-150.79-67-177.1a66.4 66.4 0 0 0-8-5.7 4.22 4.22 0 0 0-.19 1.28 527.32 527.32 0 0 0 10.5 84.47zm150.75 19.36c8.89 24 19.06 43 30.21 56.43 13.6 16.39 28.74 24.69 45.07 24.69 1 0 2 0 3.06-.1 10.25-.64 18.57-5.31 24.71-13.88 22.41-31.3 10.39-109.92.82-155.56q-3.69 2.19-7.3 4.52c2.43 11.81 5 25.59 7 40 7.47 52.76 5 89.54-7 106.39-4.74 6.62-10.85 10.07-18.7 10.56-.86 0-1.7.08-2.54.08-43.66 0-68.83-71.3-80.59-117.76l-2.58.17 3.65 32.39c1.29 4 2.66 8.04 4.19 12.07zm-4.22-12.08-3.65-32.39-1.27.07c-.82.05-1.65.09-2.48.12l-1.85.06h-2.42l3.4 30.2 13.77 122.08c2.71.05 5.39.08 8.07.11z" fill="#fff"/><circle cx="875.62" cy="721.11" fill="#fff" r="7.96"/><path d="M1012.78 824.53c-5.83 2.93-12.49 3.22-18.89 2.85 14.29 13.83-1.62 37-20.72 40.22 22.41 20.73-3.62 38.8-26.61 41.06 40.87 58.85-116.55 60.79-140.64 57.2-54.07 48.85-152.4 279.39-394 361.41-307.85 83-415.47-202.52-304.79-399.48 43.14 11.91 245.37 92 255.23 100.38 200-173.33 378.88-286.67 517.25-289.49 124.32-2.53 182.07 62.83 133.17 85.85z" fill="#fff"/><path d="M308.41 1345a279.21 279.21 0 0 1-75.73-10c-47.75-13.43-87.07-39.65-116.85-78-33.2-42.58-51.83-97-53.89-157.26a331 331 0 0 1 42.58-173.42 3 3 0 0 1 3.41-1.42c40.29 11.12 229.46 85.44 254.16 99.54C583.68 832.73 753 738.26 879.56 735.68c51.78-1.06 86.81 9.45 107.07 18.46 25.48 11.32 42.17 26.65 45.78 42.06 3 12.81-3.67 24.12-18.31 31a33.86 33.86 0 0 1-14.09 3.26 20.83 20.83 0 0 1 1.29 16.54c-3.07 9.93-12.08 18.66-22.44 22.27 6.78 8.12 6.55 15.25 4.94 20-3.85 11.42-18.36 19.16-32.22 21.7 5.87 10.24 6.29 19.52 1.25 27.64-11 17.62-46.47 25.24-74.34 28.53-29 3.43-59.72 3.28-71.57 1.88-13 12.17-28.78 35-48.62 63.65-30.24 43.69-71.65 103.53-127.41 158.94-66.34 65.92-137.64 111.22-218 138.51l-.18.05c-36.77 9.91-71.63 14.83-104.3 14.83zM108.6 931.33a325.06 325.06 0 0 0-40.67 168.21c2 59 20.21 112.2 52.63 153.88 29 37.27 67.25 62.79 113.75 75.86 51.49 14.47 111 12.83 176.74-4.88 79.44-27 150-71.81 215.61-137.05 55.37-55 96.6-114.6 126.7-158.1 20.58-29.74 36.84-53.23 50.55-65.62a3 3 0 0 1 2.46-.74c8.5 1.27 39.12 2.11 71.42-1.71 37.54-4.43 62.38-13.57 69.94-25.74 4.38-7.05 3.19-15.25-3.63-25.07a3 3 0 0 1 2.17-4.7c13.05-1.28 28.53-8.48 31.84-18.32 1.89-5.61-.46-11.52-7-17.54a3 3 0 0 1 1.53-5.16c10.16-1.74 20-10.11 22.9-19.47 1.3-4.21 1.7-10.35-3.77-15.64a3 3 0 0 1 2.26-5.15c5.15.29 11.78.27 17.37-2.54h.07c8.53-4 18.06-11.47 15.06-24.24-3.13-13.36-19-27.55-42.37-38-19.7-8.75-53.82-19-104.51-17.94-125.46 2.55-294 97-515.35 288.76a3 3 0 0 1-3.91 0c-8.46-7.23-202.64-84.78-251.79-99.1z" fill="#232323"/><path d="M304.18 1084.06a3 3 0 0 1-2.05-5.19c40.29-37.66 58.12-52.84 58.3-53a3 3 0 0 1 3.88 4.58c-.18.15-17.92 15.25-58.08 52.79a3 3 0 0 1-2.05.82zm689.71-253.68a3 3 0 0 1-2.07-.82c-43.61-41.39-100.77-37-101.35-36.93a3 3 0 1 1-.51-6c2.45-.22 60.44-4.68 106 38.55a3 3 0 0 1-2.06 5.17zm-20.72 40.22a3 3 0 0 1-1.93-.7c-37.9-31.94-94.33-28.69-94.9-28.65a3 3 0 0 1-.39-6c2.41-.15 59.38-3.47 99.16 30a3 3 0 0 1-1.94 5.29zm-26.61 41.06a3 3 0 0 1-2.17-.94c-29.17-30.66-80.24-20.09-80.75-20a3 3 0 0 1-1.26-5.87 121.81 121.81 0 0 1 31.11-1.72c23.08 1.6 42.18 9.7 55.25 23.44a3 3 0 0 1-2.18 5.07zm-140.63 57.2a3 3 0 0 1-1.95-5.29c20.7-17.56 66.85-38.79 109.15-25.26a3 3 0 1 1-1.83 5.69c-40-12.77-83.75 7.43-103.43 24.12a3 3 0 0 1-1.94.74z" fill="#232323"/><path d="M1130.42 913.71c18.83 71.91 70.53 188.62 95.38 244.7l2.46 5.56c.14-6.09.47-11.92 1-17.42-25.91-58.54-73.38-167.06-91.14-234.87a4 4 0 0 0-7.74 2zm254.36 187.15c3.22-13 6.66-25.14 9.94-35.94 42.21-138.81 165.09-249.59 169.12-354.68 1.68-43.72 172.31-73 186.56 1.41C1775.94 845 1795 1315.6 1533 1342.7" fill="#fff"/><path d="M1533 1345.7a3 3 0 0 1-.3-6c56.94-5.89 104.27-33.71 140.68-82.7 32.74-44 74.11-130 85.22-289.26 7-100-.55-200.42-11.11-255.55-6.92-36.15-53.26-45.72-94.33-42.61-46 3.48-85.56 22.14-86.28 40.75-2.2 57.52-39.73 117.06-79.45 180.09-34.65 55-70.48 111.83-89.8 175.36-3.71 12.19-7 24.23-9.9 35.78a3 3 0 0 1-5.83-1.44c2.89-11.65 6.25-23.79 10-36.09 19.55-64.3 55.6-121.49 90.46-176.81 39.28-62.33 76.39-121.21 78.54-177.12 1-24.84 47.43-43.15 91.82-46.5 43.64-3.31 93 7.43 100.68 47.46 10.63 55.52 18.22 156.54 11.2 257.1-6.19 88.71-26.21 211.46-86.39 292.42-37.46 50.39-86.2 79-144.89 85.09z" fill="#232323"/><path d="M1750.4 711.65c-13-68.29-35.63-126.36-101.46-184.86-88.17-78.35-304.88-74.69-170.73-18-87.06 3.33-75.74 27.38 2.14 54.44-6.32-.14-12.72 0-19 .42-120.66 11 19.44 57.43 57.94 66.78a213.75 213.75 0 0 0-48.23-.21c-102.52 11.61 27.73 53.91 44.24 59.44 19.63 6.59 34.19 11.09 53.74 14.91 0 0-11.89 49.77 38.86 70.26" fill="#fff"/><path d="M1607.92 777.78a3 3 0 0 1-1.12-.22c-27.42-11.07-37-30.54-40.27-44.93a71.63 71.63 0 0 1-1-25.74c-17.56-3.58-31.3-7.75-51.22-14.43L1513 692c-7.86-2.62-28.74-9.59-47.6-18-25.6-11.45-37.1-20.8-36.2-29.42.58-5.5 5.52-13.28 41.59-17.36a217.11 217.11 0 0 1 22-1.27c-12.26-3.87-25.89-8.64-38.33-13.75-45-18.49-44.24-29.06-44-32.53.46-6.23 6.22-15 50.73-19l3-.18c-34.54-13.36-51.23-25.43-49.66-35.94 1.94-13 31.43-16.83 51.06-18.13-22.06-10.39-32.88-19.41-33-27.44 0-2.95 1.33-7.11 8.11-10.22 15.71-7.19 53.41-6.13 93.81 2.65 28 6.09 80.41 21.1 116.54 53.2 31.34 27.86 54.65 57.18 71.23 89.64 14.07 27.53 23.68 57.42 31.17 96.9a3 3 0 0 1-5.89 1.12C1734.59 644.44 1712.58 587.36 1647 529c-35.11-31.2-86.38-45.86-113.83-51.83-38.61-8.39-75.64-9.65-90-3-2.12 1-4.64 2.57-4.61 4.67 0 2.33 3.09 11.18 40.9 27.14a3 3 0 0 1-1.06 5.77c-52.19 2-57.56 10.94-58 13.63-.33 2.19 1.08 14.17 61 35a3 3 0 0 1-1 5.83h-.07c-6.13-.14-12.43 0-18.71.41-41.3 3.77-45 11.28-45.21 13.49s2.24 10.92 40.28 26.54a505.4 505.4 0 0 0 63.31 20.81 3 3 0 0 1-1.07 5.89 212.14 212.14 0 0 0-47.54-.2c-32.89 3.72-36.09 10.15-36.29 12s1.55 9.39 32.68 23.31c18.59 8.31 39.27 15.21 47 17.81l1.42.47c20.76 7 34.71 11.16 53.36 14.81a3 3 0 0 1 2.34 3.64 64.92 64.92 0 0 0 .47 26.32c4.29 18.77 16.61 32.38 36.6 40.46a3 3 0 0 1-1.12 5.78z" fill="#232323"/><path d="M1586.53 536.52a2.93 2.93 0 0 1-1.34-.32c-29.13-14.59-65.16-22.83-107.1-24.46a3 3 0 0 1 .24-6c42.79 1.67 79.65 10.12 109.55 25.1a3 3 0 0 1-1.35 5.68zm3.84 54.09a3.14 3.14 0 0 1-1.35-.32c-28.58-14.4-67.2-23-108.75-24.11a3 3 0 1 1 .16-6c42.42 1.16 81.94 9.95 111.29 24.74a3 3 0 0 1-1.35 5.68zm-1.45 64.39a3 3 0 0 1-1.54-.42c-17.31-10.37-40.64-17.67-67.45-21.09a3 3 0 0 1 .76-5.95c27.63 3.53 51.75 11.1 69.78 21.89a3 3 0 0 1-1.55 5.57z" fill="#232323"/></svg></g><g transform="translate(1514.3999999999999 306.0) rotate(1.668291956985763 659.4 336.0) scale(1.6108858161919188 1.6102365034864496)"><svg width="818.68" height="417.33" viewBox="0 0 818.68 417.33"><path d="M374.27 305a110.53 110.53 0 0 0 191.6 61.69 71.73 71.73 0 0 0 138.35-12.62h.93a110.53 110.53 0 0 0 73.23-193.27 84 84 0 0 0-125.2-107.19 110.56 110.56 0 0 0-192.25 11.44 128.48 128.48 0 0 0-86.66 240z" fill="#fff"/><path d="M633.42 417.33a74.89 74.89 0 0 1-68.61-45.12A113.54 113.54 0 0 1 371.48 307a131.45 131.45 0 0 1-71.09-116.8c0-72.48 59-131.45 131.45-131.45a132.18 132.18 0 0 1 27.46 2.88 113.55 113.55 0 0 1 194.6-12.34 86.08 86.08 0 0 1 51.25-16.71 87 87 0 0 1 77 127.58 113.53 113.53 0 0 1-75.41 197 74.73 74.73 0 0 1-73.31 60.22zm-67.55-53.6a3 3 0 0 1 .59.06 3 3 0 0 1 2.24 1.93 68.72 68.72 0 0 0 132.55-12.09 3 3 0 0 1 3-2.52h.91a107.53 107.53 0 0 0 71.24-188.07 3 3 0 0 1-.63-3.72 81 81 0 0 0-70.62-120.74A80.19 80.19 0 0 0 655 56a3 3 0 0 1-2.34.61 3 3 0 0 1-2-1.33 107.56 107.56 0 0 0-187 11.13 3 3 0 0 1-3.41 1.59 125.48 125.48 0 0 0-84.64 234.38 3 3 0 0 1 1.64 2.34 107.53 107.53 0 0 0 186.4 60 3 3 0 0 1 2.22-.99z" fill="#232323"/><circle cx="234.66" cy="71.23" fill="#fff" r="46.17"/><path d="M234.55 120.41a49.17 49.17 0 0 1-39.38-78.47A49.17 49.17 0 0 1 283.29 64a49.22 49.22 0 0 1-41.42 55.85 50.29 50.29 0 0 1-7.32.56zm.14-92.35a43.17 43.17 0 1 0 42.67 36.84 42.83 42.83 0 0 0-42.67-36.84z" fill="#232323"/><circle cx="102.82" cy="75.16" fill="#fff" r="30.72"/><path d="M102.74 108.88a33.81 33.81 0 1 1 5-.37 34 34 0 0 1-5 .37zm.09-61.44a28.32 28.32 0 0 0-4.08.3 27.71 27.71 0 1 0 4.08-.3z" fill="#232323"/><circle cx="24.95" cy="154.68" fill="#fff" r="21.94"/><path d="M24.89 179.63a25.1 25.1 0 1 1 3.71-.28 24.49 24.49 0 0 1-3.71.28zm.07-43.9a18.95 18.95 0 1 0 18.72 16.17A18.92 18.92 0 0 0 25 135.73z" fill="#232323"/></svg></g><g transform="translate(1726.8 1053.6) rotate(0.0 378.6 415.20000000000005) scale(1.4504913510717776 1.4507337526205453)"><svg width="522.03" height="572.4" viewBox="0 0 522.03 572.4"><path d="M186.64 108.33a5.19 5.19 0 0 1-1.59-.26c-19-6.37-26.11-32.35-16.68-60.45a5 5 0 1 1 9.48 3.18c-6.57 19.57-4.48 42.79 10.38 47.79a5 5 0 0 1-1.59 9.74zm117.5-5.27a5 5 0 0 1-1.6-.27c-9.85-3.3-16.78-11.83-19.52-24-2.43-10.81-1.42-23.75 2.85-36.45a5 5 0 1 1 9.48 3.18c-3.69 11-4.61 22-2.57 31.07 1.37 6.1 4.73 14 13 16.72a5 5 0 0 1-1.59 9.74zm117.97-5.3a4.9 4.9 0 0 1-1.59-.26c-9.85-3.31-16.79-11.83-19.52-24-2.43-10.81-1.42-23.75 2.85-36.45a5 5 0 1 1 9.48 3.18c-3.7 11-4.61 22-2.58 31.07 1.38 6.1 4.74 14 12.95 16.71a5 5 0 0 1-1.59 9.74z" fill="#d9c6f4"/><path d="M386.17 553.13 24 569.38a20.06 20.06 0 0 1-20.57-24.11L98.26 87.56a20.06 20.06 0 0 1 18.74-16l362.21-16.22a20.06 20.06 0 0 1 20.54 24.11l-94.83 457.71a20.06 20.06 0 0 1-18.75 15.97z" fill="#fff"/><path d="M23 572.4A23.07 23.07 0 0 1 .49 544.66L95.32 87a23.07 23.07 0 0 1 21.55-18.36l362.21-16.3a23.07 23.07 0 0 1 23.61 27.72l-94.83 457.71a23.07 23.07 0 0 1-21.55 18.36l-.14-3 .14 3L24.1 572.38zM480.13 58.32h-.78L117.14 74.59a17 17 0 0 0-15.94 13.58L6.36 545.88a17.06 17.06 0 0 0 17.47 20.5L386 550.13a17 17 0 0 0 16-13.58l94.82-457.71a17.06 17.06 0 0 0-16.69-20.52z" fill="#232323"/><path d="M405 552.28 42.81 568.53a20.06 20.06 0 0 1-20.54-24.11l94.84-457.71a20.07 20.07 0 0 1 18.74-16l362.21-16.22A20.06 20.06 0 0 1 518.6 78.6l-94.83 457.71A20.06 20.06 0 0 1 405 552.28z" fill="#fff"/><g fill="#232323"><path d="M41.89 571.55a23.06 23.06 0 0 1-22.56-27.74l94.84-457.7a23 23 0 0 1 21.55-18.36l362.2-16.25a23.06 23.06 0 0 1 23.62 27.71L426.7 536.92a23 23 0 0 1-21.54 18.36l-.14-3 .14 3L43 571.53c-.4.02-.76.02-1.11.02zM499 57.47h-.79L136 73.74a17.07 17.07 0 0 0-16 13.58L25.21 545a17.06 17.06 0 0 0 17.47 20.51l362.21-16.25a17.06 17.06 0 0 0 15.94-13.59L515.66 78A17.07 17.07 0 0 0 499 57.47z"/><circle cx="203.08" cy="105.64" r="18.75"/><circle cx="320.6" cy="100.36" r="18.75"/><circle cx="438.13" cy="95.09" r="18.75"/></g><path d="M198 108.93a30 30 0 0 1-9.56-1.56 5 5 0 1 1 3.19-9.48c6.81 2.29 14.59.7 21.89-4.46 7.78-5.51 14-14.3 17.51-24.76 7.07-21 .89-42.16-13.77-47.08s-32.34 8.18-39.41 29.22a5 5 0 0 1-9.48-3.19c8.83-26.26 32.18-42.2 52.07-35.51s28.9 33.48 20.07 59.74c-4.18 12.46-11.72 23-21.21 29.74-6.86 4.85-14.18 7.34-21.3 7.34zm117.32-5.31a29.34 29.34 0 0 1-9.38-1.52 5 5 0 0 1 3.18-9.48c14.66 4.92 32.34-8.18 39.41-29.22 3.51-10.46 3.86-21.22 1-30.31-2.71-8.53-7.95-14.48-14.76-16.77s-14.59-.71-21.9 4.46c-7.78 5.5-14 14.29-17.51 24.75a5 5 0 0 1-9.48-3.18c4.18-12.45 11.72-23 21.22-29.74 10-7 20.93-9.11 30.85-5.77s17.42 11.58 21.11 23.23c3.51 11.09 3.14 24.06-1 36.51-7.51 22.22-25.38 37.04-42.74 37.04zm117.98-5.29a29.13 29.13 0 0 1-9.39-1.53 5 5 0 1 1 3.19-9.47c14.66 4.92 32.34-8.19 39.41-29.22S467.39 16 452.73 11c-6.81-2.29-14.59-.7-21.89 4.46-7.78 5.51-14 14.3-17.51 24.76a5 5 0 1 1-9.48-3.18C408 24.6 415.56 14 425.06 7.32 435 .26 446-1.79 455.92 1.54 475.81 8.22 484.81 35 476 61.29c-7.48 22.21-25.34 37.04-42.7 37.04z" fill="#d9c6f4"/></svg></g><g transform="translate(1254.0 1515.6) rotate(0.0 216.60000000000002 231.0) scale(1.4632169154901036 1.4663408131526328)"><svg width="296.06" height="315.07" viewBox="0 0 296.06 315.07"><path d="m10.573 43.472 34.138-31.867 242.914 260.22-34.138 31.867z" fill="#d9c6f4"/><path d="m287.64 271.82 4.68 24q1.88 9.61 3.74 19.22L277.14 310l-23.64-6.32z" fill="#fff"/><g fill="#232323"><path d="M292.32 295.85q1.88 9.61 3.74 19.22L277.14 310zM53.56 21.09 19.43 53 2.57 34.9A9.54 9.54 0 0 1 3 21.41L23.22 2.57A9.54 9.54 0 0 1 36.71 3z"/></g></svg></g><g transform="translate(2234.4 457.2) rotate(0.0 222.0 193.20000000000002) scale(1.452927124578684 1.4526315789473685)"><svg width="305.59" height="266" viewBox="0 0 305.59 266"><rect fill="#fff" height="61.26" rx="8.17" width="65.12" x="3" y="11.72"/><path d="M60 76H11.17A11.18 11.18 0 0 1 0 64.81V19.89A11.18 11.18 0 0 1 11.17 8.72H60a11.18 11.18 0 0 1 11.12 11.17v44.92A11.18 11.18 0 0 1 60 76zM11.17 14.72A5.18 5.18 0 0 0 6 19.89v44.92A5.18 5.18 0 0 0 11.17 70H60a5.17 5.17 0 0 0 5.16-5.17V19.89A5.17 5.17 0 0 0 60 14.72z" fill="#232323"/><path d="M35 60.77A5 5 0 0 1 31.18 59L10.72 34.83a5 5 0 0 1 7.64-6.46l16.52 19.52 36.68-46a5 5 0 1 1 7.82 6.24L38.9 58.89a5 5 0 0 1-3.83 1.88z" fill="#00676c"/><path d="M289.2 45.31H219a3 3 0 1 1 0-6h70.2a3 3 0 0 1 0 6zm-97.2 0H96a3 3 0 1 1 0-6h96a3 3 0 0 1 0 6z" fill="#232323"/><rect fill="#fff" height="61.26" rx="8.17" width="65.12" x="3" y="106.73"/><path d="M60 171H11.17A11.18 11.18 0 0 1 0 159.82V114.9a11.18 11.18 0 0 1 11.17-11.17H60a11.18 11.18 0 0 1 11.12 11.17v44.92A11.18 11.18 0 0 1 60 171zm-48.83-61.27A5.18 5.18 0 0 0 6 114.9v44.92a5.18 5.18 0 0 0 5.17 5.18H60a5.17 5.17 0 0 0 5.16-5.17V114.9a5.17 5.17 0 0 0-5.16-5.17z" fill="#232323"/><path d="M35 155.78a5 5 0 0 1-3.82-1.78l-20.46-24.16a5 5 0 1 1 7.64-6.46l16.52 19.53 36.68-46a5 5 0 0 1 7.82 6.24L38.9 153.9a5 5 0 0 1-3.83 1.88z" fill="#00676c"/><path d="M272.92 139.05H161.56a3 3 0 0 1 0-6h111.36a3 3 0 0 1 0 6z" fill="#232323"/><path d="m96.09 135.64 39.1.02" fill="#fff"/><path d="M135.19 138.66H96.08a3 3 0 0 1 0-6h39.1a3 3 0 0 1 0 6z" fill="#232323"/><rect fill="#fff" height="61.26" rx="8.17" width="65.12" x="3" y="201.74"/><path d="M60 266H11.17A11.18 11.18 0 0 1 0 254.83v-44.92a11.18 11.18 0 0 1 11.17-11.17H60a11.18 11.18 0 0 1 11.16 11.17v44.92A11.18 11.18 0 0 1 60 266zm-48.83-61.26A5.18 5.18 0 0 0 6 209.91v44.92a5.18 5.18 0 0 0 5.17 5.17H60a5.17 5.17 0 0 0 5.16-5.17v-44.92a5.17 5.17 0 0 0-5.16-5.17zm291.42 29.32h-57.23a3 3 0 0 1 0-6h57.23a3 3 0 0 1 0 6z" fill="#232323"/><path d="m96.09 230.65 122.89.02" fill="#fff"/><path d="M219 233.67H96.11a3 3 0 0 1 0-6H219a3 3 0 0 1 0 6z" fill="#232323"/></svg></g><g transform="translate(2145.6 1293.6) rotate(0.0 249.0 227.39999999999998) scale(1.4516834280717097 1.4494231627254763)"><svg width="343.05" height="313.78" viewBox="0 0 343.05 313.78"><path d="M340.05 247.65c-13-68.28-35.62-126.36-101.45-184.86C150.42-15.56-66.29-11.9 67.86 44.74-19.2 48.07-7.88 72.12 70 99.19c-6.32-.15-12.72 0-19 .41-120.66 11 19.45 57.43 58 66.78a213.84 213.84 0 0 0-48.24-.21c-102.54 11.61 27.7 53.91 44.24 59.45 19.64 6.58 34.19 11.08 53.74 14.91 0 0-11.89 49.76 38.86 70.25" style="fill:#fff"/><path d="M197.57 313.78a3 3 0 0 1-1.12-.22c-27.42-11.07-37-30.54-40.27-44.93a71.87 71.87 0 0 1-1-25.74c-17.56-3.58-31.3-7.75-51.22-14.43l-1.36-.46c-7.86-2.63-28.75-9.6-47.61-18-25.59-11.48-37.09-20.82-36.19-29.44.58-5.5 5.52-13.29 41.59-17.37a217.31 217.31 0 0 1 22-1.27c-12.26-3.87-25.9-8.64-38.34-13.75C-1 129.68-.23 119.11 0 115.64c.46-6.23 6.22-15 50.73-19q1.5-.1 3-.18C19.2 83.07 2.51 71 4.08 60.49 6 47.45 35.51 43.66 55.14 42.36 33.08 32 22.26 23 22.14 14.92c-.05-2.92 1.32-7.11 8.1-10.22C46-2.49 83.65-1.43 124.05 7.35c28 6.09 80.41 21.1 116.54 53.2 31.35 27.86 54.65 57.18 71.23 89.64 14.07 27.53 23.69 57.42 31.18 96.9a3 3 0 0 1-5.9 1.12C324.24 180.44 302.23 123.36 236.6 65c-35.1-31.2-86.38-45.86-113.82-51.83-38.62-8.39-75.64-9.65-90-3.05-2.12 1-4.64 2.57-4.6 4.67C28.17 17.16 31.22 26 69 42a3 3 0 0 1-1 5.76c-52.2 2-57.56 10.94-58 13.63-.32 2.19 1.08 14.17 61 35a3 3 0 0 1-1.06 5.83c-6.13-.14-12.42 0-18.71.41-41.3 3.77-45 11.28-45.21 13.49s2.23 10.88 40.27 26.5a505.4 505.4 0 0 0 63.38 20.84 3 3 0 0 1-1.07 5.89 212.14 212.14 0 0 0-47.54-.2c-32.89 3.73-36.09 10.15-36.29 12s1.55 9.39 32.67 23.31C76 212.8 96.71 219.7 104.5 222.3l1.42.47c20.76 7 34.71 11.16 53.36 14.81a3 3 0 0 1 1.95 1.32 3 3 0 0 1 .4 2.32 64.6 64.6 0 0 0 .46 26.32c4.29 18.77 16.61 32.39 36.61 40.46a3 3 0 0 1-1.13 5.78Z" style="fill:#232323"/><path d="M176.18 72.52a2.93 2.93 0 0 1-1.34-.32c-29.13-14.59-65.16-22.83-107.1-24.46a3 3 0 0 1 .24-6c42.79 1.67 79.65 10.12 109.55 25.1a3 3 0 0 1-1.35 5.68Zm3.82 54.09a2.93 2.93 0 0 1-1.34-.32c-28.58-14.4-67.21-23-108.76-24.11a3 3 0 1 1 .16-6c42.42 1.17 82 10 111.3 24.74a3 3 0 0 1-1.36 5.68ZM178.58 191a3 3 0 0 1-1.54-.43c-17.32-10.37-40.65-17.66-67.45-21.09a3 3 0 1 1 .76-6c27.62 3.53 51.75 11.1 69.77 21.89a3 3 0 0 1-1.54 5.58Z" style="fill:#232323"/></svg></g><g transform="translate(1119.6 1690.8) rotate(0.0 238.80000000000007 188.39999999999998) scale(1.455165899881174 1.4523589269195187)"><svg width="328.21" height="259.44" viewBox="0 0 328.21 259.44"><path d="M3 50.2C65.25 20.73 122.83 4.13 174.72 3.07 299 .54 356.78 65.9 307.88 88.92c-5.83 2.93-12.49 3.22-18.89 2.86 14.29 13.83-1.62 36.95-20.72 40.22 22.41 20.72-3.62 38.79-26.61 41.05 40.87 58.85-116.55 60.79-140.64 57.2-6.76 6.1-14.21 15.05-22.54 26.19" style="fill:#fff"/><path d="M78.48 259.44a3 3 0 0 1-1.8-.6 3 3 0 0 1-.6-4.2C85.37 242.22 92.66 233.76 99 228a3 3 0 0 1 2.46-.74c8.5 1.27 39.12 2.11 71.42-1.71 37.54-4.43 62.38-13.57 69.94-25.74 4.38-7 3.19-15.25-3.63-25.07a3 3 0 0 1 2.17-4.7c13-1.28 28.53-8.48 31.84-18.31 1.89-5.62-.46-11.52-7-17.55a3 3 0 0 1 1.53-5.16c10.16-1.74 20-10.11 22.9-19.47 1.3-4.21 1.7-10.34-3.77-15.64a3 3 0 0 1-.66-3.36 3.06 3.06 0 0 1 2.92-1.79c5.15.3 11.78.28 17.37-2.54 8.6-4 18.13-11.51 15.13-24.28-3.13-13.36-19-27.55-42.37-37.95-19.7-8.75-53.82-19-104.51-17.94-49.62 1-107 16.77-170.5 46.85a3 3 0 0 1-2.56-5.43C66 17.05 124.19 1.1 174.66.07 226.44-1 261.47 9.53 281.73 18.53c25.48 11.32 42.17 26.65 45.78 42.06 3 12.83-3.69 24.14-18.35 31a33.67 33.67 0 0 1-14.05 3.24 20.83 20.83 0 0 1 1.29 16.47c-3.07 9.93-12.08 18.66-22.44 22.27 6.78 8.12 6.55 15.25 4.93 20-3.84 11.42-18.35 19.16-32.21 21.71 5.87 10.23 6.29 19.51 1.25 27.63-6.05 9.73-23.85 22.57-74.34 28.53-29 3.43-59.72 3.29-71.57 1.88-5.83 5.45-12.58 13.39-21.14 24.83a3 3 0 0 1-2.4 1.29Z" style="fill:#232323"/><path d="M289 94.78a3 3 0 0 1-2.06-.83C243.31 52.56 186.15 57 185.57 57a3 3 0 1 1-.51-6c2.44-.21 60.44-4.68 106 38.55a3 3 0 0 1-2.06 5.23ZM268.27 135a3 3 0 0 1-1.93-.71c-37.9-31.93-94.33-28.69-94.89-28.65a3 3 0 0 1-.4-6c2.41-.16 59.38-3.48 99.16 30a3 3 0 0 1-1.94 5.3Zm-26.61 41.05a3 3 0 0 1-2.17-.94c-29.17-30.66-80.24-20.09-80.75-20a3 3 0 0 1-1.26-5.87 121.81 121.81 0 0 1 31.11-1.72c23.08 1.6 42.18 9.7 55.25 23.44a3 3 0 0 1-2.18 5.07ZM101 233.25a3 3 0 0 1-2-5.29c20.71-17.56 66.86-38.78 109.15-25.26a3 3 0 1 1-1.82 5.71c-40-12.77-83.76 7.43-103.45 24.13a3 3 0 0 1-1.88.71Z" style="fill:#232323"/></svg></g></svg>