<svg width="560" height="400" fill="none" xmlns="http://www.w3.org/2000/svg"><defs><clipPath id="b"><path transform="translate(-5 -97)" fill="#fff" fill-opacity="0" d="M0 0h568v568H0z"/></clipPath><clipPath id="c"><path transform="translate(355)" fill="#fff" fill-opacity="0" d="M0 0h84.879v116.564H0z"/></clipPath><clipPath id="f"><path transform="rotate(-11.803 1274.245 -151.84)" fill="#fff" fill-opacity="0" d="M0 0h95v120H0z"/></clipPath><clipPath id="a"><path fill="#fff" fill-opacity="0" d="M0 0h560v400H0z"/></clipPath></defs><path d="M0 0h560v400H0z"/><g clip-path="url(#a)"><path d="M-5-97h568v568H-5z"/><g clip-path="url(#b)"><path d="M536 298.1l-2.77 2.66-3.68 17.43 1.48 3.75-.48 14.61-10 13.1.61.38h-6.72l-2.09-40.14 2.19-2.85h5.5l3.24-9.37 9.06-8.41v5.38l3.66 3.46zm26.43 51.62v52.01h-13.61v-.38l-.76-10.32-1.7-3.97-4.87-1.32-3.32 2.26-8.99-2.26-2.47-3.4-10.2-2.27v-12.09l16.44-15.36s4.1.36 4.47 0c.35-.35 7.93-4.39 7.93-4.39l3.4 1.77 4.11-1.62 6.38.07.7 1.13 2.49.14z" fill="#FBF7EC"/><path d="M548.82 401.35v.38l-13.85 1.86-3.03 11.74-21.6-13.6-9.41-6.02.24-.37 6.46-7.9h4.54l-1.33-3.21v-2.27l5.67-1.89 10.2 2.27 2.46 3.4 9 2.27 3.32-2.27 4.87 1.32 1.7 3.97.76 10.32z" fill="#FBF7EC"/><path d="M532.95 352.62l-16.44 15.36v12.09l-5.67 1.89v2.27l1.33 3.21h-4.54l-6.46 7.9-.24.37-1.99-1.28h-26.36L456.3 383.4l2.91-11.97-3.56-4.21 9.39-15.85 24.59-1.93v-6.15l-5.83-3.56v-3.56l-14.24-11.01 7.45.33-.33-10.68 1.36-.13 29.54-3.04 3.73-.39 1.04-1.36 2.09 40.14h6.72l4.21 2.59h2.19l-.91-3.18 1.63-.79 4.67 3.97z" fill="#FBF7EC"/><path d="M550.57 235.54l1.39 7.01-9.81 14.57-1.83 11.54s-2.8 2.9-3.13 3.01c-.33.11 3.77 1.3 3.77 1.3l-1.29 3.77 2.48 1.62L536 298.1l-3.66-3.46v-5.38l-9.06 8.41-3.24 9.37h-5.5l-2.19 2.85-1.04 1.36-3.73.39-2.1-35.66 32.04-31.38.65-10.65v-.01l2.9-.02 4.1-4.09 5.4 5.71z" fill="#D8C5F3"/><path d="M538.17 233.94v.01l-.65 10.65-32.04 31.38-2.27-4.68-6.79-5.51-2.1-5.01-7.93-2.27-2.59-3.72 3.68-9.65 26.31-8.09 3.45-2.92 20.93-.19z" fill="#D8C5F3"/><path d="M505.48 275.98l2.1 35.66-29.54 3.03-2.38-3.03-9.54-2.17-1.45 2.6h-4.38l-6.69-2.6v-7.12l-6.03-.43-.62-2.57v-.01l2.66-1.24 6.26.1 2.05 3.46 9.06-.66 2.58-2.9-1.61-4.97 11-9.7.22-9.27 4.85-2.92-.65-15.31.43-1.14 2.59 3.72 7.93 2.27 2.1 5.01 6.79 5.51 2.27 4.68zm-15.85 67.31v6.15l-24.59 1.93-9.39 15.85 3.56 4.21-2.91 11.97-38.42-31.78.56-.68-.86-9.17 4.57-9.84.28-.61s2.11-2.64 4.2-5.28c2.01-2.57 4-5.14 4-5.3 0-.32.65-7.01.65-7.01l8.09.76v3.99l-1.72.97.43 1.5 4.21 3.03 13.8-9.06 4.01.25 1.05.07 8.42 9.92 14.24 11.01v3.56l5.82 3.56z" fill="#D8C5F3"/><path d="M475.66 311.64l2.38 3.04-1.36.13.33 10.68-7.45-.33-8.41-9.92-1.05-.07.19-3.1h4.38l1.45-2.6 9.54 2.17z" fill="#D8C5F3"/><path d="M460.29 312.07l-.19 3.1-4.02-.25-13.79 9.06-4.21-3.03-.43-1.5 1.72-.97v-3.99l-8.09-.76s-.65 6.69-.65 7.01c0 .16-2 2.73-4 5.3l-4.68-6.54-4.37-1.13-2.47-8.34 10.02-4.71 9.71-.33 12.1-5.64.63 2.57 6.03.43v7.12l6.69 2.6z" fill="#D8C5F3"/><path d="M421.95 319.51l4.68 6.53c-2.09 2.64-4.2 5.28-4.2 5.28l-.28.61h-17.93l-1.25-1.43h-4.21l-4.52-8.3-8.69 2.96s-4.2-3.99-4.2-4.15c0-.16.27-5.34.27-5.34l-2.48-3.13-3.99-.37-4.86-7.06-3.56-1.02-1.72 3.14-.43-.24-2.54-1.57h-4.36l-4.54-3.44v-3.35l1.78-.59s-1.19-4.53-.96-4.53c.21 0 2.42-1.94 2.42-1.94l-1.73-2.75-3.66-2.53.43-6.91 3.4-5.28-1.19-2.21-4.42-.92-2.27 1.68-2.27-1.68-1.07-3.45 3.34-3.24-1.45-2.1-2.33.28-1.45-2.17-2.23 4.79-.19-.09-2.6-2.16s-7.87 5.5-8.03 5.17c-.17-.32-.05-7.54 0-7.54s5.27-1.52 5.27-1.52v-6.57h-2.62l-3.46-4.42v-11.43l2.27-4.21-2.92-5.61 6.69-.11 7.63 2.9 2.76 13.98 5.09 5.18 20.87 33.8 1.62 5.19 9.59 12.83 13.91 1.51 14.14 10.68 5.61-2.63 2.47 8.34 4.37 1.14z" fill="#D8C5F3"/><path d="M422.15 331.93l-4.57 9.84.86 9.17-.56.68-.83-.68-9.5-.21-3.45-2.59-3.45.22-9.05 10.78-23.95 5.61-9.71-5.82-12.51-1.3-12.95-4.75-1.94-1.94 4.64-2.05.86-3.99s2.06.76 2.39 0c.31-.75 1.39-8.63 1.39-8.63l-6.36-7.22-.86-11.01 6.09-1.77 1.4 1.74s3.68-.28 3.83-.28c.16 0 .97-7.07.97-7.07l2.48-.11 1.89 4.32 1.57 1.62 3.17-2.81 3.89.21 4.8-2.42 2.32-4.24 1.72-3.14 3.57 1.02 4.85 7.06 3.99.37 2.48 3.13s-.27 5.18-.27 5.34c0 .16 4.21 4.15 4.21 4.15l8.68-2.96 4.52 8.3h4.21l1.25 1.43h17.93z" fill="#D8C5F3"/><path d="M365.01 307.23l-2.32 4.24-4.8 2.42-3.89-.21-3.17 2.81-1.57-1.62-1.89-4.32-2.48.11s-.81 7.06-.97 7.06c-.16 0-3.83.29-3.83.29l-1.41-1.74-6.08 1.77-8.2-1.61-4.22-6.4 6.59-3.04.19-10.02.18-9.55h.06l2.81 1.24 5.93 6.8 5.61-2.92 6.25-2.42-5.56-3.07-1.18-3.4-5.6-1.13.05-.23.32-5.65.7-1.84-.7-2.38v-3.72l2.85-1.94.8-1.69 2.23-4.78 1.45 2.16 2.33-.27 1.45 2.1-3.35 3.24 1.08 3.45 2.27 1.68 2.26-1.68 4.43.92 1.19 2.21-3.4 5.28-.44 6.9 3.67 2.53 1.73 2.76s-2.21 1.94-2.42 1.94c-.23 0 .96 4.53.96 4.53l-1.78.59v3.35l4.53 3.44h4.37l2.54 1.57.43.24zm-14.4-151.72l-2.48 11.54-6.04.12-1.51 7 2.27 1.51s-.92 10.68-1.17 10.68c-.24 0 .82 32.36.82 32.36l-2.35 3.79 1.37 6.98-7.63-2.91-6.69.12-4.09 2.05-8.63-2.27-.76-2.48-2.27-1.72-3.33 1.07-7.88-3.77 1.19-4.42-3.42-4.78 3.96-4.2.32-5.5h3.16l3.71-4.85-2.34-2.11.56-6.87-1.53-3.07 9.71-5.58-.33-5.42h6.72c.24 0 4.61-6.8 4.61-6.8l-.97-11-11.16-3.44-1.46-2.88-5.18-3.56v-4.03l-3.72-4.7-2.64-10.35v-6.39l-.28-.32.28-.25 6.47 3.23 9.07 24.16 13.36 3.68 4.75 3.44 11.22 1.94h4.31z" fill="#D8C5F3"/><path d="M347.8 290.12l-6.24 2.42-5.62 2.92-5.93-6.8-2.81-1.24h-.06l.06-3.24h3.51l2.86-2.04 1.9.38 5.6 1.13 1.18 3.4 5.55 3.07zm-14.34 38.93l6.36 7.22s-1.08 7.88-1.39 8.63c-.33.76-2.39 0-2.39 0l-.86 3.99-4.63 2.05-4.31-4.32-20.93-3.87-4.74-3.23L279 332.4l-13.6-12.09h-6.68l1.4-6.26 3.56-1.51.76-3.77 2.15-1.83 4.97 1.83s7.87-1.18 8.2-1.08c.31.12 2.58 1.3 2.58 1.3l5.07-.65v-7.87h4.42l2.58 9.06h1.84l2.7-4.42 4.52-.12 2.81-2.8 4.86.87 2.26 5.06 1.94-1.5h2.59l2.25 3.41 4.22 6.4 8.2 1.61.86 11.01z" fill="#D8C5F3"/><path d="M339.48 265.07l-.79 1.69-2.86 1.94v3.72l.7 2.38-.7 1.84-.32 5.66-.04.22-1.9-.38-2.87 2.04h-3.5l-1.51-4.21-5.18-1.18-1.94-3.13h-3.56l-3.44 3.67-2.16-4.31-5.48-1.75.2-.62-.66-6.37 4.42-2.04 1.19-3.78 6.05-6.37 5.38-3.23 2.6 1.62 2.37-.21 2.37-4.32 3.46 4.42h2.61v6.57s-5.21 1.52-5.26 1.52c-.05 0-.17 7.22 0 7.54.16.33 8.03-5.17 8.03-5.17l2.6 2.16.19.08z" fill="#D8C5F3"/><path d="M327.2 226.7l2.92 5.61-2.27 4.21v11.42l-2.37 4.32-2.37.22-2.6-1.62-5.81-6.91-4.32 3.17-2.16-1.55-6.71 1.55-2.4-2.25-7.44-2.05-2.48 2.97-3.02-.06-6.37-5.49-7.05-1.27v-.02l1.49-9.12.43-5.29-4.74-.86-1.19 2.04-2.69-.64-6.79-7.34v-2.8l-1.3-3.23v-2.81h2.59s8.95-6.79 9.38-7.5c.43-.71 14.79-17.31 14.79-17.31l.42.33 3.81 6.23.39 7.93 3.07 2.82-1.13 3.41.49 5.57H298l3.43 4.78-1.19 4.42 7.88 3.77 3.33-1.07 2.27 1.72.76 2.48 8.62 2.27 4.1-2.05zm-1.51 53.27l1.51 4.21-.06 3.24-.18 9.55-6.18-1.86.06-.2v-7.98s-4.2-2.64-4.36-2.75c-.17-.11-2.64 3.73-2.64 3.89 0 .15 1.01 2.74 1.01 2.74l-.19 2.51-.34 4.45-3.18 5.28-4.85-.86-2.82 2.8-4.52.11-2.7 4.43h-1.83l-2.59-9.06h-1.4l4.63-8.41 1.62-12.74 1.41-1.76 3.88-4.91 1.96.62 5.48 1.75 2.16 4.3 3.44-3.66h3.56l1.94 3.13 5.18 1.18z" fill="#D8C5F3"/><path d="M326.96 296.97l-.19 10.02-6.59 3.04-2.25-3.42h-2.59l-1.94 1.51-2.26-5.07 3.18-5.28.34-4.44.31.02 5.81 1.76 6.18 1.86zm-1.37-141.99l.97 11s-4.37 6.8-4.61 6.8h-6.72l.33 5.42-9.71 5.58 1.53 3.07-.56 6.87 2.34 2.11-3.72 4.85h-3.15l-.32 5.5-3.96 4.2h-6.24l-.48-5.58 1.13-3.4-3.07-2.82-.4-7.94-3.81-6.22.82-7.92-1.31-2.68 2.43-2.58 6.08-1.22.23-3.32-4.12-.4-6.4-6.39.66-4.13s-5.51-7.28-5.51-7.68c0-.4 5.42-6.39 5.42-6.39l3.81-.56 1.53-5.5s-3.96-2.84-4.04-3.07c-.09-.25.4-3.97.4-3.97s4.69-2.27 4.93-2.43c.25-.16 4.77-7.53 4.77-7.53l4.62 2.19 1.69-1.53.28.32v6.39l2.64 10.35 3.72 4.7v4.03l5.18 3.56 1.45 2.88 11.17 3.44z" fill="#D8C5F3"/><path d="M320.84 286.93v7.98l-.06.2-5.81-1.76-.31-.02.19-2.52s-1.01-2.58-1.01-2.74c0-.16 2.47-3.99 2.64-3.89.16.11 4.36 2.75 4.36 2.75zm-6.14-42.98l5.81 6.91-5.38 3.23-6.04 6.37-1.2 3.78-4.42 2.04.66 6.37-.2.62-1.97-.62-3.87 4.91-2.6-2.06-7.44-13.32 3.68-4.59h5.33l2.38-4.68 3.6.1 1.95-2.64-3.48-3.25 6.71-1.55 2.16 1.55 4.32-3.17z" fill="#D8C5F3"/><path d="M304.99 250.37l-1.95 2.64-3.6-.1-2.38 4.68h-5.33l-3.68 4.59 7.44 13.32-5.6 3.29-3.4-.21-6.42-3.46-4.36.82-1.94-.44-1.78-4.74-2.33-.22-.7 2.32-5.5-.54-2.37-5.4-.2-.17 1.07-1.28-1.24-5.4 8.57-9.27.65-3.01-.92-1.84 1.45-1.67.38-5.82.59.27 1.31.24 7.05 1.27 6.37 5.49 3.02.06 2.48-2.97 7.44 2.05 2.4 2.25 3.48 3.25zm-3.56-134.76v3.45l-.28.25-1.69 1.53-4.62-2.19s-4.52 7.37-4.77 7.53c-.24.16-4.93 2.43-4.93 2.43s-.49 3.72-.4 3.97c.08.24 4.04 3.07 4.04 3.07l-1.53 5.5-3.81.56s-5.42 5.99-5.42 6.39c0 .4 5.51 7.68 5.51 7.68l-.66 4.13 6.4 6.4 4.12.39-.23 3.32-6.08 1.22-2.43 2.58 1.31 2.68-.82 7.92-.42-.33-5.72-4.44-8.57-.88-.73-2.52s-13.75-4.45-14-4.45c-.24 0-5.39 1.84-5.39 1.84l-2.87 6.98L235 169.79l.31-3.73 3-5.34-.65-6.72 2.03-5.95-6.96-7.55-5.5-26.18 11.43-21.14 4.53-.86 10.35-16.4 18.34 2.59 16.39 13.59 5.83 15.54 7.33 7.97z" fill="#D8C5F3"/><path d="M298.09 277.56l-1.41 1.77-1.62 12.73-4.64 8.41h-3.01v7.87l-5.07.64s-2.27-1.17-2.58-1.29c-.33-.1-8.2 1.08-8.2 1.08l-4.97-1.83-2.15 1.83-.76 3.77-3.56 1.51-1.4 6.26-26.32-7.98-3.96-7.59.18-.1 3.35-6.07 1.45-.77 3.03-1.59 3.18 1.5 2.64-.64 2.06-3.39 5.98-1.78.37-3.95s-2.8-1.51-2.91-1.66c-.1-.16-1.35-2.43-1.35-2.43l1.19-5.4s-4.81.06-4.96 0c-.16-.05-1.24-1.94-1.24-1.94l1.18-2.32 5.51-.81 11.64-5.28 1.15-1.36.2.17 2.37 5.4 5.5.54.7-2.32 2.33.21 1.78 4.75 1.94.43 4.36-.81 6.42 3.45 3.4.22 5.6-3.29 2.6 2.06zM279 179.65l5.72 4.44s-14.35 16.6-14.78 17.31c-.43.71-9.39 7.5-9.39 7.5h-2.58v2.81l1.29 3.23v2.8l6.79 7.34 2.7.64 1.19-2.04 4.74.86-.43 5.29-1.5 9.12v.02l-1.3-.24-.59-.27-6.05-2.76-9.27-8.94-8.36 9.21.22 7.4 2.16 1.66v2.48l-2.8 3.13-4.64.44-.65 3.23h-4.37l-2.86-2.32h-4.05l-.32-5.55 3.72-1.84.76-4.69 7.44-8.46-4.52-4.59-3.68 5.98-1.66.61-.65-9.55-2.33 2.04v3.24h-1.56l-.27-3.77 1.07-2.54-2.52-2.16-1.84 3.83.65 1.46-.22 1.24-4.48 1.3-.33-.06.76-4.29 3.13-17.66 4.97-3.77v-7.93l10.25-8.9 13.91-.65v-6.9l-2.16-4.74s5.15-1.84 5.39-1.84c.25 0 14 4.45 14 4.45l.73 2.52 8.57.88z" fill="#D8C5F3"/><path d="M270.85 238.45l-.38 5.83-1.45 1.67.92 1.84-.65 3.01-8.57 9.28 1.24 5.39-1.07 1.28-1.15 1.36-11.64 5.29-5.51.8-1.18 2.33s1.08 1.88 1.24 1.94c.16.05 4.96 0 4.96 0l-1.19 5.39s1.25 2.27 1.35 2.43c.12.16 2.92 1.67 2.92 1.67l-.38 3.94-5.98 1.78-2.06 3.39-2.64.65-3.18-1.51-3.03 1.6-.09-.18-.66-8.6-2.64-2.15-4.58 1.72-3.56-2.25-4.53 4.03-5.65 1.6-.05.15-7.3-2.22-10.13-20.5 6.9-5.17-1.91-1.41s5.57-7.23 5.57-7.55c0-.33 6.15-.64 6.15-.64l6.26 5.93 1.82-1.08.6-3.04-.7-3.54 3.99-1.19.43-4.09s-1.82-1.52-2.15-1.52c-.32 0 .76-5.28.76-5.28l-4.75-3.99v-3.56l2.15-4.21.1-.59.33.06 4.48-1.3.21-1.24-.64-1.46 1.84-3.83 2.52 2.16-1.07 2.54.27 3.77h1.56v-3.24l2.33-2.04.64 9.55 1.67-.61 3.67-5.98 4.53 4.59-7.44 8.46-.76 4.69-3.72 1.84.32 5.55h4.05l2.85 2.32h4.38l.65-3.24 4.63-.43 2.8-3.13v-2.48l-2.15-1.67-.22-7.39 5.29 5.4 4.95 1.18 7.39-6.85 6.04 2.75z" fill="#D8C5F3"/><path d="M264.81 235.7l-7.39 6.85-4.95-1.18-5.29-5.4 8.36-9.22 9.27 8.95zm-12.34-57.32v6.9l-13.91.65-10.25 8.9v7.92l-4.97 3.78-3.13 17.66-2.64 3.05-3.6-.38-1.79-4.48h-2.85l-.65.92h-1.41l-.37-2.21 1.35-2.59-.92-3.77-9.23-1.08-4.85-5.28v-6.36l-3.87-5.51v-4.74l-5.72-5.07-3.24 1.51-2.7-1.73-.65-5.18-7-7.76v-13.81h4.66l5.91-3.86 1.93-9.62 3.25-3.31 2.66-6.55h3.32l10.11 7.11 7.93-.24s6.63 3.56 6.71 3.32c.08-.25 4.85-8.9 4.85-8.9l11.33 2.83 6.96 7.55-2.03 5.95.65 6.72-3 5.34-.31 3.73 12.45 10.83 2.86-6.98 2.16 4.74z" fill="#D8C5F3"/><path d="M238.66 93.18l-11.43 21.14 5.5 26.18-11.33-2.83s-4.77 8.65-4.85 8.9c-.08.23-6.71-3.33-6.71-3.33l-7.93.25-10.11-7.12h-3.32l-2.67 6.56-3.24 3.31-1.94 9.62-5.9 3.86h-4.66l-4.43-9.59-9.48-3.25s.21-6.89.43-7.22c.21-.32-4.42-7.76-4.42-7.76l-6.21-1.19-1.48 1.28-.08-.09-2.15-3.88.53-6.91-7.77-13.37v-4.21l2.38-.32 3.02 1.83h3.64s.45-12.4.45-12.72c0-.33-1.82-3.68-1.82-3.68l-.55-4.85s3.35-5.71 3.78-5.71c.43 0-1.84-29.23-1.84-29.23l-1.94-3.23.46-4.13 10.87.79 1.29-8.85 29.34.86 28.25 26.32 5.83 18.55 20.49 14.02zm-5.33 204.44l.09.19-1.45.77-3.35 6.06-.18.1-1-1.9-15.31-10.57-.47-.14.05-.15 5.64-1.6 4.54-4.04 3.56 2.26 4.58-1.72 2.64 2.15.66 8.59zm-9.99-49.99l-.43 4.09-3.99 1.19.7 3.54-.6 3.04-1.82 1.07-6.26-5.93s-6.15.32-6.15.65c0 .32-5.57 7.55-5.57 7.55l-1.33-.97-1.51-3.88 3.02-3.24.87-8.41-3.46-2.8-2.58-9.49 2.8-1.3-2.16-3.02-.86-5.17 4.09-.22.76-2.91-1.62-1.73.86-6.04 9.23 1.08.92 3.77-1.35 2.59.38 2.21h1.4l.65-.92h2.86l1.78 4.48 3.6.38 2.64-3.05-.76 4.29-.1.59-2.15 4.2v3.56l4.75 3.99s-1.08 5.29-.76 5.29c.33 0 2.15 1.52 2.15 1.52z" fill="#D8C5F3"/><path d="M197.24 219.69l1.62 1.73-.76 2.91-4.09.21-9.06-5.82v-4.31l-16.18-22.22-6.04-2.16-3.45-5.82s-6.04-2.37-6.04-3.23c0-.88-1.51-7.34-1.51-7.34l-13.81-12.09-9.92-1.5-1.5-7.98 4.52-8.42 13.46-11.66 1.48-1.28 6.2 1.18s4.64 7.45 4.43 7.77c-.22.33-.44 7.22-.44 7.22l9.49 3.25 4.42 9.59v13.81l7.01 7.76.65 5.18 2.7 1.73 3.24-1.51 5.71 5.07v4.74l3.88 5.51v6.36l4.85 5.28-.86 6.04zM144.07 48.85s2.27 29.23 1.84 29.23c-.43 0-3.78 5.71-3.78 5.71l.55 4.85s1.82 3.35 1.82 3.68c0 .31-.45 12.72-.45 12.72h-3.64l-3.02-1.83-2.38.32v4.21l7.77 13.37-.54 6.91 2.16 3.87.08.1-13.46 11.66-1.72-4.31-9.82-3.24-1.4-7.76-4.75-1.51-4.52-5.18-1.52-10.46h-5.82l-4.75-4.2-1.5-4.32-10.35-9.92V89.3L71.06 65.14l.43-4.31-4.74-11.43 1.07-10.58-6.25-.22-4.75-6.89-6.68-.22-8.86-5.82-4.63-6.26 5.08-9.28 63.62 28.69 37.23 2.67-.45 4.13 1.94 3.23zm-20.38 153.9l-.43 4.76-9.92 8.62-3.02-4.1-2.81-11.86-32.56-30.85s2.15-14.89 2.15-15.53c0-.65-3.46-11-3.46-11l-8.63-3.89-7.33-9.27-7.11-1.51-12.95-9.92-6.25-10.78 8.84.65s6.26 4.52 6.9 4.52c.65 0 1.73-1.08 1.73-1.08l-4.1-5.6 1.05-2.54c.05-.11 23.83 1.27 23.83 1.27l1.22 5.36 10.78 13.38.87 7.11 4.1-.43 4.52 11.01.66 10.13 4.95 8.42.65 3.87 4.32 12.52-.43 7.12 2.8 2.58 2.37-.21 1.29-2.8 9.72 7.55 1.08 8.2 5.17 4.3z" fill="#D8C5F3"/><path d="M68.04 97.71l1.58 6.93s-23.78-1.38-23.83-1.27l3.05-7.39-30.63-31.7.44-7.77-9.28-21.57-1.95-12.73L.31 6.26h42.93l-1.51 3.87-5.08 9.28 4.64 6.25-3.88 13.16 2.58 7.76 1.3 15.75 8.85 10.13 7.32 12.74 3.89 2.37 6.69 10.14z" fill="#D8C5F3"/><path d="M562.432-4.92H-4.432c-.003 0-.004.002-.005.002-.039 0-.076.017-.113.026-.037.01-.075.011-.11.028l-.005.002c-.023.012-.04.035-.062.05-.039.03-.08.056-.113.095-.026.032-.042.07-.062.108-.02.035-.043.066-.056.106-.019.053-.022.11-.028.168-.004.028-.014.052-.014.08v2.782l4.8 7.965 7.077 15.881L8.814 35.03a.53.53 0 00.04.139l9.221 21.452-.422 7.633a.569.569 0 00.158.426l30.363 31.432-2.88 6.989-.01.021c-.004.006-.004.012-.006.016l-1.055 2.562a.566.566 0 00.066.551l3.792 5.19c-.39.33-.785.586-.889.592-.53-.145-3.797-2.363-6.647-4.424a.579.579 0 00-.291-.105l-8.843-.647a.567.567 0 00-.533.851l6.259 10.782c.037.065.087.12.145.166l12.947 9.919a.564.564 0 00.228.105l6.908 1.465 7.208 9.113c.057.072.13.129.212.165l8.401 3.786c1.294 3.88 3.285 9.996 3.35 10.578-.017.563-1.294 9.551-2.147 15.455a.569.569 0 00.17.494l32.438 30.734 2.774 11.693a.557.557 0 00.093.206l3.017 4.103a.566.566 0 00.83.092l9.92-8.628a.567.567 0 00.192-.377l.431-4.75a.569.569 0 00-.202-.488l-4.998-4.165-1.049-7.978a.575.575 0 00-.215-.375l-9.716-7.551a.568.568 0 00-.864.211l-1.155 2.502-1.792.163-2.417-2.231.414-6.852a.567.567 0 00-.03-.219l-4.295-12.423-.647-3.878a.538.538 0 00-.072-.196l-4.886-8.295-.648-10a.593.593 0 00-.042-.179l-4.524-11.01a.566.566 0 00-.585-.348l-3.548.372-.794-6.553a.564.564 0 00-.122-.289L71.37 109.751l-2.771-12.162a.583.583 0 00-.08-.186L61.83 87.256a.557.557 0 00-.179-.172l-3.764-2.293-7.315-12.696-8.731-9.995-1.278-15.56a.563.563 0 00-.027-.133l-2.528-7.598 3.61-12.245 8.214 5.406c.088.058.19.09.295.093l6.39.207 4.588 6.657a.57.57 0 00.449.245l5.651.196-1.016 9.973a.575.575 0 00.042.275l4.684 11.296-.416 4.177a.566.566 0 00.071.338l13.735 24.03v3.295a.57.57 0 00.174.41l10.252 9.825 1.464 4.191a.544.544 0 00.16.237l4.75 4.207a.573.573 0 00.376.142h5.326l1.448 9.966c.016.108.062.21.134.292l4.523 5.181a.558.558 0 00.256.168l4.424 1.404 1.333 7.429a.567.567 0 00.381.438l9.566 3.16 1.526 3.815-4.398 8.18a.564.564 0 00-.058.374l1.507 7.982c.046.236.235.42.473.455l9.756 1.484 13.546 11.856c.578 2.49 1.452 6.453 1.452 7.028 0 .338 0 1.231 6.221 3.689l3.348 5.658a.568.568 0 00.298.246l5.878 2.095 15.966 21.932v4.122a.57.57 0 00.261.479l8.847 5.691.82 4.921a.56.56 0 00.098.236l1.758 2.47-2.179 1.005a.57.57 0 00-.31.666l2.585 9.489c.03.115.097.216.189.292l3.218 2.607-.821 7.917-2.886 3.103a.567.567 0 00-.114.594l1.507 3.877c.038.1.106.187.194.252l2.625 1.927-6.291 4.711a.565.565 0 00-.168.706l10.134 20.498c.07.141.195.247.345.292l7.294 2.22.384.121 15.131 10.44 4.888 9.364a.573.573 0 00.339.281l26.325 7.98c.008.002.016.001.024.004.006.001.01.005.017.008h.021a.048.048 0 01.017 0c.028.004.056.012.086.012h6.462l13.431 11.943c.058.051.125.09.199.114l21.499 7.096 4.672 3.186a.567.567 0 00.217.089l20.756 3.846 6.123 6.133a.557.557 0 00.207.131l12.945 4.751a.59.59 0 00.137.031l12.379 1.28 9.609 5.762a.557.557 0 00.422.066l23.944-5.612a.562.562 0 00.304-.187l8.903-10.596 2.994-.186 3.28 2.459a.57.57 0 00.327.114l9.305.21 39.097 32.334c.007.007.018.009.026.015.007.004.01.012.016.017l.292.197.732-.877-.056-.038 2.821-11.588a.562.562 0 00-.119-.501l-3.299-3.899 9.031-15.246 24.297-1.918a.567.567 0 00.524-.566v-6.144a.57.57 0 00-.271-.485l-5.556-3.394v-3.241a.563.563 0 00-.22-.449l-12.822-9.913 5.657.248c.184.028.313-.052.425-.163a.567.567 0 00.168-.421l-.312-10.149 30.331-3.121h.012l.006-.001 3.75-.386a.566.566 0 00.392-.22l.105-.137.007.126 1.066-1.371-.006-.141 1.889-2.461h5.219a.567.567 0 00.537-.383l3.196-9.241 7.999-7.43v4.083c0 .157.066.307.178.413l2.923 2.76 1.423.79.1-.097a.552.552 0 00.136-.22c.004-.008.011-.013.013-.021l6.156-19.738a.569.569 0 00-.231-.644l-2.114-1.379 1.15-3.358a.563.563 0 00-.378-.73 74.51 74.51 0 01-2.878-.89c.485-.447 1.251-1.202 2.481-2.477a.584.584 0 00.154-.307l1.816-11.417 9.736-14.465a.563.563 0 00.086-.428l-1.395-7.006a.573.573 0 00-.145-.279l-5.395-5.714a.568.568 0 00-.403-.177.501.501 0 00-.41.165l-3.94 3.93-23.601.215a.568.568 0 00-.36.134l-3.357 2.837-26.204 8.063a.566.566 0 00-.364.341l-4.102 10.78a.566.566 0 00-.038.226l.633 14.981-4.564 2.738a.57.57 0 00-.275.474l-.209 9.026-10.812 9.54a.567.567 0 00-.165.601l1.509 4.656-2.214 2.486-8.48.616-1.872-3.155a.568.568 0 00-.479-.279l-6.259-.102c-.047.006-.17.017-.248.054l-2.665 1.236c-.016.007-.026.021-.041.03l-11.963 5.579-9.587.324a.594.594 0 00-.223.054l-15.323 7.189-13.864-10.474a.571.571 0 00-.281-.111l-13.664-1.481-9.387-12.559-1.59-5.088a.598.598 0 00-.059-.128l-20.873-33.808a.573.573 0 00-.078-.1l-4.97-5.06-4.051-20.565 2.229-3.609a.562.562 0 00.084-.317c-.405-12.42-.961-31.249-.834-32.217l-.004-.001c.294-.863.555-3.384 1.188-10.75a.567.567 0 00-.251-.521l-1.945-1.294 1.332-6.188 5.593-.106a.565.565 0 00.544-.448l2.484-11.541a.076.076 0 000-.026l-.001-.019a.555.555 0 00-.002-.141c-.005-.033-.007-.064-.017-.094-.004-.014-.002-.028-.007-.041l-.094-.248-1.35-.355.09.234-3.398.006-11.082-1.916-4.643-3.369a.563.563 0 00-.183-.088l-13.088-3.597-8.968-23.888a.557.557 0 00-.278-.308l-6.148-3.074v-3.096a.566.566 0 00-.151-.384l-7.261-7.9-5.787-15.429a.587.587 0 00-.169-.237l-16.395-13.593a.568.568 0 00-.284-.125l-18.332-2.585a.561.561 0 00-.561.26l-10.217 16.184-4.062.772L218.66 78.8l-5.768-18.36a.57.57 0 00-.155-.246L184.484 33.88a.565.565 0 00-.37-.153l-29.341-.86c-.267-.026-.537.2-.578.484l-1.216 8.322-10.322-.742-.001-.001h-.006l-37.148-2.67L42.458 9.842l1.312-3.375a.568.568 0 00-.53-.774H.687l-4.242-9.475H563v-.474c0-.366-.254-.663-.568-.663zM36.875 39l2.563 7.702 1.288 15.68c.01.12.058.235.137.327l8.79 10.046 7.324 12.732a.58.58 0 00.196.202l3.781 2.303 6.563 9.955 1.386 6.09c-14.768-.86-20.22-1.175-22.28-1.178l2.743-6.657a.568.568 0 00-.116-.611L18.8 64.07l.417-7.519a.561.561 0 00-.045-.256L9.926 34.787l-1.94-12.66a.548.548 0 00-.043-.146L1.193 6.83h41.218l-1.193 3.067-5.062 9.243a.567.567 0 00.042.611l4.469 6.031-3.798 12.88a.576.576 0 00.006.34zm48.49 50.025l-13.72-24.003.414-4.14a.572.572 0 00-.041-.273l-4.684-11.296 1.063-10.435a.563.563 0 00-.546-.625l-5.972-.206-4.589-6.657a.564.564 0 00-.448-.246l-6.518-.21-8.636-5.683-4.36-5.886 4.651-8.494 63.146 28.467a.543.543 0 00.193.048l36.643 2.634-.39 3.54a.578.578 0 00.077.355l1.871 3.116c.83 10.71 1.978 26.738 1.877 28.734-.495.472-1.461 1.832-3.75 5.743a.57.57 0 00-.075.35l.544 4.852a.557.557 0 00.067.209c.806 1.477 1.686 3.184 1.756 3.4-.001.287-.297 8.405-.433 12.153h-2.934l-2.88-1.744a.571.571 0 00-.369-.077l-2.381.318a.568.568 0 00-.493.563v4.206c0 .1.027.199.076.285l7.679 13.227-.52 6.727a.561.561 0 00.07.319l1.993 3.585-12.488 10.821-1.427-3.567a.567.567 0 00-.351-.329l-9.497-3.136-1.334-7.434a.568.568 0 00-.387-.441l-4.599-1.46-4.309-4.936-1.495-10.287a.567.567 0 00-.562-.486h-5.601l-4.477-3.966-1.46-4.18a.551.551 0 00-.144-.222L85.44 92.505v-3.203a.556.556 0 00-.075-.277zm68.057-46.179c.291.026.56-.19.603-.484l1.219-8.343 28.621.841 27.988 26.066 5.782 18.405a.57.57 0 00.22.299l20.065 13.735-11.185 20.695a.554.554 0 00-.055.387l5.311 25.29-10.445-2.614a.564.564 0 00-.637.276c-2.513 4.556-4.07 7.404-4.643 8.496-.991-.43-3.707-1.83-6.154-3.145a.53.53 0 00-.287-.066l-7.734.243-9.958-7.01a.56.56 0 00-.327-.104h-3.323a.566.566 0 00-.525.353l-2.622 6.45-3.165 3.23a.571.571 0 00-.151.287l-1.892 9.392-5.566 3.632h-4.126l-4.269-9.261a.574.574 0 00-.332-.3l-9.091-3.107c.096-2.931.252-6.041.364-6.572.203-.355.066-1.053-4.454-8.314a.57.57 0 00-.375-.258l-6.201-1.19a.56.56 0 00-.478.128l-.975.844-1.794-3.227.521-6.734a.577.577 0 00-.076-.33l-7.689-13.247v-3.556l1.69-.224 2.845 1.722c.088.053.19.082.294.082h3.64a.568.568 0 00.567-.548c.046-1.27.454-12.422.454-12.742 0-.152 0-.467-1.842-3.847l-.509-4.554c1.385-2.36 2.992-4.91 3.419-5.319a.574.574 0 00.195-.139c.209-.224.558-.602-1.695-29.651a.57.57 0 00-.081-.25l-1.839-3.066.372-3.392 10.325.741zm85.611 50.845l4.27-.81a.577.577 0 00.375-.255l10.153-16.084 17.81 2.512 16.154 13.394 5.774 15.391a.572.572 0 00.114.185l7.185 7.818v2.972l-1.504 1.356-4.271-2.025a.569.569 0 00-.728.216c-1.593 2.594-4.204 6.794-4.651 7.378-.474.254-3.151 1.557-4.818 2.362a.57.57 0 00-.315.437c-.504 3.856-.419 4.093-.371 4.222.065.197.134.402 3.92 3.121l-1.324 4.761-3.445.513a.566.566 0 00-.339.18c-5.565 6.148-5.565 6.505-5.565 6.764 0 .221 0 .592 5.48 7.836l-.621 3.888a.568.568 0 00.161.49l6.394 6.395a.564.564 0 00.348.163l3.576.345-.169 2.336-5.651 1.128a.561.561 0 00-.303.168l-2.427 2.586a.565.565 0 00-.097.637l1.233 2.53-.694 6.742-5.337-4.142a.588.588 0 00-.289-.117l-8.19-.845-.619-2.148a.569.569 0 00-.372-.383c-13.837-4.472-14.058-4.472-14.176-4.472-.118 0-.336 0-5.576 1.87-.033.011-.058.035-.087.052-.021.012-.042.023-.062.037a.545.545 0 00-.178.221c-.002.003-.006.005-.008.009l-2.566 6.25-11.634-10.128.282-3.321 2.934-5.232a.573.573 0 00.069-.332l-.636-6.59 1.99-5.836a.566.566 0 00-.119-.569l-6.855-7.436-5.425-25.82 11.2-20.72zm-138.152 89.86l2.8 2.584c.118.11.277.162.437.149l2.37-.214a.572.572 0 00.465-.329l.992-2.15 8.967 6.968 1.046 7.967a.57.57 0 00.199.361l4.942 4.117-.384 4.227-9.282 8.074-2.582-3.514-2.786-11.747a.56.56 0 00-.163-.282l-32.347-30.646c.441-3.044 2.119-14.691 2.119-15.322 0-.667-2.44-8.039-3.489-11.178a.576.576 0 00-.303-.338l-8.502-3.832-7.25-9.165a.562.562 0 00-.326-.203l-6.984-1.482-12.755-9.774-5.663-9.753 7.61.555c6.287 4.537 6.903 4.537 7.108 4.537.818 0 1.832-.951 2.124-1.243a.567.567 0 00.057-.736l-3.906-5.343.78-1.894c2.21.071 14.456.75 22.991 1.245l1.127 4.946a.59.59 0 00.111.231l10.68 13.25.842 6.948a.569.569 0 00.623.496l3.68-.386 4.328 10.53.652 10.042a.578.578 0 00.077.252l4.9 8.321.653 3.865 4.283 12.409-.425 7.007a.57.57 0 00.184.45zm192.572-17.41l-3.924-.377-6.044-6.045.613-3.841a.569.569 0 00-.11-.431c-2.279-3.011-4.785-6.422-5.327-7.325.546-.771 2.874-3.443 5.068-5.87l3.608-.537a.57.57 0 00.464-.411l1.53-5.498a.566.566 0 00-.216-.613c-1.587-1.137-3.336-2.435-3.808-2.847.02-.499.185-1.966.363-3.355 1.535-.742 4.492-2.177 4.712-2.324.132-.084.35-.223 4.685-7.276l4.154 1.97a.564.564 0 00.625-.092l1.022-.924v5.684c0 .047.006.094.018.14l2.642 10.351a.588.588 0 00.106.212l3.595 4.538v3.839c0 .186.092.362.248.468l5.06 3.477 1.386 2.75a.565.565 0 00.34.288l10.801 3.323.915 10.422c-1.746 2.718-3.708 5.685-4.256 6.378h-6.487a.574.574 0 00-.414.178.572.572 0 00-.153.424l.309 5.068-9.4 5.403a.568.568 0 00-.225.746l1.459 2.931-.552 6.712a.566.566 0 00.185.469l1.957 1.758-3.23 4.213h-2.87a.57.57 0 00-.568.534l-.315 5.293-3.648 3.878h-5.469l-.432-4.942 1.097-3.29a.563.563 0 00-.155-.598l-2.902-2.666-.385-7.703a.564.564 0 00-.082-.268l-3.71-6.062.796-7.733a.563.563 0 00-.054-.307l-1.131-2.323 2.033-2.167 5.896-1.178a.568.568 0 00.456-.517l.239-3.322a.572.572 0 00-.515-.605zm46.817 8.51l1.987 1.322c-.326 3.759-.882 9.572-1.073 10.15l.009.005c-.164.655-.177 4.419.734 32.442l-2.257 3.653a.57.57 0 00-.072.408l1.175 5.967-6.674-2.54a.534.534 0 00-.213-.036l-6.69.114c-.005 0-.009.004-.014.004a.528.528 0 00-.186.045c-.014.006-.03.005-.044.011l-3.901 1.956-8.114-2.134-.667-2.18a.585.585 0 00-.201-.286l-2.267-1.723a.563.563 0 00-.518-.088l-3.117 1.008-7.25-3.474 1.066-3.966a.56.56 0 00-.086-.478l-3.151-4.393 3.638-3.867a.568.568 0 00.153-.355l.296-4.965h2.617a.563.563 0 00.45-.222l3.718-4.853a.566.566 0 00-.071-.768l-2.137-1.921.543-6.59a.574.574 0 00-.057-.3l-1.293-2.594 9.241-5.311a.566.566 0 00.284-.526l-.292-4.817h6.119c.388 0 .548 0 5.082-7.064a.563.563 0 00.087-.357l-.964-10.997a.568.568 0 00-.399-.494l-10.936-3.364-1.343-2.664a.573.573 0 00-.185-.212l-4.935-3.391v-3.738a.568.568 0 00-.123-.353l-3.642-4.599-2.595-10.163v-5.971l5.441 2.72 8.992 23.952c.063.17.206.3.38.347l13.269 3.646 4.665 3.385a.578.578 0 00.237.1l11.31 1.947h3.616l-2.24 10.414-5.593.106a.57.57 0 00-.546.448l-1.509 7.006a.583.583 0 00.246.598zM185.416 214.08l-16.178-22.222a.575.575 0 00-.267-.202l-5.85-2.084-3.342-5.651a.574.574 0 00-.282-.239c-2.441-.958-5.257-2.282-5.686-2.808-.08-1.152-1.273-6.306-1.519-7.359a.57.57 0 00-.18-.299l-13.809-12.086a.556.556 0 00-.288-.134l-9.523-1.447-1.395-7.389 4.379-8.143 14.654-12.698 5.688 1.092c1.927 3.102 3.942 6.519 4.198 7.226-.11.519-.263 2.07-.424 7.233a.566.566 0 00.384.555l9.259 3.164 4.267 9.257v13.685c0 .14.053.276.146.38l6.887 7.634.624 5.004a.57.57 0 00.258.408l2.699 1.723a.568.568 0 00.545.037l2.904-1.351 5.245 4.651v4.483c0 .117.036.231.103.328l3.774 5.361v6.182c0 .141.053.279.15.383l4.67 5.086-.823 5.777c-.025.17.03.344.148.469l1.406 1.494-.575 2.207-3.494.184-8.645-5.561v-3.998a.563.563 0 00-.108-.332zm23.391 4.292l-.918-3.775a.57.57 0 00-.487-.431l-9.019-1.053-4.559-4.963v-6.14a.581.581 0 00-.103-.327l-3.775-5.362v-4.56a.57.57 0 00-.19-.425l-5.714-5.067a.568.568 0 00-.617-.092l-2.959 1.377-2.211-1.412-.613-4.916a.569.569 0 00-.142-.31l-6.86-7.605v-13.022h4.091a.558.558 0 00.31-.092l5.907-3.854a.576.576 0 00.247-.364l1.905-9.46 3.126-3.19a.642.642 0 00.12-.184l2.519-6.199h2.76l9.966 7.016a.6.6 0 00.344.103l7.772-.245c6.516 3.494 6.761 3.399 7.047 3.286.158-.063.275-.162.326-.325.153-.346 2.765-5.106 4.612-8.454l10.738 2.687 6.617 7.177-1.921 5.632a.568.568 0 00-.027.239l.629 6.534-2.906 5.185a.56.56 0 00-.07.229l-.317 3.73a.564.564 0 00.193.477l12.448 10.838a.567.567 0 00.898-.212l2.37-5.769 1.559 3.432v6.239l-13.37.621a.565.565 0 00-.345.139l-10.249 8.901a.57.57 0 00-.195.429v7.642l-4.742 3.605a.57.57 0 00-.215.353l-3.1 17.509-2.347 2.706-2.968-.316-1.653-4.16a.569.569 0 00-.529-.358h-2.856a.567.567 0 00-.465.241l-.476.678h-.63l-.263-1.549 1.261-2.415a.587.587 0 00.046-.399zm56.335 16.857l-9.204-8.878a.582.582 0 00-.414-.159.578.578 0 00-.402.186l-8.356 9.217c-.026.028-.039.064-.059.097-.016.027-.035.049-.047.078-.014.036-.016.075-.023.113-.006.033-.016.065-.016.098 0 .005-.003.008-.003.012l.215 7.392c.005.17.086.329.221.433l1.934 1.496v1.987l-2.508 2.802-4.414.41a.57.57 0 00-.504.454l-.554 2.773h-3.71l-2.7-2.187a.57.57 0 00-.358-.126h-3.511l-.264-4.644 3.382-1.671a.569.569 0 00.308-.418l.733-4.533 7.33-8.333a.57.57 0 00-.024-.774l-4.523-4.592a.581.581 0 00-.469-.167.578.578 0 00-.421.267l-3.568 5.817-.772.277-.595-8.795a.569.569 0 00-.942-.389l-2.324 2.042a.568.568 0 00-.193.427v2.674h-.468l-.226-3.111 1.024-2.414a.57.57 0 00-.155-.655l-2.528-2.154a.572.572 0 00-.881.188l-1.837 3.832a.57.57 0 00-.006.476l.576 1.294-.126.727-3.616 1.042 3.717-20.992 4.789-3.64a.567.567 0 00.224-.452v-7.665l9.904-8.601 13.714-.637a.568.568 0 00.542-.567v-6.905a.55.55 0 00-.051-.235l-1.898-4.176c2.021-.718 4.109-1.441 4.61-1.582 1.006.277 8.429 2.658 13.542 4.31l.642 2.226a.569.569 0 00.487.408l8.41.868 5.122 3.979c-3.087 3.572-14.033 16.248-14.435 16.918-.425.562-5.743 4.686-9.104 7.237h-2.393a.57.57 0 00-.569.568v2.812a.56.56 0 00.041.21l1.252 3.131v2.69c0 .143.054.28.152.386l6.791 7.335c.076.082.175.14.284.167l2.697.647a.574.574 0 00.624-.266l.99-1.698 3.84.699-.382 4.724-1.406 8.565-.662-.119-.5-.228c-.007-.004-.013-.006-.018-.01l-5.958-2.718zm34.357 9.232a.555.555 0 00-.236-.133l-7.438-2.051a.563.563 0 00-.587.184l-2.308 2.76-2.538-.046-6.216-5.366a.55.55 0 00-.271-.128l-6.502-1.174 1.413-8.629.431-5.282a.57.57 0 00-.465-.606l-4.739-.862a.58.58 0 00-.592.273l-.977 1.677-2.12-.508-6.523-7.046v-2.578a.567.567 0 00-.041-.212l-1.252-3.13v-2.134h2.017a.563.563 0 00.342-.116c2.719-2.062 9.09-6.934 9.528-7.647.395-.606 8.654-10.211 14.349-16.8l3.621 5.915.389 7.791a.566.566 0 00.183.39l2.802 2.575-1.018 3.052a.574.574 0 00-.026.229l.487 5.578c.025.293.27.518.565.518h5.946l3.096 4.317-1.12 4.162a.568.568 0 00.303.66l7.881 3.775a.564.564 0 00.419.028l3.051-.986 1.885 1.434.705 2.307a.569.569 0 00.401.383l8.627 2.267a.563.563 0 00.399-.041l3.593-1.8 2.517 4.848-2.125 3.942a.575.575 0 00-.068.27v11.281l-2.154 3.927-1.878.171-2.356-1.473-5.76-6.837a.57.57 0 00-.772-.092l-3.986 2.919-1.821-1.302a.564.564 0 00-.458-.092l-6.418 1.475-2.185-2.037zm-98.867 1.426l-3.316-2.686-2.411-8.848 2.365-1.091a.574.574 0 00.311-.369.571.571 0 00-.087-.476l-2.079-2.92-.734-4.414 3.458-.181a.568.568 0 00.519-.424l.76-2.914a.57.57 0 00-.137-.533l-1.434-1.524.745-5.224 8.286.967.774 3.184-1.25 2.395c-.056.11-.077.235-.056.357l.375 2.21a.569.569 0 00.56.474h1.406c.184 0 .357-.09.463-.241l.477-.678h2.177l1.636 4.12a.57.57 0 00.468.356l3.605.385.06.003a.572.572 0 00.43-.196l1.295-1.495-.49 2.766-2.115 4.131a.574.574 0 00-.061.259v3.56a.57.57 0 00.202.435l4.492 3.773c-.993 4.929-.775 5.195-.599 5.411.115.141.284.222.352.207.208.076.983.655 1.669 1.211l-.359 3.413-3.627 1.081a.57.57 0 00-.395.656l.681 3.427-.529 2.678-1.238.73-5.947-5.636a.53.53 0 00-.42-.154c-6.193.32-6.648.578-6.681 1.087-.396.683-3.187 4.371-5.125 6.89l-.746-.548-1.319-3.391 2.773-2.982a.576.576 0 00.149-.328l.873-8.411a.57.57 0 00-.206-.502zm.84 17.895l-1.448-1.062c3.678-4.778 4.829-6.397 5.181-7.011.651-.159 3.189-.366 5.523-.492l6.081 5.762a.566.566 0 00.679.076l1.825-1.077a.566.566 0 00.27-.38l.601-3.037a.608.608 0 000-.221l-.602-3.03 3.495-1.042a.57.57 0 00.402-.485l.431-4.093a.568.568 0 00-.201-.496c-1.062-.883-1.654-1.295-2.006-1.486.051-.76.428-2.924.804-4.767a.565.565 0 00-.192-.548l-4.546-3.82v-3.158l2.09-4.085a.55.55 0 00.055-.163l.015-.082.015-.001 4.478-1.292a.57.57 0 00.402-.45l.216-1.248a.556.556 0 00-.041-.327l-.539-1.211 1.403-2.93 1.65 1.405-.914 2.156a.548.548 0 00-.043.262l.272 3.775a.567.567 0 00.567.527h1.564a.568.568 0 00.568-.568v-2.985l1.267-1.112.569 8.399a.57.57 0 00.76.497l1.666-.6a.567.567 0 00.292-.238l3.295-5.368 3.643 3.698-7.088 8.06a.565.565 0 00-.135.284l-.713 4.406-3.456 1.707a.568.568 0 00-.315.542l.318 5.555a.567.567 0 00.566.536h3.847l2.7 2.187a.568.568 0 00.357.126h4.377c.27 0 .503-.191.556-.457l.564-2.815 4.215-.391a.567.567 0 00.371-.187l2.8-3.129a.57.57 0 00.145-.379v-2.483a.568.568 0 00-.221-.449l-1.942-1.503-.165-5.671 4.266 4.359a.582.582 0 00.276.156l4.954 1.178a.572.572 0 00.517-.135l7.116-6.59 5.341 2.437-.346 5.242-1.326 1.523a.562.562 0 00-.079.626l.829 1.659-.572 2.67-8.465 9.16a.567.567 0 00-.137.511l1.174 5.123-1.947 2.325-11.453 5.197-5.43.792a.566.566 0 00-.425.306l-1.18 2.324a.571.571 0 00.014.54c1.181 2.065 1.33 2.118 1.538 2.192.108.04.243.089 4.447.041l-1.035 4.699a.564.564 0 00.057.396c.294.536 1.263 2.297 1.383 2.482.081.114.182.256 2.775 1.659l-.302 3.19-5.618 1.67a.562.562 0 00-.324.251l-1.93 3.188-2.217.542-3.005-1.422a.568.568 0 00-.508.011l-2.334 1.236-.609-7.953a.562.562 0 00-.208-.397l-2.641-2.154a.563.563 0 00-.559-.091l-4.316 1.623-3.32-2.105a.563.563 0 00-.681.056l-4.438 3.95-5.52 1.563c-.034.009-.058.03-.088.045l-6.703-2.045-9.819-19.855 6.527-4.887a.57.57 0 00-.007-.919zm213.286 47.042l2.284 7.712c.057.192.21.339.401.39l4.167 1.082 4.314 6.014a1510.218 1510.218 0 01-3.929 4.947.512.512 0 00-.072.116l-.132.282h-17.313l-1.078-1.234a.57.57 0 00-.428-.195h-3.868l-4.363-8.001a.57.57 0 00-.681-.266l-8.359 2.848c-1.612-1.533-3.325-3.195-3.771-3.685.034-.73.17-3.335.263-5.126a.558.558 0 00-.122-.383l-2.483-3.129a.572.572 0 00-.392-.213l-3.725-.349-4.702-6.844a.568.568 0 00-.313-.224l-3.56-1.02a.567.567 0 00-.655.272l-1.446 2.637-2.451-1.51a.575.575 0 00-.299-.084h-4.174l-4.157-3.16v-2.653l1.39-.46a.57.57 0 00.371-.684c-.416-1.588-.843-3.377-.951-4.059.372-.252 1.016-.771 2.239-1.842a.569.569 0 00.105-.731l-1.733-2.756a.587.587 0 00-.158-.164l-3.398-2.346.402-6.436 3.322-5.159a.575.575 0 00.022-.578l-1.19-2.209a.564.564 0 00-.385-.286l-4.423-.919a.566.566 0 00-.453.099l-1.928 1.428-1.78-1.317-.918-2.937 3.094-2.999c.2-.194.23-.503.071-.732l-1.451-2.097a.589.589 0 00-.533-.241l-1.981.231-1.257-1.876c-.114-.171-.313-.283-.514-.25a.567.567 0 00-.472.325l-1.948 4.167-2.197-1.824a.572.572 0 00-.687-.028c-2.804 1.96-5.905 4.043-7.205 4.803-.048-1.535-.005-5.095.041-6.267.593-.166 1.898-.545 4.881-1.412a.569.569 0 00.409-.546v-6.575a.568.568 0 00-.567-.568h-2.342l-3.167-4.049v-11.089l2.2-4.081a.57.57 0 00.004-.531l-2.491-4.798 5.663-.096 7.234 2.752 2.693 13.669a.56.56 0 00.152.288l5.046 5.136 20.802 33.692 1.598 5.113a.636.636 0 00.087.17l9.592 12.833a.565.565 0 00.393.225l13.755 1.492 14.013 10.585a.58.58 0 00.584.062l5.01-2.352zM263.99 235.696l-6.728 6.233-4.5-1.07-4.794-4.897 7.603-8.386 8.419 8.12zm276.25 37.651l-1.099 3.214a.567.567 0 00.226.66l2.123 1.386-5.758 18.46-2.821-2.666v-5.141a.568.568 0 00-.954-.415l-9.059 8.412a.57.57 0 00-.151.231l-3.11 8.992h-5.093a.57.57 0 00-.451.222l-2.159 2.81-.002.003-.922 1.199-2.896.297-2.047-34.802 31.855-31.201a.57.57 0 00.169-.372l.614-10.125 2.371-.022a.57.57 0 00.398-.166l3.691-3.68 4.884 5.171 1.315 6.614-9.676 14.373a.6.6 0 00-.089.228l-1.807 11.363c-1.218 1.258-2.583 2.608-2.767 2.739a.607.607 0 00-.418.565c.005.464.006.589 3.633 1.651zm-3.269-28.996l-31.32 30.677-1.922-3.972a.584.584 0 00-.155-.194l-6.679-5.419-2.043-4.88a.569.569 0 00-.368-.326l-7.742-2.211-2.298-3.306 3.469-9.109 26.048-8.015a.546.546 0 00.199-.109l3.291-2.781 20.115-.181-.595 9.826zm-249.409 18.115l7.167 12.835-4.971 2.918-3.104-.197-6.306-3.399a.568.568 0 00-.374-.058l-4.251.794-1.525-.338-1.672-4.462a.564.564 0 00-.479-.366l-2.324-.216a.582.582 0 00-.597.401l-.568 1.877-4.704-.465-2.215-5.047.757-.906a.565.565 0 00.118-.489l-1.169-5.104 8.367-9.056a.576.576 0 00.139-.265l.646-3.015a.567.567 0 00-.048-.373l-.748-1.496 1.201-1.38a.562.562 0 00.139-.335l.333-5.029 8.177 1.475 6.255 5.397a.56.56 0 00.359.138l3.015.057h.011a.569.569 0 00.436-.205l2.248-2.689 6.951 1.918 5.412 5.059-1.471 1.995-3.31-.094c-.17.01-.423.116-.521.31l-2.223 4.373h-4.981a.57.57 0 00-.444.213l-3.674 4.592a.568.568 0 00-.052.632zm-54.764 49.393l-3.647-6.983 3.238-5.872 4.076-2.157 2.93 1.388a.564.564 0 00.377.037l2.642-.646a.56.56 0 00.351-.258l1.938-3.202 5.776-1.717a.57.57 0 00.404-.491l.375-3.946a.569.569 0 00-.295-.553c-1.15-.618-2.433-1.335-2.748-1.545-.174-.304-.762-1.366-1.186-2.135l1.145-5.187a.567.567 0 00-.115-.48c-.109-.135-.265-.197-.448-.209-1.973.023-4.173.038-4.674.033-.181-.256-.543-.852-.875-1.423l.907-1.786 5.219-.762a.59.59 0 00.152-.045l11.643-5.284a.553.553 0 00.201-.151l.64-.765 2.123 4.836c.083.187.26.315.465.337l5.498.544c.26.009.521-.142.6-.402l.569-1.879 1.508.14 1.654 4.418a.577.577 0 00.409.355l1.94.431a.543.543 0 00.227.003l4.168-.779 6.24 3.362a.585.585 0 00.234.068l3.401.214a.57.57 0 00.323-.076l5.6-3.287a.57.57 0 00.209-.768l-7.251-12.988 3.265-4.081h5.056a.56.56 0 00.504-.31l2.219-4.362 3.246.092a.612.612 0 00.473-.231l1.949-2.641a.57.57 0 00-.069-.752l-2.701-2.524 5.421-1.245 1.947 1.392a.57.57 0 00.666-.003l3.89-2.849 5.044 5.988-4.811 2.888a.507.507 0 00-.119.096l-6.043 6.371a.53.53 0 00-.129.219l-1.115 3.535-4.194 1.936a.569.569 0 00-.326.575l.642 6.22-1.413-.449a.57.57 0 00-.619.189l-5.282 6.677a.572.572 0 00-.118.281l-1.607 12.624-4.423 8.024h-2.68a.568.568 0 00-.567.568v7.367l-4.396.562c-.668-.347-2.199-1.135-2.52-1.25h-.001c-.147-.044-.463-.136-8.306 1.036l-4.829-1.777a.575.575 0 00-.564.1l-2.154 1.826a.565.565 0 00-.189.321l-.7 3.481-3.284 1.392a.56.56 0 00-.333.4l-1.26 5.659-25.513-7.735zm71.286-45.232l4.054-1.871a.568.568 0 00.302-.345l1.153-3.651 5.897-6.22 5.022-3.013 2.3 1.438a.591.591 0 00.352.084l2.37-.216a.562.562 0 00.446-.292l1.956-3.565 2.927 3.743a.57.57 0 00.448.218h2.051v5.581a615.562 615.562 0 01-4.811 1.389.573.573 0 00-.37.265c-.215.36-.225 7.702-.023 8.076.071.15.223.274.385.316.281.071.686.167 8.123-5.019l2.092 1.737-.515 1.101-2.727 1.851a.568.568 0 00-.25.471v3.718c0 .054.008.109.023.161l.649 2.197-.635 1.657a.563.563 0 00-.037.171l-.293 5.231-1.282-.258a.575.575 0 00-.442.095l-2.722 1.935h-2.921l-1.373-3.83a.568.568 0 00-.407-.362l-4.95-1.127-1.814-2.926a.569.569 0 00-.483-.268h-3.559a.572.572 0 00-.415.178l-2.887 3.07-1.79-3.581a.571.571 0 00-.336-.287l-4.958-1.577a.553.553 0 00.067-.31l-.617-5.965zm166.024 31.302l-1.494-4.611 10.717-9.458a.567.567 0 00.192-.412l.208-8.962 4.585-2.753a.573.573 0 00.275-.511l-.642-15.2.007-.018 1.971 2.836a.557.557 0 00.309.221l7.673 2.193 1.993 4.758a.56.56 0 00.166.222l6.694 5.43 2.162 4.468 2.059 34.998-28.679 2.952-2.189-2.792a.577.577 0 00-.321-.204l-9.546-2.165a.566.566 0 00-.621.276l-1.288 2.306h-3.938l-6.227-2.417v-6.732a.569.569 0 00-.528-.567l-5.617-.401-.42-1.728 2.126-.985 5.812.095 1.89 3.185a.568.568 0 00.529.277l9.059-.657a.571.571 0 00.383-.189l2.584-2.903a.563.563 0 00.116-.552zm-137.533 19.534l-7.827-1.537-3.727-5.653 5.991-2.764a.567.567 0 00.331-.504l.352-18.743 1.976.869 5.848 6.706a.566.566 0 00.689.131l5.555-2.888 6.247-2.427a.57.57 0 00.069-1.027l-5.365-2.967-1.108-3.196a.57.57 0 00-.424-.37l-5.086-1.023.297-5.306.671-1.754a.571.571 0 00.015-.363l-.681-2.302v-3.336l2.609-1.77a.566.566 0 00.195-.228l2.602-5.562.89 1.329a.589.589 0 00.537.249l1.987-.233.983 1.421-2.999 2.907a.57.57 0 00-.147.578l1.077 3.447a.564.564 0 00.205.287l2.267 1.678a.567.567 0 00.676 0l2.061-1.527 3.914.814.906 1.681-3.221 5.002a.569.569 0 00-.088.272l-.43 6.903a.562.562 0 00.244.502l3.566 2.463 1.413 2.246c-.789.681-1.627 1.37-1.859 1.506a.615.615 0 00-.292.201c-.182.238-.315.41.743 4.503l-1.273.422a.568.568 0 00-.39.539v3.345c0 .177.083.345.224.452l4.534 3.446a.575.575 0 00.344.116h4.204l2.363 1.457-1.97 3.592-4.502 2.277-3.737-.206a.543.543 0 00-.407.142l-2.767 2.449-1.116-1.156-1.852-4.226c-.095-.215-.316-.369-.545-.339l-2.484.114a.569.569 0 00-.54.502c-.302 2.644-.67 5.592-.844 6.587-.739.051-2.216.165-3.132.236l-1.218-1.503a.58.58 0 00-.601-.189l-5.953 1.728zm-23.557-41.973l2.046 4.094a.57.57 0 00.427.308.586.586 0 00.495-.173l3.278-3.483h2.999l1.773 2.861c.079.128.209.22.356.254l4.878 1.111 1.366 3.816-.225 11.932-4.997-1.506v-7.766a.57.57 0 00-.267-.481 601.123 601.123 0 01-4.374-2.762.633.633 0 00-.602 0c-.333.189-2.899 3.883-2.899 4.377 0 .123 0 .263 1.012 2.83l-.513 6.698-2.915 4.833-4.467-.795a.574.574 0 00-.5.157l-2.652 2.641-4.297.108a.572.572 0 00-.47.272l-2.532 4.148h-1.089l-2.469-8.646a.566.566 0 00-.545-.411h-.444l4.173-7.57a.542.542 0 00.067-.202l1.6-12.573 4.944-6.249 6.843 2.177zm18.745 9.26h2.945a.568.568 0 00.33-.105l2.668-1.898 6.935 1.394 1.072 3.095c.047.132.14.243.262.31l4.493 2.486-5.173 2.012-5.216 2.707-5.636-6.465a.558.558 0 00-.199-.148l-2.526-1.11.045-2.278zm-12.376 5.857c-.402-1.018-.837-2.162-.953-2.465.317-.569 1.563-2.488 2.129-3.231.847.539 2.767 1.745 3.714 2.34v7.109l-5.004-1.509.153-1.993a.55.55 0 00-.039-.251zm-97.873.325a.564.564 0 00.222-.123l4.215-3.752 3.198 2.026c.15.096.336.114.503.052l4.275-1.607 2.199 1.793.629 8.203-1.049.555a.568.568 0 00-.231.227l-2.956 5.361-.568-1.086a.57.57 0 00-.18-.204l-14.748-10.174 4.491-1.271zm97.298 7.137a.578.578 0 00.082-.25l.29-3.808 11.203 3.378-.174 9.236-5.825 2.688-1.983-3.007a.564.564 0 00-.473-.255h-2.584a.573.573 0 00-.349.119l-1.368 1.063-1.852-4.136 3.033-5.028zm131.75 2.09l.459 1.901c.059.24.265.414.512.433l5.504.393v6.591c0 .234.145.445.362.529l6.69 2.597a.574.574 0 00.205.039h4.377a.57.57 0 00.496-.291l1.243-2.227 8.935 2.027 1.62 2.068-.333.032a.567.567 0 00-.511.583l.309 10.066-6.589-.289-8.252-9.731a.562.562 0 00-.397-.2l-5.068-.317a.549.549 0 00-.348.092l-13.47 8.843-3.729-2.683-.253-.886 1.33-.743a.569.569 0 00.291-.495V314.5a.566.566 0 00-.514-.565l-8.094-.761a.577.577 0 00-.619.512c-.101 1.04-.574 5.95-.642 6.911-.338.541-2.314 3.08-3.421 4.496l-4.241-5.913a.563.563 0 00-.317-.219l-4.055-1.053-2.242-7.57 9.474-4.446 9.587-.324a.594.594 0 00.221-.054l11.48-5.355zm-185.948 14.307l3.289-1.395a.566.566 0 00.336-.41l.72-3.582 1.752-1.483 4.655 1.712c.09.03.185.043.28.027 2.761-.414 7.265-1.057 7.986-1.076.319.141 1.446.712 2.449 1.234.104.053.22.077.334.06l5.067-.647a.568.568 0 00.497-.563v-7.3h3.425l2.468 8.646a.567.567 0 00.546.412h1.836a.569.569 0 00.484-.272l2.537-4.157 4.215-.105a.57.57 0 00.386-.166l2.603-2.592 4.264.757 2.146 4.793a.565.565 0 00.867.216l1.786-1.388h2.084l6.304 9.563a.576.576 0 00.365.244l7.774 1.527.828 10.578c.009.121.06.238.14.33l6.188 7.028c-.508 3.693-1.131 7.761-1.283 8.176-.189.118-1.011-.009-1.698-.262a.566.566 0 00-.751.413l-.801 3.709-4.014 1.775-4.034-4.042a.577.577 0 00-.3-.156l-20.812-3.857-4.639-3.164a.587.587 0 00-.142-.07l-21.463-7.083-13.506-12.008a.565.565 0 00-.377-.143h-5.969l1.178-5.279zm74.803 34.949a.561.561 0 00.325-.4l.732-3.382c.838.224 2.094.382 2.479-.508.331-.778 1.254-7.444 1.436-8.773a.564.564 0 00-.137-.451l-6.234-7.079-.812-10.358 5.283-1.534 1.167 1.442c.118.145.303.22.486.209 1.377-.106 3.624-.276 3.789-.282.627 0 .664 0 1.472-7.085l1.611-.074 1.736 3.964a.544.544 0 00.113.166l1.564 1.621a.568.568 0 00.784.03l3-2.656 3.657.202a.551.551 0 00.287-.06l4.795-2.427a.561.561 0 00.242-.233l3.829-6.983 2.928.838 4.738 6.896a.57.57 0 00.414.244l3.75.351 2.2 2.772c-.074 1.413-.262 5.001-.262 5.155 0 .309 0 .402 4.383 4.561a.564.564 0 00.573.126l8.232-2.805 4.294 7.877c.1.183.291.296.499.296h3.947l1.078 1.235a.575.575 0 00.429.195h17.043l-4.193 9.033a.582.582 0 00-.052.293l.852 9.054-.457-.376a.579.579 0 00-.348-.128l-9.318-.212-3.302-2.476a.553.553 0 00-.376-.112l-3.445.214a.563.563 0 00-.399.202l-8.938 10.637-23.536 5.517-9.521-5.708a.55.55 0 00-.232-.077l-12.435-1.286-12.761-4.683-1.264-1.265 3.875-1.717zm82.75-7.539l4.51-9.716.003-.008.246-.529c.308-.388 2.241-2.811 4.155-5.233 4.122-5.268 4.122-5.356 4.122-5.641.007-.273.339-3.783.591-6.393l7.016.659v3.141l-1.433.8a.565.565 0 00-.269.65l.431 1.509c.034.123.11.231.215.307l4.206 3.026a.572.572 0 00.644.014l13.638-8.954 4.637.289 8.257 9.736c.018.022.043.033.063.051.011.009.012.023.022.031l14.019 10.837v3.282a.57.57 0 00.272.485l5.554 3.394v5.301L465 350.812a.567.567 0 00-.445.276l-9.389 15.849a.568.568 0 00.056.656l3.374 3.987-2.63 10.81-37.367-30.907a.563.563 0 00.414-.59l-.846-9.017zm143.239 7.198l.023 1.164.432.023v22.728l.639 33.511h-28.34l2.712 12.054-18.278-12.054h-2.045l13.507 8.836L531.192 471-5 470.265l568 .782V349.125l-1.594-.051z" clip-rule="evenodd" fill="#C0A8E2" fill-rule="evenodd"/><path d="M531.05 416.18l6.76 4.41.53-.34-3.56-15.99 14.02-2.18h12.87l.38 68.16-29.96.19-1.04-54.25z" fill="#FBF7EC"/><path d="M200.71 439.34c-.28 0-.49.1-.64.29-.15.19-.23.48-.23.85v2.72c-.35-.37-.7-.66-1.06-.84-.37-.18-.82-.27-1.35-.27-.91 0-1.65.32-2.22.96-.56.65-.84 1.54-.84 2.69 0 .55.07 1.05.21 1.52.14.47.35.88.63 1.22.27.35.6.61.97.8.38.19.78.28 1.23.28.33 0 .64-.05.91-.14.29-.09.55-.23.79-.4.24-.18.48-.41.73-.69v.18c0 .33.08.59.25.78.16.18.37.27.62.27.26 0 .46-.09.63-.26.16-.18.24-.44.24-.79v-8.12c0-.35-.08-.61-.23-.79-.15-.17-.36-.26-.64-.26zm-1.21 7.77c-.16.35-.37.61-.64.77-.27.17-.56.26-.89.26-.32 0-.61-.09-.88-.27-.27-.18-.48-.44-.64-.79-.15-.35-.23-.78-.23-1.28 0-.47.07-.88.22-1.24s.35-.63.62-.82c.26-.19.56-.29.9-.29.32 0 .62.09.89.28.27.19.49.46.65.81.16.35.24.77.24 1.26 0 .53-.08.96-.24 1.31zm9.58-1.05c.26-.13.39-.43.39-.9 0-.49-.12-.98-.38-1.47-.26-.48-.64-.87-1.16-1.17-.51-.31-1.13-.46-1.85-.46-.55 0-1.05.09-1.51.27-.45.18-.83.43-1.14.77-.31.33-.55.73-.71 1.19-.16.47-.24.97-.24 1.52 0 1.15.32 2.07.98 2.74.66.67 1.58 1.01 2.76 1.01.51 0 .97-.07 1.37-.2.4-.14.73-.31.99-.51.26-.21.46-.42.59-.64.13-.23.2-.42.2-.59 0-.18-.06-.33-.18-.43a.646.646 0 00-.46-.16c-.17 0-.31.04-.4.12-.23.22-.42.39-.56.52-.15.12-.3.24-.47.35-.17.11-.35.19-.53.24-.18.05-.39.08-.61.08-.32 0-.62-.08-.9-.24-.27-.16-.49-.41-.65-.72-.17-.32-.25-.69-.25-1.11h3.6c.48 0 .85-.07 1.12-.21zm-4.72-.83c.06-.62.24-1.09.53-1.41.3-.32.67-.48 1.13-.48.48 0 .87.16 1.17.47.29.31.46.79.5 1.42h-3.33zm10.88.34c-.36-.19-.83-.36-1.4-.5-.48-.12-.86-.22-1.13-.3-.27-.08-.49-.18-.65-.3a.58.58 0 01-.25-.48c0-.21.11-.39.33-.53.22-.14.5-.21.83-.21.33 0 .58.05.77.16.19.11.35.25.49.43.17.22.33.38.46.49.13.11.29.16.48.16.26 0 .46-.07.6-.2.14-.14.21-.31.21-.52 0-.2-.06-.39-.19-.6-.14-.2-.33-.38-.58-.55-.26-.16-.57-.3-.95-.39-.38-.1-.81-.15-1.29-.15-.61 0-1.12.09-1.55.29-.43.2-.76.46-.98.79-.22.32-.33.67-.33 1.04 0 .41.12.76.36 1.05.24.28.56.51.96.68.39.17.91.34 1.54.49.56.14.97.28 1.21.43.25.15.37.39.37.71 0 .21-.12.4-.35.56-.24.17-.54.25-.91.25-.45 0-.81-.08-1.08-.24a2.02 2.02 0 01-.67-.74c-.1-.17-.2-.3-.3-.4-.1-.09-.25-.14-.44-.14-.22 0-.41.07-.55.22-.15.14-.22.31-.22.52 0 .3.12.61.34.91.23.3.57.56 1.05.76.47.2 1.03.3 1.69.3.7 0 1.28-.09 1.77-.28.48-.18.85-.46 1.09-.82.25-.36.37-.8.37-1.31 0-.33-.09-.63-.28-.89-.18-.27-.46-.5-.82-.69zm2.96-3.49c-.27 0-.49.09-.65.27-.17.19-.26.46-.26.82v5.27c0 .36.09.64.26.83.16.19.38.29.65.29s.49-.1.67-.28c.18-.19.26-.47.26-.84v-5.32c0-.33-.08-.58-.26-.77a.904.904 0 00-.67-.27zm.02-2.66c-.24 0-.46.08-.65.25-.18.17-.28.39-.28.65 0 .29.09.51.28.66.18.16.4.24.65.24s.46-.08.64-.24c.18-.16.27-.38.27-.66 0-.3-.09-.52-.27-.67-.19-.15-.4-.23-.64-.23zm8.09 2.66a.76.76 0 00-.6.26c-.16.17-.24.42-.24.74v.25c-.33-.43-.68-.74-1.06-.94-.39-.2-.84-.3-1.36-.3-.44 0-.84.08-1.2.23-.36.16-.69.39-.96.69-.28.31-.5.68-.65 1.13-.15.44-.22.94-.22 1.5 0 .74.12 1.39.37 1.96.25.57.6 1 1.06 1.32.46.31 1 .47 1.61.47.52 0 .96-.1 1.33-.31.37-.2.7-.51.98-.9-.01.6-.02 1.04-.04 1.31s-.08.53-.19.76c-.1.24-.29.43-.55.56-.26.13-.63.2-1.11.2-.23 0-.44-.02-.62-.06-.18-.05-.33-.11-.46-.2a1.75 1.75 0 01-.35-.32c-.11-.12-.21-.24-.31-.36-.2-.24-.43-.36-.71-.36-.21 0-.39.07-.55.21-.15.14-.23.33-.23.55 0 .3.14.59.41.87.27.28.65.51 1.15.68.5.18 1.07.27 1.7.27.69 0 1.27-.07 1.73-.21.47-.14.85-.35 1.13-.64.29-.29.5-.65.63-1.09.13-.44.2-.97.2-1.58v-5.34c0-.44-.06-.77-.18-1.01-.11-.23-.35-.34-.71-.34zm-1.16 4.96c-.17.33-.39.57-.67.74-.27.16-.56.24-.86.24-.52 0-.94-.19-1.27-.57-.32-.38-.49-.95-.49-1.69s.16-1.31.48-1.71c.32-.4.74-.6 1.26-.6.54 0 .98.21 1.31.63.33.42.49 1 .49 1.75 0 .47-.08.87-.25 1.21zm9.52-3.75c-.19-.39-.48-.68-.86-.9-.38-.21-.81-.31-1.3-.31-.5 0-.94.1-1.33.3-.38.2-.73.51-1.06.94v-.23c0-.22-.04-.4-.12-.56a.788.788 0 00-.75-.45c-.26 0-.47.08-.63.26-.15.17-.22.43-.22.78v5.32c0 .36.08.64.25.83.17.19.39.29.66.29s.49-.09.67-.28c.17-.19.26-.47.26-.84v-2.31c0-.75.04-1.26.13-1.53.13-.34.32-.61.59-.81.27-.2.57-.29.9-.29.5 0 .84.16 1.01.48.17.32.25.78.25 1.39v3.07c0 .36.09.63.26.83.17.19.39.29.67.29.27 0 .48-.1.65-.29.17-.18.26-.46.26-.83v-3.43c0-.4-.02-.73-.06-1-.03-.25-.11-.5-.23-.72zm7.77 2.77c.27-.13.4-.43.4-.9 0-.49-.13-.98-.39-1.47-.25-.48-.64-.87-1.15-1.17-.52-.31-1.13-.46-1.85-.46-.56 0-1.06.09-1.51.27-.46.18-.84.43-1.15.77-.31.33-.55.73-.71 1.19-.16.47-.24.97-.24 1.52 0 1.15.33 2.07.98 2.74.66.67 1.58 1.01 2.76 1.01.52 0 .97-.07 1.37-.2.4-.14.73-.31.99-.51.26-.21.46-.42.59-.64.13-.23.2-.42.2-.59 0-.18-.06-.33-.18-.43a.646.646 0 00-.46-.16c-.17 0-.31.04-.4.12-.23.22-.42.39-.56.52-.15.12-.3.24-.47.35-.17.11-.35.19-.53.24-.19.05-.39.08-.61.08-.32 0-.62-.08-.9-.24-.27-.16-.49-.41-.65-.72-.16-.32-.25-.69-.25-1.11h3.6c.48 0 .86-.07 1.12-.21zm-4.72-.83c.06-.62.24-1.09.54-1.41.29-.32.67-.48 1.13-.48.48 0 .87.16 1.16.47.29.31.46.79.51 1.42h-3.34zm11.97-5.89c-.27 0-.49.1-.64.29-.15.19-.23.48-.23.85v2.72c-.34-.37-.7-.66-1.06-.84-.37-.18-.81-.27-1.34-.27-.92 0-1.66.32-2.22.96-.56.65-.84 1.54-.84 2.69 0 .55.07 1.05.21 1.52.14.47.35.88.62 1.22.28.35.6.61.98.8.37.19.78.28 1.22.28.33 0 .64-.05.92-.14.28-.09.54-.23.78-.4.24-.18.49-.41.73-.69v.18c0 .33.08.59.25.78.16.18.37.27.62.27.26 0 .47-.09.63-.26.16-.18.24-.44.24-.79v-8.12c0-.35-.07-.61-.22-.79-.15-.17-.37-.26-.65-.26zm-1.21 7.77c-.16.35-.37.61-.64.77-.26.17-.56.26-.88.26-.32 0-.62-.09-.89-.27-.27-.18-.48-.44-.63-.79-.16-.35-.24-.78-.24-1.28 0-.47.08-.88.22-1.24.15-.36.36-.63.62-.82.27-.19.57-.29.9-.29.33 0 .62.09.9.28.27.19.49.46.64.81.16.35.24.77.24 1.26 0 .53-.08.96-.24 1.31zm11.87-4.59c-.46-.28-1-.43-1.61-.43-.53 0-.98.1-1.33.29-.37.19-.72.46-1.06.82v-2.81c0-.34-.08-.59-.23-.78-.15-.18-.37-.27-.66-.27-.27 0-.48.1-.63.29-.15.19-.22.47-.22.84v8.04c0 .35.07.61.23.79.16.17.36.26.62.26s.47-.09.64-.26c.16-.18.25-.45.25-.79v-.18c.2.23.36.41.49.52.12.12.27.23.45.34.17.12.38.2.63.27s.52.1.8.1c.46 0 .89-.09 1.27-.28.39-.18.71-.45.98-.79s.48-.75.62-1.21c.14-.47.21-.98.21-1.53 0-.76-.12-1.41-.38-1.96-.25-.55-.61-.98-1.07-1.27zm-.9 5.01c-.33.41-.73.61-1.19.61-.55 0-.99-.2-1.32-.59-.34-.4-.51-.96-.51-1.69 0-.5.08-.93.24-1.29.16-.37.37-.64.65-.83.27-.19.58-.29.94-.29.34 0 .64.1.89.29.26.19.45.46.6.81.14.35.2.77.2 1.25 0 .76-.16 1.33-.5 1.73zm8.79-5.34a.757.757 0 00-.4-.11c-.2 0-.35.03-.45.1-.11.06-.21.2-.3.39-.1.19-.2.46-.32.8l-1.48 4.22-1.55-4.53c-.11-.32-.23-.56-.36-.73-.14-.17-.34-.25-.6-.25-.16 0-.3.04-.44.12a.856.856 0 00-.46.76c0 .15.07.39.21.71l2.26 5.71-.16.41c-.13.3-.24.53-.34.68-.09.16-.2.27-.33.33-.12.06-.28.1-.49.1-.09 0-.19-.02-.31-.04a.93.93 0 00-.29-.05c-.25 0-.44.06-.57.18-.13.11-.19.28-.19.49 0 .31.14.52.4.64.28.11.68.17 1.22.17.55 0 .99-.08 1.32-.25.32-.17.58-.41.78-.73.2-.31.4-.74.61-1.3l2.4-6.28c.06-.16.11-.32.15-.48l.09-.36c0-.14-.04-.28-.11-.4a.762.762 0 00-.29-.3zm25.44-2.86c-.6 0-1.08.08-1.43.24-.35.15-.6.4-.74.74-.15.34-.22.79-.22 1.37v.56h-.44c-.61 0-.92.21-.92.66 0 .19.07.36.22.48s.36.18.63.18h.51v4.88c0 .36.09.64.26.83.17.19.39.29.65.29.28 0 .5-.1.67-.29.18-.19.26-.47.26-.83v-4.88h.45c.33 0 .59-.04.77-.12.19-.08.28-.27.28-.57 0-.42-.35-.63-1.05-.63h-.45v-.44c0-.37.05-.65.14-.84.1-.2.31-.3.64-.3.12 0 .28.02.44.04.18.03.31.04.38.04.15 0 .29-.06.4-.18.11-.12.17-.27.17-.43 0-.53-.54-.8-1.62-.8zm5.86 3.03c-.36-.19-.73-.29-1.12-.29-.39 0-.69.1-.93.29-.23.2-.45.48-.67.86-.02-.38-.09-.66-.23-.86-.13-.19-.35-.29-.66-.29-.6 0-.89.42-.89 1.24v5.13c0 .37.08.65.25.83.17.2.39.29.66.29s.49-.09.66-.28c.18-.19.27-.47.27-.84v-1.54c0-.55.02-1.02.05-1.41.04-.38.1-.71.19-.99.1-.28.23-.49.41-.63.16-.14.39-.21.66-.21.19 0 .42.04.68.12.26.08.42.13.49.13.18 0 .35-.08.5-.23.16-.14.24-.33.24-.55-.01-.32-.19-.57-.56-.77zm6.92 3.7c.26-.14.4-.44.4-.9 0-.5-.13-.98-.39-1.47-.25-.48-.64-.87-1.15-1.17-.52-.31-1.14-.46-1.85-.46-.56 0-1.06.09-1.51.26-.46.18-.84.44-1.15.77-.31.33-.55.73-.71 1.2-.16.46-.25.97-.25 1.51 0 1.16.34 2.07.99 2.75.66.67 1.58 1.01 2.76 1.01.52 0 .98-.07 1.37-.21.4-.13.73-.3 1-.5.26-.21.46-.42.59-.64.13-.23.19-.42.19-.59 0-.19-.05-.33-.17-.43a.646.646 0 00-.46-.16c-.18 0-.31.04-.41.12-.23.22-.41.39-.56.51-.14.13-.3.25-.47.36-.17.11-.35.19-.53.24-.18.05-.38.08-.6.08-.33 0-.63-.08-.9-.24-.28-.17-.49-.41-.66-.73a2.44 2.44 0 01-.25-1.1h3.6c.48 0 .85-.07 1.12-.21zm-4.72-.84c.06-.62.24-1.09.54-1.4.29-.32.67-.48 1.13-.48.48 0 .86.16 1.16.47.3.31.46.78.51 1.41h-3.34zm12.38.84c.26-.14.39-.44.39-.9 0-.5-.13-.98-.38-1.47-.25-.48-.64-.87-1.15-1.17-.53-.31-1.14-.46-1.86-.46-.55 0-1.06.09-1.51.26a3.15 3.15 0 00-1.85 1.97c-.17.46-.25.97-.25 1.51 0 1.16.33 2.07.99 2.75.66.67 1.57 1.01 2.76 1.01.51 0 .97-.07 1.37-.21.39-.13.73-.3.99-.5.27-.21.46-.42.59-.64.13-.23.19-.42.19-.59 0-.19-.05-.33-.17-.43-.11-.11-.27-.16-.46-.16-.17 0-.3.04-.4.12-.23.22-.42.39-.56.51-.14.13-.3.25-.47.36-.17.11-.35.19-.53.24-.18.05-.39.08-.6.08-.33 0-.64-.08-.91-.24-.27-.17-.49-.41-.65-.73a2.44 2.44 0 01-.25-1.1h3.6c.48 0 .85-.07 1.12-.21zm-4.72-.84c.06-.62.24-1.09.53-1.4.3-.32.67-.48 1.13-.48.48 0 .87.16 1.17.47.29.31.46.78.5 1.41h-3.33zm11.54-2.7c-.47-.29-1-.43-1.56-.43-.48 0-.9.1-1.27.3-.38.2-.74.51-1.08.94v-.22c0-.34-.08-.59-.25-.77a.803.803 0 00-.63-.27c-.27 0-.48.09-.63.26-.15.18-.23.44-.23.79v7.94c0 .41.06.71.17.92.11.21.34.31.69.31.58 0 .88-.4.88-1.21v-2.76c.32.4.67.72 1.02.92.36.22.8.32 1.33.32.43 0 .84-.09 1.22-.26s.71-.42.99-.74.5-.72.66-1.19c.16-.48.24-1 .24-1.57 0-.77-.14-1.43-.42-1.99-.28-.56-.65-.99-1.13-1.29zm-.54 4.55c-.15.36-.36.62-.62.8-.26.18-.55.26-.85.26-.52 0-.94-.2-1.29-.6-.35-.41-.52-.98-.52-1.71 0-.78.17-1.37.52-1.77.35-.4.78-.6 1.29-.6.31 0 .61.09.87.28.26.19.47.45.61.8.15.35.23.77.23 1.25 0 .51-.08.93-.24 1.29zm3.92-5c-.27 0-.48.09-.66.28-.16.19-.25.46-.25.82v5.27c0 .36.09.63.25.83.18.19.39.29.66.29s.49-.09.67-.28c.17-.19.26-.47.26-.84v-5.32c0-.33-.09-.58-.26-.77a.876.876 0 00-.67-.28zm.02-2.66a.94.94 0 00-.65.26c-.19.17-.28.38-.28.64 0 .29.09.51.28.67.18.15.39.24.65.24.25 0 .46-.09.64-.24.18-.16.27-.38.27-.67 0-.29-.09-.51-.28-.67a.959.959 0 00-.63-.23zm8.34 8.38l-1.89-2.97.98-.9c.5-.45.75-.81.75-1.08 0-.22-.08-.4-.23-.55a.853.853 0 00-.58-.22c-.19 0-.35.05-.49.15-.14.1-.33.28-.59.55l-2.07 2.18v-4.47c0-.38-.08-.66-.25-.86-.16-.19-.39-.29-.67-.29-.29 0-.52.11-.68.32-.15.22-.23.53-.23.94v7.85c0 .37.08.65.24.83.16.19.39.29.67.29.24 0 .46-.1.64-.29.19-.19.28-.46.28-.82v-1.46l1-.95 1.63 2.68c.2.31.37.53.49.65.12.13.3.19.52.19.26 0 .47-.09.63-.26.16-.17.24-.4.24-.69 0-.1-.03-.21-.09-.33a9.88 9.88 0 00-.3-.49zm2.49-.26c-.28 0-.52.1-.71.3-.2.19-.3.43-.3.7 0 .33.11.58.31.76.2.18.44.27.72.27.27 0 .5-.09.71-.28.19-.17.3-.43.3-.75 0-.27-.1-.51-.3-.71-.21-.19-.45-.29-.73-.29zm8.39-1.05c-.19 0-.35.06-.48.17-.13.12-.25.28-.36.49-.2.35-.43.61-.7.78-.26.17-.58.26-.95.26-.27 0-.52-.05-.75-.16a1.58 1.58 0 01-.59-.47c-.16-.2-.29-.45-.37-.74-.08-.29-.13-.61-.13-.95 0-.74.17-1.32.5-1.75.33-.42.77-.63 1.32-.63.37 0 .68.08.93.25.25.17.48.43.7.77.13.18.24.31.34.38.11.08.23.12.39.12.23 0 .43-.07.59-.23.17-.15.25-.34.25-.56 0-.21-.07-.45-.22-.7a2.72 2.72 0 00-.63-.7c-.28-.22-.62-.4-1.01-.54-.41-.14-.84-.21-1.32-.21-.76 0-1.43.16-1.98.48-.55.31-.98.76-1.27 1.34-.29.58-.44 1.25-.44 2.01 0 1.11.32 2 .96 2.66.64.66 1.53 1 2.67 1 .53 0 1.01-.08 1.44-.22.43-.14.78-.33 1.06-.57.28-.23.49-.48.63-.74s.21-.51.21-.74c0-.19-.08-.37-.23-.54a.682.682 0 00-.56-.26zm7.74-3.37c-.33-.33-.72-.59-1.17-.77-.45-.18-.96-.27-1.52-.27-.54 0-1.05.09-1.5.27-.46.18-.84.43-1.16.76-.32.33-.57.72-.74 1.19-.16.46-.25.97-.25 1.53 0 .55.08 1.05.25 1.51.17.46.42.85.74 1.19.33.33.72.59 1.16.77.44.18.95.27 1.5.27.56 0 1.07-.09 1.52-.26.45-.18.84-.44 1.16-.77.33-.33.57-.73.75-1.19.16-.47.25-.98.25-1.52 0-.56-.09-1.06-.25-1.52-.17-.46-.42-.85-.74-1.19zm-1.36 4.45c-.33.42-.77.63-1.33.63-.36 0-.68-.1-.96-.29-.27-.19-.48-.46-.63-.83-.14-.36-.22-.77-.22-1.25 0-.49.08-.92.23-1.28.15-.37.36-.64.63-.83.27-.18.59-.28.95-.28.56 0 1 .21 1.33.63.33.42.5 1 .5 1.76 0 .74-.17 1.32-.5 1.74zm12.63-5.18c-.36-.19-.8-.29-1.3-.29-.43 0-.83.09-1.18.27-.36.18-.69.46-1 .84-.22-.37-.49-.65-.83-.84-.33-.18-.72-.27-1.19-.27-.44 0-.85.09-1.21.27-.37.18-.71.46-1.03.84v-.17c0-.3-.08-.53-.25-.7a.86.86 0 00-.63-.26.78.78 0 00-.63.28c-.16.17-.24.44-.24.78v5.27c0 .38.09.67.26.87.18.19.41.29.69.29.28 0 .51-.1.69-.29.17-.2.25-.49.25-.87v-2.49c0-.77.1-1.37.29-1.77.19-.42.59-.63 1.19-.63.3 0 .52.08.66.25.14.16.23.38.26.63s.04.62.04 1.08v2.93c0 .39.09.68.27.87.16.2.39.29.67.29.29 0 .52-.09.7-.29.17-.19.26-.48.26-.87v-2.45c0-.78.07-1.33.2-1.64.12-.24.29-.44.51-.58.22-.14.45-.22.69-.22.3 0 .53.08.68.24.14.17.24.37.27.61.03.23.05.55.05.94v3.1c0 .38.09.67.27.87.18.19.4.29.68.29.29 0 .52-.1.7-.29.17-.19.26-.48.26-.87v-3.59c0-.72-.08-1.24-.24-1.58-.18-.37-.45-.65-.81-.85zm-88.85 3.58c-.04-.17-.06-.33-.08-.5.02.17.05.33.08.5zm.61 1.71c-.01-.01-.01-.02-.01-.03 0 .01 0 .02.01.03zm-.06-.11c-.02-.04-.03-.07-.05-.1.02.03.03.06.05.1zm-.38-.94zm5.94-8.93l-.09-.3c.34-.07.6-.37.6-.73 0-.41-.34-.75-.75-.75s-.75.34-.75.75c0 .36.26.66.59.73l.1.33c-1.16.16-2.08.62-2.08.62l.16.5c.7-.24 1.31-.38 1.86-.44.54-.06.95-.08 1.28-.08.36 0 .62.03.92.08l.09-.54s-.84-.26-1.93-.17zm-6 2.85c-.02.02-.57.53-1 1.45a.24.24 0 00-.06-.08.667.667 0 00-.54-.21h-.01c-.14 0-.24-.05-.3-.11a.48.48 0 00-.38-.77c-.26 0-.47.22-.47.48s.21.47.47.47c.05 0 .09 0 .12-.01.12.13.31.24.58.24.14 0 .24.03.31.11.08.08.1.21.11.3v.01c-.31.84-.22 1.89-.22 1.89l.75.03c.01-.38.07-1.05.26-1.58.37-1.03.84-1.67.86-1.7l.01-.01a.7.7 0 01.08-.1l-.23-.16-.34-.25zm13.45-1.59a.47.47 0 00-.47.47c0 .04 0 .08.01.12-.13.12-.24.3-.24.57.01.14-.03.24-.11.31-.06.06-.13.09-.21.1-.55-.78-1.24-1.26-1.24-1.26l-.54.58c.41.37.82.83 1.23 1.41.28.4.56.92.8 1.43l.73-.34s-.33-.82-.8-1.56a.71.71 0 00.24-.13c.14-.13.21-.31.2-.54 0-.15.05-.25.11-.31.08.06.18.1.29.1.26 0 .48-.22.48-.48s-.22-.47-.48-.47z" fill="#D8C5F3"/><path d="M285.39 445.48c-.99.48-2.64 1.13-4.81 1.43-.85.12-1.67.16-2.43.16-.99 0-1.86-.07-2.53-.16-.77-.09-1.36-.21-1.73-.29.09.28.2.55.32.82.01.01.01.02.01.02.02.03.03.06.05.1.01.03.03.06.05.08 0 .01 0 .02.01.03.21.4.47.78.77 1.1 1.02 1.12 2.06 1.29 2.07 1.29l.01.01h.02c.01.01.93.3 2.34.3 1.38 0 2.73-.27 4.02-.82.96-.49 1.87-1.24 2.31-1.9.35-.51.6-1.06.75-1.63.08-.3.14-.79.1-1.29-.28.19-.72.45-1.33.75z" fill="#D8C5F3"/><path d="M281.63 438.8c-.3-.05-.54-.08-.88-.08-.32 0-.71.02-1.24.08-.53.05-1.11.19-1.79.42-.96.32-1.83.83-2.51 1.46l-.02.02c-.1.09-.31.29-.56.59-.03.05-.46.66-.8 1.6-.26.71-.25 1.74-.25 1.75 0 .24.02.48.04.72v.01c.01.03.01.06.02.09.02.17.04.33.08.5.5.13 3.46.82 6.78.36 2.07-.29 3.65-.91 4.61-1.37.8-.39 1.31-.74 1.51-.88-.2-.73-.74-1.87-1.24-2.59-1.42-2.03-2.96-2.55-3.75-2.68zm-4.14 5.97c-1.1 0-1.99-.89-1.99-2 0-1.1.89-2 1.99-2 1.11 0 2.01.9 2.01 2-.01 1.11-.9 2-2.01 2zm5.86-1.47c-.69 0-1.24-.56-1.24-1.24 0-.69.55-1.24 1.24-1.24.68 0 1.23.55 1.23 1.24 0 .68-.55 1.24-1.23 1.24z" fill="#D8C5F3"/></g><path d="M355 0h84.879v116.564H355z"/><g clip-path="url(#c)"><path d="M402.02 67.31c-.05 0-.11-.01-.16-.03L356.38 46.7c-.05-.02-.09-.05-.13-.08-.03-.04-.06-.08-.08-.13-.01-.05-.02-.1-.02-.15a.345.345 0 01.12-.27c.04-.03.08-.06.13-.08.05-.02.1-.03.15-.02.05 0 .1.01.14.03l45.19 20.43 26.97-42.49c.03-.04.07-.08.11-.11a.379.379 0 01.29-.06c.05.01.1.02.14.05.04.03.08.06.11.11.03.04.05.09.06.13.01.05.01.11 0 .16s-.02.09-.05.14l-27.16 42.77c-.03.06-.08.1-.14.13a.32.32 0 01-.19.05z" fill="#232323"/><path d="M402.02 67.31a.37.37 0 01-.26-.1l-28.27-26.5-.09-.12a.401.401 0 01-.03-.15c0-.05 0-.1.02-.15.02-.05.05-.09.08-.13a.38.38 0 01.27-.12c.06-.01.11 0 .15.02.05.02.1.05.13.08l27.79 26.05 9.36-37.4a.33.33 0 01.07-.13.29.29 0 01.11-.11c.04-.02.09-.04.14-.05.05 0 .1 0 .15.01.05.01.1.03.14.06.04.04.07.07.1.12.02.04.04.09.05.14.01.05 0 .1-.01.15l-9.52 38.04c-.02.08-.07.16-.14.21-.07.05-.15.08-.24.08z" fill="#232323"/><path d="M402.02 67.31c-.16 0-.32-.11-.37-.28l-9.57-32.83c-.02-.05-.02-.1-.02-.15.01-.05.02-.1.05-.14.02-.05.06-.09.1-.12a.33.33 0 01.13-.07c.05-.01.1-.02.15-.01.05 0 .1.02.14.04a.4.4 0 01.12.1c.03.04.06.08.07.13l9.57 32.84c.02.06.02.12.01.18-.01.05-.03.11-.07.16-.03.05-.08.09-.13.11-.06.03-.12.04-.18.04z" fill="#232323"/><path d="M429.38 24.25c-.05.02-.09.02-.13 0a.259.259 0 01-.11-.07 9.623 9.623 0 00-10.45-3.33 9.645 9.645 0 00-6.78 8.2.84.84 0 01-.58.72.86.86 0 01-.89-.27 9.649 9.649 0 00-10.2-3.02 9.643 9.643 0 00-6.77 8.2c-.04.34-.27.62-.59.72-.32.1-.67-.01-.89-.27a9.626 9.626 0 00-10.2-3.01c-3.81 1.16-6.37 4.47-6.77 8.2-.04.33-.27.61-.59.71-.32.1-.67-.01-.88-.26a9.654 9.654 0 00-10.2-3.02 9.642 9.642 0 00-6.81 8.6c-.01.05-.02.09-.05.12-.03.04-.06.06-.11.07-.03.01-.06.02-.09.01-.03 0-.05-.01-.08-.03a.134.134 0 01-.07-.06c-.01-.02-.03-.05-.03-.08-3.78-19.17 7.5-38.47 26.59-44.31 19.1-5.83 39.23 3.88 46.81 21.89.01.03.02.06.02.09s-.01.06-.02.09-.03.05-.06.07c-.02.02-.05.03-.07.04z" fill="#FFF"/><path d="M356.32 46.94c-.14 0-.27-.05-.38-.14a.577.577 0 01-.21-.35 38.846 38.846 0 014.77-27.42A38.883 38.883 0 01382.59 1.7a38.901 38.901 0 0128 2.03c8.71 4.11 15.56 11.24 19.28 20.08.03.08.05.16.05.25-.01.08-.03.17-.06.24-.04.08-.09.15-.15.2-.07.06-.14.1-.22.12-.12.04-.24.04-.36 0a.563.563 0 01-.29-.21c-2.34-3.03-6.37-4.31-10.04-3.19a9.274 9.274 0 00-4.44 2.96 9.282 9.282 0 00-2.06 4.91c-.05.49-.39.9-.86 1.05-.47.14-.98-.01-1.29-.39a9.231 9.231 0 00-4.46-2.92 9.25 9.25 0 00-9.77 2.98 9.216 9.216 0 00-2.07 4.92c-.05.49-.39.9-.86 1.04s-.97-.01-1.29-.39a9.303 9.303 0 00-4.46-2.92 9.3 9.3 0 00-5.33.03 9.255 9.255 0 00-4.44 2.95 9.216 9.216 0 00-2.07 4.92c-.05.49-.39.9-.85 1.04-.47.15-.98 0-1.3-.38a9.321 9.321 0 00-4.46-2.93 9.3 9.3 0 00-5.33.03c-3.66 1.12-6.29 4.44-6.54 8.26-.01.12-.05.24-.13.33-.07.1-.18.17-.29.21-.06.01-.12.02-.18.02zM393.99.77c-3.75 0-7.52.56-11.17 1.67-9.1 2.78-16.8 8.81-21.66 16.98a38.077 38.077 0 00-4.87 25.78c.66-3.65 3.34-6.72 6.94-7.82 1.88-.58 3.89-.59 5.78-.03 1.89.56 3.57 1.66 4.83 3.17.12.14.31.2.48.14.17-.05.29-.2.31-.38.21-1.96.99-3.81 2.24-5.33a10.02 10.02 0 014.81-3.2 10.026 10.026 0 0110.61 3.13.443.443 0 00.79-.24c.21-1.95.99-3.81 2.24-5.32 1.25-1.52 2.93-2.63 4.81-3.21 1.88-.57 3.89-.58 5.78-.03 1.88.56 3.56 1.66 4.83 3.17.12.14.3.2.48.15.17-.06.29-.21.31-.39.21-1.96.99-3.81 2.24-5.33a9.997 9.997 0 014.81-3.2c3.6-1.1 7.54-.05 10.13 2.61a38.133 38.133 0 00-18.45-18.66A38.067 38.067 0 00393.99.77z" fill="#232323"/><mask id="d" maskUnits="userSpaceOnUse" x="355.387" y=".387" width="74.146" height="46.173"><path d="M429.38 24.25c-.05.02-.09.02-.13 0a.259.259 0 01-.11-.07 9.623 9.623 0 00-10.45-3.33 9.645 9.645 0 00-6.78 8.2.84.84 0 01-.58.72.86.86 0 01-.89-.27 9.649 9.649 0 00-10.2-3.02 9.643 9.643 0 00-6.77 8.2c-.04.34-.27.62-.59.72-.32.1-.67-.01-.89-.27a9.626 9.626 0 00-10.2-3.01c-3.81 1.16-6.37 4.47-6.77 8.2-.04.33-.27.61-.59.71-.32.1-.67-.01-.88-.26a9.654 9.654 0 00-10.2-3.02 9.642 9.642 0 00-6.81 8.6c-.01.05-.02.09-.05.12-.03.04-.06.06-.11.07-.03.01-.06.02-.09.01-.03 0-.05-.01-.08-.03a.134.134 0 01-.07-.06c-.01-.02-.03-.05-.03-.08-3.78-19.17 7.5-38.47 26.59-44.31 19.1-5.83 39.23 3.88 46.81 21.89.01.03.02.06.02.09s-.01.06-.02.09-.03.05-.06.07c-.02.02-.05.03-.07.04z" fill="#000"/></mask><g mask="url(#d)"><path d="M375.32 44.86a.4.4 0 01-.23-.08c-.07-.04-.11-.11-.14-.19-2.03-6.41-2.9-12.65-2.6-18.54.25-4.71 1.25-9.22 2.99-13.39 2.95-7.11 6.94-10.72 7.1-10.87.08-.07.18-.1.28-.1.1.01.2.05.27.13.06.08.1.18.09.28 0 .1-.05.19-.12.26-.01.01-1.02.92-2.37 2.68-1.25 1.62-3.05 4.32-4.56 7.96-1.69 4.08-2.67 8.5-2.9 13.12-.3 5.79.56 11.93 2.56 18.24.02.05.02.12.01.18s-.03.11-.07.16c-.03.05-.08.09-.14.12-.05.03-.11.04-.17.04z" fill="#232323"/></g><mask id="e" maskUnits="userSpaceOnUse" x="355.387" y=".387" width="74.146" height="46.173"><path d="M429.38 24.25c-.05.02-.09.02-.13 0a.259.259 0 01-.11-.07 9.623 9.623 0 00-10.45-3.33 9.645 9.645 0 00-6.78 8.2.84.84 0 01-.58.72.86.86 0 01-.89-.27 9.649 9.649 0 00-10.2-3.02 9.643 9.643 0 00-6.77 8.2c-.04.34-.27.62-.59.72-.32.1-.67-.01-.89-.27a9.626 9.626 0 00-10.2-3.01c-3.81 1.16-6.37 4.47-6.77 8.2-.04.33-.27.61-.59.71-.32.1-.67-.01-.88-.26a9.654 9.654 0 00-10.2-3.02 9.642 9.642 0 00-6.81 8.6c-.01.05-.02.09-.05.12-.03.04-.06.06-.11.07-.03.01-.06.02-.09.01-.03 0-.05-.01-.08-.03a.134.134 0 01-.07-.06c-.01-.02-.03-.05-.03-.08-3.78-19.17 7.5-38.47 26.59-44.31 19.1-5.83 39.23 3.88 46.81 21.89.01.03.02.06.02.09s-.01.06-.02.09-.03.05-.06.07c-.02.02-.05.03-.07.04z" fill="#000"/></mask><g mask="url(#e)"><path d="M393.17 36.83a.35.35 0 01-.23-.07.352.352 0 01-.14-.2L382.39 2.22a.406.406 0 010-.19.38.38 0 01.08-.17.4.4 0 01.35-.13c.05.01 1.4.2 3.56.91 1.99.67 5.06 1.92 8.41 4.14 3.76 2.49 7.11 5.66 9.95 9.44 3.55 4.71 6.31 10.37 8.21 16.82.01.05.02.1.01.15-.01.05-.02.1-.04.15-.03.04-.06.08-.1.11a.37.37 0 01-.14.07c-.04.02-.1.02-.15.02a.336.336 0 01-.14-.05.53.53 0 01-.12-.1.539.539 0 01-.07-.13c-1.86-6.35-4.57-11.92-8.06-16.55-2.78-3.71-6.06-6.82-9.74-9.27-5.05-3.35-9.51-4.5-11.08-4.83l10.22 33.72c.01.06.02.12.01.18a.51.51 0 01-.07.17.36.36 0 01-.14.11c-.05.03-.11.04-.17.04z" fill="#232323"/></g><path d="M377.4 74.45l49.62-15.15 12.86 42.1-49.62 15.16-12.86-42.11z" fill="#D9C6F4"/><path d="M397.48 104.7c.04-.02.08-.04.11-.08.03-.03.05-.07.06-.12.01-.04 0-.09-.01-.13a.313.313 0 00-.09-.11l-1.91-1.34-2.06-1.46c-.03-.02-.07-.03-.1-.04-.04 0-.08 0-.11.01-.04.01-.07.03-.1.06-.03.02-.05.05-.06.09l-.9 2.35-.83 2.19c-.01.04-.02.09-.01.13.01.05.03.09.06.12.03.04.07.06.12.07.04.01.09.01.13 0l.97-.3c.06-.02.13-.01.19.02s.1.08.12.15l1.39 4.55c.02.07.06.12.12.15s.12.04.19.02l2.82-.87c.06-.01.11-.06.14-.11.03-.06.04-.13.02-.19l-1.39-4.56a.254.254 0 01.02-.19c.03-.05.08-.1.14-.12l.97-.29zm8-3.78l-.86-2.81a.207.207 0 00-.11-.13.202.202 0 00-.17-.02l-4.37 1.33c-.06.02-.1.06-.13.11s-.03.11-.02.17l.86 2.81a2.524 2.524 0 002.88 1.74l1.04 3.41-1.74.53c-.06.02-.1.06-.13.11-.02.05-.03.11-.01.16.01.06.05.1.1.13s.11.04.17.02l3.98-1.21c.06-.02.1-.06.13-.11.02-.05.03-.11.01-.17a.212.212 0 00-.1-.13c-.05-.03-.11-.03-.17-.02l-1.82.56-1.04-3.4a2.522 2.522 0 001.5-3.08zm-4.38 1.33l-.79-2.6 3.95-1.2.79 2.6c.34 1.09-.28 2.24-1.37 2.58a2.07 2.07 0 01-2.58-1.38z" fill="#232323"/></g><path d="M58 257.432L150.991 238l24.546 117.463-92.991 19.432z"/><g clip-path="url(#f)"><path d="M149.08 260.41l.33 1.5-1.63.36-.28-1.59 1.58-.27zm-1.87 21.71l-.06 1.43-2.48-.64.97-1.84 1.57 1.05zm-56.25-5.96l-.58 1.46 2.1-.66.05-1.65-1.57.85zm2.42-21.39l-.71 1.31 1.86.22.53-1.53h-1.68z" fill="#232323"/><path d="M133.8 270.63a.673.673 0 01.13-1.21c9.67-3.5 15.68-7.12 15.15-9.01-.69-2.51-12.9-1.16-28.15 2.87-.16.04-.33.03-.48-.05-14.08-7.04-25.86-10.77-27.07-8.46-.91 1.75 4.34 6.43 13.07 11.82a.673.673 0 01-.13 1.21c-9.67 3.5-15.92 7.06-15.4 8.95.7 2.51 13.14 1.22 28.4-2.81.16-.04.33-.02.48.05 14.07 7.05 26.1 10.84 27.31 8.52.91-1.74-4.59-6.49-13.31-11.88z" fill="#232323"/><path d="M132.78 271.59a.195.195 0 01-.06-.27c.02-.04.05-.06.1-.08 10.28-3.64 17.14-7.36 16.59-9.33-.7-2.52-13.35-1.26-28.72 2.8a.67.67 0 01-.5-.05c-14.18-7.1-26.3-10.91-27.52-8.58-.95 1.82 5.03 6.88 14.37 12.55.07.04.09.13.05.21a.24.24 0 01-.08.06c-10.33 3.64-17.23 7.38-16.69 9.36.7 2.53 13.37 1.25 28.73-2.8a.64.64 0 01.49.05c14.18 7.09 26.3 10.92 27.52 8.58.95-1.81-4.99-6.85-14.28-12.5z" fill="#009A7E"/><path d="M92.27 261.44c-3.68-.94-6.26-3.36-6.07-5.99.23-3.18 4.41-5.49 9.32-5.15 4.91.34 8.72 3.2 8.49 6.38-.23 3.18-4.41 5.49-9.32 5.15-.82-.06-1.62-.19-2.42-.39zm5.54-10.15c-.76-.19-1.55-.32-2.33-.37-4.57-.32-8.45 1.73-8.66 4.57-.2 2.84 3.35 5.4 7.91 5.72 4.57.32 8.45-1.73 8.66-4.57.17-2.33-2.2-4.48-5.58-5.35z" fill="#232323"/><path d="M98.32 261.79c-1.15.24-2.38.32-3.64.23-.83-.05-1.65-.19-2.46-.39-3.85-.99-6.41-3.54-6.21-6.2.11-1.6 1.18-3.04 3-4.04 1.8-1 4.11-1.45 6.53-1.28 5.01.35 8.9 3.3 8.67 6.59-.12 1.6-1.19 3.04-3.01 4.04-.86.48-1.83.83-2.88 1.05zm-6-.53c.78.19 1.58.32 2.38.38 2.34.16 4.58-.28 6.31-1.23 1.71-.94 2.7-2.27 2.81-3.74.22-3.07-3.51-5.84-8.31-6.18-2.34-.16-4.58.28-6.31 1.23-1.7.94-2.7 2.27-2.81 3.74-.18 2.47 2.26 4.85 5.93 5.8zm5.91-.08c-1.1.23-2.29.31-3.51.22-4.67-.32-8.3-2.98-8.09-5.92.21-2.95 4.19-5.08 8.86-4.75.8.05 1.6.18 2.37.38 3.54.91 5.89 3.19 5.72 5.54-.1 1.44-1.09 2.73-2.79 3.63-.76.4-1.63.7-2.56.9zm-6.18-9.85c-2.83.59-4.89 2.18-5.03 4.17-.2 2.73 3.27 5.21 7.73 5.52 2.17.15 4.25-.24 5.86-1.08 1.57-.84 2.49-2.01 2.59-3.31.15-2.17-2.08-4.29-5.44-5.15-.75-.19-1.52-.31-2.3-.37-1.2-.08-2.36 0-3.41.22zm51.93 16.07c-3.68-.95-6.26-3.36-6.07-6 .23-3.18 4.41-5.48 9.32-5.14 4.91.34 8.72 3.2 8.49 6.38-.23 3.18-4.41 5.49-9.32 5.15-.82-.06-1.63-.19-2.42-.39zm5.54-10.15c-.77-.2-1.55-.32-2.34-.37-4.56-.32-8.45 1.73-8.65 4.57-.21 2.83 3.34 5.4 7.91 5.72 4.57.31 8.45-1.74 8.66-4.57.16-2.34-2.2-4.48-5.58-5.35z" fill="#232323"/><path d="M150.01 267.74c-1.12.24-2.35.33-3.63.24-.82-.06-1.65-.19-2.45-.39-3.85-.99-6.41-3.54-6.22-6.2.12-1.6 1.18-3.04 3.01-4.05 1.79-.99 4.11-1.44 6.52-1.28 5.02.35 8.91 3.31 8.67 6.59-.17 2.45-2.6 4.4-5.9 5.09zm-5.98-.53c.78.2 1.58.33 2.38.38 4.8.34 8.89-1.89 9.12-4.97.22-3.07-3.51-5.84-8.31-6.17-2.34-.16-4.58.27-6.31 1.23-1.71.94-2.7 2.27-2.81 3.74-.18 2.47 2.26 4.85 5.93 5.79zm5.91-.08c-1.1.23-2.3.31-3.51.23-4.68-.33-8.31-2.98-8.09-5.93.21-2.94 4.18-5.07 8.86-4.75.8.06 1.59.19 2.37.38 3.54.91 5.89 3.19 5.72 5.55-.1 1.44-1.1 2.73-2.79 3.62-.77.41-1.63.71-2.56.9zm-6.18-9.84c-2.84.59-4.89 2.18-5.04 4.17-.19 2.73 3.28 5.2 7.74 5.51 2.17.15 4.25-.23 5.85-1.08 1.58-.83 2.5-2.01 2.59-3.31.16-2.17-2.08-4.28-5.43-5.14-.75-.19-1.53-.32-2.3-.37-1.2-.08-2.36 0-3.41.22z" fill="#232323"/><path d="M143.82 264.86c-.02 0-.04-.01-.06-.02-1.56-.75-2.44-1.95-2.35-3.19.01-.18.16-.31.33-.3.17.01.3.16.29.33v.01c-.07.98.68 1.95 2 2.59.16.08.22.26.15.42-.07.13-.22.2-.36.16z" fill="#232323"/><path d="M144 265.06c-.08.01-.15.01-.23-.01-.04-.01-.07-.02-.1-.03-1.63-.8-2.55-2.06-2.45-3.39.01-.27.25-.49.53-.47.28.01.49.25.48.53-.07.91.64 1.81 1.89 2.42.12.06.21.16.26.29a.5.5 0 01-.03.38c-.07.15-.2.24-.35.28zm-.13-.38c.05.01.11-.02.13-.07.02-.02.02-.06.01-.09-.01-.02-.03-.05-.06-.06-1.4-.68-2.19-1.72-2.11-2.78.01-.08-.04-.13-.11-.14-.06 0-.12.05-.12.12-.09 1.16.75 2.29 2.23 3.01.01 0 .02.01.03.01zm2.63.87a.3.3 0 01-.22-.38c.03-.14.17-.24.32-.23 1.3.09 2.54-.14 3.5-.66.91-.49 1.44-1.18 1.49-1.93.02-.39-.07-.77-.27-1.11a.3.3 0 01.11-.42c.14-.09.34-.05.42.1.01 0 .01.01.01.01.27.45.39.95.35 1.46-.07.98-.71 1.84-1.82 2.44-1.05.57-2.42.83-3.83.73-.02 0-.04 0-.06-.01z" fill="#232323"/><path d="M148.77 265.61c-.7.15-1.46.2-2.23.14-.03 0-.06 0-.09-.01a.502.502 0 01-.36-.61.5.5 0 01.53-.38c1.26.09 2.47-.14 3.39-.64.84-.46 1.34-1.09 1.39-1.77.02-.35-.06-.7-.25-1a.505.505 0 01.18-.69c.23-.14.55-.07.69.17l.02.03c.27.46.4 1 .37 1.56-.08 1.04-.76 1.96-1.92 2.59-.51.27-1.1.48-1.72.61zm-2.22-.25c.01.01.01.01.02.01 1.38.09 2.71-.16 3.73-.71 1.05-.57 1.66-1.37 1.72-2.28.03-.47-.08-.94-.32-1.35a.124.124 0 00-.17-.05c-.06.03-.08.11-.04.16.22.37.32.79.29 1.22-.05.83-.62 1.57-1.59 2.09-.98.53-2.26.78-3.6.68-.06 0-.11.04-.12.09-.02.06.02.13.08.14zm-3.45 20.9c-.85-.21-1.64-.58-2.33-1.1a.319.319 0 01-.07-.44c.11-.14.3-.16.44-.06 0 0 .01 0 .01.01.87.67 2.13 1.11 3.46 1.2 1.15.08 2.27-.09 3.18-.5.15-.07.34 0 .41.16.07.16 0 .34-.16.41-.99.44-2.23.64-3.47.55-.5-.03-.99-.11-1.47-.23z" fill="#232323"/><path d="M146.79 286.54c-.71.15-1.47.2-2.23.15-.51-.04-1.02-.12-1.51-.24-.88-.22-1.68-.6-2.4-1.14a.496.496 0 01-.1-.7.51.51 0 01.71-.11l.01.02c.84.65 2.06 1.07 3.36 1.16 1.11.08 2.2-.09 3.08-.48.12-.06.26-.06.38-.01.13.04.23.14.29.26.11.26-.01.55-.26.67-.41.18-.86.32-1.33.42zm-5.86-1.75c-.03.01-.05.02-.07.05-.02.02-.03.05-.02.08 0 .04.02.06.04.08.68.51 1.44.87 2.26 1.07.47.12.96.2 1.44.23 1.22.09 2.42-.1 3.38-.54.06-.02.09-.09.06-.15-.01-.03-.04-.05-.06-.06a.17.17 0 00-.1 0c-.93.42-2.09.6-3.26.52-1.37-.1-2.68-.55-3.57-1.25-.03-.03-.07-.03-.1-.03zm8.74-.51c-.01 0-.03-.01-.04-.01a.32.32 0 01-.17-.41c.08-.18.13-.38.14-.57.07-.9-.54-1.78-1.67-2.43a.301.301 0 01-.12-.42c.08-.15.27-.2.42-.12h.01c1.34.77 2.07 1.87 1.99 3.01-.02.27-.09.52-.19.77-.06.14-.22.22-.37.18z" fill="#232323"/><path d="M149.85 284.47a.41.41 0 01-.22 0c-.03-.01-.05-.01-.07-.02a.513.513 0 01-.28-.28.5.5 0 010-.38c.08-.17.12-.34.13-.52.06-.82-.52-1.64-1.58-2.24a.511.511 0 01-.24-.3.532.532 0 01.05-.39c.13-.24.44-.33.69-.19 1.42.81 2.18 1.97 2.09 3.19-.02.29-.09.57-.2.84a.52.52 0 01-.37.29zm-1.79-4l-.01.01c-.03.01-.06.03-.07.05-.02.03-.02.06-.01.09 0 .03.02.06.05.07 1.2.69 1.85 1.64 1.78 2.61-.02.22-.07.43-.16.64-.01.03-.01.06 0 .09.02.03.04.05.07.06l.01.01c.06.01.12-.02.14-.07.1-.23.16-.47.17-.71.08-1.07-.61-2.1-1.89-2.83-.03-.02-.06-.02-.08-.02zm-59.95-1.62c-.11-.02-.2-.1-.23-.21-.07-.27-.1-.56-.08-.84.07-1.07.87-2.02 2.17-2.61.16-.06.34.01.41.17.07.15 0 .33-.15.4-1.09.49-1.75 1.25-1.81 2.08-.02.21.01.43.06.63.05.16-.05.34-.21.38a.22.22 0 01-.16 0z" fill="#232323"/><path d="M88.29 279.05c-.08.01-.16.01-.23-.01a.476.476 0 01-.36-.35c-.09-.29-.12-.6-.1-.9.09-1.15.92-2.16 2.29-2.77.26-.11.56.01.67.26a.5.5 0 01-.25.65c-1.02.46-1.64 1.16-1.7 1.93-.01.18.01.37.06.56.08.26-.08.54-.35.62-.01 0-.02 0-.03.01zm-.14-.38h.07c.06-.02.1-.09.08-.15-.07-.22-.09-.46-.07-.69.06-.91.76-1.73 1.92-2.25.05-.02.08-.09.05-.15-.02-.06-.09-.08-.15-.06-1.24.55-1.99 1.44-2.06 2.44-.02.26.01.52.08.78.01.04.04.07.08.08zm3.32 2.81c-.62-.16-1.22-.4-1.77-.72a.32.32 0 01-.11-.43c.09-.14.28-.19.43-.1.91.51 1.92.8 2.97.87.98.07 1.97-.06 2.9-.39a.31.31 0 01.22.58c-1.01.36-2.09.51-3.17.43-.49-.04-.99-.12-1.47-.24z" fill="#232323"/><path d="M95.13 281.77c-.73.15-1.47.2-2.2.14-.51-.04-1.02-.12-1.51-.24-.64-.16-1.25-.41-1.82-.74a.494.494 0 01-.17-.69c.07-.12.18-.2.31-.24a.51.51 0 01.38.06c.88.49 1.87.78 2.88.84.96.08 1.91-.05 2.82-.37.26-.1.55.03.65.29.09.26-.03.55-.29.65-.34.12-.7.22-1.05.3zm-5.29-1.39h-.01c-.03.01-.05.03-.07.05-.03.06-.01.13.04.16.54.32 1.11.55 1.72.7.47.12.95.2 1.44.23 1.04.08 2.1-.06 3.08-.41.06-.03.09-.09.06-.15-.02-.06-.09-.09-.15-.07-.96.35-1.96.48-2.98.4a6.963 6.963 0 01-3.04-.9c-.03-.01-.06-.02-.09-.01zm3.55-21.01c-1.77-.45-3.16-1.48-3.57-2.74-.06-.16.03-.34.19-.4.17-.05.34.03.4.19v.02c.44 1.35 2.29 2.39 4.49 2.55.17.01.3.16.28.33-.01.17-.16.3-.33.28-.49-.03-.98-.11-1.46-.23z" fill="#232323"/><path d="M94.97 259.79c-.04.01-.09.01-.13.01-.51-.04-1.01-.12-1.5-.24-1.86-.48-3.28-1.58-3.7-2.87a.46.46 0 01.02-.38.53.53 0 01.29-.26c.26-.09.55.05.64.31l.01.02c.41 1.27 2.19 2.27 4.31 2.41.28.02.49.26.47.54a.52.52 0 01-.41.46zm-1.53-.61c.47.12.95.2 1.42.23.07.01.13-.04.13-.11 0-.06-.04-.12-.11-.12-2.28-.16-4.19-1.26-4.65-2.68-.02-.07-.09-.11-.15-.08-.03.01-.06.03-.07.06-.01.02-.02.06-.01.09.38 1.17 1.7 2.17 3.44 2.61zm-2.8-4.64a.313.313 0 01-.23-.38c.02-.05.05-.1.08-.14 1.03-1.06 2.89-1.63 4.87-1.5.17.02.3.17.29.34-.01.17-.16.3-.33.28-1.8-.12-3.48.38-4.38 1.31-.08.09-.19.12-.3.09z" fill="#232323"/><path d="M90.82 254.73c-.07.02-.15.02-.23 0a.531.531 0 01-.31-.24.46.46 0 01-.05-.38c.02-.08.06-.16.12-.22 1.07-1.1 2.99-1.7 5.02-1.56.28.02.49.26.47.54-.02.28-.26.49-.54.47-1.74-.12-3.36.36-4.22 1.25a.51.51 0 01-.26.14zm-.13-.38c.04.01.08 0 .11-.03.94-.97 2.68-1.5 4.53-1.37.06.01.12-.04.13-.11 0-.06-.05-.12-.11-.12-1.92-.14-3.73.42-4.72 1.44-.01.01-.02.03-.03.05 0 .03 0 .06.02.09.01.03.04.04.07.05zm51.3 33.98c-3.68-.94-6.26-3.36-6.07-5.99.23-3.18 4.41-5.49 9.32-5.15 4.91.34 8.72 3.2 8.49 6.38-.23 3.18-4.41 5.49-9.32 5.15-.82-.06-1.63-.19-2.42-.39zm5.54-10.15c-.76-.19-1.55-.32-2.33-.37-4.57-.32-8.45 1.73-8.66 4.57-.2 2.84 3.35 5.4 7.91 5.72 4.57.32 8.45-1.73 8.66-4.57.17-2.33-2.2-4.48-5.58-5.35z" fill="#232323"/><path d="M148.02 288.68c-1.12.23-2.35.32-3.63.23-.82-.06-1.64-.19-2.45-.39-3.85-.99-6.41-3.54-6.22-6.2.24-3.28 4.52-5.67 9.53-5.32 5.02.34 8.91 3.3 8.67 6.59-.17 2.45-2.59 4.4-5.9 5.09zm-5.98-.54c.78.2 1.58.33 2.38.39 4.81.33 8.9-1.9 9.12-4.97.22-3.07-3.51-5.84-8.31-6.18-4.81-.33-8.9 1.9-9.12 4.97-.18 2.47 2.26 4.85 5.93 5.79zm5.91-.07c-1.1.23-2.29.31-3.51.22-4.67-.32-8.3-2.98-8.09-5.92.1-1.44 1.09-2.73 2.79-3.63 1.67-.88 3.83-1.28 6.07-1.12.8.05 1.6.18 2.37.38 3.54.91 5.89 3.19 5.72 5.54-.1 1.44-1.09 2.73-2.79 3.63-.77.4-1.63.7-2.56.9zm-6.17-9.85c-.89.19-1.72.48-2.46.86-1.57.84-2.49 2.01-2.58 3.31-.2 2.73 3.27 5.21 7.73 5.52 2.17.15 4.25-.24 5.86-1.08 1.57-.84 2.49-2.01 2.58-3.32.16-2.16-2.07-4.28-5.43-5.14-.75-.19-1.52-.31-2.3-.37-1.18-.08-2.33 0-3.4.22zm-51.41 5.33c-3.69-.94-6.27-3.36-6.08-5.99.23-3.18 4.41-5.49 9.32-5.15 4.91.34 8.72 3.2 8.49 6.38-.23 3.18-4.41 5.49-9.32 5.15-.81-.06-1.62-.19-2.41-.39zm5.53-10.15c-.76-.19-1.54-.32-2.33-.37-4.57-.32-8.45 1.73-8.66 4.57-.2 2.84 3.35 5.4 7.92 5.72 4.56.32 8.45-1.73 8.65-4.57.17-2.33-2.2-4.48-5.58-5.35z" fill="#232323"/><path d="M96.4 283.9c-1.13.23-2.36.32-3.63.23-.83-.05-1.65-.19-2.45-.39-3.86-.99-6.41-3.54-6.22-6.2.11-1.6 1.18-3.04 3-4.04 1.8-1 4.11-1.45 6.53-1.28 5.01.35 8.9 3.3 8.67 6.59-.18 2.45-2.6 4.4-5.9 5.09zm-5.99-.54c.78.2 1.58.33 2.39.39 4.8.33 8.89-1.9 9.11-4.97.22-3.07-3.51-5.84-8.31-6.18-2.34-.16-4.58.28-6.31 1.23-1.7.94-2.7 2.27-2.8 3.74-.18 2.47 2.26 4.85 5.92 5.79zm5.91-.07c-1.1.23-2.29.31-3.51.22-4.67-.32-8.3-2.98-8.09-5.92.21-2.95 4.19-5.08 8.86-4.75.8.05 1.6.18 2.37.38 3.54.91 5.9 3.19 5.73 5.54-.11 1.44-1.1 2.73-2.8 3.63-.76.4-1.63.7-2.56.9zm-6.18-9.85c-2.83.59-4.89 2.18-5.03 4.17-.2 2.73 3.27 5.21 7.73 5.52 2.17.15 4.25-.24 5.86-1.08 1.57-.84 2.49-2.01 2.59-3.31.15-2.17-2.08-4.29-5.44-5.15-.75-.19-1.52-.31-2.3-.37-1.2-.08-2.36 0-3.41.22z" fill="#232323"/><path d="M115.68 268.84c.41.18.59.66.41 1.06-.18.41-.66.6-1.07.42a.806.806 0 01-.42-1.06c.19-.41.67-.6 1.08-.42zm5.37 1.16a.812.812 0 01-1.59.33.811.811 0 111.59-.33zm5 .41a.812.812 0 01-1.59.33.811.811 0 111.59-.33z" fill="#FFF" fill-rule="evenodd"/><path d="M79.2 355.7l8.65-62.23 56 7.6-8.66 62.22-55.99-7.59z" fill="#FFF"/><path d="M135.31 363.86c-.07.02-.13.02-.2.01l-55.99-7.6c-.16-.02-.3-.1-.39-.22a.597.597 0 01-.11-.43l8.66-62.23c.04-.32.34-.54.66-.49l55.99 7.6c.32.04.54.33.5.65l-8.66 62.22c-.04.25-.23.45-.46.49zm-55.46-8.66l54.84 7.44 8.5-61.07-54.84-7.45-8.5 61.08z" fill="#232323"/><path d="M121.08 345.65a.482.482 0 01-.41-.54.42.42 0 01.14-.28l3.3-3.21 3.56-3.46c.19-.19.5-.19.69 0 .03.03.05.06.07.1l2.48 4.28 2.3 3.97c.14.23.06.53-.18.66-.09.05-.2.07-.3.06l-1.98-.27a.486.486 0 00-.55.41l-1.29 9.27c-.04.27-.28.45-.54.41l-5.77-.78a.47.47 0 01-.41-.54l1.29-9.27a.484.484 0 00-.42-.54l-1.98-.27zm-14.3 14.34c-.06.02-.13.02-.2.01a.578.578 0 01-.49-.66l12.87-83.92c.05-.32.35-.53.67-.49.32.05.53.35.49.66l-12.88 83.92c-.04.25-.23.43-.46.48z" fill="#232323"/></g><circle cx="143.631" cy="107.63" r="10.63" fill="#009A7E"/><circle cx="143.631" cy="107.63" r="14.13" stroke="#FFF" stroke-width="7"/><circle cx="242.631" cy="259.63" r="10.63" fill="#009A7E"/><circle cx="242.631" cy="259.63" r="14.13" stroke="#FFF" stroke-width="7"/><circle cx="290.5" cy="186.5" r="6.5" fill="#009A7E"/><circle cx="290.5" cy="186.5" r="10" stroke="#FFF" stroke-width="7"/><circle cx="331.5" cy="324.5" r="6.5" fill="#009A7E"/><circle cx="331.5" cy="324.5" r="10" stroke="#FFF" stroke-width="7"/><circle cx="497.5" cy="278.5" r="6.5" fill="#009A7E"/><circle cx="497.5" cy="278.5" r="10" stroke="#FFF" stroke-width="7"/></g></svg>