<svg width="280" height="214" fill="none" xmlns="http://www.w3.org/2000/svg"><defs><clipPath id="b"><path transform="translate(13 4)" fill="#fff" fill-opacity="0" d="M0 0h29v49.471H0z"/></clipPath><clipPath id="c"><path transform="translate(222 110.177)" fill="#fff" fill-opacity="0" d="M0 0h45v76.765H0z"/></clipPath><clipPath id="d"><path transform="translate(128 24)" fill="#fff" fill-opacity="0" d="M0 0h77v79H0z"/></clipPath><clipPath id="a"><rect rx="-.5" width="279" height="213" transform="translate(.5 .5)" fill="#fff" fill-opacity="0"/></clipPath></defs><g clip-path="url(#a)"><path d="M13 4h29v49.471H13z"/><g clip-path="url(#b)"><path d="M37.8 18.89c0 5.66-4.56 10.25-10.2 10.25-5.63 0-10.19-4.59-10.19-10.25S21.97 8.64 27.6 8.64c5.64 0 10.2 4.59 10.2 10.25z" fill="#FFF" fill-rule="evenodd"/><path d="M27.5 4C19.49 3.99 13 11.55 13 20.87c-.01 15.24 14.49 32.6 14.49 32.6S42 33.78 42 20.88C42 11.55 35.5 4 27.5 4zm.04 23.19c-4.37 0-7.91-3.55-7.91-7.94 0-4.39 3.54-7.95 7.91-7.95s7.91 3.56 7.91 7.95c0 4.39-3.54 7.94-7.91 7.94z" fill="#00676C"/></g><path d="M222 110.177h45v76.765h-45z"/><g clip-path="url(#c)"><path d="M260.49 133.29c0 8.78-7.09 15.9-15.83 15.9s-15.82-7.12-15.82-15.9c0-8.78 7.08-15.9 15.82-15.9s15.83 7.12 15.83 15.9z" fill="#FFF" fill-rule="evenodd"/><path d="M244.5 110.17c-12.43 0-22.5 11.73-22.5 26.19-.01 23.64 22.49 50.58 22.49 50.58s22.5-30.55 22.51-50.57c0-14.47-10.08-26.2-22.5-26.2zm.06 36c-6.78 0-12.27-5.52-12.27-12.33 0-6.81 5.5-12.33 12.27-12.33 6.78 0 12.28 5.52 12.28 12.33 0 6.81-5.5 12.33-12.28 12.33z" fill="#00676C"/></g><path d="M18 76.5c41-33 182.5-41.01 182.5 8.99C200.5 135.5 56 120 56 159.5c0 39.5 145 36 185 36" stroke="#000" stroke-width="1.5" stroke-dasharray="32 32"/><path d="M128 24h77v79h-77z"/><g clip-path="url(#d)"><path d="M127.43 103H205V23.61h-77.57V103z" fill="#D9C6F4"/><path d="M128.17 72.44h76.02V60.46h-76.02v11.98z" fill="#FFF"/><path d="M199.38 31.87a1.206 1.206 0 11-2.41 0 1.206 1.206 0 112.41 0zm-7.08 0c0 .67-.54 1.21-1.21 1.21a1.2 1.2 0 01-1.2-1.21c0-.67.53-1.21 1.2-1.21.67 0 1.21.54 1.21 1.21zm-7.11.19a1.206 1.206 0 11-2.41 0 1.206 1.206 0 112.41 0z" fill="#232323" fill-rule="evenodd"/><path d="M156.37 36.16a.31.31 0 00-.31.3v6.04c0 .16-.12.31-.3.31h-3.72c-.18 0-.32-.13-.32-.31v-6.05a.32.32 0 00-.32-.31h-1.28c-.06 0-.14-.01-.19-.06-.13-.1-.16-.3-.05-.43l1.81-2.33 1.95-2.53a.12.12 0 01.05-.05c.12-.11.31-.08.42.05l1.95 2.53 1.81 2.34c.05.05.07.13.07.2 0 .16-.13.3-.31.3h-1.26z" fill="#232323"/></g><rect rx="22.25" width="44.5" height="44.5" transform="matrix(-1 0 0 1 222.75 .75)" fill="#FFF"/><path d="M190 14l18 18m0-18l-18 18" stroke="#FAAAAA" stroke-width="6" stroke-linecap="round"/><rect rx="22.25" width="44.5" height="44.5" transform="matrix(-1 0 0 1 222.75 .75)" stroke="#232323" stroke-width="1.5"/><circle cx="27.5" cy="70.677" r="6.5" fill="#00676C"/><circle cx="27.5" cy="70.677" r="10" stroke="#FFF" stroke-width="7"/><circle cx="244.5" cy="198.5" r="6.5" fill="#00676C"/><circle cx="244.5" cy="198.5" r="8" stroke="#FFF" stroke-width="3"/></g><rect rx="-.5" width="279" height="213" transform="translate(.5 .5)"/></svg>