<svg width="591" height="600" fill="none" xmlns="http://www.w3.org/2000/svg"><defs><clipPath id="c"><path transform="matrix(-1 0 0 1 546.852 105.579)" fill="#fff" fill-opacity="0" d="M0 0h198.1v220.514H0z"/></clipPath><clipPath id="e"><path transform="matrix(-1 0 0 1 552.512 457.858)" fill="#fff" fill-opacity="0" d="M0 0h117.275v71.995H0z"/></clipPath><clipPath id="f"><path transform="translate(421.652 178.933)" fill="#fff" fill-opacity="0" d="M0 0h84.221v79.466H0z"/></clipPath><clipPath id="g"><path transform="matrix(-1 0 0 1 541.192 244.589)" fill="#fff" fill-opacity="0" d="M0 0h476.572v286.849H0z"/></clipPath><clipPath id="h"><path transform="matrix(-1 0 0 1 421.427 316.81)" fill="#fff" fill-opacity="0" d="M0 0h57.053v62.486H0z"/></clipPath><clipPath id="i"><path transform="translate(421.2 258.4)" fill="#fff" fill-opacity="0" d="M0 0h129.727v120.898H0z"/></clipPath><clipPath id="j"><path transform="matrix(-1 0 0 1 380.9 73.204)" fill="#fff" fill-opacity="0" d="M0 0h253.115v422.462H0z"/></clipPath><clipPath id="q"><path transform="matrix(-1 0 0 1 244.608 238.929)" fill="#fff" fill-opacity="0" d="M0 0h48.676v19.47H0z"/></clipPath><clipPath id="r"><path transform="matrix(-1 0 0 1 167.405 228.062)" fill="#fff" fill-opacity="0" d="M0 0h20.376v8.603H0z"/></clipPath><clipPath id="s"><path transform="matrix(-1 0 0 1 248.684 123.691)" fill="#fff" fill-opacity="0" d="M0 0h128.142v130.633H0z"/></clipPath><clipPath id="b"><path transform="matrix(-1 0 0 1 591 20)" fill="#fff" fill-opacity="0" d="M0 0h566v566H0z"/></clipPath><clipPath id="a"><path transform="matrix(-1 0 0 1 591 0)" fill="#fff" fill-opacity="0" d="M0 0h591v600H0z"/></clipPath></defs><g clip-path="url(#a)"><path d="M591 20H25v566h566z"/><g clip-path="url(#b)"><path d="M546.852 105.579h-198.1v220.514h198.1z"/><g clip-path="url(#c)"><path d="M546.68 209.99c.32-.22.15-.73-.24-.71-5.57.33-27.17 2.94-44.59 23.37-21.77 25.54-64.8-2.04-77.93 34.98-16.45 46.4-30.73 47.94-64.41 54.35 0 0 61.26 18.04 89.77-21.47 12.96-17.96 18.63-30.34 50.49-39.43 18.5-5.28 11.38-26.88 46.91-51.09z" fill="#00676C"/><path d="M367.87 321.37c7.88 0 15.21-1.3 21.85-3.87 7.14-2.76 13.51-6.99 18.93-12.57 13.79-14.2 18.79-34.35 17.59-47.05-1.65-17.47 4.22-25.76 9.89-33.79 5.47-7.72 10.63-15.02 8.5-29.49-1.54-10.48-1.15-18.3 1.24-24.62 1.45-3.84 3.86-8.36 11.58-15.37l-.94-1.04c-7.94 7.21-10.44 11.91-11.95 15.91-2.47 6.55-2.89 14.6-1.31 25.32 2.04 13.92-2.96 21-8.26 28.48-5.82 8.24-11.84 16.75-10.15 34.73.61 6.47-.51 14.59-3.08 22.29-3.05 9.1-7.93 17.28-14.11 23.65-5.28 5.44-11.48 9.56-18.43 12.25-7.85 3.03-16.69 4.24-26.28 3.59l-.1 1.4c1.7.12 3.38.18 5.03.18z" fill="#00676C"/><path d="M471.03 165.4c-22.95.97-39.97-20.19-34.94-42.15 2.92-12.78 17.33-23.35 28.78-14.27 4.64 3.68 5.46 11.52 9.71 14.91 6.82 5.45 14.92.45 21.65 7.06 3.13 3.07 4.77 8.58 3.83 12.87-3.48 15.95-20.03 21.2-29.03 21.58z" fill="#D8C5F3"/><path d="M459.65 130.31c1.86 2.31 4.35 4.39 7.69 5.97 3.19 1.52 6.67 2.05 9.99 2.05.17-.28.31-.58.41-.89 1.31-3.73-1.73-8.2-6.81-9.99-4.77-1.69-9.63-.4-11.28 2.86z" fill="#FFF"/><path d="M477.31 139.03h.02c8.35-.01 15.68-3.29 15.99-3.43.17-.08.3-.22.36-.4.07-.17.06-.36-.02-.53a.69.69 0 00-.38-.37.72.72 0 00-.54.02c-.07.03-7.37 3.3-15.41 3.31h-.02c-3.64 0-6.9-.67-9.67-1.98-3-1.43-5.51-3.37-7.45-5.78-3.3-4.09-5.03-9.52-5.12-16.14a.742.742 0 00-.22-.49.647.647 0 00-.49-.19.65.65 0 00-.49.21c-.13.13-.2.31-.2.49.1 6.94 1.93 12.66 5.43 17 2.08 2.58 4.75 4.65 7.95 6.17 2.95 1.4 6.41 2.11 10.26 2.11zm-99.6 184.46c.71 0 1.44 0 2.19-.02 9.78-.2 23.78-1.9 34.96-8.84 10.41-6.46 14.72-15.61 18.88-24.46 5.99-12.73 11.64-24.75 34.4-29.12 14-2.68 23.85-6.18 31-10.99 6.36-4.28 9.76-9.12 13.04-13.8 1.17-1.67 2.38-3.4 3.71-5.08 13-16.48 29.33-20.4 29.49-20.44.18-.04.34-.15.44-.31.09-.16.12-.35.08-.53a.7.7 0 00-.3-.43c-.16-.1-.35-.14-.53-.1-.17.04-4.3 1.01-10.11 4.08-5.36 2.82-13.21 8.04-20.17 16.85-1.36 1.72-2.58 3.47-3.76 5.15-6.64 9.47-12.91 18.42-43.15 24.23-10.52 2.02-18.46 5.9-24.26 11.88-5.18 5.32-8.21 11.78-11.15 18.01-4.07 8.67-8.29 17.62-18.34 23.87-10.91 6.77-24.63 8.43-34.23 8.63-10.44.21-18.39-1.2-18.47-1.21-.18-.04-.37 0-.52.11-.15.11-.26.27-.29.45-.03.18.01.37.11.53.11.15.27.25.45.29.08.01 7.05 1.25 16.53 1.25z" fill="#FFF"/><path d="M388.45 204.34c.38-.27 9.23-6.78 10.55-26.72.74-11.25-4.11-22.72-12.36-29.22-5.88-4.63-12.69-6.06-19.19-4.02-6.87 2.16-8.99 6.9-9.56 10.49-.61 3.84.38 7.13.42 7.27l1.34-.41c-.02-.06-.94-3.17-.37-6.68.75-4.64 3.64-7.77 8.59-9.33 6.04-1.9 12.4-.56 17.9 3.78 7.9 6.22 12.54 17.23 11.83 28.03-.66 10.05-3.34 16.49-5.47 20.13-2.3 3.94-4.47 5.52-4.49 5.54l.81 1.14z" fill="#00676C"/><path d="M348.75 167.24c-.1 5.85 3.01 11.01 7.72 13.77 2.23 1.32 4.83 2.09 7.6 2.14 7.32.13 13.54-4.8 15.35-11.57l.01-.01c.33-1.23.5-2.5.52-3.78.16-8.63-6.7-15.76-15.32-15.91-8.62-.15-15.73 6.72-15.88 15.36z" fill="#D8C5F3"/><path d="M411.08 114.19c.09-.3-.28-.53-.5-.31-3.88 3.81-19.24 20.61-14.12 42.8 8.18 35.47-15.61 47.61-26.55 71.53-10.54 23.04 5.32 44.31 6.19 64.66.65 15.41-16.59 29.11-16.59 29.11s36.88-4.47 45.3-32.57c6.19-20.64-2.37-32.08.77-56.47 2.63-20.38 15.86-27.5 16.04-50.37.18-23.32-21.53-33.33-10.54-68.38z" fill="#00676C"/><path d="M361.26 322.13c.09 0 .18-.02.27-.06 3.7-1.55 10.6-4.44 16.65-9.33 6.93-5.58 11.24-12.53 12.83-20.65 2.38-12.21.79-20.46-.89-29.19-1.19-6.14-2.41-12.48-2.41-20.72.01-11.51 5.31-19.79 10.92-28.55 4.41-6.88 8.96-13.99 10.83-22.86 3.21-15.18.37-23.03-2.63-31.35-1.11-3.07-2.25-6.24-3.16-9.92-4.02-16.16 7.53-34.72 7.64-34.91.1-.16.14-.35.09-.53a.72.72 0 00-.3-.44.708.708 0 00-.97.22c-.12.2-3.03 4.85-5.48 11.62-2.27 6.28-4.52 15.61-2.34 24.38.93 3.75 2.08 6.96 3.21 10.06 3.06 8.47 5.7 15.79 2.58 30.58-1.83 8.62-6.31 15.62-10.64 22.39-5.48 8.55-11.14 17.39-11.15 29.3 0 8.39 1.24 14.79 2.43 20.99 1.66 8.6 3.23 16.71.89 28.66-1.52 7.79-5.66 14.46-12.32 19.83-5.91 4.76-12.68 7.6-16.32 9.13-.15.06-.27.18-.35.32-.07.14-.1.31-.07.47.04.16.12.3.25.4.12.1.28.16.44.16z" fill="#FFF"/><path d="M348.75 167.24c-.1 5.85 3.01 11.01 7.72 13.77 5.24-4.84 6.75-9.7 6.55-13.92 7.07 6.28 16.4 4.49 16.4 4.49l.01-.01c.33-1.23.5-2.5.52-3.78.16-8.63-6.7-15.76-15.32-15.91-8.62-.15-15.73 6.72-15.88 15.36z" fill="#21A0AA"/><path d="M348.75 167.24c-.1 5.85 3.01 11.01 7.72 13.77 5.24-4.84 6.75-9.7 6.55-13.92 7.07 6.28 16.4 4.49 16.4 4.49l.01-.01c.33-1.23.5-2.5.52-3.78.16-8.63-6.7-15.76-15.32-15.91-8.62-.15-15.73 6.72-15.88 15.36z" fill="#000"/><mask id="d" maskUnits="userSpaceOnUse" x="348.752" y="151.883" width="31.209" height="29.135"><path d="M348.75 167.24c-.1 5.85 3.01 11.01 7.72 13.77 5.24-4.84 6.75-9.7 6.55-13.92 7.07 6.28 16.4 4.49 16.4 4.49l.01-.01c.33-1.23.5-2.5.52-3.78.16-8.63-6.7-15.76-15.32-15.91-8.62-.15-15.73 6.72-15.88 15.36z" fill="#000"/></mask><g mask="url(#d)"><path d="M379.41 172.22c-2.82 1.35-23.44 1.8-20.26-19.85l20.26 19.85z" fill="#00676C"/></g></g><path d="M552.512 457.858H435.237v71.995h117.275z"/><g clip-path="url(#e)"><path d="M518.95 471.87c0 7.68 6.23 13.92 13.9 13.92 7.68 0 13.91-6.24 13.91-13.92 0-7.69-6.23-13.92-13.91-13.92-7.67 0-13.9 6.23-13.9 13.92z" fill="#FFF" fill-rule="evenodd"/><path d="M532.85 485.88c7.72 0 13.99-6.29 13.99-14.01 0-7.73-6.27-14.02-13.99-14.02-7.71 0-13.98 6.29-13.98 14.02 0 7.72 6.27 14.01 13.98 14.01zm0-26.67c6.97 0 12.64 5.68 12.64 12.66 0 6.97-5.67 12.65-12.64 12.65-6.96 0-12.63-5.68-12.63-12.65 0-6.98 5.67-12.66 12.63-12.66z" fill="#232323"/><path d="M435.91 528.78s12.12-4.98 23.64-18.71c9.71-11.56 27.42-41.39 45.29-35.22 11 3.79 8.55 12.94 15.7 17.91 8.56 5.96 26.32-3.8 30.79 12.14 3.18 11.34-9.25 21.39-25.63 23.28-15.49 1.79-40.72.6-89.79.6z" fill="#FFF"/><path d="M499.47 529.85c11.35 0 19.64-.22 26.31-.99 10.62-1.23 19.87-5.95 24.14-12.33 2.48-3.7 3.19-7.79 2.06-11.82-2.91-10.38-11.43-10.38-18.95-10.37-4.64 0-9.03 0-12.1-2.14-2.86-1.98-4.1-4.66-5.41-7.5-1.87-4.03-3.81-8.2-10.45-10.49-6.78-2.34-14.04-.02-22.18 7.08-6.83 5.96-13.1 14.28-18.13 20.97-2.08 2.76-4.05 5.38-5.73 7.37-5.88 7.02-11.93 11.68-15.96 14.35-4.37 2.9-7.39 4.16-7.42 4.17-.14.06-.26.17-.34.31-.07.13-.09.29-.06.45a.683.683 0 00.66.55c16.17 0 29.49.13 41.24.24 8.58.08 15.94.15 22.32.15zm33.99-34.15c7.56 0 14.63.17 17.22 9.38 1.01 3.64.36 7.33-1.89 10.69-4.05 6.06-12.93 10.55-23.16 11.73-10.35 1.2-25.51 1.06-48.46.84-11.04-.11-23.46-.23-38.31-.24 1.28-.69 2.96-1.66 4.93-2.96 4.11-2.72 10.28-7.47 16.28-14.63 1.7-2.02 3.68-4.65 5.77-7.43 5-6.64 11.22-14.9 17.94-20.76 7.74-6.76 14.56-8.99 20.84-6.82 6.1 2.1 7.83 5.83 9.66 9.78 1.34 2.87 2.72 5.84 5.87 8.04 3.43 2.38 8.24 2.38 12.88 2.38h.43z" fill="#232323"/></g><path d="M421.652 178.933h84.221v79.466h-84.22z"/><g clip-path="url(#f)"><path d="M505.87 179.07h-84.22v78.64h84.22v-78.64z" fill="#D8C5F3"/><path d="M475.6 178.93h-23.68v78.78h23.68v-78.78z" fill="#FFF"/><path d="M429.61 240.2c-.07 0-.14-.02-.21-.04a.497.497 0 01-.19-.13.567.567 0 01-.12-.18.43.43 0 01-.04-.22c0-.14.04-.25.11-.34l3.32-4.28 3.58-4.61c.18-.25.54-.3.79-.09.05.02.07.07.09.09l3.58 4.61 3.32 4.28c.18.25.14.61-.09.79-.1.08-.22.12-.34.12h-2.35c-.07 0-.15.01-.21.04-.07.03-.14.07-.19.12-.05.06-.1.12-.12.19-.03.07-.05.14-.04.22v11.05c0 .08-.02.15-.05.22-.02.07-.07.13-.12.19-.05.05-.12.09-.19.12-.06.03-.14.04-.21.04h-6.83c-.08 0-.15-.01-.22-.04a.76.76 0 01-.19-.12.76.76 0 01-.12-.19.538.538 0 01-.04-.22v-11.05a.538.538 0 00-.17-.41.567.567 0 00-.18-.12.57.57 0 00-.22-.04h-2.35zm79.22 16.78h-90.14v1.46h90.14v-1.46z" fill="#232323"/></g><path d="M541.192 244.589H64.62v286.849h476.572z"/><g clip-path="url(#g)"><path d="M368.96 336.27c1.79-4.93 2.67-8.41 2.67-8.41 1.73-5.51 11.27-5.85 16.34.5 10.52 13.15.64 42.15-16.51 51.34l-70.12 1.08c40.63-2.33 60.31-24.2 67.62-44.51z" fill="#232323"/><path d="M356.54 479.82c0 28.5 23.1 51.61 51.61 51.61 28.51 0 51.62-23.11 51.62-51.61s-23.11-51.61-51.62-51.61c-28.51 0-51.61 23.11-51.61 51.61zm-286.73 0c0 28.5 23.11 51.61 51.62 51.61 28.5 0 51.61-23.11 51.61-51.61s-23.11-51.61-51.61-51.61c-28.51 0-51.62 23.11-51.62 51.61z" fill="#232323" fill-rule="evenodd"/><path d="M408.08 468.3c-6.37.04-11.5 5.23-11.47 11.59.04 6.37 5.23 11.51 11.6 11.47 6.36-.03 11.5-5.23 11.46-11.59-.03-6.37-5.22-11.5-11.59-11.47zM109.9 479.82c0 6.37 5.16 11.53 11.53 11.53 6.37 0 11.53-5.16 11.53-11.53 0-6.37-5.16-11.53-11.53-11.53-6.37 0-11.53 5.16-11.53 11.53z" fill="#FFF" fill-rule="evenodd"/><path d="M378 386.01h159.8c1.89 0 3.41-1.53 3.41-3.41 0-1.89-1.52-3.41-3.41-3.41H378a3.4 3.4 0 00-3.4 3.41c0 1.88 1.52 3.41 3.4 3.41z" fill="#232323"/><path d="M492.89 385.14l-4.52-5.08-50.77 45.11 4.52 5.07 50.77-45.1z" fill="#232323"/><path d="M67.73 454.83c.34.17.73.24 1.11.29 12.41 1.54 24.25-7.26 50.89-.34 16.25 4.2 29.62 13.22 39.73 22 2.75 2.39 5.29 4.81 7.56 7.08l.03.02c.24.24.5.53.75.78.48.48.92.94 1.37 1.42.32.34.63.65.95.99 22.46 23.79 44.12 24.54 60.41 24.83 25.27.38 92.04-2.01 114.86-2.9 4.55-.2 8.56-2.98 10.32-7.16 3.85-9.18 12.41-25.52 27.49-35.87 35.35-24.25 66.29-12.35 81.01-9.62 6.17 1.14 9.46-3.29 9.5-10.66.03-3.65-.74-8-2.36-12.76-2.91-8.63-8.56-18.57-17.24-27.92-20.72-22.31-46.61-25.51-65.06-25.84-27.63-.51-95.78 1.13-128.42 2-6.48.2-9.5 8.08-4.81 12.52 45.45 43.22 59.35 75.64 63.63 90.65 1.09 3.87-1.16 7.88-5 8.97-.63.19-1.31.27-1.99.27h-75.88c-28.8-2.28-52.05-37.69-70.94-78.88-42.04-91.71-19.72-143.9-17.09-150.31 1.77-4.3 3.77-8.53 6-12.64-2.18-1.59-8.39-3.62-13.37-3.16-2.27 2.94-6.67 12.76-7.25 14.28-3.15 8.2-6.12 16.8-8.17 25.33-4.16 17.12-6.07 34.69-5.74 52.31.37 18.47 2.86 37.08 7.14 55.05.6 2.56 1.25 5.1 1.93 7.63.07.29.17.56.22.87v.03c0 .02.02.07.02.09h-.24c-.19 0-.51.03-.92.05-5.49.32-28.43 3.48-45.81 17.89-16.2 13.42-20.33 30.12-14.63 32.71z" fill="#3FB1B5"/><path d="M67.73 454.83c.34.17.73.24 1.11.29 12.41 1.54 24.25-7.26 50.89-.34 19.47 5.05 36.66 17.55 50.41 32.29 22.44 23.79 44.1 24.54 60.39 24.83 25.27.38 92.04-2.01 114.86-2.9 4.55-.2 8.56-2.98 10.32-7.16 3.85-9.18 12.41-25.52 27.49-35.87 35.35-24.25 66.29-12.35 81.01-9.62 6.17 1.14 9.46-3.29 9.5-10.66.03-3.65-.74-8-2.36-12.76-2.91-8.63-8.56-18.57-17.24-27.92-20.72-22.31-46.61-25.51-65.06-25.84-27.63-.51-95.78 1.13-128.42 2-6.48.2-9.5 8.08-4.81 12.52 45.45 43.22 59.35 75.64 63.63 90.65 1.31 4.64-2.18 9.26-6.99 9.26l-74.8-.92c-28.79-2.27-53.18-36.79-72.06-77.96-42.04-91.71-19.73-143.9-17.1-150.3 1.77-4.3 3.78-8.53 6-12.64-2.18-1.6-8.39-3.63-13.37-3.17-2.27 2.95-6.67 12.76-7.25 14.29-3.15 8.19-6.12 16.8-8.17 25.33-4.16 17.11-6.07 34.69-5.73 52.31.7 36.21 9.3 62.51 9.3 63.67h-.21c-.2 0-.51.02-.92.05-5.49.31-28.43 3.48-45.82 17.89-16.17 13.39-20.3 30.09-14.6 32.68z" fill="#FFF"/><path d="M237.04 512.6c31.86 0 100.15-2.61 108.37-2.93 4.79-.19 9.07-3.16 10.91-7.56 3.72-8.85 12.21-25.26 27.24-35.58 30.61-20.99 57.83-14.68 74.1-10.93 2.44.56 4.52 1.04 6.43 1.4 2.71.51 4.98.03 6.75-1.45 2.29-1.88 3.5-5.32 3.55-9.86.03-3.8-.8-8.29-2.39-12.98-3.19-9.5-9.36-19.51-17.36-28.16-21.03-22.65-47.48-25.72-65.54-26.06-28.33-.51-99.27 1.23-128.45 2.01-3.26.09-6.04 2.03-7.2 5.1-1.16 3.04-.43 6.35 1.96 8.6 19.34 18.37 53.28 54.56 63.44 90.33.55 2.01.16 4.11-1.09 5.78a6.564 6.564 0 01-5.25 2.61l-74.77-.89c-13.2-1.04-26.43-9.16-39.27-24.15-11.02-12.84-21.85-30.82-32.22-53.42-9.53-20.79-16.47-41.19-20.62-60.6-3.39-15.84-4.93-31.14-4.64-45.5.24-11.48 1.83-28.33 8.09-43.46l.08-.19c1.79-4.35 3.79-8.58 5.94-12.57a.67.67 0 00-.19-.87c-2.32-1.69-8.7-3.77-13.83-3.31-.19.02-.36.12-.48.26-2.3 2.98-6.72 12.84-7.35 14.46-3.8 9.91-6.41 17.98-8.22 25.43a205.997 205.997 0 00-5.75 52.48c.6 30.62 6.74 53.85 8.77 61.49.15.58.29 1.11.39 1.5l-.36.02c-.83.05-8.37.56-18.62 3.7-10.81 3.31-20.11 8.15-27.61 14.34-7.32 6.06-11.46 12.16-13.63 16.19-2.74 5.06-4.02 9.91-3.56 13.35.29 2.12 1.24 3.62 2.73 4.3.39.17.83.29 1.31.36 4.59.58 9.04-.24 14.19-1.16 8.8-1.59 19.78-3.58 36.6.8 17.36 4.5 34.69 15.61 50.1 32.1 10.05 10.66 20.79 17.67 32.8 21.42 10.74 3.28 20.79 3.43 28.14 3.57 1.94.03 4.11.03 6.51.03zm192.65-62.27c-13.71 0-29.76 3.34-46.88 15.08-15.32 10.52-23.95 27.17-27.73 36.17-1.64 3.94-5.46 6.57-9.71 6.76-8.83.34-87.04 3.34-114.81 2.88-7.26-.12-17.22-.29-27.71-3.55-11.77-3.68-22.31-10.57-32.2-21.06-15.57-16.68-33.12-27.92-50.72-32.48-17.14-4.45-28.26-2.45-37.18-.83-5.03.92-9.41 1.7-13.78 1.16-.37-.04-.66-.12-.92-.24-1.33-.6-1.79-2.1-1.96-3.24-.85-6.31 4.71-18.37 16.7-28.33 7.35-6.09 16.49-10.83 27.13-14.09 10.08-3.09 17.48-3.58 18.28-3.63l.36-.02c.24-.02.43-.02.53-.02h.22c.36 0 .68-.32.68-.68 0-.27-.13-.73-.58-2.52-8.13-30.72-8.59-53.63-8.73-61.15-.34-17.55 1.59-35.1 5.7-52.14 1.79-7.37 4.38-15.4 8.15-25.26.58-1.48 4.76-10.78 6.99-13.88 4.35-.31 9.74 1.31 12.11 2.76-2.08 3.87-3.99 7.95-5.73 12.16l-.07.19c-6.34 15.33-7.96 32.37-8.2 43.95-.31 14.45 1.26 29.87 4.67 45.8 4.16 19.51 11.14 40.01 20.72 60.89 10.42 22.7 21.32 40.78 32.41 53.74 13.11 15.25 26.62 23.54 40.21 24.61h.05l74.8.92c2.51 0 4.81-1.14 6.33-3.15 1.52-2 2.01-4.54 1.31-6.96-2.08-7.32-6.63-19.34-16.44-34.93-11.46-18.2-27.39-37.05-47.36-56.03-1.98-1.89-2.59-4.62-1.62-7.15.96-2.54 3.26-4.16 5.97-4.23 29.18-.78 100.09-2.52 128.4-2.01 7.71.14 19.36.77 31.47 4.64 12.84 4.09 23.96 11.14 33.07 20.98 7.89 8.51 13.95 18.35 17.1 27.68 1.54 4.57 2.34 8.9 2.32 12.54-.03 4.16-1.09 7.21-3.05 8.83-1.45 1.18-3.33 1.57-5.66 1.16-1.86-.34-3.94-.82-6.35-1.38-7.43-1.69-17.07-3.94-28.29-3.94z" fill="#232323"/><path d="M241.1 493.65c.89 0 1.59-.7 1.59-1.6 0-.89-.7-1.59-1.59-1.59-14.63-.12-28.12-7.25-41.2-21.86-11.92-13.27-23.91-33.23-36.67-61.08-9.53-20.76-16.18-41.17-19.8-60.75-2.93-15.83-3.87-31.2-2.83-45.66 1.59-21.92 7.32-36.11 10.59-42.61.34-.66.75-1.48 0-2.3-.58-.65-1.6-.7-2.25-.12-.19.19-.36.43-.46.7-.05.07-.1.19-.17.29-5.83 11.63-9.69 27.19-10.9 43.83-1.07 14.72-.1 30.36 2.87 46.48 3.68 19.8 10.4 40.46 20.05 61.47 12.88 28.11 25.07 48.37 37.2 61.86 13.73 15.32 27.97 22.82 43.57 22.94zM104.72 320.57c.05.97.85 1.67 1.65 1.45 10.34-2.8 17.67-14.09 16.97-27.14-.7-13.15-9.33-23.62-20-25.22-.74-.12-1.4.61-1.32 1.53l2.7 49.38z" fill="#232323"/><path d="M100.13 322.99h.12c1.26-.07 2.22-1.14 2.15-2.37l-2.49-49.41a2.255 2.255 0 00-2.39-2.13 2.269 2.269 0 00-2.13 2.37l2.47 49.39a2.272 2.272 0 002.27 2.15z" fill="#D8C5F3"/><path d="M341.62 492.39h.07c.39-.02.65-.36.61-.72-1.55-18.16-9.43-36.31-15.79-48.37-6.89-13.03-13.52-21.95-13.59-22a.693.693 0 00-.94-.15c-.29.22-.36.66-.15.95.08.09 6.65 8.89 13.47 21.85 6.31 11.92 14.12 29.92 15.64 47.81.03.36.32.63.68.63z" fill="#232323"/><path d="M140.24 252.19c0 4.19 3.4 7.59 7.59 7.59 4.19 0 7.59-3.4 7.59-7.59 0-4.19-3.4-7.59-7.59-7.59-4.19 0-7.59 3.4-7.59 7.59z" fill="#232323" fill-rule="evenodd"/><path d="M128.56 404.28c.1 0 .65-.07 1.35-.07.27 1.28 3 14.14 8.95 30.02 14.38 38.36 30.48 50.43 31.06 51.9-.02-.02-5.51-5.8-10.22-9.72-10.33-13.56-17.56-29.51-22.1-41.7-5.63-15.01-9.04-29.63-9.04-30.43zm333.19 19.24c-7.64-9.88-17.77-17.55-29.38-22.16-25.65-10.11-46.2-5.8-58.91-.41-15.98 6.76-26.57 17.84-31.12 25.93-.19.32-.58.46-.91.24-.34-.21-.46-.58-.25-.91 4.69-8.3 15.5-19.61 31.77-26.52 12.93-5.51 33.87-9.89 59.96.39 11.82 4.73 22.14 12.54 29.95 22.6 6.45 8.43 10.15 17.52 10.69 26.06-.25 1.64-.71 3.06-1.36 4.2.58-9.4-3.07-19.8-10.44-29.42z" fill="#232323"/></g><path d="M421.427 316.81h-57.053v62.486h57.053z"/><g clip-path="url(#h)"><path d="M420.97 316.81h-56.6v62.48h56.6v-62.48z" fill="#D8C5F3"/><path d="M396.64 357.54c-.1 0-.21-.03-.29-.08a.576.576 0 01-.27-.54c.01-.1.05-.2.12-.28l3.31-4.22 3.57-4.54c.05-.07.12-.13.2-.16.07-.04.16-.06.25-.06.08 0 .17.02.24.06.08.03.15.09.2.16l3.57 4.54 3.31 4.22c.05.05.08.12.1.19.02.07.03.15.02.22-.01.07-.04.14-.07.21-.04.06-.09.12-.15.16-.1.08-.22.12-.34.12h-2.35c-.15 0-.29.06-.4.16-.1.11-.16.25-.16.4v10.88a.56.56 0 01-.57.56h-6.81a.56.56 0 01-.57-.56V358.1c0-.15-.06-.29-.16-.4a.595.595 0 00-.4-.16h-2.35zm24.83-43.04h-1.45v67.1h1.45v-67.1z" fill="#232323"/></g><path d="M421.2 258.4h129.727v120.897H421.2z"/><g clip-path="url(#i)"><path d="M550.92 258.39H421.2v120.9h129.72v-120.9z" fill="#D8C5F3"/><path d="M497.6 258.39h-23.3v120.9h23.3v-120.9z" fill="#FFF"/><path d="M527.17 357.36c-.07 0-.14-.02-.21-.05a.436.436 0 01-.19-.12.567.567 0 01-.12-.18c-.02-.07-.04-.14-.04-.22 0-.13.05-.24.11-.33l3.28-4.2 3.51-4.53c.18-.24.54-.29.79-.09.04.03.06.07.09.09l3.51 4.53 3.28 4.2c.17.25.13.6-.09.78-.1.07-.22.11-.34.12h-2.31c-.07 0-.14.01-.21.04a.44.44 0 00-.18.12c-.06.05-.1.11-.13.18-.02.07-.04.14-.04.22v10.85a.538.538 0 01-.16.4.538.538 0 01-.4.16h-6.72c-.07 0-.15-.01-.21-.04a.76.76 0 01-.19-.12.538.538 0 01-.16-.4v-10.85a.538.538 0 00-.16-.4.517.517 0 00-.18-.12.57.57 0 00-.22-.04h-2.31zm-17.47-2.45v-6.53c0-.27.22-.49.49-.49h10.15c.13 0 .25.05.35.15.09.09.14.21.14.34v6.53c0 2.85-2.15 5.25-4.97 5.56v7.92h4.05c.27 0 .5.23.47.49 0 .27-.22.48-.47.48h-9.25a.47.47 0 01-.47-.5c0-.27.22-.47.47-.47h4.19v-7.89a5.588 5.588 0 01-5.15-5.59zm10.15 0v-6.03h-9.17v6.03a4.6 4.6 0 004.6 4.6c2.53 0 4.57-2.06 4.57-4.6z" fill="#232323"/></g><path d="M380.9 73.204H127.785v422.462H380.9z"/><g clip-path="url(#j)"><path d="M271.22 146.27c.04-.46.71-.53.84-.08 2.36 8 12.41 35.07 43.4 48.72 19.82 8.74 38.43 6.59 45.93 22.27 5.49 11.46-6.82 16.13-.23 38.62 6.38 21.76 22.01 40.26 5.55 60.45-.22.27-.66.18-.75-.16-1.21-4.62-8.11-27.87-28.22-44.39-20.46-16.81-1.47-40.11-33.65-58.84-30.68-17.86-35.22-40.85-32.87-66.59z" fill="#00676C"/><path d="M365.87 316.43c.16 0 .31-.05.43-.15.12-.1.21-.24.24-.39 4.49-21.2-2.99-32.07-10.22-42.57-3.11-4.51-6.04-8.77-8.05-13.8-2.68-6.69-2.12-11.6-1.58-16.35.73-6.33 1.48-12.88-5.31-23.3-4.96-7.62-12.74-10.83-21.74-14.55-8.14-3.37-17.37-7.18-26.36-15.12-11.02-9.73-16.12-21.11-18.46-28.94-2.53-8.5-2.46-14.77-2.46-14.84a.626.626 0 00-.19-.48.689.689 0 00-.48-.21.687.687 0 00-.69.67c0 .26-.09 6.51 2.5 15.2 2.39 8.01 7.6 19.66 18.88 29.62 9.16 8.09 18.5 11.95 26.74 15.36 8.79 3.63 16.38 6.77 21.12 14.04 6.52 10 5.83 16.02 5.1 22.39-.56 4.92-1.15 10.01 1.66 17.01 2.07 5.18 5.18 9.7 8.19 14.07 7.07 10.27 14.38 20.89 10.01 41.52-.02.1-.02.2.01.3.02.1.07.19.13.27.07.08.15.14.24.18.09.05.19.07.29.07z" fill="#FFF"/><path d="M230.37 441.53c21.06-.09 36.84-2.45 48.44-5 32.41-7.12 33.13-21.19 31.59-27.33-2.45-9.73-19.24-12.41-38.38 7.89-15.95 16.91-41.65 24.44-41.65 24.44z" fill="#232323"/><path d="M222.45 486.15c2.96 3.86 11.37 8.4 26.38 8.4h72.99c-1-12.28-7.18-26.13-14.91-39.08-3.35-5.6-8.28-12.96-10.53-15.98-11.01-15.45-21.66-26.73-25.27-30.81l-40.61 32.15c7.72 4.14 24.11 12.93 29.29 15.71-3.98 1.36-7.56 2.88-10.78 4.5-.35.17-.7.35-1.04.53-.84.44-1.66.89-2.46 1.34-17.04 9.72-22.47 21.82-23.01 23.12h-.01c-.01.04-.02.06-.02.08l-.02.04z" fill="#FFF"/><path d="M250.21 451.4l9.58 5.14c-3.98 1.36-7.56 2.88-10.78 4.5-.35.17-.7.35-1.04.53-.84.44-1.66.89-2.46 1.34l43.45 11.31 17.39-19.67c-2.84-4.7-5.87-9.27-8.92-13.59l-.15-.21-.14-.2c-.16-.22-.33-.46-.52-.73-.08-.11-.16-.21-.24-.33-1.2-1.66-2.91-3.97-4.51-6.12-.02-.04-.05-.07-.08-.1-1.2-1.6-2.43-3.18-3.67-4.75l-.02-.03c-3.4 1.95-28.18 12.98-43.65 19.82l.1.05 5.66 3.04z" fill="#D8C5F3"/><path d="M292.45 435.34l-.94-2.07-41.46 18.76.94 2.07 41.46-18.76z" fill="#FFF"/><path d="M248.83 495.23h72.99c.1 0 .19-.02.28-.05.08-.04.16-.1.22-.17a.626.626 0 00.18-.51c-.89-10.95-5.94-24.19-15.01-39.38-3.27-5.49-8.2-12.86-10.56-16.03-9.53-13.37-18.94-23.79-23.46-28.8-.73-.82-1.35-1.51-1.84-2.06a.728.728 0 00-.46-.23.706.706 0 00-.48.15l-40.61 32.14c-.09.07-.16.16-.21.27a.68.68 0 00.06.64c.06.1.15.17.25.23 4.25 2.28 11.39 6.07 17.7 9.42 4.25 2.25 8.3 4.4 10.88 5.78-.26.08-.52.17-.78.26-3.26 1.08-6.62 2.2-9.28 3.54-.35.17-.7.35-1.05.54-.83.43-1.66.88-2.48 1.35-17.04 9.72-22.64 21.88-23.29 23.41l-.03.09-.02.05-.01.03c-.05.11-.06.22-.04.34.01.12.06.23.13.32 3.21 4.19 11.97 8.67 26.92 8.67zm72.25-1.36h-72.25c-14.08 0-22.39-3.99-25.59-7.83.98-2.19 6.61-13.41 22.61-22.54.8-.45 1.62-.9 2.44-1.33.34-.18.68-.35 1.02-.52 2.57-1.29 5.89-2.4 9.1-3.47.76-.25 1.53-.51 2.28-.77a.66.66 0 00.32-.22.7.7 0 00.14-.37.574.574 0 00-.08-.38.7.7 0 00-.27-.27c-2.33-1.25-7.16-3.82-12.28-6.53-5.87-3.11-12.47-6.62-16.78-8.92l39.29-31.1c.41.45.89.98 1.43 1.58 4.5 4.99 13.88 15.38 23.37 28.69 2.35 3.16 7.24 10.47 10.49 15.93 8.75 14.66 13.72 27.46 14.76 38.05z" fill="#232323"/><path d="M222.45 486.15c2.96 3.86 11.37 8.4 26.38 8.4h72.99c-.42-5.12-1.74-10.52-3.7-16.01 0 0-5.88-4.6-12.9-3.75-7.5.91-8.66 5.6-14.55 7.49-7.05 2.28-9.66-2.38-18.31 1.25-10.01 4.22-30.35 10.79-47.73-1.45-1.32 2.1-1.96 3.55-2.13 3.95h-.01c-.01.04-.02.06-.02.08l-.02.04z" fill="#FFF"/><path d="M224.63 482.08c17.38 12.24 37.72 5.67 47.73 1.45 8.65-3.63 11.26 1.03 18.31-1.25 5.89-1.89 7.05-6.58 14.55-7.49 7.02-.85 12.9 3.75 12.9 3.75-1.43-4.07-3.71-9.37-6.72-15.08 0 0 0-.01-.01-.01-3.18-6.09-7.85-13.85-13.96-22.49-5.39 1.39-3.83 7.71-10.63 10.2-5.88 2.16-15.49.05-33.72 7.98-.2.04-8.36 3.53-15.12 8.75-3.64 2.8-6.69 5.59-9.63 9.11v.01a45.38 45.38 0 00-3.7 5.07z" fill="#232323"/><path d="M313.65 469.08c.34 0 .54-.02.58-.02.18-.02.34-.11.45-.25.12-.14.17-.32.15-.5a.615.615 0 00-.24-.45.701.701 0 00-.5-.16c-.06.01-4.7.4-10.52-3.69-1.28-.9-2.33-1.71-3.26-2.43-3.58-2.75-5.56-4.27-12.74-5.19-.09-.01-.18 0-.26.02-.09.02-.17.06-.24.12-.08.05-.14.12-.18.2-.05.08-.08.16-.09.25-.01.09 0 .18.02.27.03.08.07.17.12.24.06.07.13.13.2.17.08.05.17.07.26.08 6.82.88 8.57 2.23 12.08 4.92.93.73 2 1.54 3.3 2.46 5.12 3.6 9.36 3.96 10.87 3.96z" fill="#FFF"/><path d="M247.57 489.8c1.23 0 2.48-.05 3.74-.14 6.67-.5 13.84-2.35 21.32-5.5 4.55-1.91 7.38-1.43 10.12-.96 2.35.4 4.78.81 8.13-.27 2.63-.84 4.35-2.22 6.02-3.55 2.21-1.76 4.29-3.42 8.41-3.92 5.76-.69 11.03 2.44 12.5 3.41l.75-1.13c-1.57-1.04-7.19-4.39-13.42-3.63-4.5.55-6.83 2.41-9.09 4.2-1.65 1.32-3.2 2.56-5.59 3.33-3.03.97-5.19.6-7.48.21-2.93-.5-5.96-1.01-10.88 1.06-7.34 3.08-14.37 4.9-20.89 5.39-9.94.75-18.74-1.54-26.19-6.78a.676.676 0 00-.39-.13v.69l-.39.55c6.76 4.77 14.59 7.17 23.33 7.17z" fill="#232323"/><path d="M321.82 495.23c.1 0 .19-.02.28-.05.08-.04.16-.1.22-.17a.626.626 0 00.18-.51c-.89-10.95-5.94-24.2-15.01-39.38-2.79-4.67-5.99-9.57-9.51-14.56a.656.656 0 00-.44-.27.57.57 0 00-.26 0c-.09.02-.18.06-.25.11s-.13.12-.18.19c-.05.08-.08.16-.1.25-.01.09-.01.18.01.27.02.08.06.17.11.24 3.5 4.96 6.68 9.82 9.45 14.47 8.96 15 13.94 28.05 14.82 38.79.02.17.09.33.22.44.13.12.29.18.46.18zm-15.46-4.09c4.85 0 8.64-2.34 8.64-5.33 0-3-3.79-5.34-8.64-5.34-4.85 0-8.64 2.34-8.64 5.34 0 2.99 3.79 5.33 8.64 5.33zm0-9.31c3.94 0 7.28 1.82 7.28 3.98 0 2.15-3.34 3.97-7.28 3.97-3.94 0-7.28-1.82-7.28-3.97 0-2.16 3.34-3.98 7.28-3.98z" fill="#232323"/><path d="M278.98 495.66c21.37 0 42.5-.42 42.86-.43.09 0 .17-.02.26-.05.08-.04.15-.09.21-.16.07-.06.12-.14.15-.22.03-.08.05-.17.05-.26a.695.695 0 00-.22-.48.708.708 0 00-.48-.19c-.61.01-60.81 1.2-80.66-.45-10-.84-15.24-4.42-17.9-7.4 1.08-2.42 7.45-15.01 26.07-24.37 2.62-1.32 5.8-2.56 9.16-3.88.54-.21 1.09-.42 1.63-.64.08-.03.16-.08.22-.14.07-.06.12-.14.15-.22.04-.08.06-.17.06-.26s-.01-.18-.05-.26a.636.636 0 00-.14-.22.541.541 0 00-.22-.15.583.583 0 00-.26-.06c-.09 0-.18.01-.26.05l-1.62.63c-3.4 1.33-6.6 2.58-9.29 3.93-19.79 9.95-26.1 23.6-26.82 25.3-.02.04-.03.09-.05.13l-.01.04c-.05.11-.06.24-.04.36.02.12.07.23.15.33 4.97 5.86 13.14 7.69 19.11 8.19 8.16.68 23.11.88 37.94.88z" fill="#232323"/><path d="M273.39 472.17c.27 0 .53-.06.77-.18a1.71 1.71 0 00.75-2.29c-.22-.44-5.62-10.85-18.42-13.84-.91-.21-1.83.36-2.05 1.28-.05.21-.05.44-.02.66.04.22.12.43.24.62a1.618 1.618 0 001.06.76c11.2 2.62 16.1 11.97 16.15 12.06.14.28.36.52.63.68.27.17.57.25.89.25zm-8.87 3.41c.27 0 .54-.06.77-.19.41-.2.71-.56.85-.98.14-.43.1-.9-.1-1.3-.22-.44-5.56-10.68-18.19-13.61a1.7 1.7 0 00-2.05 1.27c-.21.92.36 1.83 1.28 2.05 11.04 2.56 15.87 11.74 15.92 11.83.14.28.36.52.63.68.27.16.58.25.89.25zm-10.23 2.73a1.707 1.707 0 001.5-2.51c-.2-.38-5.08-9.23-16.6-11.76-.44-.1-.9-.02-1.29.23-.38.24-.64.62-.74 1.06-.1.45-.02.91.23 1.29.24.38.63.65 1.07.74 9.93 2.19 14.28 9.98 14.33 10.06.14.27.36.49.62.65.27.15.57.24.88.24z" fill="#D8C5F3"/><path d="M143.29 345.17c4.57 52.75 87.08 96.36 87.08 96.36s23.69 1.23 40.97-20.35c17.44-21.78 36.6-21.71 39.06-11.98-4.19-16.45-32.21-27.59-32.69-27.78 61.85 9.08 81.18-20.9 81.18-20.9l-20.24-59.74-70.7.72-17.76.18c-17.37-3.93-34.66-6.26-50.12-6.05-34.51.46-59.9 13.54-56.78 49.54z" fill="#00676C"/><mask id="k" maskUnits="userSpaceOnUse" x="143.031" y="295.62" width="215.861" height="145.255"><path d="M143.29 345.17c4.57 52.75 87.21 95.66 87.21 95.66s23.56 1.93 40.84-19.65c17.44-21.78 36.6-21.71 39.06-11.98-4.19-16.45-32.21-27.59-32.69-27.78 61.85 9.08 81.18-20.9 81.18-20.9l-20.24-59.74-88.46.9c-56.16-12.72-111.42-8.63-106.9 43.49z" fill="#000"/></mask><g mask="url(#k)"><path d="M283.48 383.68a.683.683 0 00.68-.64.622.622 0 00-.15-.47.64.64 0 00-.43-.25c-30.38-4.29-55.28-14.64-70.82-22.57-16.85-8.59-26.63-16.27-26.72-16.35a.686.686 0 00-.5-.14c-.09.01-.18.04-.26.08a.82.82 0 00-.2.17c-.06.08-.1.16-.12.24a.62.62 0 00-.02.27c.01.09.03.17.08.25.04.08.1.15.17.2.1.08 9.96 7.82 26.91 16.48 15.64 7.98 40.7 18.4 71.29 22.72.03 0 .06.01.09.01z" fill="#FFF"/></g><path d="M325.23 311.17s-5.23 9.6-17.13 12.55l-7.35-3.01 34.26-28.11-9.78 18.57z" fill="#232323"/><path d="M308.1 324.4c.06 0 .11 0 .17-.02 12.05-2.99 17.34-12.48 17.56-12.88l.01-.01 9.78-18.58c.07-.13.09-.29.06-.45a.699.699 0 00-.24-.39.663.663 0 00-.43-.15c-.16 0-.31.05-.43.15l-34.26 28.11c-.09.08-.16.18-.2.29-.05.11-.06.23-.04.34.02.12.06.23.14.32.07.09.17.17.27.21l7.35 3.01c.09.03.17.05.26.05zm16.53-13.55c-.12.22-5.25 9.27-16.48 12.15l-6.08-2.49 30.77-25.25-8.21 15.59z" fill="#232323"/><path d="M285.44 151.07c13.87 5.68 46.62 16.81 72.77 60.2 23.56 39.09 34.33 109.27.68 149.25 0 0-9.78-16.84-42.35-32.9 3.24-3.9 9.6-13.67 10.28-25.25.06-.88-25.26 18.66-26.07 18.34-41.72-16.52-66.02-22.21-66.02-22.21s-5.68-63.38 15.24-126.08c0 0 25.2-20.04 35.47-21.35z" fill="#FFF"/><path d="M358.89 361.2c.1 0 .2-.02.29-.06.09-.04.17-.1.23-.18 8.08-9.6 13.98-21.36 17.54-34.96 3.24-12.35 4.49-25.97 3.73-40.47-1.37-26.25-9.55-54.14-21.89-74.61-24.78-41.11-55.69-53.5-70.54-59.45-.91-.37-1.76-.71-2.55-1.03a.697.697 0 00-.35-.05c-10.34 1.32-34.77 20.68-35.81 21.5a.66.66 0 00-.22.32c-10.83 32.46-14.41 65.08-15.5 86.73-1.18 23.46.22 39.47.23 39.62.01.15.07.28.17.39.09.11.21.18.35.22.25.05 24.74 5.87 65.93 22.17.6.24.76.31 14.41-9.75 4.12-3.05 9.08-6.7 11.14-8.06-1.15 12.37-8.52 21.83-10.03 23.65a.65.65 0 00-.14.58c.02.1.06.19.13.27.06.09.14.15.23.2 9.22 4.55 22.46 12.11 33.16 22.3 6.4 6.09 8.87 10.29 8.9 10.33.05.1.13.18.22.24.09.05.2.09.31.1h.06zm-73.54-209.43c.8.32 1.59.64 2.39.96 7.5 3.01 18.83 7.55 31.36 16.43 14.98 10.62 27.94 24.9 38.52 42.46 12.23 20.29 20.34 47.95 21.7 73.98.75 14.37-.49 27.84-3.69 40.06-3.42 13.06-9.02 24.4-16.67 33.71-1.02-1.52-3.63-5.07-8.56-9.77-5.89-5.62-16.33-14-32.79-22.22 2.37-3.03 9.17-12.72 9.9-24.97 0-.14-.02-.27-.09-.39a.752.752 0 00-.28-.28c-.6-.32-.68-.36-13.04 8.75-5.37 3.96-12 8.84-13.32 9.5-37.99-15.03-61.78-21.14-65.41-22.03-.22-2.84-1.25-17.88-.18-38.98 1.08-21.51 4.63-53.91 15.36-86.15 2.14-1.68 25.15-19.65 34.8-21.06zm-74.04-69.08c2.54-1.59 6.6-2.35 10.46-.68 2.73-11.81 18.19-10.9 20.92-2.27 10-8.86 23.88 2.04 20.24 12.04-1.34 3.67-3.41 9.99-1.37 15.9-5 2.73-13.75 17.38-13.75 17.38s-19.51-23.14-28.77-23.29c-14.55-.22-14.45-14.88-7.73-19.08z" fill="#232323"/><mask id="l" maskUnits="userSpaceOnUse" x="206.941" y="73.204" width="56.584" height="51.86"><path d="M211.31 82.69c2.54-1.59 6.6-2.35 10.46-.68 2.73-11.81 18.19-10.9 20.92-2.27 10-8.86 23.88 2.04 20.24 12.04-1.34 3.67-3.41 9.99-1.37 15.9-5 2.73-13.75 17.38-13.75 17.38s-19.51-23.14-28.77-23.29c-14.55-.22-14.45-14.88-7.73-19.08z" fill="#000"/></mask><g mask="url(#l)"><path d="M227.23 86.78c.12 0 .24-.03.34-.09.11-.06.2-.15.25-.26a.674.674 0 00-.01-.69c-4.28-6.88-10.96-6.14-11.24-6.11-.18.02-.34.12-.45.26-.11.14-.16.32-.14.5.02.18.11.34.25.45.15.11.33.16.5.14.25-.03 6.12-.64 9.92 5.48.06.1.14.18.25.24.1.05.21.08.33.08z" fill="#FFF"/></g><path d="M207.9 137.21c-.1 3.21 1.82 6.37 5.23 8.18 7.68 4.08 20.86 1.02 20.86 1.02s14.38 13.07 15.98 26.01c0 0 15.61-3.05 35.47-21.35 0 0-16.6-9.99-22.74-20.67 6.14-1.14 12.73-7.73 10.8-16.02-1.1-4.73-6.37-7.72-11.25-6.7-5.03 1.05-8.15 5.36-11.83 9.77-4.15 4.98-5.67 1.07-7.67-3.85-1.29-3.16-2.78-6.74-5.29-8.64-5.69-4.32-18.42-3.19-18.42-3.19s.02 1.67-.1 3.76c-.16 2.77-.57 6.29-1.6 7.72-1.82 2.5-3.76 2.15-3.76 3.75 0 1.36 1.6 2.95 2.5 3.63-.22 9.31-7.95 9.09-8.18 16.58z" fill="#FFF"/><path d="M249.97 173.11c.04 0 .08-.01.13-.02.16-.03 4.06-.81 10.45-3.86 5.87-2.81 15.03-8.15 25.35-17.66a.677.677 0 00.22-.57c-.01-.1-.05-.2-.1-.29a.69.69 0 00-.23-.22c-.16-.1-15.69-9.53-22.02-19.64 3.35-.9 6.55-3.23 8.54-6.27 1.44-2.19 2.93-5.76 1.86-10.35-1.18-5.03-6.7-8.34-12.07-7.22-4.78 1.01-7.89 4.78-11.19 8.78-.33.41-.67.81-1.01 1.22-1.24 1.48-2.24 2.17-2.99 2.05-1.28-.19-2.34-2.79-3.46-5.54l-.07-.18c-1.25-3.06-2.8-6.88-5.51-8.93-5.83-4.42-18.36-3.36-18.89-3.31-.17.01-.33.09-.45.22-.11.13-.17.29-.17.46 0 .02.02 1.67-.1 3.71-.21 3.73-.74 6.34-1.48 7.36-.8 1.1-1.62 1.59-2.29 1.99-.78.47-1.59.95-1.59 2.16 0 1.51 1.45 3.1 2.49 3.95-.2 4.42-2.24 6.5-4.22 8.52-1.89 1.92-3.84 3.92-3.95 7.72-.11 3.54 2.03 6.92 5.59 8.8 3.3 1.75 7.9 2.47 13.67 2.12 3.5-.21 6.33-.75 7.3-.95.89.83 3.93 3.79 7.08 7.84 6.16 7.94 7.99 13.9 8.43 17.51.02.16.1.31.22.43.13.11.29.17.46.17zm34.35-21.94c-9.9 9-18.65 14.09-24.3 16.8-4.71 2.26-8.09 3.26-9.48 3.62-.84-5.3-3.74-11.16-8.62-17.45-3.79-4.87-7.44-8.2-7.47-8.23a.748.748 0 00-.29-.16.735.735 0 00-.33 0c-.13.03-13.01 2.95-20.38-.96-3.1-1.64-4.96-4.54-4.87-7.56.1-3.27 1.71-4.91 3.57-6.81 2.1-2.15 4.49-4.59 4.62-9.77 0-.11-.02-.22-.07-.32a.69.69 0 00-.21-.24c-.92-.7-2.22-2.12-2.22-3.09 0-.4.15-.53.92-.99.73-.44 1.73-1.04 2.7-2.36.91-1.26 1.5-3.98 1.73-8.08.06-1.05.1-2.1.1-3.16 2.6-.15 12.62-.49 17.33 3.09 2.4 1.82 3.88 5.45 5.07 8.36l.07.17c1.32 3.25 2.46 6.06 4.51 6.38 1.29.2 2.64-.6 4.25-2.52.34-.41.68-.82 1.01-1.23 3.28-3.98 6.11-7.41 10.43-8.31 4.57-.96 9.46 1.93 10.45 6.19.96 4.12-.38 7.33-1.67 9.3-1.98 3.02-5.27 5.27-8.59 5.89-.11.02-.21.06-.3.13-.08.07-.15.15-.2.25a.703.703 0 00.03.63c2.59 4.5 7.25 9.39 13.84 14.54 3.66 2.85 6.93 4.99 8.37 5.89z" fill="#232323"/><mask id="m" maskUnits="userSpaceOnUse" x="207.899" y="101.644" width="77.545" height="70.785"><path d="M207.9 137.21c-.1 3.21 1.82 6.37 5.23 8.18 7.68 4.08 20.86 1.02 20.86 1.02s14.38 13.07 15.98 26.01c0 0 15.61-3.05 35.47-21.35 0 0-16.6-9.99-22.74-20.67 6.14-1.14 12.73-7.73 10.8-16.02-1.1-4.73-6.37-7.72-11.25-6.7-5.03 1.05-8.15 5.36-11.83 9.77-4.15 4.98-5.67 1.07-7.67-3.85-1.29-3.16-2.78-6.74-5.29-8.64-5.69-4.32-18.42-3.19-18.42-3.19s.02 1.67-.1 3.76c-.16 2.77-.57 6.29-1.6 7.72-1.82 2.5-3.76 2.15-3.76 3.75 0 1.36 1.6 2.95 2.5 3.63-.22 9.31-7.95 9.09-8.18 16.58z" fill="#000"/></mask><g mask="url(#m)"><path d="M259.11 131.25c2.84 0 4.88-.5 5.01-.53.17-.05.32-.16.41-.31.09-.16.12-.34.07-.52a.658.658 0 00-.3-.41.666.666 0 00-.51-.09c-.05.02-4.46 1.09-9.24 0a.57.57 0 00-.26 0c-.09.01-.18.04-.25.09a.86.86 0 00-.2.18c-.05.08-.08.16-.1.25-.02.08-.03.17-.01.26.01.09.05.17.09.25.05.08.11.14.19.19.07.06.15.09.24.11 1.73.4 3.4.53 4.86.53z" fill="#232323"/></g><mask id="n" maskUnits="userSpaceOnUse" x="207.899" y="101.644" width="77.545" height="70.785"><path d="M207.9 137.21c-.1 3.21 1.82 6.37 5.23 8.18 7.68 4.08 20.86 1.02 20.86 1.02s14.38 13.07 15.98 26.01c0 0 15.61-3.05 35.47-21.35 0 0-16.6-9.99-22.74-20.67 6.14-1.14 12.73-7.73 10.8-16.02-1.1-4.73-6.37-7.72-11.25-6.7-5.03 1.05-8.15 5.36-11.83 9.77-4.15 4.98-5.67 1.07-7.67-3.85-1.29-3.16-2.78-6.74-5.29-8.64-5.69-4.32-18.42-3.19-18.42-3.19s.02 1.67-.1 3.76c-.16 2.77-.57 6.29-1.6 7.72-1.82 2.5-3.76 2.15-3.76 3.75 0 1.36 1.6 2.95 2.5 3.63-.22 9.31-7.95 9.09-8.18 16.58z" fill="#000"/></mask><g mask="url(#n)" fill="#232323"><path d="M233.99 146.41s6.65-2.44 10.68-8.01c1.57.83 3.42 10.1-4.71 14.49-8.5 4.59-5.97-6.48-5.97-6.48z"/><path d="M236.48 154.68c1.06 0 2.33-.4 3.81-1.19 5.84-3.16 6.44-8.5 6.43-10.65-.01-2.4-.74-4.52-1.73-5.04a.645.645 0 00-.47-.06c-.16.04-.3.13-.4.26-3.85 5.33-10.3 7.75-10.37 7.77-.1.04-.2.11-.28.19-.07.09-.12.19-.15.3-.14.6-1.27 5.93 1.21 7.81.53.41 1.19.61 1.95.61zm8.22-15.18c.31.64.67 1.86.65 3.53-.02 2.32-.79 6.6-5.71 9.26-1.39.75-3.26 1.47-4.29.69-1.39-1.05-1.06-4.52-.77-6.07 1.4-.57 6.52-2.88 10.12-7.41z"/></g><mask id="o" maskUnits="userSpaceOnUse" x="234.03" y="151.075" width="146.188" height="209.451"><path d="M285.44 151.07c13.87 5.68 46.62 16.81 72.77 60.2 23.56 39.09 34.33 109.27.68 149.25 0 0-9.78-16.84-42.35-32.9 3.24-3.9 9.6-13.67 10.28-25.25.06-.88-25.26 18.66-26.07 18.34-41.72-16.52-66.02-22.21-66.02-22.21s-5.68-63.38 15.24-126.08c0 0 25.2-20.04 35.47-21.35z" fill="#000"/></mask><g mask="url(#o)"><path d="M252.86 200.57c1.95 0 5.23-2.63 11.5-19.39.03-.08.05-.17.05-.26a.782.782 0 00-.22-.48.654.654 0 00-.23-.13.575.575 0 00-.26-.05c-.09.01-.18.03-.26.06-.08.04-.15.09-.22.16-.06.06-.1.14-.14.22-2.52 6.76-4.77 11.75-6.67 14.85-2.16 3.54-3.33 3.72-3.73 3.64-1.83-.38-3.62-7.58-2.6-26.62 0-.17-.06-.35-.18-.48a.694.694 0 00-.47-.22.661.661 0 00-.48.17c-.14.12-.22.28-.23.46-.41 7.6-.39 14.1.05 18.79.55 5.9 1.71 8.83 3.63 9.24.15.03.31.04.46.04zm25.19-35.76c.11 0 .21-.02.32-.07 5.4-2.83 10.58-6.66 15.84-11.7.07-.06.12-.14.15-.22.04-.08.06-.17.06-.26s-.01-.18-.04-.26a.855.855 0 00-.15-.22.596.596 0 00-.22-.16.751.751 0 00-.26-.05.57.57 0 00-.26.04c-.08.03-.16.08-.22.15-5.17 4.95-10.25 8.7-15.54 11.47-.13.07-.24.18-.3.32s-.08.3-.04.45c.03.14.12.28.24.37.12.09.27.14.42.14z" fill="#232323"/></g><path d="M261.79 235.81c6.19-6.74 57.23-1.99 87.55 12.72 7.96 3.86 10.68 8.17 10.68 10.22 0 4.11-7 3.94-11.82 3.63-24.36-1.54-76.79-16.97-86.41-26.57z" fill="#232323"/><path d="M351.81 263.19c5.05 0 6.79-.9 7.78-1.83.74-.69 1.12-1.57 1.12-2.61 0-1.36-.93-3.14-2.54-4.89-1.97-2.14-4.92-4.2-8.53-5.95-13.77-6.68-33.1-11.95-53.04-14.46-13.88-1.75-31.45-2.31-35.31 1.89-.12.13-.19.3-.18.48 0 .17.07.34.2.47 4.49 4.49 18.68 10.65 37.96 16.48 18.55 5.61 37.29 9.56 48.89 10.29 1.38.09 2.59.13 3.65.13zm-74.13-29.69c5.38 0 11.8.42 18.75 1.3 19.5 2.46 39.17 7.82 52.61 14.34 7.56 3.67 10.3 7.76 10.3 9.61 0 .66-.22 1.19-.68 1.62-1.99 1.87-7.9 1.49-10.42 1.33-23.19-1.47-74.52-16.22-85.44-25.88 2.15-1.53 7.55-2.32 14.88-2.32z" fill="#232323"/><path d="M134.11 264.31c8.87 9.87 20.58 9.2 19.9 5.12 3.31.1 8.41-3.38 3.63-6.36-5.45-3.41-13.87-5.46-14.09-12.73-.13-4.09 7.95-8.17 11.37-.22 5.72 13.34 93.34 79.17 142.51 71.81 32.4-4.85 39.21-38.46 40.08-60.8.46-11.51-.68-20.06-.68-20.1-.15-.08-.31-.17-.46-.25-32.28-17.57-63.72-13.33-74.56-4.54 0 .01-.01.01-.02.02 1.64 8.19 6.5 25.36 7.28 28.19-7.76-4.2-15.66-8.11-23.56-11.69-.09-.04-.19-.09-.29-.13-.45-.21-.9-.41-1.36-.61-8.9-3.99-17.78-7.56-26.41-10.66-.43-.15-.87-.31-1.3-.46-.32-.11-.64-.22-.95-.33h-.01c-4.61-1.62-9.14-3.1-13.57-4.43-12.25-3.69-23.67-6.26-33.55-7.54-.12-.01-.23-.03-.35-.04-.02 0-.04-.01-.07-.01l-1.48-.18c-3.6-.41-6.97-.65-10.1-.69h-.03c-.56-.01-1.11-.01-1.65-.01-1.92.02-3.74.12-5.45.29-.05 0-.1.01-.16.02a41.366 41.366 0 00-2.51.33c-1.1.18-2.14.42-3.14.72-16.47 4.89-18.46 24.79-9.02 35.28z" fill="#FFF"/><path d="M289.37 323.18c2.79 0 5.52-.18 8.16-.58 14.59-2.18 25.48-10.33 32.37-24.21 4.93-9.9 7.71-22.43 8.29-37.23.42-10.59-.49-18.66-.68-20.17v-.03a.68.68 0 00-.35-.53c-.15-.08-.31-.17-.47-.25-18.47-10.06-35.02-12.21-45.64-12.24-12.54-.04-23.63 2.87-29.67 7.77-.1.08-.18.18-.23.3a.83.83 0 00-.03.38c1.46 7.26 5.37 21.35 6.86 26.7-7.17-3.84-14.61-7.51-22.14-10.93-.02-.01-.03-.01-.05-.02l-.79-.36c-.28-.13-.57-.26-.86-.39a379.1 379.1 0 00-26.46-10.67l-.1-.03c-.4-.14-.8-.29-1.2-.43-.31-.11-.63-.22-.94-.33-.01 0-.01 0-.02-.01a325.7 325.7 0 00-13.61-4.44c-12.39-3.72-23.71-6.27-33.65-7.55-.11-.02-.22-.03-.33-.05h-.04c-.52-.07-1.03-.13-1.54-.19-3.64-.41-7.06-.65-10.17-.69h-.04c-.55-.01-1.1-.01-1.65-.01-1.94.02-3.79.12-5.52.29-.05.01-.12.01-.18.02-.6.06-1.15.13-1.66.2-.29.04-.58.09-.86.14-1.12.18-2.2.43-3.23.73-7.21 2.15-12.28 7.24-14.29 14.34-2.16 7.65-.22 16.31 4.95 22.06 6.87 7.65 15.63 9.27 19.31 7.5 1.05-.5 1.67-1.27 1.79-2.18 2.24-.21 4.86-1.64 5.45-3.58.26-.84.32-2.48-2.15-4.02-1.3-.82-2.78-1.56-4.22-2.28-4.62-2.32-9.39-4.72-9.55-9.89-.06-1.66 1.7-3.47 3.82-3.94 1.24-.28 4.33-.43 6.24 4.01 2.98 6.96 26.41 26.74 55.24 43.98 18.76 11.22 52.53 28.81 79.84 28.81zm46.83-81.72c.24 2.07 1.02 9.74.63 19.64-.56 14.41-3.38 27.09-8.15 36.69-6.68 13.45-17.23 21.35-31.36 23.46-27.97 4.19-66.57-15.78-87.09-28.05-13.22-7.91-26.4-17.04-37.12-25.73-9.61-7.79-16.18-14.37-17.57-17.62-1.6-3.73-4.51-5.53-7.78-4.8-2.82.62-4.97 2.96-4.9 5.31.19 5.98 5.57 8.68 10.31 11.06 1.47.74 2.86 1.44 4.11 2.22 1.3.81 1.82 1.64 1.57 2.48-.42 1.36-2.85 2.69-4.82 2.62-.1 0-.2.02-.3.06a.69.69 0 00-.38.44c-.03.1-.03.2-.02.3.11.62-.23 1.13-1.01 1.5-3.21 1.54-11.36-.12-17.7-7.18-4.87-5.41-6.69-13.57-4.65-20.78 1.87-6.64 6.61-11.4 13.36-13.4 1-.3 2.02-.53 3.06-.7.27-.04.55-.09.83-.13.54-.07 1.09-.14 1.63-.2.06 0 .11-.01.15-.01 1.69-.17 3.51-.27 5.4-.28.54-.01 1.09-.01 1.63 0h.04c3.05.04 6.43.28 10.02.69.49.05.98.11 1.47.18h.03c.03 0 .05.01.07.01.11.01.21.02.32.04 9.87 1.27 21.12 3.8 33.44 7.51 4.44 1.34 8.99 2.82 13.53 4.41.01.01.02.01.02.01.32.11.63.22.95.33.4.15.8.29 1.2.43l.1.04c8.74 3.13 17.61 6.71 26.36 10.63.29.13.57.25.86.38l.74.34c.02.01.03.01.05.02a372.48 372.48 0 0123.51 11.67.7.7 0 00.75-.06c.1-.09.18-.2.22-.33a.58.58 0 00.01-.39c-.09-.32-.23-.83-.41-1.5-1.45-5.21-5.26-18.89-6.77-26.24 5.76-4.47 16.54-7.22 28.3-7.22h.21c10.46.02 26.76 2.14 45 12.07l.15.08z" fill="#232323"/><mask id="p" maskUnits="userSpaceOnUse" x="128.469" y="227.678" width="209.155" height="94.826"><path d="M134.11 264.31c8.87 9.87 20.58 9.2 19.9 5.12 3.31.1 8.41-3.38 3.63-6.36-5.45-3.41-13.87-5.46-14.09-12.73-.13-4.09 7.95-8.17 11.37-.22 5.72 13.34 93.34 79.17 142.51 71.81 32.4-4.85 39.21-38.46 40.08-60.8.07-1.67.1-3.29.11-4.82v-1.48c-.05-8.23-.79-13.8-.79-13.8-.15-.08-.31-.17-.46-.25-32.28-17.57-63.72-13.33-74.56-4.54 0 .01-.01.01-.02.02l.09.41c2.03 9.67 7.11 27.5 7.18 27.78-46.72-25.3-98.77-40.09-122.79-36.14-19.32 3.18-22.17 24.87-12.16 36z" fill="#000"/></mask><g mask="url(#p)"><path d="M276.46 282.49c.11 0 .23-.03.33-.09s.19-.14.25-.24c.06-.1.1-.21.1-.33 0-.12-.02-.24-.08-.34-.05-.1-5.23-10.04-7.91-18.96a.676.676 0 00-.33-.41.717.717 0 00-.52-.05c-.08.03-.16.07-.23.13-.07.05-.13.12-.17.2-.05.08-.07.17-.08.26-.01.08 0 .17.03.26 2.71 9.04 7.95 19.1 8 19.2.06.11.15.2.25.27.11.06.23.1.36.1zM154.12 270.9c.15 0 .29-.05.41-.13.11-.09.2-.21.24-.35.13-.41.97-4.12-7.62-8.53-3.33-1.71-5.43-3.97-6.07-6.54-.56-2.28.11-4.34.86-5.41.11-.15.15-.33.11-.51a.658.658 0 00-.28-.43.643.643 0 00-.5-.12c-.18.03-.34.13-.44.28-.92 1.3-1.75 3.79-1.07 6.52.93 3.74 4.19 6.1 6.77 7.42 7.61 3.91 6.95 6.89 6.94 6.92-.03.1-.04.21-.02.32.02.1.06.2.12.29.07.08.15.15.24.2.1.05.2.07.31.07z" fill="#232323"/></g><path d="M234.77 108.06c-.88-5.23-6.3-7.96-9.78-5.95-.14.08-.27.19-.37.32-.1.14-.18.29-.22.45-.05.16-.06.33-.04.5.03.16.08.32.16.47.21.35.59.54.57.53 4.59 2.81 3.47 2.05 7.28 5.84.09.08.17.19.25.23l.58.31c.26.14.56.17.84.09.28-.08.52-.27.66-.53.26-.49.16-1.71.07-2.26zm-5.25 4.7c-1.4-.49-4.77-1.59-7.77-3.64-.1-.06-.21-.11-.33-.14-.11-.02-.24-.02-.36 0s-.23.07-.33.14c-.1.06-.19.15-.25.25-.74 1.09-1.61 3.05.61 4.18 2.72 1.39 7.45 1.09 8.61-.02.25-.24.15-.66-.18-.77zm-11.42 16.4c.41.36.91.61 1.42.78.52.16 1.05.24 1.59.23 1.06 0 2.12-.26 3.07-.84.46-.3.87-.65 1.23-1.06.35-.41.65-.87.86-1.37.44-.98.55-2.13.25-3.15-.04-.1-.1-.19-.19-.25-.1-.05-.2-.07-.31-.06-.11.02-.2.08-.27.17-.06.08-.09.19-.09.29v.02c.06.86-.13 1.7-.52 2.44-.4.74-.98 1.37-1.69 1.82-.68.43-1.53.68-2.38.75-.85.06-1.72-.07-2.45-.47l-.02-.01a.394.394 0 00-.3-.04.39.39 0 00-.26.17.47.47 0 00-.08.3c.01.11.06.21.14.28zm38.58-5.69c.15 0 .29-.05.41-.14.12-.1.21-.23.25-.37 2.1-8.2 8.81-8.13 9.09-8.12.09 0 .18-.02.27-.05.08-.03.16-.08.22-.14.07-.06.12-.13.15-.22.04-.08.06-.17.06-.26a.655.655 0 00-.18-.48.74.74 0 00-.48-.22c-.08 0-8.07-.13-10.46 9.15-.02.1-.02.2 0 .31a.654.654 0 00.37.47c.09.05.19.07.3.07z" fill="#232323"/><path d="M359.8 257.61c-4.78-18.4-14.1-44.98-33.32-71.9-21.38-29.95-58.7-39.36-67.19 8.98-2.27 12.95.23 28.62 2.5 41.57 19.56-7.5 90.05 4.32 98.01 21.35z" fill="#FFF"/><path d="M359.8 258.29c.1 0 .21-.02.3-.07.09-.04.17-.11.24-.19.06-.08.1-.18.13-.28a.81.81 0 00-.01-.31c-6.85-26.38-18.09-50.65-33.42-72.12-6.16-8.63-13.56-15.54-21.4-19.97-8.13-4.6-16.15-6.19-23.21-4.59-5.78 1.31-10.72 4.68-14.69 10.03-4.3 5.78-7.37 13.78-9.12 23.78-2.24 12.72.01 27.63 2.5 41.81.02.1.06.19.11.27.06.08.14.15.22.2.09.05.19.08.29.09.1.01.2-.01.29-.04 9.06-3.47 30.84-2.85 52.98 1.5 23.82 4.69 40.74 12.16 44.17 19.5.05.12.14.22.25.29.11.07.24.1.37.1zm-71.85-96.77c5.36 0 11.15 1.7 17.02 5.01 7.67 4.34 14.92 11.11 20.96 19.58 14.51 20.33 25.34 43.18 32.21 67.97-6.22-6.64-21.67-12.84-42.87-17.01-22.11-4.36-43.16-5.02-52.95-1.73-2.41-13.82-4.51-28.27-2.36-40.54 4.17-23.71 14.68-30.88 22.77-32.71 1.69-.38 3.43-.57 5.22-.57z" fill="#232323"/></g><path d="M244.608 238.929h-48.676v19.47h48.676z"/><g clip-path="url(#q)"><path d="M218.72 257.59c12.01 2.12 22.73-.08 25.88-4.94-.46-.21-.91-.41-1.37-.62-10.32-4.62-21.06-8.84-28.99-11.58-9.7-1.45-17.38-3.06-18.22 1.34-1.19 6.3 9.05 13.38 22.7 15.8z" fill="#232323"/></g><path d="M167.405 228.062h-20.376v8.603h20.376z"/><g clip-path="url(#r)"><path d="M147.4 234.35c2.62 3.6 11.78 3.06 17.23-2.12.97-.92 2.01-2.23 2.77-3.32-5.24-.66-13.25-1.22-18.44-.55-1.36 1.74-2.57 4.6-1.56 5.99z" fill="#232323"/></g><path d="M248.684 123.691H120.542v130.633h128.142z"/><g clip-path="url(#s)"><path d="M233.39 207.63s7.61-3.17 10.56-11.93c1.04-3.07 3.41-4.06 3.93.56.92 8.19-3.71 17.11-9.73 22.24l-4.76-10.87z" fill="#FFF"/><path d="M238.15 219.18c.16 0 .32-.06.44-.16 3.13-2.67 5.84-6.29 7.65-10.21 1.96-4.26 2.77-8.63 2.32-12.62-.34-2.96-1.39-3.68-2.21-3.77-1.2-.13-2.36 1.05-3.04 3.06-2.82 8.37-10.11 11.49-10.18 11.52-.08.03-.16.08-.22.15-.06.06-.11.14-.15.22-.03.09-.05.18-.05.27 0 .09.02.17.06.26l4.76 10.87c.05.12.14.22.25.3.11.07.24.11.37.11zm8.02-25.41h.03c.25.03.78.6 1.01 2.57.79 7.01-2.81 15.53-8.81 21.03l-4.12-9.41c1.94-.98 7.77-4.48 10.32-12.04.5-1.49 1.22-2.15 1.57-2.15zm-70.09-49.71c-4.3.61-6.25 2.84-8.83 1.59-3.83-1.86.23-12.18 9.38-18.23 7.8-5.16 17.44-5.62 23.34 2.74 6.5 9.23 1.34 15.24-5.43 15.42-4.7.13-11.47-2.52-18.46-1.52zm-34.5 36.03s-7.23-5.07-13.58-1.9c-5.53 2.77-9.73 10.13-6.12 12.23 2.72 1.59 5.67-2.03 9.52-.9 2.9.85 5.67 6.34 11.79 11.55 4.64 3.96 7.48 4.98 13.14 5.44 5.67.45-14.75-26.42-14.75-26.42z" fill="#232323"/><path d="M151.23 217.95c.23 7.24-4.3 12.68-3.62 15.4.62 2.5 6.47 3.33 11.78-1.36 6.3-5.57 10.88-17.22 10.88-17.22 8.16 7.93 23.8 12.92 23.8 12.92-.67 7.15 12.01 10.85 12.35 10.98-.25-.06-8.84-2.04-8.72 4.19.09 5.23 14.95 12.91 30.1 10.23 12.89-2.29 22.52-25.27 6.47-45.49-2.83-3.55-6.44-7.01-10.96-10.27-5.12-3.67-9.7-7.53-13.79-11.49-12.02-11.63-19.76-24.08-24.29-35.17-4.53-11.1-11.79-18.35-19.72-18.12-7.48.21-13.37 8.15-15.64 13.15-1.36-8.37-4.56-13.72-7.93-12.92-3.37.79-5.1 11.66-4.08 27.4 1.52 23.43 12.7 36.23 13.37 57.77z" fill="#FFF"/><path d="M221.42 254.32c2.14 0 4.33-.18 6.5-.57 5.71-1.01 10.89-5.97 13.54-12.95 4.05-10.69 1.56-23.26-6.66-33.62-2.98-3.75-6.71-7.25-11.1-10.4-4.89-3.51-9.5-7.36-13.7-11.42-13.48-13.04-20.57-26.2-24.14-34.95-4.84-11.83-12.45-18.77-20.37-18.54-7.11.2-12.66 6.98-15.31 11.73-1.13-5.4-3.04-9.31-5.36-10.86-.98-.66-2.01-.87-3.04-.63-4.67 1.1-5.39 15.84-4.6 28.12.76 11.72 3.92 20.8 6.98 29.58 3.11 8.96 6.06 17.42 6.39 28.16.13 3.99-1.25 7.43-2.36 10.2-.89 2.21-1.59 3.96-1.24 5.34.25 1.02 1.15 1.84 2.46 2.25 2.31.71 6.42.29 10.43-3.26 5.39-4.76 9.45-13.66 10.68-16.56 4.25 3.85 10.13 6.93 14.43 8.88 3.9 1.77 7.2 2.94 8.41 3.35-.04 4.56 4.8 7.73 8.72 9.54-1.22.13-2.46.47-3.42 1.24-1.12.9-1.68 2.22-1.64 3.93.02 1.55 1.1 3.25 3.11 4.9 4.36 3.58 12.5 6.54 21.29 6.54zm-55.55-121.1c7.21 0 14.19 6.59 18.73 17.71 3.62 8.86 10.8 22.2 24.45 35.4 4.25 4.11 8.91 8 13.86 11.55 4.28 3.08 7.92 6.49 10.82 10.15 7.92 9.97 10.34 22.05 6.45 32.29-2.47 6.53-7.26 11.17-12.5 12.1-10.67 1.89-21.51-1.43-26.69-5.69-1.66-1.37-2.59-2.75-2.62-3.88-.02-1.28.35-2.21 1.15-2.84 1.8-1.45 5.48-.98 6.74-.68.17.04.34.02.49-.07.15-.08.26-.22.32-.39.05-.16.03-.34-.04-.49a.633.633 0 00-.36-.34c-.02-.01-.09-.03-.19-.06-2.89-.94-12.28-4.44-11.73-10.23a.743.743 0 00-.11-.44.736.736 0 00-.36-.27c-.16-.05-15.59-5.03-23.53-12.75a.657.657 0 00-.29-.17.736.736 0 00-.33-.01.61.61 0 00-.3.15c-.08.07-.15.16-.19.27-.05.11-4.59 11.56-10.7 16.95-3.36 2.97-7 3.64-9.13 2.98-.84-.26-1.41-.73-1.54-1.28-.24-.95.42-2.6 1.18-4.51 1.16-2.88 2.6-6.47 2.46-10.75-.34-10.94-3.32-19.5-6.47-28.55-3.02-8.7-6.15-17.69-6.9-29.23-.49-7.62-.36-14.24.39-19.16.67-4.41 1.85-7.23 3.17-7.54.65-.16 1.3-.02 1.97.43 2.24 1.5 4.16 5.96 5.13 11.94.03.14.1.28.2.38.1.1.24.17.38.18.15.02.3 0 .42-.07.13-.08.23-.19.29-.32 1.96-4.32 7.63-12.54 15.04-12.75.11 0 .23-.01.34-.01z" fill="#232323"/><path d="M147.24 160.59c2.29 0 4.38-1.3 5.22-3.26.08-.19.08-.41 0-.61a.821.821 0 00-.43-.43.78.78 0 00-.6 0c-.19.07-.35.22-.43.41-.6 1.4-2.12 2.32-3.8 2.31-1.46-.02-3.37-1.02-3.89-2.5a.773.773 0 00-.4-.45.806.806 0 00-.61-.03.84.84 0 00-.45.4c-.09.19-.1.41-.03.6.77 2.21 3.33 3.54 5.36 3.56h.06zm-6.78-28.72c.21 2.18 1.19 3.96 2.65 3.96s2.41-1.78 2.64-3.96c.21-1.93-.61-3.96-2.64-3.96-2.04 0-2.85 1.83-2.65 3.96zm36.95 13.7c-5.21-2.04-6.8-5.66-10.43-4.98-5.38 1.01-3.85 15.21 5.44 25.82 7.94 9.06 19.75 14.3 29.92 4.53 11.33-10.87 4.99-19.93-1.13-21.74-5.22-1.55-19.45-1.92-23.8-3.63z" fill="#232323"/><path d="M152.71 146.14c0 1.69.97 3.06 2.18 3.06 1.21 0 2.19-1.37 2.19-3.06s-.98-3.06-2.19-3.06-2.18 1.37-2.18 3.06z" fill="#232323" fill-rule="evenodd"/><path d="M212.29 207c6.6 7.26 15.42 10.01 19.69 6.13 1.47-1.32 2.21-3.26 2.29-5.53-2.82-3.55-6.44-7.01-10.96-10.27-5.12-3.67-9.7-7.53-13.79-11.49-.51.26-.99.59-1.43.98-4.27 3.88-2.39 12.91 4.2 20.18z" fill="#232323"/><mask id="t" maskUnits="userSpaceOnUse" x="137.697" y="132.549" width="110.306" height="121.095"><path d="M137.86 160.18c-.68-15.85.71-26.61 4.08-27.4 3.37-.8 6.57 4.55 7.93 12.92 2.27-5 8.16-12.94 15.64-13.15 7.93-.23 15.19 7.02 19.72 18.12 4.53 11.09 12.27 23.54 24.29 35.17 4.09 3.96 8.67 7.82 13.79 11.49 4.4 3.17 7.94 6.54 10.73 10 1.9-.99 7.48-4.41 9.91-11.62 1.04-3.07 3.41-4.06 3.93.57.83 7.39-2.86 15.37-8.01 20.63 7.45 17.4-1.14 34.23-12.07 36.18-15.15 2.68-30.01-5-30.11-10.23-.11-6.23 8.48-4.25 8.73-4.19-.34-.13-13.02-3.83-12.35-10.98 0 0-15.64-4.99-23.8-12.92 0 0-4.58 11.65-10.88 17.22-5.31 4.69-11.16 3.86-11.78 1.36-.68-2.72 3.85-8.16 3.62-15.4-.67-21.54-12.39-34.89-13.37-57.77z" fill="#000"/></mask><g mask="url(#t)"><path d="M170.05 216.13c.14 0 .27-.04.39-.12.11-.08.2-.2.25-.33 1.84-5.3 1.19-11.16 1.16-11.4a.662.662 0 00-.25-.45.686.686 0 00-.5-.14c-.17.03-.34.11-.45.25-.11.14-.16.32-.15.49.01.06.64 5.81-1.1 10.8-.03.1-.04.21-.03.32.02.11.06.21.12.3s.15.16.24.21c.1.05.21.07.32.07zm24.02 12.69c.17 0 .33-.07.46-.18.12-.12.2-.27.22-.44.35-4.16 2.43-7.34 6.18-9.44 2.86-1.6 5.66-1.95 5.68-1.95.38-.05.64-.38.6-.76a.668.668 0 00-.75-.59c-.13.01-3.06.37-6.15 2.09-4.13 2.3-6.53 5.94-6.92 10.53-.01.09.01.19.04.28a.634.634 0 00.37.4c.08.04.18.06.27.06zm21.76 15.85c.13 0 .26-.03.37-.11.11-.07.2-.18.25-.3.06-.12.07-.26.05-.39a.782.782 0 00-.18-.35c-.27-.27-6.68-6.77-17.72-6.77-.18 0-.35.07-.48.2-.13.12-.2.3-.2.48s.07.35.2.48c.13.12.3.2.48.2 10.44 0 16.68 6.29 16.74 6.36a.662.662 0 00.49.2z" fill="#232323"/></g></g></g></g></svg>