<svg width="340" height="260" fill="none" xmlns="http://www.w3.org/2000/svg"><defs><clipPath id="b"><path transform="translate(40 1)" fill="#fff" fill-opacity="0" d="M0 0h219v259H0z"/></clipPath><clipPath id="a"><path fill="#fff" fill-opacity="0" d="M0 0h340v260H0z"/></clipPath></defs><g clip-path="url(#a)"><path d="M40 1h219v259H40z"/><g clip-path="url(#b)"><path d="M128.21 171.4H75.45v-41.44h52.76v41.44z" fill="#D8C5F3"/><path d="M104.19 171.4H96.2v-41.44h7.99v41.44z" fill="#FFF"/><path d="M87.04 163.87c.11 0 .19.09.19.2v3.72c0 .11.08.19.19.19h2.3c.11 0 .2-.08.2-.19v-3.72c0-.11.08-.2.19-.2h.79c.04 0 .08-.01.12-.03.08-.06.09-.18.03-.27l-1.12-1.44-1.21-1.55s-.02-.02-.03-.04c-.08-.06-.21-.04-.28.04l-1.2 1.55-1.13 1.44c-.01.03-.03.06-.03.11 0 .11.08.19.19.19h.8zm-6.8-.84c0 1.01.78 1.85 1.77 1.91v2.7h-1.44c-.08 0-.16.07-.16.16 0 .1.06.17.16.17h3.17c.08 0 .16-.07.16-.17 0-.09-.07-.16-.16-.16h-1.39v-2.7c.98-.11 1.71-.94 1.71-1.91v-2.23c0-.09-.08-.16-.16-.16h-3.48c-.1 0-.16.08-.16.16l-.02 2.23zm3.5 0c0 .88-.7 1.59-1.57 1.59-.88 0-1.57-.71-1.57-1.59v-2.07h3.14v2.07z" fill="#232323"/><path d="M75.45 129.95h52.76v.33H75.45v-.33z" fill="#FFF"/><path d="M128.28 241.99H57.43s-.49-30.13-.47-31.91c.05-4.36.47-39.72.47-39.72h70.85s.68 35.67.76 40.36c.02 1.86-.76 31.27-.76 31.27z" fill="#D8C5F3"/><path d="M129.04 214.37l-72.05.02s-.05-5.28-.05-5.75c0-.55.05-5.07.05-5.07H129l.04 10.8z" fill="#FFF"/><path d="M63.59 176.68c.61 0 1.1.49 1.1 1.1 0 .61-.49 1.09-1.1 1.09-.62 0-1.1-.48-1.1-1.09 0-.61.48-1.1 1.1-1.1zm6.47 0c.62 0 1.1.49 1.1 1.1 0 .61-.48 1.09-1.1 1.09-.61 0-1.1-.48-1.1-1.09 0-.61.49-1.1 1.1-1.1zm6.49.18c.61 0 1.1.48 1.1 1.09 0 .61-.49 1.09-1.1 1.09-.61 0-1.1-.48-1.1-1.09 0-.61.49-1.09 1.1-1.09zm25.23 4.79c.15 0 .28.13.28.27v5.46c0 .15.12.28.27.28h3.4c.16 0 .29-.12.29-.28v-5.46c0-.14.13-.27.29-.27h1.18c.07 0 .13-.01.18-.06.11-.08.14-.28.05-.39l-1.67-2.12-1.78-2.28-.05-.05c-.11-.09-.29-.06-.38.05l-1.78 2.28-1.65 2.12c-.05.05-.07.11-.07.18 0 .14.13.27.28.27h1.16zm26.23-12.24v1.15H57.37v-1.15h70.64zm2.82 75.15v-17.98c0-.63-.51-1.1-1.14-1.1h-2.72c-.63 0-1.15.46-1.15 1.1l.02 15.65c-27.35-.06-60.76-.17-82.53-.17-1.39 0-2.51 1.11-2.51 2.5s1.12 2.51 2.51 2.51h85.08c1.38-.02 2.48-.86 2.48-1.91v-.45c-.05-.04-.04-.1-.04-.15z" fill="#232323"/><path d="M129.16 230.51c.65-6.33 2.1-28.68 21.5-51.67" stroke="#6CE0DC" stroke-width=".237" stroke-linecap="round"/><path d="M148.69 7.23h82.97c11.76.01 21.48 10.89 21.5 22.7l.27 202.57c.02 11.81-9.33 21.27-21.08 21.25h-83.33c-11.76-.02-22.31-9.51-22.33-21.31l-1.21-202.61c-.02-11.83 11.45-22.62 23.21-22.6z" fill="#FFF"/><path d="M258.63 29.94c-.03-15.74-12.75-28.49-28.42-28.53l-81.75-.09c-15.68-.02-28.36 12.71-28.34 28.44l.27 200.97c.04 15.72 12.75 28.49 28.42 28.52l81.77.1c2.73 0 5.45-.39 8.07-1.15 12.04-3.59 20.29-14.68 20.27-27.29l-.29-200.97zm-28.07 222.3l-81.75-.1c-11.76-.02-21.3-9.59-21.32-21.39l-.27-200.98c-.02-11.8 9.51-21.35 21.25-21.34l81.75.1c11.76.02 21.31 9.6 21.32 21.41l.28 200.97c.02 11.79-9.5 21.34-21.26 21.33z" fill="#00666B"/><path d="M211.71 17.94l-44.02.02a6.89 6.89 0 01-6.89-6.95l.05-5.95 57.77.47-.04 5.56c0 3.78-3.09 6.85-6.87 6.85z" fill="#00666B"/><path d="M211.73 215.17l-.25-5.59a.454.454 0 00-.44-.42l-39.99.1c-.24 0-.43-.2-.43-.44v-16.51c0-.24-.2-.44-.44-.44l-31.24-.16v6.65l24.53.06c.24 0 .43.2.43.44l-.03 16.6c0 .25.2.44.44.44l46.99-.26c.24 0 .43-.19.43-.43v-.04z" fill="#FFF"/><path d="M230.78 116.78c-.05 5.01-4.08 11.29-9.09 11.25-5.02-.03-9.13-6.37-9.09-11.4.03-5.01 4.14-9.05 9.15-9.02 5.02.05 9.06 4.16 9.03 9.17z" fill="#B0DCF7"/><path d="M237.55 68.53v152.54c0 2.02-1.62 3.64-3.64 3.64h-90.53c-2.02 0-3.64-1.62-3.64-3.64V68.53c0-2.02 1.62-3.64 3.64-3.64h90.58c1.97 0 3.59 1.62 3.59 3.64z" fill="#D8C5F3" fill-rule="evenodd"/><path d="M189.37 89.87c.04-.02.08-.02.11-.02h48.09v-6.37h-49.82c-.24 0-.45-.16-.5-.4l-3.84-18.19-.43-2.02-9.92.34.41 1.7 9.98 42.55a.53.53 0 01-.39.62c-.03.01-.07.01-.12.01h-21.36c-.3 0-.52-.22-.52-.52V63.09h-6.39v16.74c0 .29-.23.52-.52.52h-15.49v6.38h15.49c.29 0 .52.23.52.52v74.84c0 .3-.23.52-.52.52h-14.64v6.63h.28l57.91.03c.22 0 .43.17.5.39l9.88 38.74c.07.26-.13.52-.4.52l-36.38.08c-.24 0-.44-.19-.44-.44v-16.49c0-.24-.19-.44-.44-.44l-30.63-.16h-.58v6.65h.58l23.94.06c.24 0 .43.2.43.44l-.03 16.62c0 .24.2.44.44.44l44.97-.26c.19 0 .37.13.4.31l2.3 8.97.06.27h10.11l-.06-.27-18.78-74.04c-.08-.34.19-.68.53-.64l33.47 1.31v-6.55l-35.33-1.59c-.22-.01-.4-.17-.47-.4L188.98 90.5c-.07-.29.11-.57.39-.63zm6.82 72.1a.53.53 0 01-.39.63c-.04 0-.08.01-.11.01h-34.11c-.3 0-.52-.22-.52-.52V115c0-.3.22-.52.52-.52h23.1c.24 0 .45.16.5.4l11.01 47.09z" fill="#FFF"/><path d="M222.24 147.67l-24.26-1.26L214.05 212h-46.3v-17.08h-27.6" stroke="#00666B" stroke-width="2" stroke-linejoin="round" stroke-dasharray="20 20"/><path d="M221.69 141.41c3.31 0 6.01 2.7 6.01 6.01 0 3.32-2.7 6.02-6.01 6.02a6.02 6.02 0 01-6.02-6.02c0-3.33 2.7-6.01 6.02-6.01z" fill="#232323"/><path d="M221.67 106.17c-7.08.05-12.79 6.67-12.89 14.85-.1 12.63 11.37 23.09 12.89 24.41 1.52-1.32 12.94-11.83 12.89-24.41-.05-8.18-5.81-14.8-12.89-14.85zm0 20.56c-3.89-.05-6.97-3.23-6.92-7.07.05-3.84 3.13-6.92 6.92-6.97 3.84.05 6.93 3.13 6.93 6.97.05 3.84-3.04 6.97-6.93 7.07z" fill="#00666B"/><path d="M148.5 33.67h-13.65c-.57 0-1-.46-1-1.01s.45-1 1-1h13.65c.57 0 1 .45 1 1s-.45 1.01-1 1.01zm0 6.04h-13.65c-.57 0-1-.45-1-1s.45-1 1-1h13.65c.57 0 1 .45 1 1s-.45 1-1 1zm0 6.05h-13.65c-.57 0-1-.45-1-1s.45-1 1-1h13.65c.57 0 1 .45 1 1s-.45 1-1 1zm96.41-7.05c0 2.49-1.18 4.71-3 6.13a7.713 7.713 0 01-4.78 1.63c-1.79 0-3.46-.61-4.77-1.63a7.718 7.718 0 01-3.01-6.13c0-4.28 3.48-7.76 7.77-7.76 4.28 0 7.79 3.48 7.79 7.76z" fill="#232323"/><path d="M240.54 41.82c.04.11.01.22-.07.32-.11.12-.24.23-.37.31-.84.65-1.85 1-2.91 1-1.07 0-2.07-.35-2.92-1-.12-.11-.25-.21-.37-.32-.08-.09-.11-.21-.08-.31.21-.6.57-1.15.96-1.59.05-.04.13-.04.19-.01.65.43 1.39.66 2.17.66.82 0 1.6-.26 2.21-.71.07-.05.15-.05.2.03.4.44.76 1.02.99 1.62zm-.8-5.08a2.591 2.591 0 01-2.84 2.83 2.57 2.57 0 01-2.32-2.31 2.605 2.605 0 012.85-2.85c1.21.13 2.18 1.12 2.31 2.33z" fill="#FFF"/></g></g></svg>