<svg width="340" height="274" fill="none" xmlns="http://www.w3.org/2000/svg"><defs><clipPath id="c"><path transform="translate(150.02 2.313)" fill="#fff" fill-opacity="0" d="M0 0h84.879v116.564H0z"/></clipPath><clipPath id="f"><path transform="translate(39.638 78.82)" fill="#fff" fill-opacity="0" d="M0 0h266.101v194.617H0z"/></clipPath><clipPath id="b"><path transform="translate(18 -21)" fill="#fff" fill-opacity="0" d="M0 0h322v322H0z"/></clipPath><clipPath id="a"><path fill="#fff" fill-opacity="0" d="M0 0h340v274H0z"/></clipPath></defs><g clip-path="url(#a)"><path d="M18-21h322v322H18z"/><g clip-path="url(#b)"><path d="M150.02 2.313h84.879v116.564h-84.88z"/><g clip-path="url(#c)"><path d="M197.04 69.63a.47.47 0 01-.16-.04l-45.49-20.57a.47.47 0 01-.12-.09c-.03-.04-.06-.08-.08-.13-.02-.05-.02-.1-.02-.15a.38.38 0 01.12-.27c.04-.03.08-.06.13-.08.05-.01.1-.02.15-.02.05 0 .1.01.14.03l45.19 20.44 26.97-42.49c.03-.05.07-.08.11-.11a.37.37 0 01.14-.07c.05-.01.1-.01.15 0 .05.01.1.03.14.05.04.03.08.07.11.11a.379.379 0 01.06.29c-.01.05-.02.1-.05.14l-27.16 42.78c-.03.05-.08.1-.14.13-.06.03-.12.05-.19.05z" fill="#232323"/><path d="M197.04 69.63c-.1 0-.19-.04-.26-.11l-28.27-26.5a.538.538 0 01-.09-.12.401.401 0 01-.03-.15c0-.05 0-.1.02-.15.02-.05.05-.09.08-.13a.38.38 0 01.27-.12c.06 0 .11.01.15.02.05.02.1.05.13.09l27.79 26.05 9.36-37.41c.01-.04.03-.09.07-.13.03-.04.06-.08.11-.1.04-.03.09-.05.14-.05.05-.01.1-.01.15 0 .05.02.1.04.14.07.04.03.07.07.1.11.02.04.04.09.05.14.01.05 0 .1-.01.15l-9.52 38.04c-.02.09-.07.16-.14.21-.07.06-.15.09-.24.09z" fill="#232323"/><path d="M197.04 69.63c-.16 0-.32-.11-.37-.28l-9.57-32.84c-.02-.05-.02-.1-.02-.15.01-.05.02-.1.05-.14.02-.05.06-.09.1-.12.04-.03.08-.05.13-.07.05-.01.1-.02.15-.01.05.01.1.02.14.05.05.02.09.05.12.09.03.04.06.09.07.14l9.58 32.83c.01.06.01.12 0 .18s-.03.11-.07.16c-.03.05-.08.09-.13.11-.06.03-.12.05-.18.05z" fill="#232323"/><path d="M224.39 26.57c-.04.01-.08.01-.12 0a.226.226 0 01-.11-.08 9.656 9.656 0 00-10.45-3.33 9.669 9.669 0 00-6.78 8.2.828.828 0 01-1.47.45 9.626 9.626 0 00-10.2-3.01 9.645 9.645 0 00-6.78 8.2c-.03.33-.26.61-.58.71-.32.1-.67-.01-.89-.26a9.649 9.649 0 00-10.2-3.02 9.62 9.62 0 00-6.77 8.2c-.04.34-.27.62-.59.72a.839.839 0 01-.88-.27 9.665 9.665 0 00-10.21-3.02c-3.94 1.21-6.55 4.72-6.8 8.61-.01.04-.02.08-.05.12-.03.03-.06.06-.11.07-.03.01-.06.01-.09.01a.689.689 0 01-.08-.03c-.03-.02-.05-.04-.07-.06a.161.161 0 01-.03-.09c-3.78-19.17 7.5-38.47 26.59-44.3 19.1-5.83 39.23 3.87 46.81 21.89.01.02.02.05.02.08s-.01.06-.02.09-.03.05-.06.07c-.02.02-.05.04-.08.05z" fill="#FFF"/><path d="M151.34 49.25c-.14 0-.27-.04-.38-.13a.64.64 0 01-.21-.35c-1.86-9.41-.16-19.15 4.77-27.43a38.794 38.794 0 0122.09-17.32 38.847 38.847 0 0128 2.02c8.71 4.11 15.56 11.24 19.28 20.09.03.07.05.16.04.24 0 .09-.02.17-.05.25-.04.07-.09.14-.15.2a.94.94 0 01-.22.12c-.12.03-.24.03-.36-.01a.546.546 0 01-.29-.2c-2.34-3.03-6.38-4.32-10.04-3.2a9.274 9.274 0 00-4.44 2.96 9.282 9.282 0 00-2.06 4.91c-.05.5-.39.91-.86 1.05s-.98-.01-1.29-.39a9.231 9.231 0 00-4.46-2.92c-1.75-.52-3.6-.51-5.34.03a9.157 9.157 0 00-4.43 2.95 9.216 9.216 0 00-2.07 4.92c-.05.49-.39.9-.86 1.04-.47.15-.97-.01-1.29-.38a9.25 9.25 0 00-4.46-2.93 9.3 9.3 0 00-5.33.03 9.274 9.274 0 00-4.44 2.96 9.217 9.217 0 00-2.07 4.91c-.05.49-.39.9-.86 1.05-.46.14-.97-.01-1.29-.39a9.231 9.231 0 00-4.46-2.92c-1.74-.52-3.6-.51-5.33.02-3.67 1.12-6.29 4.44-6.54 8.26-.01.12-.05.24-.13.34a.66.66 0 01-.29.2c-.06.02-.12.02-.18.02zm37.67-46.16c-3.75 0-7.52.55-11.17 1.67a38.096 38.096 0 00-21.66 16.97 38.105 38.105 0 00-4.87 25.79c.66-3.66 3.34-6.73 6.94-7.83 1.88-.57 3.89-.58 5.78-.02 1.89.55 3.57 1.65 4.83 3.16.12.14.31.2.48.15.17-.06.29-.21.31-.39.21-1.96.99-3.81 2.24-5.33 1.25-1.51 2.93-2.63 4.81-3.2 1.88-.58 3.89-.59 5.78-.03 1.88.56 3.57 1.66 4.83 3.17.12.14.31.2.48.14.17-.05.29-.2.31-.38.21-1.96.99-3.81 2.24-5.33a9.974 9.974 0 014.81-3.2c1.88-.58 3.89-.59 5.78-.03 1.88.56 3.56 1.66 4.83 3.16.12.14.3.2.47.15.18-.05.3-.21.32-.39a9.97 9.97 0 012.24-5.32 9.946 9.946 0 014.81-3.21c3.6-1.1 7.54-.05 10.13 2.61a38.133 38.133 0 00-18.45-18.66 38.056 38.056 0 00-16.27-3.65z" fill="#232323"/><mask id="d" maskUnits="userSpaceOnUse" x="150.406" y="2.7" width="74.146" height="46.173"><path d="M224.39 26.57c-.04.01-.08.01-.12 0a.226.226 0 01-.11-.08 9.656 9.656 0 00-10.45-3.33 9.669 9.669 0 00-6.78 8.2.828.828 0 01-1.47.45 9.626 9.626 0 00-10.2-3.01 9.645 9.645 0 00-6.78 8.2c-.03.33-.26.61-.58.71-.32.1-.67-.01-.89-.26a9.649 9.649 0 00-10.2-3.02 9.62 9.62 0 00-6.77 8.2c-.04.34-.27.62-.59.72a.839.839 0 01-.88-.27 9.665 9.665 0 00-10.21-3.02c-3.94 1.21-6.55 4.72-6.8 8.61-.01.04-.02.08-.05.12-.03.03-.06.06-.11.07-.03.01-.06.01-.09.01a.689.689 0 01-.08-.03c-.03-.02-.05-.04-.07-.06a.161.161 0 01-.03-.09c-3.78-19.17 7.5-38.47 26.59-44.3 19.1-5.83 39.23 3.87 46.81 21.89.01.02.02.05.02.08s-.01.06-.02.09-.03.05-.06.07c-.02.02-.05.04-.08.05z" fill="#000"/></mask><g mask="url(#d)"><path d="M170.34 47.17a.39.39 0 01-.23-.07.407.407 0 01-.14-.2c-2.03-6.41-2.91-12.64-2.6-18.53.25-4.72 1.25-9.23 2.98-13.4 2.96-7.11 6.95-10.72 7.11-10.87.08-.07.18-.1.28-.1.1.01.2.06.27.13.06.08.1.18.09.28 0 .1-.05.2-.12.27-.01 0-1.02.91-2.37 2.67-1.25 1.62-3.05 4.32-4.56 7.96-1.69 4.08-2.67 8.5-2.91 13.13-.29 5.78.57 11.92 2.57 18.23.02.06.02.12.01.18s-.03.11-.07.16c-.03.05-.08.09-.14.12-.05.03-.11.04-.17.04z" fill="#232323"/></g><mask id="e" maskUnits="userSpaceOnUse" x="150.406" y="2.7" width="74.146" height="46.173"><path d="M224.39 26.57c-.04.01-.08.01-.12 0a.226.226 0 01-.11-.08 9.656 9.656 0 00-10.45-3.33 9.669 9.669 0 00-6.78 8.2.828.828 0 01-1.47.45 9.626 9.626 0 00-10.2-3.01 9.645 9.645 0 00-6.78 8.2c-.03.33-.26.61-.58.71-.32.1-.67-.01-.89-.26a9.649 9.649 0 00-10.2-3.02 9.62 9.62 0 00-6.77 8.2c-.04.34-.27.62-.59.72a.839.839 0 01-.88-.27 9.665 9.665 0 00-10.21-3.02c-3.94 1.21-6.55 4.72-6.8 8.61-.01.04-.02.08-.05.12-.03.03-.06.06-.11.07-.03.01-.06.01-.09.01a.689.689 0 01-.08-.03c-.03-.02-.05-.04-.07-.06a.161.161 0 01-.03-.09c-3.78-19.17 7.5-38.47 26.59-44.3 19.1-5.83 39.23 3.87 46.81 21.89.01.02.02.05.02.08s-.01.06-.02.09-.03.05-.06.07c-.02.02-.05.04-.08.05z" fill="#000"/></mask><g mask="url(#e)"><path d="M188.19 39.15c-.09 0-.17-.03-.23-.08a.352.352 0 01-.14-.2l-10.4-34.33c-.02-.07-.03-.13-.01-.19a.37.37 0 01.08-.18c.04-.05.1-.08.16-.11a.4.4 0 01.19-.02c.05.01 1.41.2 3.56.92 1.99.66 5.06 1.91 8.41 4.13 3.76 2.49 7.11 5.67 9.96 9.44 3.54 4.71 6.3 10.37 8.2 16.83.01.04.02.09.01.15-.01.05-.02.09-.04.14-.03.04-.06.08-.1.12-.04.03-.09.05-.13.07-.05.01-.11.01-.15.01a.47.47 0 01-.27-.14c-.03-.04-.05-.09-.07-.14-1.86-6.35-4.57-11.92-8.06-16.55-2.78-3.7-6.06-6.82-9.74-9.26-5.05-3.35-9.5-4.51-11.08-4.84l10.22 33.73c.01.06.02.12.01.18s-.04.11-.07.16c-.04.05-.09.09-.14.12-.05.02-.11.04-.17.04z" fill="#232323"/></g><path d="M172.42 76.77l49.62-15.16 12.86 42.11-49.62 15.15-12.86-42.1z" fill="#D9C6F4"/><path d="M192.5 107.01c.04-.01.08-.04.11-.07.03-.04.05-.08.06-.12.01-.05 0-.1-.02-.14a.159.159 0 00-.08-.1l-1.91-1.35-2.06-1.45a.211.211 0 00-.1-.04.205.205 0 00-.11 0c-.04.01-.07.03-.1.06a.18.18 0 00-.06.09l-.9 2.36-.83 2.18c-.02.04-.02.09-.01.13.01.05.03.09.06.12.03.04.07.06.12.07.04.02.09.02.13 0l.97-.29c.06-.02.13-.02.19.01s.1.09.12.15l1.39 4.56c.02.06.06.11.12.14.06.03.12.04.18.02l2.83-.86c.06-.02.11-.06.14-.12.03-.06.04-.13.02-.19l-1.39-4.56a.225.225 0 01.02-.18c.03-.06.08-.1.14-.12l.97-.3zm8-3.78l-.86-2.81a.237.237 0 00-.11-.13c-.05-.03-.11-.03-.17-.02l-4.37 1.34c-.06.01-.1.05-.13.11-.03.05-.03.11-.02.16l.86 2.82a2.524 2.524 0 002.88 1.74l1.04 3.4-1.74.53c-.06.02-.1.06-.13.11a.2.2 0 00-.01.17c.01.05.05.1.1.13.05.02.11.03.17.02l3.98-1.22c.06-.02.1-.06.13-.11.02-.05.03-.11.01-.17a.212.212 0 00-.1-.13c-.05-.02-.11-.03-.17-.02l-1.82.56-1.04-3.4a2.522 2.522 0 001.5-3.08zm-4.38 1.34l-.79-2.6 3.95-1.21.79 2.6a2.06 2.06 0 01-1.37 2.58c-1.09.33-2.24-.28-2.58-1.37z" fill="#232323"/></g><path d="M39.638 78.82H305.74v194.617H39.64z"/><g clip-path="url(#f)"><path d="M99.3 109.23c5.79 10.4-3.93 49.14-17.79 71.5-10.5 16.95-14.79 30.18-14.79 30.18-23.68-4.43-31.67-23.52-23.68-37.58 2.72-4.78 5.36-9.84 3.99-18.79-1.66-10.89 1.86-19.69 11.5-24.42l-.02-.01c5.44-2.91 20.48-8.49 24.39-32.4 3.23-19.6 23.58-21.09 31.26-11.93 0 0-1.64 9.91-14.06 18.33-.97 2.14-.8 5.12-.8 5.12z" fill="#232323"/><path d="M66.72 211.32c-.03 0-.05 0-.08-.01-6.15-1.15-11.48-3.32-15.85-6.44-3.98-2.85-7.09-6.51-8.98-10.59-3.18-6.86-2.86-14.57.88-21.15 3.03-5.32 5.24-10.07 3.95-18.53-.87-5.62-.35-10.58 1.53-14.74 1.95-4.32 5.34-7.7 10.07-10.05.02-.02.05-.04.08-.06.45-.24.98-.5 1.53-.78 6.2-3.11 19.1-9.59 22.66-31.33 1.44-8.76 6.55-14.96 14.01-17.01 3.28-.89 6.72-.9 9.97-.03 3.27.89 6.03 2.59 7.98 4.92.04.05.07.1.09.15.01.06.01.12 0 .18-.01.1-.44 2.58-2.42 6.13-1.8 3.25-5.3 8.02-11.72 12.4-.78 1.81-.74 4.25-.72 4.74 1.4 2.59 1.95 6.81 1.62 12.55-.31 5.36-1.4 11.9-3.15 18.92-3.67 14.71-9.77 29.8-16.31 40.35-8.28 13.37-13.28 25.54-14.76 30.1-.02.08-.08.15-.14.2-.07.05-.16.08-.24.08zm-7.91-80.91c-.03.03-.07.05-.11.07-9.09 4.47-12.98 12.77-11.27 24 1.44 9.41-1.6 14.76-4.04 19.05-3.61 6.35-3.92 13.79-.85 20.41 1.83 3.95 4.85 7.5 8.73 10.27 4.18 3 9.28 5.09 15.17 6.24 1.62-4.83 6.6-16.81 14.73-29.93 6.5-10.49 12.56-25.49 16.21-40.12 3.65-14.61 4.23-26.19 1.57-30.97a.337.337 0 01-.05-.17c-.01-.13-.17-3.11.83-5.32.03-.07.08-.12.14-.17 11.23-7.61 13.56-16.51 13.86-17.88-1.84-2.13-4.41-3.68-7.45-4.51-3.11-.84-6.41-.83-9.54.03-7.15 1.96-12.05 7.92-13.44 16.36-3.62 22.15-16.77 28.75-23.08 31.92-.51.26-.99.5-1.41.72z" fill="#232323"/><path d="M124.04 111.69c-1.27 1.51-6.6 2.52-9.24 2.73-6.5 4.02-5.76 16.3-5.61 21.33 0 0-17.39 5.77-22.35-1.77 0 0 8.29-15.84 9.69-28.64-.11.06 3.69-1.28 3.57-1.23 10.33-7.17 13.43-14.92 13.79-18.65.35.38.69.79 1.03 1.21.38.45.74.92 1.09 1.39 0 0 .01.01.01.02.47.64.91 1.29 1.36 1.95.33.46.65.93.99 1.38.44.6.97 1.33 1.57 1.78.6.44 1.34.57 2.07.66 1.54.15.95 2.3.16 3.24 1.1 2.64 4.98 10.89 1.87 14.6z" fill="#FFF"/><path d="M96.65 138.27c-4.96 0-8.37-1.37-10.15-4.07a.466.466 0 01-.06-.2c0-.08.01-.15.04-.21.09-.16 8.26-15.88 9.64-28.45 0-.09.03-.18.09-.25.06-.08.14-.12.24-.14l2.22-.77c.35-.13.68-.24.91-.32l.29-.1c.01-.01.03-.01.05-.02 5.85-4.07 12.89-11.3 13.57-18.32.01-.08.04-.15.09-.22.05-.06.11-.1.19-.13.07-.02.15-.02.23 0 .07.02.14.06.2.12.33.37.67.77 1.03 1.23.36.42.72.87 1.11 1.4 0 .01.01.02.01.02.38.52.75 1.05 1.1 1.57l.27.39c.3.44.63.91.97 1.37l.07.1c.42.56.9 1.2 1.42 1.59.49.36 1.1.49 1.87.58.58.06 1 .36 1.2.85.33.83-.05 2.06-.62 2.86.06.13.12.27.18.42 1.37 3.21 4.59 10.74 1.54 14.38-1.41 1.68-6.88 2.65-9.42 2.87-5.9 3.75-5.54 14.81-5.36 20.14.01.27.02.54.02.78.01.09-.02.17-.07.24a.37.37 0 01-.2.15c-.05.02-4.45 1.47-9.4 1.96-1.16.12-2.25.18-3.27.18zm-9.34-4.32c4.56 6.41 19.23 2.2 21.47 1.51l-.02-.47c-.18-5.51-.56-16.96 5.83-20.91.05-.03.11-.05.18-.06 2.97-.24 7.88-1.31 8.96-2.59 2.73-3.26-.35-10.47-1.66-13.55-.1-.21-.19-.42-.28-.64a.534.534 0 01-.02-.22c.01-.07.04-.14.09-.2.48-.57.87-1.66.64-2.23-.06-.14-.17-.31-.53-.34-.79-.09-1.6-.25-2.27-.74-.62-.46-1.16-1.18-1.59-1.76l-.07-.1c-.34-.46-.68-.95-.99-1.4l-.27-.38c-.35-.52-.71-1.05-1.09-1.56l-.01-.01c-.37-.51-.72-.96-1.07-1.36 0-.01-.01-.01-.01-.01-.14-.18-.28-.36-.43-.53-.55 3.08-2.31 6.09-3.09 7.31-2.5 3.9-6.11 7.51-10.74 10.72a.37.37 0 01-.14.07c-.12.04-.7.24-1.26.44-.51.18-1.02.35-1.53.53-.2.07-.38.13-.51.18-1.38 11.87-8.6 26.36-9.59 28.3z" fill="#232323"/><path d="M111.25 92.33c-1.17 1.71-.98 3.71-.09 4.17.89.45 2.49-.63 3.32-2.52.86-1.95.91-3.79.09-4.17-.86-.39-2.16.82-3.32 2.52zm9.9 11.33c-.32.21-.68.35-1.07.38-.37.05-.76 0-1.12-.12-.17-.06-.34-.15-.49-.26-.16-.1-.3-.22-.43-.36-.25-.29-.43-.64-.52-1.02v-.02a.387.387 0 00-.12-.19.36.36 0 00-.22-.07c-.08.01-.15.04-.21.09a.32.32 0 00-.1.2c-.06.56.09 1.13.42 1.59.16.23.35.43.58.61.22.16.47.3.73.4.53.19 1.11.22 1.65.08.27-.06.53-.16.77-.3.25-.15.46-.34.62-.58.04-.06.06-.14.05-.22a.298.298 0 00-.1-.2.308.308 0 00-.2-.09.334.334 0 00-.22.06l-.02.02zm-8.1-6.75c.71-.53 2.43-1.77 3.76-3.48.04-.06.1-.11.16-.14.06-.04.13-.06.21-.07.07-.01.14-.01.21.01.07.02.13.06.19.1.62.49 1.47 1.45.42 2.5-1.3 1.29-4.04 1.98-4.91 1.56a.318.318 0 01-.1-.1c-.03-.03-.04-.08-.05-.13 0-.05.01-.09.03-.14.02-.04.05-.08.08-.11z" fill="#232323"/><path d="M99.63 103.72s-4.43-2.04-7.43.79c-2.7 3.37-.05 8.08 7.17 8.32.55.01 1.09-.02 1.63-.08l-1.37-9.03z" fill="#FFF"/><path d="M99.5 113.24h-.13c-4.02-.14-7.08-1.67-8.19-4.09-.75-1.62-.49-3.4.7-4.89.01-.02.03-.03.04-.04 1.32-1.24 3.1-1.78 5.16-1.57 1.53.16 2.67.68 2.71.7.1.05.17.13.21.23.04.1.03.21-.01.31-.05.09-.13.17-.23.2a.39.39 0 01-.3 0c-.04-.02-4.2-1.88-6.96.69-.98 1.24-1.2 2.71-.59 4.03.99 2.14 3.78 3.49 7.47 3.62.53 0 1.06-.02 1.58-.08.05-.01.11 0 .16.01.05.02.1.04.14.07.04.04.07.08.1.12.02.05.04.1.05.15 0 .06 0 .11-.02.16a.37.37 0 01-.07.14c-.03.04-.07.08-.12.1-.05.03-.1.04-.15.05-.51.06-1.03.09-1.55.09z" fill="#232323"/><mask id="g" maskUnits="userSpaceOnUse" x="84.59" y="79.279" width="40.638" height="58.586"><path d="M124.04 111.69c-1.27 1.51-6.6 2.52-9.24 2.73-6.5 4.02-5.76 16.3-5.61 21.33 0 0-17.39 5.77-22.35-1.77 0 0 8.29-15.84 9.69-28.64-.11.06-.22.11-.32.17-.5.25-1 .49-1.49.74-.07.02-.13.06-.19.09l-.13.06c-.08.04-.15.07-.23.11-.16.07-.32.15-.48.22a47.44 47.44 0 01-1.64.74c-.06.02-.12.04-.17.07-.06.02-.11.04-.17.07l-.15.06-.15.06-.21.09c-.04.01-.07.03-.11.04-.13.06-.26.11-.38.16-7.42-5.56-9.21-19.01.91-25.69.12-.08.23-.15.34-.22.01-.01.02-.01.03-.02 1.76-1.13 3.7-1.96 5.74-2.45 4.6-1.04 9.27.17 13 3.01 1.53 1.19 2.9 2.46 4.19 4.02.38.45.74.92 1.09 1.39 0 0 .01.01.01.02.47.64.91 1.29 1.36 1.95.32.46.65.93.99 1.38.44.6.97 1.33 1.57 1.78.6.44 1.34.57 2.07.66 1.54.15.95 2.3.16 3.24 1.1 2.64 4.98 10.89 1.87 14.6z" fill="#000"/></mask><g mask="url(#g)" fill="#232323"><path d="M114.8 114.42c-.93.52-2.32 2.3-3.8 4.85-3.73-1.3-5.43-4.41-4.81-5.32.58-.84 2.21-.28 3.18-.07 1.95.43 3.45.65 5.43.54z"/><path d="M111 119.67c-.04 0-.09 0-.13-.02-2.81-.98-4.57-2.94-5.07-4.46-.2-.61-.18-1.11.06-1.47.65-.96 2.11-.6 3.18-.33.15.03.29.07.42.1 1.88.42 3.35.64 5.32.53.09-.01.18.02.25.07.08.06.13.13.16.22.02.09.02.18-.02.27a.41.41 0 01-.17.2c-.86.47-2.22 2.23-3.65 4.69a.36.36 0 01-.15.15c-.06.03-.13.05-.2.05zm-3.72-5.76c-.34 0-.62.07-.76.27-.06.1-.09.35.04.76.41 1.23 1.91 2.91 4.27 3.83 1.01-1.72 1.99-3.08 2.81-3.92-1.5-.01-2.8-.23-4.36-.57-.14-.04-.29-.07-.44-.11-.46-.11-1.07-.26-1.56-.26z"/></g><path d="M100.12 104.11s-1.45-.78-2.81-1.11c.55-3.94 2.94-15.47-.89-21.78.06-1.37 5.09-3.34 7.44-.7 1.97 2.21.09 16.98-3.74 23.59z" fill="#FFF"/><path d="M100.12 104.51c-.07 0-.14-.01-.2-.04-.01-.01-1.42-.76-2.71-1.08a.398.398 0 01-.24-.16.416.416 0 01-.06-.29c.06-.42.14-.93.23-1.53.74-4.7 2.28-14.47-1.06-19.98a.31.31 0 01-.06-.22c.03-.88 1.19-1.6 2.26-1.98.98-.35 2.05-.48 3.01-.38 1.17.12 2.17.61 2.87 1.4 1.23 1.38 1.01 6.31.4 10.47-.8 5.47-2.33 10.55-4.09 13.59-.04.06-.09.11-.15.15-.06.04-.13.05-.2.05zm-2.36-1.81c.88.26 1.73.65 2.19.87 3.79-6.89 5.31-20.87 3.61-22.78-1.29-1.45-3.5-1.33-5.01-.8-1.03.37-1.59.87-1.7 1.16 3.39 5.77 1.84 15.63 1.09 20.39-.07.43-.13.82-.18 1.16zm3.92 6.44c-.1 0-.2-.04-.28-.11-2.85-2.63-6.16-1.13-6.3-1.06a.37.37 0 01-.31.01.364.364 0 01-.22-.2.397.397 0 01.19-.54c.04-.02 3.93-1.81 7.19 1.2a.391.391 0 01.1.44.38.38 0 01-.14.19c-.07.04-.15.07-.23.07zm-8.92 92.6c-11.88.84-33.69-1.5-37.44 5.48-3.25 6.06 18.94 10.06 45.69-1.65 0 0-5.81-4-8.25-3.83z" fill="#232323"/><path d="M68.62 213.49c-6.39 0-11.33-1.18-13.21-3.21-.9-.99-1.06-2.11-.44-3.26 2.9-5.41 15.82-5.43 27.23-5.45 3.86-.01 7.52-.02 10.53-.23 2.47-.18 7.89 3.47 8.5 3.89.06.04.11.1.14.16.04.07.05.14.04.22a.372.372 0 01-.24.33c-9.94 4.35-20.49 7.01-29.71 7.48-.97.05-1.92.07-2.84.07zm24.17-11.35c-3.04.22-6.71.23-10.59.23-11.18.03-23.85.05-26.52 5.04-.45.83-.34 1.59.33 2.32 1.96 2.12 8.01 3.25 15.41 2.88 8.91-.45 19.09-2.98 28.75-7.11-2.14-1.4-5.76-3.47-7.38-3.36z" fill="#232323"/><path d="M249.81 269.59a896.287 896.287 0 006.85-.39c.12 0 .23-.01.34-.02.8-.04 1.57-.09 2.32-.13 9.09-.53 14.43-.88 14.43-.88s9.42-3.43 6.81-22.93c0 0-8.89-.6-18.63-1.63h-.01c-2.12-.23-4.25-.47-6.37-.74l-5.74 26.72z" fill="#FFF"/><path d="M249.81 270c-.06 0-.12-.01-.17-.04a.381.381 0 01-.14-.11.346.346 0 01-.08-.16.278.278 0 010-.18l5.73-26.72c.02-.1.08-.19.16-.25.08-.05.19-.08.29-.07 2.12.27 4.24.51 6.37.74 9.62 1.02 18.52 1.62 18.61 1.63.1 0 .18.04.25.11.07.06.11.14.13.24.75 5.62.93 13.49-2.48 19.04-2.08 3.38-4.49 4.29-4.59 4.32-.04.02-.08.02-.12.03-.05 0-5.44.35-14.42.87-.75.05-1.53.09-2.33.14l-.34.02-.57.03-.4.02c-1.96.12-3.92.23-5.87.34h-.03zm6.05-26.68l-5.54 25.84c1.88-.1 3.66-.21 5.35-.3l.4-.03.57-.03.34-.02c.8-.04 1.57-.09 2.32-.13 8.45-.5 13.72-.83 14.36-.87.33-.15 2.39-1.12 4.16-4.04 1.78-2.92 3.62-8.42 2.38-18.12-1.7-.12-9.72-.7-18.31-1.61h-.01c-2.01-.21-4.01-.44-6.02-.69z" fill="#232323"/><path d="M259.32 269.05c9.09-.53 14.43-.88 14.43-.88s9.42-3.43 6.81-22.93c0 0-8.9-.6-18.63-1.63h-.01l-2.6 25.44z" fill="#D9C6F4"/><mask id="h" maskUnits="userSpaceOnUse" x="259.327" y="243.612" width="21.69" height="25.442"><path d="M259.32 269.05c9.09-.53 14.43-.88 14.43-.88s9.42-3.43 6.81-22.93c0 0-8.9-.6-18.63-1.63h-.01l-2.6 25.44z" fill="#000"/></mask><g mask="url(#h)"><path d="M263.39 273.28l3.85-35.95 1.47.16-3.85 35.95-1.47-.16z" fill="#FFF"/></g><path d="M249.81 270c-.06 0-.12-.01-.17-.04a.381.381 0 01-.14-.11.346.346 0 01-.08-.16.278.278 0 010-.18l5.73-26.72c.02-.1.08-.19.16-.25.08-.05.19-.08.29-.07 2.12.27 4.24.51 6.37.74 9.62 1.02 18.52 1.62 18.61 1.63.1 0 .18.04.25.11.07.06.11.14.13.24.75 5.62.93 13.49-2.48 19.04-2.08 3.38-4.49 4.29-4.59 4.32-.04.02-.08.02-.12.03-.05 0-5.44.35-14.42.87-.75.05-1.53.09-2.33.14l-.34.02-.57.03-.4.02c-1.96.12-3.92.23-5.87.34h-.03zm6.05-26.68l-5.54 25.84c1.88-.1 3.66-.21 5.35-.3l.4-.03.57-.03.34-.02c.8-.04 1.57-.09 2.32-.13 8.45-.5 13.72-.83 14.36-.87.33-.15 2.39-1.12 4.16-4.04 1.78-2.92 3.62-8.42 2.38-18.12-1.7-.12-9.72-.7-18.31-1.61h-.01c-2.01-.21-4.01-.44-6.02-.69z" fill="#232323"/><path d="M72.5 197.26c-11.85 23.12-16.08 38.51-3.53 56.86 12.54 18.35 37.26 16.57 45.69 13.61 31.67 2.52 53.28-10.65 67.19-8.14 13.91 2.52 35.78 12.68 68.52 10.4 0 0 3.84-16.91 5.18-27.12l-51.06-6.06s-14.01-13.21-43.13-15.49c-25.94-2.02-45.83 8.24-53.95-16.47l-34.91-7.59z" fill="#00676C"/><mask id="i" maskUnits="userSpaceOnUse" x="61.361" y="197.262" width="194.19" height="73.065"><path d="M72.5 197.26c-11.85 23.12-16.08 38.51-3.53 56.86 12.54 18.35 37.26 16.57 45.69 13.61 31.67 2.52 53.28-10.65 67.19-8.14 13.91 2.52 35.78 12.68 68.52 10.4 0 0 3.84-16.91 5.18-27.12l-51.06-6.06-8.14-6.66-88.94-25.3-34.91-7.59z" fill="#000"/></mask><g mask="url(#i)"><path d="M182.27 260.63c-.05 0-.09-.01-.13-.03-9.87-3.47-21.05-4.92-21.16-4.93a.442.442 0 01-.15-.05.4.4 0 01-.12-.1c-.03-.05-.06-.09-.07-.15-.01-.05-.02-.1-.01-.15.01-.11.07-.21.15-.27.09-.07.19-.1.3-.08.11.01 11.37 1.47 21.32 4.97.09.03.17.09.22.18.05.08.06.18.05.27-.02.09-.07.18-.14.24a.4.4 0 01-.26.1z" fill="#FFF"/></g><path d="M299.24 211.66c2.32 1.69 5.11 6.59 5.3 15.43l.79 41.61c-7.38-.14-20.51-1.48-30.85-.9.3-3.19 2.96-6.3 3.94-9.57 1.46-4.94-1.11-7.88 2.77-20.31.06-.19.1-.38.15-.58.01-.05.02-.1.04-.16.93-3.65 2.1-6.81 3.4-9.55 5.62-11.79 13.59-15.58 14.4-15.94.02-.01.03-.01.04-.02l.02-.01z" fill="#FFF"/><path d="M305.33 269.1h-.03c-1.56-.1-3.16-.23-4.86-.36-7.29-.58-15.55-1.24-26.33-.31-.06 0-.12 0-.18-.03a.307.307 0 01-.15-.1.417.417 0 01-.09-.16.36.36 0 01-.01-.18c.43-2.78 1.48-4.66 2.49-6.47.98-1.76 1.91-3.42 2.28-5.83.28-1.84.28-3.28.28-4.8 0-2.89.01-6.17 2.08-13.05.03-.12.06-.23.09-.36.01-.07.03-.14.04-.2l.02-.07c.01-.03.02-.06.02-.1.88-3.43 2.03-6.67 3.44-9.62 5.61-11.79 13.58-15.68 14.57-16.13.01 0 .01 0 .02-.01.02-.01.04-.01.06-.02l.02-.01a.34.34 0 01.2-.03c.07.01.14.04.19.08 2.52 1.83 5.27 6.93 5.47 15.74l.78 41.61c.01.05 0 .11-.02.16a.38.38 0 01-.09.13.38.38 0 01-.29.12zm-20.44-1.94c5.87 0 10.94.4 15.61.77 1.54.12 3 .24 4.42.33l-.78-41.16c-.18-8.29-2.64-13.13-4.95-14.97-1.39.66-8.75 4.57-14.04 15.68-1.38 2.9-2.52 6.09-3.38 9.47-.01.04-.02.06-.02.09l-.02.07c-.02.07-.03.13-.05.19-.03.13-.06.27-.1.41-2.03 6.77-2.04 9.85-2.04 12.83 0 1.55 0 3.01-.29 4.91-.39 2.56-1.4 4.36-2.37 6.1-.91 1.64-1.86 3.33-2.32 5.7 3.73-.31 7.15-.42 10.33-.42z" fill="#232323"/><path d="M288.84 266.03c-.1 0-.19-.04-.27-.1a.407.407 0 01-.13-.25c-.01-.02-.4-2.55-2.3-5.19-.37-.51-.7-.96-1.02-1.39-1.93-2.62-2.99-4.06-3.42-7.57-.01-.1.02-.21.09-.29a.41.41 0 01.27-.15c.1-.01.21.02.29.08.09.07.14.16.16.27.4 3.29 1.35 4.59 3.26 7.18.35.46.69.93 1.02 1.39 2.03 2.82 2.43 5.44 2.45 5.55.01.06 0 .12-.01.17-.02.06-.05.11-.09.16-.03.04-.08.08-.13.1-.06.02-.11.04-.17.04zm7.7 2.18c-.09 0-.17-.03-.25-.08-.14-.11-3.52-2.73-3.07-7.6.24-2.67 1.32-4.07 2.35-5.42.76-.99 1.47-1.92 1.89-3.33.54-1.79.3-3.06.04-4.41-.34-1.72-.68-3.5.47-6.42 1.73-4.37 2.71-8.53 2.91-12.38.32-5.86-1.14-11.02-4.33-15.33a.417.417 0 01-.08-.3c.02-.11.08-.2.16-.27.09-.06.2-.09.3-.07.11.02.2.07.27.16 3.3 4.47 4.81 9.8 4.49 15.86-.21 3.93-1.21 8.18-2.96 12.63-1.07 2.7-.75 4.36-.44 5.97.27 1.38.54 2.81-.05 4.79-.47 1.56-1.26 2.59-2.02 3.59-1.02 1.32-1.98 2.57-2.2 5-.4 4.42 2.73 6.86 2.76 6.88.07.05.12.12.14.21.03.08.03.16 0 .24a.426.426 0 01-.38.28z" fill="#232323"/><path d="M302.89 261.04c.05 2.59-1.13 4.72-2.65 4.75-1.52.04-2.79-2.03-2.85-4.62-.05-2.59 1.13-4.72 2.65-4.75 1.51-.04 2.79 2.04 2.85 4.62z" fill="#00676C" fill-rule="evenodd"/><path d="M289.42 246.15c-.13 0-.26-.02-.38-.07-.25-.1-6.02-2.54-8.6-10.03-.09-.26-.07-.53.04-.78.12-.24.33-.42.58-.51.26-.09.54-.07.78.05.24.12.42.32.51.58 2.29 6.64 7.4 8.8 7.46 8.82.21.09.39.25.5.45.11.21.15.45.1.68-.04.23-.16.43-.35.58-.18.15-.4.23-.64.23zm1.9-5.27a.92.92 0 01-.44-.1c-.26-.12-6.37-3.13-8.27-10.54-.06-.26-.02-.53.11-.76.14-.23.36-.4.62-.47.54-.13 1.09.19 1.23.73 1.67 6.51 7.13 9.2 7.18 9.22.21.1.38.27.48.47.1.21.12.45.07.67-.05.22-.17.42-.35.56-.18.15-.41.22-.63.22zm1.47-6.06c-.16 0-.32-.04-.46-.11-.22-.11-5.51-2.87-7.15-9.63-.06-.26-.02-.53.12-.76.14-.23.36-.39.62-.46a1 1 0 011.22.75c1.42 5.82 6.07 8.28 6.11 8.3.5.26.69.87.44 1.36-.09.17-.21.31-.37.4-.16.1-.34.15-.53.15z" fill="#00676C"/><path d="M221.36 216.87c-9.17 10.66-20.86 12.39-25.01 13.28-4.14.89-36.24 8.82-26.37 19.26 9.35 9.89 39.69-11.68 51.38-32.54z" fill="#232323"/><path d="M176.47 252.29c-2.87 0-5.14-.87-6.78-2.6-1.77-1.88-2.36-3.81-1.76-5.75 1.05-3.37 5.72-6.68 13.88-9.83 7.27-2.8 14.39-4.34 14.46-4.36.28-.06.6-.12.94-.19 15.39-3.12 21.32-10.01 23.85-12.95.06-.08.16-.13.25-.14.1-.01.2.01.29.07.08.06.14.15.16.24.02.1.01.2-.04.29-4.41 7.87-11.76 16.29-20.15 23.11-8.42 6.84-16.83 11.2-23.1 11.98-.69.08-1.36.13-2 .13zm42.63-32.45c-8.14 7.75-17.5 9.65-21.72 10.51-.35.07-.66.13-.94.19-.07.02-7.13 1.55-14.34 4.32-5.44 2.1-12.19 5.43-13.4 9.32-.52 1.67 0 3.28 1.58 4.95 1.81 1.92 4.54 2.67 8.1 2.23 6.11-.76 14.38-5.06 22.68-11.8 7.2-5.85 13.61-12.89 18.04-19.72z" fill="#232323"/><path d="M196.35 230.15c.84.65 3.18 2.72 5.63 4.92 1.38 1.24 2.75 2.48 4.12 3.73 3.45 3.14 8.19 7.98 8.19 7.98 8.45 1.77 12.66-3.6 16.27-6.87 2.87-2.6 5.89-3.86 5.89-3.86s-5.88-7.59-10.75-14.06c-.17-.22-.34-.45-.51-.67-1.24-1.65-2.74-3.75-3.83-5.25-9.17 10.21-19.98 12.9-25.01 14.08z" fill="#FFF"/><path d="M217.52 247.54c-1.03 0-2.13-.11-3.31-.36a.53.53 0 01-.21-.11c-.05-.05-4.77-4.87-8.18-7.97 0-.01-.01-.02-.02-.02-1.36-1.24-2.72-2.48-4.09-3.71-2.89-2.6-4.88-4.34-5.61-4.9a.463.463 0 01-.13-.18.45.45 0 01-.01-.23c.01-.07.05-.14.1-.19.06-.06.12-.1.2-.11 4.65-1.1 15.55-3.66 24.8-13.96.04-.04.09-.08.15-.1.06-.02.12-.03.18-.03.12.01.23.07.3.17.25.34.5.69.75 1.03.99 1.37 2.11 2.91 3.08 4.21l.5.67c4.81 6.39 10.69 13.98 10.75 14.05.04.05.06.11.07.17.02.06.01.12 0 .18-.02.06-.05.12-.09.16-.04.05-.09.09-.15.11-.03.01-2.98 1.27-5.76 3.78-.44.4-.87.81-1.34 1.26-2.88 2.75-6.36 6.08-11.98 6.08zm-3.03-1.13c7.15 1.45 11.2-2.42 14.45-5.54.47-.44.91-.87 1.35-1.26a23.88 23.88 0 015.53-3.72c-1.29-1.65-6.27-8.1-10.44-13.65l-.51-.68c-.98-1.3-2.09-2.85-3.08-4.21l-.46-.64c-8.85 9.64-19.06 12.44-24.09 13.64 1.3 1.1 3.61 3.16 5.01 4.42 1.38 1.24 2.75 2.48 4.12 3.73.01 0 .01.01.02.02 3.16 2.88 7.44 7.22 8.1 7.89z" fill="#232323"/><path d="M206.1 238.8c3.45 3.14 8.19 7.98 8.19 7.98 8.45 1.77 12.66-3.6 16.27-6.87 2.87-2.6 5.89-3.86 5.89-3.86s-5.88-7.59-10.75-14.06l-19.6 16.81z" fill="#D9C6F4"/><mask id="j" maskUnits="userSpaceOnUse" x="206.102" y="221.998" width="30.352" height="25.173"><path d="M206.1 238.8c3.45 3.14 7.71 8.02 7.71 8.02 8.46 1.77 13.14-3.64 16.75-6.91 2.87-2.6 5.89-3.86 5.89-3.86s-5.88-7.59-10.75-14.06l-19.6 16.81z" fill="#000"/></mask><g mask="url(#j)"><path d="M205.65 244.53l24.27-20.27.95 1.14-24.27 20.27-.95-1.14z" fill="#FFF"/></g><path d="M217.52 247.54c-1.03 0-2.13-.11-3.31-.36a.53.53 0 01-.21-.11c-.05-.05-4.77-4.87-8.18-7.97 0-.01-.01-.02-.02-.02-1.36-1.24-2.72-2.48-4.09-3.71-2.89-2.6-4.88-4.34-5.61-4.9a.463.463 0 01-.13-.18.45.45 0 01-.01-.23c.01-.07.05-.14.1-.19.06-.06.12-.1.2-.11 4.65-1.1 15.55-3.66 24.8-13.96.04-.04.09-.08.15-.1.06-.02.12-.03.18-.03.12.01.23.07.3.17.25.34.5.69.75 1.03.99 1.37 2.11 2.91 3.08 4.21l.5.67c4.81 6.39 10.69 13.98 10.75 14.05.04.05.06.11.07.17.02.06.01.12 0 .18-.02.06-.05.12-.09.16-.04.05-.09.09-.15.11-.03.01-2.98 1.27-5.76 3.78-.44.4-.87.81-1.34 1.26-2.88 2.75-6.36 6.08-11.98 6.08zm-3.03-1.13c7.15 1.45 11.2-2.42 14.45-5.54.47-.44.91-.87 1.35-1.26a23.88 23.88 0 015.53-3.72c-1.29-1.65-6.27-8.1-10.44-13.65l-.51-.68c-.98-1.3-2.09-2.85-3.08-4.21l-.46-.64c-8.85 9.64-19.06 12.44-24.09 13.64 1.3 1.1 3.61 3.16 5.01 4.42 1.38 1.24 2.75 2.48 4.12 3.73.01 0 .01.01.02.02 3.16 2.88 7.44 7.22 8.1 7.89z" fill="#232323"/><path d="M72.5 197.26s71.34-22.65 95.59-24.81c24.86-2.22 53.93 43.89 53.93 43.89-7.38 11.39-26.16 14.08-38.98 17.74-11.87 3.39-14.48 8.45-14.48 8.45s.04-15.91-.9-20.15c-22.46 35.96-49.26 46.66-63.89 47.17-33.67 1.18-45.03-25.59-41.84-44.62 2.09-12.43 10.57-27.67 10.57-27.67z" fill="#00676C"/><mask id="k" maskUnits="userSpaceOnUse" x="61.424" y="172.373" width="160.602" height="97.22"><path d="M72.5 197.26s71.34-22.65 95.59-24.81c24.86-2.22 53.93 43.89 53.93 43.89-7.38 11.39-26.11 14.26-38.98 17.74-15.16 4.1-15.41 10.88-15.41 10.88s-.16-18.01-1.1-22.26c-22.45 35.96-48.13 46.34-62.76 46.85-33.67 1.17-45.03-25.59-41.84-44.62 2.09-12.43 10.57-27.67 10.57-27.67z" fill="#000"/></mask><g mask="url(#k)"><path d="M168.11 245.19c-.06 0-.12-.01-.17-.03-.05-.02-.09-.06-.13-.1a.42.42 0 01-.09-.14.88.88 0 01-.02-.17c1.25-15.45-.36-25.98-1.94-32.1-1.7-6.62-3.73-9.63-3.74-9.66a.267.267 0 01-.07-.14.43.43 0 01.06-.31c.03-.04.07-.08.11-.11a.35.35 0 01.14-.06.43.43 0 01.31.06c.04.02.08.06.11.11.09.12 2.11 3.11 3.85 9.85 1.6 6.18 3.24 16.82 1.98 32.43-.01.1-.06.2-.13.26-.07.07-.17.11-.27.11z" fill="#FFF"/></g><mask id="l" maskUnits="userSpaceOnUse" x="61.361" y="172.373" width="194.19" height="97.954"><path d="M72.5 197.26c-11.85 23.12-16.08 38.51-3.53 56.86 12.54 18.35 37.26 16.57 45.69 13.61 31.67 2.52 53.28-10.65 67.19-8.14 13.91 2.52 35.78 12.68 68.52 10.4 0 0 3.84-16.91 5.18-27.12l-51.06-6.06-8.14-6.66s16.64-2.71 25.67-13.81c0 0-29.07-46.11-53.93-43.89-24.25 2.16-60.68 32.4-60.68 32.4l-34.91-7.59z" fill="#000"/></mask><g mask="url(#l)"><path d="M113.86 268.9c-.1 0-.19-.03-.26-.09a.452.452 0 01-.14-.24c-.02-.09 0-.19.05-.27.04-.08.12-.15.21-.18.08-.03 8.63-3.3 19.46-10.61 6.35-4.29 12.24-9.11 17.48-14.33 6.56-6.51 12.14-13.67 16.58-21.28a.398.398 0 01.55-.13c.09.05.16.14.18.24.03.1.02.21-.03.3-4.48 7.67-10.11 14.89-16.72 21.46-5.28 5.25-11.21 10.11-17.61 14.42-10.9 7.36-19.52 10.65-19.61 10.68a.32.32 0 01-.14.03z" fill="#FFF"/></g><path d="M273.43 232.24c.07 2.87-2.12 8.07-9.01 13.61l-32.51 25.97c-4.39-5.93-11.32-17.16-18.1-25 2.73-1.7 6.81-1.49 10-2.71 4.81-1.85 5.57-5.68 17.79-10.17.19-.07.37-.16.55-.24.05-.03.1-.05.15-.07 3.47-1.49 6.69-2.48 9.65-3.12 12.78-2.74 20.64 1.28 21.41 1.7h.01c.01.01.03.02.04.02.01.01.02.01.02.01z" fill="#FFF"/><path d="M231.91 272.23c-.07 0-.13-.02-.19-.05a.47.47 0 01-.15-.13c-.87-1.3-1.75-2.65-2.68-4.08-3.98-6.13-8.49-13.08-15.79-21.06a.29.29 0 01-.09-.16.279.279 0 01-.01-.18c.01-.06.03-.12.06-.17.04-.05.09-.09.14-.12 2.47-1.35 4.6-1.66 6.66-1.96 1.99-.3 3.87-.57 6-1.75 1.64-.9 2.78-1.77 3.98-2.7 2.3-1.76 4.9-3.76 11.62-6.31.11-.04.22-.09.34-.15.06-.03.13-.06.19-.08l.15-.07c3.26-1.4 6.53-2.46 9.73-3.14 12.77-2.74 20.71 1.21 21.67 1.72.01.01.01.01.02.01.02.01.04.02.05.03l.02.01a.4.4 0 01.14.15c.04.06.06.12.06.19.08 3.12-2.29 8.41-9.15 13.93l-32.52 25.98c-.07.06-.16.09-.25.09zm-17.86-25.48c7.14 7.87 11.59 14.72 15.52 20.78.84 1.29 1.64 2.52 2.43 3.7l32.17-25.7c6.46-5.2 8.8-10.1 8.85-13.04-1.36-.71-8.95-4.16-20.98-1.58-3.15.67-6.37 1.71-9.58 3.09l-.15.07c-.06.02-.12.05-.17.08-.13.05-.26.11-.39.16-6.61 2.51-9.05 4.39-11.42 6.2-1.23.95-2.39 1.84-4.07 2.77-2.27 1.24-4.31 1.54-6.28 1.84-1.86.27-3.78.55-5.93 1.63z" fill="#232323"/><path d="M224.3 257.28a.39.39 0 01-.37-.25.362.362 0 01-.03-.23c.01-.08.05-.15.11-.2.01-.02 1.77-1.87 2.71-5 .18-.59.34-1.13.49-1.65.9-3.12 1.39-4.84 3.91-7.31a.4.4 0 01.29-.12c.11 0 .21.04.28.12a.4.4 0 010 .57c-2.37 2.33-2.82 3.88-3.71 6.97-.15.55-.32 1.1-.48 1.66-1 3.32-2.83 5.24-2.91 5.32a.38.38 0 01-.29.12zm2.96 7.43c-.11 0-.21-.04-.29-.11a.445.445 0 01-.12-.29c0-.18.02-4.45 4.15-7.07 2.27-1.43 4.03-1.43 5.74-1.43 1.24 0 2.41 0 3.79-.53 1.75-.67 2.61-1.64 3.52-2.66 1.16-1.31 2.36-2.67 5.38-3.54 4.51-1.29 8.41-3.05 11.59-5.23 4.83-3.33 8.04-7.63 9.52-12.78.01-.06.03-.1.07-.15a.4.4 0 01.12-.1c.04-.02.09-.04.15-.05a.468.468 0 01.3.09.4.4 0 01.1.12c.02.05.04.1.05.15 0 .05 0 .11-.02.16-1.53 5.34-4.84 9.79-9.83 13.22-3.25 2.24-7.23 4.04-11.83 5.35-2.79.8-3.92 2.07-5 3.29-.93 1.06-1.9 2.14-3.83 2.88-1.52.58-2.82.59-4.08.59-1.66 0-3.24 0-5.3 1.31-3.75 2.37-3.78 6.34-3.78 6.38 0 .1-.04.21-.11.28a.4.4 0 01-.29.12z" fill="#232323"/><path d="M238.43 260.13c.96 1.19.09 3.46-1.93 5.08-2.02 1.63-4.42 1.98-5.37.8-.96-1.18-.09-3.46 1.93-5.08s4.42-1.98 5.37-.8z" fill="#00676C" fill-rule="evenodd"/><path d="M240.89 245.87c-.22 0-.43-.08-.61-.21a.965.965 0 01-.36-.54c-.07-.25-1.65-6.31 2.71-12.93.15-.22.38-.37.64-.42.26-.05.53 0 .75.15.23.14.38.37.44.63.05.26 0 .53-.14.76-1.61 2.44-2.51 5.07-2.68 7.83-.13 2.07.23 3.44.23 3.46.14.53-.18 1.09-.71 1.23-.09.03-.18.04-.27.04zm5.33-1.71c-.23 0-.45-.08-.63-.23a.956.956 0 01-.35-.57c-.06-.28-1.4-6.96 3.32-12.98.16-.21.41-.34.67-.38.27-.03.54.05.75.21.21.17.35.41.38.68.03.26-.05.53-.21.74-4.14 5.28-2.95 11.25-2.94 11.31.03.13.03.27.01.4-.03.13-.08.25-.15.36a1.016 1.016 0 01-.64.44c-.07.01-.14.02-.21.02zm5.71-2.53c-.48 0-.9-.33-.99-.82-.05-.25-1.08-6.12 3.27-11.54.09-.1.19-.19.31-.26.11-.06.24-.1.37-.12.14-.01.27 0 .4.04.13.03.25.1.35.18.1.08.19.19.25.3.07.12.11.25.12.38.02.13 0 .27-.03.4-.04.12-.11.24-.19.35-3.76 4.67-2.87 9.85-2.86 9.9.09.55-.27 1.08-.82 1.18-.06.01-.12.01-.18.01z" fill="#00676C"/><path d="M124.96 176.28c-8.43 6.51-18.27 11.76-28.94 14.81-6.22 1.77-21.76 5.32-19.09 11.39 2.9 6.61 23.76 3.54 48.03-26.2z" fill="#232323"/><path d="M83.09 205.79c-.6 0-1.16-.04-1.7-.11-2.4-.33-4.12-1.41-4.83-3.04-.46-1.05-.45-2.09.02-3.09 1.95-4.09 11.59-6.73 17.35-8.3.72-.2 1.4-.38 1.98-.55 10.09-2.88 20.05-7.98 28.81-14.74.08-.06.17-.09.27-.08.1 0 .2.05.26.12.07.07.11.16.12.26 0 .1-.03.2-.09.28-8.48 10.39-17.45 18.56-25.94 23.63-6.07 3.63-11.87 5.62-16.25 5.62zm39.38-27.16c-8.15 5.82-17.19 10.23-26.34 12.85-.59.16-1.26.35-1.98.55-5.63 1.54-15.05 4.12-16.84 7.87-.37.79-.38 1.58-.01 2.42.6 1.38 2.06 2.26 4.2 2.56 4.34.59 10.69-1.38 17.42-5.4 7.69-4.59 15.79-11.77 23.55-20.85z" fill="#232323"/><path d="M208.63 158.54c-4.99 2.42-11.05 4.58-21.97 7.95-14.12 4.36-22.02 23.11-42.85 41.9-19.27 17.38-42.85 15.5-53.49-7.65-.08-.18-.15-.37-.22-.56-.85-2.23-1.6-4.51-2.22-6.82l37.88-15.74c.01.02.66 2.46.67 2.48 18.91-10.73 23.74-13.62 37.19-21.83 2.43-1.48 10.54-6.19 16.98-6.74 4.72-.4 5.66-.27 12.4-.13 0 0 1.89.27 6.74-1.08 3.37-.94 3.36.54 2.42.94 3.37-1.34 6.47-1.61 5.26.54 4.58-1.75 6.87.14 3.5 1.89 4.58-.81 4.13 1.72-2.29 4.85z" fill="#FFF"/><path d="M117.31 220.38c-1.93 0-3.83-.19-5.69-.57-4.54-.94-8.68-2.98-12.31-6.09-3.79-3.23-6.94-7.54-9.36-12.82-.06-.13-.11-.27-.16-.4-.02-.06-.04-.11-.06-.17-.86-2.25-1.61-4.54-2.24-6.87a.347.347 0 01.03-.28.39.39 0 01.2-.2l37.89-15.73c.05-.02.1-.03.16-.03.05 0 .11.01.16.04.05.02.1.05.13.09.04.04.07.09.09.14 0 .02 0 .02.35 1.3l.18.7c18.38-10.43 23.13-13.26 36.73-21.57 1.29-.79 3.92-2.32 7.03-3.74 3.91-1.78 7.32-2.81 10.13-3.05 3.89-.33 5.26-.3 9.32-.21.89.03 1.91.05 3.12.07.01 0 .03.01.05.01.01 0 1.9.23 6.57-1.07 2.61-.72 3.27-.06 3.43.4.02.05.03.1.04.16 1.55-.52 3.93-1.12 4.74-.2.15.18.29.45.24.85 2.62-.82 4.36-.42 4.76.48.12.26.24.83-.43 1.51h.01c1.3 0 1.76.44 1.9.87.56 1.73-3.67 4-5.51 4.9-4.89 2.38-10.65 4.46-22.03 7.97-8.12 2.51-14.23 9.94-21.97 19.35-5.63 6.85-12.03 14.62-20.73 22.47-5.15 4.64-10.62 7.97-16.27 9.88-3.56 1.21-7.08 1.81-10.5 1.81zM88.36 193.6c.6 2.18 1.31 4.33 2.12 6.44.02.06.04.11.07.17.04.13.09.25.14.36 2.37 5.16 5.45 9.38 9.14 12.54 3.53 3.01 7.55 5 11.95 5.91 5.03 1.03 10.34.62 15.78-1.22 5.54-1.87 10.91-5.14 15.98-9.71 8.66-7.81 15.03-15.55 20.65-22.39 7.82-9.51 14-17.02 22.36-19.6 11.19-3.45 17.12-5.6 21.9-7.93 4.16-2.02 5.24-3.51 5.1-3.92-.05-.16-.61-.51-2.56-.16-.09.01-.19 0-.27-.05a.389.389 0 01-.18-.22.387.387 0 01.01-.28c.03-.09.1-.17.18-.21 1.19-.62 1.47-1.16 1.37-1.38-.19-.43-1.77-.83-4.54.23-.08.03-.16.03-.24.01a.445.445 0 01-.21-.12.414.414 0 01-.09-.23.41.41 0 01.04-.24c.21-.37.27-.66.17-.78-.31-.35-2.04-.33-4.92.82-.1.04-.21.04-.31 0a.396.396 0 01-.22-.22.415.415 0 010-.31c.04-.1.12-.18.22-.22.23-.1.31-.26.3-.29-.03-.09-.58-.41-2.46.11-4.62 1.28-6.61 1.12-6.87 1.09-1.2-.02-2.21-.05-3.1-.07-4.03-.09-5.38-.12-9.23.21-6.34.54-14.47 5.24-16.81 6.67-13.72 8.39-18.44 11.19-37.2 21.84-.05.03-.11.05-.17.05-.06 0-.12 0-.18-.03a.42.42 0 01-.14-.09.391.391 0 01-.1-.16c0-.01 0-.01-.32-1.22l-.23-.83-37.13 15.43z" fill="#232323"/><path d="M109.19 135.75c-4.43-6.86-13.53-10.85-19.83-2.37l-2.52.6c-13.17 24.41-19.68 56.52-31.52 73.24 2.37-3.41 15.24-4.44 21.61-4.74-1.33-5.03 6.81-6.68 20.42-11.1 16.43-5.32 28.41-13.76 28.41-13.76s-8.13-28.81-16.57-41.87z" fill="#FFF"/><path d="M55.32 207.62a.42.42 0 01-.21-.06.463.463 0 01-.15-.16.378.378 0 01-.04-.21c0-.07.03-.15.07-.21l.03-.03c6.29-8.91 11.1-22.27 16.2-36.42 4.49-12.48 9.13-25.38 15.27-36.75.02-.05.06-.09.11-.13.04-.03.09-.06.15-.07l2.37-.56c2.48-3.28 5.6-4.95 9.03-4.84 4.18.13 8.53 2.95 11.38 7.35 4.38 6.78 8.67 17.84 11.49 25.92 3.06 8.75 5.11 15.99 5.13 16.06.03.08.02.17-.01.25-.02.08-.08.15-.14.19-.12.09-12.23 8.53-28.53 13.82-1.93.62-3.71 1.18-5.44 1.73-10.16 3.18-15.76 4.93-14.71 8.88.01.06.02.12 0 .18-.01.05-.03.11-.07.16-.03.05-.08.09-.13.12s-.11.04-.17.04c-11.68.55-19.62 2.24-21.28 4.54l-.02.03c-.04.05-.09.09-.14.12-.06.03-.12.05-.19.05zm31.79-73.29c-6.06 11.27-10.67 24.08-15.13 36.47-4.75 13.18-9.25 25.67-14.95 34.59 4.35-2.19 13.46-3 19.4-3.29-.4-2.62 1.78-4.14 3.51-5.07 2.64-1.42 6.7-2.69 11.85-4.31 1.72-.54 3.51-1.1 5.44-1.72 14.93-4.84 26.31-12.35 28.06-13.55-.86-3-8.57-29.3-16.44-41.48-2.7-4.18-6.81-6.86-10.72-6.98-3.2-.11-6.12 1.5-8.45 4.63-.05.08-.14.13-.23.16l-2.34.55z" fill="#232323"/><mask id="m" maskUnits="userSpaceOnUse" x="87.883" y="149.274" width="129.502" height="70.704"><path d="M216.49 154.76c-9.34 2.16-13.14 4.34-25.24 7.55-15.23 4.04-26.61 27.29-47.44 46.08-19.27 17.38-42.85 15.5-53.49-7.65-.08-.18-.15-.37-.22-.56-.85-2.23-1.6-4.51-2.22-6.82l37.88-15.74c.01.02.66 2.46.67 2.48 18.91-10.73 28.88-19.04 43.29-25.41 5.24-2.32 11.06-4.06 15.62-4.51 14.54-1.52 20.51-1.15 20.11 1.17 2.37-.67 7.02-1.23 7.43.6 1.93-.2 4.19.37 4.46 1.52.24 1.02-.72 1.29-.85 1.29z" fill="#000"/></mask><g mask="url(#m)"><path d="M119.28 186c-.08 0-.16-.03-.23-.07a.454.454 0 01-.15-.19.489.489 0 01-.01-.24c.02-.08.07-.15.13-.21.07-.06 7.3-6.33 16.69-11.14.04-.02.1-.04.15-.04.05-.01.1 0 .15.01.05.02.1.05.14.08a.412.412 0 01.14.28c.01.05 0 .1-.01.15-.02.05-.05.1-.08.14-.04.04-.08.08-.12.1-9.31 4.77-16.46 10.97-16.53 11.03-.08.06-.17.1-.27.1z" fill="#232323"/></g><mask id="n" maskUnits="userSpaceOnUse" x="87.883" y="150.019" width="126.088" height="69.959"><path d="M208.63 158.54c-4.99 2.42-11.05 4.58-21.97 7.95-14.12 4.36-22.02 23.11-42.85 41.9-19.27 17.38-42.85 15.5-53.49-7.65-.08-.18-.15-.37-.22-.56-.85-2.23-1.6-4.51-2.22-6.82l37.88-15.74c.01.02.66 2.46.67 2.48 18.91-10.73 23.88-14.29 37.32-22.5 2.43-1.49 9.57-4.99 15.64-6.07 4.59-.81 6.87-.27 13.61-.13 0 0 1.89.27 6.74-1.08 3.37-.94 3.36.54 2.42.94 3.37-1.34 6.47-1.61 5.26.54 4.58-1.75 6.87.14 3.5 1.89 4.58-.81 4.13 1.72-2.29 4.85z" fill="#000"/></mask><g mask="url(#n)"><path d="M200.39 152.32a.37.37 0 01-.26-.1.394.394 0 01-.14-.25c-.01-.09.01-.19.07-.27.05-.09.13-.14.23-.17 3.78-1.02 6.71-4.53 7.52-5.58.03-.04.07-.08.12-.1.05-.03.1-.05.15-.05.05-.01.11-.01.16.01.05.01.1.03.14.07.04.03.08.07.1.11.03.05.05.1.05.15.01.06.01.11-.01.16a.37.37 0 01-.07.14c-.85 1.11-3.93 4.79-7.95 5.87-.04.01-.07.01-.11.01zm2.98 1.64c-.09 0-.19-.04-.26-.1a.445.445 0 01-.14-.25c-.01-.09.01-.19.06-.27.06-.09.14-.15.23-.17 5.09-1.5 9.39-4.86 11.22-7.35.07-.09.16-.15.27-.16.1-.02.21.01.3.07.08.07.14.16.16.27.01.1-.01.21-.08.3-1.91 2.59-6.37 6.09-11.64 7.64-.04.01-.08.02-.12.02zm-5.12 3.64c-.1 0-.19-.04-.27-.11a.432.432 0 01-.13-.26c-.01-.1.02-.2.08-.28a.42.42 0 01.25-.16c.12-.02 11.98-2.19 16.84-5.73.08-.06.19-.09.3-.07.1.02.2.08.26.16.06.09.09.2.07.3-.01.11-.07.2-.16.27-2.1 1.53-5.64 2.99-10.5 4.32-3.6.99-6.63 1.54-6.66 1.55-.03 0-.05.01-.08.01z" fill="#232323"/></g><path d="M76.94 200.87c-.05 0-.11-.01-.16-.04a.359.359 0 01-.14-.1.275.275 0 01-.08-.15c-.02-.05-.02-.11-.02-.17.11-.8.39-2.1.77-3.89 1.34-6.23 3.82-17.85 5.18-35.85 1.54-20.44 6.34-27.25 6.54-27.53a.44.44 0 01.27-.16.417.417 0 01.46.34c.01.1-.01.21-.07.3-.05.07-4.88 6.95-6.39 27.11-1.36 18.06-3.86 29.71-5.2 35.96-.38 1.78-.65 3.06-.76 3.83-.01.09-.06.18-.13.25-.07.06-.17.1-.27.1z" fill="#232323"/><path d="M186.66 161.23c6.74-2.56 15.77-4.81 16.44-7.14.95-3.23-10.64-2.69-16.71-2.83l.27 9.97z" fill="#FFF"/><path d="M186.66 161.64c-.09 0-.18-.04-.25-.1a.334.334 0 01-.14-.23c-.02-.1 0-.19.04-.28.05-.08.12-.14.21-.17 1.84-.7 3.85-1.38 5.8-2.04 4.67-1.57 9.96-3.35 10.4-4.84.07-.25.04-.46-.11-.65-1.18-1.58-8.34-1.61-13.08-1.63-1.13-.01-2.2-.01-3.14-.03a.41.41 0 01-.4-.42c.01-.22.19-.4.41-.39.94.02 2 .03 3.13.03 6.98.03 12.42.19 13.73 1.96.3.39.38.86.23 1.36-.51 1.77-4.46 3.21-10.91 5.38-1.94.65-3.95 1.33-5.77 2.02-.05.02-.1.03-.15.03z" fill="#232323"/></g></g></g></svg>