<svg width="560" height="400" fill="none" xmlns="http://www.w3.org/2000/svg"><defs><clipPath id="c"><path transform="translate(397.023 242.612)" fill="#fff" fill-opacity="0" d="M0 0h107.484v149.884H0z"/></clipPath><clipPath id="d"><path transform="translate(438.788 298.368)" fill="#fff" fill-opacity="0" d="M0 0h23.744v93.916H0z"/></clipPath><clipPath id="e"><path transform="translate(83.476 4.96)" fill="#fff" fill-opacity="0" d="M0 0h387.748v387.748H0z"/></clipPath><clipPath id="f"><path transform="translate(230.18 128.98)" fill="#fff" fill-opacity="0" d="M0 0h50.244v59.784H0z"/></clipPath><clipPath id="g"><path transform="matrix(-1 0 0 1 461.472 299.428)" fill="#fff" fill-opacity="0" d="M0 0h99.64v93.068H0z"/></clipPath><clipPath id="h"><path transform="translate(87.504 49.692)" fill="#fff" fill-opacity="0" d="M0 0h366.124v342.804H0z"/></clipPath><clipPath id="i"><path transform="translate(58.884 176.044)" fill="#fff" fill-opacity="0" d="M0 0h135.892v216.452H0z"/></clipPath><clipPath id="k"><path transform="translate(188.84 35.7)" fill="#fff" fill-opacity="0" d="M0 0h32.436v55.332H0z"/></clipPath><clipPath id="l"><path transform="translate(365.436 13.864)" fill="#fff" fill-opacity="0" d="M0 0h32.436v55.332H0z"/></clipPath><clipPath id="m"><path transform="translate(336.604 175.408)" fill="#fff" fill-opacity="0" d="M0 0h32.436v55.332H0z"/></clipPath><clipPath id="b"><path transform="translate(15 -65)" fill="#fff" fill-opacity="0" d="M0 0h530v530H0z"/></clipPath><clipPath id="a"><path fill="#fff" fill-opacity="0" d="M0 0h560v400H0z"/></clipPath></defs><g clip-path="url(#a)"><path d="M15-65h530v530H15z"/><g clip-path="url(#b)"><path d="M397.023 242.612h107.484v149.884H397.023z"/><g clip-path="url(#c)"><path d="M397.02 242.61H504.5v149.88H397.02V242.61z" fill="#D8C5F3"/><path d="M413.07 256.5c0 1.13-.92 2.05-2.05 2.05s-2.04-.92-2.04-2.05.91-2.05 2.04-2.05 2.05.92 2.05 2.05zm0 12.09c0 1.13-.92 2.05-2.05 2.05s-2.04-.92-2.04-2.05c0-1.14.91-2.05 2.04-2.05s2.05.91 2.05 2.05zm.32 12.05c0 1.14-.91 2.06-2.04 2.06a2.055 2.055 0 010-4.11c1.13 0 2.04.92 2.04 2.05z" fill="#232323" fill-rule="evenodd"/><path d="M398.57 358.12h104.38v20.26H398.57v-20.26z" fill="#FFF"/></g><path d="M438.788 298.368h23.744v93.916h-23.744z"/><g clip-path="url(#d)"><path d="M462.53 392.28h-1.26v-92.65h-22.49v-1.27h23.12c.17 0 .33.07.44.19.12.12.19.28.19.45v93.28z" fill="#232323"/></g><path d="M83.476 4.96h387.748v387.748H83.476z"/><g clip-path="url(#e)"><path d="M470.58 198.79c0 74.88-42.59 139.8-104.88 171.87-5.1 2.62-10.31 5.02-15.61 7.18h-.01c-98.91 40.12-211.62-7.52-251.75-106.42-40.12-98.9 7.53-211.6 106.44-251.72 6.61-2.68 13.35-4.99 20.21-6.93h.01a193.889 193.889 0 01143.43 15.58h.01c62.94 33.57 102.23 99.12 102.15 170.44z" fill="#FFF"/><path d="M277.53 392.7c-.96 0-1.92 0-2.88-.02-25.07-.37-49.54-5.53-72.74-15.33-23.19-9.81-43.94-23.77-61.67-41.49-18.36-18.35-32.65-39.95-42.5-64.21-9.84-24.25-14.63-49.71-14.25-75.66.37-25.06 5.53-49.53 15.34-72.72 9.81-23.2 23.77-43.94 41.49-61.67 18.35-18.36 39.96-32.65 64.21-42.49 6.63-2.69 13.4-5.01 20.28-6.95.02 0 .03-.01.05-.01 23.97-6.71 48.67-8.74 73.42-6.06 24.74 2.69 48.42 9.98 70.39 21.68.02 0 .04.01.06.02a193.536 193.536 0 0174.95 71.3 193.557 193.557 0 0127.54 99.7c0 36.29-10.09 71.67-29.18 102.32a194.605 194.605 0 01-76.05 70.12c-5.11 2.63-10.34 5.03-15.66 7.2-.02.01-.04.02-.06.02-23.34 9.46-47.8 14.25-72.74 14.25zM225.11 13.4c-6.82 1.92-13.53 4.22-20.1 6.88C157.33 39.63 120.04 76.37 100 123.76c-20.04 47.39-20.42 99.74-1.08 147.42 39.93 98.41 152.49 146 250.92 106.08.02-.01.04-.02.06-.02a195.79 195.79 0 0015.51-7.14c64.48-33.2 104.54-98.84 104.54-171.31.07-71.24-38.92-136.32-101.77-169.85l-.06-.03c-44.08-23.48-94.86-29-142.96-15.52-.02 0-.03 0-.05.01z" fill="#232323"/><path d="M403.51 246.49c-.72 24.07-25.38 28.66-29.01 44.64-3.91 17.25-12.97 25.59-22.66 31.24-9.69 5.65-16.78 13.64-5.65 27.65 3.53 4.45 12.42 12.97 19.51 20.64-5.1 2.62-10.3 5.02-15.61 7.18h-.01c-27.77-13.44-41.19-29.35-41.04-52.24.1-12.94 1.98-27.27-17.76-33.54-28.16-8.93-39.85-15.41-56.51-33.81-12.55-13.86-2.57-23.95 1.04-30.4 4.21-7.5-.37-15.27-8.62-12.22-10.27 3.8-24.97 2-32.56-10.16-11.87-19.02-15.57-11.46-36.57-13.88-20.99-2.43-9.64-60.84-18.92-65.48-7.89-3.95-10.95 9.17-15.79 4.12-6.65-6.93-.65-25.1 20.35-40 17.69-12.56 17.72-24.35 8.72-26.5-4.57-1.08-7.38-2.57-9.04-4.15a192.916 192.916 0 0181.6-46.81h.01c40.7 2.89 71.77 24.15 75.18 37.54 4.04 15.88-31.76 28.93-54.1 35.52-25.83 7.63-21.34 30.97-16.95 43.6 5.83 16.77-19.65 18.21-17.76 2.42 1.54-12.92-40.03-4.36-42.79 19.38-1.8 15.43 17.4 2.37 17.33 15.93-.06 9.71 1.8 11.7 15.18 17.15 9.69 3.95 11.01 22.75 25.26 21.1 21.53-2.52 17.13 11.52 22.97 17.58 19.37 20.09 25.83-30.14 74.27-29.78 12.33.09 23.69 10.76 50.87-1.62 29.27-13.33 29.68 34.26 29.06 54.9z" fill="#FFF"/><path d="M350.09 378.48c-.1 0-.2-.03-.29-.07-28.78-13.93-41.54-30.22-41.39-52.82.01-.99.02-2 .04-2.98.21-11.94.42-24.29-17.36-29.94-15.33-4.86-24.8-8.75-32.7-13.42-8.23-4.86-15.43-11.01-24.09-20.58-11.14-12.29-4.93-21.91-.81-28.27.66-1.02 1.28-1.98 1.77-2.86 2.04-3.64 2.02-7.55-.05-9.98-1.74-2.03-4.58-2.52-7.8-1.33-5.5 2.03-11.94 2.37-17.66.92-6.67-1.69-12.08-5.61-15.66-11.35-8.36-13.4-12.33-13.31-21.91-13.09-3.69.08-8.28.19-14.19-.49-5.93-.69-9.91-5.57-12.16-14.92-1.92-7.95-2.34-18.09-2.71-27.04-.47-11.27-.91-21.91-4.26-23.58-3.72-1.86-6.22.42-8.62 2.64-2.16 1.98-4.6 4.22-7.35 1.35-2.12-2.22-3.05-5.47-2.67-9.42.44-4.64 2.63-9.89 6.34-15.18 4.06-5.8 9.86-11.45 16.77-16.36 11.79-8.37 15.09-16 14.25-20.34-.49-2.54-2.38-4.32-5.31-5.02-4.25-1.01-7.39-2.46-9.33-4.31a.596.596 0 01-.14-.21.542.542 0 01-.06-.25c0-.08.02-.17.05-.25a.8.8 0 01.15-.21c22.92-22.09 51.23-38.33 81.87-46.96a.55.55 0 01.22-.02c18.42 1.31 36.83 6.6 51.84 14.91 12.95 7.16 22.11 16.02 23.91 23.1 1.86 7.31-4.02 14.69-17.47 21.96-9.17 4.96-21.64 9.78-37.06 14.33-8.27 2.44-14.03 6.74-17.13 12.77-4.85 9.44-2.35 21.53.6 30.01 2.35 6.76-.36 10.38-2.18 11.93-3.13 2.68-8.15 3.15-11.93 1.12-3.67-1.96-5.44-5.78-4.88-10.49.18-1.55-.33-2.79-1.53-3.69-3.58-2.67-12.62-1.95-21.03 1.67-5.21 2.25-17.5 8.85-18.97 21.54-.32 2.72.01 4.64 1.02 5.85 1.42 1.73 4.07 1.93 6.89 2.15 4.43.34 9.46.72 9.42 7.86-.06 9.34 1.6 11.19 14.79 16.56 4.13 1.69 6.81 5.95 9.41 10.08 3.85 6.13 7.49 11.91 15.54 10.98 15.77-1.84 18.15 5.13 20.25 11.29.84 2.48 1.64 4.82 3.24 6.48 2.93 3.03 5.66 4.52 8.34 4.55h.08c4.83 0 9.48-4.64 15.35-10.5 10.26-10.22 24.31-24.21 50.06-24.03 3.6.03 7.12.94 10.86 1.9 9.14 2.36 20.52 5.3 39.74-3.46 6.87-3.12 12.69-3.16 17.3-.09 9.32 6.19 13.58 24.9 12.66 55.59-.43 14.12-9.06 21.77-16.67 28.53-5.59 4.96-10.87 9.64-12.36 16.24-4.23 18.64-14.49 26.7-22.96 31.64-6.55 3.82-9.98 7.64-10.81 12.03-.8 4.27.99 9.21 5.33 14.68 2.06 2.59 6.06 6.68 10.29 11.01 3.08 3.16 6.27 6.42 9.2 9.59.06.07.11.16.14.25.03.09.03.19.01.29-.01.09-.05.19-.11.26-.06.08-.13.15-.22.19-5.11 2.63-10.34 5.04-15.66 7.21-.08.03-.16.05-.24.05zM230.72 214.32c2.19 0 4.09.82 5.45 2.42 2.42 2.83 2.5 7.32.2 11.42-.51.92-1.15 1.89-1.81 2.93-4.14 6.39-9.81 15.16.68 26.73 16.13 17.82 27.17 24.42 56.23 33.64 8.36 2.65 13.66 7 16.22 13.28 2.25 5.52 2.14 11.81 2.03 17.9-.02.97-.03 1.98-.04 2.96-.15 21.98 12.32 37.89 40.42 51.55 4.95-2.03 9.8-4.25 14.56-6.68-2.75-2.96-5.72-5.99-8.6-8.94-4.25-4.36-8.28-8.47-10.37-11.11-4.65-5.86-6.47-10.99-5.59-15.7.9-4.78 4.53-8.88 11.42-12.9 8.25-4.81 18.24-12.66 22.36-30.83 1.59-6.98 7.01-11.8 12.76-16.9 7.78-6.91 15.83-14.05 16.24-27.62.36-12.04-.04-21.88-1.24-30.09-1.83-12.62-5.48-20.83-10.85-24.4-4.22-2.81-9.63-2.75-16.08.19-19.63 8.94-31.24 5.94-40.58 3.53-3.66-.94-7.11-1.83-10.55-1.86-25.24-.18-39.06 13.6-49.15 23.66-6.08 6.07-10.9 10.87-16.25 10.87h-.09c-3.04-.03-6.07-1.65-9.24-4.94-1.8-1.87-2.68-4.45-3.53-6.95-2.04-5.98-4.15-12.17-18.91-10.44-.63.07-1.25.11-1.83.11-7.59 0-11.32-5.93-14.93-11.68-2.6-4.13-5.05-8.04-8.81-9.57-6.62-2.7-10.63-4.63-12.87-7.15-2.32-2.6-2.74-5.73-2.71-10.6.03-5.95-3.81-6.25-8.25-6.59-2.95-.23-6.01-.46-7.77-2.6-1.24-1.5-1.66-3.72-1.3-6.81.58-5.04 2.87-9.69 6.81-13.82 3.34-3.51 7.81-6.53 12.92-8.73 8.94-3.85 18.31-4.5 22.29-1.53 1.56 1.17 2.27 2.85 2.03 4.86-.68 5.7 2.35 8.22 4.21 9.22 3.35 1.79 7.77 1.38 10.52-.96 2.72-2.33 3.36-6.07 1.8-10.55-3.03-8.72-5.58-21.18-.53-31.01 3.27-6.35 9.29-10.86 17.9-13.41 21.71-6.41 57.56-19.44 53.66-34.75-1.72-6.76-10.64-15.31-23.29-22.31-14.83-8.2-33.01-13.44-51.21-14.75-30.18 8.52-58.08 24.47-80.74 46.15 1.81 1.49 4.58 2.68 8.25 3.56 3.45.82 5.67 2.95 6.26 6 1.19 6.14-4.32 14.22-14.75 21.62-15.56 11.04-21.87 23.07-22.59 30.63-.34 3.57.47 6.48 2.33 8.42 1.8 1.89 3.15.81 5.57-1.41 2.47-2.27 5.54-5.09 10.04-2.84 4.03 2.01 4.44 12.01 4.97 24.67.73 17.53 1.63 39.35 13.75 40.75 5.82.67 10.36.56 14.01.48 4.89-.11 8.43-.19 11.92 1.54 3.57 1.77 6.89 5.41 11.1 12.15 7.21 11.56 21.45 13.73 31.8 9.91 1.31-.48 2.58-.72 3.75-.72z" fill="#232323"/><path d="M458.53 131.45c-6.51-1.49-15.83-7.25-25.14-25.43-16.96-33.1-19.38-29.07-48.69-25.03-29.3 4.04-17.52-23.41-13.48-33.1 2.35-5.64-.24-13.75-2.79-19.54a193.935 193.935 0 0190.1 103.1z" fill="#FFF"/><path d="M458.53 132.09c-.05 0-.1-.01-.15-.02-6.39-1.47-16.02-7.13-25.56-25.76-7.13-13.92-12.06-22.08-17.71-25.32-5.38-3.09-11.56-2.16-22.78-.47-2.25.34-4.8.72-7.54 1.1-8.58 1.18-14.48-.23-17.53-4.2-5.87-7.62.27-22.35 3.23-29.42l.14-.35c2.26-5.42-.27-13.34-2.78-19.04a.554.554 0 01-.04-.38c.02-.13.09-.25.19-.34.09-.09.22-.15.35-.16.13-.02.26 0 .38.07a194.407 194.407 0 0190.39 103.43c.04.1.05.2.04.3-.02.1-.05.2-.11.28a.55.55 0 01-.23.2c-.09.05-.19.08-.29.08zM406.38 77.7c3.6 0 6.59.6 9.36 2.19 5.96 3.42 10.81 11.38 18.21 25.84 8.75 17.07 17.44 22.97 23.55 24.79a193.179 193.179 0 00-87.78-100.74c2.34 5.73 4.29 13.06 2.08 18.36l-.14.34c-2.86 6.86-8.82 21.13-3.4 28.16 2.76 3.59 8.26 4.84 16.36 3.72 2.73-.37 5.27-.76 7.52-1.1 5.78-.87 10.36-1.56 14.24-1.56z" fill="#232323"/><path d="M173.8 361.93a194.25 194.25 0 01-49.51-45.21c9.53 3.06 22.32 5.28 35.86 2.24 27.71-6.22 21.35 22.44 13.65 42.97z" fill="#FFF"/><path d="M173.8 362.56c-.12 0-.24-.03-.34-.09-19.11-12.17-35.83-27.43-49.67-45.36a.64.64 0 01-.13-.37c-.01-.14.03-.27.11-.38.08-.11.19-.2.32-.24a.58.58 0 01.39 0c12.42 3.98 24.37 4.73 35.53 2.22 8.2-1.84 14.09-.78 17.51 3.16 7.01 8.04 2.17 26.55-3.12 40.65-.05.12-.13.23-.24.3a.57.57 0 01-.36.11zm-47.77-44.64c13.35 16.93 29.3 31.4 47.45 43.05 5.06-13.68 9.56-31.2 3.09-38.64-3.1-3.56-8.58-4.48-16.28-2.76-10.8 2.43-22.32 1.88-34.26-1.65z" fill="#232323"/></g><path d="M230.18 128.98h50.244v59.784H230.18z"/><g clip-path="url(#f)"><path d="M269.38 187.04c1.71-3.33.65-11.07.01-12.88l-2.91-9.06 13.78-19.8c.17-.25.2-.59.1-.89l-1.55-4.61a.94.94 0 00-.68-.63.945.945 0 00-.91.2l-14.81 13.09-4.26-12.87 2.08-4.07c.11-.21.14-.47.08-.7l-1.17-5.08c-.08-.36-.38-.64-.74-.73a.991.991 0 00-.99.29l-6.4 7.38-9.49-2.26c-.34-.08-.7.03-.95.28-.24.25-.32.6-.23.93l1.1 4.39c.08.28.26.52.51.65l4.92 2.53 4 13.05-19.61-2.08a.972.972 0 00-.85.37c-.05.05-.09.12-.13.18-.11.23-.14.49-.06.74l1.42 4.65c.1.3.31.56.61.66l22.69 8.05 2.9 9.06c.6 1.85 5.62 12.03 9.85 10.77.7-.24 1.27-.79 1.69-1.61z" fill="#262103"/></g><path d="M461.472 299.428h-99.64v93.068h99.64z"/><g clip-path="url(#g)"><path d="M461.47 299.42h-99.64v93.07h99.64v-93.07z" fill="#D8C5F3"/><path d="M425.26 300.05h-27.39v91.82h27.39v-91.82z" fill="#FFF"/><path d="M397.87 392.48h27.39c.16 0 .31-.06.43-.18.11-.11.18-.27.18-.43v-91.82c0-.17-.07-.32-.18-.44a.641.641 0 00-.43-.18h-27.39c-.17 0-.32.07-.44.18-.11.12-.17.27-.17.44v91.82c0 .16.06.32.17.43.12.12.27.18.44.18zm26.77-1.23h-26.16v-90.59h26.16v90.59z" fill="#D8C5F3"/><path d="M436.35 372.44c-.08 0-.15-.02-.22-.05a.76.76 0 01-.19-.12.76.76 0 01-.12-.19.585.585 0 01-.05-.22c0-.13.05-.26.12-.36l3.37-4.35 3.64-4.69a.551.551 0 01.45-.23c.09 0 .18.02.26.06.07.04.14.1.2.17l3.63 4.69 3.37 4.35c.09.12.14.28.12.43-.02.15-.1.29-.22.38-.1.08-.23.13-.35.13h-2.39c-.15 0-.3.06-.4.16-.11.11-.17.26-.17.41v11.24a.583.583 0 01-.58.58h-6.93a.583.583 0 01-.58-.58v-11.24c0-.15-.06-.3-.17-.41a.6.6 0 00-.41-.16h-2.38z" fill="#232323"/></g><path d="M87.504 49.692h366.124v342.804H87.504z"/><g clip-path="url(#h)"><path d="M123.04 83.45c2.31-.92 4.98-1.68 7.96-2.27.13-.02.27-.07.38-.15.12-.08.22-.18.3-.29.08-.12.13-.25.16-.38.03-.14.03-.28 0-.42a.992.992 0 00-.16-.38c-.08-.12-.18-.22-.29-.3a1.11 1.11 0 00-.39-.16c-.13-.02-.27-.02-.41.01-2.04.4-3.95.88-5.71 1.44-.76.98-1.52 1.97-2.26 2.97h.03c.13 0 .27-.02.39-.07zm40.26-2.61c.26 0 .52-.1.72-.29.2-.18.31-.43.33-.7.02-.27-.07-.54-.24-.74-.17-.21-.42-.35-.69-.38-5.62-.71-11.12-1.06-16.32-1.06h-.08a1.06 1.06 0 00-.75 1.81c.2.19.47.31.75.31h.08c5.11 0 10.52.35 16.06 1.04.05.01.09.01.14.01zm119.82 133.63a1.063 1.063 0 001.68-.44c.08-.2.09-.42.03-.63-.05-.21-.17-.4-.33-.54-4.01-3.43-7.33-7.4-10.15-12.13-.07-.12-.16-.23-.27-.31-.11-.09-.24-.15-.38-.19-.13-.03-.27-.04-.41-.02a1.003 1.003 0 00-.7.42c-.09.11-.15.24-.18.38a.94.94 0 00-.02.41c.02.14.07.27.14.39 2.94 4.94 6.4 9.08 10.59 12.66zM195 88.3c.25 0 .49-.08.68-.25.19-.16.32-.38.36-.63.04-.25 0-.5-.13-.71-.13-.22-.33-.38-.56-.47-5.11-1.78-10.42-3.33-15.76-4.59a1.074 1.074 0 00-.81.12c-.12.08-.22.17-.31.29-.08.11-.14.24-.17.38a1.125 1.125 0 00.13.8c.08.12.18.22.29.3.11.08.24.14.38.17 5.28 1.25 10.51 2.77 15.55 4.53.11.04.23.06.35.06zm68.7 82.11a1.053 1.053 0 00-1.27-.79c-.27.07-.51.24-.66.47-.15.24-.19.53-.13.81 1.21 5.16 2.57 10.65 4.26 15.83.09.27.28.49.53.62.25.12.54.15.81.06s.49-.28.61-.53c.13-.25.15-.54.07-.81-1.67-5.11-3.01-10.54-4.22-15.66zm-26.28-59.22c-.19-.2-.46-.31-.74-.32-.28 0-.55.11-.76.31-.2.19-.31.46-.31.74-.01.28.1.55.3.75 3.79 3.86 7.02 7.97 9.9 12.57.08.12.17.22.29.3.11.09.24.14.37.17.14.04.28.04.42.02.13-.03.26-.08.38-.15.12-.07.22-.17.3-.28.08-.12.14-.25.17-.38.03-.14.04-.28.02-.41-.03-.14-.08-.27-.15-.39-2.92-4.67-6.34-9-10.19-12.93zm-12.64-10.5a99.171 99.171 0 00-6.92-4.31c-2.4-1.36-4.85-2.64-7.33-3.85-.26-.11-.54-.13-.81-.03-.26.09-.47.28-.59.53s-.14.54-.05.8c.08.27.27.48.52.61 2.45 1.19 4.85 2.45 7.22 3.79 2.35 1.33 4.63 2.75 6.77 4.21.12.08.24.13.38.16s.28.03.41 0c.14-.02.27-.08.39-.15.11-.08.21-.18.29-.29.08-.12.14-.25.16-.38.03-.14.03-.28.01-.42-.03-.13-.08-.26-.16-.38a.806.806 0 00-.29-.29zm120.49 129.02c-5.72-.13-11.16-.46-16.16-.98a.941.941 0 00-.41.03c-.14.04-.26.11-.37.2-.11.08-.2.19-.26.31-.07.13-.11.26-.12.4-.02.14-.01.28.03.41.04.13.11.26.2.37.08.11.19.19.31.26.13.07.26.11.4.12 5.06.53 10.56.87 16.33 1h.02c.28 0 .55-.11.74-.31.2-.19.31-.46.32-.74 0-.27-.11-.54-.3-.74-.19-.2-.45-.32-.73-.33zm-90.34-90.85c-.05-.13-.13-.25-.22-.35-.1-.1-.22-.18-.34-.24a1.15 1.15 0 00-.41-.08.915.915 0 00-.4.07c-.27.1-.48.3-.59.56-.11.26-.12.55-.02.81 1.77 4.53 3.32 9.42 4.89 15.42.07.27.25.5.49.65.24.14.53.18.81.11.13-.04.26-.1.37-.18.11-.09.2-.19.27-.31s.12-.26.14-.39c.02-.14.01-.28-.03-.42-1.59-6.07-3.17-11.05-4.96-15.65zm58.27 87.3c-5.61-1.29-10.73-2.95-15.23-4.95a1.08 1.08 0 00-.81-.02c-.26.1-.47.3-.59.56-.11.26-.12.55-.01.81.1.26.3.47.55.59 4.62 2.05 9.88 3.76 15.62 5.07a1.053 1.053 0 001.13-1.59c-.14-.24-.38-.41-.66-.47zm64.63 7.2c-5.27-1.19-10.72-2.09-16.19-2.7-.14-.01-.28 0-.42.04a.96.96 0 00-.36.19.975.975 0 00-.39.71c-.02.14-.01.28.03.41.04.13.1.26.19.37.09.11.2.2.32.26.12.07.25.11.39.13 5.4.59 10.77 1.49 15.97 2.66.27.06.56.01.8-.14a1.076 1.076 0 00.47-1.08.893.893 0 00-.15-.38c-.07-.12-.17-.22-.28-.3-.11-.08-.24-.14-.38-.17zm45.22 19.03a.933.933 0 00-.39-.15.945.945 0 00-.41 0 1.037 1.037 0 00-.67.46c-.15.23-.21.52-.15.8.06.27.22.51.46.66 4.53 2.96 8.89 6.21 12.98 9.66.19.16.44.24.69.24.21 0 .42-.06.6-.19.18-.12.32-.3.39-.5.08-.2.09-.43.03-.64-.06-.21-.18-.39-.34-.53-4.16-3.51-8.6-6.81-13.19-9.81zm-14.28-8.14a138.57 138.57 0 00-15.15-6.36.952.952 0 00-.41-.06.91.91 0 00-.4.1c-.13.06-.24.14-.34.25-.09.1-.16.22-.21.35a1.021 1.021 0 00.05.82 1.068 1.068 0 00.61.54c5.09 1.79 10.07 3.88 14.91 6.27.25.12.54.14.81.05.27-.09.49-.28.61-.54a.998.998 0 00.05-.81.94.94 0 00-.2-.35c-.1-.11-.21-.19-.33-.26zm38.22 29.69c-.21.19-.34.45-.35.73-.02.28.08.56.27.77 3.48 3.88 5.23 6.44 5.25 6.47.13.19.31.33.53.4.31-.66.63-1.33.93-2-.63-.88-2.32-3.14-5.14-6.29-.18-.2-.45-.33-.73-.35-.28-.01-.55.08-.76.27zM420.64 75.86c-.05.13-.07.27-.06.41.01.13.05.27.11.4.06.12.14.23.25.32.1.1.22.17.35.21 2.86.99 5.47 2.03 7.76 3.11a1.037 1.037 0 001.21-.22c-.63-.81-1.28-1.62-1.93-2.43a80.58 80.58 0 00-6.35-2.46.952.952 0 00-.41-.06c-.14.01-.27.05-.4.11a.96.96 0 00-.32.25c-.1.1-.17.22-.21.36zm-16.03-3.06a1.061 1.061 0 00.84-1.7c-.16-.21-.39-.35-.65-.4-6.06-1.16-11.99-1.9-17.62-2.18a.952.952 0 00-.41.06c-.13.04-.25.12-.36.21-.1.09-.18.21-.24.33-.06.13-.1.26-.1.4-.01.14.01.28.06.41.04.13.12.25.21.36.09.1.21.18.33.24.13.06.26.1.4.1 5.54.28 11.37 1.01 17.33 2.15.07.01.14.02.2.02h.01zm-175.02 6.11c-5.53 2.07-11 4.46-16.23 7.11-.13.06-.24.14-.33.25-.09.1-.16.23-.21.36a1.082 1.082 0 00.06.81c.06.13.15.24.26.33.1.09.23.16.36.2a1.082 1.082 0 00.81-.06c5.21-2.63 10.56-4.97 16.03-7.02a1.06 1.06 0 00.62-1.36c-.1-.26-.3-.48-.56-.59-.25-.12-.54-.13-.81-.03zm-31.6 15.93c-4.97 3.19-9.81 6.55-14.54 10.08a1.074 1.074 0 00-.4 1.12c.03.13.09.26.18.37a1.074 1.074 0 00.7.42c.14.02.28.01.42-.03.13-.03.26-.1.37-.18 4.69-3.5 9.49-6.84 14.41-10a1.064 1.064 0 00.48-.67c.03-.13.03-.28.01-.41a1.11 1.11 0 00-.16-.39.922.922 0 00-.29-.3 1.009 1.009 0 00-.8-.17c-.13.03-.27.08-.38.16zm171.52-24.5c.27 0 .54-.11.74-.31.19-.19.3-.46.31-.73 0-.28-.11-.55-.3-.75-.19-.2-.45-.32-.73-.32-6-.15-12-.37-17.6-.59-.58-.02-1.07.44-1.09 1.02-.02.28.09.56.28.76.19.21.45.33.73.34 5.6.22 11.61.44 17.63.58h.03zm-104.48.42c-.03-.13-.07-.26-.15-.38-.07-.12-.17-.22-.28-.3a.874.874 0 00-.38-.17.94.94 0 00-.41-.02c-5.95.99-11.77 2.22-17.32 3.67-.14.04-.26.1-.37.19-.11.08-.21.18-.28.3a1.123 1.123 0 00-.11.81c.04.13.1.26.18.37.09.11.19.2.31.27s.25.12.39.14c.14.02.28.01.42-.03 5.48-1.43 11.24-2.65 17.13-3.63.27-.04.52-.2.68-.43.17-.22.23-.51.19-.79zM144.6 140.95c-3.83 4.38-7.61 8.98-11.22 13.68-.09.11-.15.23-.19.37-.04.13-.05.28-.03.42.02.13.06.27.13.39s.17.23.28.31c.11.09.24.15.37.19.14.03.28.04.42.02.14-.01.27-.06.39-.13s.23-.17.31-.28c3.58-4.67 7.33-9.23 11.14-13.57.09-.1.16-.23.2-.36.05-.13.07-.27.06-.41-.01-.14-.05-.27-.11-.4-.06-.12-.15-.23-.25-.32a.946.946 0 00-.36-.21c-.13-.05-.27-.06-.41-.06a1.082 1.082 0 00-.73.36zm-38.3 57.91c-.24-.14-.54-.16-.8-.08-.27.08-.5.27-.63.51-2.66 4.99-5.27 10.15-7.99 15.76-.12.26-.13.55-.04.81.09.27.28.49.54.61.25.12.54.14.81.05.26-.1.48-.29.6-.54 2.7-5.59 5.3-10.72 7.95-15.69.13-.25.16-.54.08-.81s-.27-.49-.52-.62zm18.21-30.17a.992.992 0 00-.38-.16.945.945 0 00-.41 0c-.14.03-.27.08-.38.16-.12.07-.22.17-.3.29-3.23 4.78-6.42 9.8-9.48 14.92-.1.16-.15.34-.15.53-.01.19.04.37.13.53.1.17.23.3.39.4a1.076 1.076 0 001.45-.37c3.04-5.09 6.21-10.08 9.42-14.83.08-.11.13-.24.16-.38.03-.13.03-.28 0-.41a.992.992 0 00-.16-.38.922.922 0 00-.29-.3zm209.77-99.6a1.06 1.06 0 00.04-2.12c-6.81-.23-12.42-.37-17.64-.43h-.01c-.28 0-.55.11-.75.3-.2.2-.31.47-.31.75-.01.28.1.55.3.75.19.2.46.31.74.32 5.21.06 10.8.19 17.6.43h.03zm-164.61 46.92a258.88 258.88 0 00-12.96 12.04c-.15.15-.25.34-.3.54-.04.21-.02.42.06.62.08.19.22.36.39.47.18.12.38.18.59.18.14 0 .28-.02.41-.08.13-.05.24-.13.34-.23 4.15-4.12 8.43-8.1 12.86-11.93.2-.19.33-.45.35-.73.01-.27-.08-.55-.26-.76-.18-.21-.44-.34-.72-.36a1.1 1.1 0 00-.76.24zM281.46 69.8h.09c5.59-.5 11.32-.83 17.53-1.01.58-.02 1.04-.51 1.02-1.09-.01-.59-.5-1.05-1.08-1.03-6.25.18-12.02.52-17.66 1.02-.27.02-.52.15-.7.35a1.075 1.075 0 00.06 1.47c.2.18.46.29.74.29zM91.34 231.95c.06-.12.09-.26.09-.4.01-.14-.02-.28-.06-.41-.05-.13-.13-.25-.22-.35-.1-.1-.21-.18-.34-.24-.12-.06-.26-.09-.4-.1-.14 0-.28.02-.41.07-.13.05-.25.12-.35.22-.1.09-.18.21-.24.33l-1.12 2.47-.79 1.73c.22 1.19.46 2.37.71 3.56.65-1.42 1.31-2.89 2.01-4.42l1.12-2.46zM383.23 49.69c-.28.01-.55.14-.73.34-.19.21-.29.49-.28.77 0 .03.13 2.75-.21 8.35-.01.15.01.29.06.43.05.13.13.26.23.36a1.072 1.072 0 00.77.34c.27 0 .53-.11.73-.29.19-.19.31-.44.33-.71.34-5.73.22-8.47.21-8.59a1.06 1.06 0 00-1.11-1zm-20.72 124.77c-.28-.05-.56.01-.8.16-.23.16-.39.41-.44.68-1.07 5.73-2.1 11.31-3.05 16.61-.05.28.01.56.17.79.16.22.41.38.68.43.28.05.56-.01.79-.17.23-.16.39-.4.44-.67.96-5.29 1.99-10.88 3.05-16.6.06-.27 0-.56-.16-.79-.16-.23-.41-.39-.68-.44zm6.34-33.16c-.28-.06-.56 0-.8.16-.23.15-.39.4-.45.67a9676.7 9676.7 0 00-3.19 16.58c-.05.28.01.56.16.79.16.24.4.39.68.45.27.05.56-.01.79-.17.23-.15.39-.39.45-.67 1.06-5.53 2.12-11.05 3.19-16.57.06-.28 0-.56-.16-.8-.15-.23-.4-.39-.67-.44zm-12.36 66.37c-.28-.05-.57.02-.8.18-.23.16-.38.4-.43.68-.99 5.7-1.95 11.31-2.84 16.65-.02.16-.01.31.03.46.04.15.11.29.21.4.1.12.22.21.36.28.14.06.3.1.45.1a1.056 1.056 0 001.04-.89c.89-5.34 1.84-10.94 2.84-16.63a1.062 1.062 0 00-.86-1.23zm24.95-132.73a.995.995 0 00-.42.02c-.13.03-.26.09-.37.17-.11.08-.21.18-.28.3-.07.12-.12.25-.15.39-.64 4.06-1.61 9.49-2.95 16.6-.05.27.01.56.17.79.15.23.4.39.67.44.28.06.57 0 .8-.16.23-.16.39-.4.44-.68 1.36-7.23 2.31-12.52 2.97-16.66.04-.27-.03-.56-.19-.79a1.07 1.07 0 00-.69-.42zm-30.5 166.05c-.58-.09-1.12.32-1.21.89-.85 5.42-1.97 10.95-3.34 16.41a1.056 1.056 0 00.56 1.21c.15.07.3.11.47.11.23 0 .46-.08.65-.23.18-.14.32-.35.37-.57 1.39-5.53 2.53-11.12 3.38-16.58l.01-.06c.08-.57-.32-1.1-.89-1.18zm20.74-114.18c.27.05.56-.01.79-.17.23-.15.4-.4.45-.67l.65-3.31c.9-4.63 1.77-9.06 2.59-13.26.06-.28 0-.56-.16-.8-.16-.23-.4-.39-.68-.44a.945.945 0 00-.41 0c-.14.02-.27.08-.38.16-.12.07-.22.17-.29.29-.08.12-.13.25-.16.38-.82 4.2-1.68 8.63-2.59 13.26l-.65 3.31c-.05.28 0 .56.16.8.16.23.4.39.68.45zm-41.84 177.97a1.082 1.082 0 00-.81-.06c-.13.04-.25.11-.36.2-.11.09-.19.2-.26.32-2.51 4.89-5.25 9.83-8.15 14.7-.09.16-.15.35-.15.53 0 .19.05.37.14.54.09.16.23.3.39.39.16.09.34.14.53.14.18 0 .37-.04.53-.13.15-.09.29-.23.38-.38 2.93-4.91 5.69-9.89 8.22-14.82a1.124 1.124 0 00.07-.81 1.144 1.144 0 00-.53-.62zm-38.91 56.17c-3.62 4.29-7.34 8.49-11.17 12.59-.18.21-.28.48-.27.76.02.28.14.54.34.73.2.19.47.29.75.28.28-.01.54-.12.73-.32 3.86-4.13 7.6-8.36 11.24-12.68.09-.1.16-.23.2-.36.04-.13.06-.27.05-.41a.931.931 0 00-.12-.4.93.93 0 00-.26-.33c-.1-.09-.23-.15-.36-.2-.13-.04-.27-.05-.41-.04-.14.01-.28.05-.4.12-.12.06-.23.15-.32.26zm21.78-27.1c-.12-.08-.25-.13-.38-.16-.14-.03-.28-.03-.42-.01-.13.03-.26.08-.38.16s-.22.18-.29.29c-3.15 4.65-6.42 9.2-9.81 13.67-.17.23-.24.51-.2.79.04.27.19.52.41.69.22.17.5.25.78.21.28-.04.53-.18.7-.41 3.43-4.52 6.75-9.15 9.87-13.76.16-.23.22-.52.16-.8-.05-.27-.21-.51-.44-.67zm30.25-60.13a.952.952 0 00-.41-.06c-.14.01-.27.05-.4.11-.12.06-.23.15-.33.25-.09.1-.16.23-.2.36-1.78 5.19-3.81 10.46-6.04 15.66-.07.17-.1.34-.08.52.01.17.07.34.17.48.09.15.22.27.38.36a1.084 1.084 0 001.08-.05c.18-.12.31-.28.39-.47 2.26-5.25 4.31-10.58 6.1-15.82.09-.26.07-.55-.05-.81-.12-.25-.34-.44-.61-.53zm-73.4 111.73c-.1-.1-.21-.18-.34-.23a.934.934 0 00-.4-.09.96.96 0 00-.41.07c-.13.05-.25.13-.35.22-3.84 3.68-6.18 5.67-6.2 5.69-.36.31-.46.81-.28 1.23l1.92.15c.72-.62 2.84-2.49 6.03-5.54.2-.19.32-.46.32-.74.01-.28-.1-.55-.29-.76z" fill="#232323"/></g><path d="M58.884 176.044h135.892v216.452H58.884z"/><g clip-path="url(#i)"><path d="M59.65 255.02h100.62v-78.98H59.65v78.98z" fill="#D8C5F3"/><path d="M105.45 255.02h15.25v-77.81h-15.25v77.81z" fill="#FFF"/><path d="M138.17 240.69c-.2 0-.36.16-.36.36v7.1c0 .2-.17.36-.37.36h-4.4a.59.59 0 01-.14-.02.36.36 0 01-.12-.08.834.834 0 01-.08-.12.353.353 0 01-.03-.14v-7.1c0-.2-.16-.36-.36-.36h-1.51a.41.41 0 01-.22-.07.386.386 0 01-.06-.52l2.14-2.74 2.3-2.96c.02-.01.03-.04.06-.06.16-.13.4-.1.51.06l2.31 2.96 2.14 2.74c.04.06.07.13.07.22 0 .21-.16.37-.37.37h-1.51zm12.95-5.86c0-.18-.15-.33-.32-.33h-6.65c-.17 0-.32.15-.32.33v4.26c0 1.86 1.41 3.43 3.26 3.64v5.17h-2.66c-.17 0-.32.14-.3.32 0 .18.14.31.3.31h6.06c.18 0 .32-.15.31-.32 0-.18-.15-.31-.31-.31h-2.74v-5.16c1.9-.15 3.37-1.73 3.37-3.65v-4.26zm-6.64.32h5.99v3.94c0 1.66-1.34 3.01-3 3.01s-2.99-1.35-2.99-3.01v-3.94z" fill="#232323"/><path d="M59.65 392.49h135.12V255.02H59.65v137.47z" fill="#D8C5F3"/><path d="M60.92 339.57h132.45v-20.73H60.92v20.73z" fill="#FFF"/><path d="M184.99 269.33a2.1 2.1 0 11-4.2 0 2.1 2.1 0 014.2 0zm-12.35 0c0 1.16-.93 2.1-2.09 2.1a2.1 2.1 0 110-4.2c1.16 0 2.09.94 2.09 2.1zm-12.37.33a2.1 2.1 0 11-4.2 0 2.1 2.1 0 014.2 0z" fill="#232323" fill-rule="evenodd"/><path d="M110.05 276.76c-.28 0-.53.22-.53.52v10.46c0 .28-.22.53-.52.53h-6.49c-.31 0-.55-.22-.55-.53v-10.49c0-.27-.25-.52-.56-.52h-2.24c-.11 0-.24-.03-.33-.11a.537.537 0 01-.08-.75l3.15-4.03 3.4-4.39.08-.08c.22-.19.55-.14.75.08l3.39 4.39 3.15 4.06c.09.08.11.22.11.33 0 .28-.22.53-.52.53h-2.21z" fill="#232323"/><mask id="j" maskUnits="userSpaceOnUse" x="59.65" y="176.044" width="100.625" height="78.98"><path d="M59.65 176.04v78.98h100.62v-78.98H59.65z" fill="#000"/></mask><g mask="url(#j)"><path d="M59.51 255.17c-.16 0-.33-.06-.44-.18a.636.636 0 01.44-1.09l100.76-.07c.17 0 .33.07.45.19a.613.613 0 010 .89c-.12.12-.28.19-.45.19l-100.76.07z" fill="#232323"/></g></g><path d="M188.84 35.7h32.436v55.332H188.84z"/><g clip-path="url(#k)"><path d="M216.58 52.36c0 6.33-5.1 11.46-11.4 11.46-6.3 0-11.41-5.13-11.41-11.46 0-6.33 5.11-11.47 11.41-11.47s11.4 5.14 11.4 11.47z" fill="#FFF" fill-rule="evenodd"/><path d="M205.05 35.7c-8.95-.01-16.21 8.45-16.21 18.87-.01 17.04 16.21 36.46 16.21 36.46s16.22-22.02 16.22-36.45c0-10.43-7.26-18.88-16.22-18.88zm.05 25.94c-4.88 0-8.84-3.98-8.84-8.89s3.96-8.89 8.84-8.89c4.89 0 8.85 3.98 8.85 8.89s-3.96 8.89-8.85 8.89z" fill="#00676C"/></g><path d="M365.436 13.864h32.436v55.332h-32.436z"/><g clip-path="url(#l)"><path d="M393.18 30.52c0 6.33-5.11 11.46-11.41 11.46s-11.41-5.13-11.41-11.46c0-6.33 5.11-11.46 11.41-11.46s11.41 5.13 11.41 11.46z" fill="#FFF" fill-rule="evenodd"/><path d="M381.65 13.86c-8.96 0-16.22 8.45-16.22 18.88 0 17.03 16.22 36.45 16.22 36.45s16.22-22.02 16.22-36.45c0-10.43-7.26-18.88-16.22-18.88zm.05 25.95c-4.89 0-8.85-3.98-8.85-8.89s3.96-8.89 8.85-8.89c4.88 0 8.85 3.98 8.85 8.89s-3.97 8.89-8.85 8.89z" fill="#00676C"/></g><path d="M336.604 175.408h32.436v55.332h-32.436z"/><g clip-path="url(#m)"><path d="M364.35 192.06c0 6.33-5.11 11.47-11.41 11.47s-11.41-5.14-11.41-11.47c0-6.33 5.11-11.46 11.41-11.46s11.41 5.13 11.41 11.46z" fill="#FFF" fill-rule="evenodd"/><path d="M352.82 175.4c-8.96 0-16.22 8.46-16.22 18.88 0 17.04 16.22 36.46 16.22 36.46s16.21-22.03 16.21-36.46c.01-10.42-7.26-18.88-16.21-18.88zm.05 25.95c-4.89 0-8.85-3.98-8.85-8.89s3.96-8.89 8.85-8.89c4.88 0 8.84 3.98 8.84 8.89s-3.96 8.89-8.84 8.89z" fill="#00676C"/></g></g></g></svg>