<svg width="560" height="399" fill="none" xmlns="http://www.w3.org/2000/svg"><defs><clipPath id="c"><path transform="translate(3 173.372)" fill="#fff" fill-opacity="0" d="M0 0h322.355v224.051H0z"/></clipPath><clipPath id="d"><path transform="translate(325 233.5)" fill="#fff" fill-opacity="0" d="M0 0h218v165H0z"/></clipPath><clipPath id="b"><path transform="translate(3 172.5)" fill="#fff" fill-opacity="0" d="M0 0h521v226H0z"/></clipPath><clipPath id="e"><path transform="rotate(12.503 289.952 1529.477)" fill="#fff" fill-opacity="0" d="M0 0h202.652v92.353H0z"/></clipPath><clipPath id="a"><path transform="translate(0 -.5)" fill="#fff" fill-opacity="0" d="M0 0h560v399H0z"/></clipPath></defs><path d="M0-.5h560v399H0z"/><g clip-path="url(#a)"><path d="M404.35 242.5C331.6 139.59 202.73 32.95-27 39.5m9.5 228c34.5-133 206-182 465-217.5" stroke="#000" stroke-dasharray="32 32"/><path d="M3 172.5h521v226H3z"/><g clip-path="url(#b)"><path d="M3 173.372h322.355v224.051H3z"/><g clip-path="url(#c)"><path d="M63.73 343.29c-17.79-8.61-51.68-27.89-59.64-18.46-6.38 9.32 15.33 22.81 59.64 18.46zm138.49 12.34c10.71-24.52 46.46-45.84 56-38.02 7.98 7.99-11.85 33.52-56 38.02z" fill="#232323"/><path d="M324.59 255.2c.4 9.58-27.93 98.31-46.18 119.29-17.69 20.33-32.22 18.62-46.63 9.75-18.48-11.38-27.15-26.25-27.27-26.44 0-.01.01-.02.01-.04.08-.37.73-3.11 2.84-7.54 4.07-8.5 13.55-23.21 34.82-39.17 2.39 2.16 4.69 4.41 6.88 6.75 3 3.2 4.75 5.42 4.75 5.42l18.49-26.74c2.8-4.06 4.18-8.93 3.95-13.86-.08-1.82-.08-3.7.11-5.23.91-5.48 1.76-6.84 4.08-.68 1.75 5.32 6.53 5.39 8.88 3.94 2.28-1.53 3.78-5.87-.03-8.88-2.08-1.52-5.86-1.16-8.76-.97-4.49-.06-.94-3.34 2.13-4.42 5.26-1.85 13.47-1.52 18.01 1.61-1.34-2.57-7.08-9.65-9.12-12.13-1.69-2.15-4.39-6.63-1.88-6.32 5.81.71 16.23 10.76 18.23 14.92.37-1.87 1.68-15.13 2.16-17.38.59-2.76 1.89-4.6 3.54-2.56 2.94 3.66 1.87 20.69 1.87 20.69s4.94-10.66 5.87-12.04c1.09-1.62 3.06-2.41 3.25 2.03z" fill="#FFF"/><path d="M250.59 391.29c-5.99 0-12.18-2.08-19.21-6.4-18.28-11.26-27.15-26.07-27.52-26.7a.716.716 0 01-.1-.29.952.952 0 01.01-.29c.07-.32.71-3.13 2.9-7.71 4.48-9.36 14.19-23.8 35.06-39.46.14-.1.31-.15.49-.15.17.01.34.08.47.2 2.41 2.17 4.72 4.44 6.94 6.81 1.95 2.07 3.36 3.73 4.13 4.65l17.91-25.91c2.69-3.88 4.05-8.63 3.82-13.38-.1-2.16-.06-3.97.11-5.36 0-.01.01-.02.01-.03.59-3.54 1.08-5.25 2.31-5.37 1.08-.11 1.93 1.08 3.23 4.55.01.01.01.02.01.03.66 1.98 1.83 3.33 3.4 3.91 1.72.63 3.42.19 4.35-.38.93-.63 1.89-2 1.95-3.66.04-1.05-.28-2.59-2.03-3.97-1.73-1.26-5.04-1.04-7.7-.86l-.55.04h-.06c-1.74-.03-2.7-.53-2.86-1.49-.3-1.83 2.95-3.78 4.75-4.41 4.33-1.53 11.1-1.68 16.07.32-2.3-3.24-6.14-7.96-7.51-9.63-.41-.53-3.91-5.05-2.88-6.87.17-.31.62-.82 1.67-.69 5.31.65 14.16 8.6 17.68 13.49.18-1.43.4-3.38.63-5.41.48-4.27.98-8.68 1.25-9.95.35-1.63 1.07-3.64 2.51-3.98.56-.13 1.43-.05 2.36 1.11 2.24 2.78 2.35 12.02 2.2 17.4 1.54-3.27 3.71-7.8 4.32-8.71.83-1.24 1.89-1.82 2.83-1.55 1.1.31 1.71 1.65 1.81 3.97.21 5.15-7.18 30.64-16.14 55.67-5.11 14.24-10.34 27.32-15.14 37.83-5.73 12.55-10.81 21.41-15.09 26.33-8.45 9.72-16.64 14.98-25.02 16.08-1.12.15-2.24.22-3.37.22zm-45.27-33.62c1.29 2.09 9.97 15.53 26.85 25.92 8.05 4.95 14.91 6.85 21.6 5.97 7.99-1.05 15.87-6.14 24.07-15.57 7.7-8.86 18.62-32.07 29.94-63.68 8.75-24.44 16.25-50.18 16.05-55.08-.08-1.97-.53-2.53-.7-2.58-.19-.05-.7.25-1.16.94-.74 1.1-4.44 8.99-5.81 11.94-.07.17-.2.29-.36.37-.16.08-.34.1-.51.05a.685.685 0 01-.43-.29.723.723 0 01-.14-.49c.29-4.66.55-17.36-1.71-20.17-.33-.41-.64-.62-.83-.58-.33.08-.96.89-1.38 2.82-.25 1.19-.77 5.77-1.23 9.8-.4 3.59-.75 6.69-.93 7.57-.03.16-.11.3-.22.41-.12.11-.27.18-.42.2a.737.737 0 01-.46-.09.706.706 0 01-.32-.34c-1.93-4.01-12.12-13.81-17.65-14.49-.06-.01-.11-.01-.17-.01-.08.65 1.07 2.98 2.75 5.1 2.3 2.81 7.84 9.65 9.2 12.25.07.15.1.33.07.49a.77.77 0 01-.24.43c-.13.12-.29.18-.46.19a.744.744 0 01-.48-.13c-4.52-3.12-12.51-3.22-17.33-1.52-2.08.73-3.67 2.18-3.75 2.69.09.06.41.23 1.35.25l.52-.04c2.91-.19 6.53-.43 8.71 1.15l.02.02c1.76 1.39 2.69 3.25 2.62 5.24-.07 1.93-1.11 3.84-2.63 4.87-.01.01-.02.01-.03.02-1.61.99-3.84 1.19-5.68.52-1.41-.52-3.3-1.78-4.31-4.85-.89-2.34-1.41-3.15-1.65-3.44-.21.37-.54 1.36-.97 3.97-.16 1.31-.2 3.02-.1 5.09.24 5.08-1.22 10.17-4.09 14.32l-18.49 26.74c-.07.1-.16.18-.26.23-.11.06-.22.09-.34.1-.12 0-.24-.02-.35-.07-.1-.06-.2-.13-.27-.22-.02-.02-1.76-2.23-4.7-5.36a.38.38 0 00-.05-.06 116.01 116.01 0 00-6.32-6.23c-20.28 15.32-29.73 29.38-34.1 38.51-1.81 3.79-2.52 6.34-2.72 7.12z" fill="#232323"/><path d="M241.21 347.74a.773.773 0 01-.61-.3.781.781 0 01-.13-.66c2.87-10.32 13.54-25.5 16.02-28.7a.74.74 0 01.51-.29c.1-.01.2 0 .29.02.1.03.19.07.27.14.08.06.14.13.19.22.05.09.08.18.09.28.02.1.01.2-.02.3-.02.09-.07.18-.13.26-2.45 3.16-12.95 18.1-15.75 28.17a.78.78 0 01-.28.41c-.13.1-.29.15-.45.15zm61.09-75.47c-.17 0-.34-.06-.47-.17a.759.759 0 01-.27-.43c-.6-2.83-2.13-4.64-2.87-5.51l-.09-.11a.681.681 0 01-.15-.26.702.702 0 01-.03-.29c.01-.1.04-.2.08-.29a.764.764 0 01.44-.38c.1-.03.2-.04.3-.03.1.01.19.04.28.08.09.05.17.11.24.19l.09.1c.81.97 2.52 2.98 3.2 6.18.02.12.02.23-.01.34a.61.61 0 01-.15.3.725.725 0 01-.59.28zm3.88-.06a.74.74 0 01-.36-.09c-.1-.06-.2-.14-.27-.24a.78.78 0 01-.13-.34.89.89 0 01.04-.36c.77-2.09 1.69-5.86 2-9.53.02-.2.12-.38.28-.51.15-.13.35-.19.54-.17a.768.768 0 01.7.81c-.33 3.81-1.29 7.73-2.09 9.93-.06.14-.15.27-.28.36a.76.76 0 01-.43.14zm5.64 3.01c-.11 0-.23-.03-.33-.08s-.2-.13-.27-.22a.727.727 0 01-.14-.31.827.827 0 01.01-.35c1.07-4.1 5.34-12.94 5.52-13.32.05-.09.11-.17.18-.23.08-.07.16-.12.26-.15.09-.03.19-.05.29-.04.1 0 .2.03.29.07.09.05.17.11.23.18.07.08.12.16.15.26.04.09.05.19.05.29-.01.1-.04.2-.08.29-.04.09-4.38 9.08-5.42 13.04a.763.763 0 01-.74.57zm-11.08 24.02c-.17 0-.33-.06-.47-.17a.789.789 0 01-.27-.42c-.02-.11-.05-.24-.09-.38-.58-2.38-2.37-9.63 2.35-19.98.04-.09.1-.17.17-.24.07-.07.16-.12.25-.16a.93.93 0 01.29-.05c.1.01.2.03.29.07.09.04.17.1.24.18.07.07.12.16.16.25.03.09.05.19.05.29-.01.1-.03.2-.07.29-4.49 9.87-2.87 16.49-2.25 18.99.04.15.07.28.09.39.03.11.03.23 0 .34a.705.705 0 01-.41.52.73.73 0 01-.33.08zm-120.22-97.08c-.02.01-.04.02-.05.02-.02.01-.03.01-.05.02-.01 0-.02.01-.03.01-1.63.61-3.68 1.85-5.92 3.47-3.18 2.29-6.77 5.32-10.16 8.37-.9.81-1.79 1.62-2.65 2.42a685.62 685.62 0 00-3.33 3.15c-3.08 2.95-5.49 5.39-6.52 6.44-.35.36-.54.55-.54.55s-10.31-12.07-15.58-14.12c.09-.44.16-.9.21-1.35v-.03c.59-5.77-2.13-12.22-3.78-15.42-4.87-9.38 7.38-21.94 18.37-14.48 1.52-8.56 15.6-11.54 20.38-1.62.16.35.32.72.47 1.1.01.02.01.05.02.07 3.16-1.87 6.99-2.07 10.38-.66 7.63 3.15 9.49 18.09-1.22 22.06z" fill="#232323"/><path d="M183.91 244.79c-8.3 4.7-19.16 2.36-19.69 2.24h-.02s0 .01-.01.03v.04c-.02.38-.11 2.18-.01 5.11.03 1.04.08 2.23.17 3.54.16 2.3.42 5 .85 8.02-.07.09-.15.19-.23.29-.37.41-.94.9-1.69 1.42-3.14 2.18-9.54 4.87-17.92 4.53-9.33-.37-16.81-5-20.21-8.71l-.08-.1c1.87-4.57 4.72-11.32 8.44-19.43 1.02-2.23 2.11-4.57 3.27-7 .1-.21.2-.43.31-.65.13-.26.25-.53.38-.8.04-.07.07-.15.11-.22l.08-.17c-6.01-.8-15.34-7.08-13.88-15.26.42-2.36 1.9-4.52 3.89-5.88.21-.14.42-.27.64-.39.22-.13.44-.24.67-.35.08-.03.15-.06.22-.09.86-.38 1.79-.61 2.75-.65.19-.02.4-.02.6-.01.08 0 .15.01.23.01.14.01.29.02.44.04h.01c.38.05.75.12 1.13.23.55.16 1.06.33 1.54.53 3.6 1.48 5.38 4.09 8.71 7.71 1.17 1.27 2.06 1.88 2.82 1.96.05 0 .1.01.15.01.04 0 .08-.01.12-.01.04 0 .08-.01.12-.01.09-.01.19-.04.28-.07.04-.01.09-.03.13-.05.08-.04.15-.07.21-.12.04-.02.08-.05.12-.08.95-.67 1.77-2.34 2.9-4.59 1.09-2.16 2.48-4.19 3.89-5.91.1-.11.19-.23.29-.34.16-.19.32-.38.49-.57l.51-.57c.09-.1.19-.2.28-.3.15-.16.31-.32.46-.48.08-.08.16-.16.25-.24.44-.44.89-.86 1.37-1.27.24-.2.5-.4.76-.59.54-.4 1.12-.75 1.71-1.06.91-.48 1.9-.87 2.92-1.21h.01c1.44-.46 2.98-.79 4.55-1.02.72-.1 1.44-.18 2.16-.24 2.12-.17 4.23-.18 6.19-.09.89.04 1.75.1 2.56.17l.56.06c.04 0 .07.01.1.01.01 1.73.06 3.46.14 5.18v.01c.15 3.17.44 6.34.86 9.49.45 3.47 1.59 6.16 2.84 8.62.16.31.32.63.48.94.14.27.28.53.42.8.14.26.28.52.41.78.14.28.29.55.43.82.09.18.18.37.27.55.05.09.09.18.14.27.27.55.52 1.11.75 1.67.08.19.16.38.23.57.07.19.14.38.21.58.07.19.13.39.19.59.34 1.09.58 2.23.68 3.49.26 3.12-1.39 6.37-4.66 8.22z" fill="#FFF"/><path d="M146.83 270.8c-.49 0-.99-.01-1.5-.03-9.61-.38-17.17-5.07-20.74-8.96l-.08-.09a.806.806 0 01-.19-.38.755.755 0 01.05-.42 496.85 496.85 0 018.45-19.46c1.07-2.35 2.16-4.69 3.27-7.02.07-.14.15-.3.22-.45l.23-.49c-3.59-.78-8.35-3.25-11.29-7.29-1.98-2.71-2.75-5.71-2.22-8.67.45-2.53 1.98-4.85 4.21-6.38.23-.15.46-.29.7-.43.24-.13.48-.26.73-.37.07-.04.15-.07.23-.1.97-.42 1.98-.66 3.01-.71.22-.02.45-.02.67-.01.09 0 .17.01.25.01.15.01.3.02.45.04.02 0 .03 0 .04.01.42.05.84.13 1.25.25.55.15 1.1.34 1.63.56 3.07 1.27 4.91 3.34 7.24 5.97.54.61 1.11 1.25 1.73 1.93.99 1.08 1.78 1.65 2.34 1.71.04.01.09.01.13 0l.1-.01c.02 0 .06-.01.11-.03.03-.01.04-.01.05-.02l.12-.06c.02-.02.04-.03.07-.04l.03-.03c.78-.55 1.58-2.15 2.6-4.18l.06-.13c1.02-2.03 2.4-4.12 3.99-6.05.1-.13.19-.24.29-.36.16-.19.33-.38.49-.57.18-.2.36-.4.54-.59.1-.11.19-.21.29-.31.15-.16.31-.32.47-.48.07-.08.16-.17.25-.25.45-.46.92-.89 1.41-1.31.26-.22.53-.43.81-.63.57-.42 1.18-.79 1.81-1.11.88-.47 1.89-.89 3-1.25.01-.01.02-.01.03-.01 1.41-.45 2.99-.81 4.68-1.05.74-.11 1.47-.19 2.21-.25 1.97-.16 4.07-.19 6.27-.09h.02c.86.04 1.73.1 2.59.18l.54.05c.03 0 .06 0 .09.01.39.02.72.36.72.76.01 1.69.05 3.42.14 5.15v.01c.15 3.15.44 6.29.86 9.42.44 3.44 1.58 6.05 2.75 8.37.16.32.32.63.48.94.14.26.28.52.42.79.09.16.17.32.25.48l.87 1.69c.05.1.09.19.14.27.28.57.53 1.14.78 1.72.08.2.15.39.23.59.07.2.15.4.22.61.07.19.14.39.2.61.38 1.22.61 2.42.71 3.65.3 3.58-1.63 7.01-5.04 8.95-7.32 4.14-16.52 2.98-19.37 2.49-.03.86-.04 2.3.02 4.24.04 1.21.09 2.36.17 3.51.18 2.59.46 5.27.84 7.97.02.19-.02.39-.14.55-.08.11-.17.23-.27.34-.43.48-1.06 1.02-1.82 1.54-1.65 1.14-7.55 4.7-16.89 4.7zm-20.87-9.76c3.71 3.89 11.07 7.88 19.43 8.21 7.75.31 14.1-2.07 17.46-4.4.66-.45 1.21-.91 1.55-1.29v-.01c-.36-2.57-.62-5.15-.8-7.74-.08-1.19-.14-2.38-.18-3.58-.09-2.87-.01-4.68.01-5.17v-.02l.01-.02c-.02-.25.09-.47.28-.62.2-.15.45-.17.68-.1.83.18 11.21 2.32 19.14-2.17 2.89-1.64 4.53-4.51 4.28-7.5-.09-1.12-.31-2.21-.65-3.33-.06-.18-.12-.37-.19-.56-.06-.18-.13-.37-.2-.56-.07-.18-.14-.36-.22-.54-.15-.37-.31-.74-.48-1.1-.08-.18-.17-.36-.25-.53-.05-.1-.1-.19-.14-.29l-.85-1.64c-.08-.16-.17-.32-.25-.48-.14-.27-.28-.53-.42-.79-.17-.32-.33-.64-.49-.96-1.23-2.44-2.44-5.2-2.91-8.86-.42-3.17-.71-6.36-.87-9.56v-.01c-.07-1.51-.12-3.01-.13-4.52-.83-.07-1.67-.13-2.51-.17-2.13-.1-4.18-.07-6.08.09-.7.06-1.41.13-2.12.24-1.6.23-3.08.56-4.4.98l-.03.01c-1.04.33-1.98.72-2.8 1.16-.57.29-1.11.62-1.62 1-.25.17-.49.36-.72.55-.46.39-.9.8-1.33 1.23l-.23.23c-.15.16-.3.31-.45.47-.1.1-.19.19-.27.29-.18.18-.35.37-.52.57-.15.18-.31.36-.47.55-.1.11-.19.22-.27.33-1.53 1.85-2.84 3.84-3.81 5.77l-.07.13c-1.14 2.29-1.97 3.95-3.05 4.73-.06.05-.13.09-.19.13-.09.06-.19.11-.29.15-.08.04-.15.07-.22.09-.13.05-.27.08-.41.09l-.02.01c-.05 0-.1.01-.15.01-.13.01-.25.01-.38 0-.98-.11-2-.78-3.31-2.2-.63-.69-1.2-1.33-1.75-1.95-2.28-2.58-3.93-4.44-6.68-5.57-.48-.2-.97-.37-1.46-.51-.33-.09-.66-.16-.99-.2-.02 0-.04 0-.06-.01l-.37-.03c-.08-.01-.14-.01-.21-.01-.18-.01-.36-.01-.54 0-.85.05-1.68.25-2.49.6-.07.02-.13.05-.2.08-.22.1-.42.21-.61.32-.19.1-.38.22-.59.36-1.87 1.28-3.2 3.29-3.57 5.39-.46 2.57.19 5.1 1.94 7.5 2.84 3.9 7.83 6.4 11.29 6.86a.789.789 0 01.57.39c.06.11.09.22.09.34 0 .12-.02.24-.07.35l-.09.18c-.03.08-.07.14-.1.21-.08.17-.15.32-.23.48l-.25.53-.21.45c-1.11 2.32-2.2 4.65-3.27 6.99a502.09 502.09 0 00-8.24 18.95z" fill="#232323"/><path d="M158.13 210.7l.01-.51c.02-.16.03-.31.05-.45.04-.29.1-.6.19-.87.16-.58.39-1.13.68-1.66a8.1 8.1 0 012.5-2.74c.55-.38 1.15-.67 1.77-.88.63-.22 1.3-.34 1.97-.35.65-.01 1.3.08 1.92.29.61.19 1.19.51 1.67.93.29.26.47.64.49 1.03.02.4-.11.79-.38 1.09-.1.11-.23.21-.36.29l-.25.14c-.47.28-.88.45-1.24.64-.36.17-.68.36-.97.51-.59.32-1.1.59-1.66.93-.57.32-1.16.71-1.81 1.16l-1.05.71c-.18.14-.37.26-.56.38-.44.31-.94.5-1.48.56-.28.03-.56-.01-.82-.12-.35-.15-.6-.46-.67-.84.01-.08 0-.17 0-.24zm2.52 4.23c1.4-.3 4.79-.94 7.93-2.54.44-.21.97-.04 1.2.4v.01c.57 1.15 1.18 3.15-1.11 3.96-2.79 1-7.31.12-8.3-1.1a.797.797 0 01-.08-.16.546.546 0 01-.01-.18c.01-.06.03-.12.06-.17a.49.49 0 01.12-.13c.06-.04.12-.07.19-.09zm19.21-2.83c-1.43.19-2.48.08-5.08-.23a.891.891 0 00-1 .77c-.16 1.26.46 2.55 2.49 2.77 2.27.25 3.68-1.43 4.08-2.7.07-.24-.06-.5-.29-.58-.07-.03-.13-.03-.2-.03zm.8-4.71h-.02c-.53-.17-1.03-.33-1.49-.45-.56-.15-1.07-.26-1.67-.41-.28-.07-.6-.16-.96-.22-.37-.08-.76-.13-1.23-.26l-.25-.05c-.14-.04-.27-.1-.39-.18a.862.862 0 01-.18-.14c-.48-.44-.59-1.17-.23-1.73.32-.49.73-.9 1.22-1.22.49-.32 1.03-.57 1.6-.71.06-.01.12-.03.18-.04.02 0 .03-.01.06-.01a5.84 5.84 0 011.56-.12c.56.04 1.12.14 1.66.31-.02.01-.04.02-.05.02-.02.01-.03.01-.05.02.04 0 .07.01.1.01.01 1.73.06 3.46.14 5.18zm-16.31 47.6c-.02 0-.05-.01-.07-.01-.21-.04-.43-.09-.66-.15-.15-.04-.31-.08-.47-.13-11.72-3.48-11.45-13.61-9.97-14.5 3.78 3.86 11.03 6.07 11.03 6.07h.01-.02s0 .01-.01.03c0 .27-.05 2.3-.01 5.15.03 1.04.08 2.23.17 3.54z" fill="#232323"/><path d="M137.63 232.93l4.72.18-4.72-.18z" fill="#FFF"/><path d="M142.35 233.87h-.03l-4.72-.18a.78.78 0 01-.53-.25.82.82 0 01-.2-.54c.01-.1.03-.2.07-.29.04-.09.1-.18.18-.24.07-.07.15-.12.25-.16.09-.03.19-.05.29-.04l4.72.18a.77.77 0 01.73.78.8.8 0 01-.23.52.75.75 0 01-.53.22zm34.9-5.02c-.32.42-.75.74-1.2.98-.45.23-.94.39-1.44.47-1 .17-2.04.1-3.02-.31-.47-.2-.92-.48-1.32-.81a5.03 5.03 0 01-1.01-1.15c-.56-.87-.83-1.93-.69-2.94a.507.507 0 01.49-.42c.12.01.23.05.32.13s.14.18.16.3v.02c.09.77.39 1.49.87 2.1.47.6 1.08 1.07 1.77 1.37.67.29 1.47.39 2.24.33.78-.06 1.53-.29 2.14-.74l.02-.02a.495.495 0 01.63.05c.08.09.13.2.14.32a.47.47 0 01-.1.32zm-1.75-6.39a.738.738 0 01-.73-.55.75.75 0 01.33-.86c1.3-.8 1.63-1.3 1.68-1.59.07-.48-.56-1.22-1.23-2.01-2.44-2.86-1.77-4.8-1.69-5.01a.75.75 0 01.97-.42c.19.07.34.21.42.39a.8.8 0 01.03.57c-.02.06-.37 1.37 1.42 3.48.91 1.06 1.76 2.07 1.58 3.24-.15.91-.88 1.73-2.38 2.65-.12.07-.26.11-.4.11zm-35.1 3.13a.746.746 0 01-.73-.54c-2.33-7.85-8.79-7.54-9.06-7.52a.761.761 0 01-.81-.71c-.02-.42.29-.78.71-.81.08 0 7.93-.44 10.62 8.6.03.12.04.24.01.35-.02.12-.06.23-.13.33-.08.09-.17.17-.27.22-.11.05-.22.08-.34.08z" fill="#232323"/><path d="M167.25 187.03c-.1 0-.2-.02-.3-.06a.852.852 0 01-.25-.17.744.744 0 01-.16-.27.758.758 0 01-.05-.3c.01-.19.33-4.69 4.86-7.19a.66.66 0 01.28-.09c.1-.01.2 0 .29.02.1.03.19.08.27.14.08.06.14.14.19.23.05.09.08.18.09.28.01.1 0 .2-.03.3-.03.09-.07.18-.13.26-.07.08-.15.14-.23.19-3.77 2.08-4.06 5.79-4.07 5.95-.01.19-.1.37-.24.51-.14.13-.33.2-.52.2z" fill="#FFF"/><path d="M257.29 317.07c-14.33-6.53-46.31 27.47-53.11 42.56-.29 6.81 0 30.73 0 30.73l-134.91.1 7.62-18.14 8.34-15.94.07-.3s-.09-.04-.24-.14c-.56-.33-2.02-1.2-4.17-2.45-1.01-.59-2.01-1.17-3.02-1.74-1.77-1.01-3.54-2.02-5.32-3.01-.22-.11-.44-.24-.67-.37-1.59-.89-3.3-1.83-5.08-2.79-.43-.25-.88-.48-1.33-.73-1.04-.56-2.11-1.13-3.21-1.71-.5-.26-.97-.52-1.47-.77-8.46-4.45-18.06-9.18-26.96-12.87h-.02c-13.67-5.64-25.72-8.82-29.66-4.73l-.03.03c.77-.98 20.86-26.61 46.16-46.98 12.38-9.97 26.02-18.67 39.25-22.62 3.46-1.06 7.01-1.76 10.61-2.09 1.13-.1 2.26-.15 3.37-.16h.74c3.35.03 6.68.52 9.89 1.48.35.1.71.22 1.05.33.08.03.15.05.22.08.32.1.62.21.93.33.23.09.45.17.68.28 2.98 1.21 5.78 2.85 8.31 4.86.06.04.1.07.16.11 0 0 6.35 8.62 20.36 8.62 14.32 0 19.36-6.27 19.36-6.27 1.19-.78 4.78-2.78 6.06-3.41l.28-.13c.22-.1.45-.2.67-.3.38-.18.76-.35 1.15-.51 1.88-.77 3.82-1.38 5.79-1.83.19-.04.4-.09.58-.13.05-.01.08-.01.12-.03.42-.08.82-.16 1.24-.23.12-.03.24-.04.37-.06.27-.04.56-.08.84-.13.04 0 .1-.01.16-.01.44-.06.88-.12 1.33-.16 2.22-.23 4.47-.28 6.7-.13.29.01.58.04.88.05l.48.05c.52.04 1.06.1 1.58.17 7.03.93 14.63 3.63 22.13 9.06 22.63 16.38 41.72 52.03 41.72 52.03z" fill="#00676C"/><path d="M205.43 360.12a.82.82 0 01-.37-.1.746.746 0 01-.27-.26l-10.24-16.06a.644.644 0 01-.11-.27c-.02-.1-.01-.2.01-.3.02-.1.06-.19.12-.27.05-.08.13-.15.21-.21.08-.05.18-.09.28-.11.09-.01.19-.01.29.01.1.02.19.06.27.12.08.06.15.13.21.21l10.24 16.06c.07.12.11.25.12.39 0 .14-.03.27-.1.39-.06.12-.16.22-.27.29-.12.07-.26.11-.39.11z" fill="#232323"/><path d="M133.88 293.68c-.55 0-1.1-.08-1.65-.24-3.05-.88-6.16-4.78-8.13-10.17-2.23-6.14-2.77-13.42-1.53-20.49.27-1.52.56-2.91.87-4.15.02-.1.06-.19.12-.27a.833.833 0 01.5-.31c.1-.01.2-.01.3.02.1.02.19.06.27.12.08.06.15.14.2.23.05.08.09.18.1.28.01.1.01.2-.02.3-.29 1.2-.58 2.56-.84 4.05-2.58 14.6 3.34 27.41 8.58 28.93 1.25.36 2.45.18 3.68-.55 6.66-4 10.59-22.17 10.63-22.35.03-.15.11-.29.22-.4.11-.1.26-.17.41-.2.15-.02.31.01.45.07.13.07.25.18.32.32 1.23 2.21 2.35 5.36 3.54 8.69 2.43 6.82 5.18 14.5 9.08 14.5.24 0 .49-.03.74-.09 1.27-.31 2.37-1.26 3.27-2.84 3.62-6.36 2.93-20.29.86-27.1-.05-.19-.03-.4.06-.57.1-.18.26-.31.45-.37s.4-.04.58.05c.17.1.31.26.37.45 1.16 3.83 1.82 9.22 1.76 14.42-.06 5.93-1.04 10.85-2.76 13.87-1.12 1.96-2.54 3.16-4.24 3.57-.37.09-.75.14-1.13.14-4.93 0-7.86-8.21-10.47-15.52-.86-2.4-1.68-4.71-2.52-6.6-1.27 5.06-4.98 17.74-10.84 21.26-1.06.64-2.14.95-3.23.95z" fill="#FFF"/><path d="M140.32 317.82a.75.75 0 01-.53-.22.736.736 0 01-.23-.53c0-.2.07-.39.21-.54.14-.14.33-.23.52-.24.02 0 1.76-.06 3.64-.81 2.42-.96 3.92-2.55 4.48-4.74 1.94-7.6-1.37-38.3-1.41-38.61-.01-.1 0-.2.03-.29a.794.794 0 01.36-.46.74.74 0 01.84.08c.16.12.26.3.28.51.14 1.27 3.38 31.28 1.37 39.15-.68 2.66-2.56 4.66-5.44 5.8-2.11.83-4.02.89-4.1.9h-.02z" fill="#FFF"/><path d="M146.41 291.37c0 .66-.53 1.19-1.19 1.19a1.195 1.195 0 110-2.39c.66 0 1.19.53 1.19 1.2zm-.33 15.21c0 .66-.54 1.2-1.2 1.2-.66 0-1.2-.54-1.2-1.2 0-.66.54-1.2 1.2-1.2.66 0 1.2.54 1.2 1.2z" fill="#FFF" fill-rule="evenodd"/><path d="M72.22 348.34c-.12 0-.24-.03-.35-.08a.78.78 0 01-.27-.24.83.83 0 01-.13-.34.87.87 0 01.04-.36c8.48-22.98 25.6-46.58 25.77-46.82a.785.785 0 011.06-.16c.16.12.27.3.3.5.03.19-.01.4-.13.56-.17.23-17.17 23.67-25.57 46.45-.06.14-.15.27-.28.36-.13.09-.28.13-.44.13z" fill="#FFF"/><path d="M191.22 365.86h-50.2c-1.83 0-3.05-1.88-2.32-3.55l34.1-78.13c.2-.46.53-.84.95-1.12.42-.27.92-.4 1.42-.4l49.67.98c1.8.04 2.99 1.9 2.27 3.56l-33.57 77.14c-.2.45-.53.83-.94 1.11-.41.27-.89.41-1.38.41z" fill="#232323"/><path d="M194.86 365.86h-50.2c-1.83 0-3.05-1.88-2.32-3.55l34.1-78.13c.2-.46.53-.84.95-1.12.42-.27.92-.4 1.42-.4l49.67.98c1.8.04 2.99 1.9 2.27 3.56l-33.57 77.14c-.2.45-.53.83-.94 1.11-.41.27-.89.41-1.38.41z" fill="#D9C6F4"/><path d="M216.3 307.02h-12.1c-1.12 0-1.62-.52-1.81-.83-.2-.32-.45-1 .05-2.04l4.75-11.17a3.468 3.468 0 013.28-2.13l12.1.26c.26.01.51.08.74.2.22.13.41.32.55.54.14.22.22.47.24.72.01.26-.04.52-.14.76l-5.63 12.37c-.35.8-1.15 1.32-2.03 1.32zm-5.91-14.64c-.38-.01-.76.11-1.08.32-.32.21-.58.52-.73.87l-4.75 11.19c-.01.01-.01.03-.02.04-.18.37-.15.55-.13.58.01.03.15.12.52.12h12.1c.14 0 .27-.04.39-.11.11-.08.2-.19.26-.31l5.63-12.38v-.02c0-.01 0-.02-.01-.03-.01-.02-.02-.02-.03-.02l-12.11-.25h-.04zM21.26 323.39c-4.54 9.66-13.43 34.69-6.06 52.18 5.74 13.62 27.76 28.78 54.97 16.65 27.95-12.46 50.17-50.87 70.87-62.43 9.73-5.43 18.76-3.56 28.59-3.87 9.84-.31 7.61-3.9-4.3-6.75.55.05 26.11 2.1 15.4-4.47 0 0 11.84-.78-2.74-7.06-3.29-1.41-8.71-2.76-11.91-3.57 3.62-.06 21.27-2.81 7.23-6.85-.27-.08-6.59-1.09-9.05-1.29-40.63-3.27-83.46 21.16-108.65 41.86l-34.35-14.4z" fill="#FFF"/><path d="M50.42 397.43c-6.27 0-11.52-1.36-15.51-2.94-9.3-3.69-17.12-10.82-20.41-18.62-8.61-20.45 4.55-49.56 6.08-52.81.04-.09.1-.17.17-.24.08-.06.16-.12.26-.15.09-.03.19-.05.29-.04.1 0 .2.03.29.07.09.04.17.1.24.17.06.08.12.17.15.26s.05.19.04.29c0 .1-.03.2-.07.29-1.19 2.54-5.25 11.69-7.44 22.98-2.23 11.49-1.76 21.11 1.39 28.59 3.13 7.43 10.63 14.25 19.56 17.79 7.48 2.96 19.51 5.1 34.4-1.54 15.54-6.93 29.06-21.7 42.13-35.98 10.03-10.95 19.49-21.29 28.68-26.43 7.67-4.27 14.76-4.13 22.27-3.98 2.17.04 4.41.09 6.67.02 4.93-.16 5.45-1.1 5.45-1.11 0-.35-1.76-2.19-9.91-4.14a.788.788 0 01-.45-.31.767.767 0 01.16-1.03c.15-.11.34-.17.53-.16.45.04 4.54.36 8.74.34 7.95-.04 8.44-1.28 8.46-1.33 0-.01.08-.64-2.25-2.07a.728.728 0 01-.31-.36.755.755 0 01-.03-.47c.04-.16.12-.3.25-.4.12-.1.27-.17.43-.18 1.88-.12 3.74-.72 3.82-1.22.01-.06.15-1.38-6.81-4.38-3.02-1.3-7.92-2.55-11.16-3.37l-.64-.16a.814.814 0 01-.44-.31.797.797 0 01-.13-.52c.03-.18.11-.35.25-.48.14-.12.31-.19.5-.19 1.13-.02 4.14-.35 6.98-1.01 3.87-.89 4.81-1.78 4.84-2.04 0-.01-.09-.96-4.79-2.31-.37-.08-6.45-1.06-8.9-1.26-18.27-1.47-38.38 2.52-59.75 11.88-16.66 7.29-33.84 17.88-48.36 29.81-.07.06-.16.11-.26.14a.754.754 0 01-.58-.06.834.834 0 01-.23-.19.804.804 0 01-.16-.56c.01-.2.11-.38.27-.51 14.62-12.02 31.92-22.68 48.71-30.03 21.61-9.45 41.96-13.49 60.49-11.99 2.47.19 8.84 1.21 9.19 1.31 4.27 1.23 6.08 2.45 5.88 3.97-.11.86-.86 2.14-6.01 3.33-1.02.23-2.04.43-3.07.59 2.75.74 5.8 1.63 7.97 2.56 5.63 2.43 8.01 4.29 7.71 6.04-.22 1.28-1.82 1.91-3.25 2.21.92.78 1.6 1.71 1.28 2.7-.35 1.09-1.79 2.34-9.89 2.38-.83 0-1.66 0-2.49-.02 2.89 1.09 5.07 2.43 4.92 3.95-.15 1.53-2.42 2.34-6.92 2.48-2.29.07-4.55.03-6.74-.02-7.3-.15-14.19-.28-21.5 3.79-8.98 5.02-18.36 15.27-28.3 26.13-12.56 13.72-26.8 29.28-42.63 36.34-7.44 3.31-14.2 4.51-20.06 4.51z" fill="#232323"/><path d="M43.03 349c-.16 0-.31-.05-.44-.14a.797.797 0 01-.28-.37.721.721 0 01-.01-.46.69.69 0 01.25-.38l13.9-11.44c.07-.06.16-.11.26-.14.09-.02.19-.03.29-.02.1.01.2.03.29.08.08.05.16.11.23.19.06.08.11.17.14.26.02.1.03.2.02.3a.71.71 0 01-.27.51l-13.9 11.44c-.14.11-.31.17-.48.17zm124.42-44.01c-.04 0-.08 0-.13-.01-4.7-.79-13.16-1.06-13.24-1.06a.733.733 0 01-.53-.24.746.746 0 01-.21-.55c0-.1.02-.19.07-.29a.66.66 0 01.17-.24c.07-.07.16-.12.25-.15.09-.04.19-.06.29-.05.35.01 8.65.28 13.45 1.08.19.03.36.13.48.28.12.15.17.34.16.53-.02.19-.11.37-.25.5s-.32.2-.51.2zm13.75 10.69c-.11 0-.22-.02-.32-.07-.03-.01-2.66-1.23-7.29-2.33-4.27-1.01-11.16-2.13-19.75-1.71-.2.02-.4-.06-.55-.19a.78.78 0 01-.25-.53c-.01-.2.06-.4.2-.55.14-.15.32-.24.53-.24 16.83-.84 27.31 3.97 27.75 4.17.16.07.28.2.36.35.08.16.1.34.06.5-.04.17-.13.33-.27.43-.13.11-.3.17-.47.17zm-13.22 4.83c-.06 0-.13-.01-.2-.03-.08-.02-8.32-2.26-13.91-2.19h-.01a.75.75 0 01-.75-.76c0-.19.08-.39.22-.53s.32-.23.52-.23c5.81-.09 13.99 2.15 14.33 2.25.18.05.34.16.44.31.1.15.14.34.12.52-.03.18-.12.35-.26.47s-.31.19-.5.19z" fill="#232323"/><path d="M150.82 217.03c0 6.29-5.08 11.39-11.35 11.39s-11.36-5.1-11.36-11.39c0-6.28 5.09-11.38 11.36-11.38s11.35 5.1 11.35 11.38z" fill="#00676C" fill-rule="evenodd"/><path d="M155.81 177.56c-.4.95-.56 1.58-.95 2.64-.02 0-.13.05-.15.05-9.01 1.78-13.49 7.33-15.68 11.84-2.63 5.39-3.13 11.49-2.34 16.6.47 3.02 1.4 5.71 2.6 7.7.17.28.22.62.14.94-.08.32-.28.59-.56.76-.19.12-.41.18-.64.18-.21 0-.42-.05-.6-.16-.19-.1-.34-.25-.45-.44-3.22-5.33-4.62-14.5-1.83-23.06.4-1.23.89-2.44 1.46-3.61 2.27-4.66 6.72-10.32 15.32-12.68 1.34-.37 2.13-.57 3.68-.76z" fill="#00676C"/><path d="M138.23 219.03c-.34 0-.68-.09-.98-.26-.29-.17-.54-.41-.72-.7-3.11-5.16-4.9-14.48-1.9-23.69.41-1.27.91-2.51 1.49-3.71 2.24-4.6 6.8-10.61 15.81-13.09 1.33-.36 2.15-.57 3.78-.78l1.3-.16-.5 1.21c-.23.56-.38 1-.55 1.5-.11.34-.23.69-.38 1.11l-.15.39-.37.09c-.06.02-.13.04-.19.06-8.78 1.73-13.09 7.17-15.16 11.42-2.3 4.73-3.13 10.61-2.27 16.16.45 2.85 1.33 5.48 2.5 7.42a1.997 1.997 0 01-1.71 3.03zm16.41-40.53c-.79.14-1.42.31-2.31.55-8.46 2.33-12.74 7.97-14.84 12.29-.55 1.13-1.03 2.31-1.42 3.51-2.85 8.75-1.17 17.57 1.76 22.43.13.22.43.29.65.16.11-.06.19-.17.21-.29.03-.13.02-.26-.05-.36-1.28-2.13-2.22-4.89-2.7-7.98-.92-5.93-.07-11.98 2.4-17.05 2.2-4.52 6.75-10.28 15.94-12.2.09-.25.17-.47.24-.69.04-.12.08-.25.12-.37z" fill="#00676C"/><path d="M177.73 239.3c0 1.78-2.1 3.22-4.69 3.22-2.59 0-4.69-1.44-4.69-3.22 0-1.77 2.1-3.21 4.69-3.21 2.59 0 4.69 1.44 4.69 3.21z" fill="#232323" fill-rule="evenodd"/><path d="M169.81 240.15c-11.09 0-19-5.75-23.79-10.77-5.54-5.8-8.13-11.72-8.24-11.97a.706.706 0 01-.06-.24c0-.09.02-.17.05-.25.03-.07.08-.14.13-.2.06-.06.13-.11.21-.14.07-.04.15-.06.24-.06.08 0 .16.02.24.05.08.03.15.07.21.13s.11.13.14.2c.02.06 2.63 6 8.02 11.63 7.19 7.51 15.66 10.97 25.17 10.26.08 0 .17.01.25.03.08.03.15.07.21.13.06.05.12.12.15.19.04.08.06.16.07.24 0 .08 0 .17-.03.25-.03.07-.07.15-.12.21-.06.06-.12.12-.2.15-.07.04-.15.06-.24.07-.8.06-1.61.09-2.41.09z" fill="#232323"/><path d="M145.25 217.03c0 3.21-2.59 5.8-5.78 5.8a5.79 5.79 0 01-5.79-5.8c0-3.2 2.59-5.8 5.79-5.8 3.19 0 5.78 2.6 5.78 5.8z" fill="#232323" fill-rule="evenodd"/><path d="M161.72 181.67c0 3.1-2.51 5.62-5.61 5.62-3.09 0-5.6-2.52-5.6-5.62s1.73-6.18 4.82-6.18c3.09 0 6.39 3.08 6.39 6.18z" fill="#232323"/><path d="M20.76 319.27l37.75 15.16-4.71 4.01s-25.55-12.32-36.85-14.62l3.81-4.55z" fill="#00676C"/></g><path d="M325 233.5h218v165H325z"/><g clip-path="url(#d)"><path d="M381.29 298.55h106.4v98.53h-106.4v-98.53z" fill="#FFF"/><path d="M487.69 397.84h-106.4a.75.75 0 01-.75-.76v-98.53c0-.2.08-.39.22-.54a.75.75 0 01.53-.22h106.4c.2 0 .39.08.53.22.15.15.23.34.23.54v98.53c0 .21-.08.4-.23.54a.75.75 0 01-.53.22zm-105.64-1.51h104.88v-97.02H382.05v97.02z" fill="#232323"/><path d="M467.96 379.21c-.06 0-.12-.01-.17-.03a.56.56 0 01-.15-.1.396.396 0 01-.1-.15c-.02-.06-.04-.11-.04-.17 0-.11.04-.2.1-.28l2.68-3.43 2.88-3.7c.05-.05.1-.1.16-.13.07-.03.14-.05.21-.05.07 0 .13.02.2.05.06.03.11.08.16.13l2.88 3.7 2.68 3.43c.04.04.06.1.08.15.01.06.02.12.01.18s-.02.12-.06.17c-.02.05-.06.1-.11.13a.42.42 0 01-.28.1h-1.9c-.06 0-.11.01-.17.03a.56.56 0 00-.15.1c-.04.05-.07.1-.1.15-.02.06-.03.12-.03.18v8.85c0 .25-.21.45-.46.45h-5.51c-.06 0-.12-.01-.17-.03a.396.396 0 01-.15-.1.307.307 0 01-.1-.15.329.329 0 01-.04-.17v-8.85c0-.26-.2-.46-.46-.46h-1.89z" fill="#FFF"/><path d="M476.28 389.73h-5.51c-.32 0-.63-.13-.86-.36a1.17 1.17 0 01-.35-.85v-8.55h-1.6c-.16 0-.31-.03-.46-.09-.15-.06-.28-.15-.39-.27-.12-.11-.21-.24-.27-.39-.06-.15-.09-.31-.09-.46 0-.27.09-.54.25-.75l5.57-7.13c.41-.52 1.17-.62 1.7-.21.08.07.15.14.21.22l5.57 7.12c.09.13.17.27.21.42a1.26 1.26 0 01-.12.93c-.08.13-.18.26-.31.35-.21.17-.47.26-.74.26h-1.6v8.55c0 .67-.54 1.21-1.21 1.21zm-5.21-1.51h4.91v-8.55c0-.67.54-1.22 1.21-1.22h1.28l-4.94-6.33-4.95 6.33h1.27c.33 0 .63.13.86.36.23.23.36.53.36.86v8.55zm-133.91 9.56h43.7a.75.75 0 00.75-.75v-61.47c0-.2-.08-.39-.22-.53a.72.72 0 00-.53-.23h-55.04c-.2 0-.4.08-.54.23a.75.75 0 00-.22.53v50.12c0 6.67 5.43 12.1 12.1 12.1zm42.94-1.51h-42.94c-5.84 0-10.59-4.75-10.59-10.59v-49.36h53.53v59.95z" fill="#232323"/><path d="M356.78 380.66c.09 0 .17-.02.24-.07a.42.42 0 00.17-.18.45.45 0 00.05-.25.429.429 0 00-.1-.24l-2.68-3.45-2.9-3.73a.417.417 0 00-.16-.13.455.455 0 00-.2-.05c-.07 0-.14.02-.2.05-.06.03-.12.08-.16.13l-2.89 3.73-2.69 3.45a.5.5 0 00-.09.24c-.01.08.01.17.04.25.04.07.1.14.17.18.08.05.16.07.25.07h1.89c.06 0 .12.02.18.04s.11.06.15.1c.04.04.08.09.1.15.02.05.03.11.03.17v8.93c0 .06.01.12.04.17.02.06.05.11.1.15.04.04.09.08.15.1.05.02.11.04.17.04h5.53c.06 0 .12-.02.17-.04.06-.02.11-.06.15-.1.04-.04.08-.09.1-.15.02-.05.03-.11.03-.17v-8.93c0-.12.05-.24.14-.32.08-.09.2-.14.32-.14h1.9zm-24.19-2.22v-5.47c0-.22.19-.41.41-.41h8.5c.22 0 .41.19.41.41v5.47a4.68 4.68 0 01-4.32 4.67v6.61h3.54c.22 0 .39.18.4.4 0 .22-.18.41-.4.42h-7.76c-.1 0-.2-.05-.28-.12a.442.442 0 01-.12-.28c0-.23.18-.42.4-.42h3.4v-6.62a4.689 4.689 0 01-4.18-4.66zm4.66 3.84c2.12 0 3.84-1.72 3.84-3.84v-5.05h-7.68v5.05c0 2.12 1.72 3.84 3.84 3.84z" fill="#232323"/><path d="M332.59 372.97c0-.22.19-.41.41-.41h8.5c.22 0 .41.19.41.41v5.47a4.68 4.68 0 01-4.32 4.67v6.61h3.54c.22 0 .39.18.4.4 0 .22-.18.41-.4.42h-7.76c-.1 0-.2-.05-.28-.12a.442.442 0 01-.12-.28c0-.23.18-.42.4-.42h3.4v-6.62a4.689 4.689 0 01-4.18-4.66v-5.47zm8.5 5.47v-5.05h-7.68v5.05a3.841 3.841 0 007.68 0z" stroke="#232323" stroke-width="2.462"/><path d="M399.39 234.86h19.15v63.72h-19.15v-63.72z" fill="#00676C"/><path d="M364.96 284.26c-.09 0-.17-.03-.24-.07a.389.389 0 01-.17-.19.434.434 0 01-.05-.25.43.43 0 01.1-.23l2.68-3.45 2.89-3.73c.04-.05.1-.1.16-.13s.13-.05.2-.05.14.02.2.05c.07.03.12.08.16.13l2.9 3.73 2.68 3.45c.05.07.08.15.09.23.01.09 0 .17-.04.25a.52.52 0 01-.17.19c-.08.04-.16.07-.25.07h-1.89c-.12 0-.24.05-.33.13-.08.09-.13.21-.13.33v8.91c0 .13-.05.24-.13.33-.09.08-.21.13-.33.13h-5.52a.463.463 0 01-.46-.46v-8.91c0-.12-.05-.24-.13-.33a.507.507 0 00-.33-.13h-1.89z" fill="#232323"/><path d="M452.86 299.15h-93.84c-.2 0-.39-.08-.53-.21a.851.851 0 01-.23-.54l-.5-63.43c0-.1.02-.2.05-.29.04-.1.1-.18.17-.25s.15-.13.24-.17c.1-.03.2-.05.3-.05h94.34c.2 0 .39.08.53.22.15.14.23.33.23.53v63.44c0 .2-.08.39-.23.53a.75.75 0 01-.53.22zm-93.09-1.51h92.33v-61.92h-92.82l.49 61.92z" fill="#232323"/></g></g><path d="M337.993-26.5L535.84 17.372l-19.993 90.163L318 63.663z"/><g clip-path="url(#e)"><path d="M439.05 25.37l-25.6-12.39c-.22-.1-.48-.14-.72-.1l-12.6 2.01c-1.03.16-1.4 1.45-.61 2.14l14.88 13" fill="#FFF"/><path d="M439.05 25.37l-25.6-12.39c-.22-.1-.48-.14-.72-.1l-12.6 2.01c-1.03.16-1.4 1.45-.61 2.14l14.88 13 .99-1.13-14.45-12.62 11.94-1.91 23.69 11.47 2.48-.47z" fill="#232323" fill-rule="evenodd"/><path d="M358.79 31.65l130.02-20.76c7.23-1.15 14.67-.64 21.58 1.77 3.75 1.3 7.64 3.23 11.04 6.09 10.89 9.15 12.13 16.94 7.41 19.14-4.09 1.91-126.1 20.48-158.92 25.45-8.34 1.26-16.93-.46-23.92-5.18-3.61-2.43-6.88-5.7-8.53-10.04-3.87-10.11-7.88-21.09-9.47-25.46-.36-1.01.28-2.11 1.35-2.28l10.08-1.61c.84-.13 1.7.07 2.38.57l16.98 12.31z" fill="#FFF"/><path d="M358.79 31.65l-16.98-12.31c-.68-.5-1.54-.7-2.38-.57l-10.08 1.61a1.722 1.722 0 00-1.35 2.28c1.59 4.37 5.6 15.35 9.47 25.46 1.65 4.34 4.92 7.61 8.53 10.04 6.99 4.72 15.58 6.44 23.92 5.18 32.82-4.97 154.83-23.54 158.92-25.45 4.72-2.2 3.48-9.99-7.41-19.14-3.4-2.86-7.29-4.79-11.04-6.09-6.91-2.41-14.35-2.92-21.58-1.77L358.79 31.65zm-.26 1.06l130.44-20.83q8.06-1.29 15.56.21 2.81.56 5.54 1.51 6.29 2.19 10.72 5.92 7.52 6.31 9.25 11.71.94 2.93-.12 4.52-.52.78-1.51 1.24-4.23 1.98-158.64 25.36-7.5 1.13-14.13-.75-4.76-1.36-9.08-4.27-6.06-4.08-8.16-9.56-4.28-11.19-9.46-25.45-.05-.16-.04-.31.01-.15.1-.3.08-.14.21-.23.13-.08.3-.11l10.08-1.61q.45-.07.86.03.41.09.77.36l17.31 12.56z" fill="#232323" fill-rule="evenodd"/><path d="M358.46 32.74l-18.07-13-11.56 2.17 5.78 15.89 23.85-5.06z" fill="#D8C5F3" fill-rule="evenodd"/><path d="M334.68 35.32l133.75-20.24c.33-.05.65.14.76.45 2.46 6.61-1.69 13.82-8.64 15.02l-120.8 20.8c-.48.08-.96-.2-1.11-.66l-4.76-14.06c-.2-.59.18-1.22.8-1.31z" fill="#D8C5F3" fill-rule="evenodd"/><path d="M358.79 31.65l-16.98-12.31c-.68-.5-1.54-.7-2.38-.57l-10.08 1.61a1.722 1.722 0 00-1.35 2.28c1.59 4.37 5.6 15.35 9.47 25.46 1.65 4.34 4.92 7.61 8.53 10.04 6.99 4.72 15.58 6.44 23.92 5.18 32.82-4.97 154.83-23.54 158.92-25.45 4.72-2.2 3.48-9.99-7.41-19.14-3.4-2.86-7.29-4.79-11.04-6.09-6.91-2.41-14.35-2.92-21.58-1.77L358.79 31.65zm-.38 1.58l130.64-20.86q7.99-1.27 15.43.22 2.75.55 5.42 1.48 6.21 2.16 10.57 5.83 7.4 6.22 9.09 11.48.88 2.73-.11 4.15-.44.63-1.25 1.01-4.17 1.94-158.51 25.32-7.4 1.12-13.94-.75-4.67-1.33-8.91-4.19-5.93-4-7.97-9.33-4.28-11.19-9.46-25.44-.01-.05-.01-.09 0-.05.03-.09.03-.04.06-.07.04-.03.09-.04l10.09-1.61q.35-.05.67.02.31.08.59.28l17.48 12.68z" fill="#232323" fill-rule="evenodd"/><path d="M516.67 15.48l-12.42 1.98c-1.85.3-2.52 2.62-1.11 3.85l2.4 2.08c.49.43 1.15.62 1.8.51l16.83-2.68-7.5-5.74z" fill="#232323"/><path d="M504.4 18.45l12.43-1.99-.16-.98-12.42 1.98c-1.85.3-2.52 2.62-1.1 3.85l2.39 2.08c.49.43 1.15.62 1.8.51l16.84-2.68-1.1-.84-15.9 2.54q-.13.02-.26.01t-.26-.05q-.13-.03-.25-.1-.11-.06-.21-.14l-2.4-2.09q-.19-.17-.3-.38-.04-.1-.07-.2-.04-.12-.04-.25-.02-.2.04-.41.06-.21.18-.38.07-.1.17-.18.08-.08.17-.14.2-.12.45-.16z" fill="#232323" fill-rule="evenodd"/><path d="M453.41 41.61L402.29 75.4c-.15.11-.33.18-.52.2l-15.44 2.47c-1.19.19-1.99-1.19-1.24-2.13l23.57-29.4c.21-.26.5-.43.82-.48l43-6.86c1.4-.23 2.12 1.62.93 2.41z" fill="#FFF"/><path d="M453.82 42.23l-51.11 33.8q-.38.25-.82.32l-15.44 2.46q-1.4.23-2.12-1-.71-1.23.18-2.34l23.57-29.4 1.17.94-23.57 29.4q-.25.3-.05.64t.58.28l15.45-2.47q.12-.02.22-.08L453 40.98l.82 1.25z" fill="#232323" fill-rule="evenodd"/></g></g></svg>