<svg xmlns="http://www.w3.org/2000/svg" viewBox="0 0 3000 3000" width="3000" height="3000"><g transform="translate(1501.2 615.6) rotate(0.0 662.4 523.2) scale(1.271889400921659 1.270673952641166)"><svg width="1041.6" height="823.5" viewBox="0 0 1041.6 823.5"><path d="M999.4 821H42.2c-21.9 0-39.7-17.8-39.7-39.7V42.2c0-21.9 17.8-39.7 39.7-39.7h957.2c21.9 0 39.7 17.8 39.7 39.7v739.1c0 22-17.8 39.7-39.7 39.7z" fill="#fff"/><path d="M999.4 823.5H42.2C18.9 823.5 0 804.6 0 781.3V42.2C0 18.9 18.9 0 42.2 0h957.2c23.3 0 42.2 18.9 42.2 42.2v739.1c0 23.3-18.9 42.2-42.2 42.2zM42.2 5C21.7 5 5 21.7 5 42.2v739.1c0 20.5 16.7 37.2 37.2 37.2h957.2c20.5 0 37.2-16.7 37.2-37.2V42.2c0-20.5-16.7-37.2-37.2-37.2z" fill="#D9C6F4"/><path d="M1040.7 91.1 4.1 90.9V43.1c0-21.9 17.8-39.7 39.7-39.7H1001c21.9 0 39.7 17.8 39.7 39.7z" fill="#D9C6F4"/><circle cx="995" cy="45.6" fill="#fff" r="12.3"/><circle cx="953.2" cy="45.6" fill="#fff" r="12.3"/><circle cx="911.3" cy="45.6" fill="#fff" r="12.3"/><path d="M521.3 199.1H181.2c-2.8 0-5-2.2-5-5s2.2-5 5-5h340.1c2.8 0 5 2.2 5 5s-2.2 5-5 5z" fill="#00676C"/><path d="M777.5 199.1H581.2c-2.8 0-5-2.2-5-5s2.2-5 5-5h196.3c2.8 0 5 2.2 5 5s-2.3 5-5 5z" fill="#D9C6F4"/><circle cx="114.6" cy="194.1" fill="#00676C" r="15.2"/><path d="M596.2 285.5H483.3c-2.8 0-5-2.2-5-5s2.2-5 5-5h112.9c2.8 0 5 2.2 5 5s-2.2 5-5 5z" fill="#00676C"/><path d="M426.2 285.5H256.1c-2.8 0-5-2.2-5-5s2.2-5 5-5h170.1c2.8 0 5 2.2 5 5s-2.3 5-5 5z" fill="#232323"/><path d="M755.2 285.5h-99.1c-2.8 0-5-2.2-5-5s2.2-5 5-5h99.1c2.8 0 5 2.2 5 5s-2.2 5-5 5z" fill="#00676C"/><circle cx="114.6" cy="280.5" fill="#00676C" r="15.2"/><path d="M461.4 371.9H256.1c-2.8 0-5-2.2-5-5s2.2-5 5-5h205.3c2.8 0 5 2.2 5 5s-2.2 5-5 5z" fill="#00676C"/><path d="M619.3 371.9h-98c-2.8 0-5-2.2-5-5s2.2-5 5-5h98c2.8 0 5 2.2 5 5s-2.3 5-5 5z" fill="#D9C6F4"/><g fill="#00676C"><circle cx="114.6" cy="366.9" r="15.2"/><path d="M321.3 458.3H181.2c-2.8 0-5-2.2-5-5s2.2-5 5-5h140.1c2.8 0 5 2.2 5 5s-2.2 5-5 5zm330.1 0H381.2c-2.8 0-5-2.2-5-5s2.2-5 5-5h270.2c2.8 0 5 2.2 5 5s-2.2 5-5 5z"/><circle cx="114.6" cy="453.3" r="15.2"/><path d="M396.2 544.7H256.1c-2.8 0-5-2.2-5-5s2.2-5 5-5h140.1c2.8 0 5 2.2 5 5s-2.2 5-5 5zm398.6 0H599.2c-2.8 0-5-2.2-5-5s2.2-5 5-5h195.6c2.8 0 5 2.2 5 5s-2.2 5-5 5zm-253.5 0h-85.2c-2.8 0-5-2.2-5-5s2.2-5 5-5h85.2c2.8 0 5 2.2 5 5s-2.2 5-5 5z"/><circle cx="114.6" cy="539.7" r="15.2"/></g><path d="M635.1 631H486.6c-2.8 0-5-2.2-5-5s2.2-5 5-5h148.6c2.8 0 5 2.2 5 5s-2.3 5-5.1 5z" fill="#D9C6F4"/><path d="M436.3 631H181.2c-2.8 0-5-2.2-5-5s2.2-5 5-5h255.1c2.8 0 5 2.2 5 5s-2.3 5-5 5z" fill="#00676C"/><circle cx="114.6" cy="626" fill="#00676C" r="15.2"/><path d="M376.4 717.4H256.1c-2.8 0-5-2.2-5-5s2.2-5 5-5h120.3c2.8 0 5 2.2 5 5s-2.2 5-5 5z" fill="#232323"/><path d="M691 717.4H436.3c-2.8 0-5-2.2-5-5s2.2-5 5-5H691c2.8 0 5 2.2 5 5s-2.2 5-5 5z" fill="#00676C"/><circle cx="114.6" cy="712.4" fill="#00676C" r="15.2"/></svg></g><g transform="translate(171.6 805.1999999999999) rotate(0.0 1156.8 902.4000000000001) scale(1.2754134509371553 1.2748463657554567)"><svg width="1814" height="1415.7" viewBox="0 0 1814 1415.7"><path d="M980.4 747.5c-11.2-12.8-12.9-193.3-57.2-202.2-70.6-14.2-179.5 16.1-246.9-11.1-26.3-10.6-201.9-81.2-274.1-68.8-149 50-219.9 382.3-141.9 758.8 252.5-11.7 519.7-12.3 772.2-23.9 27.9-140.4 10.2-292.7-52.1-452.8z" fill="#fff"/><path d="M260.2 1227.3c-1.4 0-2.6-1-2.9-2.4-37.3-180.1-42.3-358.7-14.1-503 13.5-69.1 33.8-126.7 60.4-171.2 27.5-45.9 60.3-75.5 97.6-88 .1 0 .3-.1.4-.1 66.1-11.4 214.9 44.4 275.8 68.9 37.5 15.1 88.8 12.1 138.4 9.2 39.5-2.3 76.9-4.5 108 1.7 32.3 6.5 42.6 90.6 50.1 152 2.9 23.5 5.8 47.8 8.8 51.2.2.3.4.6.5.9 62.7 161.1 80.2 314 52.1 454.5-.3 1.4-1.4 2.3-2.8 2.4-126.3 5.8-258.4 9-386.1 12s-259.8 6.1-386 12c-.1-.1-.2-.1-.2-.1zm142.7-758.9c-35.8 12.1-67.5 40.8-94.2 85.3-26.3 43.9-46.3 100.8-59.7 169.3-27.9 142.9-23 319.7 13.6 498.2 125.5-5.8 256.7-8.9 383.6-11.9s258.2-6.1 383.7-11.9c27.2-138.6 9.7-289.5-52.1-448.5-3.8-5.2-6-22.4-9.9-53.9-6.5-52.8-17.3-141.2-45.3-146.8-30.3-6.1-67.3-3.9-106.4-1.6-50.3 3-102.3 6-141-9.6-52.3-21.1-93.9-35-119.6-43-71.5-22.1-122.8-30.7-152.7-25.6z" fill="#232323"/><path d="M1022.3 1200.7c53 19.2 123.5 12.8 169.6-23.2 102.6-80.2 60.3-288.6 4.7-404.6-18.9-39.4-89.4-186.7-241-224.2-31.4-7.7-63.9-10.3-96.2-7.7-2 .2-4 .3-6 .5h-.1c-4.3.4-8.4.9-12.2 1.4" fill="#fff"/><path d="M1084.9 1214.4c-21.7 0-43.5-3.5-63.6-10.8-1.6-.6-2.4-2.3-1.8-3.8.6-1.6 2.3-2.4 3.8-1.8 55.4 20.1 123.9 10.7 166.7-22.8 56.7-44.4 64.2-125.8 60.5-186.3-4.2-69.2-25.4-149.4-56.7-214.6-9.5-19.7-31.6-66-70.3-112.2-48.2-57.5-105-94.6-168.7-110.4-31.2-7.6-63.2-10.2-95.2-7.6-2 .1-4 .3-5.9.5h-.2c-4.1.4-8.1.9-12 1.4-1.6.2-3.2-.9-3.4-2.6-.2-1.6.9-3.2 2.6-3.4 4-.5 8.1-1 12.3-1.4h.2c2.2-.2 4.1-.4 5.9-.5 32.6-2.6 65.3 0 97.1 7.8 65 16.1 122.8 53.9 171.9 112.4 39.2 46.8 61.6 93.5 71.1 113.4 31.6 65.9 53 147 57.2 216.9 3.8 61.9-4 145.4-62.8 191.4-28.6 22.4-68.6 34.4-108.7 34.4z" fill="#232323"/><path d="M788 710.9c21.6 44.3 39.8 90.3 54.5 137.3 43.9 140.7 48.5 267.2 43.1 359.5L685 1188.3c29.1-93 47.6-189 55.2-286.1 5.1-66.3 5.1-132.9 0-199.3z" fill="#00676c"/><path d="M1035.5 1203.6h-.5c-1.6-.3-2.7-1.8-2.4-3.5 9.4-54.6 9.9-136.8 1.3-220.1-9.7-94.1-29.7-176.2-56.1-231.2-.7-1.5-.1-3.3 1.4-4s3.3-.1 4 1.4c26.8 55.7 46.9 138.5 56.7 233.2 8.6 83.7 8.1 166.6-1.3 221.7-.4 1.5-1.7 2.5-3.1 2.5z" fill="#232323"/><path d="M760.6 595.5c-14.6 33.7-34.3 75.8-48.9 109.5 4 3.3 24.2 16.5 47.9 16 25.4-.5 41.6-15.5 45.1-18.8-4.8-8.4-9.5-17.1-14.1-26.2-12.6-24.9-21.8-57.9-30-80.5z" fill="#00676c"/><path d="M756.7 724.2c-20.4 0-39.9-6.8-50.5-18.5-1.1-1.2-1-3.1.2-4.2s3.1-1 4.2.2c12.1 13.1 36.9 19.4 60.5 15.3 17.1-3 29.4-10.8 33.9-21.5.6-1.5 2.4-2.2 3.9-1.6s2.2 2.4 1.6 3.9c-5.3 12.6-19.3 21.8-38.4 25.1-5.1.9-10.2 1.3-15.4 1.3z" fill="#fff"/><path d="M678.6 730.2c33.3-2.4 67.3-85.3 81.1-125.7-23.4-21-64.6-55.7-96.2-101.3-10.6-15.2-22.5-29.4-35.7-42.4l-59.2 38.4c15 44.6 77.3 233.4 110 231z" fill="#fff"/><path d="M678 733.3c-15.1 0-34.7-30-61.5-94.3-21-50.3-39.9-106.5-49-133.6l-1.8-5.2c-.4-1.3.1-2.7 1.2-3.5l59.2-38.4c1.2-.8 2.7-.6 3.7.4 13.3 13.1 25.4 27.5 36 42.8 28.3 40.7 64.4 72.8 88.2 94.1 2.7 2.4 5.2 4.6 7.5 6.7.9.8 1.2 2.1.8 3.2-4.6 13.4-16.9 47.6-33.5 77.6-17.7 32.1-34.7 49-50.3 50.1s-.3.1-.5.1zM572.1 500.5l1 3c9.1 27 28 83.1 48.9 133.2 33.3 79.9 49.6 91.1 56.4 90.6 27.2-1.9 58.7-66.4 77.8-121.8-1.9-1.7-3.9-3.5-6-5.4-24.1-21.4-60.5-53.8-89.2-95.1-10-14.4-21.3-27.9-33.6-40.3z" fill="#232323"/><path d="M534.7 590c-11.2-41.3-43.3-129.2-135.6-126.5l-24.9 2.5c-14.5 1.9-28.7 5.1-42.6 9.6-224.4 72-275.2 432.1-279.4 461.9-.7 5.3-1.3 10-1.3 10.2-2.6 22.1-3.8 44.4-3.6 66.7 0 2 .1 4 .1 6l-1.3.9c-23.7 15.9-39.6 33.9-42.4 53.5-1.6 10.8-.1 25.6.7 33 3.1 30.3 12.6 59.7 27.6 86.1 19.3-12.3 39.6-24.7 60.9-37.1 3.9 3.5 8.1 6.7 12.5 9.5 82.6 51.9 336 17 405-110.1 16-54.2 13.3-67.5-13.7-74.9.4-1.1 32.3-96.1 44.8-204.1 7.1-62.5 8.4-130.5-6.8-187.2z" fill="#fff"/><path d="M32 1197c-.2 0-.5 0-.7-.1-.8-.2-1.5-.7-1.9-1.4-15.4-27-24.8-56.4-28-87.3-.7-7.4-2.3-22.7-.7-33.7 2.8-19.4 17.5-38 43.7-55.6 0-1.5-.1-2.9-.1-4.4-.2-22.3 1-44.9 3.6-67.1v-.1s0-.3.1-.7c.2-1.6.6-5.4 1.2-9.4 9.2-65.4 66.2-395.3 281.4-464.3 14-4.5 28.5-7.7 43.1-9.7l25-2.5h.2c41-1.2 74.8 14.9 100.6 47.9 16.3 20.8 29.1 48 37.9 80.8 13.3 49.2 15.6 112.6 6.9 188.5-10.8 93.5-37.3 182.3-43.9 201.8 10 3.1 15.9 7.2 19.3 13.3 6 10.8 4.3 27.6-6.6 64.4-.1.2-.1.4-.2.6-15.4 28.3-40.3 53.4-74.2 74.6-29.9 18.7-66.8 34.1-106.8 44.6-89.5 23.4-183.3 20.1-228.2-8-4-2.5-7.8-5.3-11.3-8.4-20.4 12-40.2 24.1-58.9 36-.4 0-.9.2-1.5.2zm21.8-248.9c-2.6 21.9-3.8 44.3-3.5 66.3 0 2 .1 4 .1 5.9 0 1-.5 2-1.3 2.6l-1.3.9c-24.7 16.5-38.5 33.9-41.1 51.5-1.5 10.3 0 25.1.7 32.2 3 29.1 11.7 56.8 25.7 82.3 18.5-11.7 38.1-23.7 58.3-35.5 1.1-.7 2.6-.5 3.5.4 3.7 3.4 7.8 6.5 12.1 9.2 20.9 13.2 54.7 21.1 95.1 22.5 40.4 1.3 86-4 128.4-15.1 39.4-10.3 75.8-25.5 105.2-43.9 32.9-20.6 57.1-44.8 72-72.1 10.1-34.4 12-50.5 7-59.5-2.9-5.2-8.5-8.6-18.7-11.4-.8-.2-1.5-.8-1.9-1.5-.4-.8-.4-1.6-.1-2.4s32.1-95 44.6-203.4c8.6-75.1 6.4-137.8-6.7-186.2-8.6-32-21-58.5-36.8-78.7-24.5-31.4-56.7-46.7-95.6-45.6l-24.8 2.5c-14.2 1.9-28.3 5.1-42 9.4-50.8 16.3-96.7 49-136.3 97.4-32.2 39.3-60.5 88.9-84.1 147.6-37.1 92.4-52.2 180.7-56.9 214.4-.6 4-1 7.7-1.2 9.3-.3.4-.3.7-.4.9z" fill="#232323"/><path d="M827.2 714.3c30.2-6.3 32.9-151.5 28.8-173-9.4-7.7-27.4-21.3-39.7-32-17.8 29.9-52.6 93-54 95.3 5.8 17.7 38.4 115.3 64.9 109.7z" fill="#fff"/><path d="M824.9 717.6c-12.1 0-25.5-15.8-40.7-48.1-11.1-23.7-20.3-50.2-24.8-63.9-.3-.8-.2-1.7.3-2.5.3-.5 2.4-4.3 5.3-9.5 10.4-18.7 34.9-62.5 48.7-85.7.5-.8 1.2-1.3 2.1-1.4s1.8.1 2.4.7c7.7 6.7 17.5 14.4 26.2 21.3 5.1 4 9.9 7.8 13.4 10.7.5.4.9 1.1 1 1.8 2.1 10.9 2.5 52.6-1.5 93-5.2 52.3-15.2 80.4-29.6 83.4-.9.1-1.8.2-2.8.2zm-59.4-112.7c21.5 65.4 44.6 106.6 59.4 106.6.5 0 1.1-.1 1.6-.2 11.1-2.3 20.2-30.8 24.9-78.2 3.8-38.1 3.6-78.5 1.8-90.3-3.4-2.8-7.8-6.2-12.5-9.9-7.8-6.1-16.4-12.9-23.7-19.1-14 23.8-36.8 64.7-46.8 82.5-2.3 4.5-3.8 7.2-4.7 8.6z" fill="#232323"/><path d="M32 1194c-7.2-19.2 84.3-74.4 149.5-102.3 54.7-23.5 150.5-53.3 288.1-41.1-55.9 27.5-308 150.1-408.6 150.8-8.6.1-26.2.2-29-7.4z" fill="#fff"/><path d="M58.1 1204.4c-10.2 0-25.7-.7-28.9-9.4-3.9-10.4 12.5-27.7 48.8-51.4 29.7-19.4 68.9-40.4 102.3-54.7 85.9-36.9 183.3-50.8 289.6-41.3 1.3.1 2.4 1.1 2.7 2.4.2 1.3-.4 2.6-1.6 3.2-91.9 45.2-315.8 150.4-410 151.1-.9.1-1.9.1-2.9.1zm348.2-153.7c-80.9 0-155.9 14.6-223.6 43.7-33.2 14.2-72 35-101.4 54.2-15.6 10.2-28 19.6-36 27.4-11.1 10.8-11 15.4-10.4 16.9 2.1 5.6 20.2 5.5 26.1 5.4 42.3-.3 116.3-22.2 220-65.1 54.2-22.4 115.4-50.2 177.6-80.6-17.8-1.2-35.2-1.9-52.3-1.9z" fill="#232323"/><path d="M746.3 1184.8h396l-14.7 32.3H746.3c-8.9 0-16.1-7.2-16.1-16.1s7.2-16.2 16.1-16.2z" fill="#d9c6f4"/><path d="m1132.8 1184.8-14.8 32.3h8.1l14.8-32.3z" fill="#fff"/><path d="M1126.1 1217.1h489.2L1812.7 780c3.4-7.6.1-16.5-7.5-19.9-2-.9-4.1-1.3-6.2-1.3h-445c-12.7 0-24.2 7.4-29.4 19z" fill="#d9c6f4"/><circle cx="1099.4" cy="1201.1" fill="#fff" r="6.7"/><path d="M1075.9 1206.6c3.3 0 5.9-2.6 5.9-5.9s-2.6-5.9-5.9-5.9l-34.5-.1c-3.3 0-5.9 2.6-5.9 5.9s2.6 5.9 5.9 5.9zm416.6-175.1c14.3 0 26.6-10.3 29-24.4 2.3-13.2-6.6-25.7-19.8-28h-.1c-11-1.9-21.4 5.5-23.3 16.4-1.6 9.2 4.6 17.9 13.8 19.4 4.1.7 8.3-.4 11.5-3 1.6-1.3 1.8-3.6.5-5.2s-3.6-1.8-5.2-.5c-1.5 1.3-3.5 1.8-5.5 1.5-5.2-.9-8.6-5.8-7.8-10.9 1.2-6.9 7.8-11.6 14.7-10.4 9.2 1.6 15.4 10.2 13.8 19.4-2.1 12-13.4 20-25.4 18-15.5-2.6-25.9-17.3-23.3-32.8 3.4-19.8 19.8-31.3 39.8-27.9 12.1 2.1 22 8.3 27.9 17.5 6.1 9.6 7.6 21.9 4.1 34.7-.5 2 .6 4 2.6 4.5s4-.6 4.5-2.6c4-14.8 2.3-29.3-5-40.6-7-11-18.7-18.4-32.9-20.8-23.9-4.1-44.2 10.2-48.3 33.9-3.3 19.5 9.8 38 29.3 41.3 1.8.4 3.4.5 5.1.5zM82.8 1144c8.7 35.1 30.3 84.9 63.6 113.3 51.8 44 105.3 30.2 242.4 35.7 155.1 6.2 238.7 9.5 331.2 54.5 59.9 29.1 114.4 71.2 124.5 59.9 6.4-7.2-8.9-31.6-23.6-52.1-.4-.6-.8-1.2-1.2-1.7 9.6 8.1 18.5 15.4 26.6 21.8 37.2 29.5 58.9 41.5 64.9 36.1 6.3-5.6-4.1-29.8-31.2-72.6l-.5-.8c6.9 5.7 13.5 11 19.7 16 51.4 41.2 80.3 58.7 86.7 52.7s-9.6-35.5-47.8-88.2l1.2.8c5.5 3.8 11.3 7.7 17.1 11.4 26.8 17.4 53.9 32.6 59.8 26.2 5.8-6.2-10.8-30.3-16.8-39.1-92-133.5-295.5-205.3-295.5-205.3-125.1-44.2-257.9-89.3-423.3-53.1-94 23-157.2 53.2-197.8 84.5z" fill="#fff"/><path d="M907.3 1415.7c-4.4 0-10.4-2.2-18.3-6.6-10.9-6.1-25.9-16.6-44.6-31.4-3.2-2.5-6.5-5.2-10-8 13.8 21.3 17.6 33.8 12.3 39.7-8 8.9-29.8-3.8-65.9-25-18.8-11-40.1-23.5-62.2-34.3-92-44.7-176.6-48.1-330-54.2-33.5-1.3-61.7-1.5-86.7-1.7-75.8-.5-117.5-.8-157.5-34.7-33.7-28.7-55.5-78.1-64.6-114.8-.3-1.2.1-2.4 1.1-3.1 45.7-35.3 112.6-63.9 198.8-85.1 74.7-16.4 149.3-17.6 228-3.7 72.1 12.7 141.4 37.2 197 56.8.5.2 51.8 18.4 113.7 52.8 36.4 20.2 69.2 41.9 97.7 64.6 35.6 28.4 64.4 58.4 85.6 89 17 24.7 21.8 37.1 16.6 42.8-4.5 4.9-15.6 5.6-63.7-25.7-1.5-.9-2.9-1.9-4.5-2.9 42.3 60 43 73.5 37.7 78.6-5.7 5.4-20.9 3.4-90.6-52.5-1.9-1.5-3.9-3.1-5.9-4.7 8.9 14.8 15.4 26.9 19.4 36.2 6 13.9 6.7 21.9 2.3 25.8-1.3 1.4-3.2 2.1-5.7 2.1zm-87.6-65.1c.7 0 1.4.2 1.9.7 9.6 8.1 18.5 15.4 26.6 21.8 51.3 40.6 59.9 37.3 61.1 36.2 1.3-1.1 5.6-9.7-31.7-68.8l-.5-.8c-.8-1.2-.6-2.9.5-3.9s2.8-1 3.9-.1c6.9 5.7 13.5 11 19.7 16 25.5 20.4 45.7 35.2 59.9 43.8 19.5 11.8 22.7 9.1 22.8 9s3-3.2-7.7-23c-7.9-14.5-21.5-35.1-40.4-61.3-.9-1.2-.7-2.8.3-3.9 1-1 2.6-1.2 3.9-.4l1.2.8c6.3 4.3 11.9 8 17 11.4 48.9 31.8 55.4 27.3 56 26.6.1-.1 2.2-2.6-4.4-15.1-4.1-7.7-9.7-15.8-12.7-20.2-26.1-37.8-78.6-94.8-181.3-151.8-61.5-34.1-112.3-52.2-112.8-52.4-119.1-42-254.2-89.7-421.7-53-84.4 20.7-150 48.6-195 82.8 8.8 34.1 30.1 82.5 62.2 109.8 38.3 32.5 76.9 32.8 153.7 33.3 25 .2 53.3.3 86.9 1.7 154.3 6.2 239.3 9.5 332.4 54.8 22.3 10.8 43.7 23.4 62.6 34.5 15.9 9.3 29.7 17.4 40.3 22.3 13.7 6.3 17.2 4.8 18 3.8 1.4-1.6 4-9.8-23.8-48.3-.4-.6-.8-1.2-1.2-1.7-.9-1.2-.7-2.9.4-4 .4-.4 1.1-.6 1.9-.6z" fill="#232323"/><path d="M1589.6 1145.9c-1.2 9.8 27 24.6 62.4 23.7 31.3-.8 45.1-33.3 16.6-34-34.2-.9-77.2-4-79 10.3z" fill="#fff"/><path d="M1648.9 1172.6c-15.3 0-27.5-2.8-35.2-5.2-10.5-3.3-19.1-8.1-23.5-13-2.7-3-3.9-6-3.6-8.9 1.9-15.5 35.2-14.4 70.5-13.3 3.9.1 7.8.2 11.6.3 8.9.2 18.5 4 18.5 14.1 0 11.8-14.4 25.4-35.1 25.9-1.1.1-2.1.1-3.2.1zm-17.8-34.9c-6.7 0-13.1.2-18.7.7-12.4 1.2-19.3 3.9-19.7 7.9-.1 1 .6 2.5 2 4.1 6.5 7.2 28.6 16.9 57.3 16.2 11.9-.3 29.2-8.2 29.2-19.9 0-4.9-4.6-7.9-12.6-8.1-3.8-.1-7.7-.2-11.6-.3-8.8-.3-17.6-.6-25.9-.6z" fill="#232323"/><path d="M1601.8 1117.6c-.5 6.2 17 21.7 78.2 20.6 33.7-.6 45.4-43.7 11.8-41.4-40.4 2.9-88.7 3.8-90 20.8z" fill="#fff"/><path d="M1674 1141.3c-50.6 0-67.1-11.5-71.9-16.6-2.9-3.1-3.4-5.7-3.3-7.3 1.4-17.7 39.1-20.1 79-22.6 4.6-.3 9.2-.6 13.7-.9 9.6-.7 17 2.2 20.7 8 3.7 5.7 3.5 13.5-.5 21-4.6 8.7-15.4 18.1-31.7 18.4h-6zm-69.2-23.4c0 .3.2 1.3 1.7 2.8 7.1 7.6 30.2 15.4 73.5 14.6 13.7-.2 22.7-8 26.5-15.2 3-5.5 3.2-11.1.8-15-2.6-3.9-7.8-5.8-15.3-5.2-4.5.3-9.1.6-13.8.9-32.2 2-72.4 4.5-73.4 17.1z" fill="#232323"/><path d="M1612.5 1083.1c1.9 4.8 20 16.9 79.3 13.8 51.9-2.7 57.3-54.1 18.3-50.3-40.3 4-103.9 20.6-97.6 36.5z" fill="#fff"/><path d="M1673.5 1100.4c-17.6 0-32.2-1.5-43.6-4.5-10.9-2.9-18.4-7.2-20.1-11.6-.8-2-1.2-5 1-8.6 5.4-8.9 24.8-16 40.1-20.5 18.4-5.4 40.4-9.6 59-11.4 11.4-1.1 20.4 2.1 25.3 9.2 4.4 6.4 4.7 15.1.6 23.3-6.8 13.8-23.2 22.7-43.8 23.8-6.5.1-12.7.3-18.5.3zm-58.2-18.4c.4 1.1 4.3 4.9 16.1 8.1 10 2.7 28.6 5.5 60.2 3.8 27.3-1.4 36.5-16 38.7-20.4 3.1-6.2 3-12.7-.2-17.3-3.6-5.2-10.6-7.5-19.8-6.6-37.8 3.7-87.3 17.2-94.6 29.1-.8 1.6-.7 2.6-.4 3.3z" fill="#232323"/><path d="M1635.8 1049.5c3.6 6.9 23.7 11 76.1 4.5s35.3-64.3-4.9-51.6c-38.6 12.2-77.6 34.8-71.2 47.1z" fill="#fff"/><path d="M1668.2 1060.3c-20 0-31.7-3.1-35-9.3-.9-1.8-1.7-4.7-.1-8.7 6-14.6 42.1-32.9 73-42.7 18.7-5.9 29.7 2.8 33.6 6.8 7.3 7.5 9.8 18.6 6.4 28.3-4.2 12-16.6 20.1-33.8 22.3-17.6 2.2-32.3 3.3-44.1 3.3zm-29.7-12.2c1 1.9 9.2 10.9 73 2.9 20.5-2.5 26.9-12.6 28.9-18.3 2.7-7.5.7-16.2-5-22.1-6.6-6.8-16.6-8.7-27.5-5.3-33.7 10.7-64.8 28.3-69.3 39.2-.8 2-.4 3-.1 3.6zM636 132.9c9.8 19 26.1 57.4 22.6 91.8-.3 2.8-.7 5.5-1.2 8.2 31.5 12.2 93 84.1 93 84.1s1.1-1.2 3.2-3.3c6.2-6.2 20.6-20.8 39-38.4 6.2-6 12.9-12.2 19.9-18.7 5.1-4.8 10.5-9.6 15.8-14.4 20.2-18.1 41.6-36.2 60.6-49.8 13.5-9.7 25.8-17.1 35.5-20.7.1 0 .2-.1.3-.1l.3-.1c64-23.6 52.9-112.6 7.3-131.4-20.1-8.5-43.1-7-62 4-25-67.3-115.2-50.2-124.6 2.7C680.1 2.3 607 77 636 132.9z" fill="#232323"/><path d="M669.1 354.6c-.1.4-.2.7-.3 1-.6 2-1.2 4.1-1.8 6.2-4.4 15-9.8 31.2-16.4 48.1-7.3 18.6-15.1 35.4-22.8 50.5 29.7 84.2 77.7 143.1 125.8 144.1 6.1.1 26.5.5 41.7-12.8 0 0 26.6-23.3 20.9-82.8 0 0 0-.4-.1-.8-.2-2.1-.8-8.1-1.3-16-.1-1.3-.2-2.6-.2-4-1.1-18.9-1.1-36.8-.4-53.7v-.3c48 22.7 102.3 22.2 134-6.1 4.9-4.4 27.1-24.7 24.9-51.9-3.5-43.4-35.5-66.2-42.1-117.1-2.5-18.7-4.2-37.6-5.2-56.6-.5-10.3-.8-20.6-.8-30.9l-.6-.1c-5.8-.6-12.1-1.1-18.6-1.4-24.4-1.1-52.8.3-76.9 8-6 1.9-11.8 4.3-17.4 7.2-5.3 2.7-10.2 6-14.8 9.8-14 11.8-32.8 33.3-45.1 57.7-13.8 27.6-19.9 40.4-40.9 17.6-19.9-21.6-30.5-37.1-52-45.9-3-1.2-6.1-2.3-9.2-3.2-28.8-8.2-58.2 14.5-63.2 42.2-8.8 49.1 46.9 86.5 82.8 91.2z" fill="#fff"/><g fill="#232323"><path d="M755.6 607.6h-2c-47.9-1-97.1-57-128.6-146.1-.3-.8-.2-1.6.2-2.4 8.3-16.3 16-33.2 22.6-50.2 6.1-15.5 11.6-31.6 16.3-47.9.4-1.3.8-2.7 1.1-4-22-4-51.8-19.7-69.1-43.3-11.6-15.8-16-33.3-12.9-50.5 2.7-15.3 12.6-29.6 26.4-38.2 12.7-7.9 27.1-10.2 40.5-6.4 3.2.9 6.4 2 9.5 3.3 18.1 7.4 28.9 19.6 42.7 35.1 3.3 3.7 6.6 7.5 10.4 11.5 7.2 7.7 12.5 11.2 16.5 10.7 6.1-.9 11.5-11.7 19.1-26.7l.5-.9c13-25.6 32.2-47.1 45.9-58.7 4.7-4 9.9-7.4 15.3-10.2 5.7-2.9 11.7-5.4 17.9-7.4 26.5-8.4 57-9.1 77.9-8.1 6.2.3 12.5.7 18.8 1.4l.7.1c1.5.2 2.7 1.4 2.7 3 0 10.2.3 20.6.8 30.7.9 18.8 2.6 37.7 5.1 56.3 3.3 25.3 12.9 43.5 22.2 61.1S974.2 354 976 376c2.1 25.3-15.3 44.9-25.8 54.4-15.8 14.1-37.5 22-62.8 22.9-23 .8-47.2-4.2-70.4-14.5-.5 16.2-.3 32.8.6 49.2.1 1.3.2 2.6.2 4 .5 7.7 1 13.6 1.3 15.9.1.4.1.8.1 1 5.7 60.2-20.8 84.2-21.9 85.2-10.2 8.9-24.2 13.5-41.7 13.5zM631.1 460.7c14.7 41.2 33.7 76.1 55 101.1 21.9 25.6 45.3 39.3 67.5 39.8 16.9.3 30.2-3.7 39.7-12.1.2-.2 25.3-23.2 19.9-80.3v-.8c-.2-2.2-.8-8.3-1.3-16.1-.1-1.3-.2-2.7-.3-4-1-18-1.2-36.2-.4-54-.1-1.1.4-2.1 1.3-2.6.9-.6 2-.7 3-.2 48.7 23 101.2 20.8 130.7-5.6 9.7-8.7 25.7-26.7 23.9-49.4-1.7-20.8-10.2-36.9-19.2-53.9-9.6-18.1-19.5-36.8-22.9-63.1-2.5-18.7-4.3-37.8-5.2-56.8-.5-9.4-.7-18.9-.8-28.3-5.5-.5-11-.9-16.4-1.1-20.4-.9-50.2-.3-75.9 7.9-5.8 1.8-11.5 4.2-16.9 7-5.1 2.6-9.9 5.8-14.2 9.4-13.2 11.2-31.8 31.9-44.4 56.8l-.5.9c-8.7 17.2-14.4 28.6-23.6 29.9-6.2.9-12.9-3-21.7-12.6-3.8-4.1-7.2-7.9-10.5-11.6-13.8-15.5-23.7-26.7-40.5-33.6-2.9-1.2-5.9-2.2-8.9-3.1-11.8-3.4-24.5-1.3-35.7 5.7-12.4 7.8-21.3 20.5-23.7 34.2-2.8 15.8 1.1 31.2 11.9 45.9 17.2 23.5 47.4 38.7 68.4 41.5.9.1 1.6.6 2.1 1.3s.6 1.6.4 2.4c-.1.4-.2.8-.3 1.1l-.5 1.7c-.4 1.5-.9 3-1.3 4.5-4.8 16.4-10.4 32.7-16.5 48.4-6.5 16.9-14 33.6-22.2 49.7z"/><path d="m791.3 222.2.1-3 .3-2.7c.2-1.8.6-3.5 1.1-5.2 1-3.4 2.3-6.7 4.1-9.9 3.6-6.5 8.8-12.1 15-16.3 3.3-2.2 6.8-4 10.5-5.3 3.8-1.3 7.8-2 11.8-2.1 3.9-.1 7.8.5 11.5 1.7 3.7 1.1 7.1 3 9.9 5.5 3.6 3.3 3.9 8.9.7 12.6-.6.7-1.4 1.3-2.2 1.7l-1.5.9c-2.8 1.6-5.3 2.7-7.4 3.8s-4.1 2.2-5.8 3c-3.5 1.9-6.6 3.5-9.9 5.5s-6.9 4.2-10.8 6.9l-6.2 4.2c-1.1.8-2.2 1.6-3.4 2.2-2.6 1.9-5.6 3-8.8 3.4-1.7.2-3.4-.1-4.9-.7-2.1-.9-3.6-2.8-4-5-.1-.2-.1-.7-.1-1.2zm15 25.3c8.4-1.8 28.6-5.6 47.4-15.1 2.6-1.3 5.8-.3 7.2 2.3v.1c3.4 6.8 7 18.8-6.7 23.6-16.7 6-43.6.7-49.5-6.6-.9-1.1-.7-2.8.4-3.7l.1-.1c.3-.3.7-.4 1.1-.5zM921 230.6c-8.5 1.1-14.8.4-30.3-1.4-2.9-.4-5.6 1.6-6 4.5v.1c-1 7.5 2.8 15.2 14.9 16.5 13.6 1.5 22-8.6 24.4-16.1.5-1.4-.3-3-1.7-3.4-.5-.1-.9-.2-1.3-.2zM666.2 357.7c9.3.7 18.7-.1 27.8-2.5 1.7-.2 2.9-1.8 2.7-3.5s-1.8-2.9-3.5-2.7c-.2 0-.5.1-.7.2-8 2-16.3 2.8-24.5 2.3-.6 2-1.1 4.1-1.8 6.2zm222.6-165.3c.3.3.7.6 1.1.8.7.4 1.5.8 2.3 1l1.5.4c2.8.8 5.2 1 7.3 1.6 2.2.3 4.1.9 5.8 1.3 3.5.9 6.6 1.6 9.9 2.4 2.8.7 5.8 1.7 9 2.7-.5-10.3-.8-20.6-.8-30.9l-.6-.1.3-.1.3-.1c-3.2-1-6.5-1.6-9.9-1.9-3.1-.1-6.3.1-9.3.7l-1.4.3c-3.4.9-6.7 2.3-9.6 4.2s-5.4 4.3-7.3 7.2c-2.1 3.5-1.5 7.8 1.4 10.5zm-72.5 293c-1.1-18.8-1.1-36.8-.4-53.7-14.4-6.4-36.8-18-50.6-33.3-8.9 4.8-13.1 62.3 51 87zm85.7-159c-4 2.7-8.8 4.2-13.7 4.3-4.8.3-9.6-.6-14.1-2.5-4.3-2.1-8.1-5.2-10.9-9.1-2.9-4-4.6-8.6-4.9-13.5v-.1c-.1-1.5-1.5-2.7-3-2.6-1.3.1-2.4 1.1-2.6 2.3-1 6.3.4 12.8 3.7 18.2 1.6 2.7 3.7 5.2 6 7.3 7.2 6.4 16.9 9.3 26.4 7.9 3.1-.4 6.1-1.3 9-2.6s5.6-3.3 7.7-5.7c1-1.2.9-2.9-.3-3.9l-.1-.1c-1-.8-2.4-.9-3.5-.2zm-216.5-15.9c1.7.4 3.3-.7 3.7-2.4v-.1c.1-.5.1-1.1-.1-1.6-16.4-52.4-62-49.2-62.5-49.2-1.7.1-3 1.6-2.9 3.3.2 1.7 1.7 3 3.4 2.9 1.6-.1 41.1-2.7 56 44.9.4 1.2 1.3 2 2.4 2.2z"/><path d="M896.6 291.5c.7.1 1.4 0 2-.4 8.4-5.8 12.4-10.5 12.9-15.5.7-6.3-4.4-11.6-10.2-17.7-13-13.7-10.5-23-10.5-23.1.4-1.3-.3-2.7-1.6-3.1s-2.7.2-3.1 1.5c-.2.5-3.8 12 11.6 28.1 5.8 6 9.2 10 8.9 13.7-.3 3.3-3.8 7.2-10.7 11.9-1.1.8-1.4 2.3-.6 3.5.2.7.7 1.1 1.3 1.1z"/></g><path d="M849.5 56.2c-4.8 7.5-8.4 15.7-10.7 24.3v.1c-.4 1.8.8 3.6 2.6 4 .3.1.5.1.8.1 1.6 0 3-1.1 3.3-2.7.1-.3 5-24.6 24.8-38.1-.9-2.3-1.8-4.5-2.8-6.6-6.9 4.4-12.7 10.6-18 18.9z" fill="#fff"/><path d="M515.7 1299.3c37.2 2.7 69.8 6.4 100.3 12.5 3.1-32.9 12.8-73.3 23.5-104.6 3.9-11.8 8.6-23.3 14-34.4.3-.6.6-1.2.9-1.7.1-.3.2-.7.3-1 1.8-6 3.6-11.9 5.5-17.8.2-.6.4-1.3.6-1.9 5-15.2 10.4-30 16.2-44.4l-20.3-8.3h-.1l-5-2-5.6-2.3-20.9-8.5-38.3-15.6-6.6-2.7c-.2.6-.5 1.2-.7 1.8-.4.9-.7 1.8-1.1 2.7l-4.2 10.8c-.2.6-.5 1.2-.7 1.8-.3.8-.6 1.6-.9 2.3-.2.5-.4 1-.5 1.4-4.6 12.3-8.9 24.8-13 37.5l-.5 1.6c-1.7 5.4-3.4 10.9-5 16.3-.1.5-.3 1-.4 1.5l-.8 1.6c-6.3 13.3-14.3 38.6-21.2 66.3-7.5 30.2-13.8 63.3-15.5 87.1z" fill="#232323"/><path d="M524.9 1085.5c-7.7 34.1 27.7 73.4 80.1 85.2s101.8-8.3 109.5-42.4-28.5-71.4-80.8-83.2-101.1 6.3-108.8 40.4z" fill="#232323"/><path d="M625.9 1181.3c3.2.2 6.4.3 9.5.3 6.9 0 13.7-.5 20.4-1.4 1.6-2.9 3.2-5.9 4.8-8.8-10.9 2-22.5 2.6-34.3 1.9-31.4-1.9-58.8-13.1-76.1-29.2-1.3 2.5-2.5 4.9-3.8 7.3 1.7 1.5 3.6 3 5.5 4.5 19.5 14.7 45.7 23.7 74 25.4z" fill="#fff"/><ellipse cx="622" cy="1096" fill="#fff" rx="54" ry="87.7" transform="matrix(.2202 -.9755 .9755 .2202 -584.079 1461.4415)"/><path d="M640.3 1155.2c-10 0-20.4-1.2-30.8-3.5-23.4-5.3-44.1-15.9-58.4-29.9-14.7-14.4-20.9-30.6-17.5-45.7l2.9.7-2.9-.7c3.4-15.1 16-27.1 35.4-33.8 18.9-6.5 42.2-7.2 65.6-1.9s44.1 15.9 58.4 29.9c14.7 14.4 20.9 30.6 17.5 45.7s-16 27.1-35.4 33.8c-10.5 3.6-22.4 5.4-34.8 5.4zm-36.6-112.3c-11.8 0-22.9 1.7-32.8 5.1-17.4 6-28.6 16.4-31.5 29.5-2.9 13 2.7 27.3 15.8 40.1 13.5 13.2 33.2 23.3 55.5 28.3s44.4 4.4 62.3-1.7c17.4-6 28.6-16.4 31.5-29.4 6.2-27.5-25.8-58.2-71.4-68.4-9.9-2.4-19.8-3.5-29.4-3.5z" fill="#232323"/><path d="M613.7 1122.5c-.4 0-.9-.1-1.4-.2-2.4-.7-3.7-3.3-2.9-5.6l8.7-27.8-45.6-14.8c-2.4-.8-3.7-3.3-2.9-5.7s3.3-3.7 5.7-2.9l49.8 16.1c2.3.8 3.6 3.3 2.9 5.6l-10.1 32c-.5 2.1-2.3 3.3-4.2 3.3zm-566.3-99.1c-1.1 0-2.1-.6-2.7-1.6-.8-1.5-.2-3.3 1.2-4.1 47.2-24.9 126.3-42.1 222.9-48.3 67.3-4.3 137.8-2.8 193 3.7-26.9-7.9-64.9-17.7-107.6-25.8-55.8-10.6-136-21.6-201.5-13.4-1.6.2-3.1-1-3.3-2.6s1-3.1 2.6-3.3c124.5-15.6 305.5 34.9 345.6 50.6 1.4.6 2.2 2.1 1.8 3.6s-1.9 2.4-3.4 2.1c-57.6-10.8-144.5-14.2-226.7-8.9-95.8 6.2-174.1 23.1-220.5 47.6-.4.3-.9.4-1.4.4zm772.2 333.1c-.9 0-1.8-.4-2.4-1.2-15.1-19.8-45.3-46.9-45.6-47.2-1.2-1.1-1.3-3-.2-4.2s3-1.3 4.2-.2c1.3 1.1 30.9 27.7 46.4 48 1 1.3.8 3.2-.6 4.2-.5.4-1.1.6-1.8.6zm60.4-14.7c-1 0-1.9-.5-2.5-1.4-14.8-22.7-49-51-54.7-55.2-1.3-1-1.6-2.9-.6-4.2s2.9-1.6 4.2-.6c5.8 4.4 40.9 33.3 56.1 56.8.9 1.4.5 3.2-.9 4.2-.5.3-1 .4-1.6.4zm58.1-20.3c-1 0-1.9-.5-2.5-1.3-13.4-19.5-51.6-54-62.4-62.3-1.3-1-1.5-2.9-.5-4.2s2.9-1.5 4.2-.5c10 7.7 49.3 42.6 63.6 63.7.9 1.4.6 3.2-.8 4.2-.4.3-1 .4-1.6.4z" fill="#232323"/></svg></g></svg>