<svg width="560" height="400" fill="none" xmlns="http://www.w3.org/2000/svg"><defs><clipPath id="c"><path transform="translate(332.013 81.283)" fill="#fff" fill-opacity="0" d="M0 0h90.742v92.927H0z"/></clipPath><clipPath id="b"><path transform="translate(81 6)" fill="#fff" fill-opacity="0" d="M0 0h383v387H0z"/></clipPath><clipPath id="a"><path fill="#fff" fill-opacity="0" d="M0 0h560v400H0z"/></clipPath></defs><g clip-path="url(#a)"><path d="M81 6h383v387H81z"/><g clip-path="url(#b)"><path d="M390.3 38.21s-9.76 10.97-24.09 13.06c-13.18 1.95-22.45-4.78-39.61-7.79-20.69-3.64-36.97 4.77-41.18 22.92-3.5 15.06-6.89 22.52-22.02 30.17-15.14 7.64-25.28 30.17-4.02 53.27 0 0 144.45-66.41 141.77-100.51L390.3 38.21z" fill="#232323"/><path d="M304.43 86.4c-16.96-16.71-21.42 4.06-10.67 11.67 0 0 3.88-1.44 6.78-4.59 2.9-3.14 3.89-7.08 3.89-7.08zm130.56-60.3c-11.46 8.91-24.18 13.5-27.37 14.43-.52.15-.19-.46-.19-.46l.34-.39 17.95-11.45 7.39-4.79.53-.33s0 .02.01.02c.47.96.9 1.96 1.34 2.97z" fill="#232323"/><path d="M429.48 16.35c1.38 2.02 2.9 4.16 4.16 6.72 0 0 0 .02.01.02 3.39 7.15 3.1 8.23 6.63 9.33 2.07.6.71 3.36-.61 4.42.82 3.86 3.96 15.99-1.21 20.2-2.11 1.73-9.59 1.73-13.22 1.34-1.38.46-3.74 2.51-6.39 5.57-5.02 5.8-11.82 18.66-13.92 24.4 0 0-11.96 12.56-26.83-.77 0 0 5.94-6.86 1.16-18.33 0 0 21.61-6.1 23.55-27.81-2.34.78-8.01 2.01-8.03 2.02-.2.04-.39.08-.55.11 0 0-9.68-16.16-2.91-25.86 6.78-9.7 18.94-12.64 26.41-9.7 7.48 2.95 10.08 5.89 11.75 8.34z" fill="#FFF"/><path d="M391.88 94.44c-6.25 0-11.28-3.36-14.65-6.56a.652.652 0 01-.03-.93c.02-.02 1.53-1.64 2.46-4.59.85-2.71 1.37-7.15-1.01-12.85a.676.676 0 01.02-.54c.08-.17.23-.3.41-.35.05-.01 5.38-1.55 10.87-5.68 7.04-5.31 11.11-12.23 12.1-20.6-.52.14-1.17.32-1.83.5-.2.05-.34.09-.38.1-.39.12-2.34.61-3.52.87-.22.04-.39.08-.54.12-.2.05-.34.08-.47.09-.1.02-.25.05-.31.06-.03.01-.06.02-.1.03-.19.03-.37.07-.53.1a.658.658 0 01-.79-.49c-.08-.36.15-.71.5-.79.17-.03.35-.07.54-.1.09-.03.24-.06.5-.11.03 0 .06 0 .09-.01.04 0 .16-.03.26-.06.16-.03.36-.08.58-.13 1.17-.25 3.1-.74 3.38-.83.01 0 .02-.01.03-.01l.42-.11c.7-.19 2.34-.63 2.72-.75.21-.07.44-.03.62.11.17.13.26.35.24.57-1.02 11.45-7.5 18.56-12.76 22.51-4.55 3.43-8.91 5.1-10.56 5.65 2.23 5.79 1.66 10.34.75 13.17-.72 2.25-1.74 3.77-2.31 4.51 3.08 2.81 6.32 4.62 9.63 5.37 2.75.64 5.58.54 8.39-.27 4.33-1.25 7.3-3.83 7.87-4.36 2.24-6.01 8.84-18.73 13.89-24.56 2.71-3.15 5.15-5.25 6.67-5.76.09-.03.19-.04.28-.03 4.08.43 10.95.26 12.73-1.19 4.5-3.66 2.18-14.15 1.19-18.63-.08-.35-.15-.66-.21-.94a.65.65 0 01.23-.64c.79-.63 1.57-1.97 1.42-2.75-.04-.18-.14-.4-.57-.53-3.12-.97-3.6-2.05-5.39-6.06-.42-.96-.95-2.14-1.61-3.53-.03-.04-.05-.09-.08-.14-1.2-2.45-2.56-4.66-4.06-6.57-.22-.28-.17-.7.12-.92.28-.22.7-.17.92.11 1.55 1.98 2.95 4.25 4.19 6.77.02.03.04.07.06.1.68 1.45 1.23 2.66 1.66 3.64 1.77 3.95 2.04 4.56 4.57 5.35.8.23 1.33.77 1.48 1.52.24 1.22-.58 2.81-1.57 3.76.04.17.08.35.12.55 1.05 4.71 3.49 15.75-1.64 19.92-2.36 1.95-10.04 1.85-13.55 1.5-1.04.42-3.11 2.01-5.97 5.33-4.81 5.56-11.52 18.37-13.7 24.3-.03.09-.08.17-.15.24-.14.13-3.4 3.3-8.53 4.78-1.78.51-3.48.74-5.09.74zm3.2-50.39c-.02.01-.05.02-.07.03.03-.01.06-.02.07-.03zm.15-1.34h-.01.01zm39.06-19.64zm0 0zm0-.01zm0 0zm-.63-.63z" fill="#232323"/><path d="M433.68 22.95c-5.24 5.38-18.8 14.65-26.45 17.06-8.41 2.64-12.11 3.47-12.23 3.48-.86.14-1.11.18-1.4-.1-10.32-9.76-7.82-28.7 7.9-35.29 10-4.39 20.49-1.71 27.03 6.15 1.79 2.15 3.92 5.3 5.25 8.12.09.19.05.42-.1.58z" fill="#D9C6F4"/><path d="M425.41 57.86c-1.37.46-3.74 2.51-6.38 5.57-4.73-2.71-6.24-7.33-5.16-8.41 1.01-1 3.07.19 4.32.73 2.53 1.07 4.52 1.76 7.22 2.11zm-.9-27.96c-2.27 1.74-2.86 4.43-1.88 5.42.99.98 3.52.24 5.44-1.88 1.95-2.19 2.81-4.56 1.88-5.41-.97-.88-3.2.14-5.44 1.87zm12.63 16.23c-1.33 1.24-3.82 1.04-5.12-.46-.71-.76-1.15-1.96-.79-3.15.15-.45.82-.35.82.11.01.04-.05 1.21.92 2.17 1.01 1.01 2.62 1.19 3.7.65l.02-.02c.2-.11.46-.02.56.18.03.21.02.41-.11.52zm-8.74-10.81c.86-.87 2.95-2.92 4.4-5.53.2-.37.65-.5 1.02-.3.95.54 2.31 1.65 1.1 3.3-2.04 2.78-7.08 4.01-6.59 2.68a.42.42 0 01.07-.15z" fill="#232323"/><path d="M407.43 40.05s-5.55-3.25-10.36-.19c-4.52 2.88-2.06 10.26 7.67 12.43 1.49.34 4.08.51 6 .21l-3.31-12.45z" fill="#FFF"/><path d="M408.49 53.31c-1.46 0-2.92-.16-3.89-.38-2.9-.64-5.4-1.8-7.23-3.35-1.66-1.41-2.75-3.14-3.05-4.86-.39-2.19.51-4.21 2.4-5.41 5.08-3.24 10.8.03 11.04.17.31.19.42.59.23.9-.18.31-.59.42-.9.23-.07-.04-5.27-2.99-9.66-.19-1.45.92-2.11 2.4-1.82 4.07.43 2.45 3.12 5.79 9.28 7.16 1.39.32 3.87.49 5.75.2.35-.05.69.19.75.55.05.36-.19.69-.55.75-.73.11-1.54.16-2.35.16z" fill="#232323"/><path d="M408.88 47.82c-.18 0-.36-.08-.49-.22-.04-.05-3.86-4.29-8.62-2.83a.652.652 0 01-.82-.43c-.11-.35.08-.72.43-.82 5.58-1.72 9.82 3.01 10 3.21.24.27.21.69-.06.93a.72.72 0 01-.44.16zM197.63 162.09a.566.566 0 00-.33-.33.58.58 0 00-.48.05c-1.31.77-5.12 3.23-12.15 9.31-6.47 5.61-13.65 12.58-20.75 20.16-6.33 6.76-11.3 14.75-13.99 22.51-2.58 7.45-2.96 14.21-1.07 19.02 1.71 4.33 5.12 6.8 9.88 7.14.36.03.71.04 1.06.04 3.24 0 6.08-1.1 8.46-3.26 7.5-6.86 7.92-22 7.94-23.04 2.16-15.41 6.44-29.03 12.39-39.39 4.35-7.58 8.14-10.97 8.86-11.57.29-.25.21-.55.18-.64zM433.68 22.95c-1.7 1.75-4.33 3.95-7.38 6.2-1.57-1.62-3.5-5.4-3.12-8.16.39-2.77 2.16-5.16 5.35-6.74 1.76 2.11 3.91 5.29 5.25 8.12.09.19.05.42-.1.58zM332.7 331.57c-.08-.08-8.56-7.54-18.26-16.61-12.84-11.99-22-21.34-26.5-27.03-3.8-4.85-9.87-10.38-17.19-9.19-3.86.63-6.84 3.28-8.18 7.28-1.06 3.15-.99 6.84.18 10.65 1.31 4.28 3.9 8.44 7.69 12.37 11.65 12.11 32.45 20.01 61.82 23.5h.07a.553.553 0 00.37-.97z" fill="#232323"/><path d="M231.01 187.07l-5.18 47.54c-26.58 3.5-78.07-67.75-92.91-89.93.16-.12-2.27 1.71 24.15-18.15 7.21 16.36 19.4 24.58 40.07 35.72 22.25 12.08 33.87 24.82 33.87 24.82z" fill="#FFF"/><path d="M179.26 151.73c-4.45 4.12-14.41 14.19-24.07 23.65-13.02-16.77-22.19-30.59-22.27-30.7 0 0 18.28-13.75 23.03-17.31l1.12-.84c4.71 10.74 11.13 17.64 22.19 25.2z" fill="#D9C6F4"/><path d="M148.47 166.53l1.11 1.51c.11-.08 2.93-2.53 23.01-21.25 0 0-1.39-1.17-1.43-1.2-19.98 18.59-22.6 20.85-22.69 20.94z" fill="#FFF"/><path d="M223.88 235.39c-11.57 0-28.17-11.98-49.4-35.68-20.81-23.22-38.73-49.61-42.11-54.67a.661.661 0 01.16-.89c.07-.05.99-.74 9.82-7.38l14.32-10.76a.63.63 0 01.56-.11c.2.05.36.18.44.37 3.41 7.72 8.11 13.94 14.81 19.58 6.52 5.48 14.7 10.28 24.98 15.82 11.54 6.27 20.17 12.71 25.38 17.01 5.65 4.68 8.53 7.82 8.65 7.95.13.14.19.33.17.51l-5.17 47.54c-.04.3-.27.54-.57.58-.66.09-1.34.13-2.04.13zm-90.06-90.56c4.1 6.11 21.52 31.55 41.65 54.01 10.03 11.2 19.15 19.88 27.11 25.79 9.13 6.78 16.75 9.94 22.65 9.39l5.09-46.72c-.75-.79-3.58-3.69-8.35-7.63-5.16-4.26-13.71-10.64-25.14-16.85-10.35-5.57-18.59-10.42-25.2-15.97-6.64-5.58-11.37-11.73-14.83-19.3l-22.98 17.28z" fill="#232323"/><path d="M332.33 331.98c-.04.06-.09.11-.17.17-.22.24-.52.57-.89 1-1.68 1.89-4.84 5.53-8.34 9.59l-.02.02-.5.6c-1.64 1.89-3.33 3.86-4.97 5.75-.41.48-.82.96-1.23 1.43-3.31 3.86-6.33 7.34-8.04 9.31-.3.35-.56.65-.78.89-.1.11-.17.21-.25.28-.2.22-.33.39-.41.46l-.01.02-.04.04s-.49.09-1.3.2h-.06c-3.61.49-13.53 1.23-19.38-3.56 0 0-.02-.02-.04-.02-1.09-.89-2.05-2-2.79-3.34-.72-1.31-1.25-2.87-1.51-4.69v-.08c.02-.03.06-.11.13-.26a36205.833 36205.833 0 008.1-15.86c1.23-2.39 2.51-4.9 3.78-7.39.48-.92.95-1.85 1.43-2.78.04-.05.06-.11.1-.16 0-.02.02-.04.02-.04 2.36-4.62 4.59-8.96 6.25-12.19.19-.36.37-.71.54-1.04.02-.02.02-.04.02-.04 1.26-2.47 2.08-4.04 2.23-4.28v-.02l28.09 25.97.04.02z" fill="#FFF"/><path d="M332.33 331.98c-.04.06-.09.11-.17.17-.22.24-.52.57-.89 1-1.68 1.89-4.84 5.53-8.34 9.59l-.02.02-.5.6c-1.64 1.89-3.33 3.86-4.97 5.75-.41.48-.82.96-1.23 1.43-3.31 3.86-6.33 7.34-8.04 9.31-.3.35-.56.65-.78.89-.1.11-.17.21-.25.28-.2.22-.33.39-.41.46l-.01.02-.04.04s-.49.09-1.3.2h-.06c-3.61.49-13.53 1.23-19.38-3.56 0 0-.02-.02-.04-.02-1.09-.89-2.05-2-2.79-3.34-.72-1.31-1.25-2.87-1.51-4.69v-.08c.02-.03.06-.11.13-.26a36205.833 36205.833 0 008.1-15.86c1.23-2.39 2.51-4.9 3.78-7.39.48-.92.95-1.85 1.43-2.78.04-.05.06-.11.1-.16 0-.02.02-.04.02-.04 2.36-4.62 4.59-8.96 6.25-12.19.19-.36.37-.71.54-1.04.02-.02.02-.04.02-.04 1.26-2.47 2.08-4.04 2.23-4.28v-.02l28.09 25.97.04.02z" fill="#FFF"/><path d="M322.93 342.76l-.52.62c-1.62 1.89-3.32 3.84-4.97 5.75-.41.48-.82.96-1.23 1.43-3.33 3.85-6.33 7.34-8.04 9.33-.3.33-.56.63-.77.89-.09.11-.18.2-.26.3-.18.2-.31.37-.39.46 0 .02-.02.02-.02.02-.01.02-.03.04-.03.04s-.49.09-1.31.2l-.05-.02-19.38-3.56h-.04c-1.1-.89-2.05-2.01-2.79-3.34-.73-1.32-1.27-2.88-1.51-4.71v-.06c.02-.04.06-.11.13-.26.67-1.32 3.67-7.2 7.28-14.23.28-.54.56-1.1.86-1.65 1.23-2.4 2.49-4.9 3.76-7.37l29.28 16.16z" fill="#D9C6F4"/><path d="M317.46 349.13c-.41.48-.82.96-1.23 1.43h-.02l-27.2-14.94c.28-.54.56-1.1.84-1.65.02 0 .02 0 .02.02h.02l27.36 15.03c.08.01.13.05.21.11z" fill="#FFF"/><path d="M299.92 362.75c-1.11 0-2.29-.04-3.52-.16-4.56-.44-8.2-1.74-10.82-3.86-.03-.01-.06-.04-.09-.06-1.2-.96-2.19-2.15-2.95-3.53-.79-1.43-1.33-3.08-1.59-4.92 0-.03-.01-.06-.01-.09v-.06c0-.1.03-.22.07-.31l.13-.26c.49-.95 2.18-4.27 4.44-8.68l2.83-5.54c.28-.54.55-1.09.83-1.64 1.23-2.4 2.52-4.91 3.78-7.39.25-.47.48-.93.72-1.39.24-.47.48-.93.72-1.4a.21.21 0 01.04-.06v-.01c.01-.03.03-.05.04-.08.01-.03.03-.06.05-.09 1.67-3.26 3.27-6.38 4.65-9.06l1.58-3.09c.19-.36.38-.7.54-1.03 0-.01.01-.02.01-.02 0-.01.01-.02.01-.03 1.68-3.27 2.1-4.06 2.23-4.28.07-.14.18-.25.33-.31a.64.64 0 01.71.11l28.03 25.92c.14.08.24.22.29.38.05.19.01.38-.09.54-.07.1-.16.19-.27.28-.21.24-.5.55-.84.95-1.75 1.98-5.03 5.74-8.34 9.59-.01.01-.02.03-.03.04l-.49.57c-.82.95-1.65 1.92-2.49 2.88-.83.97-1.66 1.93-2.48 2.88-.41.48-.83.96-1.24 1.43-3.56 4.16-6.56 7.61-8.03 9.31-.3.35-.56.65-.79.89l-.03.05c-.08.09-.15.17-.23.25-.1.11-.18.21-.24.28-.08.09-.14.15-.18.2l-.05.05c-.1.1-.22.16-.35.18-.02.01-.51.1-1.34.21-.03.01-.05.01-.08.01h-.02c-1.18.16-3.13.35-5.44.35zm-13.55-5.07c5.79 4.73 15.9 3.81 18.86 3.41h.1c.46-.07.81-.12 1.02-.16 0-.01.01-.02.02-.03.08-.09.17-.2.29-.32 0-.01.01-.02.02-.02.05-.05.09-.11.15-.18l.05-.06.02-.02c.22-.24.47-.53.76-.87 1.49-1.7 4.48-5.16 8.05-9.32.41-.46.82-.95 1.22-1.42.83-.96 1.66-1.92 2.49-2.89.84-.96 1.67-1.93 2.49-2.87l.5-.59c.01-.01.02-.03.04-.04 3.31-3.85 6.58-7.61 8.33-9.58.23-.27.43-.5.61-.7l-27.01-24.97c-.31.6-.86 1.66-1.8 3.49-.02.05-.04.09-.06.13l-.53 1-1.58 3.08c-1.38 2.7-2.99 5.83-4.67 9.11 0 0 0 .01-.01.01-.01.03-.03.06-.05.09v.01l-.06.12c-.24.45-.48.91-.71 1.37-.24.46-.47.92-.72 1.39-1.26 2.48-2.54 4.99-3.77 7.38-.28.55-.56 1.11-.84 1.65l-2.83 5.54c-2.25 4.41-3.95 7.72-4.43 8.67l-.04.09c.24 1.62.72 3.07 1.41 4.33.67 1.2 1.53 2.24 2.57 3.09l.11.08zm9.42-34.08zm0 0zm5.52-13.31zm0 0zm0 0z" fill="#232323"/><path d="M340.46 386.25c-2.33 2.94-8.86 6.35-20.44 6.18l-56.35-.78c2.08-13.87 8.95-27.1 18.22-41.52 4.6 1.52 4.6 8.01 10.73 8.78 5.92.74 7.67.94 14.31 2.57.26.06.5.15.75.23.07.02.13.03.2.05 4.26 1.23 8.4 2.86 12.34 4.88 15.18 7.87 19.75 18.45 20.18 19.52.02.02.02.04.02.06l.04.03z" fill="#FFF"/><path d="M320.5 393c-.26 0-.52-.01-.78-.01l-56.01-.78c-.2 0-.38-.09-.5-.24a.63.63 0 01-.14-.53l.06-.39c2.74-16.18 11.82-31.19 16.18-38.4.78-1.3 1.4-2.32 1.81-3.06.16-.29.52-.42.83-.3 2.02.81 3.18 2.51 4.31 4.14 1.44 2.11 2.8 4.09 5.92 4.48 11.07 1.39 18.41 2.98 27.83 7.87 14.65 7.59 19.61 18.02 20.45 20.04l.08.19c.1.23.06.49-.1.68l-.14.16c-1.21 1.44-6.25 6.15-19.8 6.15zm-56.01-2.09l55.25.77h.76c12.55 0 17.35-4.06 18.67-5.53-1.01-2.32-5.91-12.02-19.77-19.2-9.29-4.83-16.24-6.34-27.39-7.74-3.7-.46-5.37-2.89-6.84-5.03-.95-1.38-1.85-2.69-3.2-3.42-.4.69-.91 1.54-1.53 2.56-4.29 7.09-13.18 21.79-15.95 37.59z" fill="#232323"/><path d="M270.11 371.81c-.34 0-.62-.26-.65-.6a.64.64 0 01.6-.71c2.89-.25 5.54-1.87 7.25-3.17.94-.72 1.69-1.34 2.43-1.96 2.61-2.18 4.18-3.5 9.75-4.46a.658.658 0 11.22 1.3c-5.22.9-6.52 1.99-9.12 4.16-.76.64-1.52 1.26-2.48 2-1.85 1.41-4.73 3.16-7.94 3.43-.02 0-.04.01-.06.01z" fill="#232323"/><path d="M299.68 374.21c-.76 0-1.4-.63-1.4-1.39 0-.2.04-.39.13-.57.15-.32 3.61-7.76 13.57-10.78.75-.23 1.53.18 1.75.92.23.75-.18 1.52-.93 1.75-3.65 1.11-6.74 3-9.19 5.62-1.85 1.97-2.63 3.64-2.65 3.65-.24.49-.74.8-1.28.8zm6.79 2.73a1.4 1.4 0 01-1.39-1.39c0-.22.05-.45.16-.65.17-.34 4.42-8.18 14.23-10.32.74-.16 1.49.32 1.65 1.06.17.74-.31 1.48-1.06 1.65-8.5 1.86-12.3 8.83-12.34 8.89-.24.46-.73.76-1.25.76zm7.88 2.19c-.77 0-1.4-.63-1.4-1.39 0-.24.06-.47.17-.67.17-.3 4.04-7.09 12.97-8.91.77-.14 1.49.34 1.64 1.1.15.74-.33 1.46-1.08 1.63-7.65 1.56-11.07 7.48-11.09 7.53-.24.45-.71.71-1.21.71z" fill="#00676C"/><path d="M279.65 135.1c-24.13 9.19-48.64 51.96-48.64 51.96s-11.45-13.09-33.88-24.79c-3.09 2.07-18.04 18.5-20.91 44.08-1.04 9.28-.58 32.08-17.42 33.03 0 0 65.13 8.98 135.42-28.45 0 0 11.88 30.75 24.15 46.02 0 0-16.09 17.37-47.51 22.34 0 0 9.33-1.88 20.68 18.14 11.49 20.25 27.96 30.75 40.81 34.57 0 0 39.46-38.76 39.65-75.03.13-25.61-17.44-64.94-17.44-64.94l-74.91-56.93z" fill="#FFF"/><path d="M239.04 198.51c-.22 0-.44-.11-.56-.32-3.21-5.17-7.92-10.65-7.97-10.71-.11-.12-11.64-13.12-33.69-24.63a.662.662 0 01-.28-.89c.17-.32.57-.44.89-.28 11.64 6.08 20.28 12.53 25.47 16.87 5.64 4.71 8.49 7.94 8.6 8.07.05.06 4.83 5.63 8.1 10.88a.665.665 0 01-.56 1.01z" fill="#232323"/><path d="M332.35 332.66c-.06 0-.13-.01-.19-.03-5.02-1.49-12.77-4.66-21.13-11.24-7.97-6.27-14.72-14.22-20.06-23.63-3.16-5.57-8.19-12.92-14.19-16.25-3.29-1.82-5.45-1.62-5.76-1.58-.02 0-.03 0-.05.01a.672.672 0 01-.76-.53c-.06-.36.17-.69.52-.76.02-.01.07-.02.14-.03 16.04-2.55 27.96-8.42 35.13-12.89 6.43-4.01 10.3-7.65 11.49-8.83-11.04-14.02-21.78-40.44-23.61-45.04-15.88 8.4-32.8 15.1-50.29 19.94a255.717 255.717 0 01-43.37 8.04c-24.86 2.42-41.35.21-41.51.19a.663.663 0 01-.57-.68c.01-.34.28-.61.62-.63 14.26-.8 15.64-18.19 16.46-28.58.12-1.41.22-2.74.35-3.86 2.79-24.93 17.32-41.96 21.19-44.56.2-.13.46-.15.67-.03 19.42 10.13 30.78 21.44 33.46 24.27 1.58-2.67 7.2-11.91 14.87-21.84 12.21-15.81 23.53-25.78 33.65-29.63.22-.08.46-.05.64.09l74.91 56.93c.08.06.15.15.2.25.04.1 4.45 10.01 8.79 22.93 4.01 11.94 8.78 28.96 8.71 42.28-.05 8.36-2.17 17.54-6.33 27.28-3.31 7.77-7.92 15.92-13.68 24.21-9.82 14.11-19.74 23.91-19.84 24.01a.66.66 0 01-.46.19zm-57.4-53.43c3.92 1.37 10.18 5.57 17.17 17.88 13.48 23.76 32.21 31.75 40.04 34.15 1.66-1.68 10.59-10.86 19.42-23.57 5.71-8.22 10.27-16.28 13.55-23.96 4.08-9.58 6.17-18.58 6.21-26.77.07-13.13-4.66-30.01-8.64-41.86-4.02-11.98-8.11-21.36-8.68-22.65l-74.48-56.6c-9.67 3.81-20.98 13.85-32.73 29.06-9.01 11.67-15.17 22.36-15.23 22.47a.661.661 0 01-1.07.11c-.03-.04-2.91-3.31-8.48-7.96-5.09-4.25-13.51-10.53-24.85-16.49-1.64 1.3-5.85 5.74-10.02 12.79-3.86 6.5-8.77 17.09-10.28 30.59-.13 1.1-.23 2.42-.34 3.82-.42 5.26-.99 12.47-3.34 18.43-2.14 5.44-5.44 8.95-9.84 10.49 6.48.5 19.61 1.04 36.77-.63 14.52-1.41 29.03-4.1 43.13-8 17.63-4.88 34.67-11.67 50.65-20.17.17-.09.37-.11.54-.04.18.06.32.2.39.38.12.3 11.98 30.82 24.04 45.84.21.25.19.62-.03.85-.16.18-4.17 4.47-12.1 9.42-6.7 4.18-17.46 9.56-31.8 12.42z" fill="#232323"/><path d="M177.1 240.97c-8.67 0-15.18-.5-18.39-.94a.67.67 0 01-.57-.74c.05-.36.39-.61.75-.56 5.62.77 21.46 1.73 41.24-.2 14.52-1.41 29.03-4.1 43.13-8 17.63-4.88 34.67-11.67 50.65-20.18.23-.12 23.65-13.14 36.2-28.72.23-.28.65-.33.93-.1s.33.64.1.92c-12.72 15.78-36.38 28.94-36.61 29.06-16.07 8.56-33.21 15.39-50.94 20.29a255.717 255.717 0 01-43.37 8.04c-8.62.84-16.5 1.13-23.12 1.13zm93.76 38.98c-.32 0-.6-.24-.65-.56-.06-.36.19-.69.55-.75 16.1-2.55 28.05-8.43 35.24-12.91 7.8-4.87 11.85-9.18 11.89-9.23l.02-.02c.06-.06 6.81-6.74 10.04-11.65.19-.3.6-.38.91-.19.3.2.39.61.19.91-3.27 4.97-9.81 11.46-10.21 11.86-.28.3-4.28 4.52-12.09 9.4-7.31 4.56-19.44 10.54-35.78 13.13-.04 0-.07.01-.11.01zm176.61-150.54c3.42-.39 9.88-1.34 13.98 1.33 4.98 3.25 3.07 12.99-12.29 12.62-16.64-.39-37.66 2.71-37.66 2.71s24.48-15.33 35.97-16.66z" fill="#232323"/><path d="M461.45 130.74c-.1-.05-4.38-2.54-13.63-.94-4.39.76-9.9 2.43-16.64 5.73-10.54 5.16-17.82 12.99-20.31 15.85-9.96-7.65-29.64 3.45-52.68-4.77-37.94-13.57-37.37-22.53-45.41-44.5-2.75-7.49-5.77-12.56-8.63-15.95-6.05-7.2-11.37-6.94-11.67-6.92.81-.36 18.89-1.9 28.16-4.62 20.12-5.92 30.64-13.94 45.98-12.99 18.61 1.15 17.05 17.75 12.45 25.58 12.4 12.53 25.44.86 25.44.86 4.48-13.33 16.13-10.02 22.07-1.43 3.2 4.64 6.53 9.48 15.13 23.1 7.62 12.43 14.51 17.47 19.74 21z" fill="#00676C"/><path d="M329.35 133.19a.73.73 0 01-.42-.14c-8.35-6.71-10.92-14.11-14.47-24.34-.7-2.04-1.43-4.14-2.26-6.39-2.75-7.52-5.22-12.08-8.51-15.76-4.23-4.73-8.13-6.9-11-6.12-1.8.49-3.11 2.18-3.6 4.64-.71 3.59.44 8.92 4.65 12.16.29.22.34.63.12.92-.22.28-.64.34-.93.12-4.65-3.58-5.92-9.49-5.13-13.46.59-2.96 2.24-5.02 4.54-5.65 2.39-.65 6.47-.04 12.34 6.52 3.4 3.81 5.94 8.5 8.76 16.18.83 2.26 1.56 4.37 2.27 6.41 3.48 10.03 5.99 17.28 14.05 23.75a.652.652 0 01-.41 1.16z" fill="#00676C"/><path d="M394.64 158.46c-.23 0-.45-.12-.57-.32a.66.66 0 01.23-.9c2.92-1.72 8.12-2.84 11.91-3.65 1.71-.37 3.64-.78 3.98-1.01.13-.09.12-.15.12-.2-.03-.3-.47-.88-1.36-1.24-2.36-.97-5.75-1.46-10.36-1.49-2.36-.02-5 .21-7.79.45-3.34.29-7.05.61-11.21.61-9.45 0-21.18-1.65-36-9.08-3.72-1.88-7.22-4.03-10.61-6.11-6.77-4.16-13.16-8.09-21.2-10.02-4.03-.96-6.23-.71-6.47-.68-.03.01-.07.01-.1.01a.658.658 0 01-.07-1.31c.45-.06 2.8-.29 6.95.7 8.24 1.98 15.02 6.15 21.59 10.18 3.36 2.07 6.83 4.21 10.5 6.05 21.01 10.54 35.75 9.27 46.5 8.34 2.83-.24 5.5-.47 7.92-.45 4.78.03 8.33.55 10.85 1.58 1.23.51 2.08 1.42 2.17 2.33.06.57-.2 1.1-.71 1.43-.52.34-1.8.63-4.42 1.19-3.7.8-8.78 1.88-11.52 3.5-.1.06-.22.09-.33.09z" fill="#232323"/><path d="M394.36 43.57c-.11.05-.15.09-.39.13-.26.05-.57.1-.91.14-7.68 1.08-33.09 1.14-34.49-6.77-1.11-6.19 15.2-10.03 24.35-11.68.6-.11 1.16-.21 1.69-.3.33-.05.65-.11.97-.15.89-.15 1.63-.26 2.2-.34.46-.07.8-.11.99-.14-1.23 6.77.56 13.95 5.34 18.86.09.08.17.17.25.25z" fill="#D9C6F4"/><path d="M394.65 43.78l-.78.5c-6.89-3.5-11.1-10.91-10.95-18.89 1.63-.29 2.76-.48 4.86-.79-1.22 7.34 1.4 14.66 6.87 19.18zm-74.32 345.27c-4.31 0-9.76-.69-14.58-3.04-7.24-3.53-10.09-2.98-12.61-2.49-3.03.6-5.58.69-10.95-3.59-4.29-3.41-9.25-3.67-14.76-.76a.659.659 0 01-.62-1.16c6.01-3.18 11.46-2.88 16.2.9 4.94 3.93 7.12 3.87 9.88 3.33 3.28-.65 6.36-.86 13.44 2.59 6.76 3.3 15.51 3.26 19.74 2.43 1.82-.36 8.07-1.76 11.8-4.73.29-.23.7-.18.93.1.23.28.18.69-.1.92-3.86 3.07-9.94 4.52-12.38 5-1.39.27-3.5.5-5.99.5z" fill="#232323"/><path d="M281.57 385.09c0 2.02-2.79 3.66-6.23 3.66-3.45 0-6.24-1.64-6.24-3.66 0-2.01 2.79-3.65 6.24-3.65 3.44 0 6.23 1.64 6.23 3.65z" fill="#00676C" fill-rule="evenodd"/><path d="M81.75 140.21c.82-3.66 5.23-9.54 15.73-14.4l51.08-23.59c2.57 9.43 7.35 24.91 17 37.86-5.81 1.35-7.92-2.27-13.67-1.32-6.66 1.11-13.03 7.07-29.19 9.29-.26.04-.52.1-.76.13-.08.02-.15.02-.21.04-4.37.74-8.8 1.04-13.23.93-17.11-.54-25.82-8.09-26.68-8.87-.02-.02-.03-.04-.03-.04l-.04-.03z" fill="#FFF"/><path d="M110.29 149.83c-.6 0-1.21-.01-1.81-.03-17.28-.54-26.15-8.17-27.1-9.04-.01 0-.02-.01-.02-.02l-.08-.07a.653.653 0 01-.17-.61c.89-3.99 5.59-9.98 16.09-14.85l51.08-23.58c.18-.08.38-.08.56 0 .17.08.3.24.35.42 2.76 10.13 7.52 25.04 16.89 37.63.14.18.17.41.09.62-.07.21-.25.36-.46.41-3.19.75-5.34.07-7.42-.58-1.89-.6-3.67-1.15-6.29-.72-2.44.4-4.83 1.48-7.85 2.84-5 2.25-11.24 5.06-21.36 6.45-.13.02-.26.05-.39.07-.12.02-.23.04-.34.06a.59.59 0 01-.14.02h-.01c-.02.01-.04.01-.06.02-3.76.63-7.64.96-11.56.96zm-27.81-9.84c1.66 1.42 10.15 8 26.04 8.5 4.43.11 8.83-.19 13.07-.91.06-.02.12-.02.16-.03h.03c.02-.01.04-.01.06-.02.1-.01.21-.03.32-.05.15-.03.3-.06.45-.08 9.94-1.37 16.07-4.13 21-6.35 2.98-1.34 5.56-2.5 8.17-2.94 2.93-.48 4.95.15 6.91.77 1.75.55 3.42 1.07 5.72.74-8.88-12.27-13.53-26.5-16.28-36.47L97.75 126.4c-12.05 5.58-14.71 11.71-15.27 13.59z" fill="#232323"/><path d="M119.95 150.37c-.77 0-1.4-.63-1.4-1.39 0-.39.17-.76.45-1.02 2.81-2.58 4.76-5.62 5.86-9.04.82-2.57.8-4.41.8-4.43-.02-.76.6-1.41 1.36-1.43.76-.02 1.42.6 1.43 1.36 0 .35.12 8.55-7.53 15.58-.28.24-.62.37-.97.37zm-8.01.36c-.76 0-1.39-.64-1.39-1.4 0-.42.2-.83.54-1.09 6.87-5.35 7.26-13.27 7.26-13.34.03-.76.69-1.36 1.45-1.32.76.04 1.36.67 1.32 1.43-.02.37-.43 9.28-8.34 15.44-.22.18-.54.28-.84.28zm-7.52-.38a1.4 1.4 0 01-1.39-1.39c0-.43.2-.85.55-1.11 6.22-4.71 6.72-11.52 6.74-11.6.06-.76.71-1.35 1.47-1.3.77.06 1.36.71 1.31 1.47-.02.33-.56 8.13-7.84 13.64-.24.2-.54.29-.84.29z" fill="#00676C"/><path d="M84.68 143.04c-.1 0-.19-.02-.28-.06a.657.657 0 01-.31-.88c2.14-4.43 6.99-8.36 8.98-9.85 3.07-2.28 11.06-6.58 19.47-6.58h.18c8.06.05 10.39-1.67 12.45-3.2 2.47-1.84 4.73-3.02 11.43-1.49 5.99 1.38 11.01-1.19 14.92-7.62.19-.31.6-.41.91-.22.31.19.41.59.22.9-3.49 5.74-7.83 8.62-12.94 8.62-1.1 0-2.24-.13-3.41-.4-6.15-1.41-8.09-.42-10.35 1.26-2.68 2-5.36 3.52-13.24 3.46-7.53-.06-15.4 3.75-18.85 6.33-1.49 1.11-6.51 5.07-8.59 9.36-.11.24-.34.37-.59.37z" fill="#232323"/><path d="M146.24 110.98c.78 1.86-1.17 4.44-4.35 5.76-3.17 1.33-6.38.89-7.16-.98-.78-1.86 1.16-4.44 4.34-5.76 3.18-1.32 6.39-.88 7.17.98z" fill="#00676C" fill-rule="evenodd"/><path d="M140.76 139.48c-.22 0-.43-.1-.56-.3a.67.67 0 01.2-.91c4.47-2.83 5.25-4.34 6.81-7.35.46-.87.92-1.74 1.52-2.79 1.16-2.01 3.15-4.73 6-6.22.33-.16.72-.04.89.28.17.32.05.72-.28.89-2.57 1.34-4.4 3.84-5.47 5.71-.59 1.02-1.04 1.88-1.49 2.74-1.56 3.01-2.5 4.83-7.27 7.85-.11.07-.23.1-.35.1z" fill="#232323"/><path d="M358.78 109.83c-.2 0-.4-.09-.53-.26-.21-.29-.16-.7.13-.92 3.87-2.91 7.56-6.16 10.96-9.67 5.57-5.74 8.9-10.62 10.07-12.46.19-.31.6-.4.91-.2.3.19.4.6.2.91-1.19 1.86-4.58 6.84-10.23 12.66a95.443 95.443 0 01-11.11 9.81.66.66 0 01-.4.13zm43.49 8.9a.65.65 0 01-.65-.57c-.3-2.14-.97-7.9-.66-14.95.25-5.82 1.09-11.2 2.5-15.99.1-.35.47-.55.82-.45.35.1.55.47.44.82-1.38 4.69-2.2 9.96-2.45 15.67-.3 6.95.36 12.61.65 14.72.05.36-.2.69-.56.74-.03.01-.06.01-.09.01z" fill="#FFF"/><path d="M332.013 81.283h90.742v92.927h-90.742z"/><g clip-path="url(#c)"><path d="M331.35 174.21h91.4V80.82h-91.4v93.39z" fill="#D9C6F4"/><path d="M332.21 138.26h89.59v-14.08h-89.59v14.08z" fill="#FFF"/><path d="M416.13 90.54c0 .79-.63 1.43-1.42 1.43-.78 0-1.42-.64-1.42-1.43 0-.79.64-1.42 1.42-1.42.79 0 1.42.63 1.42 1.42zm-8.35 0c0 .79-.63 1.43-1.42 1.43-.78 0-1.42-.64-1.42-1.43 0-.79.64-1.42 1.42-1.42.79 0 1.42.63 1.42 1.42zm-8.37.23a1.419 1.419 0 11-2.84 0c0-.79.64-1.43 1.42-1.43.79 0 1.42.64 1.42 1.43z" fill="#232323" fill-rule="evenodd"/><path d="M365.44 95.59c-.19 0-.35.15-.35.35v7.11c0 .19-.15.36-.36.36h-4.39a.36.36 0 01-.37-.36v-7.13c0-.18-.17-.35-.38-.35h-1.51c-.08 0-.17-.02-.23-.08-.14-.11-.18-.35-.05-.5l2.13-2.74 2.3-2.98c.02-.02.04-.04.05-.06.15-.13.38-.09.51.06l2.3 2.98 2.13 2.75c.05.06.07.15.07.23 0 .19-.15.36-.35.36h-1.5z" fill="#232323"/></g><path d="M419.3 197.54c-41.51 13-87.38-16.8-106.13-23.03-15.73-5.29-24.05-2.19-23.36-4.62.39-1.4 1.85-2.19 3.28-2.47.04 0 .05-.01.07-.01h.06c-.73-.19-3.8.18-1.7-2.3 3.63-4.29 11.83-2.34 12.07-2.29-.36-.11-19.38-6.57-23.18-24.06-4.15-19.01 9.18-39.27 23.42-52.33.01-.01.33-.28.35-.29 2.87 3.39 5.89 8.44 8.64 15.95 8.07 22 7.47 30.93 45.4 44.48 23.05 8.24 42.73-2.86 52.68 4.77l.02-.02c2.52-2.88 9.78-10.69 20.29-15.83 6.72-3.28 12.25-4.97 16.65-5.73.47 2.37.49 3.09.54 3.13.2 1.1.61 5.25.68 6.53 1.18 16.98-.79 49.05-29.78 58.12z" fill="#FFF"/><path d="M397.19 201.46c-8.46 0-17.47-1.26-27.19-3.78-15.83-4.11-30.21-10.72-41.76-16.03-6.09-2.79-11.34-5.21-15.27-6.51-9.05-3.05-15.54-3.28-19.42-3.42-2.45-.09-3.68-.14-4.21-.87-.16-.22-.32-.59-.16-1.14.27-.99.93-1.65 1.64-2.1-.25-.14-.46-.35-.58-.63-.35-.82.28-1.71.78-2.3 2.08-2.45 5.47-3.01 8.24-3a44.51 44.51 0 01-6.36-3.84c-7-5.06-11.54-11.61-13.13-18.94-1.95-8.91-.31-18.61 4.87-28.83 4.22-8.34 10.88-16.91 18.74-24.12.08-.07.38-.33.51-.4a.66.66 0 01.88.29c.15.3.05.65-.21.84-.06.04-.24.2-.28.24-7.76 7.11-14.31 15.54-18.46 23.74-5.04 9.94-6.64 19.35-4.76 27.96 1.91 8.84 7.91 14.75 12.6 18.14 5.3 3.84 10.08 5.42 10.13 5.44.33.1.53.46.43.8a.65.65 0 01-.78.46c-.84-.19-8.17-1.76-11.41 2.07-.5.58-.56.86-.57.93.19.15.93.2 1.22.22.27.02.51.04.7.09.26.07.46.28.49.55a.654.654 0 01-.57.74c-.56.1-2.44.53-2.85 2.01-.01.01-.01.02-.01.03.36.2 1.78.25 3.16.3 3.95.15 10.56.39 19.79 3.49 3.99 1.33 9.28 3.76 15.4 6.57 11.5 5.29 25.82 11.87 41.54 15.95 18.54 4.81 34.49 4.98 48.77.5 12.48-3.9 21.15-12.54 25.78-25.68 3.97-11.27 4.12-23.49 3.55-31.76-.09-1.67-.52-5.55-.67-6.42-.03-.1-.05-.24-.08-.44-.07-.47-.2-1.37-.47-2.72-.07-.36.16-.7.52-.77.35-.08.7.16.77.51.28 1.39.41 2.31.48 2.8.02.12.04.21.04.27.01.02.02.05.02.08.16.84.6 4.85.7 6.61.58 8.38.42 20.8-3.62 32.27-4.77 13.55-13.73 22.47-26.62 26.5-7.01 2.2-14.42 3.3-22.31 3.3zm51.7-69zm-.01-.01zm-.01-.01z" fill="#232323"/><path d="M411.14 161.06c-.24 0-.48-.14-.59-.37a.642.642 0 01.3-.87c.03-.02 4.39-1.99 10.82-3.14 5.86-1.11 9.12-1.61 11.07-1.91.78-.12 1.41-.21 1.78-.29-.18-.16-.5-.39-1.05-.65-2.91-1.4-10.53-2.34-22.44-.37a.654.654 0 11-.22-1.29c2.76-.46 16.87-2.59 23.24.48 1.93.93 2.1 1.78 1.91 2.33-.23.66-.65.73-3.03 1.09-1.93.3-5.18.79-11.02 1.9-6.21 1.11-10.45 3.01-10.49 3.03-.09.04-.18.06-.28.06z" fill="#232323"/><path d="M369.35 174.38c-8.96 0-17.26-.97-27.63-3.8-2.88-.79-5.96-1.87-9.39-3.1-.81-.29-1.62-.58-2.44-.87-6.4-2.33-12.45-4.52-17.04-3.85-.92.14-1.26.36-1.26.48 0 .01.03.29 1.07.82 7.82 3.92 11.47 6.54 14.24 8.79.28.23.32.65.09.93s-.64.32-.92.09c-2.72-2.2-6.29-4.78-14.01-8.64-.83-.43-1.78-1.04-1.78-1.99s.8-1.55 2.38-1.78c4.92-.72 11.12 1.53 17.68 3.91.81.3 1.62.59 2.43.88 3.41 1.21 6.46 2.28 9.3 3.06 14.75 4.03 25.31 4.25 39.64 3.27 11.78-.82 23.56-4.42 31.36-7.3 9.79-3.6 19.62-5.79 22.85-6.52l.11-.02c.53-.12 1.76-.48 1.61-1.22-.18-.86-1.79-1.97-3.37-1.67a.66.66 0 01-.77-.52.66.66 0 01.52-.77c2.08-.39 4.55.97 4.91 2.69.1.49.21 2.14-2.61 2.77l-.11.02c-3.21.72-12.98 2.9-22.68 6.47-7.89 2.91-19.79 6.55-31.73 7.38-4.42.3-8.5.49-12.45.49z" fill="#232323"/><path d="M317.55 168.04c-.1 0-.21-.02-.31-.07-4.86-2.6-11.26-4.01-13.78-4.5a.657.657 0 01.25-1.29c2.58.5 9.13 1.95 14.15 4.63.32.17.44.57.27.89-.12.22-.34.34-.58.34zm-1.83 8.05c-.15 0-.31-.05-.43-.16-4.11-3.59-12.54-7.42-22.1-7.87a.654.654 0 01-.63-.69c.02-.36.33-.64.69-.62 9.88.46 18.62 4.45 22.91 8.19.27.24.3.65.06.93-.13.15-.31.22-.5.22zm94.83-22.3c-.21 0-.42-.11-.55-.3-.2-.3-.12-.71.19-.91.13-.08.12-.15.12-.2-.03-.3-.47-.88-1.36-1.24-2.36-.97-5.75-1.46-10.36-1.49-2.36-.02-5 .21-7.79.45-3.34.29-7.05.61-11.21.61-9.45 0-21.18-1.65-36-9.08-3.72-1.88-7.22-4.03-10.61-6.11-6.77-4.16-13.16-8.09-21.2-10.02-4.03-.96-6.23-.71-6.47-.68-.03.01-.07.01-.1.01a.658.658 0 01-.07-1.31c.45-.06 2.8-.29 6.95.7 8.24 1.98 15.02 6.15 21.59 10.18 3.36 2.07 6.83 4.21 10.5 6.05 21.01 10.54 35.75 9.27 46.5 8.34 2.83-.24 5.5-.47 7.92-.45 4.78.03 8.33.55 10.85 1.58 1.23.51 2.08 1.42 2.17 2.33.06.58-.2 1.1-.71 1.43-.11.07-.23.11-.36.11z" fill="#232323"/></g><path d="M100.28 68.05h105.91M52.05 293.4h72.11M16 189.74h72.11M181.4 32H240m-103.67 0h27.05m-91.5 306.47H144m-112.68 0h22.53" stroke="#112C41" stroke-linecap="round"/></g></svg>