<svg xmlns="http://www.w3.org/2000/svg" viewBox="0 0 3000 3000" width="3000" height="3000"><g transform="translate(134.4 669.6) rotate(0.0 1336.8 927.5999999999999) scale(1.7466860917114726 1.7481601537838167)"><svg width="1530.67" height="1061.23" viewBox="0 0 1530.67 1061.23"><path d="M288.52 805.29C204 764.52 43 673.13 5.21 717.82-25.12 762 78 825.92 288.52 805.29zm657.86 58.5c50.89-116.22 220.72-217.25 266-180.19 37.93 37.89-56.26 158.87-266 180.19z" fill="#232323"/><path d="M1527.65 387.81c1.92 45.44-132.67 465.93-219.35 565.35-84 96.37-153.06 88.26-221.52 46.21C999 945.46 957.8 875 957.26 874.06s0-.08 0-.17c.37-1.75 3.45-14.76 13.49-35.71 19.31-40.3 64.36-110 165.42-185.64 12.66 11.37 23.64 22.38 32.38 31.67.11.1.21.22.31.33 14.24 15.14 22.52 25.64 22.52 25.64l87.85-126.72a106.5 106.5 0 0 0 18.78-65.66 152 152 0 0 1 .5-24.79c4.32-26 8.35-32.43 19.41-3.21 8.31 25.19 31 25.51 42.19 18.64 10.81-7.26 17.94-27.82-.17-42.08-9.9-7.19-27.86-5.48-41.61-4.61-21.35-.29-4.47-15.81 10.13-20.94 25-8.77 64-7.19 85.56 7.66-6.38-12.2-33.64-45.73-43.33-57.5-8-10.2-20.89-31.41-9-30 27.6 3.38 77.11 51 86.62 70.73 1.76-8.86 8-71.71 10.26-82.39 2.82-13.08 9-21.8 16.81-12.11 14 17.34 8.9 98 8.9 98s23.45-50.54 27.86-57.09c5.25-7.59 14.63-11.31 15.51 9.7z" fill="#fff"/><path d="M1176.13 1032.19c-28.32 0-57.63-9.81-90.92-30.26-86.7-53.24-128.76-123.35-130.51-126.3a3.1 3.1 0 0 1-.42-1.24 2.89 2.89 0 0 1 0-.72c0-.07 0-.2.07-.38.32-1.49 3.35-14.76 13.73-36.42 21.23-44.29 67.31-112.64 166.33-186.74a3 3 0 0 1 3.81.17c11.11 10 22.07 20.7 32.56 31.84l.36.4c9.61 10.2 16.59 18.41 20.09 22.64l85.57-123.44a104 104 0 0 0 18.25-63.81 152.61 152.61 0 0 1 .53-25.3s0-.08 0-.12c3.06-18.41 5.6-24.48 10.43-24.95s8.65 5.06 14.74 21.17v.12c3.16 9.57 8.86 16.11 16.5 18.91a25.44 25.44 0 0 0 21.22-1.85c5.43-3.68 9.25-10.84 9.52-17.83.19-5.11-1.37-12.61-9.88-19.33-8.42-6.08-24.27-5-37-4.18l-2.6.17h-.23c-7.92-.11-12.29-2.31-13-6.56-1.23-7.56 12.32-16.75 22.17-20.21 21-7.4 54.21-7.94 77.81 2.3-10.73-15.38-30.12-39.16-36.91-47.4-1.92-2.43-18.28-23.57-13.62-31.86.76-1.36 2.73-3.54 7.34-3 25.55 3.13 68.54 42.06 84.49 65 .86-6.87 2-16.85 3.16-27.2 2.29-20.22 4.65-41.13 5.94-47.09 1.62-7.54 4.93-16.85 11.48-18.4 2.5-.59 6.37-.2 10.59 5 10.83 13.43 11 60.48 10.22 85 7.32-15.55 18.68-39.37 21.72-43.88 3.75-5.56 8.65-8.29 12.8-7.12 4.94 1.4 7.67 7.55 8.12 18.28 1 24.33-34.07 145-76.63 263.58-24.23 67.48-49.08 129.47-71.88 179.26-27.21 59.41-51.29 101.33-71.58 124.61-40.07 46-78.82 70.82-118.47 76a123.39 123.39 0 0 1-15.9 1.14zM960.45 873.55c5.65 9.21 47 73.59 127.9 123.27 38.34 23.55 71.06 32.57 103 28.38 38.14-5 75.66-29.21 114.73-74 36.65-42 88.53-152.09 142.34-301.95 41.61-115.92 77.26-238 76.28-261.29-.4-9.35-2.55-12.42-3.76-12.76s-3.91 1.3-6.19 4.69c-3.51 5.21-21.13 42.68-27.63 56.67a3 3 0 0 1-5.71-1.45c1.39-22.12 2.62-82.5-8.25-96-1-1.27-3-3.35-4.54-3-2.11.5-5.09 5-7 13.82-1.22 5.68-3.67 27.37-5.84 46.51-1.92 17-3.58 31.68-4.41 35.84a3 3 0 0 1-5.64.71c-9.22-19.1-57.88-65.81-84.29-69a3.67 3.67 0 0 0-1.41 0c-1.12 2.44 4.63 14.37 13.09 25.09 11 13.3 37.21 45.68 43.63 58a3 3 0 0 1-4.36 3.86c-21.64-14.89-59.86-15.39-82.85-7.3-10.39 3.65-18.6 11.35-18.23 13.59 0 .22 1.48 1.43 7 1.52l2.46-.16c13.73-.91 30.81-2 41 5.34l.1.07c10.53 8.3 12.45 17.8 12.2 24.32-.33 9-5.13 17.85-12.22 22.61l-.1.07c-7.49 4.6-17.88 5.54-26.47 2.4-6.56-2.4-15.37-8.27-20.12-22.6-4.91-13-7.53-16.23-8.5-17.05-1 1.21-2.75 5.49-5.11 19.7a148.82 148.82 0 0 0-.47 24.21 110.12 110.12 0 0 1-19.32 67.51l-87.84 126.72a3 3 0 0 1-4.82.14c-.09-.1-8.38-10.59-22.36-25.44l-.25-.27c-9.85-10.46-20.06-20.5-30.42-29.9-96.7 72.81-141.75 139.67-162.55 183.06-8.91 18.52-12.21 30.52-13.07 34.07z" fill="#232323"/><path d="M1131.56 825.8a2.82 2.82 0 0 1-.8-.12 3 3 0 0 1-2.09-3.69c13.6-48.79 64.19-120.63 76-135.79a3 3 0 1 1 4.73 3.68c-11.65 15-61.61 85.86-74.94 133.72a3 3 0 0 1-2.9 2.2zm290.24-357.66a3 3 0 0 1-2.93-2.38c-2.89-13.57-10.25-22.22-13.78-26.38l-.44-.52a3 3 0 0 1 4.58-3.88l.43.51c3.86 4.54 11.87 14 15.08 29a3 3 0 0 1-2.31 3.56 2.7 2.7 0 0 1-.63.09zm18.39-.32a3.1 3.1 0 0 1-1-.18 3 3 0 0 1-1.78-3.85c3.66-10 8-27.89 9.53-45.36a3 3 0 0 1 6 .52c-1.55 18-6.08 36.54-9.88 46.9a3 3 0 0 1-2.87 1.97zm26.81 14.27a2.91 2.91 0 0 1-.77-.1 3 3 0 0 1-2.14-3.66c5.09-19.4 25.35-61.24 26.2-63a3 3 0 0 1 5.4 2.62c-.21.43-20.85 43.08-25.79 61.91a3 3 0 0 1-2.9 2.23zm-52.61 113.83a3 3 0 0 1-2.92-2.32c-.12-.52-.27-1.11-.43-1.78-2.77-11.25-11.2-45.46 11.08-94.32a3 3 0 0 1 5.46 2.49c-21.42 47-13.64 78.51-10.72 90.39.17.7.33 1.32.45 1.86a3 3 0 0 1-2.24 3.6 3.23 3.23 0 0 1-.68.08zM843.27 136.47l-.23.08-.22.08-.14.06c-7.75 2.89-17.45 8.78-28.12 16.44-15.12 10.84-32.16 25.23-48.25 39.67-4.28 3.85-8.49 7.7-12.58 11.48-5.54 5.14-10.86 10.16-15.82 14.9-14.62 14-26.1 25.57-31 30.55-1.67 1.69-2.57 2.62-2.57 2.62s-49-57.22-74-66.92c.44-2.11.76-4.27 1-6.43v-.11c2.8-27.36-10.14-57.93-18-73.08-23.11-44.5 35.07-104 87.27-68.64 7.22-40.56 74.11-54.67 96.79-7.67.8 1.66 1.55 3.39 2.23 5.21.05.11.09.23.14.34a55.11 55.11 0 0 1 49.3-3.17c36.28 14.97 45.11 85.75-5.8 104.59z" fill="#232323"/><path d="M859.41 338.51c-39.44 22.27-91 11.18-93.56 10.62h-.1v.15a1.56 1.56 0 0 1 0 .2c-.1 1.78-.51 10.33-.06 24.2.15 4.94.4 10.57.84 16.8.74 10.9 2 23.69 4 38-.31.43-.68.89-1.1 1.37a45 45 0 0 1-8 6.72c-14.95 10.33-45.32 23.07-85.13 21.49-44.34-1.78-79.86-23.71-96-41.31l-.4-.44c8.9-21.67 22.43-53.65 40.09-92.09 4.87-10.59 10-21.68 15.54-33.18.48-1 1-2 1.47-3.08.61-1.26 1.21-2.53 1.84-3.81.15-.33.32-.68.49-1s.27-.55.4-.83c-28.54-3.79-72.89-33.55-66-72.28 2-11.23 9-21.42 18.49-27.88 1-.66 2-1.3 3-1.87s2.12-1.14 3.21-1.64l1-.44a37.87 37.87 0 0 1 13.06-3.09c1-.06 1.91-.06 2.88 0l1.07.05c.7 0 1.4.1 2.1.19a35.27 35.27 0 0 1 5.39 1.09 63.94 63.94 0 0 1 7.32 2.53c17.07 7 25.53 19.36 41.36 36.53 5.57 6 9.81 8.9 13.4 9.28h1.27c.2 0 .39-.05.6-.07a6.42 6.42 0 0 0 1.28-.3 6.32 6.32 0 0 0 .65-.27 5.83 5.83 0 0 0 1-.55 3.47 3.47 0 0 0 .57-.37c4.51-3.2 8.4-11.09 13.75-21.76a154.62 154.62 0 0 1 18.5-28c.45-.54.89-1.08 1.35-1.61.77-.91 1.55-1.81 2.32-2.69s1.62-1.83 2.45-2.7c.45-.49.88-1 1.34-1.42.72-.78 1.45-1.53 2.19-2.26.38-.4.76-.78 1.15-1.16 2.26-2.25 4.46-4.27 6.53-6q1.73-1.47 3.6-2.81a65 65 0 0 1 8.16-5 88 88 0 0 1 13.96-5.82 133.77 133.77 0 0 1 21.64-4.83c3.4-.48 6.83-.87 10.27-1.14a232.31 232.31 0 0 1 29.37-.45c4.23.2 8.3.49 12.17.84l2.63.25.5.05q0 12.3.63 24.58 1.11 22.59 4.12 45c2.11 16.42 7.54 29.16 13.45 40.82.76 1.51 1.52 3 2.31 4.49l2 3.75c.65 1.25 1.31 2.49 2 3.73s1.35 2.58 2 3.88c.43.87.88 1.73 1.31 2.6l.64 1.3c.42.86.84 1.73 1.25 2.61.8 1.74 1.6 3.51 2.33 5.3.37.89.74 1.79 1.07 2.69s.69 1.82 1 2.74.64 1.84.93 2.79a76.72 76.72 0 0 1 3.23 16.54c1.26 14.76-6.53 30.17-22.12 38.97z" fill="#fff"/><g fill="#232323"><path d="M682.87 461.16q-3.32 0-6.7-.14c-42.54-1.7-79.92-22.46-98.1-42.27l-.4-.44a3 3 0 0 1-.56-3.16c12.41-30.24 25.91-61.26 40.13-92.21 5.36-11.66 10.45-22.52 15.57-33.22.33-.71.68-1.44 1-2.18l1.22-2.52c.07-.16.14-.32.22-.47-17.51-3.6-40.56-16-54.06-34.46-9.3-12.73-12.9-26.78-10.42-40.64a46.48 46.48 0 0 1 19.75-29.82c1.2-.81 2.26-1.46 3.26-2a38.09 38.09 0 0 1 3.44-1.75c.33-.16.7-.31 1.06-.47a40.56 40.56 0 0 1 14.09-3.33 29.61 29.61 0 0 1 3.15 0c.38 0 .76 0 1.16.05.73 0 1.44.1 2.14.19h.16a38.1 38.1 0 0 1 5.83 1.17 65.55 65.55 0 0 1 7.67 2.66c14.48 5.94 23.17 15.73 34.18 28.11 2.59 2.92 5.26 5.93 8.22 9.14 4.83 5.24 8.71 8 11.51 8.33a4.33 4.33 0 0 0 .72 0l.48-.06a3.3 3.3 0 0 0 .68-.16l.29-.12h.11a3.36 3.36 0 0 0 .56-.31 2.59 2.59 0 0 1 .33-.19l.16-.13c3.81-2.7 7.65-10.36 12.5-20l.31-.61a157.51 157.51 0 0 1 18.87-28.57c.46-.56.92-1.12 1.39-1.67.76-.9 1.55-1.82 2.34-2.71s1.67-1.88 2.52-2.79c.46-.49.9-1 1.37-1.45.69-.75 1.45-1.52 2.21-2.28.38-.39.79-.8 1.19-1.19 2.26-2.24 4.51-4.32 6.68-6.15 1.21-1 2.49-2 3.81-3a67.92 67.92 0 0 1 8.5-5.23 90.81 90.81 0 0 1 14.22-5.88l.13-.05a137.31 137.31 0 0 1 22.12-4.94c3.51-.5 7-.89 10.46-1.17a236 236 0 0 1 29.7-.45h.08c4.06.2 8.2.49 12.29.85l2.56.25h.5a3 3 0 0 1 2.79 3c0 8 .23 16.25.63 24.44v.06c.73 14.89 2.1 29.93 4.09 44.71 2.11 16.37 7.57 28.83 13.15 39.86.76 1.5 1.51 3 2.29 4.45.66 1.26 1.32 2.51 2 3.74.4.77.79 1.51 1.18 2.24l4.14 8 .62 1.25c.46 1 .89 1.84 1.31 2.73 1 2.17 1.74 3.84 2.39 5.43.38.9.75 1.84 1.1 2.78s.71 1.87 1 2.83.68 2 1 2.88a79.22 79.22 0 0 1 3.35 17.17c1.4 16.75-7.66 32.78-23.65 41.84C825.7 361 781.2 355 768.59 352.73c-.13 4-.24 11.08.07 20.83.19 5.75.46 11.2.84 16.68.84 12.3 2.18 25 4 37.79a3 3 0 0 1-.54 2.18c-.39.54-.82 1.07-1.27 1.59a48.31 48.31 0 0 1-8.54 7.21c-15.9 10.99-44.92 22.15-80.28 22.15zm-99.48-45.51c17.65 18.6 52.89 37.77 93 39.38 36.92 1.48 67.24-9.86 83.31-21a41 41 0 0 0 7.44-6.24c.07-.07.13-.15.19-.22-1.72-12.49-3-24.92-3.84-37-.38-5.55-.66-11.08-.84-16.9-.44-13.57-.07-22.15.06-24.46a.49.49 0 0 1 0-.12v-.12a2.74 2.74 0 0 1 1.11-2.43 2.94 2.94 0 0 1 2.7-.41c3.14.69 53.22 11.23 91.39-10.31 13.92-7.89 21.82-21.73 20.62-36.13a72.7 72.7 0 0 0-3.11-15.9c-.25-.83-.53-1.67-.89-2.67s-.63-1.81-1-2.67-.68-1.76-1-2.61c-.62-1.53-1.32-3.13-2.28-5.2-.4-.86-.82-1.71-1.23-2.56-.23-.46-.45-.89-.65-1.33l-4.04-7.75c-.39-.75-.79-1.5-1.18-2.26-.65-1.21-1.31-2.47-2-3.74-.79-1.48-1.56-3-2.33-4.53-5.83-11.51-11.53-24.54-13.75-41.79-2-14.94-3.4-30.17-4.13-45.25v-.06c-.36-7.33-.57-14.7-.63-21.94h-.44c-4-.36-8-.64-12-.83h-.07a226.72 226.72 0 0 0-29 .44c-3.31.26-6.71.64-10.09 1.12a131 131 0 0 0-21 4.68l-.13.05a84.2 84.2 0 0 0-13.38 5.52 61 61 0 0 0-7.78 4.79q-1.8 1.28-3.42 2.66c-2.06 1.74-4.2 3.71-6.36 5.86-.4.38-.76.74-1.12 1.11-.74.74-1.44 1.46-2.14 2.21l-1.31 1.39c-.85.91-1.64 1.79-2.43 2.69s-1.52 1.74-2.28 2.64c-.46.53-.89 1.06-1.32 1.58a151.6 151.6 0 0 0-18.14 27.46l-.3.6c-5.41 10.8-9.33 18.62-14.33 22.21a7.66 7.66 0 0 1-.84.56 10.17 10.17 0 0 1-1.31.7h-.1a9.29 9.29 0 0 1-.87.35 9.42 9.42 0 0 1-1.86.42h-.12c-.21 0-.42.05-.64.06a10 10 0 0 1-1.73 0c-4.5-.46-9.22-3.62-15.32-10.23-3-3.25-5.69-6.29-8.3-9.22-10.9-12.27-18.77-21.14-32-26.56a61.61 61.61 0 0 0-7-2.43 32.93 32.93 0 0 0-4.78-1h-.22c-.58-.08-1.18-.14-1.84-.17-.37 0-.69 0-1-.05h-2.6a34.89 34.89 0 0 0-12.06 2.85l-.93.41a33.1 33.1 0 0 0-3 1.52c-.89.5-1.82 1.07-2.86 1.76-9 6.14-15.41 15.83-17.2 25.92-2.22 12.38.93 24.5 9.35 36 13.58 18.58 37.46 30.54 54 32.74a3 3 0 0 1 2.31 4.27l-.39.83c-.17.34-.33.68-.48 1-.38.78-.73 1.5-1.07 2.22l-1.22 2.52c-.34.73-.69 1.44-1 2.16-5.07 10.76-10.19 21.58-15.5 33.21-13.9 30.26-27.12 60.6-39.3 90.2z"/><path d="M736.94 176.91c-.07-15 10.72-28.93 24.69-33.69 9.32-4.33 39 6.32 27 14.16-6.77 5-14.48 7.44-21.31 11.9-7.19 3-26.72 23.37-30.33 7.63zM748.9 197c6.67-1.44 22.77-4.47 37.69-12a4.32 4.32 0 0 1 5.71 1.85v.07c2.68 5.43 5.57 14.92-5.3 18.77-13.27 4.75-34.73.55-39.4-5.22a2.12 2.12 0 0 1 .41-3 2.26 2.26 0 0 1 .89-.41zm91.26-13.42c-6.81.9-11.76.35-24.14-1.1a4.22 4.22 0 0 0-4.75 3.65c-.75 6 2.2 12.1 11.83 13.13 10.8 1.17 17.47-6.81 19.39-12.79a2.2 2.2 0 0 0-1.37-2.75 2.29 2.29 0 0 0-1-.14zm3.84-22.32h-.06c-8.74-2.89-16.37-4.36-25.46-6.33a7.62 7.62 0 0 1-3.89-1.78c-6.89-7.71 5.42-15.74 12.34-17.34a29.68 29.68 0 0 1 16.39.68c-.15.06-.3.1-.45.17h.5q-.02 12.34.63 24.6zm-76.82 226.25a1.92 1.92 0 0 1-.38-.07c-1-.18-2-.42-3.13-.72-.71-.17-1.45-.37-2.2-.6-55.7-16.51-54.39-64.5-47.38-68.7 17.95 18.29 52.4 28.75 52.4 28.75h-.1v.14c0 1.28-.28 10.93-.07 24.41.17 4.94.42 10.57.86 16.79zM655.22 286.27a112 112 0 0 1-16.09-1 3 3 0 1 1 .86-5.94 120.25 120.25 0 0 0 21.88.85 3 3 0 1 1 .22 6c-2.41.05-4.69.09-6.87.09zM827.76 263a17.53 17.53 0 0 1-5.71 4.61 23.67 23.67 0 0 1-6.85 2.26 24.51 24.51 0 0 1-20.57-5.3 23.85 23.85 0 0 1-4.83-5.57 20.58 20.58 0 0 1-3.26-13.91 2.31 2.31 0 0 1 4.58.05v.09a20.27 20.27 0 0 0 4.13 10 21.53 21.53 0 0 0 8.43 6.49 23.29 23.29 0 0 0 10.64 1.55 19.61 19.61 0 0 0 10.15-3.53l.08-.06a2.31 2.31 0 0 1 3.2 3.27z"/><path d="M819.45 232.06a3 3 0 0 1-1.57-5.55c5.12-3.14 7.89-5.81 8.23-7.95.37-2.38-2.13-5.52-6-10-11.32-13.28-8.27-22.17-7.89-23.14a3 3 0 0 1 5.6 2.15c-.08.25-2 6.74 6.86 17.1 4.39 5.14 8.18 9.58 7.34 14.87-.65 4.11-4 7.85-11 12.12a3 3 0 0 1-1.57.4zM652.7 246.9a3 3 0 0 1-2.87-2.15c-11.23-37.68-42.34-36.14-43.67-36.06a3 3 0 0 1-.4-6c.37 0 37.19-2.06 49.82 40.34a3 3 0 0 1-2 3.73 2.9 2.9 0 0 1-.88.14z"/></g><path d="M780.26 64.16h-.19a3 3 0 0 1-2.81-3.16A43.6 43.6 0 0 1 800 27.41a3 3 0 1 1 2.89 5.25 37.55 37.55 0 0 0-19.64 28.69 3 3 0 0 1-2.99 2.81z" fill="#fff"/><path d="M1208 681.06c-68.08-30.94-220 130.15-252.3 201.67-1.37 32.31 0 145.66 0 145.66l-640.85.47c15.88-42.6 54.4-123.33 76.15-162.86C319.85 826.58 66.72 673.35 5.34 717.69 41.61 662.77 318.51 361.15 481 377.17a162.53 162.53 0 0 1 100.87 35.41c37.31 45.58 153.75 53.81 188.7 11.13C982 283.55 1165.48 605.51 1208 681.06z" fill="#00676c"/><path d="M688.22 461.31c4.29 9.39 8.47 21.2 12.84 33.55 12.38 35 26.3 74.3 49.33 74.29a21.63 21.63 0 0 0 5.14-.63c7.83-1.9 14.36-7.18 19.42-15.71 10.19-17.18 12.31-43.7 12.29-62.92 0-23.33-3.31-49.5-8.81-70a3.16 3.16 0 0 0-.49-1c-1.74 1-3.45 2.09-5.15 3.18 10.83 40.89 12.77 101.1-3 127.69-4.2 7.08-9.48 11.44-15.67 12.94a15 15 0 0 1-3.59.44c-18.94 0-32.11-37.21-43.81-70.27-5.33-15.06-10.37-30.86-15.79-41.25-.76 0-5.4 0-6.92-.05-2.36 10.6-20.65 90.43-50.57 108.43-5.89 3.55-11.68 4.43-17.71 2.68-12.29-3.55-25.73-20.88-34.22-44.14-10.22-28-12.69-61.27-7-93.66a61.26 61.26 0 0 1 4.5-14.69 49.16 49.16 0 0 0-5-3.55 68.74 68.74 0 0 0-5.4 17.19c-5.91 33.42-3.34 67.78 7.24 96.77 9.26 25.38 23.9 43.72 38.19 47.85a27.17 27.17 0 0 0 7.57 1.09 28.66 28.66 0 0 0 14.9-4.4c14.48-8.73 27.91-30.31 39.92-64.17 5.65-15.82 9.63-30.8 11.79-39.66z" fill="#fff"/><circle cx="675.6" cy="559.23" fill="#fff" r="5.68"/><circle cx="673.99" cy="631.34" fill="#fff" r="5.68"/><path d="M652.31 684h.1a63.54 63.54 0 0 0 19.29-4.22c13.49-5.29 22.29-14.65 25.46-27.07 9.23-36.13-5.49-186.67-6.94-201.07h-6c.76 7.52 16.22 164.18 7.17 199.62-6.5 25.43-38.8 26.77-39.12 26.78a3 3 0 0 0 .08 6zM325.76 834.26a3.23 3.23 0 0 1-1-.19 3 3 0 0 1-1.77-3.86c40.26-108.83 124.58-226.15 125.43-227.32a3 3 0 0 1 4.86 3.52c-.84 1.16-84.69 117.83-124.66 225.89a3 3 0 0 1-2.86 1.96zm634.54 39.13-44.81-69.69a3 3 0 1 0-5 3.25l46.7 72.63c.93-2 1.98-4.07 3.11-6.19z" fill="#fff"/><path d="M86.79 711C65.2 756.78 23 875.39 58 958.31c27.26 64.55 131.85 136.39 261.11 78.9 132.78-59.06 238.34-241.1 336.68-295.89C702 715.58 744.85 724.45 791.57 723s36.14-18.48-20.43-32c2.61.21 124 9.94 73.18-21.18 0 0 56.21-3.69-13.06-33.47-15.6-6.71-41.37-13.07-56.56-16.94 17.19-.29 101-13.29 34.35-32.46-1.31-.37-31.29-5.15-43-6.09C573 565.35 369.6 681.14 249.94 779.23" fill="#fff"/><path d="M225.26 1061.27a199.43 199.43 0 0 1-73.45-13.9c-44-17.4-81-51.08-96.59-87.9-15.48-36.65-17.83-83.53-7-139.32A496.47 496.47 0 0 1 84.07 709.7a3 3 0 1 1 5.43 2.56 490.3 490.3 0 0 0-35.4 109c-10.59 54.64-8.36 100.34 6.65 135.88s50.68 67.86 93.25 84.65a193.29 193.29 0 0 0 71.24 13.47c27.06 0 58.24-5.5 92.62-20.79 73.94-32.88 138.21-102.93 200.36-170.66C565.8 812 610.73 763 654.31 738.7c36.25-20.19 69.88-19.52 105.47-18.8 10.32.2 21 .42 31.7.08 21.2-.67 26.35-4.5 26.48-5.8.19-1.84-7.33-10.67-47.52-20.25a3 3 0 0 1 .94-5.91c2.16.17 21.63 1.7 41.57 1.58 37.55-.2 40.53-6.05 40.75-6.72.38-1.17-1.49-4.71-11-10.49a3 3 0 0 1 1.37-5.56c8.43-.56 18.18-3.28 18.7-6.3.19-1.14-.46-7.54-32.74-21.42-14.41-6.19-37.71-12.11-53.13-16l-3-.76a3 3 0 0 1 .69-5.91c5.43-.09 19.76-1.67 33.28-4.77 18-4.13 23.25-8.37 23.49-10.22 0-.19.36-4.81-23.2-11.58-1.89-.45-31.05-5.08-42.38-6-86.92-7-182.52 12-284.15 56.34-79.14 34.56-160.77 84.79-229.79 141.34a3 3 0 0 1-3.8-4.64C317.47 720 399.59 669.49 479.29 634.7c102.54-44.77 199.11-63.89 287-56.82 11.72.94 41.89 5.73 43.55 6.2 19.92 5.72 28.4 11.32 27.5 18.14-1.34 10.3-27.34 15.92-45.61 18.48 13.82 3.63 29.68 8.16 40.72 12.9 26.46 11.38 37.65 20 36.28 27.95-1.05 6.09-9.47 8.93-16.23 10.24 4.72 3.72 8.45 8.22 6.91 13-1.61 5-8.35 10.66-46.43 10.86-5.37 0-10.69-.05-15.66-.2 14.58 5.11 27.38 11.79 26.61 19.39-.7 6.87-11.25 10.52-32.26 11.19-10.87.34-21.62.12-32-.09-34.76-.69-67.59-1.35-102.43 18.06-42.73 23.8-87.35 72.43-134.58 123.91-59.65 65-127.26 138.7-202.34 172.09-35.25 15.63-67.26 21.27-95.06 21.27z" fill="#232323"/><path d="M190.17 831.76a3 3 0 0 1-1.91-5.32l66-54.2a3 3 0 0 1 3.81 4.64l-66 54.19a3 3 0 0 1-1.9.69zM781.2 623.19a4 4 0 0 1-.49 0c-22.37-3.73-62.61-5-63-5a3 3 0 0 1 .09-6h.1c1.66 0 41 1.31 63.81 5.11a3 3 0 0 1-.49 6zm65.31 50.66a3 3 0 0 1-1.26-.28c-.13-.06-12.65-5.83-34.69-11.05a339.39 339.39 0 0 0-94-8.12 3 3 0 0 1-.29-6c79.87-3.93 129.48 18.77 131.56 19.73a3 3 0 0 1-1.28 5.72zm-62.77 22.9a3.15 3.15 0 0 1-.8-.11c-.39-.11-39.56-10.79-66.23-10.42a3 3 0 0 1-3-3 3 3 0 0 1 3-3c27.54-.41 66.27 10.18 67.9 10.63a3 3 0 0 1-.79 5.9z" fill="#232323"/><path d="m84.41 691.48 179.3 71.82-22.35 19S120 723.92 66.28 713.06z" fill="#00676c"/></svg></g><g transform="translate(1240.8 1442.3999999999999) rotate(0.0 383.4 344.4) scale(1.7454247473367932 1.7469818403165263)"><svg width="439.32" height="394.28" viewBox="0 0 439.32 394.28"><path d="M250.5 394.28H12a12 12 0 0 1-11-16.84L163 7.2A12 12 0 0 1 174.26 0l236 4.65A12 12 0 0 1 421 21.47l-159.48 365.6a12 12 0 0 1-11.02 7.21z" fill="#232323"/><path d="M267.79 394.28H29.33a12 12 0 0 1-11-16.84L180.3 7.2A12 12 0 0 1 191.55 0l236 4.65a12 12 0 0 1 10.75 16.82l-159.49 365.6a12 12 0 0 1-11.02 7.21z" fill="#d9c6f4"/><path d="M369.66 114.84h-57.5c-4.77 0-7-2-8.07-3.68s-1.87-4.66.28-9.09l22.56-53a15.82 15.82 0 0 1 15-9.69l57.5 1.22a6.82 6.82 0 0 1 6.05 9.64l-26.72 58.63a9.93 9.93 0 0 1-9.1 5.97zm-28.07-69.43a9.89 9.89 0 0 0-9.14 6.05l-22.59 53a1 1 0 0 0-.07.15c-.87 1.78-.87 2.92-.6 3.35s1.17.85 3 .85h57.5a3.94 3.94 0 0 0 3.62-2.37L400 47.8a.82.82 0 0 0-.73-1.16l-57.47-1.22z" fill="#fff"/></svg></g><g transform="translate(1897.1999999999998 564.0) rotate(0.0 488.4000000000001 382.79999999999995) scale(1.7411764705882355 1.7400790945042954)"><svg width="561" height="439.98" viewBox="0 0 561 439.98"><path d="M533 327.73H66.31a25 25 0 0 0-23 15.15L3 437V28A25 25 0 0 1 28 3h505a25 25 0 0 1 25 25v274.73a25 25 0 0 1-25 25z" fill="#fff"/><path d="M3 440a3.05 3.05 0 0 1-.6-.06A3 3 0 0 1 0 437V28A28 28 0 0 1 28 0h505a28 28 0 0 1 28 28v274.73a28 28 0 0 1-28 28H66.31a22 22 0 0 0-20.23 13.33L5.76 438.17A3 3 0 0 1 3 440zM28 6A22 22 0 0 0 6 28v394.37l34.57-80.67a28 28 0 0 1 25.74-17H533a22 22 0 0 0 22-22V28a22 22 0 0 0-22-22z" fill="#232323"/><path d="M156.29 104.93a57.5 57.5 0 1 1-57.55-57.45 57.34 57.34 0 0 1 57.55 57.45z" fill="#00676c"/><path d="M124 128a2.39 2.39 0 0 1-.5 2.4 20.46 20.46 0 0 1-2.7 2.31 35 35 0 0 1-43 0c-1-.8-1.9-1.61-2.8-2.41a2.44 2.44 0 0 1-.6-2.3 36.37 36.37 0 0 1 7.1-11.71 1.08 1.08 0 0 1 1.41-.1 28.54 28.54 0 0 0 16 4.91 28.12 28.12 0 0 0 16.41-5.21 1 1 0 0 1 1.4.2A40 40 0 0 1 124 128zm-5.94-37.58a19.17 19.17 0 1 1-17.12-17.12 19.18 19.18 0 0 1 17.12 17.12z" fill="#fff"/><path d="M503.5 211.42H41.29a3 3 0 1 1 0-6H503.5a3 3 0 0 1 0 6zm-50.72 37.41H41.29a3 3 0 1 1 0-6h411.49a3 3 0 0 1 0 6zm-205.87 37.42H41.29a3 3 0 0 1 0-6h205.62a3 3 0 0 1 0 6z" fill="#232323"/><g fill="#d9c6f4"><path d="m214.63 82 6.13 12.42a2.17 2.17 0 0 0 1.63 1.18l13.7 2a2.16 2.16 0 0 1 1.2 3.69l-9.91 9.71a2.18 2.18 0 0 0-.63 1.92l2.34 13.65a2.15 2.15 0 0 1-1.76 2.49 2.1 2.1 0 0 1-1.37-.22l-12.26-6.44a2.16 2.16 0 0 0-2 0l-12.26 6.44a2.16 2.16 0 0 1-2.92-.9 2.2 2.2 0 0 1-.21-1.38l2.34-13.64A2.17 2.17 0 0 0 198 111l-9.92-9.66a2.16 2.16 0 0 1 1.2-3.69l13.7-2a2.15 2.15 0 0 0 1.63-1.18L210.75 82a2.18 2.18 0 0 1 2.9-1 2.14 2.14 0 0 1 .98 1zm70.45 0 6.12 12.42a2.17 2.17 0 0 0 1.63 1.18l13.7 2a2.16 2.16 0 0 1 1.2 3.69l-9.91 9.71a2.15 2.15 0 0 0-.62 1.92l2.34 13.65a2.16 2.16 0 0 1-1.77 2.49 2.1 2.1 0 0 1-1.37-.22l-12.26-6.44a2.16 2.16 0 0 0-2 0l-12.26 6.44a2.16 2.16 0 0 1-3.13-2.28l2.34-13.64a2.17 2.17 0 0 0-.62-1.92l-9.92-9.66a2.16 2.16 0 0 1 1.2-3.69l13.7-2a2.13 2.13 0 0 0 1.63-1.18L281.2 82a2.16 2.16 0 0 1 2.89-1 2.21 2.21 0 0 1 .99 1zm70.44 0 6.13 12.42a2.13 2.13 0 0 0 1.62 1.18l13.71 2a2.15 2.15 0 0 1 1.82 2.45 2.12 2.12 0 0 1-.63 1.24l-9.91 9.71a2.18 2.18 0 0 0-.62 1.92l2.36 13.61a2.16 2.16 0 0 1-1.77 2.49 2.1 2.1 0 0 1-1.37-.22l-12.26-6.44a2.16 2.16 0 0 0-2 0l-12.25 6.44a2.16 2.16 0 0 1-2.92-.9 2.21 2.21 0 0 1-.22-1.38l2.34-13.64a2.17 2.17 0 0 0-.62-1.92L329 101.3a2.16 2.16 0 0 1 1.2-3.69l13.7-2a2.13 2.13 0 0 0 1.63-1.18L351.64 82a2.16 2.16 0 0 1 3.88 0zM426 82l6.13 12.42a2.13 2.13 0 0 0 1.62 1.18l13.71 2a2.16 2.16 0 0 1 1.2 3.69L438.7 111a2.18 2.18 0 0 0-.62 1.92l2.34 13.65a2.16 2.16 0 0 1-1.77 2.49 2.11 2.11 0 0 1-1.37-.22L425 122.36a2.18 2.18 0 0 0-2 0l-12.25 6.44a2.16 2.16 0 0 1-2.92-.9 2.21 2.21 0 0 1-.22-1.38l2.39-13.64a2.17 2.17 0 0 0-.62-1.92l-9.91-9.66a2.16 2.16 0 0 1-.05-3.06 2.21 2.21 0 0 1 1.24-.63l13.71-2a2.13 2.13 0 0 0 1.63-1.17L422.08 82a2.16 2.16 0 0 1 3.92 0zm70.4 0 6.13 12.42a2.13 2.13 0 0 0 1.63 1.18l13.7 2a2.16 2.16 0 0 1 1.2 3.69l-9.92 9.71a2.18 2.18 0 0 0-.62 1.92l2.34 13.65a2.16 2.16 0 0 1-1.76 2.43 2.1 2.1 0 0 1-1.37-.22l-12.26-6.44a2.16 2.16 0 0 0-2 0l-12.27 6.46a2.16 2.16 0 0 1-2.92-.9 2.21 2.21 0 0 1-.22-1.38l2.34-13.64a2.17 2.17 0 0 0-.62-1.92l-9.91-9.66a2.16 2.16 0 0 1 1.19-3.69l13.71-2a2.17 2.17 0 0 0 1.63-1.18L492.52 82a2.16 2.16 0 0 1 3.88 0z"/></g></svg></g><g transform="translate(1078.8 1676.3999999999999) rotate(0.0 288.0 190.19999999999993) scale(1.749324262763082 1.741279868168085)"><svg width="329.27" height="218.46" viewBox="0 0 329.27 218.46"><path d="M51.47 215.46c22-21.1 43.56-38.8 64.74-50.6C162.42 139.11 205.28 148 252 146.52s36.13-18.48-20.44-32c2.61.21 124 9.93 73.18-21.18 0 0 56.21-3.7-13.05-33.48-15.61-6.7-41.37-13.06-56.57-16.93 17.19-.29 101-13.3 34.35-32.46-1.3-.37-31.28-5.15-43-6.09C151.74-1.6 75.41 12.08 3 36.81" style="fill:#fff"/><path d="M51.47 218.46a3 3 0 0 1-2.07-5.17c25-23.9 45.74-40.12 65.35-51 36.25-20.19 69.87-19.52 105.46-18.81 10.32.21 21 .42 31.7.09 21.2-.67 26.35-4.51 26.48-5.8.19-1.84-7.33-10.67-47.51-20.26a3 3 0 0 1 .94-5.9c.85.06 21.22 1.68 41.56 1.58 37.55-.2 40.54-6.06 40.76-6.72.38-1.18-1.5-4.71-11-10.5a3 3 0 0 1 1.37-5.55c8.43-.56 18.19-3.29 18.7-6.3.2-1.15-.46-7.54-32.74-21.42-14.4-6.19-37.69-12.1-53.1-16l-3-.77a3 3 0 0 1 .69-5.91c5.43-.09 19.76-1.67 33.29-4.77 18-4.14 23.24-8.37 23.49-10.22 0-.19.35-4.82-23.21-11.59-1.89-.44-31-5.07-42.38-6C157.6 1.88 82.81 12.73 4 39.65A3 3 0 1 1 2 34C81.65 6.78 157.26-4.17 226.75 1.42c11.74.94 41.9 5.72 43.55 6.19 19.93 5.73 28.41 11.33 27.5 18.15-1.36 10.29-27.42 15.92-45.64 18.47 13.82 3.64 29.69 8.17 40.72 12.91 26.46 11.38 37.65 20 36.29 27.94-1.05 6.1-9.48 8.94-16.24 10.24 4.72 3.72 8.45 8.23 6.91 13-2.4 7.35-16.71 10.7-46.43 10.86-5.36 0-10.68-.06-15.65-.2 14.58 5.1 27.37 11.79 26.6 19.39-.7 6.86-11.25 10.52-32.26 11.18-10.87.35-21.61.13-32-.08-34.76-.69-67.59-1.35-102.42 18-19.15 10.67-39.53 26.61-64.13 50.15a3 3 0 0 1-2.08.84Z" style="fill:#232323"/><path d="M241.64 46.73a2.83 2.83 0 0 1-.5 0c-22.37-3.72-62.61-5-63-5a3 3 0 0 1 .18-6c1.67.05 41.05 1.32 63.82 5.12a3 3 0 0 1-.49 6ZM307 97.39a3 3 0 0 1-1.27-.28c-.12-.06-12.65-5.83-34.68-11.06a339.82 339.82 0 0 0-94-8.12 3 3 0 1 1-.3-6C256.53 68 306.15 90.7 308.22 91.67a3 3 0 0 1-1.22 5.72Zm-62.83 22.9a3.21 3.21 0 0 1-.8-.11c-.39-.11-39.53-10.79-66.22-10.42a3 3 0 1 1-.09-6c27.55-.4 66.27 10.18 67.91 10.63a3 3 0 0 1-.8 5.9Z" style="fill:#232323"/></svg></g></svg>