<svg width="301" height="169" fill="none" xmlns="http://www.w3.org/2000/svg"><defs><clipPath id="b"><path transform="translate(1.71 .114)" fill="#fff" fill-opacity="0" d="M0 0h299.29v168.772H0z"/></clipPath><clipPath id="a"><path fill="#fff" fill-opacity="0" d="M0 0h301v169H0z"/></clipPath></defs><path d="M0 0h301v169H0z"/><g clip-path="url(#a)"><path d="M1.71.114H301v168.772H1.71z"/><g clip-path="url(#b)"><path d="M296.62 1.11H95.32c-8.23 0-16.25 2.68-22.83 7.64a38.096 38.096 0 00-13.66 19.86L45.1 76.23l-38.31 30.6v42.44h289.83V1.11z" fill="#FFF"/><path d="M45.1 76.23l-38.31 30.6v42.44h289.83V1.11H95.32c-8.23 0-16.25 2.68-22.83 7.64a38.096 38.096 0 00-13.66 19.86L45.1 76.23zM295.32 2.41h-200c-4.07 0-7.93.61-11.59 1.83-3.69 1.23-7.18 3.08-10.46 5.55-3.24 2.45-5.96 5.26-8.15 8.43-2.22 3.21-3.9 6.79-5.04 10.75L46.24 76.99 8.09 107.46v40.51h287.23V2.41z" fill="#232323" fill-rule="evenodd"/><path d="M6.79 113.75v15.59c-2.55-1.12-4.38-4.19-4.38-7.8 0-3.61 1.83-6.67 4.38-7.79zm289.83 0v15.59c2.55-1.12 4.38-4.19 4.38-7.8 0-3.61-1.83-6.67-4.38-7.79z" fill="#FFA757"/><path d="M80.61 144.75c0 13.33-10.78 24.13-24.08 24.13-13.29 0-24.07-10.8-24.07-24.13 0-13.33 10.78-24.13 24.07-24.13 13.3 0 24.08 10.8 24.08 24.13zm198.77 0c0 13.33-10.78 24.13-24.08 24.13-13.3 0-24.08-10.8-24.08-24.13 0-13.33 10.78-24.13 24.08-24.13 13.3 0 24.08 10.8 24.08 24.13z" fill="#232323" fill-rule="evenodd"/><ellipse cx="255.251" cy="144.47" rx="11.544" ry="11.566" fill="#D8C5F3"/><path d="M57.98 31.57L45.1 76.23h65.12V31.57H57.98z" fill="#232323"/><path d="M5.25 133.32h10.21v11.63H5.25c-.89 0-1.74-.36-2.38-.99-.63-.63-.98-1.49-.98-2.38v-4.89c0-.89.35-1.75.98-2.38.64-.63 1.49-.99 2.38-.99z" fill="#FFF"/><path d="M15.46 133.32v11.63H5.25c-.89 0-1.74-.36-2.38-.99-.63-.63-.98-1.49-.98-2.38v-4.89c0-.89.35-1.75.98-2.38.64-.63 1.49-.99 2.38-.99h10.21zm102.54 15V30.24c0-3.87-3.13-7-7-7H60.71" stroke="#232323" stroke-width="1.3"/><path d="M109.53 108.65H12.91a.21.21 0 01-.13-.05.21.21 0 01-.05-.13c0-.05.02-.1.05-.13.04-.04.08-.06.13-.06h96.62c.04 0 .09.02.13.06.03.03.05.08.05.13s-.02.09-.05.13c-.04.03-.09.05-.13.05z" fill="#FFF"/><path d="M92.35 88.35h17.1" stroke="#232323" stroke-width="1.3"/><ellipse cx="56.438" cy="144.898" rx="11.116" ry="11.137" fill="#D8C5F3"/></g><path d="M244.07 100.94l6.33 4.38-.42.43 3.16 2.89v-2.35l.74-.65-.95-.85 2.01-3.85h6.43l.53-1.93h-1.16v-.75l-4.01-3.42h2.11l.11-2.67h8.97l.42-.64h.63l2-3.1h.85l1.16-1.61.63.32-.42 1.82 1.06.96 1.58-5.24h-.53l.53-1.17h-1.58l1.9-1.61v-2.35l1.47-1.71.85.43v.96l1.16-1.39-1.48-.43 1.06-1.71-.11-3-15.72 2.04-1.48 1.49-.53 5.03-.74.64-.31 2.14-3.17 2.57.42.85-2.32 1.5-1.79-.86h1.58l1.69-1.07-.42-.21-13.93 3.64-1.9-2.14h-.85l-.42-.64-2.95-.22-3.38-3.74v-1.6l-6.33-9.74v-1.6l1.05 1.71.43.21v1.18l.42-1.18-2.22-3.52V58.27l-.74-.75v-.86l.85.64v-2.13l.42-.54-.42-2.46h1.26l.64.43-.64 1.39 1.9-3.74-.21-1.39-7.59-1.18-13.51-18.82-4.54-.54-3.59 4.81-15.3-15.82h-8.86v2.56l-31.45-6.2v-1.6l-11.61.42 14.99 22.78-.32 3.43-.53-.11 1.06 1.28-.74.22-1.37-1.29-3.06.32 2.85 2.46.21 1.07 1.9.86.31.64.85-.21.95 1.28.74-.43.84.32.74-1.07 3.27 3.85.64-.1 1.37 6.73 10.55 11.13 1.05-.11 1.38-3-2.33-3.1v-1.92l-.52 1.28-1.27-.96-.32.85-1.9-.96-3.37-8.77.21-.43-1.27-3.74-.95-.53.32 1.49-5.59-10.05-1.59-.32-.52-1.71-.74-.21-3.7-5.03h-.42l-1.05-1.07-1.69-10.59 3.59 2.14 1.05-.32.21-.43 1.48.86.21.85 2.11.65 3.48 10.05-.84 2.89 1.27.64.31-2.46 4.86 6.73h1.79l1.16.97.63 2.78 2.43 1.28 1.16 1.93 2.11.42 1.27 1.5v.64h-.53l-.42-.32-.95 1.29 2 3.1.74-.54 1.8 1.82.42-.11 3.27 3.96.63-.11 10.13 15.51.85.21.21 2.57-1.06.96 1.27 1.18-2.53 1.28 46.01 23.85 7.07-3.31.52.1.43.97.52-.32.11-.33 1.37.75.11.54z" fill="#B2B0F7"/></g></svg>