<svg width="301" height="169" fill="none" xmlns="http://www.w3.org/2000/svg"><defs><clipPath id="b"><path transform="translate(1.71 .114)" fill="#fff" fill-opacity="0" d="M0 0h299.29v168.772H0z"/></clipPath><clipPath id="c"><path transform="translate(160 15)" fill="#fff" fill-opacity="0" d="M0 0h93v93H0z"/></clipPath><clipPath id="a"><path fill="#fff" fill-opacity="0" d="M0 0h301v169H0z"/></clipPath></defs><path d="M0 0h301v169H0z"/><g clip-path="url(#a)"><path d="M1.71.114H301v168.772H1.71z"/><g clip-path="url(#b)"><path d="M296.62 1.11H95.32c-8.23 0-16.25 2.68-22.83 7.64a38.096 38.096 0 00-13.66 19.86L45.1 76.23l-38.31 30.6v42.44h289.83V1.11z" fill="#FFF"/><path d="M45.1 76.23l-38.31 30.6v42.44h289.83V1.11H95.32c-8.23 0-16.25 2.68-22.83 7.64a38.096 38.096 0 00-13.66 19.86L45.1 76.23zM295.32 2.41h-200q-6.1 0-11.59 1.83-5.54 1.85-10.46 5.55-4.86 3.67-8.15 8.43-3.33 4.82-5.04 10.75L46.24 76.99 8.09 107.46v40.51h287.23V2.41z" fill="#232323" fill-rule="evenodd"/><path d="M6.79 113.75v15.59c-2.55-1.12-4.38-4.19-4.38-7.8 0-3.61 1.83-6.67 4.38-7.79zm289.83 0v15.59c2.55-1.12 4.38-4.19 4.38-7.8 0-3.61-1.83-6.67-4.38-7.79z" fill="#FFA757"/><path d="M80.61 144.75c0 13.33-10.78 24.13-24.08 24.13-13.29 0-24.07-10.8-24.07-24.13 0-13.33 10.78-24.13 24.07-24.13 13.3 0 24.08 10.8 24.08 24.13zm198.77 0c0 13.33-10.78 24.13-24.08 24.13-13.3 0-24.08-10.8-24.08-24.13 0-13.33 10.78-24.13 24.08-24.13 13.3 0 24.08 10.8 24.08 24.13z" fill="#232323" fill-rule="evenodd"/><ellipse cx="255.251" cy="144.47" rx="11.544" ry="11.566" fill="#D8C5F3"/><path d="M57.98 31.57L45.1 76.23h65.12V31.57H57.98z" fill="#232323"/><path d="M5.25 133.32h10.21v11.63H5.25c-.89 0-1.74-.36-2.38-.99-.63-.63-.98-1.49-.98-2.38v-4.89c0-.89.35-1.75.98-2.38.64-.63 1.49-.99 2.38-.99z" fill="#FFF"/><path d="M15.46 133.32v11.63H5.25c-.89 0-1.74-.36-2.38-.99-.63-.63-.98-1.49-.98-2.38v-4.89c0-.89.35-1.75.98-2.38.64-.63 1.49-.99 2.38-.99h10.21zm102.54 15V30.24c0-3.87-3.13-7-7-7H60.71" stroke="#232323" stroke-width="1.3"/><path d="M109.53 108.65H12.91a.21.21 0 01-.13-.05.21.21 0 01-.05-.13c0-.05.02-.1.05-.13.04-.04.08-.06.13-.06h96.62c.04 0 .09.02.13.06.03.03.05.08.05.13s-.02.09-.05.13c-.04.03-.09.05-.13.05z" fill="#FFF"/><path d="M92.35 88.35h17.1" stroke="#232323" stroke-width="1.3"/><ellipse cx="56.438" cy="144.898" rx="11.116" ry="11.137" fill="#D8C5F3"/></g><path d="M160 15h93v93h-93z"/><g clip-path="url(#c)"><path d="M252.15 61.4c0 17.78-10.1 33.2-24.87 40.82-1.21.62-2.44 1.19-3.7 1.7h-.01a45.551 45.551 0 01-17.25 3.36c-9.03 0-17.46-2.62-24.56-7.14a46.176 46.176 0 01-11.74-10.73 45.73 45.73 0 01-9.52-28.01c0-12.98 5.39-24.71 14.05-33.05a45.673 45.673 0 0119.35-11.11c3.95-1.12 8.12-1.71 12.42-1.71 7.82 0 15.17 1.96 21.6 5.4h.01a46.028 46.028 0 0121.36 24.49 45.739 45.739 0 012.86 15.98z" fill="#FFF"/><path d="M206.33 107.76c-8.83 0-17.41-2.5-24.82-7.21a46.482 46.482 0 01-11.87-10.85c-6.29-8.17-9.62-17.95-9.62-28.3 0-6.41 1.28-12.62 3.82-18.45 2.44-5.64 5.94-10.66 10.38-14.94 5.49-5.3 12.25-9.18 19.55-11.23.01-.01.02-.01.03-.01 4.05-1.14 8.27-1.72 12.53-1.72 7.6 0 15.13 1.89 21.8 5.45 0 .01.01.01.02.01a46.41 46.41 0 0121.59 24.74c1.92 5.16 2.89 10.6 2.89 16.15 0 8.68-2.41 17.14-6.97 24.47a46.512 46.512 0 01-18.16 16.77c-1.22.63-2.48 1.21-3.74 1.72-.01.01-.02.01-.03.01a45.932 45.932 0 01-17.4 3.39zM194.01 17.7a45.371 45.371 0 00-19.13 10.99c-4.35 4.2-7.77 9.12-10.17 14.64a45.092 45.092 0 00-3.74 18.07c0 10.13 3.26 19.72 9.43 27.72 3.24 4.2 7.15 7.77 11.62 10.62a45.181 45.181 0 0024.31 7.06c5.9 0 11.64-1.11 17.06-3.32.01 0 .02-.01.03-.01a45.488 45.488 0 0021.43-18.1 45.304 45.304 0 006.83-23.97c0-5.44-.95-10.76-2.83-15.82a45.45 45.45 0 00-21.13-24.21c0-.01-.01-.01-.02-.01a45.382 45.382 0 00-21.37-5.35c-4.18 0-8.31.57-12.3 1.69h-.02z" fill="#232323"/><path d="M236.25 72.73c-.18 5.72-6.03 6.81-6.88 10.6-.93 4.1-3.08 6.08-5.38 7.42-2.3 1.34-3.98 3.24-1.34 6.56.84 1.06 2.95 3.08 4.63 4.91-1.21.62-2.44 1.19-3.7 1.7h-.01c-6.58-3.19-9.77-6.97-9.73-12.4.02-3.08.47-6.48-4.21-7.97-6.68-2.12-9.23-3.87-13.41-8.03-4.63-4.62-.75-6.11 1.34-8.54 1.12-1.3-.53-3.41-2.49-2.68-2.43.9-4.81-.36-7.08-2.9-3.64-4.05-4.98-1.13-9.96-1.7-4.98-.58-2.29-14.45-4.49-15.55-1.87-.94-2.6 2.18-3.74.98-1.58-1.65-.16-5.96 4.82-9.5 4.2-2.98 4.21-5.78 2.07-6.29-1.08-.26-1.75-.61-2.14-.99a45.673 45.673 0 0119.35-11.11c9.66.68 17.03 5.73 17.83 8.91.96 3.77-7.53 6.87-12.83 8.43-6.12 1.81-5.06 7.36-4.02 10.36 1.39 3.98-4.66 4.32-4.21.57.37-3.07-9.49-1.04-10.15 4.6-.42 3.66 4.13.56 4.11 3.78-.01 2.31.43 2.78 3.6 4.08 2.3.93 2.61 5.4 5.99 5.01 5.11-.6 4.07 2.73 5.45 4.17 4.6 4.77 6.13-7.16 17.62-7.07 2.92.02 5.62 2.55 12.06-.38 6.95-3.17 7.04 8.13 6.9 13.03zm13.04-27.31c-1.54-.36-3.75-1.73-5.96-6.04-4.02-7.86-4.59-6.91-11.55-5.95-6.95.96-4.15-5.56-3.19-7.86.55-1.34-.06-3.26-.66-4.64a46.028 46.028 0 0121.36 24.49zm-67.53 54.72a46.176 46.176 0 01-11.74-10.73c2.26.72 5.29 1.25 8.51.53 6.57-1.48 5.06 5.33 3.23 10.2z" fill="#00676C"/></g></g></svg>