<svg xmlns="http://www.w3.org/2000/svg" viewBox="0 0 2500 2200" width="2500" height="2200"><g transform="translate(2253.0 1537.0) rotate(0.0 81.0 86.0) scale(1.0063361908311592 1.0106529875959973)"><svg width="160.98" height="170.187" viewBox="0 0 160.98 170.187"><clipPath id="a"><path d="M76.294 66.435c-38.72-1.174-70.601 14.102-71.208 34.117l-.932 30.806c-.605 20.011 30.296 37.191 69.013 38.362 38.718 1.171 70.602-14.103 71.207-34.118l.933-30.807c.605-20.011-30.292-37.189-69.013-38.361z"/></clipPath><clipPath id="b"><path d="M76.889 35.105C38.165 34.072 6.34 49.465 5.807 69.482l-.82 30.809c-.533 20.017 30.427 37.078 69.153 38.11 38.725 1.032 70.549-14.361 71.082-34.377l.82-30.81c.53-20.017-30.431-37.08-69.153-38.109z"/></clipPath><clipPath id="c"><path d="M86.822.063C48.102-1.111 16.22 14.166 15.614 34.181l-.932 30.806c-.605 20.011 30.296 37.191 69.013 38.362 38.718 1.171 70.602-14.103 71.207-34.118l.933-30.807c.604-20.011-30.293-37.189-69.013-38.361z"/></clipPath><path d="M76.294 66.435c-38.72-1.174-70.601 14.102-71.208 34.117l-.932 30.806c-.605 20.011 30.296 37.191 69.013 38.362 38.718 1.171 70.602-14.103 71.207-34.118l.933-30.807c.605-20.011-30.292-37.189-69.013-38.361z" fill="#d9c6f4"/><g clip-path="url(#a)" fill="#232323"><path d="M26.54 132.048a79.83 79.83 0 0 1-4.81-2.53C7.382 121.316-.328 110.581.011 99.287l4.906.148c-.284 9.393 6.552 18.564 19.247 25.82 13.183 7.537 30.926 12.006 49.968 12.579s37.026-2.809 50.639-9.528c13.112-6.477 20.49-15.218 20.774-24.61l4.906.148c-.339 11.295-8.69 21.545-23.507 28.864-14.319 7.073-33.126 10.638-52.96 10.042-17.619-.541-34.237-4.309-47.445-10.699z"/><path d="m70.171 170.038.9-29.743 4.907.148-.9 29.744zm-54.87-13.888.948-31.338 4.907.148-.948 31.338zM42.6 167.607l.932-30.807 4.907.149-.932 30.807zm84.096-3.303 1.093-36.117 4.907.149-1.093 36.116zM98.9 169.312l.933-30.806 4.907.148-.933 30.806z"/></g><path d="M30.214 123.877C17.6 117.774 9.958 109.308 10.236 100.02c.535-17.658 29.496-30.628 65.931-29.524 17.049.516 33.02 4.118 44.979 10.103 12.545 6.295 19.308 14.589 19.044 23.355-.534 17.659-29.494 30.628-65.93 29.526-17.271-.523-32.68-4.103-44.046-9.602zm87.896-39.301c-11.239-5.438-26.138-8.69-42.092-9.173-32.562-.986-60.439 10.356-60.875 24.766s26.704 27.418 59.264 28.403 60.436-10.351 60.874-24.766c.202-6.648-5.753-13.509-16.336-18.818a71.765 71.765 0 0 0-.836-.411z" fill="#232323"/><path d="M76.889 35.105C38.165 34.072 6.34 49.465 5.807 69.482l-.82 30.809c-.533 20.017 30.427 37.078 69.153 38.11 38.725 1.032 70.549-14.361 71.082-34.377l.82-30.81c.53-20.017-30.431-37.08-69.153-38.109z" fill="#d9c6f4"/><g clip-path="url(#b)" fill="#232323"><path d="M27.372 100.898a79.702 79.702 0 0 1-4.82-2.513C8.176 90.236.423 79.527.724 68.233l4.907.13c-.249 9.394 6.62 18.54 19.341 25.749 13.207 7.489 30.969 11.889 50.012 12.396 19.043.506 37.015-2.944 50.599-9.715 13.088-6.525 20.435-15.291 20.685-24.685l4.907.13c-.298 11.296-8.612 21.576-23.402 28.949-14.294 7.126-33.087 10.758-52.923 10.235-17.615-.476-34.245-4.181-47.478-10.523z"/><path d="m71.142 138.726.792-29.746 4.907.13-.792 29.747zm-54.919-13.688.834-31.34 4.908.131-.835 31.34zM43.562 136.4l.82-30.812 4.907.13-.82 30.812zm84.083-3.61.96-36.12 4.907.13-.96 36.12zm-27.778 5.107.82-30.809 4.908.13-.82 30.81z"/></g><path d="M31.014 92.714C18.379 86.657 10.706 78.22 10.949 68.929c.471-17.66 29.382-30.735 65.821-29.765s64.618 15.565 64.146 33.224c-.47 17.661-29.382 30.735-65.822 29.766-17.27-.46-32.692-3.981-44.08-9.44zm87.888-39.523c-10.837-5.195-25.865-8.682-42.258-9.119-32.564-.866-60.4 10.577-60.783 24.988-.383 14.412 26.806 27.32 59.368 28.187 32.561.866 60.4-10.577 60.783-24.988.191-7.158-6.42-13.945-17.109-19.069z" fill="#232323"/><path d="M86.822.063C48.102-1.111 16.22 14.166 15.614 34.181l-.932 30.806c-.605 20.011 30.296 37.191 69.013 38.362 38.718 1.171 70.602-14.103 71.207-34.118l.933-30.807c.604-20.011-30.293-37.189-69.013-38.361z" fill="#d9c6f4"/><g fill="#232323"><g clip-path="url(#c)"><path d="M37.068 65.676a79.83 79.83 0 0 1-4.81-2.53C17.91 54.944 10.2 44.209 10.539 32.914l4.906.148c-.284 9.393 6.552 18.564 19.247 25.82 13.183 7.537 30.926 12.006 49.968 12.579s37.026-2.809 50.639-9.528c13.112-6.477 20.49-15.218 20.774-24.61l4.906.148c-.339 11.295-8.69 21.545-23.507 28.864-14.319 7.073-33.126 10.638-52.96 10.042-17.619-.541-34.237-4.309-47.445-10.699z"/><path d="m80.699 103.666.9-29.744 4.906.149-.9 29.743zm-54.87-13.888.948-31.337 4.907.148-.948 31.338zm27.299 11.458.932-30.807 4.906.148-.931 30.807zm84.096-3.304 1.093-36.116 4.906.148-1.092 36.117zm-27.798 5.008.933-30.806 4.907.149-.933 30.806z"/></g><path d="M40.742 57.505c-12.614-6.103-20.256-14.569-19.978-23.857C21.299 15.989 50.26 3.02 86.695 4.124c17.049.516 33.02 4.118 44.979 10.103 12.545 6.295 19.308 14.589 19.044 23.355-.534 17.659-29.494 30.628-65.93 29.526-17.271-.523-32.68-4.103-44.046-9.602zm87.896-39.301c-11.239-5.438-26.138-8.69-42.092-9.173-32.562-.986-60.439 10.356-60.875 24.766S52.375 61.215 84.935 62.2s60.436-10.351 60.874-24.766c.202-6.648-5.753-13.509-16.336-18.818a71.765 71.765 0 0 0-.836-.411z"/></g></svg></g><g transform="translate(1392.0 1439.0) rotate(0.0 469.5 185.5) scale(0.9999733766406645 0.9982671588939953)"><svg width="939.025" height="371.644" viewBox="0 0 939.025 371.644"><g fill="#9b3c82"><path d="m752.126 109.53.968-25.22 4.16.16-.967 25.22zm-46.442-12.157 1.02-26.571 4.162.16-1.02 26.571zm23.073 9.908 1.003-26.122 4.16.16-1.002 26.122z"/></g><path d="M515.798 125.75 6.12 294.617l.783-3.205 122.901-86.295c20.872-10.051 52.252-32.37 67.532-37.695L575.979 42.869l50.437 6.878z" fill="#232323"/><path d="m632.059 327.021 84.486-101.093c9.623-11.514 15.089-26 15.168-41.005.287-54.106-44.03-83.918-44.03-83.918l-72.188 138.139z" fill="#00676c"/><path d="M647.791 236.578 515.866 123.821 93.399 263.441l.008.025-82.611 26.016A15.422 15.422 0 0 0 .01 303.879c-.51 25.177 19.287 46.1 44.454 46.981l52.431 1.836a138.038 138.038 0 0 0 48.154-6.889l220.855-72.99c.006-.002 47.419-17.557 81.25 31.384 30.345 43.897 60.739 61.522 90.39 63.771 51.16 3.881 119.933-31.346 116.443-116.086-.24-5.829-1.763-11.519-6.197-15.31z" fill="#00676c"/><path d="m639.296 244.182-123.43-120.361 122.036-81.77s62.415 55.323 80.018 92.565c14.407 30.481-78.624 109.566-78.624 109.566z" fill="#00676c"/><path d="M10.393 336.946a3 3 0 0 1-.949-5.846l544.049-181.704a3 3 0 1 1 1.9 5.691L11.344 336.79a3.005 3.005 0 0 1-.951.155z" fill="#fff"/><path d="M604.35 359.329a3 3 0 0 1-2.146-5.096c24.138-24.698 34.576-51.937 31.025-80.96-9.605-78.512-117.849-146.224-118.941-146.899a3 3 0 0 1 3.153-5.105c.279.172 28.204 17.532 56.942 44.592 26.682 25.125 59.583 64.028 64.801 106.683 3.783 30.922-7.215 59.817-32.69 85.883a2.992 2.992 0 0 1-2.146.903z" fill="#fff"/><path d="M546.239 49.589C710.374-76.709 781.667 83.153 787.194 181.757c3.798 67.759 58.095 85.761 101.021 76.877 29.839-6.175 43.575-60.011 43.575-60.011l-72.624 83.791s24.098 38.494-2.352 62.255c-56.812 51.037-131.02 10.077-154.121-25.654-25.627-39.637-19.613-67.843-37.02-124.749-39.765-129.992-109.909-138.729-214.117-73.43L546.24 49.59z" fill="#fff"/><path d="M795.888 371.639c-4.347 0-8.748-.295-13.201-.888-37.681-5.021-69.187-29.494-82.514-50.107-16.204-25.064-19.964-45.406-24.725-71.159-2.848-15.405-6.075-32.866-12.645-54.341-18.127-59.257-42.781-93.973-75.372-106.132-33.504-12.5-77.43-1.259-134.284 34.366a3 3 0 0 1-3.397-4.939l94.671-71.237c30.654-23.586 59.83-38.503 86.72-44.342 24.349-5.286 47.057-3.221 67.494 6.139 57.738 26.443 87.932 108.002 91.552 172.59 1.488 26.549 11.312 47.528 28.408 60.67 15.306 11.766 36.543 17.127 58.364 15.044l52.563-60.645a3 3 0 0 1 5.174 2.707c-.58 2.272-14.559 55.727-45.874 62.207a104.547 104.547 0 0 1-8.873 1.443l-17.117 19.748c1.943 3.523 5.904 11.487 8.008 21.235 3.796 17.591-.361 32.426-12.022 42.902-18.16 16.314-39.707 24.738-62.93 24.739zM558.654 77.988c10.985 0 21.221 1.8 30.875 5.402 34.457 12.855 60.302 48.836 79.011 109.998 6.67 21.803 9.931 39.443 12.807 55.006 4.64 25.101 8.305 44.926 23.864 68.992 13.004 20.114 44.064 42.86 78.268 47.418 26.45 3.526 51.117-4.209 71.329-22.367 10.075-9.051 13.507-21.505 10.2-37.018-2.55-11.965-8.329-21.322-8.387-21.415a3.002 3.002 0 0 1 .277-3.554l14.542-16.777c-21.159.756-41.443-5.082-56.5-16.656-18.522-14.238-29.152-36.746-30.741-65.091-3.523-62.848-32.583-142.063-88.061-167.471-41.313-18.92-91.131-6.3-148.069 37.513l-.026.02-59.692 44.916c13.42-6.419 25.946-11.153 37.791-14.302 11.564-3.074 22.358-4.612 32.512-4.612zM924.243 211.91l-38.223 44.101a98.848 98.848 0 0 0 1.587-.315c18.424-3.813 30.548-27.927 36.636-43.786z" fill="#232323"/><path d="M861.654 338.65c10.47-14.144-2.488-56.236-2.488-56.236l72.624-83.791s4.842 4.415 4.172 23.548c-.502 14.323-5.066 24.609-5.066 24.609l-69.242 91.87s-2.214 2.99 0 0z" fill="#fff"/><path d="M860.667 342.98c-.62 0-1.246-.192-1.783-.589a2.995 2.995 0 0 1-.626-4.196l.984-1.329c7.841-10.594.533-42.261-2.944-53.569a3 3 0 0 1 .6-2.847l72.625-83.791a3 3 0 0 1 4.288-.252c.979.893 5.832 6.339 5.148 25.87-.516 14.735-5.126 25.28-5.322 25.721a3.053 3.053 0 0 1-.346.589l-69.234 91.86-.976 1.319a2.995 2.995 0 0 1-2.414 1.215zm1.844-59.846c1.81 6.207 6.991 25.574 6.168 41.21l59.595-79.071c.707-1.729 4.261-10.987 4.688-23.207.335-9.566-.762-15.132-1.78-18.163l-68.672 79.231z" fill="#232323"/></svg></g><g transform="translate(84.0 221.0) rotate(0.0 1046.0 839.5) scale(0.9988612408893301 0.9988506376224618)"><svg width="2094.385" height="1680.932" viewBox="0 0 2094.385 1680.932"><g><g><path d="M2019.129 824.516c1.04 16.485-37.112 30.692-37.112 30.692-26.931 7.885-160.237 80.708-209.812 127.41-132.034 124.381-278.914 318.332-462.676 365.967-204.964 53.131-412.501-130.821-412.501-130.821l20.363-596.193s45.417-12.414 77.257 30.603c36.867 49.851 87.17 156.371 134.089 218.14 62.624 82.43 118.864 114.624 118.933 114.644 23.325 10.114 316.267-185.518 463.705-237.133 114.844-40.244 234.554-57.04 351.689-19.727 72.615 25.113-15.886 49.339-28.064 48.964 92.068 76.622-5.967 51.334-15.87 47.454Z" style="fill:#fff"/><path d="M1232.2 1361.198c-24.053 0-48.829-2.565-74.189-7.7-42.98-8.701-87.711-24.758-132.952-47.726-76.958-39.069-129.5-85.302-130.021-85.765a3 3 0 0 1-1.008-2.348l20.363-596.193a3 3 0 0 1 2.207-2.791c.489-.134 12.143-3.244 27.92-.904 14.552 2.158 35.48 9.568 52.54 32.616 17.051 23.056 36.896 58.047 57.906 95.093 25.036 44.146 50.926 89.794 76.161 123.018 60.765 79.983 114.673 111.912 117.849 113.75 1.999.692 10.943-.223 50.766-21.172 28.593-15.042 65.533-36.208 108.306-60.717 98.984-56.717 222.173-127.304 302.336-155.367 133.165-46.664 248.827-53.125 353.59-19.754 22.128 7.652 31.991 16.037 30.222 25.659-2.763 15.023-35.819 25.429-51.97 28.34 28.217 24.202 38.893 39.785 33.547 48.831-7.421 12.559-42.436 3.724-54.014.375-3.849 16.142-34.892 28.16-38.694 29.576a3.482 3.482 0 0 1-.204.068c-26.908 7.878-160.057 80.986-208.598 126.714-29.929 28.194-60.271 59.606-92.395 92.862-107.213 110.993-228.731 236.794-371.586 273.826-24.966 6.472-51.067 9.709-78.081 9.709Zm-332.126-144.763c7.763 6.671 57.5 48.37 127.833 84.055 70.219 35.627 175.947 72.387 280.869 45.19 141.219-36.606 262.113-161.763 368.776-272.186 32.174-33.308 62.564-64.77 92.596-93.061 50.141-47.235 182.661-119.713 210.92-128.074 9.442-3.54 35.798-16.07 35.067-27.656a3 3 0 0 1 4.088-2.983c8.796 3.446 45.456 11.632 50.384 3.294 1.339-2.268 2.593-12.26-37.527-45.649a3 3 0 0 1-.886-3.369 2.976 2.976 0 0 1 2.897-1.935c8.389.27 50.833-11.363 53.203-24.251 1.094-5.951-8.214-12.655-26.212-18.879-103.408-32.938-217.824-26.494-349.716 19.723-79.643 27.881-202.566 98.315-301.336 154.911-42.824 24.538-79.808 45.729-108.496 60.821-41.788 21.983-51.637 23.241-56.058 21.323l.02-.045c-4.611-2.564-58.85-34.853-120.147-115.537-25.479-33.543-51.468-79.37-76.602-123.688-20.918-36.883-40.675-71.721-57.51-94.484-12.655-17.097-28.921-27.262-48.344-30.211-10.827-1.644-19.689-.467-23.583.26l-20.234 592.429Zm1081.943-361.228Z" style="fill:#232323"/></g><path d="M1851.674 811.813a3 3 0 0 1-1.836-5.374c25.503-19.711 60.116-31.574 102.876-35.257 37.956-3.269 71.517 1.019 84.184 3.015a3 3 0 0 1-.933 5.927c-19.735-3.109-121.276-16.223-182.458 31.063a2.988 2.988 0 0 1-1.833.626Zm-604.063 276.38a3 3 0 0 1-2.927-3.67c7.441-32.48 2.675-97.079 2.626-97.728a2.999 2.999 0 0 1 2.765-3.217 2.997 2.997 0 0 1 3.218 2.765c.203 2.686 4.884 66.152-2.76 99.52a3 3 0 0 1-2.922 2.331Z" style="fill:#232323"/><path d="M978.179 634.94a30403.32 30403.32 0 0 1-119.348 360.391c-13.758 230.78-9.493 158.516-11.246 188.188 12.669 11.995 86.899 80.381 169.426 63.325 29.49-6.098 62.87-25.433 84.259-41.673 2.241-1.705-17.799-13.644-15.332-15.664 15.626-12.814 35.793-32.47 59.825-63.518 24.739-31.982 87.99-153.982 87.99-153.982s-2.181-1.563-4.434-3.253c-55.37-41.531-71.046-88.81-142.364-227.19-15.214-29.509-36.319-69.217-80.504-94.102a162.726 162.726 0 0 0-28.272-12.52Z" style="fill:#d9c6f4"/></g><ellipse cx="846.5" cy="474.353" rx="159.675" ry="53.512" transform="translate(128.469 1127.042) rotate(-71.536)" style="fill:#232323"/><g><path d="m926.76 566.928 83.35 167.562 136.575 607.362s-532.557 223.071-678.664 254.568c51.269-197.831 58.747-672.07 301.853-993.202l156.885-36.289Z" style="fill:#d9c6f4"/><path d="M1120.312 1213.297a3 3 0 0 1-2.92-2.324l-110.204-475.806a3 3 0 0 1 5.846-1.354l110.204 475.806a3 3 0 0 1-2.926 3.678Z" style="fill:#fff"/><path d="M770.098 603.791c128.137-46.158 109.83 119.089 240.012 130.699-11.367-48.118-7.471-125.662-4.505-160.357 2.349-27.476 5.809-52.39 13.693-57.256 39.618 32.745 89.266 55.321 111.104 50.927 53.576-10.792 83.205-112.78 92.104-143.904 13.592-2.66 33.959-17.453 21.39-29.699-5.769-5.831-11.393-12.252-13.554-20.355-3.994-15.088.684-51.318 1.438-72.84 4.464-106.104-40.415-173.107-101.85-202.813-32.516-15.707-67.942-18.817-68.185-18.866-139.273-14.97-229.787 111.551-193.467 219.58l5.319 68.501c-4.064 26.512-37.674 196.34-103.499 236.384Z" style="fill:#fff"/><path d="M1010.108 737.49a3 3 0 0 1-2.917-2.311c-12.833-54.326-6.062-143.898-4.574-161.302 3.262-38.16 7.497-54.857 15.107-59.554a3 3 0 0 1 3.487.24c38.71 31.995 87.427 54.559 108.601 50.299 34.693-6.989 64.91-54.693 89.811-141.788a3.002 3.002 0 0 1 2.308-2.12c8.886-1.739 20.422-9.045 22.56-16.219.896-3.009.018-5.752-2.687-8.387-6.108-6.173-12.043-13.046-14.36-21.731-2.983-11.268-1.382-33.236.031-52.618.563-7.718 1.094-15.008 1.307-21.101 3.972-94.417-32.534-167.309-100.158-200.007-29.185-14.098-60.907-17.934-66.969-18.56a11.17 11.17 0 0 1-.23-.026c-64.157-6.895-122.869 16.423-161.07 63.977-35.413 44.083-46.341 100.78-29.233 151.665.079.234.128.478.147.724l5.319 68.501c.018.229.009.46-.026.687-2.231 14.552-11.738 63.333-28.712 113.623-22.13 65.563-47.765 107.576-76.193 124.87a3 3 0 1 1-3.118-5.126c26.806-16.307 52.266-58.377 73.626-121.663 16.707-49.498 26.111-97.456 28.414-112.272l-5.263-67.786c-17.592-52.74-6.256-111.398 30.361-156.98 39.507-49.179 100.154-73.303 166.388-66.184l.057.007.148.015c6.238.644 38.877 4.591 68.964 19.125 32.586 15.756 59.2 41.354 76.968 74.025 19.778 36.369 28.719 80.65 26.575 131.615-.217 6.185-.752 13.53-1.319 21.306-1.379 18.913-2.941 40.349-.216 50.641 2.052 7.691 7.676 13.847 12.787 19.013 5.431 5.291 5.291 10.732 4.211 14.358-2.696 9.048-14.884 17.312-25.338 19.983-4.399 15.355-13.973 48.011-29.005 78.375-19.29 38.963-41.126 61.148-64.902 65.938-2.019.406-4.247.604-6.651.604-24.663.002-68.324-20.781-104.982-50.543-6.904 8.391-9.779 42.022-10.767 53.582-1.474 17.245-8.188 105.975 4.436 159.412a2.999 2.999 0 0 1-2.922 3.69Z" style="fill:#232323"/><path d="M1161.032 128.694c-38.609-49.916 86.802-113.735 114.182-94.77 23.032 15.951-67.595 155.003-114.182 94.77Z" style="fill:#d9c6f4"/><path d="M1150.563 135.359c-28.69 4.298-36.707-50.57-81.276-63.441-58.754-16.967-148.783.541-204.271 53.868-118.746 114.122-91.29 238.752-231.602 343.283-54.297 40.45-129.768 75.376-248.146 74.677-.107 0-.209.011-.315.014-73.573 1.744-148.655 36.23-188.874 109.675-81.88 149.522 27.731 223.65-113.248 332.81-117.438 90.933-116.069 265.403 43.302 356.78 70.7 40.536 183.998 64.076 306.499 20.113 15.288 60.043-17.601 137.388 45.581 214.842 63.112 77.369 168.07-193.534 218.961-453.572 18.607-54.918 25.224-104.805 25.994-146.413 22.982-142.269 55.333-388.511 55.333-388.511s37.251-167.759 63.669-219.776l80.002 22.676c-.042.138 7.015-76.956 23.456-64.824l8.032 5.333c29.412 21.842 58.802-1.588 74.515-12.531 17.17-11.958 47.574-49.147 47.574-49.147s52.732 33.1 107.415 28.946c141.288 3.528 123.087-188.127-32.601-164.805Z" style="fill:#232323"/><g><path d="M1025.492 324.955c86.747-58.315 129.395-163.622 147.417-201.38 0 0-6.495-25.069-52.16-41.481-13.813 37.073-53.899 159.298-165.752 242.865 21.239 20.236 44.988 17.142 70.496-.003Z" style="fill:#d9c6f4"/><ellipse cx="1160.283" cy="103.908" rx="24.646" ry="29.194" transform="translate(-1.539 18.925) rotate(-.934)" style="fill:#d9c6f4"/><path d="M1152.004 134.701c-10.978-4.091-19.093-15.924-19.419-30.052a35.142 35.142 0 0 1 7.421-22.871c8.337-11.199 24.123-13.522 35.263-5.191a25.124 25.124 0 0 1 4.342 4.143 34.956 34.956 0 0 1 8.487 22.449c.42 17.818-11.69 32.645-26.996 33.055a24.133 24.133 0 0 1-9.098-1.532Zm14.536-55.705a18.058 18.058 0 0 0-6.818-1.142 19.736 19.736 0 0 0-14.866 7.84 28.859 28.859 0 0 0-6.034 18.79c.339 14.367 10.267 25.8 22.131 25.486 11.861-.313 21.243-12.259 20.903-26.627a28.71 28.71 0 0 0-6.914-18.452 21.2 21.2 0 0 0-8.403-5.894Z" style="fill:#fff"/><path d="M1136.782 113.415c45.975-47.129-75.835-127.672-106.443-111.239-25.736 13.815 50.965 168.11 106.443 111.239Z" style="fill:#d9c6f4"/><g style="clip-path:url(#clippath)"><path d="M1091.395 123.885c19.81 4.859 41.279.02 51.153-18.17 6.131-10.998 5.374-22.041.957-33.777 19.698 21.518 2.556 55.392-27.616 57.116a46.496 46.496 0 0 1-24.493-5.17Z" style="fill:#fff"/></g></g><g><path d="M1005.055 580.95c2.127-26.804 6.347-56.232 14.243-64.073-13.655-13.021-18.188-17.884-33.299-34.092-7.661-8.217-15.643-19.817-26.128-15.026-12.747 5.825-20.718 65.555 45.184 113.191Z" style="fill:#232323"/><path d="M1005.056 583.95a2.995 2.995 0 0 1-1.758-.569c-44.328-32.041-57.38-71.172-54.814-97.108 1.078-10.892 4.868-18.833 10.14-21.242 11.076-5.062 19.613 4.551 26.472 12.275 1.042 1.173 2.072 2.334 3.097 3.433 15.042 16.135 19.583 21.004 33.176 33.966a3 3 0 0 1 .043 4.3c-5.817 5.777-10.689 28.441-13.366 62.182a3 3 0 0 1-2.99 2.763Zm-40.279-114.303c-1.193 0-2.405.269-3.659.841-2.544 1.163-5.714 6.783-6.663 16.375-2.318 23.434 9.243 58.563 48.063 88.452 2.679-30.175 6.947-49.694 12.714-58.175-12.209-11.696-17.051-16.889-31.427-32.309a198.488 198.488 0 0 1-3.195-3.542c-6.081-6.848-10.789-11.643-15.833-11.643Z" style="fill:#232323"/></g><path d="M1167.256 299.377c-22.765 5.265-36.468 23.322-32.532 33.919 3.936 10.597 25.38 13.821 46.787 4.456 22.007-9.628 36.527-24.52 32.532-33.919-4.142-9.743-24.2-9.679-46.787-4.456Zm.839 177.608c-11.124 4.516-24.218-.416-31.964-9.168-7.638-8.911-9.756-22.967-3.061-32.946a2.234 2.234 0 0 1 3.906 2.135c-1.792 4.44-2.196 9.261-1.37 13.844a27.022 27.022 0 0 0 5.87 12.462c5.885 6.779 16.149 11.289 25.183 9.461 2.628-.6 3.88 3.092 1.436 4.214Zm-21.022-108.796c9.486-3.08 32.414-9.941 52.913-23.26a6.168 6.168 0 0 1 8.572 1.856c4.77 7.452 10.344 20.846-4.788 28.128-18.591 8.947-50.395 6.174-58.036-1.52-1.642-1.654-.878-4.485 1.338-5.204Z" style="fill:#232323"/><path d="M1001.345 336.849s-48.241-63.033-103.669-57.832c-46.035 4.319-54.904 74.79 8.053 125.979 10.24 8.326 28.974 20.276 44.897 25.776l50.719-93.923Z" style="fill:#fff"/><g style="clip-path:url(#clippath-1)"><path d="M930.031 422.461a2.98 2.98 0 0 1-.911-.143c-1.736-.554-42.83-14.127-69.536-64.067a3 3 0 0 1 5.291-2.829c25.501 47.688 65.667 61.051 66.07 61.181a3.001 3.001 0 0 1-.914 5.858Z" style="fill:#232323"/></g><path d="M949.63 375.983a3 3 0 0 1-2.912-2.29c-11.736-48.097-49.524-54.176-51.127-54.411a3.003 3.003 0 0 1-2.537-3.398 3.002 3.002 0 0 1 3.389-2.542c.448.064 11.112 1.657 23.387 9.752 11.264 7.429 26.084 21.99 32.717 49.176a3 3 0 0 1-2.917 3.711Z" style="fill:#232323"/></g><path d="M561.52 1303.367c-88.711 0-153.363-12.546-197.177-25.996-41.172-12.64-75.327-29.276-101.516-49.446-23.436-18.05-38.975-37.965-44.938-57.593-8.103-26.67 2.697-49.755 28.889-61.754 24.406-11.18 51.594-9.265 83.115 5.855 27.693 13.284 56.278 35.424 83.921 56.836 30.723 23.797 62.491 48.404 93.619 61.517 106.535 44.879 203.315 51.041 239.603 48.027a3 3 0 0 1 2.688 4.735l-.443.628a2.998 2.998 0 0 1-1.96 1.214c-71.004 11.483-132.714 15.977-185.802 15.977Zm-281.605-196.034c-10.322 0-20.53 2.069-30.637 6.699-23.554 10.79-32.903 30.674-25.647 54.555 9.607 31.621 52.08 75.297 142.475 103.048 64.808 19.896 175.731 37.78 343.554 15.268-48.118-2.534-123.618-14.492-204.555-48.587-31.851-13.417-63.936-38.269-94.964-62.303-45.339-35.118-88.669-68.679-130.225-68.679Z" style="fill:#232323"/><path d="M561.52 1303.367c-88.711 0-153.363-12.546-197.177-25.996-41.172-12.64-75.327-29.276-101.516-49.446-23.436-18.05-38.975-37.965-44.938-57.593-8.103-26.67 2.697-49.755 28.889-61.754 24.406-11.18 51.594-9.265 83.115 5.855 27.693 13.284 56.278 35.424 83.921 56.836 30.723 23.797 62.491 48.404 93.619 61.517 106.535 44.879 203.315 51.041 239.603 48.027a3 3 0 0 1 2.688 4.735l-.443.628a2.998 2.998 0 0 1-1.96 1.214c-71.004 11.483-132.714 15.977-185.802 15.977Zm-281.605-196.034c-10.322 0-20.53 2.069-30.637 6.699-23.554 10.79-32.903 30.674-25.647 54.555 9.607 31.621 52.08 75.297 142.475 103.048 64.808 19.896 175.731 37.78 343.554 15.268-48.118-2.534-123.618-14.492-204.555-48.587-31.851-13.417-63.936-38.269-94.964-62.303-45.339-35.118-88.669-68.679-130.225-68.679Z" style="fill:#d9c6f4"/><g><g><path d="M1581.033 1433.465c-268.71-139.041-700.325-127.221-835.591-101.435 0 0 .337-.052 0 0l46.67-136.93 76.785-411.601-174.305-57.839s-173.953 201.038-272.28 486.799c-19.372 56.3-66.968 197.594-24.401 304.628 58.935 148.192 229.623 152.793 287.96 153.354.563.016 1.141.01 1.7.009 203.584 1.433 399.729-96.367 534.173-100.225a94.802 94.802 0 0 1 3.355-.109l.019-.004.019-.004c15.427-.259 31.167.149 46.98 1.082 161.76 9.244 345.725 48.473 192.559-22.669 0 0 180.913 68.252 98.677-3.945 1.909.447 114.401 27.159 18.632-42.205-52.373-37.934-70.953-46.569-88.391-56.676 71.78 31.633 197.108 44.517 87.441-12.229ZM465.734 1095.626l-.164.393c-.012-.021.071-.199.164-.393Z" style="fill:#fff"/><path d="M691.994 1673.464c-1.488 0-2.957-.005-4.446-.016h-.216c-.513.004-1.037.005-1.55-.009-39.379-.379-91.466-3.163-144.647-21.478-71.363-24.577-120.489-69.583-146.015-133.767-18.463-46.424-22.231-104.605-11.2-172.926 9.267-57.394 27.021-108.991 35.553-133.787 13.58-39.467 28.627-77.288 44.356-113.019a3.003 3.003 0 0 1-.856-.939c-.806-1.392-.205-2.652.052-3.19a3.004 3.004 0 0 1 3.356-1.637c42.56-95.629 89.78-175.947 126.424-232.432 55.252-85.168 99.079-136.065 99.515-136.569a3 3 0 0 1 3.213-.884l174.305 57.839a3 3 0 0 1 2.004 3.397l-76.784 411.601a2.843 2.843 0 0 1-.11.417l-45.017 132.082c72.378-12.964 210.857-20.997 363.474-10.204 132.579 9.375 321.567 36.566 469.004 112.855 16.447 8.511 28.485 15.914 35.779 22.005 2.849 2.379 11.521 9.621 8.346 16.256-4.532 9.471-30.812 7.139-52.059 3.517-15.888-2.709-32.678-6.801-48.53-11.734 13.453 8.196 31.23 19.856 57.795 39.097 39.921 28.915 41.829 39.647 39.031 45.768-2.948 6.448-13.632 8.584-32.662 6.533-6.009-.647-11.921-1.615-16.74-2.514 12.525 12.222 16.651 20.365 13.326 25.905-3.332 5.55-13.927 9.941-66.718-5.487a691.317 691.317 0 0 1-15.188-4.639c19.939 11.611 21.148 16.664 20.1 20.469-3.021 10.969-34.876 8.693-125.145-.608-39.614-4.082-84.514-8.708-127.803-11.183-16.255-.959-31.932-1.322-46.605-1.08a2.903 2.903 0 0 1-.181.01c-1.08.021-2.158.043-3.248.104-57.755 1.659-128.6 21.191-203.605 41.871-99.318 27.382-211.735 58.372-326.311 58.375Zm-4.435-6.016c115.324.781 228.921-30.51 329.152-58.144 75.364-20.778 146.548-40.404 204.946-42.08a88.904 88.904 0 0 1 3.231-.106c.068-.006.134-.01.197-.011 14.867-.25 30.751.116 47.208 1.087 43.42 2.481 88.392 7.115 128.07 11.204 33.417 3.443 62.278 6.417 83.823 7.49 31.243 1.557 34.58-1.833 34.93-2.528.073-1.135-2.211-8.272-55.705-33.119a3 3 0 0 1 2.323-5.528c.274.104 27.724 10.431 55.958 18.681 52.435 15.322 59.065 9.478 59.862 8.15.322-.536 2.489-5.812-20.182-25.715a3 3 0 0 1 2.663-5.175c23.993 5.637 50.45 7.754 53.282 1.56.93-2.035 1.005-10.82-37.094-38.414-43.397-31.433-63.148-42.477-79.018-51.351-3.166-1.771-6.157-3.443-9.118-5.159a3 3 0 0 1 2.714-5.341c23.073 10.168 53.236 19.033 80.685 23.714 30.896 5.268 44.22 2.771 45.638-.192.139-.291 2.897-7.385-41.47-30.342-276.62-143.134-713.324-123.973-833.323-101.215a3.658 3.658 0 0 1-.284.058l-.15.022a2.98 2.98 0 0 1-2.127-.474h-.002l-.013-.009-.005-.003-.011-.007-.005-.003a.121.121 0 0 1-.014-.01l-.009-.006-.006-.004-.01-.007-.004-.003-.048-.036s-.002 0-.003-.002l-.011-.008-.003-.002-.031-.024a.03.03 0 0 1-.007-.005l-.006-.005-.01-.008-.004-.003a2.991 2.991 0 0 1-1.109-2.001 2.985 2.985 0 0 1 .159-1.364l46.582-136.673 76.264-408.815-169.901-56.378c-7.631 9.036-48.043 57.794-97.792 134.49-50.779 78.285-121.948 202.52-172.626 349.801-18.366 53.377-67.154 195.166-24.45 302.543 39.396 99.061 135.351 150.021 285.201 151.463.504.014.961.012 1.408.009h.253Z" style="fill:#232323"/></g><g style="clip-path:url(#clippath-2)"><path d="M1575.025 1554.461a2.985 2.985 0 0 1-1.513-.412c-46.775-27.396-90.956-53.272-132.466-66.316a3 3 0 1 1 1.799-5.723c42.158 13.247 86.624 39.29 133.7 66.862a3 3 0 0 1-1.519 5.589Zm-79.856 8.715c-.458 0-.921-.105-1.357-.326-26.795-13.623-66.843-20.183-67.245-20.247a3 3 0 0 1 .954-5.924c1.677.271 41.384 6.778 69.009 20.822a3 3 0 0 1-1.362 5.675ZM653.04 1364.689a3 3 0 0 1-1.27-5.719c36.686-17.121 71.323-27.575 105.889-31.959a3 3 0 0 1 .755 5.953c-33.939 4.306-67.993 14.591-104.107 31.445-.41.191-.842.282-1.267.282Z" style="fill:#232323"/></g></g><path d="M257.046 1110.179c61.724-11.858 161.095 73.098 177.349 86.692 88.496 74.014 328.388 85.168 328.388 85.168s160.81-391.693 159.504-535.779c-.116-12.854-2.975-92.133-72.189-149.985-76.991-61.205-160.276 23.234-323.371 216.632C393.7 970.65 266.501 1089.458 231.521 1118.198c13.786-6.13 25.51-8.013 25.525-8.019Z" style="fill:#d9c6f4"/><path d="M762.479 1285.04a3 3 0 0 1-2.789-4.103c.467-1.183 47.172-119.87 86.694-256.948 23.196-80.45 39.413-151.39 48.202-210.849 10.941-74.021 10.336-130.216-1.799-167.024a3 3 0 1 1 5.698-1.879c12.432 37.708 13.116 94.837 2.033 169.802-8.831 59.73-25.109 130.942-48.382 211.657-39.603 137.346-86.398 256.261-86.866 257.446a3.002 3.002 0 0 1-2.791 1.899Z" style="fill:#fff"/><path d="M1319.058 1349.119c-.143 0-.288-.012-.434-.038-56.52-9.886-124.504-19.161-181.856-24.809a2.5 2.5 0 0 1 .49-4.976c57.469 5.659 125.592 14.953 182.227 24.859a2.5 2.5 0 0 1-.428 4.963Z" style="fill:#9b3c82"/><path d="M1851.303 808.358s157.743-13.885 166.749 17.206c4.658 16.078-41.577 32.209-81.803 47.516-47.473 18.064-95.778 39.279-95.778 39.279l10.832-104Z" style="fill:#fff"/><path d="M1935.816 879.424a3 3 0 0 1-1.09-5.796c76.961-30 82.47-44.049 81.266-48.697-1.101-4.248-10.931-14.285-78.279-15.751-39.456-.86-79.043 1.708-85.636 2.606a2.999 2.999 0 1 1-.809-5.945c6.703-.912 46.793-3.525 86.577-2.659 22.625.493 40.974 2.024 54.536 4.552 17.927 3.342 27.55 8.475 29.42 15.693 2.293 8.851-4.013 24.264-84.895 55.792a2.98 2.98 0 0 1-1.088.206Z" style="fill:#232323"/></svg></g><g transform="translate(2039.0 952.0) rotate(0.0 79.0 61.0) scale(0.9860825063970543 0.9740518962075848)"><svg width="160.23" height="125.25" viewBox="0 0 160.23 125.25"><clipPath id="d"><path d="M61.127 9.855C22.306 25.601-2.566 54.637 5.574 74.703l12.529 30.885c8.14 20.062 46.213 23.566 85.031 7.818s63.693-44.783 55.551-64.848l-12.529-30.886C138.017-2.39 99.948-5.894 61.127 9.855z"/></clipPath><path d="M61.127 9.855C22.306 25.601-2.566 54.637 5.574 74.703l12.529 30.885c8.14 20.062 46.213 23.566 85.031 7.818s63.693-44.783 55.551-64.848l-12.529-30.886C138.017-2.39 99.948-5.894 61.127 9.855z" fill="#d9c6f4"/><g fill="#232323"><g clip-path="url(#d)"><path d="M40.553 96.496a85.991 85.991 0 0 1-5.863-.403C16.913 94.243 4.597 86.989 0 75.667l4.919-1.996c3.821 9.417 14.588 15.505 30.317 17.141 16.334 1.7 35.84-1.626 54.929-9.374s35.405-18.947 45.94-31.54c10.144-12.134 13.627-24.004 9.807-33.42l4.919-1.996c4.597 11.323.81 25.111-10.654 38.822-11.078 13.251-28.129 24.99-48.012 33.061-17.668 7.158-35.755 10.687-51.612 10.132z"/><path d="m88.212 85.21 4.92-1.995 12.097 29.82-4.92 1.997zm-61 8.623 4.92-1.996 12.746 31.418-4.92 1.996zm32.228-.053 4.92-1.996 12.53 30.886-4.92 1.996zm79.601-45.315 4.92-1.996 14.689 36.21-4.92 1.996zm-23.154 22.417 4.92-1.996 12.529 30.886-4.92 1.995z"/></g><path d="M40.62 86.807c-15.145-.53-26.402-5.569-30.184-14.879-7.181-17.705 15.809-43.182 52.338-58 17.093-6.934 34.467-10.345 48.913-9.646 15.16.75 25.473 6.002 29.039 14.79 7.183 17.704-15.806 43.181-52.336 58.001-17.316 7.024-34.124 10.211-47.771 9.734zm69.8-77.265c-13.495-.473-29.655 2.816-45.65 9.304C32.124 32.09 9.496 55.484 15.358 69.931c5.861 14.447 38.393 15.465 71.037 2.222s55.273-36.631 49.412-51.085c-2.703-6.666-11.59-10.853-24.379-11.485-.335-.016-.671-.03-1.007-.042z"/></g></svg></g><g transform="translate(1921.0 1023.0) rotate(0.0 91.5 55.0) scale(1.007387508394896 1.005944215820759)"><svg width="181.658" height="109.35" viewBox="0 0 181.658 109.35"><path d="M10.832 5.35S168.574-8.536 177.581 22.556c4.658 16.078-41.577 32.209-81.803 47.516C48.305 88.136 0 109.35 0 109.35z" fill="#fff"/><path d="M95.345 76.415a3.002 3.002 0 0 1-1.09-5.796c76.961-30 82.47-44.049 81.266-48.697-1.1-4.248-10.93-14.285-78.278-15.751-39.454-.858-79.042 1.708-85.637 2.605a3 3 0 0 1-.809-5.945C17.5 1.918 57.593-.695 97.373.172c22.625.493 40.974 2.024 54.536 4.552 17.927 3.341 27.55 8.475 29.42 15.693 2.293 8.851-4.013 24.264-84.895 55.792-.358.14-.727.206-1.089.206z" fill="#232323"/></svg></g><g transform="translate(2111.0 1855.0) rotate(0.0 74.5 51.0) scale(1.1917139886427257 1.1828555524631228)"><svg width="125.03" height="86.232" viewBox="0 0 125.03 86.232"><clipPath id="e"><path d="M63.115.024C30.937-.637 4.573 12.311 4.231 28.944l-.526 25.601c-.343 16.63 25.467 30.653 57.646 31.313 32.179.661 58.542-12.286 58.884-28.92l.526-25.601C121.104 14.707 95.294.685 63.115.024z"/></clipPath><path d="M63.115.024C30.937-.637 4.573 12.311 4.231 28.944l-.526 25.601c-.343 16.63 25.467 30.653 57.646 31.313 32.179.661 58.542-12.286 58.884-28.92l.526-25.601C121.104 14.707 95.294.685 63.115.024z" fill="#d9c6f4"/><g fill="#232323"><g clip-path="url(#e)"><path d="M108.222 53.334c-.805.457-1.635.901-2.493 1.337-11.839 5.991-27.436 9.105-43.916 8.767s-31.937-4.093-43.519-10.563C6.306 46.174-.188 37.319.004 27.933l4.081.082c-.341 16.62 25.591 30.683 57.814 31.344 15.824.324 30.735-2.636 41.989-8.329 10.847-5.484 16.901-12.807 17.061-20.614l4.081.082c-.185 8.728-6.124 16.767-16.808 22.836z"/><path d="m58.867 86.149.509-24.719 4.078.084-.51 24.719zM13.169 75.053l.533-26.043 4.08.084-.534 26.042zm22.771 9.299.525-25.601 4.08.083-.525 25.602zm69.841-3.422.616-30.014 4.079.083-.615 30.015zm-23.052 4.383.525-25.6 4.078.083-.525 25.6z"/></g><path d="M104.142 47.074c-9.944 5.649-25.048 9.018-42.174 8.664-30.282-.624-53.762-12.605-53.461-27.28.3-14.674 24.258-25.677 54.535-25.06 30.278.617 53.762 12.606 53.461 27.281-.132 6.375-4.726 12.058-12.362 16.395zM22.717 15.745c-6.249 3.55-10.033 7.986-10.133 12.799-.246 11.976 22.407 22.563 49.467 23.118s50.129-9.088 50.373-21.067c.244-11.978-22.406-22.562-49.466-23.119-16.184-.331-30.941 2.987-40.242 8.269z"/></g></svg></g><g transform="translate(2297.0 1787.0) rotate(0.0 62.5 42.5) scale(0.9997600575861794 0.9857129603859356)"><svg width="125.03" height="86.232" viewBox="0 0 125.03 86.232"><clipPath id="f"><path d="M63.115.024C30.937-.637 4.573 12.311 4.231 28.944l-.526 25.601c-.343 16.63 25.467 30.653 57.646 31.313 32.179.661 58.542-12.286 58.884-28.92l.526-25.601C121.104 14.707 95.294.685 63.115.024z"/></clipPath><path d="M63.115.024C30.937-.637 4.573 12.311 4.231 28.944l-.526 25.601c-.343 16.63 25.467 30.653 57.646 31.313 32.179.661 58.542-12.286 58.884-28.92l.526-25.601C121.104 14.707 95.294.685 63.115.024z" fill="#d9c6f4"/><g fill="#232323"><g clip-path="url(#f)"><path d="M108.222 53.334c-.805.457-1.635.901-2.493 1.337-11.839 5.991-27.436 9.105-43.916 8.767s-31.937-4.093-43.519-10.563C6.306 46.174-.188 37.319.004 27.933l4.081.082c-.341 16.62 25.591 30.683 57.814 31.344 15.824.324 30.735-2.636 41.989-8.329 10.847-5.484 16.901-12.807 17.061-20.614l4.081.082c-.185 8.728-6.124 16.767-16.808 22.836z"/><path d="m58.867 86.149.509-24.719 4.078.084-.51 24.719zM13.169 75.053l.533-26.043 4.08.084-.534 26.042zm22.771 9.299.525-25.601 4.08.083-.525 25.602zm69.841-3.422.616-30.014 4.079.083-.615 30.015zm-23.052 4.383.525-25.6 4.078.083-.525 25.6z"/></g><path d="M104.142 47.074c-9.944 5.649-25.048 9.018-42.174 8.664-30.282-.624-53.762-12.605-53.461-27.28.3-14.674 24.258-25.677 54.535-25.06 30.278.617 53.762 12.606 53.461 27.281-.132 6.375-4.726 12.058-12.362 16.395zM22.717 15.745c-6.249 3.55-10.033 7.986-10.133 12.799-.246 11.976 22.407 22.563 49.467 23.118s50.129-9.088 50.373-21.067c.244-11.978-22.406-22.562-49.466-23.119-16.184-.331-30.941 2.987-40.242 8.269z"/></g></svg></g><g transform="translate(1742.0 1816.0) rotate(0.0 62.5 42.5) scale(0.9997600575861794 0.9857129603859356)"><svg width="125.03" height="86.232" viewBox="0 0 125.03 86.232"><clipPath id="g"><path d="M63.115.024C30.937-.637 4.573 12.311 4.231 28.944l-.526 25.601c-.343 16.63 25.467 30.653 57.646 31.313 32.179.661 58.542-12.286 58.884-28.92l.526-25.601C121.104 14.707 95.294.685 63.115.024z"/></clipPath><path d="M63.115.024C30.937-.637 4.573 12.311 4.231 28.944l-.526 25.601c-.343 16.63 25.467 30.653 57.646 31.313 32.179.661 58.542-12.286 58.884-28.92l.526-25.601C121.104 14.707 95.294.685 63.115.024z" fill="#d9c6f4"/><g fill="#232323"><g clip-path="url(#g)"><path d="M108.222 53.334c-.805.457-1.635.901-2.493 1.337-11.839 5.991-27.436 9.105-43.916 8.767s-31.937-4.093-43.519-10.563C6.306 46.174-.188 37.319.004 27.933l4.081.082c-.341 16.62 25.591 30.683 57.814 31.344 15.824.324 30.735-2.636 41.989-8.329 10.847-5.484 16.901-12.807 17.061-20.614l4.081.082c-.185 8.728-6.124 16.767-16.808 22.836z"/><path d="m58.867 86.149.509-24.719 4.078.084-.51 24.719zM13.169 75.053l.533-26.043 4.08.084-.534 26.042zm22.771 9.299.525-25.601 4.08.083-.525 25.602zm69.841-3.422.616-30.014 4.079.083-.615 30.015zm-23.052 4.383.525-25.6 4.078.083-.525 25.6z"/></g><path d="M104.142 47.074c-9.944 5.649-25.048 9.018-42.174 8.664-30.282-.624-53.762-12.605-53.461-27.28.3-14.674 24.258-25.677 54.535-25.06 30.278.617 53.762 12.606 53.461 27.281-.132 6.375-4.726 12.058-12.362 16.395zM22.717 15.745c-6.249 3.55-10.033 7.986-10.133 12.799-.246 11.976 22.407 22.563 49.467 23.118s50.129-9.088 50.373-21.067c.244-11.978-22.406-22.562-49.466-23.119-16.184-.331-30.941 2.987-40.242 8.269z"/></g></svg></g></svg>