<svg xmlns="http://www.w3.org/2000/svg" viewBox="0 0 3000 3000" width="3000" height="3000"><g transform="translate(2660.4 2856.0) rotate(0.0 131.39999999999986 31.799999999999955) scale(1.470069979358605 1.495872239339556)"><svg width="178.767" height="42.517" viewBox="0 0 178.767 42.517"><ellipse cx="89.383" cy="21.259" fill="#232323" rx="89.383" ry="21.259"/></svg></g><g transform="translate(700.8 480.0) rotate(0.0 787.1999999999999 904.2) scale(1.2001216586742405 1.200613452128825)"><svg width="1311.867" height="1506.23" viewBox="0 0 1311.867 1506.23"><path d="M5 5h1301.867v1496.23H5z" fill="#fff"/><path d="M1306.867 1506.23H5a5 5 0 0 1-5-5V5a5 5 0 0 1 5-5h1301.867a5 5 0 0 1 5 5v1496.23a5 5 0 0 1-5 5zM10 1496.23h1291.867V10H10z" fill="#d9c6f4"/></svg></g><g transform="translate(874.8 1279.2) rotate(0.0 489.6 157.19999999999993) scale(1.201174678177924 1.201798110149536)"><svg width="815.202" height="261.608" viewBox="0 0 815.202 261.608"><path d="M3 258.608h809.202V3H3z" fill="#fff"/><g fill="#232323"><path d="M812.203 261.608H3a3 3 0 0 1-3-3V3a3 3 0 0 1 3-3h809.202a3 3 0 0 1 3 3v255.608a2.999 2.999 0 0 1-2.999 3zM6 255.608h803.202V6H6z"/><path d="M746.438 261.608H3.945a2.998 2.998 0 0 1-2.492-4.67c12.005-17.921 24.034-33.184 35.752-45.366 19.965-20.756 37.934-31.277 53.413-31.277l.282.001c18.783.102 33.63 16.155 47.988 31.68 14.021 15.161 27.265 29.48 43.312 29.742 34.141.536 52.434-29.743 71.802-61.855 19.121-31.703 38.895-64.485 75.49-64.485h.165c33.641.101 53.53 27.354 72.764 53.71 18.072 24.764 35.142 48.155 62.157 48.155 36.645 0 54.468-42.101 71.705-82.814 17.304-40.875 35.198-83.141 72.812-83.779.385-.007.775-.01 1.156-.01 45.117 0 59.146 45.948 74 94.575 13.39 43.832 27.235 89.156 63.718 110.814a3 3 0 0 1-1.531 5.579zm-736.83-6h727.005c-32.408-24.537-46.001-69.033-58.1-108.641-14.796-48.438-27.595-90.328-68.284-90.328-.343 0-.685.003-1.032.009-33.713.572-50.071 39.211-67.389 80.119-17.999 42.514-36.61 86.476-77.23 86.476-30.064 0-48.844-25.732-67.004-50.618-18.354-25.15-37.333-51.156-67.935-51.248h-.149c-33.209 0-51.25 29.914-70.351 61.583-19.206 31.844-39.065 64.762-75.963 64.765-.359 0-.715-.003-1.078-.009-18.61-.303-33.356-16.248-47.617-31.667-14.109-15.256-27.436-29.666-43.624-29.753-21.303-.192-50.751 25.007-81.249 69.312z"/></g></svg></g><g transform="translate(1234.8 1086.0) rotate(0.0 382.79999999999995 424.79999999999995) scale(1.2006812642910238 1.2013149987627698)"><svg width="637.638" height="707.225" viewBox="0 0 637.638 707.225"><g><path d="m380.64 605.14 66.23-500.846.13-.524 1.05-.525 180.59-88.762-69.508 548.701z" fill="#fff"/><path d="M637.558 11.074 570.804 547.32l-1.574 12.193v.131l-.524 4.72c-.656 5.376-5.509 9.31-10.886 8.654a9.937 9.937 0 0 1-8.524-7.605c-.263-1.049-.263-2.097-.131-3.277v-.263l2.098-16.389.787-6.555L615.788 27.2 456.05 110.063l-61.64 466.364-.918 6.949-2.622 19.273-.525 3.671c-.656 4.851-4.853 8.522-9.705 8.522-.393 0-.918 0-1.311-.13-5.378-.656-9.18-5.639-8.525-11.014l2.098-15.471.918-6.95 63.345-478.95c.393-3.146 2.36-6.03 5.245-7.473l1.05-.524L623.263 1.11c4.852-2.492 10.754-.656 13.246 4.195.918 1.836 1.311 3.802 1.049 5.769z" fill="#232323"/><path d="M561.755 540.633c-2.754-1.049-5.64-1.704-8.787-1.704h-1.05c-1.442 0-2.885.262-4.327.655l-153.443 36.843-10.23 2.49-10.229 2.492-.918 6.949 20.46-4.982 155.802-37.498 1.968-.394c.655 0 1.18-.13 1.836-.13.524 0 2.23.13 2.36.13.263 0 .656.132.918.132s.525.13.787.13c.656.132 1.443.394 2.099.656.13 0 .262.131.524.131.394.131.918.394 1.312.656s.787.393 1.049.655c.131.132.262.263.524.263 1.312.917 2.492 2.097 3.541 3.277l.787 1.18.394.787c.262.525.656 1.049.918 1.705.131.262.131.393.262.655.394 1.18.787 2.36.918 3.671l1.574-12.193c-2.36-2.753-5.508-5.113-9.05-6.556zM.968 683.02c.262-.524.524-.917.918-1.442-.394.525-.656 1.05-.918 1.442z" fill="#fff"/><path d="M556.902 577.869 21.296 706.62c-23.738 5.376-28.46-26.746-9.967-31.335l361.573-86.927 20.46-4.982 155.803-37.498s11.147-3.278 17.573 6.949c7.345 11.669-1.836 23.075-9.836 25.042z" fill="#232323"/><g fill="#fff" transform="matrix(1.31147541 0 0 1.31111518 1264 1194)"><circle cx="-557.062" cy="-478.129" r="4.499"/><path d="M-607.562-462.629c-2.2 0-4-1.8-4-4 0-1.9 1.3-3.5 3.1-3.9l30-7c2.2-.5 4.3.8 4.8 3s-.8 4.3-3 4.8l-30 7c-.3.1-.6.1-.9.1z"/></g></g></svg></g><g transform="translate(117.6 1050.0) rotate(0.0 1296.0 948.0) scale(1.1968063002247704 1.1974890624911183)"><svg width="2165.764" height="1583.313" viewBox="0 0 2165.764 1583.313"><clipPath id="a"><path d="M1602.844-580.527c34.8-43.7 81-81 134-16l17 4c89 165 133 382 213 495-16-23-103-30-146-32 9-34-46-45.2-138-75-111-36-192.575-91.944-192.575-91.944s61.575-220.056 112.575-284.056z"/></clipPath><g><path d="M409.248 218.288s-28.472 70.66-89.051 119.057c-28.957 23.11-50.887 43.558-128.549 66.668C82.485 436.439 41.533 516.416 57.284 619.261c11.268 73.201-10.42 114.58-32.713 153.662-65.425 114.944 0 271.026 193.853 307.324 0 0 35.136-108.168 121.158-246.827 113.404-182.822 193.005-499.704 145.632-584.642z" fill="#232323"/><path d="M687.669 268.863c-10.42 12.341-54.037 20.569-75.603 22.384-53.188 32.79-50.563 137.84-46.298 178.578 0 0-145.87 43.64-186.458-18.067 0 0 71.736-130.142 83.125-234.801-14.079 8.034-46.56 21.313-47.494 21.779-63.825-47.835-73.275-159.822 10.298-211.981.122 0 .122-.121.243-.121 61.865-39.977 136.524-31.283 196.64 48.76 28.95 40.843 29.156 44.98 49.19 47.43 12.72 1.21 7.874 18.875 1.332 26.497 8.726 21.78 40.47 89.173 15.025 119.542z" fill="#fff"/><path d="M466.095 487.801c-15.404 0-29.207-1.426-41.219-4.267-22.206-5.255-38.38-15.39-48.073-30.126a3.002 3.002 0 0 1-.121-3.098c.701-1.273 68.998-126.11 82.094-227.979-12.953 6.65-32.915 15.052-40.086 18.07-1.36.573-2.228.937-2.453 1.04-1 .461-2.213.356-3.094-.305-33.465-25.08-53.085-68.08-51.203-112.213.87-20.41 6.46-40.35 16.168-57.663 10.657-19.01 25.98-34.84 45.545-47.05.048-.03.096-.058.146-.086.103-.065.206-.122.308-.172 32.32-20.807 67.23-28.027 100.975-20.88 36.673 7.767 70.13 31.494 99.44 70.522 3.755 5.294 6.99 9.922 9.857 14.022 19.557 27.971 21.154 30.257 37.298 32.23 4.574.434 8.006 2.836 9.586 6.754 2.713 6.726-.464 16.825-5.18 23.215.62 1.52 1.33 3.22 2.103 5.076 11.739 28.172 36.167 86.793 11.782 115.898l-.007.009c-11.471 13.587-56.255 21.54-76.917 23.375-21.905 13.847-36.271 42.048-42.706 83.838-5.998 38.957-3.106 76.967-1.586 91.5a3 3 0 0 1-2.124 3.188c-.367.11-37.255 11.04-78.638 14.223-7.614.586-14.919.88-21.895.88zm-83.275-36.223c37.387 52.861 160.981 21.214 179.713 16.045-2.767-28.804-9.815-143.313 47.96-178.93a3.006 3.006 0 0 1 1.322-.436c25.066-2.109 64.565-10.692 73.557-21.323 22.04-26.308-2.32-84.77-12.723-109.736a565.202 565.202 0 0 1-2.787-6.762 3.003 3.003 0 0 1 .508-3.07c4.027-4.692 7.232-13.805 5.33-18.524-.467-1.156-1.458-2.729-4.67-3.033-18.88-2.308-21.903-6.63-41.568-34.758-2.86-4.091-6.088-8.708-9.786-13.924C591.311 39.36 559.05 16.397 523.84 8.94c-32.249-6.83-65.695.16-96.726 20.212a3.49 3.49 0 0 1-.186.11 2.851 2.851 0 0 1-.338.186c-36.05 22.597-56.874 58.002-58.654 99.728-1.772 41.578 16.368 82.061 47.435 106.111l.993-.418c8.133-3.423 32.877-13.838 44.587-20.52a3 3 0 0 1 4.47 2.93c-10.637 97.75-74.323 218.89-82.6 234.3zm304.849-182.715h.01z" fill="#232323"/><path d="M576.203 125.486c-11.267 12.704-11.752 29.038-5.088 33.757s20.839-2.42 29.562-16.94c8.966-14.882 11.39-29.764 5.089-33.757-6.543-4.113-18.416 4.356-29.563 16.94zm28.836 27.465c3.998-6.05 13.933-20.327 19.506-37.145.727-2.299 3.272-3.63 5.695-2.783 6.058 2.057 15.266 7.139 10.056 18.15-6.543 13.43-25.807 26.255-33.56 25.408-1.212-.121-2.182-1.331-1.94-2.541-.12-.484.002-.847.243-1.089z" fill="#232323"/><path d="M199.523 266.564c12.775 38.137 225.543-29.697 224.99-30.248l-53.43-101.03c-23.618 14.609-180.253 105.532-171.56 131.278z" fill="#d9c6f4"/><path d="M341.885 153.072c12.358 53.963 51.735 79.735 74.876 85.906 3.029.847 6.3 1.33 9.45 1.452l-1.817-3.872-2.787-5.929-50.402-95.343c-.242 0-17.204 10.526-29.32 17.786z" fill="#232323"/><path d="M625.097 74.326c-3.1 4.6-7.57 10.93-11.54 15.9 0 .12-.12.12-.12.12-7.22 9.17-16.61 20.01-27.25 31.4-29.74 31.84-69.29 67.969-98.57 83.72-21.849 11.76-49.02 25.28-51.25 25.84-.359.16-15.02 6.75-16.369 7.2-.38.12-2.49 1.74-3.6 2.23-70.48-45.45-80.78-158.829 4.09-214.969.99-.62 1.86-1.24 2.861-1.86.12 0 .12-.12.24-.12 50.45-32.669 109.51-33.18 161.28 7.811 14.048 11.117 27.568 25.297 40.228 42.728z" fill="#d9c6f4"/><path d="M487.758 203.647s-35.984-12.825-60.579 10.285c-23.141 21.779-.606 62.312 58.52 64.248 11.994.12 23.868-1.694 35.256-5.445z" fill="#fff"/><path d="M489.81 281.269c-41.204.002-64.195-17.714-71.607-34.219-5.691-12.671-3.103-25.87 6.92-35.302 25.638-24.09 62.103-11.475 63.642-10.926a3 3 0 0 1-2.014 5.653c-.43-.151-34.616-11.877-57.518 9.644-8.194 7.711-10.22 18.09-5.558 28.475 11.083 24.68 47.93 32.881 79.528 30.062a3 3 0 0 1 .533 5.976c-4.85.43-9.497.637-13.925.637zm51.742 6.106c4.725-6.897 18.053-2.299 26.05-.605 15.87 3.509 28.229 5.324 44.464 4.477-.606.363-1.211.726-1.938 1.21-13.449 8.953-23.02 22.505-29.684 38.234-30.29-10.89-43.98-35.935-38.892-43.316z" fill="#232323"/><path d="M580.444 333.691c-.337 0-.68-.056-1.014-.177-10.525-3.784-20.09-9.613-27.662-16.857-6.496-6.217-11.192-13.118-13.223-19.434-1.543-4.802-1.36-8.794.533-11.544 5.202-7.59 16.884-4.771 25.413-2.712 1.328.32 2.586.625 3.732.868 15.527 3.432 27.64 5.253 43.687 4.416a2.989 2.989 0 0 1 3.025 2.121 3 3 0 0 1-1.326 3.448c-.575.344-1.14.683-1.818 1.134-11.968 7.968-21.584 20.385-28.583 36.907a3.003 3.003 0 0 1-2.764 1.83zm-29.998-47.002c-2.844 0-5.21.617-6.418 2.381l-.005.007c-.592.858-.84 2.966.235 6.31 3.202 9.96 15.315 23.768 34.583 31.485 6.127-13.572 14.05-24.443 23.625-32.43-12.217-.16-22.765-1.925-35.512-4.744-1.17-.248-2.485-.565-3.87-.899-3.95-.953-8.742-2.11-12.638-2.11zm-8.894.686h.01zm83.545-213.049c-3.1 4.6-7.57 10.93-11.54 15.9 0 .12-.12.12-.12.12-7.22 9.17-16.61 20.01-27.25 31.4-11.23-7.92-24.59-26.65-25.37-43.74-.78-16.941 6.961-33.27 24.05-46.41 14.05 11.119 27.57 25.3 40.23 42.73zM431.542 1005.23c-97.29 6.897-275.877-12.34-306.53 44.768-26.654 49.608 155.083 82.276 374.015-13.43.12 0-47.494-32.79-67.485-31.337z" fill="#232323"/><path d="M1717.391 1560.108c16.962-.968 32.955-1.815 48.1-2.783 2.665-.12 5.33-.242 7.996-.484.97 0 1.818-.12 2.787-.12 6.542-.364 12.843-.727 19.022-1.09 74.39-4.356 118.129-7.138 118.129-7.138s77.056-28.071 55.732-187.54c0 0-72.816-4.961-152.537-13.31-17.326-1.815-34.894-3.872-52.22-6.05z" fill="#fff"/><path d="M1795.296 1555.631c74.39-4.356 118.129-7.138 118.129-7.138s77.056-28.071 55.732-187.54c0 0-72.816-4.961-152.537-13.31z" fill="#d9c6f4"/><path d="m1832.491 1553.453 21.688-202.06c4.119.364 8.117.727 12.115 1.09l-21.445 200.244a3594.1 3594.1 0 0 1-12.358.726z" fill="#fff"/><path d="M1717.391 1563.107a3 3 0 0 1-2.933-3.63l47.01-218.515a3 3 0 0 1 3.307-2.346c18.335 2.305 35.883 4.337 52.157 6.042 78.756 8.248 151.7 13.25 152.429 13.3a3 3 0 0 1 2.77 2.595c6.145 45.952 7.612 110.239-20.29 155.542-16.95 27.524-36.563 34.913-37.39 35.214a3.004 3.004 0 0 1-.836.176c-.437.028-44.597 2.833-118.144 7.14-6.181.363-12.485.726-19.031 1.089-.465.026-.918.029-1.36.058-.474.031-.948.061-1.45.066-2.695.24-5.394.363-8.003.482-10.8.69-21.993 1.317-33.845 1.98-4.664.262-9.403.527-14.22.801a2.015 2.015 0 0 1-.17.006zm49.364-218.196-45.603 211.979 10.295-.579c11.838-.662 23.02-1.287 33.851-1.98 2.641-.12 5.314-.242 7.917-.478.501-.046.99-.036 1.465-.067.491-.033.983-.064 1.504-.067a5847.57 5847.57 0 0 0 18.935-1.084c69.42-4.064 112.649-6.791 117.633-7.107 2.655-1.124 19.64-9.042 34.267-33.047 14.583-23.931 29.705-69.1 19.481-148.707-13.382-.945-79.451-5.739-150.194-13.147-15.506-1.625-32.163-3.547-49.551-5.716z" fill="#232323"/><path d="M265.676 968.57c-97.048 189.113-131.699 314.946-28.957 464.979s305.076 135.512 374.136 111.314c259.278 20.569 436.168-87.116 550.057-66.547s288.355 100.425 556.478 81.792c0 0 35.984-135.029 46.888-218.515l-417.995-49.607-66.637-54.447s133.274-20.57 207.18-111.314c0 0-235.046-378.71-438.591-360.562-198.578 17.665-496.748 264.976-496.748 264.976z" fill="#fff"/><path d="M1637.66 1565.891c-160.624 0-284.261-34.117-378.029-59.992-37.742-10.415-70.337-19.41-99.252-24.632-48.506-8.76-107.812 5.855-182.894 24.357-82.486 20.327-182.037 44.858-300.221 44.859-21.397 0-43.388-.803-66.017-2.58-37.914 13.116-106.6 21.136-175.325 9.598-60.802-10.21-145.147-39.707-201.677-122.257-49.888-72.85-69.255-142.71-60.95-219.85 8.785-81.605 48.31-167.513 89.713-248.194a3 3 0 0 1 3.306-1.562l284.392 61.761c9.763-7.996 81.268-65.986 173.065-125.145 57.81-37.256 112.256-67.692 161.821-90.462 62.11-28.531 116.74-45.057 162.379-49.117 47.113-4.201 99.7 12.337 156.302 49.155 45.034 29.292 92.745 71.445 141.807 125.287 83.424 91.554 142.707 186.576 143.296 187.525a2.998 2.998 0 0 1-.223 3.476c-38.592 47.386-93.38 75.418-132.547 90.59-31.483 12.195-58.232 18.273-70.038 20.612l60.938 49.79 417.127 49.503a2.997 2.997 0 0 1 2.62 3.367c-10.804 82.724-46.603 217.547-46.964 218.9a3 3 0 0 1-2.69 2.22 1152.223 1152.223 0 0 1-79.938 2.791zm-508.506-93.234c11.233 0 21.977.844 32.292 2.706 29.182 5.27 61.898 14.299 99.782 24.753 107.957 29.79 255.67 70.546 453.812 57.146 4.504-17.14 35.426-136.19 45.864-213.048l-414.973-49.25a3 3 0 0 1-1.545-.655l-66.637-54.447a2.999 2.999 0 0 1 1.44-5.288c.331-.05 33.598-5.309 75.388-21.514 37.983-14.73 90.906-41.746 128.558-87.069-8.607-13.572-64.827-100.713-141.549-184.897-48.71-53.447-96.021-95.254-140.62-124.258-55.434-36.051-106.729-52.263-152.464-48.184-44.953 3.999-98.92 20.347-160.405 48.592-49.31 22.651-103.503 52.95-161.076 90.053-98.079 63.207-172.873 125.034-173.617 125.651-.71.588-1.65.818-2.552.623l-283.559-61.58c-55.533 108.476-81.062 179.284-88.034 244.044-8.143 75.638 10.901 144.214 59.934 215.817 55.339 80.81 138.065 109.714 197.72 119.73 68.036 11.424 135.887 3.435 172.948-9.552a3.007 3.007 0 0 1 1.229-.16c146.933 11.657 267.82-18.134 364.956-42.071 60.074-14.803 110.144-27.142 153.108-27.142z" fill="#232323"/><path d="M2123.267 1086.697c18.173 13.793 39.497 53.237 39.497 123.535v341.807c-71.12-9.68-155.93-6.05-252.978-3.388 5.089-47.43 34.167-64.369 40.225-106.716 8.117-57.11-3.756-55.053 25.08-149.79.802-2.602 8.814-37.958 30.289-81.066 46.767-92.803 110.86-121.478 117.28-124.14.122-.12.243-.12.364-.12l.243-.122z" fill="#fff"/><path d="M2123.267 1086.697c18.173 13.793 39.497 53.237 39.497 123.535v341.807c-71.12-9.68-155.93-6.05-252.978-3.388 5.089-47.43 34.167-64.369 40.225-106.716 8.117-57.11-3.756-55.053 25.08-149.79.802-2.602 8.814-37.958 30.289-81.066 46.767-92.803 110.86-121.478 117.28-124.14.122-.12.243-.12.364-.12l.243-.122z" fill="#fff"/><path d="M2162.764 1555.038c-.134 0-.269-.008-.405-.028-64.284-8.75-139.143-6.6-225.822-4.115-8.784.252-17.673.507-26.67.754a3 3 0 0 1-3.065-3.319c2.735-25.483 12.215-42.355 21.385-58.67 8.254-14.69 16.052-28.565 18.853-48.15 2.601-18.3 3.122-30.239 3.627-41.784 1.032-23.587 1.92-43.956 21.553-108.455.078-.25.217-.796.43-1.622 8.746-33.752 21.165-62.084 30.045-79.909 46.635-92.54 109.953-121.83 118.507-125.442.288-.173.6-.3.934-.38a3.003 3.003 0 0 1 2.946.39c19.667 14.926 40.683 55.847 40.683 125.924v341.807a3 3 0 0 1-3 3zm-115.295-12.331c40.481 0 77.833 1.444 112.295 5.908v-338.383c0-31.69-4.288-59.247-12.744-81.908-8.325-22.308-18.287-33.254-24.232-38.177-10.645 4.658-70.202 33.925-114.73 122.282-8.744 17.556-20.985 45.477-29.6 78.726-.248.96-.415 1.593-.5 1.873-19.408 63.762-20.282 83.78-21.294 106.96-.487 11.144-1.04 23.777-3.682 42.369-2.962 20.7-11.401 35.718-19.564 50.243-8.45 15.035-17.173 30.559-20.233 52.956 7.807-.217 15.533-.438 23.18-.657 39.423-1.131 76.413-2.192 111.104-2.192z" fill="#232323"/><path d="M2036.066 1548.582a3.001 3.001 0 0 1-2.994-3.25c.052-.622.44-6.337-1.787-15.417-2.769-11.278-8.234-22.796-16.246-34.234-4.344-6.145-8.164-11.112-11.533-15.494-12.93-16.812-19.42-25.252-23.637-57.956a3 3 0 1 1 5.951-.767c4.01 31.097 9.786 38.609 22.442 55.065 3.405 4.427 7.264 9.445 11.684 15.7 20.473 29.224 19.306 51.192 19.106 53.6a3.001 3.001 0 0 1-2.986 2.753z" fill="#232323"/><path d="M2121.692 1443.13c10.864 0 20.048 16.792 20.048 36.555s-9.184 36.554-20.048 36.554-20.048-16.791-20.048-36.554 9.183-36.555 20.048-36.555zm-82.388-82.987c4.968 0 9.087-3.993 9.087-9.075 0-3.63-2.18-6.896-5.452-8.348-.121 0-10.299-4.598-22.293-15.608-16.114-14.64-27.866-33.274-34.894-55.174-1.575-4.718-6.663-7.38-11.388-5.928s-7.391 6.654-5.937 11.373c19.385 60.497 65.304 81.066 67.242 81.913 1.09.605 2.302.847 3.635.847zm15.993-41.501c4.968 0 9.087-4.114 9.087-9.075 0-3.387-1.939-6.533-4.968-8.106-.363-.242-43.01-22.626-55.005-73.806-1.09-4.84-5.937-7.986-10.905-6.897-4.846 1.089-7.996 5.929-6.906 10.89v.12c13.934 59.65 62.397 84.817 64.457 85.906 1.332.605 2.786.968 4.24.968zm12.722-47.913c4.967 0 9.086-3.993 9.086-9.075 0-3.388-1.817-6.413-4.846-7.986-.363-.242-36.468-20.327-46.646-66.425-1.09-4.84-5.936-7.986-10.783-6.897s-7.996 5.929-6.906 10.769c11.995 54.447 54.037 77.557 55.733 78.525 1.454.605 2.908.968 4.362 1.089z" fill="#00676c"/><path d="M698.09 793.492c-69.06 53.237-152.538 99.699-239.893 124.623-50.886 14.52-178.102 43.558-156.294 93.165 23.867 54.085 197.488 25.41 396.187-217.788z" fill="#232323"/><path d="M391.56 936.627a565.324 565.324 0 0 0 18.174 55.778c.605 1.452 1.211 3.025 1.817 4.477 161.746 399.037 603.367-46.703 700.899-112.766 79.6-53.963 135.697-43.558 195.064-62.917s44.828-47.187 44.828-47.187c18.174-31.459 6.058-41.138 6.058-41.138 23.02-29.039 14.54-52.027 14.54-52.027 8.36-9.196 15.992-18.875 23.02-29.039 45.918-68.724-16.963-20.569-44.83-8.47 36.348-43.557-3.15-20.69-73.906-9.679-70.271 10.89-135.818 33.394-184.16 48.398-156.293 48.397-383.89 159.894-383.89 159.894s-5.525-17.441-10.37-34.38z" fill="#fff"/><path d="M618.036 1164.016c-17.992 0-35.59-2.014-52.673-6.383-32.666-8.354-62.06-25.181-87.365-50.011-27.321-26.81-50.613-63.689-69.228-109.613a194.62 194.62 0 0 1-.916-2.256c-.296-.74-.593-1.482-.89-2.193a570.695 570.695 0 0 1-18.302-56.152 2.998 2.998 0 0 1 1.735-3.547L697.64 804.805a3.001 3.001 0 0 1 4.047 1.94c3.538 12.364 7.476 25.118 9.307 30.983 28.006-13.575 236.382-113.7 381.184-158.539 6.565-2.038 13.45-4.214 20.62-6.482 45.9-14.51 103.022-32.571 163.968-42.015 19.765-3.075 37.094-7.085 51.02-10.307 23.657-5.474 35.532-8.223 39.2-2.258 2.092 3.401.734 8.135-5.227 16.51 3.374-1.842 6.943-3.862 10.6-5.934 22.018-12.47 35.787-19.817 41.18-14.01 3.27 3.521 3.708 10.656-15.084 38.78-6.893 9.969-14.334 19.416-22.16 28.135 1.544 6.037 4.666 26.33-13.998 51.13 4.065 5.866 5.899 19.2-6.625 41.49 1.018 2.89 2.503 9.386-.733 17.328-5.408 13.264-21.05 24.197-46.493 32.494-19.558 6.378-38.4 9.5-58.349 12.806-40.727 6.749-82.84 13.728-135.962 49.742-13.346 9.04-33.123 25.194-58.163 45.648-102.377 83.625-283.747 231.77-437.936 231.77zM395.144 938.375a564.122 564.122 0 0 0 17.388 52.952c.277.659.584 1.427.892 2.195.298.744.596 1.49.895 2.204 18.316 45.186 41.15 81.382 67.882 107.613 24.54 24.08 53.02 40.39 84.65 48.48 37.267 9.531 80.072 7.955 127.226-4.687 40.439-10.84 85.192-30.136 133.018-57.348 87.43-49.747 170.264-117.41 225.079-162.184 25.156-20.548 45.026-36.78 58.593-45.97 54.21-36.75 96.983-43.839 138.348-50.693 19.718-3.268 38.344-6.355 57.468-12.59 29.506-9.622 39.558-21.112 42.797-29.055 3.223-7.907.332-13.833.303-13.891-.476-.91-.452-2 .062-2.89 16.366-28.329 6.827-37.251 6.729-37.338-1.292-1.032-1.45-2.868-.424-4.162 21.578-27.22 14.387-48.256 14.071-49.138a3.017 3.017 0 0 1 .6-3.045c8.063-8.868 15.725-18.535 22.771-28.726 17.694-26.483 15.899-30.922 15.636-31.342-.035-.01-1.887-1.124-11.404 3.204-6.543 2.976-14.609 7.544-22.409 11.961-8.494 4.811-16.517 9.356-22.988 12.165a2.999 2.999 0 0 1-3.498-4.674c13.165-15.776 13.304-19.427 13.033-20.17-2.127-2.094-18.382 1.668-32.724 4.985-14.02 3.244-31.468 7.282-51.45 10.391-60.495 9.375-117.376 27.358-163.08 41.807-7.182 2.27-14.077 4.45-20.653 6.492-154.28 47.774-381.186 158.609-383.46 159.722a2.997 2.997 0 0 1-4.179-1.788c-.052-.164-4.903-15.492-9.46-31.214z" fill="#232323"/><path d="M650.404 882.033a2.996 2.996 0 0 1-1.95-5.278c.111-.095 12.479-10.296 34.473-23.592a446.15 446.15 0 0 1 27.232-15.17 3 3 0 1 1 2.736 5.339 439.061 439.061 0 0 0-26.864 14.965c-21.526 13.013-33.584 22.94-33.7 23.036-.561.47-1.246.7-1.927.7z" fill="#232323"/><path d="M566.027 465.599c-42.163-52.874-98.138-98.005-162.351-19.36l-20.597 4.84C275.249 650.72 221.939 913.277 125.013 1050c19.385-27.83 124.792-36.299 176.89-38.719-10.904-41.137 55.733-54.689 167.198-90.745 134.485-43.558 233.32-111.246 233.32-111.246S627.818 543.036 566.027 465.6z" fill="#00676c"/><path clip-path="url(#a)" d="M1818.179-140.134a2.48 2.48 0 0 0 2.352-3.256c-17.89-54.374-22.583-120.718-27.123-184.878-.59-8.343-1.179-16.666-1.795-24.944-3.335-45.317-7.505-93.206-15.368-136.385-8.621-47.346-20.833-84.405-37.334-113.296a2.475 2.475 0 0 0-3.379-.922 2.481 2.481 0 0 0-.92 3.383c35.847 62.767 45.375 156.727 52.062 247.587.615 8.274 1.204 16.592 1.794 24.928 4.561 64.462 9.276 131.119 27.359 186.079a2.479 2.479 0 0 0 2.352 1.704z" fill="#fff" transform="matrix(-1.2115793 0 0 1.20993713 2508 1168)"/><path d="M1486.828 1126.225c-75.118 87.115-173.256 104.054-207.18 111.314s-296.746 72.141-215.904 157.534c76.543 80.85 327.369-98.247 423.084-268.848z" fill="#232323"/><path d="M1116.36 1418.098c-23.212 0-41.595-7.022-54.794-20.963-14.402-15.212-19.23-30.901-14.347-46.63 8.548-27.539 46.725-54.543 113.47-80.264 59.488-22.925 117.75-35.51 118.332-35.635 1.612-.345 3.366-.712 5.257-1.106 38.716-8.084 129.382-27.013 200.28-109.233a3.001 3.001 0 0 1 4.888 3.426c-36.205 64.53-96.807 133.894-166.268 190.308-69.647 56.564-139.096 92.665-190.537 99.044-5.666.702-11.096 1.053-16.282 1.053zm353.53-269.526c-68.601 66.628-148.488 83.304-184.387 90.8-1.88.392-3.626.757-5.228 1.1-.577.123-58.377 12.61-117.43 35.366-44.65 17.207-99.96 44.437-109.896 76.445-4.25 13.694-.007 27.016 12.974 40.727 14.764 15.594 36.962 21.678 65.977 18.08 99.624-12.354 257.076-136.26 337.99-262.518z" fill="#232323"/><path d="M1279.648 1237.539c6.906 5.323 26.049 22.263 46.04 40.29 11.752 10.527 23.625 21.417 33.682 30.491a21153.019 21153.019 0 0 1 52.824 48.398c69.182 14.398 117.887-12.584 147.57-39.323 23.505-21.174 42.164-39.807 42.164-39.807s-42.163-53.722-82.024-106.596c-1.333-1.815-2.787-3.63-4.12-5.445-10.177-13.55-20.112-26.86-28.956-39.08-75.118 83.243-165.987 101.392-207.18 111.072z" fill="#fff"/><path d="M1359.49 1308.32a21153.019 21153.019 0 0 1 52.826 48.398c69.18 14.398 117.886-12.584 147.57-39.323 23.505-21.174 42.163-39.807 42.163-39.807s-42.163-53.722-82.024-106.596z" fill="#d9c6f4"/><path d="m1384.57 1331.188 157.385-131.4c2.423 3.268 4.967 6.413 7.39 9.68l-155.809 129.947a2273.98 2273.98 0 0 1-8.966-8.227z" fill="#fff"/><path d="M1449.776 1363.712c-11.971 0-24.699-1.248-38.193-4.058a2.988 2.988 0 0 1-1.42-.73c-.246-.226-24.914-22.916-52.817-48.39a4950.968 4950.968 0 0 1-12.558-11.388c-6.868-6.242-13.97-12.696-21.102-19.084-23.592-21.274-39.88-35.531-45.87-40.15a2.999 2.999 0 0 1 1.146-5.296c1.75-.412 3.591-.839 5.516-1.285 21.438-4.97 53.834-12.48 89.571-28.586 42.608-19.2 79.802-46.214 110.55-80.288a3.003 3.003 0 0 1 4.658.25c9.163 12.661 19.317 26.245 28.925 39.039.673.915 1.356 1.805 2.04 2.694.71.926 1.42 1.85 2.099 2.776 39.365 52.216 81.544 105.982 81.966 106.52a3 3 0 0 1-.24 3.974c-.187.186-18.983 18.93-42.275 39.913-23.753 21.397-60.98 44.09-111.996 44.09zm-36.163-9.765c68.114 13.886 115.958-13.392 144.144-38.781 18.915-17.04 34.846-32.591 40.163-37.831-8.184-10.455-45.4-58.094-80.41-104.538-.678-.922-1.362-1.812-2.045-2.704-.71-.923-1.418-1.847-2.098-2.77-8.858-11.795-18.196-24.285-26.805-36.116-71.816 77.862-158.169 98.103-200.266 107.863 10.604 8.874 29.78 26.05 41.402 36.53 7.14 6.397 14.25 12.858 21.127 19.107 4.387 3.987 8.61 7.826 12.556 11.384a21738.082 21738.082 0 0 1 52.232 47.856z" fill="#232323"/><path d="M1893.313 1228.948c2.06 23.231-13.086 66.547-66.153 115.065l-258.914 236.3c-43.738-65.699-90.99-128.615-156.415-222.99 46.04-33.879 87.718-14.883 118.735-37.509 30.047-21.9 67.848-39.927 104.922-60.86 12.2-7.105 48.504-23.418 82.388-33.152 102.5-28.796 168.41-.242 174.952 2.783.121.121.242.121.363.121z" fill="#fff"/><path d="M1568.246 1583.313a3 3 0 0 1-2.497-1.337c-24.634-37.003-50.247-72.931-79.905-114.532-22.466-31.514-47.93-67.232-76.479-108.413a3 3 0 0 1 .687-4.126c25.994-19.128 50.684-21.827 72.467-24.21 17.698-1.935 32.98-3.606 46.277-13.305 21.484-15.66 46.499-29.137 72.983-43.406 10.565-5.691 21.488-11.577 32.233-17.643 11.28-6.571 47.262-23.147 83.034-33.423 102.788-28.879 169.27-.63 176.952 2.904.802.228 1.494.78 1.875 1.542l.12.242c.17.337.272.702.306 1.077 2.228 25.123-14.235 69.195-67.117 117.544l-258.917 236.302a2.991 2.991 0 0 1-2.02.784zm-152.267-225.273c27.845 40.126 52.738 75.044 74.75 105.922 28.91 40.552 53.983 75.722 78.074 111.782l256.334-233.947c23.927-21.877 41.795-44.14 53.102-66.17 11.21-21.838 12.584-36.98 12.194-44.829-11.204-4.9-74.734-29.363-171.747-2.108-32.115 9.226-68.69 25.286-81.69 32.857-10.83 6.116-21.78 12.015-32.371 17.721-26.299 14.17-51.14 27.553-72.294 42.971-14.587 10.642-31.381 12.478-49.16 14.423-20.357 2.225-43.344 4.739-67.192 21.378zm477.201-132.334h.008z" fill="#232323"/><path d="M1611.372 1470.06c20.776 0 17.213 25.996-2.808 44.11-14.937 13.514-33.702 18.103-41.106 9.944s-1.277-26.517 13.66-40.03c9.828-8.923 21.445-14.023 30.254-14.023zm41.078-120.965c4.968 0 9.087-4.114 9.087-9.075 0-.968-.12-2.057-.484-2.903-.121-.363-13.933-43.316 14.054-92.198 2.544-4.355.97-9.921-3.392-12.341-4.362-2.54-9.935-.968-12.358 3.388-32.228 56.262-16.114 105.022-15.509 107.08 1.212 3.629 4.725 6.049 8.603 6.049zm42.527-16.576c4.967 0 9.087-4.114 9.087-9.075 0-.847-.121-1.694-.364-2.42-.12-.484-12.6-48.276 17.932-92.68 2.786-4.115 1.817-9.801-2.302-12.584s-9.814-1.815-12.6 2.299c-35.5 51.664-21.082 105.506-20.476 107.805.969 3.872 4.604 6.655 8.723 6.655zm45.071-23.473c4.967 0 9.087-4.114 9.087-9.075 0-.725-.122-1.451-.243-2.177-.12-.363-9.814-41.622 18.053-81.187 2.908-4.114 1.938-9.8-2.181-12.705s-9.814-1.935-12.722 2.178c-32.833 46.583-21.323 94.133-20.839 96.07.97 4.113 4.604 6.896 8.845 6.896z" fill="#00676c"/><g fill="#232323"><path d="M502.296 247.116a2.985 2.985 0 0 1-1.827-.623c-8.86-6.817-18.153-10.676-27.625-11.467-12.853-1.073-21.587 3.967-21.67 4.018-1.411.854-3.259.418-4.122-.987s-.444-3.236.955-4.11c.1-.06 10.1-6.176 25.338-4.9 10.64.891 20.997 5.16 30.784 12.692a3 3 0 0 1-1.833 5.377zm165.712-40.589c-1.218 1.9-2.93 3.424-4.78 4.615a21.199 21.199 0 0 1-5.995 2.57c-4.192 1.089-8.652 1.126-13.021-.253a23.62 23.62 0 0 1-5.916-2.989c-1.789-1.303-3.435-2.823-4.75-4.605-2.672-3.505-4.218-7.954-3.9-12.32a2.243 2.243 0 0 1 4.425-.325l.022.1a18.23 18.23 0 0 0 4.438 8.439c1.095 1.143 2.287 2.195 3.634 3.02a18.144 18.144 0 0 0 4.246 2.043c2.86.962 6.246 1.106 9.455.623 3.223-.511 6.314-1.704 8.715-3.758l.086-.072a2.242 2.242 0 0 1 3.16.247c.655.768.7 1.856.181 2.665zm607.153 463.163a3 3 0 0 1-.2-5.993c13.599-.92 30.158-4.886 47.887-11.469 8.946-3.321 18.056-7.258 27.077-11.703a3 3 0 0 1 2.65 5.383c-9.202 4.534-18.502 8.552-27.639 11.945-18.263 6.78-35.403 10.871-49.569 11.83a3.573 3.573 0 0 1-.206.007zm41.34 51.203a3 3 0 0 1-1.315-5.699c13.039-6.346 44.515-25.514 56.825-37.79a3.001 3.001 0 0 1 4.238 4.247c-13.298 13.265-45.578 32.68-58.435 38.938a3.006 3.006 0 0 1-1.313.304zm2.218 42.114a3.002 3.002 0 0 1-1.355-5.679c7.775-3.924 27.138-14.38 39.01-26.707a3 3 0 0 1 4.321 4.162c-12.51 12.991-32.58 23.84-40.628 27.903a2.994 2.994 0 0 1-1.348.321zm-2.331 34.416a3 3 0 0 1-1.03-5.819c14.237-5.194 26.01-11.87 34.994-19.838a3 3 0 0 1 3.981 4.489c-9.55 8.47-21.97 15.53-36.918 20.985a2.97 2.97 0 0 1-1.027.183zm773.849 751.941c-.801 0-1.6-.318-2.19-.95-8.958-9.566-29.228-36.017-23.97-74.94 2.906-21.818 12.185-33.502 20.373-43.812 21.364-26.773 18.91-41.38 16.066-58.292-2.323-13.818-4.956-29.478 5.085-53.29 16.862-39.856 25.518-77.676 25.727-112.416.24-39.464-10.514-74.88-31.956-105.26a3 3 0 0 1 4.902-3.459c22.18 31.424 33.3 68.014 33.054 108.757-.214 35.534-9.03 74.13-26.2 114.714-9.362 22.202-6.99 36.314-4.695 49.96 2.953 17.568 5.742 34.162-17.29 63.024-8.076 10.17-16.432 20.692-19.12 40.873-4.913 36.379 14.03 61.1 22.403 70.04a3 3 0 0 1-2.19 5.05zm-605.224-90.552a3.001 3.001 0 0 1-1.425-5.642c.706-.397 31.678-18.086 36.868-50.108 5.915-36.425 8.98-49.187 33.998-75.165a3.001 3.001 0 0 1 4.322 4.162c-23.777 24.69-26.71 36.945-32.396 71.963-5.727 35.33-39.69 54.304-40.03 54.473a3.002 3.002 0 0 1-1.337.317zm38.404 59.407a3 3 0 0 1-3-3c0-1.465.449-36.217 39.433-63.792 18.337-12.919 32.96-13.944 47.105-14.936 35.467-2.56 44.704-14.447 55.401-28.21 8.724-11.224 18.61-23.945 43.61-32.852 95.155-33.803 146.166-83.11 160.537-155.174a3.005 3.005 0 0 1 3.528-2.356 3 3 0 0 1 2.355 3.53c-8.13 40.778-27.53 74.153-59.308 102.029-26.152 22.942-60.532 41.79-105.102 57.623-23.347 8.318-32.262 19.788-40.884 30.882-11.094 14.275-21.574 27.76-59.618 30.506l-.1.008c-13.323.934-27.098 1.9-44.064 13.851-36.474 25.8-36.893 57.552-36.893 58.891a3 3 0 0 1-3 3zm-912.561 29.644a3 3 0 0 1-.997-5.83c74.406-26.232 163.23-83.943 250.113-162.503 75.451-68.15 143.033-146.84 176.376-205.362a3 3 0 1 1 5.213 2.97c-33.637 59.04-101.675 138.296-177.565 206.843-87.457 79.08-177.002 137.22-252.14 163.71a2.992 2.992 0 0 1-1 .172z"/><path d="M1048.518 1362.402a3 3 0 0 1-2.997-3.169c4.498-79.997-11.05-259.098-44.733-346.757a3 3 0 1 1 5.6-2.153c33.962 88.381 49.65 268.737 45.123 349.246a3 3 0 0 1-2.993 2.833zm113.244 119.036a3.03 3.03 0 0 1-.81-.111c-37.605-10.527-69.114-18.522-96.327-24.442-25.464-5.542-48.467-9.582-74.584-13.103a3 3 0 1 1 .802-5.947c26.282 3.543 49.43 7.61 75.058 13.186 27.328 5.947 58.948 13.969 96.668 24.528a3 3 0 0 1-.807 5.889z"/></g></g></svg></g><g transform="translate(1322.3999999999999 634.8) rotate(0.0 164.4000000000001 164.39999999999998) scale(1.2228048644427096 1.2248364649610344)"><svg width="268.89" height="268.444" viewBox="0 0 268.89 268.444"><path d="M234.425 224.331c46.111-51.216 45.922-129.08-.378-180.107l-89.859 89.864z" fill="#00676c"/><path d="m223.842 33.924-82.3 82.305V0c30.425 1.606 59.528 13.513 82.3 33.924z" fill="#232323"/><path d="M127.274 137.301V.095C53.195 3.969-3.687 67.186.187 141.27c1.701 33.168 15.685 64.445 39.118 87.88 50.646 50.649 132.001 52.35 184.726 5.008l.094-.094z" fill="#d9c6f4"/></svg></g><g transform="translate(75.6 110.39999999999999) rotate(0.0 671.4 322.2) scale(1.2004376930998968 1.2008475255347815)"><svg width="1118.592" height="536.621" viewBox="0 0 1118.592 536.621"><path d="M3 227.52h806.084V3H3z" fill="#fff"/><path d="M809.084 230.519H3a3 3 0 0 1-3-3V3a3 3 0 0 1 3-3h806.084a3 3 0 0 1 3 3v224.52a3 3 0 0 1-3 2.999zM6 224.519h800.084V6H6z" fill="#232323"/><path d="M92.67 159.011 45.331 93.998c-.472-.661-.378-1.701.378-2.173.283-.189.567-.283.945-.283l27.969-.094c1.701 0 3.307.85 4.346 2.173l15.213 20.978c.756.945 2.079 1.228 3.024.472a.738.738 0 0 0 .378-.378l33.071-39.499c1.228-1.417 2.929-2.268 4.819-2.268l28.63.094c1.039 0 1.89.85 1.89 1.89 0 .472-.189.85-.472 1.228L96.167 159.01c-.756.945-2.173 1.039-3.118.283-.19.001-.285-.188-.379-.282z" fill="#d9c6f4"/><g fill="#232323"><path d="M1103.664 524.692a2.999 2.999 0 0 1-2.641-1.573L886.478 126.485h-76.953a3 3 0 1 1 0-6h78.741c1.102 0 2.115.604 2.639 1.572L1106.3 520.263a3 3 0 0 1-2.636 4.429z"/><circle cx="1103.661" cy="521.69" r="14.93"/><path d="M765.336 79.139H200.06a3 3 0 1 1 0-6h565.276a3 3 0 1 1 0 6zm-195.515 88H200.06a3 3 0 1 1 0-6h369.761a3 3 0 1 1 0 6z"/></g></svg></g><g transform="translate(1790.3999999999999 636.0) rotate(0.0 164.39999999999998 163.2) scale(1.2019960152808493 1.2018646576674106)"><svg width="273.545" height="271.578" viewBox="0 0 273.545 271.578"><path d="M273.545 136.072c0 .095 0 .095 0 0l-.189.094c-.567 71.816-56.599 130.875-128.221 135.222h-.094l-1.606.094V0c72.85 3.307 130.11 63.311 130.11 136.072z" fill="#d9c6f4"/><path d="M129.828 0v128.891H.094C3.874 59.721 58.961 4.252 128.127.094h.094z" fill="#232323"/><path d="M129.828 142.404v129.174C59.717 268.365 3.591 212.519 0 142.404z" fill="#00676c"/></svg></g><g transform="translate(861.6 636.0) rotate(0.0 164.99999999999994 164.39999999999998) scale(1.2079505106336246 1.2068225112038493)"><svg width="273.19" height="272.451" viewBox="0 0 273.19 272.451"><path d="M129.945 143.632H272.34c-4.158 75.123-68.41 132.765-143.528 128.607-75.12-4.157-132.758-68.414-128.6-143.537C4.086 58.87 60.117 3.307 129.945 0z" fill="#d9c6f4"/><path d="M273.19 129.458H144.118V.85c69.544 3.308 125.481 59.154 129.072 128.608z" fill="#00676c"/></svg></g><g transform="translate(1976.3999999999999 1512.0) rotate(-2.4348479964728926 440.4 249.0) scale(1.2005512067529642 1.2022306448108537)"><svg width="733.663" height="414.23" viewBox="0 0 733.663 414.23"><path d="m661.592 124.07-10.666 287.16-566.92-21.056-.455-.49L3 302.913c8.865.613 64.589 2.304 83.67 2.824l7.534-202.835z" fill="#fff"/><g fill="#232323"><path d="m650.927 414.231-.112-.002-566.92-21.057a2.997 2.997 0 0 1-2.087-.957L.801 304.953a3 3 0 0 1 2.406-5.034c8.17.565 57.78 2.101 80.575 2.736l7.423-199.865c.03-.795.374-1.546.957-2.088a3.033 3.033 0 0 1 2.153-.799l567.389 21.169a3 3 0 0 1 2.886 3.109l-10.666 287.16a3.002 3.002 0 0 1-2.997 2.89zM85.359 387.222l562.681 20.899 10.443-281.165L97.09 106.011l-7.422 199.837a3.001 3.001 0 0 1-3.08 2.888c-14.403-.393-57.761-1.69-76.378-2.466z"/><path d="M124.679 326.482a3 3 0 0 1-2.039-5.201l85.317-78.993a3.001 3.001 0 0 1 4.24.163l66.312 71.62 121.236-112.249a3 3 0 0 1 4.239.163l49.447 53.405L692.628 33.921a3 3 0 0 1 4.077 4.402l-241.4 223.507a3.001 3.001 0 0 1-4.24-.163l-49.447-53.405-121.235 112.249a3.001 3.001 0 0 1-4.24-.163l-66.312-71.62-83.116 76.955a2.986 2.986 0 0 1-2.036.799z"/><path d="M674.099 31.409 733.663 0l-35.878 56.99z"/></g></svg></g></svg>