<svg xmlns="http://www.w3.org/2000/svg" viewBox="0 0 2500 2200" width="2500" height="2200"><g transform="translate(697.0 248.0) rotate(0.0 406.0 296.0) scale(0.9987761302345033 0.9998868371316084)"><svg width="812.995" height="592.067" viewBox="0 0 812.995 592.067"><path d="M795.916 296.034C795.916 134.195 618.415 3 399.458 3S3 134.197 3 296.034s177.5 293.034 396.458 293.034c135.125 0 254.439-49.98 326.017-126.276 0 0 70.441-61.796 70.441-166.757z" fill="#fff"/><path d="M399.458 592.067c-106.534 0-206.728-30.69-282.121-86.415-36.747-27.161-65.609-58.809-85.785-94.067C10.615 374.999 0 336.122 0 296.034s10.615-78.965 31.552-115.551c20.176-35.257 49.038-66.906 85.785-94.067C192.73 30.69 292.924 0 399.458 0s206.728 30.689 282.121 86.415c36.747 27.16 65.609 58.809 85.785 94.067 20.937 36.586 31.552 75.464 31.552 115.552 0 54.923-19.396 97.917-35.666 124.313-17.106 27.752-34.002 43.104-35.683 44.599-36.084 38.426-84.551 70.371-140.167 92.383-57.419 22.726-122.408 34.738-187.942 34.738zm0-586.067c-105.26 0-204.186 30.272-278.555 85.241C46.806 146.008 6 218.738 6 296.034S46.807 446.06 120.903 500.827c74.369 54.968 173.295 85.241 278.555 85.241 129.146 0 250.204-46.852 323.83-125.329.065-.07.136-.138.208-.202.174-.153 17.589-15.608 34.764-43.529 15.81-25.702 34.656-67.554 34.656-120.974 0-77.297-40.807-150.027-114.903-204.794C603.644 36.272 504.719 6 399.458 6z" fill="#232323"/><path d="m655.235 516.418 151.461 68.739c2.262 1.027 4.34-1.736 2.726-3.624l-95.181-111.368" fill="#fff"/><path d="M807.672 588.372a5.354 5.354 0 0 1-2.216-.483L653.995 519.15a3 3 0 0 1 2.481-5.464l148.687 67.48-93.201-109.052a3 3 0 1 1 4.56-3.899l95.181 111.368a5.29 5.29 0 0 1 .208 6.657 5.291 5.291 0 0 1-4.238 2.131z" fill="#232323"/></svg></g><g transform="translate(871.0 663.0) rotate(0.0 751.0 632.5) scale(0.9997796757172688 0.9995859422658125)"><svg width="1502.331" height="1265.524" viewBox="0 0 1502.331 1265.524"><clipPath id="a"><path d="M763.769 787.642c-11.752-12.738-24.569-24.476-38.015-35.4-13.987-11.363-28.688 12.243-43.87 2.538a536.453 536.453 0 0 0-46.202-26.393c-14.885-7.553-30.125-14.427-45.71-20.41-13.729-5.271-42.036-13.362-42.036-13.362s-9.367 18.176-10.948 17.83c-87.299-19.094-258.81-7.709-383.354 13.602-25.45 4.394-62.517 14.727-76.553 18.906-62.754 18.682-104.598 60.402 20.606 48.649-111.185-4.826-108.299 36.209-72.833 35.8-22.588 6.234-9.096 21.563 30.56 23.403-9.914 3.679-16.353 14.716 14.411 19.826 32.4 5.416 99.55-8.687 166.495 1.84 108.85 17.066 208.363 49.061 345.695 55.946 110.397 5.535 167.602-15.327 197.124-124.634-4.846-6.275-9.998-12.317-15.37-18.14z"/></clipPath><clipPath id="b"><path d="M735.677 311.394c13.449 4.26 49.552-9.983 66.341-18.745 7.573-.423 15.055 6.952 27.363 23.976 41.958 58.085 70.239-94.574 70.239-94.574l-.664-5.363s-10.117-50.208-6.581-50.534l1.445-.092.992-.105c.561-.011 1.23-.045 1.768-.163 1.314-.176 2.497-.436 3.727-.481.454.013.884-.081 1.422-.2 4.588-.67 8.291-1.258 11.35-1.704.538-.118.86-.189 1.422-.2.538-.118.776-.058 1.314-.176.323-.071.776-.058 1.099-.129s.776-.058 1.099-.129c.538-.118 1.099-.129 1.637-.247.215-.047.538-.118.776-.058.992-.105 2.067-.341 2.927-.53 29.896-65.076-16.326-132.821-103.206-134.704 0 0-10.275-3.154-10.359-3.023-14.928-.215-93.297 28.95-104.994 60.379a206.081 206.081 0 0 0-9.951 40.403c-.655 4.202-.988 8.334-1.296 12.573l-.084.131c-.456 5.624-.541 11.392-.758 17.077-.117 4.084-.474 8.108-.698 12.216-.419 5.278-.817 11.678-2.644 16.702-1.851 4.916-5.992 8.644-9.99 12.002-8.855 6.905 2.967 17.611 11.44 20.259 3.749 20.145 11.857 84.764 44.865 95.437z"/></clipPath><clipPath id="c"><path d="M700.974 1184.805c-4.553.583-6.964.433-10.038.109-26.159-2.76-24.831-26.108-12.205-30.294-23.83-.456-55.104-19.376 4.087-41.797-56.664 10.041-57.539-15.044-29.932-32.727 68.417-34.394 179.955-105.571 202.75-118.59 64.339-36.748 107.273-95.586 181.882-142.293 3.294-1.922 200.526-72.451 236.487 41.098 12.001 37.893 1.563 84.247-43.3 122.84-86.71 74.592-362.58 190.416-479.646 216.783-40.549 9.133-61.495-3.151-50.085-15.128z"/></clipPath><path d="M827.64 384.498c-24.608-7.771-81.885 22.201-124.774 68.999-64.508 70.388-116.984 169.477-116.984 169.477l-48.094 88.67-1.366.68c-87.471-18.923-258.509-7.544-382.787 13.721-25.45 4.394-62.517 14.727-76.553 18.906-51.625 15.369-89.093 46.327-31.056 50.282-57.232 7.671-49.883 34.499-21.171 34.167-22.588 6.234-9.097 21.563 30.56 23.403-9.915 3.679-16.354 14.716 14.411 19.826 32.4 5.416 99.55-8.687 166.495 1.84 108.851 17.066 208.364 49.061 345.695 55.946 87.465 4.385 141.537-7.81 174.911-67.422 23.054-23.869 70.791-84.975 91.152-142.345 49.352-139.047 24.753-321.88-20.438-336.15z" fill="#fff"/><path d="M612.132 934.238c-9.705 0-19.786-.301-30.267-.826-91.108-4.568-165.313-20.095-237.073-35.111-37.124-7.768-72.189-15.106-108.937-20.867-38.798-6.1-78.244-3.828-109.939-2.002-22.957 1.322-42.785 2.465-56.586.157-16.016-2.66-24.455-7.323-25.08-13.857-.22-2.296.623-4.574 2.315-6.588-20.745-2.203-34.691-8.565-35.597-16.649-.206-1.845.176-4.638 3.247-7.298C5.939 829.055.482 824.222.027 817.966c-.551-7.595 6.961-16.697 28.235-22.352-9.121-2.461-13.903-6.431-14.521-11.988-1.62-14.583 30.206-31.941 62.482-41.55 15.793-4.702 52.188-14.72 76.898-18.987 123.488-21.13 294.134-32.642 382.624-13.976l47.497-87.569c.512-.968 53.382-100.211 117.409-170.074 42.464-46.335 101.035-78.313 127.889-69.833 9.27 2.927 17.712 11.927 25.092 26.751 14.694 29.514 23.877 80.404 24.564 136.131.771 62.465-8.923 125.372-27.294 177.132-19.839 55.898-65.504 116.088-91.553 143.146-30.886 54.877-79.719 69.438-147.221 69.439zm-432.947-66.781c18.638 0 38.163.992 57.602 4.049 36.896 5.785 72.034 13.138 109.234 20.922 71.535 14.969 145.505 30.447 236.146 34.991 81.215 4.071 138.349-5.53 172.142-65.891.127-.225.281-.433.46-.619 24.661-25.533 71.033-86.463 90.483-141.264 38.42-108.249 32.424-249.508 3.013-308.583-6.533-13.123-13.978-21.319-21.527-23.703-21.717-6.856-77.015 19.453-121.658 68.165-63.499 69.286-116.022 167.867-116.545 168.854l-48.108 88.697a2.995 2.995 0 0 1-1.3 1.255l-1.366.68a2.998 2.998 0 0 1-1.972.247c-87.358-18.899-258.119-7.391-381.646 13.746-24.429 4.218-60.528 14.158-76.202 18.824-35.979 10.711-59.156 26.815-58.231 35.137.196 1.766 2.688 7.653 26.523 9.277a3 3 0 0 1 .194 5.966c-28.452 3.813-40.893 12.69-40.412 19.325.319 4.401 6.979 9.009 18.808 8.869h.035a3.001 3.001 0 0 1 .797 5.892c-6.259 1.727-8.89 4.024-8.721 5.534.4 3.571 12.14 10.751 38.622 11.98a2.999 2.999 0 0 1 .905 5.809c-3.665 1.359-6.404 3.795-6.236 5.544.051.538 1.052 5.347 20.094 8.51 13.142 2.197 32.656 1.073 55.255-.229 16.215-.934 34.444-1.984 53.613-1.984z" fill="#232323"/><g clip-path="url(#a)" fill="#232323"><path d="M26.095 800.834a3 3 0 0 1-.369-5.977l70.756-8.872a3.008 3.008 0 0 1 3.35 2.603 3 3 0 0 1-2.604 3.35l-70.756 8.872a2.994 2.994 0 0 1-.377.024zM10.517 833.14a3 3 0 0 1-.138-5.997c.756-.035 75.922-3.587 104.532-8.369a3 3 0 1 1 .988 5.917c-28.962 4.841-102.14 8.3-105.241 8.445a3.363 3.363 0 0 1-.142.003zm28.569 22.72c-1.314 0-2.147-.005-2.408-.008a3.001 3.001 0 0 1 .023-6h.023c.646.006 64.596.4 87.008-8.149a3 3 0 0 1 2.139 5.606c-21.178 8.079-74.611 8.551-86.785 8.551z"/></g><path d="M901.133 228.811c-3.669-21.309-12.13-62.332-8.865-62.633l1.445-.092c4.627-.312 26.243-3.682 26.605-3.59.991-.105 2.066-.341 2.928-.53C952.603 49.036 857.063 20.684 809.68 24.239c-33.796 2.536-93.297 28.95-104.994 60.379-5.872 16.433-9.884 34.263-11.248 52.975l-.083.131c-.864 10.669-.614 36.409-4.101 45.994-1.852 4.916-5.993 8.644-9.99 12.002-8.854 6.905 2.967 17.611 11.44 20.259 3.856 20.121 11.964 84.74 44.972 95.414 9.836 3.116 31.433-4.068 49.315-11.117 10.043 36.814-4.209 117.39-4.209 117.39s52.436 48.187 169.374-4.719c0 0-40.761-147.899-49.024-184.137z" fill="#fff"/><g fill="#232323"><path d="M849.302 440.702c-11.048 0-20.469-1.083-28.26-2.61-28.232-5.533-41.729-17.7-42.289-18.215a2.998 2.998 0 0 1-.924-2.731c.137-.776 13.217-75.749 5.065-112.831-24.464 9.416-39.798 12.577-48.123 9.94-31.658-10.237-41.217-64.801-45.811-91.023-.322-1.838-.616-3.517-.89-5.01-6.553-2.639-13.641-8.697-14.778-14.964-.683-3.757.767-7.259 4.083-9.866 3.73-3.136 7.497-6.549 9.071-10.729 2.343-6.44 2.921-21.962 3.343-33.295.177-4.747.329-8.846.575-11.884.018-.216.059-.429.121-.635 1.361-18.012 5.188-35.922 11.375-53.239 12.063-32.413 72.639-59.739 107.595-62.362 24.004-1.8 72.326 4.399 101.263 39.056 21.279 25.487 26.472 59.945 15.431 102.417a3 3 0 0 1-2.261 2.176c-.938.206-2.1.461-3.254.583a2.813 2.813 0 0 1-.26.016c-.714.072-4.11.565-7.398 1.043-6.756.982-15.065 2.189-18.479 2.494-.061 6.507 4.121 29.237 6.707 43.293 1.069 5.809 2.079 11.298 2.872 15.898 8.195 35.895 48.566 182.451 48.974 183.928a3 3 0 0 1-1.656 3.53c-42.614 19.28-76.661 25.02-102.092 25.02zm-65.266-24.248c3.803 2.933 16.51 11.595 38.64 15.843 24.477 4.699 65.737 4.792 123.906-21.033-5.381-19.564-40.779-148.479-48.374-181.785a2.756 2.756 0 0 1-.031-.158c-.789-4.582-1.802-10.084-2.873-15.909-6.87-37.34-7.889-46.015-5.739-48.851.602-.794 1.464-1.281 2.428-1.369l1.53-.099c2.707-.183 11.888-1.517 18.591-2.491 5.001-.727 6.96-1.011 7.89-1.082v-.006c.255-.027.526-.067.802-.113 9.917-39.654 4.978-71.693-14.692-95.25-23.827-28.538-66.582-39.142-96.207-36.919-16.947 1.271-39.788 8.558-59.608 19.016-22.571 11.909-37.771 25.908-42.799 39.418-6.053 16.939-9.78 34.497-11.066 52.147a3.01 3.01 0 0 1-.126.667c-.213 2.862-.355 6.703-.52 11.111-.462 12.385-1.035 27.798-3.712 35.155-2.103 5.582-6.526 9.617-10.879 13.273l-.085.069c-2.064 1.61-2.107 3.035-1.914 4.097.765 4.213 7.296 9.336 12.403 10.933a3 3 0 0 1 2.052 2.299 464.5 464.5 0 0 1 1.219 6.78c4.049 23.109 13.529 77.225 41.73 86.344 7.079 2.242 22.994-1.476 47.291-11.054a2.998 2.998 0 0 1 3.995 2.002c9.402 34.467-1.78 104.71-3.851 116.966zM919.61 165.411zm-.015-.004.008.002-.008-.002zm-.013-.003.01.002-.01-.002z"/><path d="M783.28 301.183c4.065 9.134 5.547 24.986 5.596 36.661 26.954-8.753 56.39-37.784 52.151-44.249-3.907-6.101-17.307-4.814-24.342-3.388-14.031 2.748-33.405 10.976-33.405 10.976z"/><path d="M788.876 340.845a3.003 3.003 0 0 1-3-2.987c-.048-11.45-1.476-26.776-5.338-35.454a3 3 0 0 1 1.568-3.981c.803-.341 19.825-8.382 34.001-11.159 5.06-1.025 22.04-3.724 27.445 4.714 1.076 1.641 1.177 3.776.282 6.32-3.896 11.08-29.653 34.484-54.032 42.401a3.013 3.013 0 0 1-.927.147zm-1.724-38.007c2.969 8.489 4.325 20.572 4.647 30.778 25.103-9.775 47.193-33.822 46.643-38.488-2.619-3.783-12.76-3.683-21.162-1.98-10.538 2.064-24.366 7.374-30.128 9.69zm51.357-7.609.008.012-.008-.012zm-.078-.177zm-94.156-155.436c12.233 8.473 16.033 22.181 11.362 27.604s-18.207 2.309-28.643-8.25c-10.722-10.834-15.984-22.981-11.362-27.604 4.836-4.67 16.565-.031 28.643 8.25zm-28.383 109.275c5.708 7.203 17.893 8.891 26.958 1.494 7.719-6.299 8.511-18.984 3.624-17.778-.715.119-4.972 2.998-9.696 5.872-10.179 6.193-19.896 5.726-21.088 7.7-.364.81-.445 1.821.203 2.712zm28.834-63.604c-5.858-2.546-19.96-8.241-32.023-17.992-1.645-1.33-4.082-1.133-5.495.644l-.108.024c-3.438 4.363-7.841 12.545 1.27 18.097 11.162 6.679 31.405 6.967 36.766 2.633a1.887 1.887 0 0 0 .293-2.77l-.024-.108c-.108.024-.393-.252-.679-.527z"/></g><path d="M852.966 169.964s21.288-27.064 50.248-21.476c27.313 5.273 28.884 46.593-14.002 75.629-8.792 5.652-18.452 9.916-28.598 12.483l-7.649-66.636z" fill="#fff"/><path d="M1499.938 659.942c-24.047-175.039-146.632-146.314-156.286-247.45-15.167-158.883-169.213-203.312-264.528-198.467-31.676 1.61-54.872-2.693-72.545-10.837.044-.048.098-.103.131-.143-33.619-26.637-16.876-84.636-43.984-130.836-76.337-130.101-253.103-62.353-266.06 30.534 0 0 45.621 58.15 154.309 70.01 11.597-22.107 38.918-34.339 56.725-24.757 0 0 15.706 7.434 14.306 27.846-1.654 24.112-23.387 41.02-23.387 41.02l33.72 144.398s8.401 492.714 57.31 515.878c236.558 139.423 542.835 19.713 510.288-217.195z" fill="#232323"/><g clip-path="url(#b)"><path d="M885.937 232.025a3 3 0 0 1-1.309-5.701c1.857-.905 24.762-14.973 30.144-26.167a3 3 0 0 1 5.408 2.6c-6.274 13.048-30.524 27.798-32.937 28.967a2.99 2.99 0 0 1-1.306.301z" fill="#232323"/></g><path d="M858.853 212.594a3 3 0 0 1-2.774-4.143c6.778-16.468 16.961-33.616 41.086-35.932a3 3 0 0 1 .574 5.973c-20.899 2.006-29.707 16.682-36.111 32.243a3.003 3.003 0 0 1-2.775 1.859z" fill="#232323"/><path d="M1313.037 744.896c-7.737-25.388-19.024-52.972-31.905-78.439 12.984-21.71 16.645-49.213 5.757-84.069-23.811-67.712-235.324-274.862-353.502-222.096l-1.046.967c-27.078 27.536-111.029 81.728-138.391 63.244-11.733-7.927-8.296-41.914-8.296-41.914-2.066.575-25.886 2.029-64.945 20.87-20.78 10.024-126.058 59.607-175.955 188.915-10.382 26.906-9.521 61.481 8.412 69.677l5.15 2.353-22.937 47.693s47.311 11.144 85.406 36.667c6.883 4.611 19.317 14.114 30.214 22.61l-49.534 251.003s205.573 76.011 553.371 1.266c-4.988-19.236-25.658-144.78-41.819-244.806 105.632-44.036 200.021-33.943 200.021-33.943z" fill="#fff"/><path d="M859.549 1059.539c-38.539 0-76.063-1.841-112.126-5.513-94.157-9.588-146.48-28.642-146.997-28.833a3 3 0 0 1-1.903-3.395L647.7 772.607c-13.325-10.367-23.189-17.736-28.583-21.349-37.18-24.91-83.956-36.129-84.425-36.24a3.002 3.002 0 0 1-2.015-4.22l21.61-44.936-2.367-1.082c-9.324-4.261-15.208-15.017-16.565-30.285-1.199-13.476 1.207-29.222 6.602-43.201 21.051-54.554 54.229-101.464 98.615-139.426 35.148-30.063 66.382-45.111 78.14-50.776l.694-.335c22.906-11.05 44.439-18.063 64.001-20.843.643-.091 1.307-.186 1.488-.227a2.96 2.96 0 0 1 2.714.602c.758.638 1.129 1.616 1.03 2.601-.902 8.96-1.403 33.456 6.991 39.127 10.795 7.292 34.93 1.997 66.221-14.531 29.771-15.724 56.3-36.076 68.352-48.33.033-.034.067-.067.102-.099l1.046-.967c.24-.222.516-.403.814-.537 32.197-14.377 72.991-11.14 121.241 9.622 64.568 27.785 122.652 78.222 151.528 105.815 42.694 40.796 75.975 83.347 84.785 108.403.012.033.022.067.033.101 10.197 32.644 8.444 61.254-5.207 85.071 12.747 25.404 23.862 52.849 31.362 77.457a3 3 0 0 1-3.189 3.857c-.931-.099-93.586-9.349-196.362 32.824 16.263 100.613 36.481 223.286 41.384 242.188a3.002 3.002 0 0 1-2.275 3.686c-79.488 17.083-158.107 27.647-233.672 31.399a1255.98 1255.98 0 0 1-62.245 1.562zm-254.635-39.14c11.212 3.766 61.187 19.339 143.398 27.687 85.809 8.713 225.195 11.095 402.894-26.732-6.021-26.854-25.505-145.198-41.151-242.036a3 3 0 0 1 1.808-3.247c92.162-38.421 176.873-35.806 196.995-34.508-7.51-23.663-18.225-49.674-30.402-73.751a2.997 2.997 0 0 1 .103-2.894c13.491-22.557 15.336-50.006 5.483-81.583-8.548-24.24-41.218-65.839-83.253-106.006-28.584-27.314-86.049-77.228-149.754-104.641-46.42-19.974-85.437-23.288-115.977-9.853l-.627.579c-28.061 28.497-112.892 83.347-142.16 63.576-10.755-7.266-10.492-31.126-9.903-40.854-18.45 2.869-38.743 9.601-60.354 20.027l-.697.336c-80.496 38.782-142.205 105.178-173.762 186.957-9.733 25.224-9.311 58.478 6.86 65.869l5.149 2.353a3.003 3.003 0 0 1 1.456 4.029l-21.353 44.4c11.858 3.189 50.751 14.702 82.789 36.167 5.787 3.877 16.012 11.527 30.389 22.737a3.003 3.003 0 0 1 1.099 2.947L604.915 1020.4z" fill="#232323"/><path d="M816.483 489.15c-1.657 0-3.093-.254-4.309-.716-12.109-4.595-16.536-30.549-18.144-47.527-1.843 4.654-4.12 10.036-6.701 15.366-9.856 20.359-18.762 28.978-27.204 26.349-1.816-.565-4.349-2.034-6.104-5.824-6.415-13.859 1.31-50.716 19.679-93.898a3 3 0 0 1 5.522 2.349c-20.06 47.155-24.302 79.205-19.755 89.029.666 1.439 1.487 2.319 2.439 2.615.38.118.771.176 1.171.176 9.151.003 23.223-30.122 30.202-51.589a3 3 0 0 1 5.852.855c.477 19.795 5.016 52.635 15.171 56.489 4.475 1.699 15.828-1.835 33.1-17.379 21.574-19.415 47.052-52.931 73.68-96.924a3 3 0 0 1 5.133 3.107c-56.421 93.218-93.55 117.519-109.732 117.521zm-151.91 228.184a2.996 2.996 0 0 1-2.377-1.168c-22.857-29.628-104.903-49.126-105.729-49.32a3 3 0 0 1 1.367-5.842c3.458.809 84.955 20.183 109.112 51.497a2.998 2.998 0 0 1-2.373 4.833z" fill="#232323"/><path d="M229.002 715.164c-66.687.551-152.257 31.669-83.127 46.213 27.554 5.802 69.748 7.008 117.817 42.233" fill="#fff"/><path d="M263.689 806.61a2.99 2.99 0 0 1-1.771-.58c-39.065-28.627-74.712-34.54-100.739-38.857-5.671-.941-11.028-1.829-15.922-2.86-19.616-4.127-28.754-9.955-27.936-17.817 1.183-11.364 25.342-19.883 39.638-23.949 22.872-6.506 50.471-10.39 73.827-10.39a3 3 0 1 1 0 6c-22.833 0-49.817 3.798-72.186 10.161-23.744 6.754-34.845 14.309-35.312 18.799-.317 3.048 5.611 7.624 23.203 11.325 4.769 1.004 10.063 1.882 15.668 2.812 26.623 4.416 63.086 10.464 103.305 39.936a3 3 0 0 1-1.776 5.42z" fill="#232323"/><path d="M717.742 523.508 651 771.375" fill="#fff"/><path d="M651.002 774.376a3 3 0 0 1-2.898-3.781l66.742-247.868a3 3 0 0 1 5.793 1.56l-66.742 247.868a3 3 0 0 1-2.895 2.221z" fill="#232323"/><rect fill="#232323" height="456.816" rx="5" transform="matrix(.76933266 -.63884839 .63884839 .76933266 -440.925 727.284)" width="368.231" x="602.543" y="745.813"/><rect fill="#232323" height="90.41" rx="5" transform="matrix(.76933266 -.63884839 .63884839 .76933266 -391.664 576.976)" width="61.585" x="572.355" y="785.647"/><rect fill="#d9c6f4" height="456.816" rx="5" transform="matrix(.76933266 -.63884839 .63884839 .76933266 -414.006 743.103)" width="368.231" x="637.908" y="716.446"/><rect fill="#fff" height="142.014" rx="5" transform="matrix(.76933266 -.63884839 .63884839 .76933266 -385.128 698.904)" width="199.94" x="675.287" y="811.758"/><path d="m709.776 901.046 102.582-83.897" fill="#fff"/><path d="M709.778 904.046a3 3 0 0 1-1.901-5.322l102.582-83.897a3 3 0 0 1 3.799 4.644l-102.582 83.897a2.987 2.987 0 0 1-1.897.678z" fill="#232323"/><path d="m1322.17 787.988-.102.008c.004-.514-.015-1.03-.079-1.549-11.804-94.642-85.599-194.542-147.501-267.593-145.435-171.508-215.491-171.369-255.235-113.239-36.027 52.694 24.622 198.836 72.984 297.256 34.942 71.107 42.878 78.994 56.888 109.48-67.266 36.526-130.946 108.306-197.383 146.25-22.792 13.023-79.052 27.847-101.342 27.988-89.638-1.884-116.693 16.399-27.358 43.7 28.078 8.579 1.035 21.803-69.733 51.051-19.833 8.197-27.152 41.526 29.506 31.481-55.981 20.195-30.015 43.746-4.084 41.799-18.483 8.528-5.44 34.048 22.243 30.186-8.522 8.522-2.386 27.27 48.596 11.126 129.152-40.899 392.522-145.027 476.074-209.187 104.763-80.448 97.053-173.661 96.525-198.755z" fill="#fff"/><path d="M716.547 1205.23c-13.451 0-18.413-4.798-20.185-7.713-1.715-2.822-1.998-6.162-.968-9.311h-.059c-14.819 0-24.899-8.071-27.542-17.077-1.491-5.08-.55-9.898 2.454-13.725-11.922-1.476-21.694-7.748-23.431-15.868-1.107-5.184.333-14.278 17.621-23.865-21.417.099-26.77-8.853-28.098-13.407-2.749-9.428 4.349-20.956 15.822-25.697 26.224-10.838 46.461-19.485 59.986-26.456 17.643-9.094 18.861-12.993 18.814-13.972-.011-.238-.354-2.402-8.799-4.982-19.211-5.871-33.763-11.543-43.25-16.857-10.101-5.658-14.595-11.009-13.737-16.359 2.394-14.947 47.696-17.143 85.286-16.352 20.987-.134 77.211-14.692 99.79-27.594 32.046-18.302 64.136-45.11 95.169-71.035 32.363-27.036 65.803-54.971 99.803-73.89-5.665-12.112-10.392-20.649-16.778-32.181-8.233-14.869-19.51-35.234-38.902-74.696-53.046-107.951-108.73-247.674-72.769-300.272 15.832-23.156 34.572-34.985 57.29-36.163 49.152-2.548 115.443 46.242 202.71 149.155 39.273 46.346 69.635 87.591 92.819 126.092 31.405 52.153 50.034 100.289 55.37 143.069.044.348.073.708.089 1.088.07.245.109.501.114.761.023 1.092.06 2.314.101 3.66.888 29.602 3.59 119.682-97.798 197.538-47.562 36.523-146.755 81.989-221.594 113.699-85.634 36.285-185.885 73.954-255.402 95.968-15.017 4.755-25.963 6.44-33.929 6.44zm-15.571-23.426a3 3 0 0 1 2.121 5.122c-1.765 1.764-3.243 4.781-1.606 7.475 3.2 5.265 17.477 8.074 47.176-1.331 69.354-21.962 169.396-59.555 254.872-95.773 105.334-44.632 183.563-84.739 220.28-112.933 98.952-75.986 96.319-163.757 95.454-192.599-.031-1.051-.061-2.027-.083-2.927a3.016 3.016 0 0 1-.12-.864 8.632 8.632 0 0 0-.057-1.157c-9.13-73.199-57.152-160.216-146.813-266.023-44.844-52.884-84.809-91.958-118.785-116.137-30.422-21.65-57.03-32.048-79.037-30.906-20.722 1.074-37.943 12.051-52.647 33.558-15.48 22.642-13.717 66.017 5.242 128.922 13.974 46.367 36.839 101.988 67.958 165.318 19.327 39.331 30.563 59.621 38.767 74.436 6.886 12.434 11.86 21.417 18.154 35.114a2.999 2.999 0 0 1-1.294 3.889c-34.325 18.638-68.366 47.077-101.287 74.578-31.234 26.093-63.532 53.074-96.04 71.64-23.694 13.539-80.614 28.242-102.81 28.383-61.133-1.284-78.602 6.831-79.318 11.302-.162 1.014-.06 10.37 52.817 26.529 5.463 1.669 12.759 4.567 13.038 10.434.487 10.203-20.173 20.499-82.503 46.258-8.434 3.486-14.206 12.118-12.354 18.473 2.5 8.578 17.524 11.299 40.191 7.281a3 3 0 0 1 1.541 5.776c-21.169 7.637-32.813 16.848-31.147 24.64 1.488 6.965 13.539 12.268 25.821 11.345a3.001 3.001 0 0 1 1.482 5.716c-5.59 2.579-7.937 6.988-6.438 12.096 2.209 7.527 12.425 14.429 27.01 12.394.139-.019.277-.029.415-.029z" fill="#232323"/><g clip-path="url(#c)" fill="#232323"><path d="M674.615 1158.075a3.001 3.001 0 0 1-.437-5.968c33.12-4.917 53.942-12.743 67.721-17.922a3 3 0 0 1 2.111 5.617c-14.017 5.268-35.199 13.23-68.951 18.241a3.046 3.046 0 0 1-.444.033zm-4.13-40.506a3 3 0 0 1-.382-5.975c27.494-3.569 44.844-9.63 56.324-13.642a3 3 0 1 1 1.978 5.665c-11.715 4.093-29.418 10.279-57.531 13.928a3.027 3.027 0 0 1-.39.025zm22.538 71.753a3 3 0 0 1-.517-5.955c30.775-5.43 50.04-13.572 62.787-18.961a3 3 0 1 1 2.336 5.526c-12.996 5.494-32.637 13.796-64.08 19.343a3.038 3.038 0 0 1-.525.046z"/></g><path d="M1281.13 666.456c12.99-21.71 16.65-49.21 5.761-84.07-23.811-67.71-230.891-273.9-349.07-221.14-3.441 1.383-15.14 12.332-18.99 16.3-74.984 103.17 53.032 330.597 130.221 434.65 128.618-82.208 263.531-67.184 263.989-67.3-7.739-25.39-19.029-52.97-31.91-78.44z" fill="#fff"/><path d="M1049.053 815.196c-.92 0-1.825-.423-2.411-1.213-18.499-24.937-82.007-114.38-122.561-218.353-17.672-45.307-27.895-86.039-30.385-121.065-2.902-40.823 4.737-74.059 22.707-98.783.083-.115.175-.224.273-.325 1.767-1.82 15.264-15.012 19.963-16.969 32.051-14.291 72.321-11.199 119.696 9.188 63.802 27.456 121.145 77.798 149.647 105.363 42.008 40.625 74.877 83.156 83.737 108.353.012.033.022.067.033.101 10.199 32.647 8.444 61.258-5.211 85.072 12.754 25.42 23.871 52.866 31.367 77.457a3.005 3.005 0 0 1-2.133 3.783c-.503.128-.767.106-1.651.032-23.164-1.929-144.65-7.772-261.46 66.887a2.987 2.987 0 0 1-1.613.472zM921.132 379.482c-17.026 23.533-24.243 55.379-21.451 94.657 2.447 34.424 12.537 74.565 29.99 119.31 39.149 100.372 99.869 187.16 120.133 214.716 112.387-70.771 228.476-68.619 259.062-66.588-7.507-23.652-18.227-49.671-30.412-73.767a2.997 2.997 0 0 1 .103-2.894c13.495-22.554 15.341-50.004 5.487-81.584-8.601-24.391-40.869-65.98-82.23-105.98-28.208-27.279-84.925-77.086-147.849-104.164-45.792-19.706-84.456-22.802-114.921-9.202-.034.015-.068.03-.104.044-2.432.977-12.725 10.241-17.808 15.453z" fill="#232323"/><path d="M1013.944 761.875a3 3 0 0 1-2.173-5.067c32.022-33.664 163.968-105.218 274.349-90.962a3 3 0 1 1-.769 5.951c-59.827-7.728-122.11 10.596-163.828 27.327-51.766 20.762-90.926 46.599-105.403 61.819-.59.62-1.382.932-2.174.932z" fill="#232323"/><circle cx="1249.869" cy="706.204" fill="#232323" r="3.785"/><path d="M1249.865 712.989c-3.615 0-6.628-2.865-6.775-6.509a6.742 6.742 0 0 1 1.79-4.875 6.741 6.741 0 0 1 4.713-2.181c3.735-.153 6.903 2.765 7.055 6.504a6.742 6.742 0 0 1-1.79 4.875 6.741 6.741 0 0 1-4.992 2.187zm.004-7.57h-.032c-.269.011-.444.143-.545.252s-.219.295-.208.564c.019.433.41.771.816.753.269-.011.444-.143.545-.252s.219-.295.208-.564a.786.786 0 0 0-.784-.753zm-199.957 109.227a2.992 2.992 0 0 1-2.401-1.2c-54.919-73.188-103.465-160.788-129.86-234.33-16.258-45.296-24.565-85.663-24.692-119.981-.146-39.344 10.508-70.745 31.663-93.33 4.124-4.425 12.121-10.244 20.677-13.257a3 3 0 1 1 1.992 5.659c-7.554 2.66-14.773 7.926-18.285 11.694-20.079 21.436-30.187 51.45-30.047 89.212.125 33.633 8.313 73.326 24.34 117.977 26.204 73.009 74.433 160.02 129.012 232.755a3 3 0 0 1-2.398 4.801z" fill="#232323"/></svg></g><g transform="translate(130.0 541.0) rotate(0.0 530.5 589.5) scale(0.999238092726658 0.9994379750827143)"><svg width="1061.809" height="1179.663" viewBox="0 0 1061.809 1179.663"><clipPath id="d"><path d="M514.159 56.239c-7.247-5.606-17.711-9.76-29.303-10.11 0 0-5.359-1.337-17.99 2.627-6.826-53.964-77.554-62.818-93.606-24.59-37.03-40.165-95.486-4.818-99.262 37.098a45.772 45.772 0 0 0 1.214 15.578c1.838 7.254 4.054 18.71 5.562 31.599.975 13.581-.166 28.52-6.462 42.45 2.173 1.48 4.468 3.545 6.834 6.046a94.234 94.234 0 0 1-.452 2.747 66.66 66.66 0 0 0-7.072-2.631c-21.79-6.75-47.082 4.905-54.215 26.304-10.779 32.345 13.417 68.275 42.038 79.63 4.139 1.642 15.148 2.573 15.148 2.573l-23.3 50.918s111.723 61.549 154.553 31.388c17.222 2.13 38.837 8.319 70.005-2.645 16.745-5.89 26.464-20.74 27.455-35.624 2.317-34.736-32.966-36.89-29.837-80.024 4.444-2.772 12.398-9.461 13.007-15.76.711-7.348-8.237-6.575-15.397-18.876-4.071-7.011-4.37-23.452-3.856-36.315.388-9.729 1.224-17.404 1.224-17.404 66.324 4.981 72.391-62.79 43.712-84.976z"/></clipPath><clipPath id="e"><path d="M1061.624 990.3c-1.3 19.502-35.438 22.831-46.088 14.117-2.682 11.724-20.888 23.545-36.735 20.355-2.264 12.239-14.097 28.484-36.22 27.146-29.686 31.153-90.422 26.04-106.61-3.048a31.37 31.37 0 0 1-2.129-4.643c-.013-.039-.032-.084-.045-.122-66.698.386-205.425 72.524-343.27 69.334-43.976-1.023-87.496-11.274-127.922-36.548a123.45 123.45 0 0 1-8.367-5.692c-34.162-25.455 6.839-134.845 80.769-184.452 15.956-10.707 110.089-40.491 127.221-41.127l6.463 16.245s11.656-1.059 15.492-1.747c93.39-16.733 251.963 3.369 251.963 3.369l13-3.527s11.736 1.193 16.361 1.944c99.918 16.239 201.22 51.846 196.116 128.398z"/></clipPath><clipPath id="f"><path d="M565.276 838.279s-11.097-7.978-15.322-9.572c-69.621-26.271-193.14-31.812-297.315-14.124-44.837 7.612-76.054 14.43-102.991 35.402-3.894 3.032-11.331 14.695-11.437 14.7-9.945.385-4.275 1.935-4.112-1.996 2.103-50.599 17.304-408.592 157.619-428.641 79.186-11.314 204.997 82.211 268.599 388.721.588 2.836 4.96 15.51 4.96 15.51z"/></clipPath><path d="M514.159 56.239c-10.873-8.411-28.973-13.604-47.293-7.484-7.136-55.718-77.33-63.35-93.606-24.59-41.568-45.086-110.135 4.978-98.048 52.675 4.437 17.51 11.088 59.476 4.618 87.088 21.545 14.67 49.314 72.967 49.314 72.967s99.126-98.848 141.303-95.681c66.324 4.981 72.391-62.79 43.711-84.976z" fill="#232323"/><path d="M475.47 229.57c4.444-2.772 12.398-9.461 13.007-15.76.711-7.348-8.237-6.575-15.397-18.876-4.071-7.011-4.37-23.453-3.856-36.315.388-9.729 1.224-17.404 1.224-17.404s-57.437-10.525-85.235 7.064c-12.297 7.776-20.653 23.694-27.922 37.763-11.316 21.908-19.964 39.335-36.643 14.603-14.752-21.878-24.647-36.664-47.025-43.595-21.79-6.75-47.082 4.905-54.215 26.304-12.502 37.515 20.994 82.841 56.472 81.687l.713.515c-38.149 85.873-68.387 141.083-68.387 141.083 115.567 47.061 195.499 10.605 195.499 10.605-.949-7.183-1.254-14.929-1.137-22.781.188-12.539 1.477-25.347 3.035-36.538.5-3.592 1.028-7.018 1.555-10.216.23.05.458.106.688.154 19.732 4.142 46.659 6.569 70.005-2.645 16.512-6.516 26.463-20.74 27.455-35.624 2.317-34.736-32.966-36.89-29.837-80.024z" fill="#fff"/><g fill="#232323"><path d="M325.471 433.683c-30.798 0-71.656-5.232-118.397-24.266a3.003 3.003 0 0 1-1.499-4.22c.297-.543 29.751-54.504 66.646-137.198-16.047-.85-32.225-10.375-43.911-26.045-13.674-18.333-18.065-40.594-11.748-59.549 7.562-22.686 34.099-35.608 57.948-28.221 23.293 7.214 33.841 22.857 48.438 44.507l.187.276c4.953 7.345 9.277 10.962 12.713 10.76 6.017-.351 12.021-11.98 18.379-24.291l.398-.771c7.04-13.627 15.802-30.587 28.983-38.922 28.463-18.009 84.986-7.918 87.38-7.48a3 3 0 0 1 2.441 3.276c-.009.076-.831 7.697-1.209 17.199-.693 17.342.533 29.662 3.453 34.689 3.161 5.431 6.713 8.068 9.567 10.187 3.319 2.464 6.751 5.012 6.222 10.484-.673 6.956-8.02 13.681-13.093 17.156-1.081 20.624 7.305 31.14 15.42 41.316 7.709 9.667 15.681 19.663 14.51 37.223-1.123 16.871-12.368 31.514-29.347 38.215-23.406 9.237-50.195 7.038-69.332 3.276a402.536 402.536 0 0 0-1.047 7.054c-1.833 13.163-2.845 25.332-3.007 36.169-.124 8.307.25 15.824 1.111 22.343a3 3 0 0 1-1.729 3.122c-.835.381-20.841 9.361-55.377 12.603a258 258 0 0 1-24.102 1.107zm-113.03-28.576c57.625 22.834 105.798 24.346 136.27 21.524 27.535-2.55 45.889-8.99 51.74-11.288-.7-6.25-.997-13.276-.883-20.924.166-11.084 1.196-23.501 3.063-36.907.467-3.349.994-6.812 1.567-10.291a3.002 3.002 0 0 1 3.595-2.444l.669.15c18.45 3.873 45.275 6.583 68.287-2.499 14.8-5.841 24.596-18.498 25.563-33.033 1.016-15.239-5.578-23.508-13.215-33.083-8.604-10.79-18.357-23.019-16.621-46.959a2.998 2.998 0 0 1 1.404-2.328c4.239-2.645 11.139-8.65 11.608-13.503.186-1.917-.509-2.626-3.825-5.089-3.121-2.317-7.396-5.491-11.179-11.989-3.587-6.177-5.021-18.942-4.262-37.944.251-6.282.681-11.667.963-14.776-11.586-1.768-57.251-7.539-80.371 7.091-11.807 7.465-20.153 23.622-26.861 36.605l-.397.77c-7.475 14.476-13.931 26.978-23.36 27.528-5.927.345-11.643-3.912-18.037-13.395l-.187-.276c-14.431-21.402-23.965-35.542-45.239-42.13-20.446-6.335-44.039 5.061-50.481 24.387-5.696 17.093-1.634 37.305 10.866 54.065 11.427 15.321 27.37 24.172 42.662 23.675a3.005 3.005 0 0 1 1.854.566l.714.515a3 3 0 0 1 .985 3.651c-32.84 73.921-60.136 125.72-66.894 138.333z"/><path d="M408.609 344.98c-1.559 11.191-4.25 23.737-5.429 36.516-5.511.374-12.603-2.167-21.696-7.323-36.784-20.847-25.011-59.107-17.769-62.845 16.839 24.222 42.012 32.762 44.895 33.652zm-19.26-181.517c3.352-16.713 20.136-30.25 37.513-28.66 5.838.571 11.507 2.834 15.618 7.017 3.236 3.261 1.196 8.836-3.286 9.444-6.703 1.573-10.693 2.321-16.215 4.317-8.779 2.775-16.819 8.526-25.043 13.007l-2.489.664c-3.457 1.016-6.918-2.311-6.099-5.789zm23.601 23.381c6.664-1.265 22.717-3.927 37.741-11.204a4.132 4.132 0 0 1 5.589 2.018c2.51 5.498 5.004 15.116-5.847 18.749-13.333 4.464-34.451-.22-38.868-6.135-.949-1.271-.171-3.134 1.386-3.429zm45.937 80.522c-8.403 5.969-20.196 4.302-28.232-1.74-7.889-6.141-11.954-17.571-8.013-26.992 1.024-2.403 4.653-1.369 4.279 1.191-1.198 7.695 2.047 15.557 8.075 20.321 5.739 4.434 14.702 6.298 21.572 3.42 2.421-1.104 4.402 2.167 2.318 3.8zm-169.085-41.642a3 3 0 0 1-2.962-2.548c-5.926-38.862-36.556-41.315-37.857-41.401a3.005 3.005 0 0 1-2.802-3.182 3.005 3.005 0 0 1 3.17-2.807c.367.022 36.746 2.712 43.421 46.485a3 3 0 0 1-2.97 3.453z"/></g><g clip-path="url(#d)"><path d="M439.066 69.346a3 3 0 0 1-2.438-4.744c19.8-27.736 52.724-25.922 54.109-25.831a3 3 0 0 1-.388 5.987c-.402-.024-31.044-1.598-48.839 23.329a2.996 2.996 0 0 1-2.444 1.257z" fill="#fff"/><path d="M273.392 268.088c-6.177 0-11.989-.925-16.514-2.821a3 3 0 0 1 2.321-5.534c9.082 3.807 25.04 2.923 36.331-2.013a3 3 0 1 1 2.402 5.497c-7.341 3.209-16.267 4.869-24.54 4.869z" fill="#232323"/></g><path d="M699.796 1144.755c-34.069-265.175-61.862-406.068-135.082-542.152C493.526 470.294 403.392 414.52 403.392 414.52c-134.672 27.809-189.488-18.565-189.488-18.565S12.839 581.944.001 1148.653c0 0 104.254 31.01 355.699 31.01 125.853 0 344.097-34.908 344.097-34.908z" fill="#00676c"/><path d="M256.463 813.264c-48.225 6.9-115.738 26.957-118.184 48.625-2.467 21.856 71.516 103.936 419.926-30.716 0 0-48.431-54.15-301.742-17.908z" fill="#232323"/><path d="m568.691 861.865-29.583-74.423S422.6 467.204 326.448 455.441C169.206 436.193 216.945 810.768 220.45 831.334c20.311 116.039 76.523 199.263 135.855 241.367 30.932 22.275 78.548 39.447 134.217 40.741 137.85 3.182 276.582-68.954 343.271-69.337 10.377 32.089 76.737 41.45 108.791 7.816 22.125 1.336 33.949-14.913 36.213-27.154 15.854 3.194 34.053-8.629 36.736-20.348 10.768 8.774 42.021 5.324 42.021-14.483-.011-54.273-150.415-168.255-488.863-128.071z" fill="#fff"/><path d="M499.408 1116.544c-2.986 0-5.971-.034-8.956-.103-51.58-1.199-101.114-16.254-135.9-41.306-31.399-22.282-60.241-54.744-83.39-93.864-25.927-43.815-43.983-94.087-53.668-149.42-.454-2.666-38.778-272.039 41.105-355.767 18.125-18.996 41.075-26.943 68.212-23.621 40.933 5.007 89.617 62.889 144.701 172.037 40.755 80.755 70.122 161.113 70.414 161.915l28.7 72.2c113.41-13.269 214.332-10.441 300.02 8.407 67.655 14.882 123.938 39.973 158.48 70.651 20.263 17.995 31.423 36.555 31.426 52.261 0 8.084-4.51 14.679-12.7 18.57-9.498 4.514-22.516 4.516-30.753.435-5.147 10.872-20.879 20.737-36.02 19.201-3.393 11.917-14.874 26.858-35.908 26.859-.456 0-.914-.007-1.379-.021-21.493 21.626-53.559 23.766-74.725 18.938-18.446-4.208-32.214-14.13-37.359-26.776-26.105.731-63.529 12.11-106.683 25.232-64.976 19.757-145.272 44.172-225.618 44.172zM315.172 457.736c-20.434 0-37.966 7.539-52.23 22.491-30.812 32.294-47.729 100.794-48.926 198.094-.922 75.06 7.662 142.368 9.391 152.51 18.006 102.868 68.337 192.377 134.635 239.424 33.845 24.373 82.151 39.017 132.55 40.188 82.353 1.898 165.71-23.445 232.69-43.811 44.773-13.614 83.441-25.371 110.494-25.527h.018c1.301 0 2.454.838 2.854 2.077 3.757 11.618 16.376 20.921 33.756 24.885 21.525 4.911 51.522 1.182 70.008-18.216a2.977 2.977 0 0 1 2.353-.925c20.689 1.245 31.119-14.091 33.083-24.706a2.999 2.999 0 0 1 3.543-2.395c14.058 2.831 30.902-7.957 33.218-18.077a3 3 0 0 1 4.82-1.657c5.771 4.703 19.046 5.176 27.851.993 4.23-2.01 9.274-5.924 9.274-13.15-.003-13.765-10.722-31.179-29.409-47.776-33.789-30.009-89.115-54.612-155.786-69.277-85.604-18.83-186.645-21.535-300.313-8.039a2.999 2.999 0 0 1-3.142-1.871l-29.583-74.423c-1.19-3.268-116.997-318.725-210.236-330.131a89.733 89.733 0 0 0-10.911-.683z" fill="#232323"/><g clip-path="url(#e)" fill="#232323"><path d="M500.254 884.411a3 3 0 0 1-1.376-5.668c31.397-16.169 77.646-20.964 97.395-23.012 3.919-.406 7.62-.79 8.377-1.005a2.995 2.995 0 0 1 3.765 1.941 3.008 3.008 0 0 1-1.946 3.777c-1.159.372-3.622.638-9.577 1.255-19.412 2.013-64.873 6.727-95.267 22.378a2.983 2.983 0 0 1-1.37.333zm513.607 133.701a3 3 0 0 1-2.887-3.824c3.677-12.888 2.456-39.213-25.44-56.13a3.001 3.001 0 0 1 3.111-5.131c30.986 18.791 32.242 48.383 28.099 62.906a3.001 3.001 0 0 1-2.883 2.178zm-35.415 14.01a3.002 3.002 0 0 1-2.986-3.337c2.385-21.09-5.392-37.709-23.113-49.397a3 3 0 1 1 3.302-5.009c24.613 16.233 27.602 38.912 25.773 55.08a3.001 3.001 0 0 1-2.978 2.663zm-37.892 37.633a3 3 0 0 1-2.887-3.824c5.129-17.977 7.319-41.031-21.5-59.896a3 3 0 1 1 3.285-5.02c36.212 23.703 27.329 54.84 23.984 66.562a3.001 3.001 0 0 1-2.883 2.178zm-50.067-20.08c-.393 0-.792-.077-1.176-.241-26.969-11.496-58.769-1.241-59.087-1.136a3 3 0 0 1-1.885-5.696c1.384-.458 34.23-11.088 63.325 1.313a3.001 3.001 0 0 1-1.178 5.76z"/></g><path d="M559.366 833.06c-53.495-28.964-198.263-36.893-306.728-18.476-44.837 7.612-87.644 20.323-102.991 35.402-1.861 1.827-3.765 4.274-5.254 6.322-1.368 1.88-.591.456-.532-1.411 1.265-39.711 16.695-388.952 159.796-409.399 79.919-11.419 192.466 74.013 255.709 387.562z" fill="#00676c"/><g clip-path="url(#f)"><path d="M141.471 866.728h-.061a3 3 0 0 1-2.939-3.059c.025-1.306 9.804-156.195 45.18-281.782 22.445-79.68 55.337-125.338 97.762-135.704 40.223-9.829 88.938 13.049 137.167 64.42.456.485.843.897 1.16 1.231 65.265 68.662 111.414 174.359 141.085 323.129a3 3 0 0 1-5.884 1.174c-29.441-147.625-75.089-252.353-139.55-320.169a451.26 451.26 0 0 1-1.185-1.258c-46.685-49.724-93.341-71.99-131.368-62.698-40.168 9.815-71.596 54.059-93.411 131.502-35.203 124.973-44.931 278.976-44.957 280.275a3 3 0 0 1-2.998 2.94z" fill="#fff"/></g></svg></g><g transform="translate(992.0 1373.0) rotate(0.0 78.5 49.5) scale(1.050750583936232 1.048140344933459)"><svg width="149.417" height="94.453" viewBox="0 0 149.417 94.453"><path d="M111.727 3.007C45.041 3.558-40.529 34.676 28.6 49.22c27.554 5.802 69.748 7.008 117.817 42.233" fill="#fff"/><path d="M146.416 94.453a2.99 2.99 0 0 1-1.771-.58c-39.064-28.626-74.712-34.539-100.74-38.857-5.671-.941-11.027-1.829-15.922-2.86C8.366 48.029-.772 42.201.047 34.339 1.229 22.975 25.388 14.456 39.685 10.39 62.556 3.884 90.155 0 113.512 0a3 3 0 1 1 0 6C90.679 6 63.694 9.798 41.326 16.161 17.582 22.915 6.481 30.469 6.014 34.96c-.317 3.048 5.611 7.624 23.203 11.325 4.769 1.004 10.063 1.882 15.669 2.812 26.623 4.416 63.086 10.464 103.305 39.936a3 3 0 0 1-1.776 5.42z" fill="#232323"/></svg></g><g transform="translate(897.0 324.0) rotate(0.0 201.0 220.0) scale(0.9981848926454631 0.9996319536897779)"><svg width="402.731" height="440.162" viewBox="0 0 402.731 440.162"><path d="M59.609 3.003a2.32 2.32 0 0 0-2.433 2.368c.848 44.873-7.79 114.486-17.438 192.846C25.715 312.128 6.881 388.577 3.074 403.399a2.316 2.316 0 0 0 2.041 2.882l338.811 30.87a2.314 2.314 0 0 0 2.484-1.833c2.431-11.75 15.098-75.796 33.558-219.583 16.755-130.509 19.382-192.256 19.763-204.65a2.307 2.307 0 0 0-2.302-2.385C372.106 8.573 149.976 7.346 59.61 3.002z" fill="#fff"/><path d="M344.143 440.162c-.162 0-.325-.007-.489-.022L4.843 409.269a5.32 5.32 0 0 1-4.676-6.615c3.649-14.208 22.564-90.847 36.595-204.804l.307-2.492C46.696 117.153 55.012 49.612 54.178 5.427a5.35 5.35 0 0 1 1.613-3.925A5.4 5.4 0 0 1 59.753.006c90.28 4.34 312.634 5.569 337.69 5.695a5.272 5.272 0 0 1 3.8 1.622 5.274 5.274 0 0 1 1.486 3.855c-.345 11.166-2.915 73.518-19.787 204.94-18.496 144.076-31.23 208.381-33.596 219.808a5.314 5.314 0 0 1-5.204 4.236zM6.179 403.366l337.417 30.744c2.649-12.908 15.229-77.249 33.396-218.756C393.503 86.744 396.286 24.54 396.71 11.697c-28.187-.144-246.453-1.384-336.52-5.663.74 44.617-7.562 112.047-17.166 190.057l-.307 2.492C28.881 310.966 10.287 387.254 6.179 403.366z" fill="#232323"/><path d="M101.653 34.792c-3.202-.09-5.846 2.436-5.958 5.637-.37 10.591-2.457 28.888-3.814 44.74-1.71 19.988-3.363 35.049-4.683 43.279-.657 4.097 1.759 6.871 5.346 7.069l111.629 6.151a5.798 5.798 0 0 0 6.029-4.738c1.307-7.113 2.689-22.235 6.017-48.159 2.864-22.306 4.007-36.241 4.462-43.488a5.796 5.796 0 0 0-5.806-6.167c-20.316.066-87.649-3.606-113.222-4.323z" fill="#00676c"/><path d="M178.716 122.249c0 .481-.01.962-.029 1.452l-.26 5.81-63.994-3.598.221-5.059c.789-17.679 17.554-31.244 35.243-30.455 17.189.76 28.819 14.805 28.819 31.85z" fill="#fff"/><circle cx="154.123" cy="67.806" fill="#fff" r="15.14"/><g fill="#232323"><path d="M344.602 185.725c-.053 0-.106-.001-.159-.004L79.191 171.864a3 3 0 0 1-2.84-3.152c.086-1.655 1.523-2.931 3.152-2.839l265.252 13.857a3 3 0 0 1-.153 5.996zm-6.451 52.566a2.95 2.95 0 0 1-.188-.006l-265.055-16.4a3.001 3.001 0 0 1 .371-5.989l265.055 16.4a3.001 3.001 0 0 1-.182 5.995zm-34.796 128.843a2.9 2.9 0 0 1-.245-.01l-161.289-13.042a3 3 0 0 1-2.748-3.232 2.987 2.987 0 0 1 3.232-2.749l161.289 13.042a3 3 0 0 1-.239 5.991z"/></g><path d="M292.229 354.099c-1.721 0-3.33-.289-4.835-.865-4.75-1.82-8.008-6.348-9.725-13.491-7.253 7.184-14.17 9.258-19.023 9.636-6.197.482-11.442-1.613-13.901-3.902a9.35 9.35 0 0 1-.435-.433c-8.266 4.589-17.436 5.394-25.572 2.031-4.335-1.792-7.221-4.776-8.577-8.869-.843-2.542-.983-5.288-.714-7.989-9.143 8.373-23.84 16.153-43.291 8.001-24.938-10.451-27.632-27.129-27.018-36.141.88-12.926 9.864-25.648 20.027-28.361 8.168-2.181 18.995 3.5 24.142 12.661 2.897 5.157 7.925 18.788-7.927 33.943a3 3 0 1 1-4.146-4.337c12.354-11.811 9.59-21.777 6.842-26.667-4.155-7.398-12.481-11.104-17.363-9.803-6.897 1.842-14.808 11.512-15.589 22.972-.871 12.798 7.422 23.523 23.351 30.199 27.294 11.438 43.477-13.456 46.172-18.039.241-.44.402-.711.444-.782a3 3 0 0 1 5.218 2.959c-.014.026-.127.232-.338.587-2.05 3.638-6.122 12.871-4.111 18.917.795 2.391 2.487 4.093 5.172 5.203 6.514 2.694 13.965 1.933 20.736-1.944-.469-2.87-.075-6.3 1.207-10.049 2.232-6.522 7.019-13.354 11.849-13.792 2.294-.209 4.309.947 5.552 3.167.139.247.241.513.306.789 1.436 6.204-2.671 14.672-10.22 21.071a40.56 40.56 0 0 1-.98.805c1.564 1.008 4.748 2.127 8.7 1.82 4.606-.358 11.651-2.765 19.059-12.197a3 3 0 0 1 5.343 1.546c.595 5.802 2.286 13.094 6.958 14.884 5.315 2.034 14.778-2.791 26.671-13.58a3 3 0 1 1 4.031 4.444c-11.52 10.451-20.75 15.604-28.014 15.605zm-37.271-32.235c-1.539.793-4.741 4.692-6.468 10.101a20.497 20.497 0 0 0-.762 3.209c4.652-4.344 7.528-9.636 7.229-13.31z" fill="#d9c6f4"/><path d="M351.327 51.369h-.056l-105.406-1.925a3 3 0 0 1-2.944-3.054c.029-1.656 1.402-2.963 3.054-2.945l105.406 1.925a3 3 0 0 1-.054 5.999zm-20.643 28.996h-.06l-86.725-1.699a2.999 2.999 0 0 1-2.94-3.058c.031-1.656 1.433-2.965 3.058-2.941l86.725 1.699a2.999 2.999 0 0 1-.058 5.999z" fill="#232323"/></svg></g></svg>